<svg width="196" height="30" viewBox="0 0 196 30" fill="none" xmlns="http://www.w3.org/2000/svg">
<path d="M56.0657 0C54.4572 0 53.2471 1.21016 53.2471 2.8186V23.1769C53.2471 24.7853 54.4572 25.9955 56.0657 25.9955C57.6894 25.9955 58.9149 24.7853 58.9149 23.1769V2.8186C58.9149 1.21016 57.6894 0 56.0657 0Z" fill="#FEFFFF"/>
<path d="M85.9369 5.60657C85.462 4.51895 84.788 3.55389 83.9608 2.72669C83.1336 1.89949 82.1685 1.2408 81.0809 0.765925C79.9627 0.260414 78.7525 0 77.4964 0H70.0056C68.29 0 66.7734 0.597421 65.4254 1.8229L65.3029 1.94545C64.0161 3.2322 63.3574 4.81001 63.3574 6.64823V23.1922C63.3574 24.8006 64.5676 26.0108 66.176 26.0108C67.7998 26.0108 69.0253 24.8006 69.0253 23.1922V18.4128H77.6189C78.8444 18.3822 80.0086 18.1065 81.1115 17.6163C82.1838 17.1414 83.1489 16.4827 83.9608 15.6861C84.8033 14.8743 85.462 13.8939 85.9369 12.7909C86.4117 11.6727 86.6568 10.4778 86.6568 9.22173C86.6875 7.93498 86.4271 6.72482 85.9369 5.60657ZM81.0043 9.19109C81.0043 9.66597 80.9124 10.1255 80.7286 10.5391C80.5294 10.9834 80.269 11.3663 79.9473 11.6727C79.6257 11.9944 79.2274 12.2548 78.7831 12.4386C78.3695 12.6224 77.9253 12.7143 77.4811 12.7143H69.0253V6.63291C69.0253 6.32654 69.1019 6.14271 69.255 5.98953L69.4235 5.83634C69.592 5.7138 69.7605 5.66784 69.9903 5.66784H77.4964C77.9406 5.66784 78.3695 5.75975 78.7985 5.94357C79.2427 6.1274 79.641 6.38781 79.9627 6.7095C80.2843 7.01587 80.5448 7.39883 80.7439 7.84307C80.9277 8.27199 81.0043 8.7009 81.0043 9.19109Z" fill="#FEFFFF"/>
<path d="M46.5529 0C45.3734 0 44.3623 0.704651 44.01 1.73099L36.2129 20.3736L36.1363 20.4195C36.075 20.4502 36.0291 20.4502 35.8912 20.4042L35.8453 20.3889C35.8146 20.3736 35.7993 20.3583 35.784 20.297L28.0022 1.62376L27.9103 1.43994C27.4048 0.536147 26.4857 0 25.4746 0H19.0868H13.4496H2.6501C1.19484 0 0 1.17952 0 2.6501V3.03306C0 4.48832 1.17952 5.68316 2.6501 5.68316H10.7842V23.1769C10.7842 24.7853 12.0097 25.9955 13.6335 25.9955C15.2419 25.9955 16.4521 24.7853 16.4521 23.1769V5.68316H23.6671L30.6676 22.4263C30.8821 22.9318 31.1731 23.422 31.5255 23.8509C31.8625 24.2645 32.2607 24.6321 32.659 24.9079L33.0113 25.1683C33.9305 25.7197 34.9415 25.9955 36.0291 25.9955C37.1627 25.9955 38.2196 25.6891 39.1387 25.107L39.3992 24.9538C40.2723 24.3258 40.9463 23.4832 41.4212 22.4263L49.3562 3.43134V2.8186C49.3409 1.21016 48.146 0 46.5529 0Z" fill="#FEFFFF"/>
<path d="M112.439 14.0352H103.562C103.228 14.0352 103 14.2628 103 14.5975C103 14.959 103.228 15.1866 103.562 15.1866H107.418V24.8535C107.418 25.2016 107.646 25.4158 108.007 25.4158C108.342 25.4158 108.57 25.1882 108.57 24.8535V15.1866H112.426C112.774 15.1866 112.988 14.959 112.988 14.5975C113.002 14.2628 112.774 14.0352 112.439 14.0352Z" fill="#FEFFFF"/>
<path d="M126.685 15.065C126.645 14.7571 126.511 14.5161 126.27 14.3286C126.043 14.1546 125.788 14.0742 125.52 14.0742C125.253 14.0742 125.025 14.1546 124.838 14.3018C124.664 14.4357 124.543 14.6098 124.449 14.824L120.888 24.3168C120.874 24.3436 120.874 24.3436 120.874 24.3436C120.874 24.3436 120.861 24.3436 120.834 24.3436C120.794 24.3436 120.767 24.3436 120.767 24.3436L117.192 14.8106C117.112 14.6098 116.978 14.4357 116.804 14.3018C116.617 14.1546 116.389 14.0742 116.121 14.0742C115.84 14.0742 115.599 14.1546 115.372 14.3286C115.131 14.5161 114.997 14.7571 114.956 15.0516L113.591 24.8256V24.9059C113.591 25.0666 113.658 25.2005 113.765 25.2942C113.872 25.3879 113.992 25.4281 114.14 25.4281C114.421 25.4281 114.622 25.2541 114.675 24.9863L116.028 15.2123C116.028 15.1989 116.054 15.1721 116.108 15.1453C116.121 15.1453 116.135 15.1587 116.162 15.1587C116.162 15.1587 116.175 15.1721 116.175 15.1855L119.736 24.6917C119.91 25.1737 120.299 25.4415 120.821 25.4415C121.062 25.4415 121.29 25.3746 121.477 25.2407C121.664 25.1068 121.798 24.9327 121.892 24.7051L125.453 15.1989C125.453 15.1855 125.467 15.1721 125.467 15.1721C125.48 15.1721 125.494 15.1587 125.52 15.1587C125.574 15.1855 125.601 15.2123 125.601 15.2257L126.953 24.9997C127.007 25.2808 127.221 25.4415 127.489 25.4415C127.623 25.4415 127.756 25.4013 127.864 25.3076C127.984 25.2139 128.038 25.0666 128.038 24.9193V24.8792L126.685 15.065Z" fill="#FEFFFF"/>
<path d="M139.98 20.9426C139.686 20.5543 139.311 20.2464 138.842 20.0188C138.4 19.7912 137.878 19.6305 137.302 19.5234C136.753 19.4163 136.178 19.3226 135.615 19.2556C135.053 19.1753 134.491 19.0949 133.955 19.0012C133.433 18.9209 132.978 18.787 132.576 18.6129C132.201 18.4523 131.893 18.2247 131.666 17.9569C131.451 17.7025 131.344 17.3678 131.344 16.9125C131.344 16.4171 131.505 16.0155 131.84 15.6807L132 15.5335C132.322 15.2791 132.67 15.1586 133.071 15.1586H137.476C137.878 15.1586 138.226 15.2791 138.534 15.5335L138.708 15.6807C139.043 16.0155 139.204 16.4171 139.204 16.9125C139.204 17.2606 139.431 17.4749 139.793 17.4749C140.127 17.4749 140.355 17.2473 140.355 16.9125V16.8991C140.355 16.1092 140.074 15.4264 139.512 14.864L139.445 14.7971C138.882 14.2883 138.226 14.0205 137.476 14.0205H133.071C132.322 14.0205 131.666 14.2883 131.09 14.8105L131.023 14.8774C130.461 15.4665 130.179 16.1494 130.179 16.9259C130.179 17.5284 130.313 18.0372 130.594 18.4389C130.862 18.8272 131.224 19.1619 131.692 19.4163C132.134 19.6573 132.67 19.8581 133.259 19.992C133.821 20.1259 134.45 20.2196 135.107 20.3C135.481 20.3937 135.937 20.4606 136.459 20.5142C136.954 20.5677 137.423 20.6615 137.865 20.7954C138.28 20.9159 138.628 21.1167 138.909 21.3979C139.163 21.6389 139.297 22.0271 139.297 22.5493C139.297 22.7903 139.257 23.0179 139.163 23.2188C139.07 23.433 138.949 23.6204 138.789 23.7811C138.628 23.9418 138.44 24.0623 138.24 24.156C138.039 24.2497 137.811 24.2899 137.584 24.2899H132.951C132.482 24.2899 132.081 24.1292 131.746 23.8079L131.679 23.7275C131.371 23.3928 131.224 23.0045 131.224 22.5493C131.224 22.2012 130.996 21.987 130.635 21.987C130.3 21.987 130.072 22.2146 130.072 22.5493V22.6564C130.099 23.366 130.353 23.9819 130.835 24.5041L130.889 24.5711L130.916 24.6112C131.478 25.1736 132.161 25.4547 132.951 25.4547H137.584C137.972 25.4547 138.347 25.3744 138.695 25.2271C139.03 25.0798 139.337 24.879 139.605 24.6112C139.873 24.3568 140.087 24.0355 140.235 23.6874C140.382 23.3393 140.462 22.951 140.462 22.5493C140.435 21.8799 140.288 21.3443 139.98 20.9426Z" fill="#FEFFFF"/>
<path d="M145.363 20.2065C145.363 18.3722 146.929 16.8057 148.764 16.8057H150.263C152.097 16.8057 153.664 18.3722 153.664 20.2065V21.8667C153.664 23.701 152.097 25.2675 150.263 25.2675H148.764C147.867 25.2675 147.01 24.906 146.367 24.2633L145.912 23.8081V29.0432C145.912 29.1771 145.791 29.2976 145.631 29.2976C145.497 29.2976 145.376 29.1771 145.376 29.0432V20.2065H145.363ZM145.898 21.9337C145.898 23.4734 147.264 24.732 148.764 24.732H150.263C151.83 24.732 153.128 23.4332 153.128 21.8667V20.2065C153.128 18.64 151.83 17.3412 150.263 17.3412H148.764C147.197 17.3412 145.898 18.64 145.898 20.2065V21.3713V21.9337Z" fill="#FEFFFF"/>
<path d="M155.887 14.3555C155.887 14.2216 156.007 14.1011 156.141 14.1011C156.302 14.1011 156.422 14.2216 156.422 14.3555V25.0131C156.422 25.147 156.302 25.2675 156.141 25.2675C156.007 25.2675 155.887 25.147 155.887 25.0131V14.3555Z" fill="#FEFFFF"/>
<path d="M163.599 16.8057C165.46 16.8057 167.08 18.3454 167.08 20.26V21.8132C167.08 23.7278 165.46 25.2675 163.599 25.2675H161.376C159.876 25.2675 158.671 24.0625 158.671 22.5629C158.671 21.0768 159.876 19.8851 161.376 19.8851H166.517L166.437 19.5638C166.116 18.2785 164.911 17.3412 163.599 17.3412H160.064C159.93 17.3412 159.809 17.2207 159.809 17.0868C159.809 16.9262 159.93 16.8057 160.064 16.8057H160.318H163.599ZM163.599 24.732C165.219 24.732 166.517 23.3663 166.517 21.8132V20.4341H161.376C160.171 20.4341 159.22 21.3981 159.22 22.5763C159.22 23.7813 160.184 24.732 161.376 24.732H162.581H163.599Z" fill="#FEFFFF"/>
<path d="M175.944 25.7495C175.944 27.5838 174.377 29.1503 172.543 29.1503H171.78C171.646 29.1503 171.525 29.0298 171.525 28.8959C171.525 28.7353 171.646 28.6148 171.78 28.6148H172.543C174.109 28.6148 175.408 27.316 175.408 25.7495V22.1479L174.953 22.6031C174.31 23.2458 173.453 23.6073 172.556 23.6073C170.722 23.6073 169.155 22.0408 169.155 20.2065V17.0601C169.155 16.9262 169.276 16.8057 169.41 16.8057C169.57 16.8057 169.691 16.9262 169.691 17.0601V20.2065C169.691 21.773 170.99 23.0717 172.556 23.0717C174.123 23.0717 175.421 21.773 175.421 20.2065V17.0467L175.435 17.0333V16.9931L175.448 16.9529L175.462 16.9396L175.475 16.8994L175.515 16.8592L175.555 16.8458L175.595 16.8324H175.636H175.676H175.716H175.756L175.769 16.8458L175.81 16.8592L175.823 16.8726L175.836 16.886L175.85 16.8994L175.863 16.9396L175.877 16.9529L175.89 16.9663V17.0065V17.0467V25.7495H175.944Z" fill="#FEFFFF"/>
<path d="M179.224 22.9912C179.679 24.0489 180.763 24.7318 181.888 24.7318H185.61C185.744 24.7318 185.864 24.8523 185.864 24.9861C185.864 25.1468 185.744 25.2673 185.61 25.2673H181.888C179.866 25.2673 178.434 23.5669 178.434 21.6523V20.2732C178.434 18.3988 180.014 16.8188 181.888 16.8188H183.428C185.302 16.8188 186.882 18.3988 186.882 20.2732V21.6791C186.882 21.9602 186.668 22.1745 186.4 22.1745H178.862L179.224 22.9912ZM186.347 20.2732C186.347 18.6933 185.008 17.3544 183.428 17.3544H181.888C180.321 17.3544 178.969 18.6799 178.969 20.2732V21.6389H186.347V20.2732V20.2732Z" fill="#FEFFFF"/>
<path d="M188.944 20.233C188.985 18.372 190.524 16.8188 192.399 16.8188H193.483C194.407 16.8188 195.277 17.1803 195.92 17.8364C195.974 17.8766 196 17.9569 196 18.0105C196 18.1711 195.88 18.2916 195.746 18.2916C195.666 18.2916 195.612 18.2782 195.545 18.2113C194.983 17.6757 194.246 17.3544 193.483 17.3544H192.399C190.859 17.3544 189.52 18.6531 189.48 20.2197V24.9995C189.48 25.1602 189.359 25.2807 189.226 25.2807C189.065 25.2807 188.944 25.1602 188.944 24.9995V20.2598V20.233V20.233Z" fill="#FEFFFF"/>
</svg>
