<svg width="134" height="192" viewBox="0 0 134 192" fill="none" xmlns="http://www.w3.org/2000/svg">
<path d="M19.1963 132.958C19.3499 132.818 19.5245 132.671 19.713 132.517C19.5524 132.671 19.3499 132.818 19.1963 132.958Z" fill="#F39A83"/>
<path d="M19.916 132.356L20.349 132.02L19.916 132.356Z" fill="#F39A83"/>
<path d="M21.3828 131.285L21.9345 130.899L21.3828 131.285Z" fill="#F39A83"/>
<path d="M17.6396 136.467C17.7172 137.409 17.9882 138.324 18.4357 139.156C17.9882 138.324 17.7172 137.409 17.6396 136.467Z" fill="#F39A83"/>
<path d="M20.5996 131.837L21.0884 131.487L20.5996 131.837Z" fill="#F39A83"/>
<path d="M22.6113 126.585L22.9465 126.425L22.6113 126.585Z" fill="#50A2D3"/>
<path d="M22.0244 126.859L22.5272 126.628L22.0244 126.859Z" fill="#50A2D3"/>
<path d="M43.8814 116.123L43.3926 116.361L44.1956 117.349C44.0298 116.958 43.9239 116.545 43.8814 116.123Z" fill="#50A2D3"/>
<path d="M21.6473 129.246C21.5674 128.878 21.523 128.503 21.5146 128.126C21.523 128.503 21.5674 128.878 21.6473 129.246Z" fill="#50A2D3"/>
<path d="M51.1873 121.243C49.3019 120.997 47.4793 120.647 46.0547 119.632L51.2921 126.061C51.2083 124.555 51.1734 122.895 51.1873 121.243Z" fill="#50A2D3"/>
<path d="M68.7422 127.664C70.0945 126.391 71.5393 125.221 73.0648 124.162C71.6681 123.882 70.3064 123.546 68.9168 123.287L68.7422 127.664Z" fill="#50A2D3"/>
<path d="M75.9766 56.2266L77.0659 56.3381C76.7098 56.2963 76.3467 56.2544 75.9766 56.2266Z" fill="#F39A83"/>
<path d="M74.8105 56.1494L75.6974 56.2052L74.8105 56.1494Z" fill="#F39A83"/>
<path d="M65.5439 59.2104C66.1915 59.5666 66.904 59.7881 67.6389 59.8617C68.9308 59.9877 71.3889 59.6796 72.3525 58.8112C73.002 58.237 73.2603 56.8924 73.3651 56.0871L74.5103 56.1291L72.988 56.0801V57.1935C72.988 57.1935 68.1836 59.2244 65.5439 59.2104Z" fill="#F39A83"/>
<path d="M77.7364 56.4367L77.2686 56.374L77.7364 56.4437V56.4367Z" fill="#F39A83"/>
<path d="M63.6024 57.2633C63.5395 56.8991 63.4837 56.472 63.4348 56.0098H63.2393C63.2809 56.4467 63.4041 56.872 63.6024 57.2633Z" fill="#F39A83"/>
<path d="M65.5437 59.2097C68.1833 59.2097 72.9878 57.1928 72.9878 57.1928V56.0793L72.9319 48.7402L72.9878 56.6816C72.9878 56.6816 72.9878 56.6816 72.9878 56.6396C71.9725 54.8667 70.4855 53.4119 68.6931 52.4378C66.9906 51.6224 65.0781 51.3558 63.2183 51.6745C63.2183 50.8271 63.2183 49.9938 63.2672 49.1744H63.1834C63.1445 51.4632 63.2378 53.7523 63.4627 56.0303C63.5116 56.4925 63.5675 56.9197 63.6303 57.2839C64.055 58.1081 64.7233 58.7807 65.5437 59.2097Z" fill="#F39A83"/>
<path d="M63.777 49.3853C63.5885 49.3293 63.4209 49.2453 63.2393 49.1822C63.2393 50.0016 63.1974 50.8349 63.1904 51.6823C65.0502 51.3636 66.9627 51.6302 68.6652 52.4456C70.4577 53.4197 71.9446 54.8745 72.9599 56.6474C72.9599 56.6474 72.9599 56.6474 72.9599 56.6894L72.904 48.748C70.0481 50.0973 66.7918 50.3247 63.777 49.3853Z" fill="#D48873"/>
<path d="M92.3381 120.99C92.3663 120.724 92.3663 120.457 92.3381 120.191C92.3242 120.414 92.2891 120.634 92.2334 120.85C92.2893 120.892 92.3102 120.941 92.3381 120.99Z" fill="white"/>
<path d="M46.0892 119.631C47.4858 120.647 49.3364 120.997 51.2218 121.242V120.731C49.7239 119.746 48.396 118.523 47.2903 117.11C46.079 115.506 45.1205 113.726 44.4481 111.83C44.2945 113.364 43.7498 114.722 43.9174 116.123C43.9599 116.545 44.0658 116.958 44.2317 117.348L46.0892 119.631Z" fill="white"/>
<path d="M73.0645 124.134L73.2042 124.043C73.0845 123.992 72.9755 123.918 72.883 123.826C72.1847 123.126 73.4137 121.459 73.8397 120.577L74.9291 118.301C73.9242 119.917 72.487 121.217 70.7811 122.054C70.181 122.324 69.5654 122.558 68.9375 122.755V123.252C70.3062 123.518 71.6819 123.854 73.0645 124.134Z" fill="white"/>
<path d="M85.4595 72.1309C86.06 77.0329 84.7612 82.7403 83.6229 86.627C83.0434 88.5878 82.3247 90.5045 81.4721 92.3624C81.3673 92.5865 81.2137 92.8596 81.0531 93.1467C82.3152 93.6368 83.3609 94.5634 84.0012 95.759C84.6416 96.9547 84.8343 98.3407 84.5447 99.6665C84.0559 102.342 80.7947 105.794 79.0629 105.22C78.6998 107.237 78.2738 109.218 77.8059 111.137C77.5029 112.384 77.1275 113.611 76.6816 114.814H91.6954C91.6954 114.527 91.6535 114.24 91.6535 113.952C91.6535 112.489 91.7932 111.102 91.6535 109.604C91.479 107.44 91.3114 105.283 91.1158 103.126C90.4734 96.1697 89.6261 89.2321 88.574 82.3132C88.134 79.3929 87.6662 76.4797 87.1285 73.5735C86.5907 73.0763 86.0111 72.5931 85.4595 72.1309Z" fill="white"/>
<path d="M53.9796 62.5432C53.7561 63.1244 53.5257 63.6987 53.2812 64.2799C56.6678 62.7068 60.4774 62.2981 64.1191 63.1174C65.7881 63.5376 67.3314 64.357 69.0073 64.7351C70.8375 65.1429 72.7471 64.9992 74.4961 64.3219C75.767 63.8317 76.9821 63.0474 78.3438 63.0264C78.9848 63.0278 79.6173 63.1738 80.1944 63.4536C80.1315 63.2925 80.0617 63.1244 79.9988 62.9564C79.1841 60.8041 78.423 58.6332 77.7153 56.4436L77.2475 56.3736H77.045L75.9556 56.2615H75.6763L74.7894 56.2055H74.4821L73.3369 56.1635C73.2322 56.9688 72.9738 58.3134 72.3243 58.8876C71.3607 59.756 68.9026 60.0641 67.6107 59.9381C66.8758 59.8646 66.1633 59.643 65.5158 59.2868C64.6818 58.8571 64.003 58.1763 63.5744 57.34C63.3781 56.9273 63.2642 56.48 63.2392 56.0234C60.7113 56.0655 58.4907 55.9464 56.2142 56.2125C55.5159 58.3367 54.771 60.447 53.9796 62.5432Z" fill="white"/>
<path d="M92.6455 75.716C94.4567 77.3033 96.3494 78.7946 98.3158 80.1838C101.333 82.0956 103.651 84.3856 106.926 82.3828L107.261 82.1657C107.955 81.676 108.599 81.1176 109.182 80.499C106.898 80.1208 105.096 81.6405 103.379 78.3981C102.506 76.7461 101.858 74.9844 101.451 73.1599C102.45 72.2635 103.483 71.3111 104.538 70.3587C102.764 69.0421 100.979 67.8096 99.1818 66.6611C97.641 70.0945 95.4168 73.1759 92.6455 75.716Z" fill="#F39A83"/>
<path d="M109.734 79.834C109.573 80.0301 109.413 80.2192 109.245 80.4082C109.413 80.2472 109.58 80.0581 109.734 79.834Z" fill="#F39A83"/>
<path d="M80.0204 62.9565C80.0833 63.1246 80.1531 63.2926 80.2159 63.4537C80.6273 63.647 81.018 63.8816 81.3821 64.154C83.9031 66.0308 85.0762 68.909 85.4603 72.1093C86.012 72.6066 86.5776 73.0898 87.1572 73.552C88.5538 74.6724 89.9994 75.7229 91.4798 76.7383C91.8778 76.4162 92.2689 76.038 92.646 75.7299C95.4226 73.1755 97.6472 70.077 99.1822 66.626C99.266 66.437 99.3568 66.2549 99.4336 66.0728C93.8471 62.6203 88.3513 59.6021 86.9338 58.9998C83.9886 57.7121 80.8869 56.8197 77.709 56.3457C77.709 56.3457 77.709 56.4017 77.709 56.4227C78.4352 58.631 79.2057 60.8089 80.0204 62.9565Z" fill="white"/>
<path d="M123.923 46.1001C124.405 45.5399 125.724 44.3774 127.051 43.1589C127.582 41.3731 126.863 40.7148 126.863 40.7148C120.62 44.2163 122.338 49.1884 122.708 50.0638C122.715 50.0428 122.727 50.0237 122.743 50.0078C122.771 48.9153 123.141 46.9965 123.923 46.1001Z" fill="#F39A83"/>
<path d="M123.923 46.1004C123.141 46.9967 122.771 48.9015 122.743 50.008C123.33 49.0766 123.847 48.1872 124.265 47.3469C128.281 39.1954 128.965 49.5668 128.965 49.5668C128.267 51.0164 127.617 52.424 126.94 53.8176C127.988 53.3134 130.997 51.7167 132.701 49.1256C134.796 45.9393 133.902 43.3972 133.19 42.0457C132.701 41.1213 131.095 38.2851 130.46 39.6086C130.11 40.3089 128.574 41.7725 127.052 43.1591C125.697 44.3776 124.405 45.5191 123.923 46.1004Z" fill="#F39A83"/>
<path d="M103.351 78.433C105.069 81.6684 106.843 80.1487 109.154 80.5339L109.21 80.4638C109.378 80.2748 109.538 80.0857 109.699 79.8896C116.616 72.057 122.408 63.2932 126.905 53.8526C127.604 52.452 128.253 51.0514 128.931 49.6018C128.931 49.6018 128.232 39.2305 124.231 47.3819C123.812 48.2223 123.295 49.1116 122.709 50.043C122.693 50.0589 122.681 50.0781 122.674 50.099C118.735 56.2406 111.27 64.0419 104.517 70.4076C103.463 71.388 102.422 72.3404 101.424 73.2088C101.834 75.0278 102.482 76.7844 103.351 78.433Z" fill="#F39A83"/>
<path d="M36.473 65.1836C34.1336 66.5842 31.7803 68.2019 29.4898 69.9246C30.5443 70.905 31.5848 71.8574 32.5764 72.7608C32.1691 74.5828 31.5209 76.3421 30.649 77.992C28.9311 81.2274 27.5345 80.0929 25.251 80.4991C24.8041 79.9878 24.3781 79.4836 23.9521 78.9864C24.7206 80.0602 25.6651 80.9956 26.7454 81.7526L27.0806 81.9697C30.3557 83.9935 32.6671 81.6826 35.6909 79.7778C37.5541 78.4709 39.3488 77.0684 41.0679 75.576L41.2634 75.2258C40.4327 71.5623 38.796 68.1312 36.473 65.1836Z" fill="#F39A83"/>
<path d="M53.3026 64.2806C53.5261 63.6994 53.7565 63.1251 54.0009 62.5439C54.797 60.4477 55.5396 58.3328 56.2286 56.1992L56.3124 55.9541C53.1267 56.4196 50.0172 57.3099 47.0666 58.6012C45.7748 59.1474 41.1379 61.6755 36.124 64.7148C36.2497 64.8689 36.3545 65.0299 36.4732 65.184C38.79 68.1241 40.4241 71.5451 41.2567 75.1982C43.9955 70.3536 48.2201 66.5246 53.3026 64.2806Z" fill="white"/>
<path d="M10.0762 45.687C10.8583 46.5834 11.2284 48.4882 11.2563 49.5947C11.2704 49.6117 11.2822 49.6305 11.2913 49.6507C11.6614 48.7823 13.3862 43.8453 7.10135 40.3018C7.10135 40.3018 6.40304 40.96 6.91281 42.7458C8.27452 43.9643 9.58736 45.1268 10.0762 45.687Z" fill="#F39A83"/>
<path d="M9.7344 46.9203C10.1953 47.8333 10.7035 48.7215 11.2567 49.5814C11.2567 48.4889 10.8587 46.5701 10.0766 45.6737C9.58775 45.1135 8.27492 43.951 6.94812 42.7325C5.42579 41.3599 3.88949 39.9173 3.54033 39.217C2.8909 37.8935 1.29873 40.7297 0.809911 41.6541C0.111595 43.0126 -0.789234 45.5477 1.29873 48.734C3.00961 51.3461 6.0403 52.9358 7.07381 53.433C6.3755 52.0324 5.67718 50.6318 5.03473 49.1752C5.03473 49.1542 5.71209 38.7828 9.7344 46.9203Z" fill="#F39A83"/>
<path d="M30.6215 77.9921C31.4941 76.3401 32.1423 74.5784 32.5488 72.7539C31.5502 71.8575 30.5167 70.9051 29.4623 69.9527C22.6956 63.65 15.2306 55.8207 11.306 49.6792C11.297 49.659 11.2852 49.6401 11.2711 49.6231C10.7118 48.7499 10.199 47.8476 9.73483 46.92C5.71252 38.7686 5.03516 49.1399 5.03516 49.1399C5.73347 50.5825 6.38291 51.9971 7.07424 53.3977C11.5487 62.6266 17.2141 71.2252 23.9246 78.9725C24.3506 79.4697 24.7766 79.9739 25.2235 80.4851C27.507 80.114 28.9036 81.2345 30.6215 77.9921Z" fill="#F39A83"/>
<path d="M63.7775 49.3853C66.7996 50.328 70.0645 50.098 72.9255 48.741C73.5854 48.4277 74.2144 48.0525 74.8039 47.6206C76.8083 46.053 78.5362 44.1592 79.9156 42.0182C81.0958 40.2955 81.4799 38.0475 82.1712 36.0657C82.0136 35.9096 81.9065 35.7095 81.8639 35.4914C81.5567 34.1329 81.8639 32.6903 82.7787 30.3583C82.9638 29.8811 83.1087 29.3892 83.2117 28.8877C83.0157 28.5519 82.8875 28.1807 82.8346 27.7952C82.4575 25.7433 82.0176 23.6425 81.829 21.5626C81.5567 18.6003 80.6838 17.0387 77.2271 16.8636C75.2997 16.7585 73.4003 17.2978 71.5219 17.746C69.6434 18.1942 67.6671 18.5583 65.7887 18.1101C63.6937 17.6059 61.7245 16.1073 59.5806 16.4364C55.6142 17.0527 55.8586 20.7993 55.5094 23.9296L55.2162 26.6117C55.1603 27.1509 55.1533 27.7252 55.1114 28.2434L55.0486 28.1453C55.0486 28.3554 55.0486 28.5795 55.1114 28.8456C55.4466 31.3177 55.3977 32.8023 54.7692 34.0488C54.6868 34.2181 54.5646 34.3647 54.4131 34.476C54.8472 37.0447 55.5109 39.5689 56.3963 42.0182V42.1022C56.9185 43.7153 57.7932 45.1912 58.9566 46.4221C60.1201 47.653 61.5428 48.608 63.1211 49.2172H63.2049C63.4214 49.2453 63.589 49.3293 63.7775 49.3853ZM73.9031 31.7239C73.6345 31.7093 73.3823 31.5897 73.2008 31.3906C73.0193 31.1916 72.9229 30.929 72.9325 30.6594C72.9386 30.5235 72.9719 30.3902 73.0304 30.2675C73.089 30.1447 73.1715 30.035 73.2731 29.9449C73.3747 29.8547 73.4933 29.786 73.622 29.7427C73.7506 29.6994 73.8866 29.6825 74.0218 29.693C74.1545 29.6984 74.2849 29.7301 74.4053 29.7863C74.5257 29.8424 74.6338 29.922 74.7234 30.0203C74.813 30.1186 74.8823 30.2338 74.9273 30.3591C74.9723 30.4844 74.9921 30.6174 74.9855 30.7505C74.9802 30.8863 74.9478 31.0198 74.8901 31.1428C74.8324 31.2659 74.7507 31.3761 74.6497 31.4669C74.5488 31.5577 74.4307 31.6272 74.3024 31.6713C74.1742 31.7155 74.0384 31.7333 73.9031 31.7239ZM72.7858 25.5403C74.625 25.5436 76.4055 26.1899 77.8207 27.368C77.8753 27.4144 77.9202 27.4712 77.9529 27.535C77.9856 27.5989 78.0055 27.6686 78.0113 27.7401C78.0171 27.8117 78.0089 27.8837 77.9869 27.952C77.965 28.0203 77.9299 28.0836 77.8835 28.1383C77.8333 28.201 77.7694 28.2513 77.6968 28.2853C77.6241 28.3193 77.5447 28.3361 77.4645 28.3344C77.3356 28.336 77.2108 28.2884 77.1154 28.2014C75.9115 27.1731 74.3812 26.6094 72.7998 26.6117C72.6651 26.5964 72.5407 26.5319 72.4503 26.4305C72.36 26.3291 72.3101 26.1979 72.3101 26.062C72.3101 25.926 72.36 25.7948 72.4503 25.6934C72.5407 25.592 72.6651 25.5275 72.7998 25.5122L72.7858 25.5403ZM66.1308 35.4284C66.1569 35.2581 66.1942 35.0896 66.2426 34.9242C66.3264 34.6161 66.4381 34.315 66.5429 34.0278C66.7873 33.4466 67.0456 32.9144 67.304 32.3821C67.5694 31.8385 67.8025 31.2796 68.0023 30.7084C68.2048 31.3312 68.229 31.9984 68.0722 32.6342C67.9385 33.2456 67.7492 33.8434 67.5065 34.42C67.3878 34.6931 67.2831 34.9662 67.1783 35.2393C67.0719 35.4348 67.0032 35.6486 66.9758 35.8696C67.0135 36.124 67.1143 36.3648 67.2691 36.5699C67.4346 36.8288 67.6165 37.0767 67.8138 37.3122C67.4889 37.2486 67.1802 37.12 66.906 36.9341C66.59 36.7418 66.3449 36.4518 66.2077 36.1077C66.1194 35.8929 66.0928 35.6576 66.1308 35.4284ZM59.9996 27.5431C59.8834 27.5437 59.7701 27.5071 59.6761 27.4385C59.5822 27.3699 59.5126 27.273 59.4775 27.1619C59.4424 27.0508 59.4436 26.9314 59.481 26.821C59.5184 26.7107 59.59 26.6153 59.6854 26.5487C61.2015 25.5047 63.0365 25.031 64.8669 25.2111C65.0114 25.226 65.144 25.2978 65.2357 25.4107C65.3274 25.5237 65.3705 25.6685 65.3557 25.8134C65.3409 25.9582 65.2693 26.0913 65.1567 26.1832C65.0441 26.2751 64.8996 26.3184 64.7552 26.3036C63.1833 26.1527 61.6091 26.5672 60.3139 27.4731C60.2194 27.5298 60.1092 27.5544 59.9996 27.5431ZM61.9759 30.1692C61.9844 29.9683 62.0522 29.7745 62.1706 29.6123C62.2891 29.4502 62.4529 29.3269 62.6413 29.2581C62.8297 29.1894 63.0342 29.1783 63.2289 29.2262C63.4236 29.2741 63.5997 29.3789 63.7349 29.5273C63.8702 29.6757 63.9585 29.8611 63.9886 30.0598C64.0187 30.2586 63.9893 30.4618 63.9041 30.6438C63.8189 30.8258 63.6818 30.9784 63.5101 31.0821C63.3384 31.1859 63.1398 31.2362 62.9395 31.2267C62.8068 31.2213 62.6765 31.1896 62.5561 31.1334C62.4357 31.0772 62.3275 30.9977 62.2379 30.8994C62.1483 30.801 62.079 30.6859 62.0341 30.5606C61.9891 30.4352 61.9693 30.3022 61.9759 30.1692ZM62.5485 39.9733L72.709 40.4285C72.3319 42.5784 70.0903 44.1681 67.4576 44.0491C64.825 43.93 62.73 42.1583 62.5485 39.9873V39.9733Z" fill="#F39A83"/>
<path d="M83.2111 28.9149C83.1081 29.4164 82.9633 29.9083 82.7782 30.3855C81.8564 32.7035 81.5561 34.1601 81.8634 35.5187C81.906 35.7367 82.0131 35.9368 82.1706 36.0929C83.26 37.1434 86.5281 34.8954 87.3382 32.8436C87.7796 31.8311 87.8195 30.688 87.4497 29.647C87.08 28.6061 86.3283 27.7457 85.348 27.2412C84.6636 28.5578 83.7977 29.7483 83.2111 28.9149ZM84.4192 29.2721C84.9896 29.5397 85.4311 30.023 85.647 30.6162C85.8629 31.2094 85.8358 31.8642 85.5714 32.4374C85.3847 32.9718 85.0186 33.4245 84.5359 33.7183C84.0532 34.0121 83.4837 34.1286 82.9248 34.0481C83.0564 33.6411 83.1659 33.2273 83.253 32.8086C83.4625 31.8071 83.3717 30.0074 84.2656 29.3071C84.2656 29.3071 84.2656 29.3071 84.3075 29.2581L84.4192 29.2721Z" fill="#F39A83"/>
<path d="M83.253 32.8089C83.1659 33.2277 83.0563 33.6415 82.9248 34.0485C83.4837 34.129 84.0532 34.0125 84.5359 33.7187C85.0186 33.4249 85.3846 32.9722 85.5714 32.4378C85.8358 31.8646 85.8629 31.2098 85.647 30.6166C85.431 30.0234 84.9896 29.5401 84.4192 29.2725H84.3075C84.3075 29.2725 84.3075 29.3075 84.2656 29.3215C83.3717 29.9868 83.4625 31.8075 83.253 32.8089Z" fill="#F39A83"/>
<path d="M54.7688 33.9851C55.3973 32.7386 55.4671 31.254 55.111 28.7819C55.111 28.5508 55.0621 28.3267 55.0481 28.0816C54.456 27.1122 53.9868 26.0724 53.6515 24.9863H53.5747C53.0156 25.0868 52.4818 25.2968 52.0037 25.6043C51.5256 25.9117 51.1127 26.3107 50.7884 26.7783C50.4641 27.2459 50.2349 27.773 50.1139 28.3295C49.9929 28.886 49.9824 29.4609 50.0831 30.0215C50.3903 32.2554 53.1277 35.2947 54.4057 34.3703C54.5547 34.2717 54.6789 34.1398 54.7688 33.9851ZM54.0705 32.3044C53.5138 32.243 52.9951 31.9918 52.6011 31.5928C52.207 31.1938 51.9615 30.6713 51.9057 30.1125C51.7862 29.4935 51.915 28.8522 52.264 28.3277C52.6131 27.8033 53.1543 27.4381 53.7702 27.3113C53.8097 27.3079 53.8494 27.3079 53.8889 27.3113C53.8902 27.33 53.8902 27.3487 53.8889 27.3673C54.5872 28.2567 54.0635 30.0004 54.0286 31.0229C54.0252 31.4509 54.0462 31.8788 54.0914 32.3044H54.0705Z" fill="#F39A83"/>
<path d="M53.9308 27.3606C53.9322 27.3419 53.9322 27.3232 53.9308 27.3045C53.8772 27.3007 53.8233 27.303 53.7702 27.3115C53.153 27.4367 52.6101 27.8013 52.2596 28.3259C51.9092 28.8505 51.7794 29.4927 51.8987 30.1127C51.9539 30.676 52.2017 31.2027 52.6001 31.6035C52.9985 32.0043 53.523 32.2545 54.0845 32.3117C54.06 31.8825 54.06 31.4523 54.0845 31.0231C54.1054 29.9937 54.6291 28.2499 53.9308 27.3606Z" fill="#F39A83"/>
<path d="M67.457 44.063C70.0897 44.1821 72.3452 42.5924 72.7084 40.4425L62.5479 39.9873C62.7294 42.1582 64.8244 43.944 67.457 44.063Z" fill="white"/>
<path d="M74.022 29.6926C73.889 29.6861 73.756 29.7058 73.6307 29.7509C73.5053 29.7959 73.39 29.8653 73.2914 29.955C73.1928 30.0448 73.1128 30.1532 73.0561 30.274C72.9993 30.3948 72.9669 30.5257 72.9606 30.6591C72.9511 30.9286 73.0474 31.1912 73.2289 31.3903C73.4105 31.5893 73.6627 31.709 73.9313 31.7235C74.0643 31.7291 74.1971 31.7084 74.3221 31.6625C74.4471 31.6166 74.5618 31.5465 74.6598 31.4561C74.7577 31.3657 74.8369 31.2568 74.8928 31.1356C74.9488 31.0145 74.9803 30.8835 74.9857 30.7501C74.9923 30.6171 74.9725 30.484 74.9275 30.3587C74.8825 30.2334 74.8132 30.1183 74.7237 30.0199C74.6341 29.9216 74.5259 29.8421 74.4055 29.7859C74.2851 29.7297 74.1547 29.698 74.022 29.6926Z" fill="#27090B"/>
<path d="M64.0008 30.2602C64.0067 30.1269 63.9864 29.9936 63.941 29.8682C63.8957 29.7427 63.8261 29.6274 63.7363 29.5289C63.6465 29.4303 63.5382 29.3505 63.4176 29.294C63.297 29.2374 63.1666 29.2052 63.0336 29.1993C62.9006 29.1933 62.7678 29.2136 62.6426 29.2591C62.5175 29.3046 62.4025 29.3744 62.3043 29.4645C62.2061 29.5546 62.1265 29.6631 62.0701 29.784C62.0137 29.905 61.9816 30.0358 61.9756 30.1692C61.9636 30.4385 62.0587 30.7016 62.2401 30.9005C62.4215 31.0995 62.6743 31.2181 62.9428 31.2301C63.2114 31.2422 63.4737 31.1468 63.6721 30.9649C63.8705 30.783 63.9887 30.5295 64.0008 30.2602Z" fill="#27090B"/>
<path d="M64.7543 26.2752C64.8313 26.2997 64.9128 26.3066 64.9928 26.2956C65.0728 26.2846 65.1494 26.2558 65.217 26.2114C65.2846 26.1671 65.3415 26.1082 65.3836 26.039C65.4256 25.9699 65.4519 25.8922 65.4603 25.8116C65.4688 25.7311 65.4593 25.6496 65.4325 25.5732C65.4057 25.4968 65.3622 25.4273 65.3053 25.3698C65.2485 25.3123 65.1795 25.2682 65.1035 25.2407C65.0276 25.2132 64.9464 25.2029 64.866 25.2108C63.0323 25.0388 61.197 25.5225 59.6845 26.5764C59.5892 26.643 59.5176 26.7384 59.4802 26.8487C59.4428 26.9591 59.4415 27.0785 59.4766 27.1896C59.5117 27.3006 59.5813 27.3976 59.6753 27.4661C59.7692 27.5347 59.8826 27.5714 59.9988 27.5708C60.1114 27.5738 60.2219 27.5394 60.313 27.4727C61.6045 26.557 63.179 26.1324 64.7543 26.2752Z" fill="#522200"/>
<path d="M72.7996 26.6112C74.3774 26.6011 75.9073 27.1547 77.1152 28.1728C77.2106 28.2599 77.3353 28.3074 77.4643 28.3059C77.5445 28.3075 77.6239 28.2907 77.6966 28.2567C77.7692 28.2227 77.8331 28.1725 77.8833 28.1098C77.9297 28.0551 77.9648 27.9918 77.9867 27.9235C78.0087 27.8551 78.0169 27.7831 78.0111 27.7116C78.0053 27.64 77.9854 27.5704 77.9527 27.5065C77.92 27.4427 77.8751 27.3859 77.8205 27.3395C76.4053 26.1614 74.6248 25.515 72.7856 25.5117C72.6509 25.527 72.5265 25.5915 72.4362 25.6929C72.3458 25.7943 72.2959 25.9255 72.2959 26.0615C72.2959 26.1974 72.3458 26.3286 72.4362 26.43C72.5265 26.5314 72.6509 26.5959 72.7856 26.6112H72.7996Z" fill="#522200"/>
<path d="M66.912 36.9053C67.1862 37.0912 67.495 37.2198 67.8198 37.2835C67.6226 37.048 67.4406 36.8001 67.2751 36.5412C67.1204 36.3361 67.0195 36.0953 66.9818 35.8409C67.0092 35.6199 67.0779 35.4061 67.1843 35.2106C67.2891 34.9375 67.3938 34.6644 67.5126 34.3913C67.7552 33.8146 67.9445 33.2169 68.0782 32.6055C68.235 31.9696 68.2108 31.3024 68.0084 30.6797C67.8086 31.2509 67.5754 31.8097 67.31 32.3534C67.0517 32.8856 66.7933 33.4178 66.5489 33.9991C66.4441 34.2862 66.3324 34.5873 66.2486 34.8955C66.2003 35.0609 66.1629 35.2293 66.1369 35.3997C66.0996 35.6185 66.1213 35.8433 66.1997 36.051C66.3354 36.4075 66.5861 36.7083 66.912 36.9053Z" fill="#DE7778"/>
<path d="M10.0694 159.948C9.42699 161.04 8.81945 162.154 8.21191 163.26C10.8795 158.898 13.6937 154.591 16.4311 150.256C14.1407 153.371 12.0172 156.606 10.0694 159.948Z" fill="#F39A83"/>
<path d="M24.9996 162.888C23.3446 156.992 21.543 150.535 19.9368 144.681C19.6924 145.031 19.476 145.381 19.2804 145.689C18.3493 147.22 17.3996 148.749 16.4313 150.276C13.6939 154.611 10.8448 158.918 8.21211 163.28L7.78613 163.981C11.7232 168.651 16.1347 172.896 20.9494 176.649C21.8363 175.578 22.7022 174.485 23.5332 173.365C22.793 171.53 21.8293 167.475 24.9996 162.888Z" fill="#C03037"/>
<path d="M53.7702 132.993L53.5049 133.203C54.2127 133.584 54.9627 133.88 55.7395 134.086C55.0556 133.774 54.3972 133.408 53.7702 132.993Z" fill="#F39A83"/>
<path d="M91.6396 140.206C91.7607 139.287 91.7206 138.353 91.5209 137.447C91.2353 138.121 90.904 138.773 90.5293 139.401C90.9132 139.65 91.2838 139.919 91.6396 140.206Z" fill="#C03037"/>
<path d="M88.5678 186.608C83.7354 174.906 79.5735 162.798 79.2243 150.556C79.2243 150.269 79.2243 149.975 79.2243 149.667C77.1293 151.068 74.9715 152.391 73.0512 153.75C72.2062 154.352 71.1308 154.968 70.202 154.52C70.0067 154.417 69.8316 154.28 69.6853 154.114C69.4967 154.359 69.3082 154.597 69.1057 154.814C67.8948 156.218 66.4185 157.368 64.7621 158.197C64.6574 159.219 64.5247 160.227 64.3711 161.236C70.2439 166.047 69.1615 171.537 68.7007 173.064C74.9105 178.298 81.4689 183.101 88.3303 187.441L88.7703 187.273V186.972C88.6865 186.867 88.6167 186.734 88.5678 186.608Z" fill="#C03037"/>
<path d="M60.4946 179.017C59.6357 182.7 58.7139 186.853 57.7852 191.699C59.8801 191.895 61.9751 192 64.1259 192C67.0449 192 69.9608 191.808 72.8548 191.426C68.3744 187.667 64.2379 183.514 60.4946 179.017Z" fill="#C03037"/>
<path d="M50.1953 160.893C50.342 160.564 50.5654 160.081 50.8378 159.549C50.8378 157.448 50.8378 155.298 50.8378 153.197C50.7442 151.218 51.173 149.25 52.0808 147.49C52.2628 147.165 52.4681 146.853 52.6953 146.558C52.3601 146.839 51.997 147.119 51.7107 147.42C51.983 145.648 52.2484 143.176 53.233 141.649C54.2176 140.123 56.1799 138.89 57.5416 137.7C58.6101 136.768 59.7134 135.851 60.8098 134.899C59.0708 135.078 57.3157 134.787 55.726 134.058C54.9493 133.853 54.1992 133.557 53.4914 133.176C47.1208 138.298 40.4517 143.036 33.5195 147.364C33.7989 150.277 34.0642 153.501 34.3156 157.035C34.6424 156.598 34.9233 156.129 35.1536 155.634C36.0474 153.365 38.9594 157.392 39.8602 158.716C41.1801 160.655 42.9328 164.409 39.958 169.997C38.7356 172.169 37.1615 174.121 35.3002 175.775C35.3421 176.818 35.384 177.876 35.419 178.954C35.419 179.262 35.419 179.542 35.419 179.808C35.6863 179.666 35.943 179.505 36.1871 179.325C36.8713 181.218 37.3398 183.182 37.5837 185.18C37.6452 185.623 37.6616 186.071 37.6326 186.517C41.9043 188.343 46.3497 189.73 50.9006 190.656C50.9006 186.874 50.9006 179.115 50.9006 170.158C48.4635 166.055 49.3643 162.77 50.1953 160.893Z" fill="#C03037"/>
<path d="M63.4137 132.713C65.1385 131.179 66.9052 129.373 68.7418 127.664L68.9164 123.259V122.762C68.5533 122.874 68.2181 122.979 67.8061 123.077C67.1274 123.366 66.4269 123.6 65.7111 123.777C63.4111 124.393 61.0039 124.493 58.661 124.07C56.3182 123.646 54.0973 122.709 52.1568 121.326C51.8146 121.13 51.4585 120.927 51.1582 120.71V121.221C51.1582 122.874 51.1582 124.534 51.263 126.039L53.749 132.972C54.3759 133.387 55.0343 133.753 55.7182 134.065C57.3079 134.794 59.063 135.084 60.802 134.905C61.6958 134.198 62.5687 133.462 63.4137 132.713Z" fill="#E6927C"/>
<path d="M84.5453 99.6311C84.8349 98.3053 84.6421 96.9193 84.0018 95.7237C83.3615 94.528 82.3158 93.6014 81.0537 93.1113C80.7813 93.5805 80.4741 94.1057 80.2157 94.638C80.2157 95.0651 80.2157 95.4923 80.1668 95.9195C80.8975 96.1672 81.5103 96.6786 81.8858 97.3543C82.2614 98.0299 82.373 98.8215 82.1989 99.5751C82.0966 100.246 81.7834 100.867 81.3048 101.347C80.8262 101.826 80.2074 102.141 79.5383 102.243C79.3987 103.231 79.2381 104.204 79.0635 105.17C80.7953 105.745 84.0564 102.306 84.5453 99.6311Z" fill="#F39A83"/>
<path d="M82.1987 99.575C82.367 98.8245 82.2526 98.038 81.8774 97.367C81.5023 96.696 80.8929 96.1879 80.1666 95.9404C80.0548 98.0413 79.8453 100.184 79.5381 102.278C80.2121 102.174 80.8348 101.854 81.3139 101.368C81.793 100.881 82.1032 100.252 82.1987 99.575Z" fill="#EE7379"/>
<path d="M41.5211 101.151C41.5176 101.181 41.5176 101.212 41.5211 101.242C41.6119 101.795 41.7376 102.334 41.8772 102.866C41.15 102.938 40.4204 102.755 39.8129 102.348C39.2054 101.94 38.7578 101.334 38.5463 100.632C38.2388 99.8754 38.2424 99.0271 38.5564 98.2726C38.8704 97.5182 39.4692 96.919 40.2222 96.6058C40.271 96.6026 40.32 96.6026 40.3689 96.6058C40.3689 96.6058 40.3689 96.6548 40.4247 96.6758C40.4517 96.7006 40.4752 96.7288 40.4946 96.7599C40.4946 96.6898 40.4946 96.6128 40.4946 96.5358C40.498 96.4705 40.498 96.405 40.4946 96.3397C40.3479 95.5203 40.2152 94.701 40.0895 93.8747C40.0895 93.7976 40.0895 93.7206 40.0407 93.6436C39.8218 93.6827 39.6068 93.7413 39.3982 93.8186C36.6049 94.778 35.2083 98.0204 36.2837 101.081C37.1915 103.721 41.1719 106.746 42.6803 105.661L42.1775 103.504C41.8982 102.698 41.7166 101.928 41.5211 101.151Z" fill="#F39A83"/>
<path d="M40.3768 96.5708C40.328 96.5676 40.279 96.5676 40.2301 96.5708C39.4772 96.884 38.8783 97.4832 38.5643 98.2376C38.2503 98.992 38.2467 99.8404 38.5542 100.597C38.7595 101.308 39.2064 101.924 39.8175 102.339C40.4285 102.753 41.1651 102.94 41.8991 102.866C41.7595 102.334 41.6338 101.795 41.543 101.242C41.5395 101.212 41.5395 101.181 41.543 101.151C41.4452 100.766 41.3544 100.387 41.2637 100.002C40.9205 98.9326 40.666 97.8364 40.5025 96.7248C40.4831 96.6938 40.4596 96.6655 40.4327 96.6408C40.4327 96.6408 40.3977 96.5918 40.3768 96.5708Z" fill="#EE7379"/>
<path d="M75.5018 82.3894C72.7085 76.6189 64.1541 76.4088 58.6933 76.787C55.4322 77.0041 52.1082 77.5223 49.2241 79.0559C42.5692 82.6064 42.8694 90.7229 42.3457 97.4527C42.4993 98.006 42.618 98.5662 42.7577 99.1054C43.8471 103.195 46.9965 107.677 51.7171 107.341C54.657 107.124 57.3036 105.555 60.2715 105.415C60.9322 105.394 61.5936 105.431 62.2477 105.527L62.4642 105.261C62.704 104.994 62.8785 104.676 62.974 104.33C62.9712 104 62.8973 103.675 62.7575 103.377L62.3525 102.208C62.0511 101.402 61.8175 100.573 61.6542 99.7287C61.4696 98.8528 61.5105 97.9442 61.7729 97.0886C61.9646 97.9062 62.2215 98.7071 62.541 99.4836C62.8413 100.247 63.1835 101.003 63.4628 101.816C63.6123 102.228 63.7359 102.649 63.8329 103.076C63.8899 103.307 63.9319 103.54 63.9586 103.776C63.9986 104.063 63.9625 104.355 63.8539 104.624C63.656 105.054 63.332 105.413 62.9251 105.653C67.1988 106.423 71.9404 108.72 75.6275 105.926C78.5814 103.692 79.0562 99.2595 79.1191 95.842C79.1703 93.8593 79.0886 91.8753 78.8747 89.9035C78.5604 88.8671 78.1763 87.8937 78.0716 87.5575C77.4291 85.6947 76.3468 84.1261 75.5018 82.3894ZM54.4685 98.111C54.1923 98.111 53.9222 98.0288 53.6926 97.875C53.4629 97.7211 53.2839 97.5023 53.1782 97.2464C53.0725 96.9905 53.0448 96.7089 53.0987 96.4372C53.1526 96.1655 53.2856 95.9159 53.4809 95.72C53.6762 95.5242 53.9251 95.3908 54.196 95.3367C54.4669 95.2827 54.7478 95.3104 55.003 95.4164C55.2582 95.5224 55.4763 95.7019 55.6297 95.9323C55.7832 96.1626 55.8651 96.4334 55.8651 96.7104C55.8651 97.0819 55.718 97.4381 55.4561 97.7008C55.1941 97.9634 54.8389 98.111 54.4685 98.111ZM56.2911 91.5212C54.1984 91.4195 52.1375 92.0645 50.4741 93.342C50.2747 93.4978 50.0286 93.5817 49.7758 93.5801C49.5383 93.5783 49.3073 93.5024 49.1147 93.3631C48.9221 93.2238 48.7774 93.028 48.7007 92.8026C48.624 92.5772 48.6191 92.3335 48.6866 92.1052C48.7541 91.8769 48.8907 91.6752 49.0775 91.5282C51.1769 89.9185 53.7773 89.1071 56.4168 89.2382C56.5663 89.2465 56.7127 89.2842 56.8476 89.3493C56.9825 89.4143 57.1034 89.5053 57.2032 89.6171C57.3031 89.729 57.38 89.8595 57.4296 90.0011C57.4792 90.1428 57.5005 90.2928 57.4922 90.4428C57.4839 90.5927 57.4463 90.7395 57.3815 90.8748C57.3167 91.0101 57.2259 91.1313 57.1144 91.2314C57.0028 91.3316 56.8727 91.4087 56.7315 91.4584C56.5902 91.5082 56.4406 91.5295 56.2911 91.5212ZM67.3734 89.2382C70.0148 89.1091 72.6167 89.9202 74.7197 91.5282C74.9367 91.7214 75.0725 91.99 75.0996 92.2797C75.1267 92.5695 75.0432 92.8587 74.8658 93.089C74.6885 93.3194 74.4305 93.4736 74.1442 93.5205C73.8578 93.5675 73.5643 93.5037 73.323 93.342C71.658 92.0678 69.5982 91.4231 67.5061 91.5212C67.3566 91.529 67.207 91.5072 67.066 91.4571C66.9249 91.407 66.795 91.3294 66.6838 91.229C66.5726 91.1285 66.4822 91.007 66.4178 90.8715C66.3534 90.736 66.3162 90.5892 66.3084 90.4393C66.3007 90.2894 66.3224 90.1394 66.3724 89.9979C66.4224 89.8564 66.4997 89.7262 66.5999 89.6147C66.7001 89.5031 66.8212 89.4125 66.9563 89.3479C67.0914 89.2833 67.2379 89.2461 67.3873 89.2382H67.3734ZM71.0814 96.7034C71.0814 96.9804 70.9995 97.2512 70.8461 97.4815C70.6926 97.7119 70.4745 97.8914 70.2193 97.9974C69.9641 98.1034 69.6833 98.1311 69.4123 98.0771C69.1414 98.023 68.8926 97.8896 68.6972 97.6938C68.5019 97.4979 68.3689 97.2483 68.315 96.9766C68.2611 96.705 68.2888 96.4233 68.3945 96.1674C68.5002 95.9115 68.6792 95.6927 68.9089 95.5389C69.1386 95.385 69.4086 95.3028 69.6848 95.3028C70.0552 95.3028 70.4105 95.4504 70.6724 95.713C70.9343 95.9757 71.0814 96.3319 71.0814 96.7034Z" fill="#F39A83"/>
<path d="M65.7393 123.798C66.4551 123.621 67.1556 123.387 67.8342 123.098C64.3621 123.91 60.756 123.963 57.2617 123.252C55.4894 122.883 53.7857 122.238 52.2129 121.34C54.1495 122.72 56.3653 123.656 58.703 124.08C61.0407 124.505 63.4429 124.409 65.7393 123.798Z" fill="#F39A83"/>
<path d="M40.4602 96.3049C40.4602 96.0948 40.4602 95.8917 40.4602 95.6956C40.3276 95.0794 40.2019 94.4631 40.0762 93.8398C40.1809 94.6662 40.3136 95.4855 40.4602 96.3049Z" fill="#F39A83"/>
<path d="M42.143 103.468C41.9894 102.803 41.8288 102.145 41.6612 101.501C41.5355 101.01 41.3888 100.506 41.2422 100.002C41.333 100.387 41.4237 100.765 41.5215 101.15C41.717 101.928 41.8986 102.698 42.143 103.468Z" fill="#F39A83"/>
<path d="M54.4689 95.2959C54.1927 95.2959 53.9226 95.378 53.693 95.5319C53.4633 95.6858 53.2843 95.9046 53.1786 96.1605C53.0729 96.4164 53.0452 96.698 53.0991 96.9697C53.153 97.2414 53.286 97.491 53.4813 97.6869C53.6767 97.8827 53.9255 98.0161 54.1964 98.0702C54.4673 98.1242 54.7482 98.0965 55.0034 97.9905C55.2586 97.8845 55.4767 97.705 55.6302 97.4746C55.7836 97.2443 55.8655 96.9735 55.8655 96.6965C55.8655 96.325 55.7184 95.9688 55.4565 95.7061C55.1945 95.4435 54.8393 95.2959 54.4689 95.2959Z" fill="#27090B"/>
<path d="M68.2744 96.7043C68.2744 96.9813 68.3563 97.2521 68.5098 97.4824C68.6633 97.7128 68.8814 97.8923 69.1366 97.9983C69.3918 98.1043 69.6726 98.1321 69.9435 98.078C70.2144 98.024 70.4633 97.8906 70.6586 97.6947C70.8539 97.4988 70.987 97.2492 71.0408 96.9776C71.0947 96.7059 71.0671 96.4243 70.9614 96.1683C70.8557 95.9124 70.6767 95.6937 70.447 95.5398C70.2173 95.3859 69.9473 95.3037 69.671 95.3037C69.3006 95.3037 68.9454 95.4513 68.6835 95.7139C68.4216 95.9766 68.2744 96.3328 68.2744 96.7043Z" fill="#27090B"/>
<path d="M67.4923 91.5216C69.5845 91.4235 71.6442 92.0682 73.3093 93.3423C73.5092 93.4972 73.7549 93.581 74.0076 93.5804C74.245 93.5786 74.476 93.5028 74.6686 93.3635C74.8613 93.2242 75.0059 93.0283 75.0826 92.803C75.1593 92.5776 75.1643 92.3339 75.0968 92.1056C75.0293 91.8772 74.8927 91.6756 74.7059 91.5286C72.6048 89.9221 70.0056 89.1111 67.3666 89.2386C67.2171 89.2464 67.0706 89.2837 66.9355 89.3483C66.8004 89.4129 66.6793 89.5035 66.5791 89.615C66.4789 89.7266 66.4016 89.8568 66.3516 89.9983C66.3016 90.1397 66.2799 90.2897 66.2877 90.4396C66.2955 90.5895 66.3326 90.7364 66.397 90.8719C66.4614 91.0074 66.5518 91.1289 66.663 91.2293C66.7742 91.3298 66.9041 91.4073 67.0452 91.4575C67.1863 91.5076 67.3358 91.5294 67.4853 91.5216H67.4923Z" fill="#201544"/>
<path d="M56.4171 89.2383C53.7776 89.1072 51.1772 89.9186 49.0778 91.5283C48.891 91.6753 48.7544 91.877 48.6869 92.1053C48.6194 92.3336 48.6243 92.5773 48.701 92.8027C48.7777 93.0281 48.9224 93.2239 49.115 93.3632C49.3076 93.5025 49.5386 93.5783 49.7761 93.5802C50.0289 93.5818 50.275 93.4979 50.4744 93.3421C52.1378 92.0646 54.1987 91.4196 56.2914 91.5213C56.5933 91.538 56.8894 91.4338 57.1147 91.2315C57.3399 91.0293 57.4758 90.7456 57.4925 90.4428C57.5092 90.1401 57.4052 89.8431 57.2035 89.6172C57.0019 89.3914 56.719 89.2551 56.4171 89.2383Z" fill="#201544"/>
<path d="M63.8543 104.597C63.9629 104.328 63.9991 104.036 63.959 103.749C63.9323 103.513 63.8903 103.279 63.8333 103.049C63.7363 102.622 63.6127 102.201 63.4632 101.789C63.1839 100.976 62.8417 100.22 62.5415 99.4565C62.2219 98.6801 61.9651 97.8792 61.7733 97.0615C61.5109 97.9172 61.4701 98.8258 61.6546 99.7016C61.818 100.546 62.0515 101.375 62.3529 102.181L62.7579 103.35C62.8978 103.648 62.9716 103.973 62.9744 104.303C62.8789 104.649 62.7044 104.967 62.4646 105.234L62.2482 105.5L62.9465 105.612C63.3435 105.372 63.6597 105.019 63.8543 104.597Z" fill="#DE7778"/>
<path d="M99.5171 151.474C98.2392 148.26 95.3272 143.134 91.6401 140.207C91.2843 139.919 90.9137 139.65 90.5298 139.401C88.0019 143.603 83.6095 146.782 79.2031 149.668C79.2031 149.976 79.2031 150.27 79.2031 150.557C79.5523 162.826 83.7143 174.906 88.5466 186.608C88.5955 186.734 88.6513 186.867 88.7072 186.993C88.7631 187.119 88.784 187.168 88.8189 187.26C96.1932 184.308 103.062 180.218 109.175 175.137C108.889 174.437 108.609 173.681 108.309 172.959C105.383 165.802 102.38 158.666 99.5171 151.474Z" fill="#C03037"/>
<path d="M55.2996 144.961C54.3629 145.353 53.4915 145.887 52.7158 146.544C52.4887 146.839 52.2833 147.15 52.1013 147.475C51.1935 149.235 50.7648 151.204 50.8583 153.183L65.069 151.6C65.0761 153.805 64.9665 156.01 64.7408 158.204C66.3972 157.375 67.8735 156.225 69.0844 154.821C69.2869 154.583 69.4754 154.345 69.664 154.121C69.4157 153.839 69.1979 153.532 69.0145 153.204C66.4587 149.023 60.7534 142.79 55.2996 144.961Z" fill="#EA947E"/>
<path d="M92.0802 121.348C91.6691 122.02 91.0516 122.541 90.3204 122.832C87.171 124.303 83.3373 124.338 79.9434 124.317C78.7423 124.317 74.6013 124.751 73.2047 124.044L73.065 124.135C71.5396 125.193 70.0947 126.363 68.7424 127.636C66.9059 129.345 65.1391 131.138 63.4143 132.686C62.5693 133.435 61.6964 134.17 60.8305 134.899C59.7342 135.823 58.6308 136.74 57.5624 137.7C56.1658 138.89 54.2454 140.116 53.2538 141.649C52.2622 143.183 52.0038 145.648 51.7314 147.42C52.0457 147.119 52.3809 146.839 52.7161 146.558C53.4918 145.902 54.3631 145.368 55.2998 144.976C60.7467 142.791 66.4729 149.023 69.0148 153.197C69.1982 153.525 69.4159 153.833 69.6642 154.115C69.8105 154.28 69.9856 154.418 70.181 154.521C71.1097 154.969 72.1851 154.353 73.0301 153.75C74.9505 152.392 77.0803 151.061 79.2032 149.668C83.6096 146.783 88.002 143.624 90.5299 139.401C90.9047 138.774 91.236 138.121 91.5215 137.448C92.4139 135.325 92.8058 133.024 92.6668 130.725C92.6668 129.891 92.6039 129.058 92.583 128.211C92.5481 126.418 92.8344 124.66 92.7576 122.874C92.7583 122.223 92.6152 121.58 92.3386 120.991C92.3386 120.942 92.2897 120.893 92.2617 120.851C92.221 121.023 92.1601 121.19 92.0802 121.348Z" fill="#50A2D3"/>
<path d="M59.6565 178.001C56.7752 176.521 54.2125 174.486 52.1147 172.014C51.648 171.431 51.2233 170.815 50.8438 170.172C50.8438 179.129 50.8438 186.888 50.8438 190.67C53.1356 191.138 55.4501 191.486 57.778 191.713C58.7068 186.867 59.6286 182.714 60.4875 179.031C60.2221 178.673 59.9289 178.344 59.6565 178.001Z" fill="#EA947E"/>
<path d="M50.8584 153.197C50.8584 155.298 50.8584 157.399 50.8584 159.549C51.7941 157.742 53.3025 155.417 54.2941 157.021C54.9924 158.12 57.7228 160.375 60.4253 162.525C59.2801 159.724 60.3555 158.68 60.3555 158.68C61.7824 159.392 63.1286 160.256 64.3708 161.257C64.5245 160.249 64.6571 159.24 64.7619 158.218C64.9876 156.024 65.0971 153.82 65.0901 151.614L50.8584 153.197Z" fill="#EA947E"/>
<path d="M25.0002 162.889C26.243 161.15 27.754 159.621 29.4764 158.358C29.4764 158.358 30.7264 159.192 30.0909 162.154C31.711 160.305 33.3241 158.414 34.2808 157.035C34.0294 153.496 33.764 150.272 33.4847 147.364C32.874 147.798 32.2004 148.136 31.4875 148.365C30.9359 148.155 30.0211 147.035 28.9596 145.403C27.9331 145.795 27.0043 146.103 26.2222 146.39C26.1483 146.417 26.0704 146.431 25.9918 146.432C25.4331 146.432 24.8465 145.977 24.2599 145.655C24.2599 145.655 23.6035 145.165 22.7027 144.352C20.9856 142.881 19.5351 141.123 18.415 139.156C18.8899 140.907 19.3927 142.749 19.9164 144.661C21.5435 150.564 23.3452 156.993 25.0002 162.889Z" fill="#EA947E"/>
<path d="M32.06 178.401C31.6969 179.192 31.3198 179.969 30.9287 180.739C32.4775 180.812 34.0195 180.492 35.4119 179.808C35.4119 179.542 35.4119 179.262 35.4119 178.954C35.4119 177.875 35.3351 176.853 35.2932 175.774C34.2717 176.717 33.1918 177.594 32.06 178.401Z" fill="#EA947E"/>
<path d="M37.5622 185.18C37.3183 183.182 36.8498 181.218 36.1656 179.325C35.9215 179.505 35.6647 179.666 35.3974 179.808C34.005 180.492 32.463 180.813 30.9142 180.74C30.579 181.384 30.2159 182.028 29.8877 182.666C32.3725 184.096 34.9372 185.382 37.5692 186.517C37.6121 186.072 37.6097 185.624 37.5622 185.18Z" fill="#1C0F39"/>
<path d="M22.7232 144.352C23.6241 145.164 24.2805 145.654 24.2805 145.654C24.8671 145.976 25.4536 146.46 26.0123 146.432C26.0909 146.431 26.1688 146.416 26.2427 146.389C27.0249 146.13 27.9536 145.794 28.9801 145.402C26.5151 141.606 23.2819 135.059 21.997 130.836L21.9062 130.899L21.3545 131.284C21.2568 131.347 21.152 131.417 21.0612 131.487L20.5724 131.837L20.321 132.026L19.8881 132.363L19.6855 132.517C19.497 132.671 19.3224 132.818 19.1688 132.958C19.0066 133.103 18.8527 133.257 18.7079 133.42C18.331 133.828 18.0397 134.308 17.8514 134.832C17.6631 135.355 17.5815 135.911 17.6115 136.466C17.6891 137.408 17.9601 138.324 18.4076 139.155C19.536 141.125 20.9962 142.883 22.7232 144.352Z" fill="#EA947E"/>
<path d="M28.9803 145.403C30.0417 147.034 30.9565 148.155 31.5082 148.365C32.226 148.137 32.9043 147.799 33.5194 147.363C40.4628 143.046 47.1435 138.318 53.5261 133.203L53.7915 132.993L51.2915 126.053L46.0891 119.632L44.2315 117.349L43.4285 116.361C30.37 122.398 26.7387 124.632 22.9818 126.425L22.6466 126.586L22.5628 126.628L22.06 126.859H21.9971C21.655 127.013 21.5153 127.447 21.5293 128.098C21.5376 128.475 21.5821 128.85 21.6619 129.219C21.7497 129.691 21.8615 130.159 21.9971 130.619L22.06 130.822C23.282 135.059 26.5362 141.607 28.9803 145.403Z" fill="#50A2D3"/>
<path d="M76.6817 114.779C76.2263 116.006 75.6386 117.18 74.9289 118.28L73.8395 120.556C73.4136 121.438 72.2125 123.07 72.8828 123.805C72.9753 123.897 73.0843 123.971 73.2041 124.022C74.6007 124.723 78.7417 124.289 79.9428 124.296C83.3506 124.296 87.1704 124.295 90.3198 122.811C91.051 122.52 91.6685 121.999 92.0796 121.326C92.1595 121.168 92.2204 121.001 92.2611 120.829C92.3168 120.613 92.3519 120.393 92.3659 120.171C92.3872 119.703 92.3685 119.235 92.31 118.77C92.1704 117.426 91.9609 116.081 91.8142 114.729H76.6817V114.779Z" fill="white"/>
<path d="M25.4048 167.644C26.1031 166.629 28.1003 164.437 30.0905 162.154C30.726 159.192 29.476 158.358 29.476 158.358C27.7536 159.621 26.2426 161.15 24.9998 162.889C21.8294 167.476 22.7931 171.531 23.5403 173.394C23.7009 173.184 23.8476 172.967 24.0012 172.756C24.1129 171.027 24.5249 168.898 25.4048 167.644Z" fill="#F39A83"/>
<path d="M30.0902 162.154C28.0999 164.437 26.1237 166.629 25.4044 167.644C24.5246 168.898 24.1126 171.027 24.0078 172.728C24.343 172.266 24.7061 171.811 25.0064 171.328C27.7229 172.49 30.2298 174.829 32.8206 176.699C32.5831 177.266 32.3178 177.819 32.0664 178.38C33.1976 177.58 34.2775 176.71 35.2996 175.775C37.1559 174.12 38.7252 172.168 39.9434 169.997C42.9182 164.395 41.1655 160.655 39.8456 158.715C38.9448 157.392 36.0328 153.365 35.139 155.634C34.9087 156.129 34.6278 156.598 34.301 157.035C33.3234 158.414 31.7102 160.305 30.0902 162.154Z" fill="#F39A83"/>
<path d="M30.928 180.74C31.3191 179.969 31.6962 179.192 32.0593 178.401C32.3107 177.84 32.576 177.287 32.8135 176.72C30.2227 174.843 27.7158 172.518 24.9993 171.349C24.6781 171.811 24.3359 172.266 24.0007 172.749C23.8471 172.959 23.7004 173.176 23.5398 173.386C22.7088 174.507 21.8429 175.599 20.9561 176.671C23.7974 178.879 26.7862 180.888 29.9015 182.686C30.2576 182.028 30.5928 181.377 30.928 180.74Z" fill="#F39A83"/>
<path d="M68.6793 173.085C68.6374 173.239 68.5955 173.351 68.5746 173.414C68.6346 173.738 68.6179 174.071 68.5257 174.388C68.1556 175.046 62.9392 179.528 62.9392 179.528C61.8162 179.089 60.7223 178.579 59.6641 178.001C59.9364 178.344 60.2297 178.701 60.502 179.016C64.2453 183.514 68.3818 187.667 72.8622 191.426C78.1514 190.721 83.3387 189.39 88.316 187.462C81.4522 183.123 74.8914 178.319 68.6793 173.085Z" fill="#F39A83"/>
<path d="M60.3349 158.68C60.3349 158.68 59.2595 159.723 60.4047 162.524C62.772 164.408 65.1113 166.215 65.9912 167.083C67.4717 168.547 68.4004 171.754 68.568 173.386C68.568 173.323 68.6309 173.211 68.6728 173.057C69.1336 171.53 70.216 166.054 64.3432 161.229C63.1019 160.238 61.7581 159.383 60.3349 158.68Z" fill="#F39A83"/>
<path d="M65.9979 167.084C65.1111 166.215 62.7717 164.409 60.4114 162.525C57.7089 160.375 54.9645 158.12 54.2802 157.021C53.2886 155.417 51.7802 157.721 50.8445 159.549C50.5721 160.081 50.3487 160.564 50.202 160.893C49.371 162.77 48.4702 166.054 50.8514 170.158C51.2304 170.806 51.6552 171.426 52.1224 172.014C54.2202 174.487 56.7829 176.521 59.6642 178.001C60.7224 178.58 61.8163 179.09 62.9393 179.528C62.9393 179.528 68.1627 175.046 68.5258 174.388C68.618 174.072 68.6347 173.738 68.5747 173.414C68.4351 171.755 67.4784 168.547 65.9979 167.084Z" fill="#F39A83"/>
<path d="M47.2551 117.111C48.3608 118.524 49.6887 119.747 51.1866 120.731C51.5148 120.949 51.8431 121.152 52.1852 121.348C53.7671 122.246 55.4804 122.889 57.262 123.253C60.765 123.958 64.3786 123.896 67.8555 123.07C68.2395 122.972 68.6027 122.867 68.9658 122.755C69.5936 122.559 70.2093 122.325 70.8093 122.055C72.5152 121.218 73.9525 119.917 74.9573 118.301C75.667 117.202 76.2547 116.028 76.7101 114.8C77.156 113.597 77.5314 112.37 77.8344 111.123C78.3023 109.205 78.7282 107.223 79.0914 105.206C79.2659 104.24 79.4266 103.266 79.5662 102.279C79.8735 100.178 80.083 98.0769 80.1947 95.941C80.1947 95.5138 80.1947 95.0866 80.2436 94.6595C79.8966 95.2451 79.7564 95.9309 79.8455 96.6063C79.4964 95.3668 79.6989 93.9382 79.643 92.5866C79.5243 92.7127 79.4126 92.8457 79.2869 92.9718C79.643 92.6216 79.3288 91.207 78.9377 89.8975C79.1517 91.8692 79.2334 93.8532 79.1821 95.836C79.0844 99.2534 78.6095 103.686 75.6906 105.92C72.0035 108.721 67.2619 106.417 62.9882 105.647L62.2899 105.535C61.6357 105.439 60.9744 105.402 60.3136 105.423C57.3598 105.563 54.7271 107.132 51.7593 107.349C47.0386 107.685 43.8892 103.203 42.7999 99.1133C42.6602 98.5741 42.5415 98.0139 42.3878 97.4606C42.3878 97.7058 42.3878 97.9579 42.332 98.196C41.6337 98.7212 40.8795 97.6217 40.7049 96.7954C40.6281 96.4452 40.5513 96.0951 40.4814 95.7379C40.4814 95.934 40.4814 96.1371 40.4814 96.3472C40.4849 96.4125 40.4849 96.478 40.4814 96.5433C40.4814 96.6203 40.4814 96.6973 40.4814 96.7674C40.6381 97.8783 40.8856 98.9745 41.2217 100.045C41.3683 100.549 41.515 101.053 41.6407 101.543C41.8082 102.188 41.9689 102.846 42.1225 103.511L42.6253 105.668C43.0822 107.772 43.6723 109.844 44.392 111.873C45.0747 113.755 46.0402 115.521 47.2551 117.111ZM61.9198 115.598C58.2676 115.598 55.2648 113.266 54.8738 110.262H68.9448C68.5538 113.266 65.544 115.598 61.8918 115.598H61.9198Z" fill="#201544"/>
<path d="M40.439 95.6954C40.5088 96.0455 40.5856 96.3957 40.6624 96.7528C40.837 97.6002 41.5982 98.6997 42.2895 98.1534C42.2895 97.9153 42.3314 97.6632 42.3454 97.4181C42.8691 90.6883 42.5688 82.5719 49.2238 79.0214C52.1078 77.4877 55.4318 76.9695 58.693 76.7524C64.1538 76.3882 72.6593 76.5983 75.5015 82.3548C76.3464 84.0915 77.4288 85.6602 78.1062 87.4949C78.2319 87.8311 78.595 88.8045 78.9092 89.8409C79.3003 91.1505 79.6076 92.5651 79.2584 92.9152C79.3841 92.7892 79.4958 92.6561 79.6145 92.5301C79.6704 93.8816 79.4679 95.3312 79.8171 96.5497C79.7279 95.8744 79.8681 95.1886 80.2151 94.6029C80.4735 94.0707 80.7807 93.5455 81.0531 93.0763C81.2137 92.7892 81.3673 92.516 81.4721 92.2919C82.3246 90.4341 83.0434 88.5174 83.6229 86.5565C84.7751 82.6699 86.06 76.9905 85.4595 72.0604C85.0754 68.8601 83.9022 65.9819 81.3813 64.1051C81.0172 63.8327 80.6264 63.5981 80.2151 63.4048C79.638 63.125 79.0055 62.979 78.3646 62.9776C76.9679 62.9776 75.7878 63.7829 74.5168 64.2731C72.7678 64.9504 70.8583 65.0941 69.0281 64.6863C67.3521 64.3081 65.8088 63.4888 64.1398 63.0686C60.4981 62.2493 56.6885 62.658 53.302 64.2311C48.2195 66.4752 43.9948 70.3041 41.256 75.1487L41.0605 75.4989C40.7811 76.0381 40.5228 76.5843 40.2993 77.1306C38.1275 82.4388 38.9027 88.0482 40.006 93.5595C40.006 93.6365 40.0409 93.7135 40.0549 93.7906C40.1806 94.4629 40.3063 95.0791 40.439 95.6954Z" fill="#201544"/>
<path d="M54.8457 110.262C55.2368 113.266 58.2395 115.598 61.8917 115.598C65.5439 115.598 68.5537 113.266 68.9447 110.262H54.8457Z" fill="white"/>
<path d="M55.0476 28.1169L55.1104 28.2149C55.1523 27.6967 55.1593 27.1225 55.2152 26.5832L55.5085 23.9571C55.8576 20.8268 55.6132 17.0802 59.5796 16.464C61.7235 16.1348 63.6788 17.6334 65.7877 18.1377C67.6662 18.5858 69.6354 18.2217 71.5209 17.7735C73.4063 17.3253 75.2988 16.7861 77.2261 16.8911C80.7177 17.0662 81.5557 18.6279 81.828 21.5901C82.0166 23.691 82.4565 25.7919 82.8336 27.8227C82.8865 28.2082 83.0147 28.5794 83.2107 28.9152C83.7833 29.7486 84.6632 28.5581 85.3475 27.2065C85.7043 26.502 86.0077 25.7717 86.2553 25.0216C87.3517 21.5201 87.1422 16.9822 86.1716 13.4947C86.1017 13.2566 86.0319 13.0115 85.9551 12.7944C84.6562 8.85874 81.821 5.32225 77.9384 3.92166C76.5418 3.41044 75.0334 3.22137 73.6018 2.76617C70.0334 1.68772 66.5 -0.735304 62.9036 0.252112C60.1104 1.02244 58.0154 3.75359 55.1314 4.10374C54.4967 4.08096 53.8676 4.22843 53.3088 4.53092C52.8853 4.93521 52.616 5.47524 52.5476 6.05756C51.6516 9.92157 51.4952 13.921 52.0867 17.8435C52.4003 20.2752 52.9165 22.6763 53.63 25.0216C53.9719 26.1086 54.4481 27.1484 55.0476 28.1169Z" fill="#201544"/>
</svg>
