<svg width="18" height="18" viewBox="0 0 18 18" fill="none" xmlns="http://www.w3.org/2000/svg">
<path d="M-3.80388e-07 8.91515L4.40306 12.5932L4.40306 9.86198L12.9611 9.86198L12.9611 7.96831L4.40306 7.96831L4.40306 5.19861L-3.80388e-07 8.91515ZM18 15.5877C18 16.1287 17.776 16.5796 17.328 16.9403C16.8799 17.331 16.363 17.5264 15.7771 17.5264L8.31378 17.5264C7.7279 17.5264 7.21094 17.331 6.76291 16.9403C6.31488 16.5495 6.09087 16.0987 6.09087 15.5877L6.09087 11.7552L8.31379 11.7552L8.31378 15.5877L16.0959 15.5877L16.0959 2.15165L8.31379 2.15165L8.31379 5.98407L6.09087 5.98407L6.09087 2.15165C6.09087 1.6106 6.31488 1.1447 6.76291 0.753939C7.21094 0.39324 7.7279 0.212891 8.31379 0.212891L15.7771 0.212891C16.363 0.212891 16.8799 0.39324 17.328 0.753938C17.776 1.1447 18 1.6106 18 2.15165L18 15.5877Z" fill="white"/>
</svg>
