<svg width="259" height="162" viewBox="0 0 259 154" fill="none" xmlns="http://www.w3.org/2000/svg">
<path d="M192.233 96.0113C193.03 94.8492 193.433 94.6483 193.155 90.9942C192.943 88.1385 191.46 86.537 189.685 86.0581C164.543 82.4412 138.269 86.4511 135.615 91.6635C131.262 100.185 143.297 100.564 143.297 100.564C143.297 100.564 166.29 99.8952 181.206 98.9733C185.527 98.7028 187.767 98.2262 191.922 97.842L192.233 96.0113Z" fill="#F39A83"/>
<path d="M140.31 158.025C142.43 132.025 151.58 92.5553 145.71 88.2953C140.15 84.2953 131.91 82.4453 123.58 82.2953C115.58 82.1553 105.78 83.0453 97.81 85.7953C92.19 87.7353 98.27 130.705 98.57 158.025H140.31Z" fill="#F39A83"/>
<path d="M117.82 58.3356C122.31 55.3956 130.63 60.1356 130.63 60.1356L130.81 84.1356C130.81 84.1356 118.39 89.3956 116.81 86.3056C115.23 83.2156 114.73 60.3556 117.82 58.3356Z" fill="#F39A83"/>
<path d="M124.1 76.7956C126.884 78.2964 129.194 80.5439 130.77 83.2856V83.3456L130.63 60.1356C130.63 60.1356 122.31 55.3956 117.82 58.3356C116.3 59.3356 115.67 67.3356 115.62 75.6056C118.502 75.1195 121.463 75.5351 124.1 76.7956Z" fill="#E28D78"/>
<path d="M106.04 62.3549L106.09 62.4649C108.2 67.4649 111.88 71.2549 117.25 72.6449C119.976 73.3776 122.835 73.4645 125.601 72.8986C128.366 72.3327 130.961 71.1296 133.18 69.3849C135.988 66.9828 138.377 64.1306 140.25 60.9449C141.9 58.2849 142.25 54.8849 143.25 51.9449C144.755 47.1353 145.836 42.2031 146.48 37.2049C146.81 34.7149 147.02 32.2049 147.13 29.6849C147.313 27.6716 146.751 25.661 145.55 24.0349C141.19 16.9749 133.39 12.4649 125.29 11.2649C121.014 10.5803 116.635 10.9896 112.56 12.4549C109.72 13.5149 107.02 15.1949 105.69 17.9649C99.1501 31.6349 100.32 48.6349 106.04 62.3549Z" fill="#F39A83"/>
<path d="M150.45 47.1054C149.26 50.5254 143.53 54.5354 142.65 51.3454C142.12 49.3454 142.47 47.2654 143.65 43.8454C144.83 40.4254 143.82 37.8454 146.94 38.9554C148.484 39.574 149.719 40.7787 150.377 42.306C151.035 43.8333 151.061 45.5589 150.45 47.1054Z" fill="#F39A83"/>
<path d="M145.97 42.125H145.8L145.74 42.205C144.49 43.265 144.74 45.905 144.5 47.365C144.398 47.9782 144.265 48.5857 144.1 49.185C144.924 49.2661 145.751 49.0553 146.437 48.5893C147.122 48.1233 147.622 47.4317 147.85 46.635C148.194 45.7873 148.19 44.8377 147.838 43.993C147.486 43.1483 146.814 42.4769 145.97 42.125Z" fill="#EE7379"/>
<path d="M147.12 51.9749C147.148 52.3257 147.072 52.6771 146.901 52.9846C146.73 53.2921 146.471 53.542 146.158 53.7027C145.845 53.8633 145.491 53.9275 145.141 53.8871C144.792 53.8467 144.462 53.7036 144.193 53.4758C143.925 53.248 143.73 52.9458 143.634 52.6073C143.537 52.2689 143.543 51.9094 143.651 51.5743C143.758 51.2392 143.963 50.9435 144.239 50.7247C144.514 50.5059 144.849 50.3737 145.2 50.3449C145.433 50.3257 145.667 50.3527 145.89 50.4242C146.113 50.4958 146.319 50.6105 146.497 50.7619C146.676 50.9133 146.822 51.0983 146.929 51.3065C147.036 51.5146 147.101 51.7417 147.12 51.9749Z" fill="white"/>
<path d="M96.0897 45.5155C96.7397 49.0855 101.8 53.9155 103.15 50.8955C103.97 49.0455 103.95 46.8955 103.3 43.3255C102.65 39.7555 104.04 37.3955 100.79 37.9955C97.5397 38.5955 95.4397 41.9555 96.0897 45.5155Z" fill="#F39A83"/>
<path d="M101.27 41.2754H101.44L101.49 41.3654C102.56 42.6054 101.92 45.1754 101.93 46.6554C101.93 47.2854 101.98 47.9054 102.05 48.5254C101.237 48.4823 100.463 48.1606 99.8581 47.6143C99.2536 47.0681 98.8554 46.3305 98.7303 45.5254C98.6123 45.0794 98.5847 44.6144 98.6491 44.1576C98.7135 43.7007 98.8686 43.2614 99.1052 42.8654C99.3419 42.4695 99.6553 42.1248 100.027 41.8517C100.399 41.5787 100.822 41.3827 101.27 41.2754Z" fill="#EE7379"/>
<path d="M98.64 50.8351C98.557 51.1772 98.5773 51.5362 98.6984 51.8668C98.8194 52.1973 99.0357 52.4846 99.32 52.6922C99.6043 52.8998 99.9438 53.0185 100.295 53.0332C100.647 53.0479 100.995 52.958 101.296 52.7748C101.597 52.5917 101.836 52.3235 101.984 52.0042C102.133 51.6848 102.183 51.3288 102.129 50.9809C102.074 50.6331 101.918 50.3091 101.68 50.05C101.442 49.7908 101.132 49.6082 100.79 49.5251C100.563 49.4685 100.327 49.4576 100.095 49.493C99.8636 49.5283 99.6415 49.6093 99.4415 49.7311C99.2415 49.853 99.0677 50.0133 98.9301 50.2028C98.7926 50.3923 98.694 50.6072 98.64 50.8351Z" fill="white"/>
<path d="M75.47 134.385C73.94 134.385 73.52 134.665 70.21 132.435C69.1704 131.796 68.3563 130.848 67.8812 129.724C67.4062 128.6 67.2939 127.356 67.56 126.165C77.81 102.885 95.78 83.4151 102.16 83.9951C112.62 84.9951 103.78 93.5951 103.78 93.5951C103.78 93.5951 88.61 121.025 79.93 133.385C78.32 135.655 76.77 131.635 75.47 134.385Z" fill="#F39A83"/>
<path d="M157.02 158.025C156.673 152.278 156.163 146.535 155.49 140.795C155.546 132.28 154.994 123.771 153.84 115.335C152.67 106.715 152.1 92.1248 145.38 85.7748C143.88 84.3548 131.47 82.2248 131.56 82.9848C131.944 84.8102 131.876 86.702 131.36 88.4948C129.64 94.0848 122.17 96.7048 117.64 92.6148C116.325 91.3056 115.367 89.6824 114.856 87.8991C114.345 86.1157 114.298 84.2314 114.72 82.4248C112.08 83.0748 109.57 82.5648 106.93 82.7048C104.297 82.7782 101.683 83.1814 99.1498 83.9048C93.7098 85.6148 95.5598 94.5248 94.2098 98.7248C89.7498 112.645 89.4298 129.165 87.8998 143.725C87.3998 148.485 86.9498 153.248 86.5498 158.015L157.02 158.025Z" fill="#AF64A5"/>
<path d="M145.52 22.8652C142.91 16.5152 138.68 12.6352 132.08 10.7752C131.639 10.5893 131.161 10.5115 130.684 10.548C130.208 10.5845 129.747 10.7344 129.34 10.9852C129.342 10.7322 129.292 10.4815 129.192 10.249C129.092 10.0166 128.945 9.80752 128.76 9.63517C126.87 8.02517 123.57 8.41517 121.3 8.71517C118.458 9.07031 115.711 9.97007 113.21 11.3652C110.297 12.9167 107.664 14.9447 105.42 17.3652C101.347 22.0908 99.2513 28.2045 99.5697 34.4352C99.7797 37.8852 100.46 41.7352 102.5 44.6052C102.493 43.3695 102.802 42.1527 103.399 41.0708C103.996 39.9889 104.861 39.078 105.91 38.4252C107.812 37.343 109.823 36.4648 111.91 35.8052C118.783 33.1266 124.728 28.5053 129.02 22.5052C129.18 22.2752 129.39 22.0152 129.67 22.0152C129.814 22.0285 129.952 22.0803 130.07 22.1652C134.772 24.889 138.485 29.0395 140.67 34.0152C141.745 36.5466 142.446 39.2215 142.75 41.9552C142.9 43.0952 143.45 48.3052 145.27 45.7452C146.175 44.0884 146.848 42.3152 147.27 40.4752C148.86 34.3452 147.91 28.6352 145.52 22.8652Z" fill="#201544"/>
<path d="M231.129 79.5084C231.129 79.5084 231.007 71.9711 241.415 71.0456C241.415 71.0456 242.166 72.6875 238.678 75.1604C236.732 76.6121 234.68 77.9151 232.538 79.0585C232.095 79.2809 231.619 79.4327 231.129 79.5084Z" fill="#F39A83"/>
<path d="M233.462 85.5675C233.462 85.5675 239.255 85.7039 243.579 83.1908C247.903 80.6776 248.38 77.4163 248.275 75.5766C248.221 74.3256 247.928 70.417 246.387 71.535C244.846 72.653 236.787 74.6998 234.87 75.5116C232.953 76.3235 230.821 79.5304 230.901 80.1269C230.98 80.7233 233.462 85.5675 233.462 85.5675Z" fill="#F39A83"/>
<path d="M232.985 78.5239C234.614 80.3878 235.45 82.966 236.543 85.2871C228.765 89.8195 220.027 92.6205 211.404 94.6601C204.881 96.2781 198.248 97.4125 191.558 98.0541C190.934 98.1664 190.29 98.0993 189.701 97.8607C189.316 97.6356 188.987 97.3251 188.74 96.953C188.068 96.0415 187.577 95.0095 187.294 93.913C187.128 92.6523 187.393 91.3724 188.047 90.2818C188.538 89.1058 186.044 85.8467 187.585 85.7806C201.491 85.1213 222.598 82.3312 232.985 78.5239Z" fill="#F39A83"/>
<path d="M116.755 61.9197C117.165 64.169 118.871 65.2513 122.741 65.2513C126.611 65.2513 126.974 63.4035 127.963 61.9198C127.963 61.9198 124.103 59.6648 121.891 59.6312C119.679 59.5976 116.755 61.9197 116.755 61.9197Z" fill="white"/>
<path d="M131.25 40.1839C131.252 40.4775 131.167 40.765 131.005 41.0099C130.843 41.2548 130.612 41.446 130.341 41.5593C130.07 41.6725 129.772 41.7027 129.484 41.6459C129.196 41.5891 128.931 41.448 128.724 41.2404C128.516 41.0328 128.375 40.7682 128.318 40.4802C128.261 40.1921 128.291 39.8937 128.405 39.6229C128.518 39.3521 128.709 39.121 128.954 38.9592C129.199 38.7973 129.486 38.7119 129.78 38.7139C130.17 38.7139 130.544 38.8688 130.819 39.1445C131.095 39.4201 131.25 39.794 131.25 40.1839Z" fill="#201544"/>
<path d="M115.28 40.1839C115.282 40.477 115.197 40.7641 115.036 41.0088C114.874 41.2535 114.644 41.4448 114.374 41.5583C114.103 41.6719 113.805 41.7026 113.518 41.6466C113.23 41.5907 112.965 41.4505 112.757 41.2439C112.549 41.0373 112.407 40.7737 112.349 40.4863C112.292 40.1989 112.32 39.9008 112.432 39.6298C112.544 39.3588 112.733 39.1271 112.977 38.964C113.221 38.8009 113.507 38.7139 113.8 38.7139C114.191 38.7139 114.566 38.8684 114.843 39.1438C115.121 39.4192 115.278 39.7931 115.28 40.1839Z" fill="#201544"/>
<path d="M109.316 41.6538C110.604 39.5233 112.612 37.9238 114.976 37.1442" stroke="#201544" stroke-width="0.15" stroke-linecap="round" stroke-linejoin="round"/>
<path d="M135.085 41.6536C133.838 39.4946 131.861 37.8529 129.509 37.0254" stroke="#201544" stroke-width="0.15" stroke-linecap="round" stroke-linejoin="round"/>
<path d="M122.19 45.2754C122.83 47.1054 121.94 48.9554 121.58 50.6254C121.196 51.3177 120.967 52.0856 120.91 52.8754C121.285 53.6096 121.767 54.2837 122.34 54.8754C121.864 54.7572 121.418 54.5393 121.031 54.2359C120.645 53.9325 120.328 53.5506 120.1 53.1154C119.953 52.1397 120.053 51.1426 120.39 50.2154C121.177 48.6429 121.781 46.9854 122.19 45.2754Z" fill="#DE7778"/>
<path d="M101.77 83.3449C96.29 82.8449 80.59 96.9249 70.71 115.735C72.84 120.535 81.25 125.945 86.88 126.625C95.65 114.155 105.39 97.6349 105.39 97.6349C105.39 97.6349 112.23 84.3149 101.77 83.3449Z" fill="#AF64A5"/>
<path d="M136.462 89.5457C139.355 84.8648 160.029 80.7593 181.012 84.1563C183.559 88.7471 182.854 98.7101 180.007 103.617C164.768 103.152 133.672 101.809 133.672 101.809C133.672 101.809 130.951 98.4929 136.462 89.5457Z" fill="#AF64A5"/>
<path d="M143.97 10.5051C145.875 9.34083 147.926 8.43616 150.07 7.81506C159.81 5.48506 162.95 13.8151 163.9 21.8751C164.5 26.9651 163.18 31.7851 164.32 36.9451C164.32 41.6951 168.48 47.6751 171.32 51.2551C165.19 50.1451 158.46 48.6351 154.85 43.6351C153.02 41.0651 152.27 37.9251 151.25 34.9451C149.51 29.8751 146.56 27.6751 142.58 24.5751C139.2 21.9551 137.5 19.0851 139.31 14.8051C139.93 13.3151 141.84 11.7751 143.97 10.5051Z" fill="#201544"/>
<path d="M106.39 8.68532C104.484 7.52034 102.433 6.61247 100.29 5.98532C90.5696 3.63532 87.3896 12.0053 86.4796 20.0453C85.8796 25.1453 87.1896 29.9553 86.0596 35.1253C86.0596 39.8653 81.8996 45.8553 79.0596 49.4253C85.1696 48.3253 91.9096 46.8453 95.5096 41.7853C97.3396 39.2253 98.0896 36.0753 99.1096 33.1053C100.85 28.0253 103.8 25.8253 107.79 22.7353C111.16 20.1053 112.86 17.2453 111.06 12.9653C110.45 11.4953 108.53 9.95532 106.39 8.68532Z" fill="#201544"/>
<path d="M47.1526 97.9951C47.1526 97.9951 46.3009 90.5052 36.6291 90.8188C36.6291 90.8188 36.1498 92.536 39.6679 94.5758C41.6396 95.7854 43.6901 96.835 45.8021 97.7155C46.2373 97.8837 46.693 97.978 47.1526 97.9951Z" fill="#F39A83"/>
<path d="M45.7871 104.28C45.7871 104.28 40.4865 105.101 36.1965 103.12C31.9065 101.139 31.051 97.9609 30.9129 96.1238C30.8022 94.8766 30.5715 90.9654 32.129 91.8919C33.6865 92.8185 41.3456 93.8949 43.2088 94.4733C45.0721 95.0517 49.7403 99.1921 49.7438 99.793C49.7472 100.394 45.7871 104.28 45.7871 104.28Z" fill="#F39A83"/>
<path d="M49.7584 99.7205C47.4513 100.371 45.3307 102.029 43.164 103.34C46.4222 111.197 51.4062 118.155 56.743 124.43C60.7363 129.237 65.0925 133.709 69.7759 137.809C70.1831 138.235 70.7083 138.524 71.2905 138.644C71.7118 138.666 72.1396 138.588 72.5409 138.417C73.5752 138.032 75.3244 138.553 76.1717 137.809C77.0255 136.869 78.3336 135.705 79.5834 133.874C80.8334 132.043 82.2074 130.757 81.081 129.879C70.9556 121.907 55.4069 108.381 49.7584 99.7205Z" fill="#F39A83"/>
</svg>
