<svg width="288" height="235" viewBox="0 0 288 235" fill="none" xmlns="http://www.w3.org/2000/svg">
<path d="M185.747 48.6855H8.97369C8.32542 48.6949 7.67993 48.7723 7.04785 48.9164V185.343C7.68026 185.484 8.32576 185.558 8.97369 185.564H185.747C192.352 185.564 197.697 178.532 197.697 169.846V64.4523C197.697 55.7272 192.352 48.6855 185.747 48.6855Z" fill="#945C41"/>
<path d="M231.564 101.007L176.08 89.9922V171.298C176.08 179.773 181.27 186.69 187.635 186.69H231.525L231.564 101.007Z" fill="#945C41"/>
<path d="M186.884 126.316L18.373 126.124V170.269C18.373 178.744 23.5632 185.66 29.9281 185.66H183.408C184.731 186.321 186.195 186.651 187.674 186.622H218.892V141.708L186.884 126.316Z" fill="#7D4E36"/>
<path d="M18.2959 141.535V170.663C18.2959 179.494 23.486 186.642 29.8509 186.642H218.901V141.717C218.901 141.65 18.2959 141.535 18.2959 141.535Z" fill="#6C4026"/>
<path d="M242.097 186.622V116.341C242.097 107.866 236.898 100.949 230.542 100.949C224.139 100.949 218.987 107.818 218.987 116.341V186.622H242.097Z" fill="#A66547"/>
<path d="M157.332 90.1752C158.289 90.1752 159.065 89.1502 159.065 87.8857C159.065 86.6212 158.289 85.5962 157.332 85.5962C156.375 85.5962 155.599 86.6212 155.599 87.8857C155.599 89.1502 156.375 90.1752 157.332 90.1752Z" fill="#623C28"/>
<path d="M157.332 83.48C157.04 81.0445 156.902 78.593 156.918 76.1401C156.898 73.6872 157.036 71.2355 157.332 68.8003C157.631 71.2353 157.773 73.687 157.756 76.1401C157.768 78.5932 157.627 81.0447 157.332 83.48Z" fill="#815138"/>
<path d="M157.332 106.961C157.04 104.526 156.902 102.074 156.918 99.6216C156.898 97.1686 157.036 94.7169 157.332 92.2817C157.631 94.7167 157.773 97.1684 157.756 99.6216C157.768 102.075 157.627 104.526 157.332 106.961Z" fill="#815138"/>
<path d="M160.663 87.8859C162.482 87.4937 164.339 87.3097 166.2 87.3376C168.064 87.3052 169.925 87.4893 171.746 87.8859C168.088 88.617 164.321 88.617 160.663 87.8859Z" fill="#815138"/>
<path d="M143.408 87.8859C145.23 87.4942 147.091 87.3103 148.955 87.3376C150.818 87.3052 152.68 87.4892 154.501 87.8859C150.84 88.617 147.07 88.617 143.408 87.8859Z" fill="#815138"/>
<path d="M70.3221 88.0014C71.2794 88.0014 72.0554 86.9763 72.0554 85.7119C72.0554 84.4474 71.2794 83.4224 70.3221 83.4224C69.3649 83.4224 68.5889 84.4474 68.5889 85.7119C68.5889 86.9763 69.3649 88.0014 70.3221 88.0014Z" fill="#623C28"/>
<path d="M70.293 81.3154C69.9967 78.8803 69.8584 76.4286 69.8789 73.9756C69.8584 71.5226 69.9967 69.0709 70.293 66.6357C70.5892 69.0709 70.7275 71.5226 70.707 73.9756C70.7275 76.4286 70.5892 78.8803 70.293 81.3154Z" fill="#815138"/>
<path d="M70.293 104.797C69.7409 99.9197 69.7409 94.9954 70.293 90.1177C70.845 94.9954 70.845 99.9197 70.293 104.797Z" fill="#815138"/>
<path d="M73.6445 85.7119C77.3059 84.9808 81.076 84.9808 84.7374 85.7119C82.9156 86.1068 81.0549 86.2939 79.1909 86.2698C77.3272 86.2892 75.467 86.102 73.6445 85.7119Z" fill="#815138"/>
<path d="M56.3984 85.7118C60.0566 84.9808 63.8235 84.9808 67.4817 85.7118C65.6599 86.1067 63.7992 86.2939 61.9352 86.2698C60.0746 86.2891 58.2177 86.102 56.3984 85.7118Z" fill="#815138"/>
<path d="M14.9927 101.228V64.1059C14.9927 55.5925 11.6417 48.7144 7.50115 48.7144C3.36059 48.7144 0 55.6213 0 64.1059V170.769V171.847C0 180.36 3.36059 187.238 7.50115 187.238H54.2317L58.7382 101.623L14.9927 101.228Z" fill="#78472C"/>
<path d="M71.4295 187.267V116.966C71.4295 108.491 65.7482 101.575 58.7382 101.575C51.7281 101.575 46.0469 108.453 46.0469 116.966V187.267H71.4295Z" fill="#A66547"/>
<path d="M61.2706 117.745C61.2015 118.102 61.0326 118.432 60.7836 118.697C60.5345 118.961 60.2155 119.15 59.8634 119.242C59.5113 119.333 59.1406 119.322 58.7941 119.212C58.4476 119.101 58.1396 118.895 57.9056 118.617C57.6716 118.339 57.5212 118 57.4719 117.64C57.4226 117.28 57.4763 116.913 57.6269 116.583C57.7775 116.252 58.0187 115.971 58.3228 115.771C58.6268 115.572 58.9811 115.462 59.3448 115.456C59.9029 115.507 60.4182 115.776 60.7788 116.205C61.1394 116.634 61.3161 117.187 61.2706 117.745Z" fill="#815138"/>
<path d="M59.3741 103.633C58.065 103.763 56.7949 104.152 55.638 104.778C54.3839 105.408 53.2729 106.289 52.3737 107.366C50.4478 109.521 49.302 112.762 48.8783 116.023C48.5849 119.404 48.4756 122.799 48.5509 126.192C48.5509 129.607 48.4642 133.022 48.3776 136.437C48.3005 133.018 48.246 129.603 48.2139 126.192C48.2139 124.489 48.2139 122.777 48.2139 121.074C48.2139 120.218 48.2139 119.362 48.262 118.496L48.3198 117.197C48.3198 116.774 48.4257 116.351 48.4739 115.918L48.6568 114.648C48.7435 114.225 48.859 113.821 48.9553 113.407C49.0516 112.993 49.1479 112.58 49.2827 112.176L49.7257 111.012L49.9471 110.434C50.0338 110.252 50.1301 110.069 50.2264 109.896L50.7945 108.828C51.0063 108.501 51.2374 108.183 51.4589 107.866C51.5745 107.712 51.6804 107.549 51.8056 107.404L52.1907 107C53.0957 105.98 54.1996 105.155 55.4348 104.576C56.6699 103.998 58.0104 103.677 59.3741 103.633Z" fill="#815138"/>
<path d="M48.9833 142.15C49.07 144.565 49.1181 146.96 49.147 149.394L49.2048 156.638L49.1567 163.881C49.1567 166.296 49.0796 168.691 48.9833 171.125C48.8967 168.71 48.8485 166.315 48.8196 163.881L48.7715 156.638L48.8196 149.394C48.8485 146.979 48.8967 144.565 48.9833 142.15Z" fill="#815138"/>
<path d="M69.3306 115.437C69.4172 117.851 69.4557 120.246 69.4942 122.68V129.924V137.167C69.4942 139.582 69.4172 141.977 69.3306 144.411C69.2343 141.997 69.1957 139.601 69.1572 137.167V129.924V122.68C69.1765 120.246 69.215 117.87 69.3306 115.437Z" fill="#815138"/>
<path d="M275.173 187.95C264.51 186.347 253.666 186.347 243.002 187.95H237.494V190.374C237.494 192.385 247.123 194.01 259.083 194.01C271.042 194.01 280.672 192.385 280.672 190.374V187.95H275.173Z" fill="#1A093E"/>
<path d="M259.083 191.576C271.006 191.576 280.672 189.953 280.672 187.95C280.672 185.947 271.006 184.323 259.083 184.323C247.16 184.323 237.494 185.947 237.494 187.95C237.494 189.953 247.16 191.576 259.083 191.576Z" fill="#6970A2"/>
<path d="M261.732 28.5034H256.445V187.604H261.732V28.5034Z" fill="#1A093E"/>
<path d="M287.913 37.6131L276.975 2.34721C276.763 1.66766 276.34 1.07339 275.767 0.651138C275.193 0.228884 274.5 0.00074011 273.787 0L246.922 0C246.21 0.00074011 245.516 0.228884 244.943 0.651138C244.369 1.07339 243.946 1.66766 243.735 2.34721L232.786 37.6131C232.746 37.6838 232.723 37.7629 232.719 37.844C232.719 39.6909 245.092 41.182 260.355 41.182C275.617 41.182 288 39.6909 288 37.844C287.994 37.7604 287.964 37.6803 287.913 37.6131Z" fill="#FFFDF0"/>
<path d="M254.529 168.037V188.392C254.529 188.816 256.571 189.152 259.084 189.152C261.597 189.152 263.639 188.816 263.639 188.392V168.037H254.529Z" fill="#757DB6"/>
<path d="M259.084 168.787C261.599 168.787 263.639 168.451 263.639 168.037C263.639 167.623 261.599 167.287 259.084 167.287C256.568 167.287 254.529 167.623 254.529 168.037C254.529 168.451 256.568 168.787 259.084 168.787Z" fill="#1A093E"/>
<path d="M127.52 123.132C126.077 123.687 124.569 124.055 123.032 124.229C120.741 116.37 120.673 104.778 122.464 94.6772C123.986 93.8306 123.957 93.4747 126.316 94.7349C126.873 94.9995 127.372 95.3722 127.784 95.8313C128.195 96.2905 128.512 96.8268 128.714 97.4092C127.171 105.892 126.769 114.543 127.52 123.132Z" fill="#F39A83"/>
<path d="M174.895 120.516C176.407 120.833 177.954 120.956 179.498 120.881C180.46 112.753 178.708 101.305 175.319 91.6181C173.682 91.0313 173.653 90.6562 171.467 92.3011C170.958 92.651 170.526 93.0997 170.195 93.6203C169.864 94.1409 169.642 94.7229 169.541 95.3313C172.445 103.449 174.246 111.919 174.895 120.516Z" fill="#F39A83"/>
<path d="M160.538 98.6982C160.538 98.6982 169.551 109.415 168.54 130.184H131.073C131.073 130.184 129.291 110.944 139.421 99.8045L160.538 98.6982Z" fill="#F8C9DE"/>
<path d="M139.671 29.8212C138.991 30.1067 138.345 30.4681 137.745 30.8986C134.24 33.4671 132.42 38.123 132.257 42.375C132.18 44.3855 133.104 45.8958 133.22 47.8678C133.335 50.6479 132.257 53.4761 131.775 56.1889C131.092 59.8155 131.352 64.1828 134.337 66.3473C135.424 67.0526 136.627 67.5637 137.89 67.8576C141.597 68.935 145.487 69.8489 149.272 69.1466C153.056 68.4444 156.734 65.7316 157.389 61.9318C157.474 60.9619 157.619 59.9981 157.822 59.0459C158.284 57.526 159.517 56.3909 160.509 55.1499C163.263 51.7061 161.231 45.434 159.95 41.6823C159.595 40.539 159.14 39.4285 158.593 38.3635C157.833 37.0952 156.9 35.9392 155.819 34.9293C151.929 31.1103 145.131 27.474 139.671 29.8212Z" fill="#EFEEEE"/>
<path d="M127.598 98.1209C126.779 98.3326 126.577 98.5153 124.564 97.6111C123.938 97.4057 123.395 97.0033 123.017 96.464C122.638 95.9248 122.445 95.2776 122.465 94.6193C125.576 79.6222 133.25 65.5389 136.755 65.1061C142.533 64.3846 140.241 71.2915 140.241 71.2915C140.241 71.2915 134.155 83.9896 130.756 92.3395C129.849 94.6349 129.071 96.9794 128.426 99.3619L127.598 98.1209Z" fill="#F39A83"/>
<path d="M124.958 84.4034C126.363 80.5556 127.615 76.7077 129.772 73.1003C131.698 69.7526 134.539 65.164 138.535 63.9904C144.177 62.3454 140.258 71.3206 140.258 71.3206C138.333 77.2175 136.031 82.9701 133.816 88.7516L132.555 92.0126C131.865 94.171 130.821 96.1997 129.464 98.0153C129.14 98.4142 128.737 98.7417 128.28 98.9773C127.687 99.2258 127.043 99.3281 126.402 99.2755C125.529 99.2822 124.665 99.088 123.879 98.708C123.115 98.2184 122.499 97.5295 122.099 96.7156C121.698 95.9018 121.528 94.994 121.607 94.0905C121.795 92.2898 122.321 90.5407 123.157 88.9343C123.802 87.4625 124.389 85.933 124.958 84.4034Z" fill="#D569A5"/>
<path d="M160.249 101.969L140.22 102.508C139.681 90.281 133.74 67.8767 136.812 65.5583C139.469 63.567 143.436 62.6243 147.461 62.48C151.687 62.2811 155.917 62.7816 159.979 63.9614C162.916 64.9619 159.633 89.2613 160.249 101.969Z" fill="#F39A83"/>
<path d="M136.812 65.5874C138.753 64.2361 140.975 63.3416 143.311 62.9708C144.794 64.1829 145.94 65.6355 148.126 65.5778C148.989 65.6254 149.836 65.3324 150.484 64.762C151.132 64.1915 151.531 63.3893 151.592 62.5283C154.431 62.6487 157.242 63.1271 159.96 63.952C162.916 64.914 159.633 89.223 160.249 101.96L140.22 102.498C139.681 90.3101 133.74 67.8865 136.812 65.5874Z" fill="white"/>
<path d="M164.871 109.501C164.592 109.711 164.288 109.886 163.966 110.021C159.363 112.06 154.125 111.897 149.089 111.695L133.085 111.069C134.074 104.137 134.847 97.172 135.406 90.1752C135.897 83.9994 134.972 78.6893 135.656 72.5038C135.935 69.9835 135.492 67.3476 136.446 65.6065C136.861 64.9017 137.483 64.341 138.227 64C138.962 63.6559 139.739 63.4101 140.538 63.2689C140.971 63.1727 142.377 62.7687 142.676 63.2689C142.753 63.426 142.801 63.5952 142.82 63.7691C143.456 67.0494 146.21 75.9477 147.866 75.9862C149.522 76.0246 152.141 64.2693 151.717 62.5186C152.967 62.669 154.228 62.6948 155.483 62.5955C156.757 62.6105 158.025 62.7817 159.257 63.1054C162.146 63.9615 161.443 69.2043 161.549 71.3687C161.732 75.4571 162.098 79.5358 162.512 83.6146C163.388 91.5989 164.582 99.5544 165.401 107.548C165.491 108.032 165.447 108.531 165.275 108.991C165.174 109.185 165.036 109.358 164.871 109.501Z" fill="#D569A5"/>
<path d="M150.062 50.8789C147.866 49.5033 143.87 51.8408 143.87 51.8408L143.976 63.4903C143.976 63.4903 150.033 65.9241 150.774 64.4523C151.516 62.9805 151.573 51.8312 150.062 50.8789Z" fill="#F39A83"/>
<path d="M147.164 59.8539C145.831 60.6035 144.734 61.7095 143.996 63.0477L143.89 51.8311C143.89 51.8311 147.886 49.4743 150.081 50.8691C150.823 51.3405 151.189 55.2172 151.285 59.2094C149.877 58.9888 148.436 59.2142 147.164 59.8539Z" fill="#F39A83"/>
<path d="M155.792 52.7255V52.7832C155.368 53.9818 154.663 55.0618 153.737 55.9336C152.811 56.8053 151.69 57.4435 150.467 57.7951C149.158 58.1679 147.781 58.2307 146.443 57.9785C145.106 57.7264 143.846 57.1662 142.764 56.3425C141.388 55.2029 140.21 53.8443 139.278 52.3215C138.459 51.0517 138.247 49.4356 137.776 47.9734C137.008 45.6637 136.444 43.2914 136.091 40.8836C135.917 39.6844 135.792 38.4723 135.715 37.2474C135.611 36.2759 135.868 35.3002 136.437 34.5058C137.504 32.8235 138.921 31.3896 140.59 30.3009C142.26 29.2123 144.143 28.4942 146.115 28.1952C148.179 27.8257 150.303 27.9879 152.287 28.6666C153.703 29.067 154.908 30.0018 155.647 31.2735C158.883 37.8149 158.45 46.0398 155.792 52.7255Z" fill="#F39A83"/>
<path d="M134.183 45.713C134.78 47.358 137.591 49.2531 138.034 47.7043C138.227 46.4719 138.039 45.21 137.495 44.0873C136.898 42.4423 137.36 41.2014 135.858 41.7497C135.487 41.8998 135.15 42.1214 134.865 42.4019C134.58 42.6823 134.353 43.0162 134.198 43.3843C134.042 43.7524 133.961 44.1476 133.958 44.5471C133.955 44.9467 134.032 45.3429 134.183 45.713Z" fill="#F39A83"/>
<path d="M136.311 43.2886H136.388C137.004 43.7888 136.908 45.0682 137.033 45.7705C137.088 46.069 137.159 46.3645 137.245 46.6555C136.849 46.7032 136.448 46.6111 136.112 46.3951C135.776 46.1791 135.526 45.8526 135.406 45.4722C135.239 45.0625 135.241 44.6037 135.41 44.195C135.58 43.7864 135.903 43.4608 136.311 43.2886Z" fill="#EE7379"/>
<path d="M135.83 48.0409C135.812 48.1592 135.819 48.2799 135.85 48.3954C135.882 48.5109 135.937 48.6186 136.012 48.7118C136.087 48.805 136.181 48.8817 136.287 48.9369C136.393 48.9922 136.509 49.0248 136.629 49.0328C136.748 49.0408 136.868 49.024 136.981 48.9834C137.094 48.9428 137.197 48.8794 137.284 48.797C137.37 48.7146 137.439 48.6152 137.486 48.5049C137.532 48.3947 137.555 48.276 137.553 48.1563C137.55 47.939 137.465 47.7307 137.316 47.573C137.166 47.4153 136.962 47.3197 136.745 47.3052C136.528 47.2906 136.313 47.3582 136.144 47.4945C135.974 47.6308 135.862 47.8259 135.83 48.0409Z" fill="white"/>
<path d="M160.472 44.5104C160.183 46.2419 157.775 48.618 157.101 47.1654C156.681 45.9899 156.633 44.7132 156.966 43.5099C157.246 41.788 156.562 40.624 158.132 40.9126C158.919 41.0811 159.607 41.5544 160.045 42.2287C160.484 42.903 160.637 43.7234 160.472 44.5104Z" fill="#F39A83"/>
<path d="M157.918 42.5H157.831C157.321 43.106 157.658 44.347 157.658 45.0588C157.677 45.3599 157.677 45.662 157.658 45.9631C158.055 45.9366 158.431 45.772 158.719 45.4979C159.008 45.2238 159.191 44.8574 159.237 44.4624C159.322 44.0275 159.231 43.5767 158.984 43.2088C158.736 42.8409 158.353 42.586 157.918 42.5Z" fill="#EE7379"/>
<path d="M159.278 47.1365C159.335 47.3572 159.302 47.5917 159.187 47.7883C159.071 47.9849 158.882 48.1277 158.661 48.1851C158.44 48.2425 158.206 48.2099 158.009 48.0944C157.812 47.9789 157.669 47.7901 157.612 47.5694C157.583 47.4601 157.577 47.3463 157.592 47.2345C157.608 47.1227 157.645 47.015 157.702 46.9176C157.76 46.8203 157.836 46.7351 157.926 46.667C158.016 46.5989 158.119 46.5493 158.228 46.5209C158.337 46.4924 158.451 46.4858 158.563 46.5014C158.675 46.5169 158.783 46.5544 158.88 46.6115C158.978 46.6687 159.063 46.7445 159.131 46.8346C159.199 46.9246 159.249 47.0272 159.278 47.1365Z" fill="white"/>
<path d="M150.765 32.9569C150.969 33.9073 151.369 34.8049 151.939 35.5927C152.83 36.5604 153.821 37.431 154.895 38.19C156.446 39.4694 156.821 41.0759 157.881 42.5766C158.445 41.5284 158.727 40.3516 158.699 39.1616C158.803 36.1501 157.741 33.2145 155.733 30.9656C154.578 29.7151 152.69 27.4544 151.323 29.0898C150.947 29.6519 150.702 30.291 150.605 30.9601C150.508 31.6293 150.563 32.3115 150.765 32.9569Z" fill="#EFEEEE"/>
<path d="M145.594 27.4164C147.099 27.2049 148.625 27.2049 150.13 27.4164C150.418 27.4266 150.701 27.4958 150.961 27.62C151.221 27.7441 151.453 27.9204 151.641 28.1379C152.845 29.9464 151.69 33.0632 150.679 34.6408C149.318 36.7159 147.194 38.1712 144.766 38.6907C143.197 38.9986 141.502 38.9216 140.115 39.6527C136.947 41.442 137.381 46.0883 134.482 48.0315C133.147 44.8952 132.876 41.4084 133.712 38.1039C134.434 34.939 136.822 32.0435 139.239 29.9849C141.082 28.5638 143.28 27.6754 145.594 27.4164Z" fill="#EFEEEE"/>
<path d="M127.202 121.862C127.202 121.862 131.641 122.882 130.678 129.135C130.678 129.135 129.6 129.337 128.656 126.932C128.096 125.581 127.632 124.193 127.269 122.776C127.2 122.477 127.177 122.169 127.202 121.862Z" fill="#F39A83"/>
<path d="M123.312 122.373C122.792 124.428 122.766 126.577 123.234 128.645C124.072 131.53 125.911 132.242 127.009 132.492C127.76 132.646 130.09 133.05 129.648 131.983C129.205 130.915 129.185 125.903 128.983 124.643C128.651 123.425 127.897 122.365 126.855 121.651C126.499 121.584 123.312 122.373 123.312 122.373Z" fill="#F39A83"/>
<path d="M170.977 96.7934C171.805 96.9665 172.017 97.1493 174 96.1777C175.551 95.4274 176.234 95.3408 176.109 94.2538C172.257 79.9493 164.246 64.4327 160.702 64.1152C154.925 63.5861 157.428 70.4065 157.428 70.4065C157.428 70.4065 163.928 82.9121 167.597 91.137C168.28 92.6569 170.697 98.5538 171.169 100.324L170.977 96.7934Z" fill="#F39A83"/>
<path d="M173.711 82.7294C171.992 78.8039 169.987 75.0099 167.712 71.3781C165.69 68.2325 162.82 64.0094 158.94 63.009C153.239 61.5468 157.457 70.3873 157.457 70.3873C160.559 79.3799 164.354 88.1184 168.81 96.5241C169.056 97.0661 169.426 97.5436 169.888 97.9189C170.328 98.2035 170.838 98.3631 171.362 98.3807C172.68 98.4374 173.977 98.0348 175.031 97.2416C176.085 96.4484 176.83 95.3141 177.139 94.0326C177.601 91.82 176.686 89.5786 175.781 87.5008C175.127 85.9231 174.424 84.3263 173.711 82.7294Z" fill="#D569A5"/>
<path d="M175.01 119.285C175.01 119.285 170.793 121.007 172.748 126.98C172.748 126.98 173.845 126.98 174.384 124.479C174.73 123.06 174.965 121.616 175.087 120.16C175.104 119.866 175.078 119.571 175.01 119.285Z" fill="#F39A83"/>
<path d="M178.93 119.121C179.777 121.068 180.15 123.188 180.018 125.307C179.652 128.298 177.948 129.28 176.898 129.674C176.185 129.943 173.951 130.713 174.221 129.587C174.491 128.462 173.691 123.517 173.691 122.248C173.825 120.992 174.398 119.824 175.309 118.948C175.656 118.852 178.93 119.121 178.93 119.121Z" fill="#F39A83"/>
<path d="M151.506 51.2251C151.298 52.0099 150.84 52.7055 150.2 53.2059C149.561 53.7064 148.775 53.9844 147.963 53.9974C147.15 54.0105 146.356 53.758 145.701 53.2784C145.045 52.7987 144.565 52.1182 144.332 51.3405L151.506 51.2251Z" fill="white"/>
<path d="M142.946 44.5007C142.949 44.641 142.995 44.7771 143.076 44.8918C143.157 45.0065 143.27 45.0947 143.401 45.1453C143.532 45.196 143.675 45.2068 143.812 45.1764C143.949 45.146 144.074 45.0757 144.172 44.9745C144.269 44.8733 144.334 44.7456 144.359 44.6074C144.384 44.4693 144.368 44.3268 144.312 44.1981C144.256 44.0693 144.163 43.9599 144.045 43.8837C143.927 43.8074 143.789 43.7677 143.649 43.7696C143.554 43.7708 143.461 43.7908 143.374 43.8283C143.288 43.8659 143.209 43.9202 143.144 43.9883C143.079 44.0563 143.027 44.1366 142.993 44.2246C142.959 44.3126 142.943 44.4064 142.946 44.5007Z" fill="#201544"/>
<path d="M150.678 44.3664C150.678 44.5552 150.753 44.7362 150.886 44.8697C151.02 45.0032 151.201 45.0782 151.39 45.0782C151.579 45.0782 151.761 45.0032 151.894 44.8697C152.028 44.7362 152.103 44.5552 152.103 44.3664C152.098 44.1767 152.018 43.9967 151.881 43.8652C151.744 43.7338 151.561 43.6615 151.371 43.6641C151.187 43.6691 151.012 43.745 150.883 43.8759C150.754 44.0068 150.68 44.1825 150.678 44.3664Z" fill="#201544"/>
<path d="M153.557 42.1634C152.941 41.9999 152.421 41.8075 151.881 41.6536C151.342 41.4997 150.803 41.3746 150.196 41.1726C150.781 40.9182 151.439 40.8873 152.045 41.086C152.663 41.2511 153.2 41.6338 153.557 42.1634Z" fill="white"/>
<path d="M141.242 42.3269C141.59 41.796 142.108 41.3986 142.712 41.1995C143.315 41.0003 143.968 41.0112 144.564 41.2302C143.967 41.4515 143.438 41.5861 142.898 41.7689C142.359 41.9517 141.849 42.1826 141.242 42.3269Z" fill="white"/>
<path d="M147.846 44.6064C148.09 45.418 148.389 46.2119 148.742 46.9825C148.809 47.1941 148.886 47.4058 148.944 47.6174C149.018 47.8719 149.018 48.1422 148.944 48.3966C148.831 48.6084 148.672 48.7924 148.479 48.9354C148.285 49.0785 148.063 49.177 147.827 49.2239C148.12 48.959 148.348 48.6297 148.492 48.2619C148.49 48.0949 148.451 47.9304 148.376 47.7809L148.155 47.1941C148.002 46.786 147.877 46.3682 147.779 45.9436C147.685 45.4995 147.709 45.0389 147.846 44.6064Z" fill="#DE7778"/>
<path d="M174.54 148.461C174.54 148.461 171.41 156.619 174.347 184.006C174.742 187.671 179.075 185.199 179.075 185.199C179.075 185.199 184.352 150.241 184.082 146.412C183.813 142.583 174.54 148.461 174.54 148.461Z" fill="#F39A83"/>
<path d="M183.668 191.221C185.255 194.184 186.453 197.339 187.231 200.609C187.297 200.805 187.321 201.013 187.301 201.218C187.281 201.424 187.218 201.623 187.115 201.802C186.973 201.939 186.803 202.045 186.617 202.111C186.431 202.177 186.233 202.203 186.037 202.187C183.148 202.293 180.432 200.917 178.054 199.301C177.086 198.691 176.222 197.931 175.493 197.05C173.913 194.992 173.74 192.192 173.817 189.595C173.817 188.248 173.509 183.938 174.568 183.005C175.107 182.515 178.998 182.534 179.72 182.832C180.962 183.352 180.818 184.881 181.395 186.286C182.079 187.95 182.878 189.585 183.668 191.221Z" fill="#1C0F39"/>
<path d="M151.178 121.343C150.924 120.67 150.924 119.928 151.178 119.256C152.025 117.774 156.474 117.428 157.919 117.245C161.25 116.841 163.349 114.58 166.585 113.676C167.307 113.474 172.179 121.564 172.757 122.266C174.38 124.38 175.881 126.583 177.254 128.866C178.92 131.482 180.73 134.128 182.165 136.85C183.6 139.572 185.583 141.929 186.248 144.863C186.281 144.96 186.281 145.065 186.248 145.161C185.814 146.229 182.28 146.306 181.356 146.576C179.494 147.074 177.727 147.877 176.127 148.952C174.202 150.318 173.239 152.155 171.669 153.761C169.936 151.905 168.915 149.211 167.172 146.547C165.607 144.382 164.161 142.134 162.839 139.813C160.278 134.714 155.608 130.895 153.017 125.768C152.264 124.355 151.648 122.873 151.178 121.343Z" fill="#F8C9DE"/>
<path d="M152.652 146.114C152.652 146.114 149.812 157.744 153.664 185.016C154.174 188.662 158.43 186.045 158.43 186.045C158.43 186.045 162.542 150.933 162.147 147.114C161.752 143.295 152.652 146.114 152.652 146.114Z" fill="#F39A83"/>
<path d="M163.216 191.913C164.89 194.828 166.184 197.944 167.067 201.187C167.136 201.381 167.163 201.587 167.148 201.792C167.133 201.997 167.076 202.197 166.981 202.38C166.845 202.522 166.68 202.633 166.497 202.706C166.314 202.779 166.118 202.812 165.922 202.803C163.033 203.005 160.269 201.716 157.843 200.167C156.857 199.589 155.97 198.859 155.214 198.003C153.567 195.992 153.288 193.193 153.288 190.615C153.288 189.258 152.797 184.968 153.818 183.996C154.347 183.496 158.228 183.381 158.96 183.66C160.221 184.131 160.134 185.661 160.76 187.055C161.521 188.7 162.368 190.307 163.216 191.913Z" fill="#1C0F39"/>
<path d="M137.226 137.658C135.802 135.784 134.515 133.81 133.374 131.751C132.084 129.204 131.468 126.369 131.583 123.517C131.583 119.765 131.217 113.445 136.195 113.589C139.402 113.686 142.358 115.359 145.362 116.292C147.096 116.831 151.313 114.013 151.612 115.802C152.102 119.367 153.037 122.857 154.395 126.191C157.168 133.752 162.916 139.793 165.95 147.21C160.654 147.864 154.395 148.009 150.379 151.972C149.936 152.395 149.301 152.934 148.781 152.568C148.615 152.444 148.479 152.283 148.386 152.097C145.295 146.893 140.866 142.525 137.226 137.658Z" fill="#F8C9DE"/>
<path d="M186.624 145.729C186.816 146.899 186.894 148.084 186.855 149.269C186.858 151.842 186.701 154.412 186.383 156.965C185.767 162.054 184.689 167.085 183.928 172.154C183.862 172.978 183.623 173.778 183.225 174.502C182.262 176.012 179.893 175.348 178.41 175.156C173.519 174.521 172.074 176.272 171.997 172.433C171.901 167.547 171.275 162.631 170.784 157.763C170.601 155.907 170.312 154.05 169.965 152.213C169.641 150.559 169.577 148.865 169.773 147.191C169.813 146.183 170.08 145.197 170.553 144.305C172.094 141.843 176.234 141.179 178.863 141.092C181.065 140.999 183.236 141.639 185.035 142.911C185.875 143.639 186.436 144.635 186.624 145.729Z" fill="#F8C9DE"/>
<path d="M165.768 147.23L165.835 147.336C166.03 147.753 166.116 148.213 166.085 148.673C166.201 157.09 164.631 165.353 163.649 173.684C163.615 174.509 163.401 175.316 163.023 176.05C162.06 177.599 159.72 177.012 158.209 176.868C153.307 176.387 151.921 178.186 151.718 174.357C151.468 169.74 150.698 165.113 150.082 160.544C149.687 157.658 149.282 154.704 148.849 151.79C148.377 148.567 148.29 146.412 151.738 144.892C156.032 142.968 160.972 144.18 164.843 146.489C165.203 146.664 165.518 146.917 165.768 147.23Z" fill="#F8C9DE"/>
<path d="M122.512 146.354C122.512 146.354 119.489 154.204 122.32 180.552C122.695 184.073 126.874 181.687 126.874 181.687C126.874 181.687 131.939 148.018 131.689 144.382C131.438 140.746 122.512 146.354 122.512 146.354Z" fill="#F39A83"/>
<path d="M131.286 187.488C132.813 190.34 133.968 193.376 134.723 196.521C134.783 196.71 134.803 196.91 134.782 197.107C134.76 197.304 134.697 197.494 134.598 197.666C134.462 197.798 134.301 197.899 134.123 197.964C133.945 198.028 133.756 198.055 133.568 198.041C130.794 198.137 128.175 196.819 125.864 195.251C124.936 194.664 124.107 193.934 123.409 193.087C121.887 191.105 121.724 188.421 121.791 185.92C121.791 184.622 121.502 180.475 122.513 179.571C123.033 179.109 126.769 179.119 127.472 179.408C128.666 179.908 128.532 181.38 129.08 182.736C129.764 184.343 130.525 185.911 131.286 187.488Z" fill="#1C0F39"/>
<path d="M97.178 123.036C96.8685 122.42 96.79 121.714 96.9566 121.045C97.6017 119.535 101.771 118.707 103.216 118.38C106.318 117.806 109.37 116.989 112.344 115.937C113.008 115.667 117.351 120.929 117.977 121.545C119.763 123.37 121.441 125.297 123.004 127.317C124.929 129.626 126.855 131.954 128.579 134.397C130.302 136.84 132.431 138.88 133.393 141.612C133.427 141.705 133.427 141.807 133.393 141.9C133.095 142.959 129.734 143.43 128.877 143.824C127.151 144.515 125.553 145.491 124.149 146.71C122.435 148.23 121.713 150.096 120.413 151.847C118.555 150.27 117.284 147.807 115.319 145.44C113.583 143.544 111.953 141.553 110.437 139.476C107.433 134.888 102.551 131.78 99.5083 127.144C98.5972 125.855 97.8166 124.479 97.178 123.036Z" fill="#59677A"/>
<path d="M101.155 147.73C101.155 147.73 98.4298 158.908 102.118 185.141C102.609 188.652 106.701 186.103 106.701 186.103C106.701 186.103 110.649 152.328 110.274 148.653C109.898 144.979 101.155 147.73 101.155 147.73Z" fill="#F39A83"/>
<path d="M111.324 191.779C112.945 194.579 114.198 197.576 115.051 200.696C115.118 200.882 115.146 201.08 115.133 201.277C115.119 201.474 115.065 201.666 114.974 201.841C114.843 201.978 114.684 202.086 114.508 202.157C114.332 202.229 114.143 202.262 113.953 202.255C111.189 202.447 108.522 201.206 106.182 199.725C105.237 199.161 104.383 198.458 103.65 197.637C102.07 195.713 101.81 193.029 101.801 190.528C101.801 189.229 101.329 185.103 102.311 184.16C102.821 183.679 106.548 183.573 107.261 183.833C108.464 184.295 108.387 185.757 108.984 187.104C109.697 188.691 110.506 190.24 111.324 191.779Z" fill="#1C0F39"/>
<path d="M87.3177 139.111C85.8155 137.398 84.1208 135.907 82.5898 134.214C80.8089 132.122 79.5866 129.613 79.0366 126.922C78.2277 123.411 76.4078 117.591 81.0876 116.591C84.1112 115.956 87.2503 116.851 90.2739 117.033C92.0168 117.139 93.1626 110.752 94.8863 111.185C97.2262 111.781 100.471 120.804 101.916 122.93C107.327 130.982 112.171 139.284 113.846 149.067C112.354 149.673 109.994 149.269 108.367 149.663C105.412 150.344 102.639 151.657 100.24 153.511C98.8631 154.579 98.5646 155.041 97.8328 153.781C96.8699 152.184 95.6181 150.019 94.53 148.519C92.219 145.325 89.9272 142.083 87.3177 139.111Z" fill="#627187"/>
<path d="M134.135 143.728C134.312 144.854 134.383 145.995 134.347 147.134C134.36 149.594 134.209 152.053 133.894 154.493C133.307 159.399 132.276 164.228 131.535 169.105C131.476 169.898 131.246 170.67 130.861 171.366C129.898 172.828 127.654 172.184 126.21 172.001C121.511 171.385 120.115 173.069 120.047 169.375C119.951 164.68 119.344 159.947 118.873 155.272C118.699 153.483 118.42 151.703 118.083 149.933C117.78 148.348 117.718 146.727 117.9 145.123C117.935 144.144 118.195 143.186 118.661 142.324C120.134 139.948 124.121 139.313 126.653 139.236C128.77 139.147 130.856 139.763 132.585 140.987C133.401 141.696 133.948 142.664 134.135 143.728Z" fill="#59677A"/>
<path d="M113.778 148.798L113.836 148.894C114.026 149.299 114.113 149.746 114.086 150.193C114.192 158.283 112.68 166.229 111.737 174.242C111.703 175.036 111.499 175.813 111.14 176.522C110.235 178.013 107.962 177.484 106.508 177.311C101.79 176.849 100.461 178.58 100.259 174.896C100.028 170.452 99.2958 166.008 98.6892 161.602C98.3168 158.793 97.922 155.987 97.5048 153.184C97.0426 150.077 96.9655 148.009 100.297 146.547C104.419 144.729 109.166 145.864 112.902 148.076C113.24 148.255 113.538 148.501 113.778 148.798Z" fill="#627187"/>
<path d="M128.848 97.063C128.521 93.9751 127.587 88.7516 127.202 86.2697C126.508 81.7773 126.364 78.8817 125.064 74.5144C123.858 70.5253 122.275 66.66 120.336 62.9707C119.373 61.2199 117.939 58.4398 115.695 58.2186C111.333 57.7857 113.307 67.9056 113.307 67.9056L113.422 68.5309C114.212 72.7251 115.252 76.8904 116.456 81.0365C117.765 85.5097 118.911 90.0406 120.134 94.5041C120.572 96.6083 121.129 98.6862 121.8 100.728C122.464 102.392 125.411 99.8335 126.614 98.9966C127.818 98.1596 129.031 98.2366 128.848 97.063Z" fill="#F39A83"/>
<path d="M114.886 85.4424C114.568 84.2014 114.279 82.9509 114.048 81.6907C112.989 75.9189 111.024 70.4933 111.275 64.4714C111.361 62.432 111.535 59.3922 113.451 58.1994C117.9 55.4385 121.761 62.4609 122.839 65.8086C124.332 70.4837 126.325 75.1204 127.115 79.9592L129.57 95.1102C129.792 96.457 129.946 97.9961 128.973 98.9581C128.501 99.3575 127.95 99.6526 127.356 99.8239C125.67 100.449 121.886 102.508 120.394 100.834C119.96 100.287 119.633 99.664 119.431 98.9966C117.823 94.5907 116.08 90.0695 114.886 85.4424Z" fill="#C9A97E"/>
<path d="M84.8525 105.153L112.912 105.432C113.442 92.6667 116.273 62.0568 113.817 59.1324C107.25 51.2827 93.4418 53.8704 86.8554 58.1704C84.3326 59.8058 85.4496 91.8587 84.8525 105.153Z" fill="#F39A83"/>
<path d="M81.087 111.021C80.8847 115.11 80.6922 118.082 80.5381 118.072C89.2044 118.803 97.9573 119.535 106.662 118.784C109.281 118.553 115.608 119.939 116.205 117.351C116.503 116.033 116.205 110.377 116.205 108.895C116.012 92.3493 116.205 77.1501 114.703 60.6523C114.471 58.0742 113.74 56.8044 111.265 56.006C109.435 55.4384 107.577 54.9574 105.718 54.5342C105.561 54.8096 105.37 55.0648 105.15 55.2941C103.956 56.5447 102.56 54.5823 100.971 54.64C99.3825 54.6977 98.564 56.8141 97.3314 55.8713C96.8906 55.5452 96.5774 55.0757 96.4455 54.5438C92.3916 55.1306 87.6348 56.3042 83.6387 57.2085C83.4418 57.2479 83.2509 57.3125 83.0706 57.4009C82.8508 57.5463 82.6741 57.748 82.5589 57.9848C82.4438 58.2217 82.3943 58.4851 82.4158 58.7476C82.4587 59.2691 82.5787 59.7813 82.7721 60.2675C83.3264 62.4726 83.6492 64.7294 83.735 67.0013C84.0957 69.8783 84.0633 72.7908 83.6387 75.6591C82.878 79.6416 82.4928 83.7396 82.1269 87.7799C81.9536 89.4634 81.5106 102.594 81.087 111.021Z" fill="#F2F2F2"/>
<path d="M95.3293 112.685C96.0612 106.134 96.0515 100.497 96.2923 93.9268C96.533 87.3565 96.6871 80.565 96.4078 73.8793C96.1478 67.7515 95.7723 61.6238 95.8878 55.4864C95.7627 55.2267 95.8301 54.9669 95.676 54.5244C91.6221 55.1112 87.5778 56.2848 83.5817 57.1891C83.3848 57.2285 83.1939 57.2932 83.0136 57.3815C82.7938 57.5269 82.6171 57.7286 82.502 57.9655C82.3868 58.2023 82.3374 58.4658 82.3588 58.7282C82.4017 59.2497 82.5217 59.7619 82.7151 60.2481C83.2695 62.4532 83.5922 64.71 83.678 66.9819C84.0387 69.8589 84.0063 72.7715 83.5817 75.6397C82.821 79.6223 82.4358 83.7203 82.0699 87.7605C81.9255 89.4151 81.4825 102.585 81.0589 111.011C80.8566 115.1 80.4041 121.785 80.25 121.766C84.4387 122.122 89.4652 122.478 93.6731 122.661C94.0101 120.852 94.9538 116.052 95.3293 112.685Z" fill="#C9A97E"/>
<path d="M117.245 110.376C117.159 102.758 116.282 95.0811 116.427 87.4719C116.263 83.5567 116.109 79.6318 116.311 75.7166C116.465 72.7537 116.822 69.8101 117.053 66.8472C117.207 64.9233 118.179 60.0172 117.053 58.3819C116.157 57.1024 112.662 56.4579 111.275 56.0058C109.889 55.5537 108.155 55.1208 106.576 54.7456C106.576 66.5779 106.952 78.4967 107.606 90.3386C108.126 99.7851 108.81 113.214 108.204 122.651C111.574 122.43 117.12 121.978 117.611 119.823C117.871 118.486 117.265 111.848 117.245 110.376Z" fill="#C9A97E"/>
<path d="M114.588 36.4681C114.241 38.2286 111.699 40.5854 111.034 39.0751C110.64 38.1131 110.668 37.0838 111.034 35.3234C111.4 33.563 110.736 32.3702 112.296 32.7068C113.097 32.905 113.788 33.4116 114.217 34.1161C114.646 34.8206 114.779 35.666 114.588 36.4681Z" fill="#F39A83"/>
<path d="M112.036 34.3135H111.949C111.41 34.9195 111.709 36.2374 111.689 36.9397C111.689 37.2475 111.689 37.5553 111.612 37.9016C112.021 37.8863 112.413 37.7291 112.718 37.457C113.024 37.1849 113.225 36.8149 113.288 36.4106C113.344 36.1907 113.356 35.962 113.324 35.7374C113.291 35.5129 113.215 35.2969 113.098 35.1021C112.982 34.9072 112.828 34.7372 112.646 34.6018C112.464 34.4665 112.256 34.3685 112.036 34.3135Z" fill="#EE7379"/>
<path d="M87.7996 37.5652C88.358 39.2775 91.1698 41.3073 91.6512 39.7393C91.8915 38.4769 91.7403 37.1714 91.2179 35.9972C90.6594 34.2945 91.2179 33.0343 89.6291 33.5442C89.2442 33.6875 88.8913 33.9053 88.5909 34.1852C88.2904 34.465 88.0483 34.8014 87.8783 35.175C87.7083 35.5486 87.6138 35.9521 87.6003 36.3623C87.5868 36.7724 87.6545 37.1812 87.7996 37.5652Z" fill="#F39A83"/>
<path d="M90.0626 35.1313H90.1493C90.7559 35.6701 90.6115 36.9783 90.7174 37.6998C90.7626 38.0074 90.8237 38.3124 90.9003 38.6137C90.4928 38.6467 90.0865 38.5371 89.7509 38.3037C89.4154 38.0703 89.1715 37.7276 89.0612 37.3343C88.9046 36.9093 88.9219 36.4398 89.1093 36.0275C89.2968 35.6152 89.6393 35.2932 90.0626 35.1313Z" fill="#EE7379"/>
<path d="M96.784 43.1639C99.095 41.0572 106.413 44.2125 106.413 44.2125L105.826 54.5536L100.915 54.6402C99.615 54.6402 98.1225 56.6507 96.524 55.304C95.5707 54.4959 95.8211 44.0393 96.784 43.1639Z" fill="#F39A83"/>
<path d="M96.7836 43.1638C96.2155 43.6736 95.8977 47.5119 95.9266 50.7537C99.7302 50.6575 103.63 52.0235 104.843 55.5636C105.191 55.2712 105.513 54.9493 105.806 54.6016L106.442 44.2508C106.442 44.2508 99.0946 41.0571 96.7836 43.1638Z" fill="#F39A83"/>
<path d="M109.773 45.5011V45.5588C109.3 46.7733 108.543 47.8569 107.564 48.7188C106.586 49.5808 105.415 50.196 104.15 50.513C102.79 50.8573 101.368 50.8783 99.9982 50.5742C98.6286 50.2702 97.3494 49.6496 96.2634 48.7622C94.8858 47.5497 93.7207 46.1159 92.8161 44.5199C92.0169 43.1828 91.8532 41.4897 91.4199 40.0083C90.6893 37.6247 90.1706 35.1815 89.8696 32.7069C89.7251 31.466 89.6385 30.2154 89.6096 28.9648C89.5329 27.9648 89.8277 26.9717 90.4377 26.1751C92.6428 22.7216 96.5619 21.6635 100.568 21.1344C102.74 20.9177 104.931 21.2485 106.942 22.0963C108.348 22.6543 109.561 23.0006 110.197 24.3858C113.336 31.1389 112.662 38.7192 109.773 45.5011Z" fill="#F39A83"/>
<path d="M96.2347 41.9037C97.8717 41.8171 99.3642 40.9417 101.049 40.9417C103.745 40.8647 107.058 43.1927 109.571 41.3554C111.227 40.1433 111.497 37.6999 111.622 35.8144C111.685 33.8306 111.55 31.8455 111.218 29.8887C111.224 29.87 111.224 29.8496 111.218 29.8309C111.372 29.4269 111.507 29.0133 111.661 28.5996C112.701 33.0728 112.171 37.8345 111.776 42.3558C111.678 44.3243 111.152 46.2478 110.236 47.993C108.656 50.7346 105.604 51.9563 102.532 52.0717C99.4605 52.1872 95.551 51.4753 93.6348 48.9357C92.9462 47.9687 92.4044 46.9055 92.0267 45.7804C91.363 43.9699 90.898 42.0926 90.6401 40.1817C90.5149 38.9793 90.5149 37.7672 90.3127 36.5551C90.2757 35.701 90.1889 34.8499 90.0527 34.0059C90.255 34.5631 90.5198 35.0956 90.8423 35.5931C91.0771 36.1285 91.2453 36.6907 91.3431 37.267C91.9015 39.5468 93.6155 42.048 96.2347 41.9037Z" fill="#EFEEEE"/>
<path d="M90.0142 25.1269C90.108 24.9138 90.2174 24.7081 90.3416 24.5112C91.9497 21.7984 95.6762 19.8745 98.5361 18.9029C99.6113 18.4897 100.754 18.2809 101.906 18.2873C103.46 18.5352 104.977 18.9747 106.422 19.5955C108.761 20.3084 111.257 20.3251 113.606 19.6436C113.606 21.0385 113.606 22.6354 112.479 23.4915C111.564 24.0711 110.467 24.2937 109.398 24.1168C106.591 23.7968 103.769 23.6202 100.943 23.5877C95.6473 23.8378 92.2771 26.9065 91.5549 32.2455C91.4682 32.9285 91.5549 36.4397 91.0831 36.7763C90.6112 37.113 90.2838 36.4493 90.1972 35.9779C89.6002 32.8707 88.6372 28.2437 90.0142 25.1269Z" fill="#EFEEEE"/>
<path d="M97.2549 35.3044C97.2549 35.5136 97.3381 35.7143 97.4862 35.8622C97.6342 36.0101 97.8351 36.0933 98.0445 36.0933C98.2539 36.0933 98.4547 36.0101 98.6028 35.8622C98.7509 35.7143 98.8341 35.5136 98.8341 35.3044C98.8341 35.0952 98.7509 34.8946 98.6028 34.7467C98.4547 34.5987 98.2539 34.5156 98.0445 34.5156C97.8351 34.5156 97.6342 34.5987 97.4862 34.7467C97.3381 34.8946 97.2549 35.0952 97.2549 35.3044Z" fill="#201544"/>
<path d="M105.748 35.4391C105.736 35.5494 105.747 35.661 105.781 35.7666C105.815 35.8723 105.87 35.9696 105.944 36.0522C106.019 36.1349 106.109 36.201 106.211 36.2463C106.312 36.2915 106.422 36.3149 106.533 36.3149C106.644 36.3149 106.754 36.2915 106.855 36.2463C106.956 36.201 107.047 36.1349 107.121 36.0522C107.195 35.9696 107.251 35.8723 107.285 35.7666C107.319 35.661 107.33 35.5494 107.318 35.4391C107.32 35.2316 107.241 35.0313 107.097 34.8819C106.952 34.7324 106.755 34.6457 106.547 34.6407C106.441 34.6366 106.335 34.6545 106.237 34.6932C106.138 34.7319 106.048 34.7906 105.973 34.8655C105.898 34.9405 105.839 35.0302 105.801 35.1289C105.762 35.2276 105.744 35.3332 105.748 35.4391Z" fill="#201544"/>
<path d="M108.993 33.1206C107.956 32.2963 106.659 31.8668 105.334 31.9085" stroke="white" stroke-width="1.27" stroke-linecap="round" stroke-linejoin="round"/>
<path d="M95.4453 32.8993C96.518 32.0972 97.8454 31.711 99.1814 31.8122" stroke="white" stroke-width="1.27" stroke-linecap="round" stroke-linejoin="round"/>
<path d="M102.07 35.5928C102.309 36.4946 102.612 37.3786 102.975 38.2382C103.043 38.4691 103.11 38.6999 103.168 38.9404C103.255 39.2192 103.255 39.5178 103.168 39.7966C103.037 40.0261 102.857 40.2238 102.641 40.3752C102.424 40.5266 102.177 40.628 101.916 40.672C102.086 40.5108 102.244 40.3372 102.388 40.1525C102.524 40.003 102.626 39.8258 102.686 39.6331C102.684 39.4507 102.645 39.2707 102.571 39.104C102.503 38.8827 102.436 38.6711 102.349 38.4498C102.195 37.9941 102.072 37.528 101.983 37.055C101.891 36.5679 101.921 36.0656 102.07 35.5928Z" fill="#DE7778"/>
<path d="M128.068 121.208C128.068 121.208 124.823 122.902 127.105 129.318C127.105 129.318 128.001 129.376 128.165 126.73C128.295 125.217 128.328 123.697 128.261 122.18C128.243 121.849 128.178 121.522 128.068 121.208Z" fill="#F39A83"/>
<path d="M128.742 96.1009C127.346 95.4179 123.87 91.0217 122.281 92.6763L120.182 94.8696C122.618 105.192 125.256 114.58 127.278 121.545C129.416 128.933 131.39 123.642 131.39 123.642C130.957 115.081 131.226 108.356 128.742 96.1009Z" fill="#F39A83"/>
<path d="M131.266 121.209C132.166 123.287 132.694 125.508 132.826 127.769C132.826 130.915 131.574 131.906 130.765 132.29C130.216 132.55 128.473 133.3 128.569 132.117C128.666 130.934 127.481 125.691 127.337 124.354C127.272 123.135 127.611 121.928 128.3 120.92C129.293 120.955 130.284 121.052 131.266 121.209Z" fill="#F39A83"/>
<path d="M68.0112 94.9753C67.5008 92.5607 70.0237 86.0193 70.4666 84.2397C71.3521 80.5092 72.468 76.837 73.808 73.2443C75.3089 69.346 77.179 65.5998 79.3929 62.0566C80.4329 60.3828 82.118 57.7181 84.3712 57.7181C88.7525 57.6123 86.0371 67.5495 86.0371 67.5495C85.9793 67.7611 85.9311 67.9631 85.8734 68.1651C84.7371 72.2439 83.4275 76.313 81.9158 80.3148C80.7121 83.5278 79.5855 86.7793 78.4589 90.0211C77.7752 91.9451 76.9952 95.9853 75.1946 97.3032C73.028 98.8905 68.0593 95.235 68.0112 94.9753Z" fill="#F39A83"/>
<path d="M82.5518 84.6534C83.0429 83.3066 83.5147 82.0849 83.8421 81.1229C85.9991 75.6589 88.1079 70.2238 88.3101 64.2692C88.3775 62.2202 88.4352 59.1707 86.6153 57.8432C82.3785 54.7553 77.9972 61.4699 76.6876 64.7406C75.0218 68.8386 73.2885 72.8981 71.5841 76.9768C69.4464 82.0753 68.4161 87.6643 67.0391 93.0225C66.915 93.4039 66.866 93.8057 66.8947 94.2057C67.0295 95.2351 68.0695 95.8603 69.0324 96.2451C70.2476 96.7732 71.5589 97.045 72.8841 97.0436C77.6891 96.9089 80.6356 89.8961 82.5518 84.6534Z" fill="#C9A97E"/>
<path d="M99.1133 42.9907C99.598 43.5567 100.248 43.957 100.972 44.1355C101.665 44.3375 102.435 44.3663 103.244 44.5876C102.469 44.9077 101.612 44.9718 100.798 44.7704C100.374 44.6539 99.9838 44.436 99.6621 44.1355C99.34 43.8376 99.1436 43.4282 99.1133 42.9907Z" fill="#DE7778"/>
<path d="M82.29 118.977C82.29 118.977 85.9491 118.775 87.3068 125.422C87.3068 125.422 86.5654 125.932 85.0632 123.748C84.1836 122.513 83.3766 121.229 82.6463 119.9C82.486 119.61 82.3661 119.299 82.29 118.977Z" fill="#F39A83"/>
<path d="M68.0693 94.5809C68.9167 93.2822 70.4285 90.9061 72.6336 91.5122C74.2388 92.1184 75.7521 92.9439 77.1304 93.9652C80.077 102.738 81.3095 111.839 83.1583 118.851C85.0841 126.297 80.7029 122.767 80.7029 122.767C76.649 115.206 67.2124 95.8795 68.0693 94.5809Z" fill="#F39A83"/>
<path d="M68.0693 94.5809C68.9167 93.2822 70.4285 90.9061 72.6336 91.5122C74.2388 92.1184 75.7521 92.9439 77.1304 93.9652C80.077 102.738 81.3095 111.839 83.1583 118.851C85.0841 126.297 80.7029 122.767 80.7029 122.767C76.649 115.206 67.2124 95.8795 68.0693 94.5809Z" fill="#F39A83"/>
<path d="M79.5469 120.603C79.8432 122.847 80.5308 125.022 81.5786 127.028C83.1675 129.751 84.7755 129.914 85.6711 129.857C86.2777 129.799 88.1554 129.549 87.4621 128.587C86.7688 127.625 85.1029 122.517 84.5733 121.286C83.9972 120.21 83.0886 119.35 81.9831 118.833C81.1344 119.371 80.3207 119.962 79.5469 120.603Z" fill="#F39A83"/>
<path d="M81.5593 117.361C81.9156 117.072 83.2636 116.466 83.5814 116.168C82.0407 109.54 79.7297 101.796 77.1298 94.0423C75.7515 93.0211 74.2382 92.1955 72.633 91.5893C70.4279 90.9832 66.9132 92.734 66.8555 94.2828C66.8555 98.4674 73.0567 111.223 77.5632 120.025C78.555 119.371 80.7023 118.015 81.5593 117.361Z" fill="#C9A97E"/>
<path d="M132.016 118.919C131.94 110.924 131.121 102.954 129.57 95.11C128.174 94.4366 123.87 91.0216 122.281 92.6762C120.952 94.0614 119.142 98.1979 119.142 98.1883C121.414 107.808 123.831 114.109 125.786 120.9C127.951 120.56 130.052 119.891 132.016 118.919Z" fill="#C9A97E"/>
<path d="M94.0092 55.7173C93.1522 58.2377 92.3337 60.758 91.4479 63.2591C90.562 65.7603 89.7146 68.2806 88.8095 70.7721V70.5701L91.8715 76.8807L94.8758 83.2201L94.9336 83.3355V83.4509L92.7767 88.2608L90.5812 93.0706V92.8975C91.9775 95.0715 93.3255 97.2841 94.6929 99.4678C93.2292 97.3418 91.7367 95.2351 90.2923 93.0899V93.0129V92.9263L92.353 88.1165L94.4522 83.3066V83.5375L91.4093 77.2173L88.3184 70.801V70.6952V70.5894C89.2235 68.0979 90.1864 65.6256 91.1301 63.1437C92.0737 60.6618 93.0463 58.1992 94.0092 55.7173Z" fill="#704217"/>
<path d="M108.03 56.189C109.051 58.3534 110.101 60.5082 111.092 62.6823C112.084 64.8563 113.105 67.0304 114.068 69.2237L114.116 69.3199V69.4257L111.622 76.0633L109.041 82.7298V82.5181L111.141 87.328L113.201 92.1378V92.234V92.311C111.757 94.4466 110.264 96.5533 108.801 98.6889C110.168 96.4956 111.516 94.2927 112.903 92.1186V92.2821L110.707 87.53L108.55 82.7201V82.6143V82.5085L111.054 75.8709L113.625 69.2622V69.4642C112.662 67.242 111.699 65.0295 110.736 62.8266C109.773 60.6237 108.945 58.4015 108.03 56.189Z" fill="#704217"/>
<path d="M83.6484 105.076C83.7158 105.884 83.7543 106.702 83.7736 107.51L83.6002 107.318C86.2868 107.423 88.9541 107.674 91.6117 108.039L91.371 108.26C91.371 107.298 91.4866 106.336 91.5925 105.432C91.6888 106.394 91.7562 107.356 91.8043 108.26V108.482H91.5732C88.8899 108.353 86.2194 108.097 83.5617 107.712H83.3691V107.539C83.4526 106.705 83.5457 105.884 83.6484 105.076Z" fill="#704217"/>
<path d="M116.329 107.741C114.53 108.213 112.681 108.469 110.821 108.501H110.542V108.251C110.542 107.289 110.667 106.327 110.792 105.422C110.908 106.384 110.995 107.346 111.033 108.251L110.763 108C112.602 107.697 114.47 107.609 116.329 107.741Z" fill="#704217"/>
<path d="M95.4444 52.0618C95.4444 52.0618 98.6317 54.7746 101.145 54.6399L98.2562 59.9885C98.2562 59.9885 92.4883 57.7182 93.403 54.6399C94.3178 51.5616 95.4444 52.0618 95.4444 52.0618Z" fill="white"/>
<path d="M106.644 52.0618C106.644 52.0618 103.456 54.7746 100.934 54.6399L103.822 59.9885C103.822 59.9885 109.6 57.7182 108.714 54.6399C107.828 51.5616 106.644 52.0618 106.644 52.0618Z" fill="white"/>
<path d="M101.915 59.6423C101.917 59.7896 101.875 59.9341 101.795 60.0574C101.714 60.1807 101.598 60.2771 101.462 60.3343C101.326 60.3916 101.176 60.4071 101.032 60.3788C100.887 60.3505 100.754 60.2798 100.65 60.1756C100.546 60.0714 100.475 59.9386 100.446 59.794C100.418 59.6494 100.434 59.4997 100.491 59.364C100.548 59.2282 100.645 59.1127 100.768 59.032C100.892 58.9514 101.036 58.9093 101.184 58.9112C101.378 58.9112 101.564 58.9882 101.701 59.1253C101.838 59.2624 101.915 59.4484 101.915 59.6423Z" fill="#878787"/>
<path d="M101.897 62.8843C101.894 63.0791 101.815 63.265 101.676 63.4018C101.537 63.5387 101.35 63.6154 101.155 63.6154C100.974 63.5947 100.807 63.5082 100.686 63.3725C100.565 63.2368 100.498 63.0613 100.498 62.8795C100.498 62.6976 100.565 62.5221 100.686 62.3864C100.807 62.2507 100.974 62.1642 101.155 62.1436C101.352 62.1436 101.54 62.2216 101.679 62.3605C101.818 62.4994 101.897 62.6878 101.897 62.8843Z" fill="#878787"/>
<path d="M101.915 66.232C101.915 66.3789 101.872 66.5225 101.79 66.6445C101.708 66.7665 101.592 66.8614 101.456 66.9172C101.319 66.973 101.17 66.987 101.026 66.9577C100.882 66.9283 100.75 66.8568 100.646 66.7522C100.543 66.6477 100.473 66.5148 100.446 66.3705C100.418 66.2262 100.434 66.077 100.492 65.9418C100.549 65.8066 100.646 65.6916 100.769 65.6114C100.892 65.5312 101.037 65.4894 101.184 65.4913C101.379 65.4938 101.565 65.573 101.702 65.7116C101.839 65.8502 101.916 66.0372 101.915 66.232Z" fill="#878787"/>
<path d="M108.907 24.0491C108.82 23.4623 108.82 22.712 109.35 22.4523C109.88 22.1925 110.505 22.6735 110.862 23.1641C112.73 25.723 112.788 29.1476 112.691 32.3221C112.691 33.2841 111.979 33.3706 111.382 32.7838C111.043 32.0392 110.791 31.2581 110.631 30.4559C109.837 28.3853 109.259 26.2384 108.907 24.0491Z" fill="#EFEEEE"/>
<path d="M149.493 224.438H149.301C147.854 224.438 146.682 225.609 146.682 227.054V232.383C146.682 233.828 147.854 235 149.301 235H149.493C150.94 235 152.113 233.828 152.113 232.383V227.054C152.113 225.609 150.94 224.438 149.493 224.438Z" fill="#2A2A29"/>
<path d="M177.688 224.438H177.495C176.049 224.438 174.876 225.609 174.876 227.054V232.383C174.876 233.828 176.049 235 177.495 235H177.688C179.134 235 180.307 233.828 180.307 232.383V227.054C180.307 225.609 179.134 224.438 177.688 224.438Z" fill="#2A2A29"/>
<path d="M235.733 224.438H235.54C234.094 224.438 232.921 225.609 232.921 227.054V232.383C232.921 233.828 234.094 235 235.54 235H235.733C237.179 235 238.352 233.828 238.352 232.383V227.054C238.352 225.609 237.179 224.438 235.733 224.438Z" fill="#2A2A29"/>
<path d="M263.917 224.438H263.725C262.278 224.438 261.105 225.609 261.105 227.054V232.383C261.105 233.828 262.278 235 263.725 235H263.917C265.364 235 266.536 233.828 266.536 232.383V227.054C266.536 225.609 265.364 224.438 263.917 224.438Z" fill="#2A2A29"/>
<path d="M236.205 162.342V170.269C236.205 175.598 232.959 179.956 228.992 179.956H196.715C192.748 179.956 189.503 175.598 189.503 170.269V162.362H183.639V172.058C183.639 178.715 187.818 184.15 192.912 184.15H232.786C237.89 184.15 242.059 178.715 242.059 172.058V162.342H236.205Z" fill="#3D3E3D"/>
<path d="M154.01 162.496H260.076C262.995 162.496 265.362 160.132 265.362 157.215V99.1502C265.362 96.2335 262.995 93.869 260.076 93.869L154.01 93.869C151.09 93.869 148.724 96.2335 148.724 99.1502V157.215C148.724 160.132 151.09 162.496 154.01 162.496Z" fill="#676767"/>
<path d="M159.827 162.496H265.892C268.812 162.496 271.179 160.132 271.179 157.215V99.1502C271.179 96.2335 268.812 93.869 265.892 93.869L159.827 93.869C156.907 93.869 154.54 96.2335 154.54 99.1502V157.215C154.54 160.132 156.907 162.496 159.827 162.496Z" fill="#3D3E3D"/>
<path d="M191.467 155.195H234.249C238.568 155.195 242.068 151.698 242.068 147.384V125.999C242.068 121.685 238.568 118.188 234.249 118.188H191.467C187.149 118.188 183.648 121.685 183.648 125.999V147.384C183.648 151.698 187.149 155.195 191.467 155.195Z" fill="#575858"/>
<path d="M194.028 155.195H236.811C241.129 155.195 244.63 151.698 244.63 147.384V125.999C244.63 121.685 241.129 118.188 236.811 118.188H194.028C189.71 118.188 186.209 121.685 186.209 125.999V147.384C186.209 151.698 189.71 155.195 194.028 155.195Z" fill="#4B4C4B"/>
<path d="M235.357 146.451H221.25C220.49 146.451 219.873 147.067 219.873 147.826V150.308C219.873 151.068 220.49 151.684 221.25 151.684H235.357C236.117 151.684 236.734 151.068 236.734 150.308V147.826C236.734 147.067 236.117 146.451 235.357 146.451Z" fill="#343534"/>
<path d="M203.446 148.99H196.388C196.01 148.99 195.704 149.296 195.704 149.673V150.924C195.704 151.301 196.01 151.607 196.388 151.607H203.446C203.824 151.607 204.13 151.301 204.13 150.924V149.673C204.13 149.296 203.824 148.99 203.446 148.99Z" fill="#343534"/>
<path d="M156.648 184.987H257.437C258.139 184.987 258.813 184.708 259.309 184.212C259.806 183.716 260.085 183.043 260.085 182.342C260.085 181.639 259.806 180.965 259.31 180.468C258.814 179.97 258.14 179.689 257.437 179.687H156.648C155.943 179.687 155.267 179.966 154.769 180.464C154.27 180.962 153.99 181.637 153.99 182.342C153.99 182.69 154.059 183.035 154.193 183.356C154.326 183.678 154.522 183.97 154.769 184.216C155.016 184.461 155.309 184.656 155.632 184.788C155.954 184.921 156.299 184.988 156.648 184.987Z" fill="#3D3E3D"/>
<path d="M156.648 184.987H175.752C176.455 184.987 177.13 184.709 177.628 184.213C178.126 183.717 178.407 183.044 178.41 182.342C178.407 181.638 178.127 180.964 177.629 180.467C177.131 179.97 176.456 179.689 175.752 179.687H156.648C155.943 179.687 155.267 179.966 154.769 180.464C154.27 180.962 153.99 181.637 153.99 182.342C153.99 182.69 154.059 183.035 154.193 183.356C154.326 183.678 154.522 183.97 154.769 184.216C155.016 184.461 155.309 184.656 155.632 184.788C155.954 184.921 156.299 184.988 156.648 184.987Z" fill="#676767"/>
<path d="M199.421 124.094H191.563C191.43 124.094 191.303 124.041 191.209 123.948C191.115 123.854 191.062 123.727 191.062 123.594C191.063 123.461 191.115 123.334 191.209 123.24C191.303 123.146 191.43 123.094 191.563 123.094H199.421C199.553 123.094 199.681 123.146 199.775 123.24C199.869 123.334 199.921 123.461 199.921 123.594C199.919 123.726 199.865 123.852 199.772 123.945C199.679 124.038 199.553 124.092 199.421 124.094Z" fill="#1F201F"/>
<path d="M199.421 126.085H191.563C191.43 126.085 191.303 126.033 191.209 125.939C191.115 125.845 191.062 125.718 191.062 125.585C191.063 125.453 191.115 125.325 191.209 125.231C191.303 125.138 191.43 125.085 191.563 125.085H199.421C199.553 125.087 199.679 125.141 199.772 125.234C199.865 125.327 199.919 125.453 199.921 125.585C199.921 125.718 199.869 125.845 199.775 125.939C199.681 126.033 199.553 126.085 199.421 126.085Z" fill="#1F201F"/>
<path d="M199.421 128.086H191.563C191.497 128.086 191.432 128.073 191.372 128.048C191.311 128.023 191.256 127.986 191.209 127.94C191.163 127.893 191.126 127.838 191.101 127.778C191.075 127.717 191.062 127.652 191.062 127.586C191.063 127.453 191.115 127.326 191.209 127.232C191.303 127.139 191.43 127.086 191.563 127.086H199.421C199.553 127.088 199.679 127.142 199.772 127.235C199.865 127.328 199.919 127.454 199.921 127.586C199.921 127.652 199.908 127.717 199.883 127.778C199.858 127.838 199.821 127.893 199.775 127.94C199.728 127.986 199.673 128.023 199.612 128.048C199.551 128.073 199.486 128.086 199.421 128.086Z" fill="#1F201F"/>
<path d="M199.421 130.087H191.563C191.43 130.087 191.303 130.035 191.209 129.941C191.115 129.847 191.062 129.72 191.062 129.587C191.063 129.454 191.115 129.327 191.209 129.233C191.303 129.14 191.43 129.087 191.563 129.087H199.421C199.553 129.087 199.681 129.14 199.775 129.233C199.869 129.327 199.921 129.454 199.921 129.587C199.919 129.719 199.865 129.845 199.772 129.938C199.679 130.031 199.553 130.085 199.421 130.087Z" fill="#1F201F"/>
<path d="M199.421 132.079H191.563C191.498 132.08 191.433 132.068 191.372 132.044C191.312 132.02 191.256 131.984 191.21 131.938C191.163 131.893 191.126 131.838 191.101 131.778C191.076 131.718 191.062 131.653 191.063 131.588C191.063 131.455 191.115 131.328 191.209 131.234C191.303 131.141 191.43 131.088 191.563 131.088H199.421C199.553 131.088 199.681 131.141 199.775 131.234C199.869 131.328 199.921 131.455 199.921 131.588C199.919 131.719 199.865 131.844 199.771 131.936C199.678 132.027 199.552 132.079 199.421 132.079Z" fill="#1F201F"/>
<path d="M199.421 134.08H191.563C191.43 134.08 191.303 134.027 191.209 133.933C191.115 133.839 191.062 133.712 191.062 133.579C191.063 133.447 191.115 133.319 191.209 133.226C191.303 133.132 191.43 133.079 191.563 133.079H199.421C199.553 133.082 199.679 133.135 199.772 133.228C199.865 133.322 199.919 133.447 199.921 133.579C199.921 133.712 199.869 133.839 199.775 133.933C199.681 134.027 199.553 134.08 199.421 134.08Z" fill="#1F201F"/>
<path d="M199.421 136.081H191.563C191.497 136.081 191.432 136.068 191.372 136.042C191.311 136.017 191.256 135.98 191.209 135.934C191.163 135.888 191.126 135.832 191.101 135.772C191.075 135.711 191.062 135.646 191.062 135.58C191.063 135.448 191.115 135.32 191.209 135.227C191.303 135.133 191.43 135.08 191.563 135.08H199.421C199.553 135.08 199.681 135.133 199.775 135.227C199.869 135.32 199.921 135.448 199.921 135.58C199.919 135.712 199.865 135.838 199.772 135.931C199.679 136.025 199.553 136.078 199.421 136.081Z" fill="#1F201F"/>
<path d="M210.967 124.094H203.109C202.977 124.092 202.851 124.038 202.758 123.945C202.664 123.852 202.611 123.726 202.608 123.594C202.608 123.461 202.661 123.334 202.755 123.24C202.849 123.146 202.976 123.094 203.109 123.094H210.967C211.099 123.094 211.227 123.146 211.321 123.24C211.415 123.334 211.467 123.461 211.467 123.594C211.467 123.727 211.415 123.854 211.321 123.948C211.227 124.041 211.099 124.094 210.967 124.094Z" fill="#1F201F"/>
<path d="M210.967 126.085H203.109C202.976 126.085 202.849 126.033 202.755 125.939C202.661 125.845 202.608 125.718 202.608 125.585C202.611 125.453 202.664 125.327 202.758 125.234C202.851 125.141 202.977 125.087 203.109 125.085H210.967C211.099 125.085 211.227 125.138 211.321 125.231C211.415 125.325 211.467 125.453 211.467 125.585C211.467 125.718 211.415 125.845 211.321 125.939C211.227 126.033 211.099 126.085 210.967 126.085Z" fill="#1F201F"/>
<path d="M210.967 128.086H203.109C203.043 128.086 202.978 128.073 202.917 128.048C202.857 128.023 202.802 127.986 202.755 127.94C202.709 127.893 202.672 127.838 202.647 127.778C202.621 127.717 202.608 127.652 202.608 127.586C202.611 127.454 202.664 127.328 202.758 127.235C202.851 127.142 202.977 127.088 203.109 127.086H210.967C211.099 127.086 211.227 127.139 211.321 127.232C211.415 127.326 211.467 127.453 211.467 127.586C211.467 127.652 211.454 127.717 211.429 127.778C211.404 127.838 211.367 127.893 211.321 127.94C211.274 127.986 211.219 128.023 211.158 128.048C211.097 128.073 211.032 128.086 210.967 128.086Z" fill="#1F201F"/>
<path d="M210.967 130.087H203.109C202.977 130.085 202.851 130.031 202.758 129.938C202.664 129.845 202.611 129.719 202.608 129.587C202.608 129.454 202.661 129.327 202.755 129.233C202.849 129.14 202.976 129.087 203.109 129.087H210.967C211.099 129.087 211.227 129.14 211.321 129.233C211.415 129.327 211.467 129.454 211.467 129.587C211.467 129.72 211.415 129.847 211.321 129.941C211.227 130.035 211.099 130.087 210.967 130.087Z" fill="#1F201F"/>
<path d="M210.967 132.079H203.109C202.978 132.079 202.852 132.027 202.758 131.936C202.665 131.844 202.611 131.719 202.608 131.588C202.608 131.455 202.661 131.328 202.755 131.234C202.849 131.141 202.976 131.088 203.109 131.088H210.967C211.099 131.088 211.227 131.141 211.321 131.234C211.415 131.328 211.467 131.455 211.467 131.588C211.467 131.653 211.454 131.718 211.429 131.778C211.404 131.838 211.367 131.893 211.32 131.938C211.273 131.984 211.218 132.02 211.157 132.044C211.097 132.068 211.032 132.08 210.967 132.079Z" fill="#1F201F"/>
<path d="M210.967 134.08H203.109C202.976 134.08 202.849 134.027 202.755 133.933C202.661 133.839 202.608 133.712 202.608 133.579C202.611 133.447 202.664 133.322 202.758 133.228C202.851 133.135 202.977 133.082 203.109 133.079H210.967C211.099 133.079 211.227 133.132 211.321 133.226C211.415 133.319 211.467 133.447 211.467 133.579C211.467 133.712 211.415 133.839 211.321 133.933C211.227 134.027 211.099 134.08 210.967 134.08Z" fill="#1F201F"/>
<path d="M210.967 136.081H203.109C202.977 136.078 202.851 136.025 202.758 135.931C202.664 135.838 202.611 135.712 202.608 135.58C202.608 135.448 202.661 135.32 202.755 135.227C202.849 135.133 202.976 135.08 203.109 135.08H210.967C211.099 135.08 211.227 135.133 211.321 135.227C211.415 135.32 211.467 135.448 211.467 135.58C211.467 135.646 211.454 135.711 211.429 135.772C211.404 135.832 211.367 135.888 211.321 135.934C211.274 135.98 211.219 136.017 211.158 136.042C211.097 136.068 211.032 136.081 210.967 136.081Z" fill="#1F201F"/>
<path d="M223.272 150.347C224.022 150.347 224.63 149.739 224.63 148.99C224.63 148.241 224.022 147.634 223.272 147.634C222.522 147.634 221.914 148.241 221.914 148.99C221.914 149.739 222.522 150.347 223.272 150.347Z" fill="#E7392E"/>
<path d="M223.966 148.99C223.966 149.127 223.925 149.261 223.849 149.375C223.773 149.489 223.664 149.577 223.538 149.63C223.411 149.682 223.272 149.696 223.137 149.669C223.003 149.643 222.879 149.577 222.782 149.48C222.685 149.383 222.619 149.259 222.592 149.125C222.566 148.991 222.579 148.851 222.632 148.725C222.684 148.598 222.773 148.49 222.887 148.414C223.001 148.338 223.135 148.297 223.272 148.297C223.456 148.3 223.63 148.374 223.76 148.503C223.889 148.632 223.963 148.807 223.966 148.99Z" fill="#161715"/>
<path d="M228.135 150.347C228.885 150.347 229.493 149.739 229.493 148.99C229.493 148.241 228.885 147.634 228.135 147.634C227.385 147.634 226.777 148.241 226.777 148.99C226.777 149.739 227.385 150.347 228.135 150.347Z" fill="#F7A635"/>
<path d="M228.136 149.683C228.519 149.683 228.829 149.373 228.829 148.99C228.829 148.607 228.519 148.297 228.136 148.297C227.753 148.297 227.442 148.607 227.442 148.99C227.442 149.373 227.753 149.683 228.136 149.683Z" fill="#161715"/>
<path d="M232.92 150.347C233.67 150.347 234.278 149.739 234.278 148.99C234.278 148.241 233.67 147.634 232.92 147.634C232.17 147.634 231.562 148.241 231.562 148.99C231.562 149.739 232.17 150.347 232.92 150.347Z" fill="#79A54D"/>
<path d="M233.614 148.99C233.614 149.127 233.573 149.261 233.497 149.375C233.421 149.489 233.313 149.577 233.186 149.63C233.059 149.682 232.92 149.696 232.786 149.669C232.651 149.643 232.528 149.577 232.431 149.48C232.334 149.383 232.268 149.259 232.241 149.125C232.214 148.991 232.228 148.851 232.28 148.725C232.333 148.598 232.422 148.49 232.536 148.414C232.65 148.338 232.784 148.297 232.921 148.297C233.104 148.3 233.279 148.374 233.408 148.503C233.538 148.632 233.612 148.807 233.614 148.99Z" fill="#161715"/>
<path d="M199.652 153.732V179.937H155.531" stroke="#4C4D4C" stroke-width="1.19" stroke-linecap="round" stroke-linejoin="round"/>
<path d="M196.994 149.923V151.078C196.997 151.781 197.277 152.455 197.775 152.952C198.273 153.45 198.948 153.73 199.652 153.733H200.191C200.893 153.728 201.565 153.446 202.061 152.949C202.557 152.452 202.837 151.779 202.839 151.078V149.923H196.994Z" fill="#6B6B6B"/>
<path d="M143.716 225.727L266.547 225.727C270.61 225.727 273.903 222.436 273.903 218.377V192.346C273.903 188.287 270.61 184.997 266.547 184.997H143.716C139.653 184.997 136.36 188.287 136.36 192.346V218.377C136.36 222.436 139.653 225.727 143.716 225.727Z" fill="#602513"/>
<path d="M143.725 225.727H160.663C164.726 225.727 168.02 222.436 168.02 218.377V192.346C168.02 188.287 164.726 184.997 160.663 184.997H143.725C139.662 184.997 136.368 188.287 136.368 192.346V218.377C136.368 222.436 139.662 225.727 143.725 225.727Z" fill="#8A5444"/>
</svg>
