<svg width="304" height="215" viewBox="0 0 304 215" fill="none" xmlns="http://www.w3.org/2000/svg">
<g clip-path="url(#clip0)">
<path d="M21.4893 148.886C21.6612 148.729 21.8567 148.564 22.0677 148.392C21.8879 148.564 21.6612 148.729 21.4893 148.886Z" fill="#F39A83"/>
<path d="M22.2944 148.211L22.7791 147.834L22.2944 148.211Z" fill="#F39A83"/>
<path d="M23.936 147.011L24.5536 146.58L23.936 147.011Z" fill="#F39A83"/>
<path d="M19.7466 152.814C19.8333 153.869 20.1368 154.894 20.6377 155.826C20.1368 154.894 19.8333 153.869 19.7466 152.814Z" fill="#F39A83"/>
<path d="M23.0601 147.631L23.6073 147.239L23.0601 147.631Z" fill="#F39A83"/>
<path d="M25.3115 141.748L25.6867 141.569L25.3115 141.748Z" fill="#50A2D3"/>
<path d="M24.6548 142.055L25.2176 141.796L24.6548 142.055Z" fill="#50A2D3"/>
<path d="M49.1219 130.034L48.5747 130.3L49.4737 131.406C49.288 130.969 49.1694 130.506 49.1219 130.034Z" fill="#50A2D3"/>
<path d="M24.2325 144.729C24.1431 144.317 24.0933 143.897 24.084 143.475C24.0933 143.897 24.1431 144.317 24.2325 144.729Z" fill="#50A2D3"/>
<path d="M57.2992 135.766C55.1886 135.492 53.1484 135.099 51.5537 133.962L57.4164 141.161C57.3226 139.475 57.2836 137.617 57.2992 135.766Z" fill="#50A2D3"/>
<path d="M76.9502 142.957C78.4639 141.531 80.0813 140.221 81.7889 139.036C80.2255 138.722 78.7012 138.346 77.1456 138.056L76.9502 142.957Z" fill="#50A2D3"/>
<path d="M85.0498 62.9624L86.2693 63.0873C85.8706 63.0404 85.4641 62.9936 85.0498 62.9624Z" fill="#F39A83"/>
<path d="M83.7432 62.876L84.7359 62.9384L83.7432 62.876Z" fill="#F39A83"/>
<path d="M73.3711 66.3032C74.0959 66.7021 74.8935 66.9501 75.7162 67.0325C77.1623 67.1736 79.9139 66.8286 80.9926 65.8562C81.7196 65.2131 82.0089 63.7075 82.1261 62.8057L83.4081 62.8527L81.704 62.7979V64.0447C81.704 64.0447 76.3259 66.3188 73.3711 66.3032Z" fill="#F39A83"/>
<path d="M87.0188 63.1972L86.4951 63.127L87.0188 63.205V63.1972Z" fill="#F39A83"/>
<path d="M71.1965 64.1229C71.1262 63.7152 71.0636 63.2368 71.0089 62.7192H70.79C70.8366 63.2086 70.9745 63.6847 71.1965 64.1229Z" fill="#F39A83"/>
<path d="M73.3705 66.3032C76.3253 66.3032 81.7034 64.0447 81.7034 64.0447V62.7979L81.6409 54.5796L81.7034 63.4723C81.7034 63.4723 81.7034 63.4723 81.7034 63.4252C80.5669 61.4399 78.9024 59.8109 76.896 58.7201C74.9901 57.807 72.8493 57.5084 70.7674 57.8653C70.7674 56.9165 70.7674 55.9833 70.8222 55.0658H70.7284C70.6848 57.6288 70.7892 60.1921 71.041 62.743C71.0958 63.2605 71.1583 63.7389 71.2287 64.1467C71.7041 65.0697 72.4521 65.8229 73.3705 66.3032Z" fill="#F39A83"/>
<path d="M71.393 55.301C71.1819 55.2383 70.9943 55.1442 70.791 55.0736C70.791 55.9911 70.7441 56.9243 70.7363 57.8731C72.8181 57.5163 74.959 57.8149 76.8648 58.7279C78.8713 59.8187 80.5358 61.4477 81.6723 63.433C81.6723 63.433 81.6723 63.433 81.6723 63.4801L81.6097 54.5874C78.4129 56.0983 74.7677 56.3529 71.393 55.301Z" fill="#D48873"/>
<path d="M103.364 135.484C103.396 135.187 103.396 134.887 103.364 134.59C103.349 134.839 103.309 135.086 103.247 135.327C103.31 135.374 103.333 135.429 103.364 135.484Z" fill="white"/>
<path d="M51.593 133.962C53.1564 135.099 55.2279 135.492 57.3385 135.766V135.194C55.6617 134.091 54.1753 132.722 52.9375 131.139C51.5816 129.343 50.5086 127.349 49.756 125.227C49.584 126.944 48.9743 128.465 49.1619 130.034C49.2094 130.506 49.328 130.969 49.5137 131.406L51.593 133.962Z" fill="white"/>
<path d="M81.7888 139.005L81.9451 138.903C81.8111 138.845 81.6891 138.763 81.5855 138.66C80.8038 137.876 82.1796 136.009 82.6565 135.021L83.8759 132.473C82.7511 134.282 81.1422 135.739 79.2326 136.676C78.5609 136.978 77.8718 137.24 77.1689 137.46V138.017C78.7011 138.315 80.241 138.691 81.7888 139.005Z" fill="white"/>
<path d="M95.6648 80.771C96.3371 86.2603 94.8831 92.6514 93.6089 97.0036C92.9603 99.1994 92.1557 101.346 91.2013 103.426C91.0841 103.677 90.9121 103.983 90.7323 104.304C92.1451 104.853 93.3156 105.891 94.0324 107.23C94.7492 108.569 94.965 110.121 94.6408 111.605C94.0936 114.601 90.4431 118.467 88.5045 117.824C88.098 120.082 87.6211 122.301 87.0974 124.45C86.7582 125.846 86.338 127.221 85.8389 128.567H102.645C102.645 128.246 102.598 127.924 102.598 127.603C102.598 125.964 102.755 124.411 102.598 122.733C102.403 120.31 102.215 117.894 101.997 115.479C101.277 107.689 100.329 99.9208 99.1512 92.173C98.6587 88.903 98.135 85.6408 97.5331 82.3864C96.9312 81.8296 96.2823 81.2886 95.6648 80.771Z" fill="white"/>
<path d="M60.4253 70.0356C60.1751 70.6865 59.9171 71.3295 59.6436 71.9804C63.4345 70.2188 67.6989 69.7612 71.7755 70.6787C73.6438 71.1492 75.3713 72.0667 77.2474 72.4901C79.2961 72.9468 81.4337 72.7858 83.3915 72.0275C84.8142 71.4785 86.1744 70.6002 87.6987 70.5767C88.4162 70.5783 89.1242 70.7418 89.7702 71.0551C89.6998 70.8747 89.6217 70.6865 89.5513 70.4983C88.6393 68.0882 87.7873 65.6573 86.9952 63.2054L86.4714 63.127H86.2447L85.0253 63.0015H84.7126L83.7198 62.9388H83.3759L82.0939 62.8917C81.9767 63.7935 81.6874 65.2991 80.9604 65.9422C79.8817 66.9146 77.1301 67.2596 75.684 67.1185C74.8613 67.0361 74.0637 66.7881 73.3389 66.3892C72.4054 65.9079 71.6455 65.1456 71.1658 64.2091C70.9459 63.747 70.8185 63.2461 70.7906 62.7349C67.9608 62.7819 65.475 62.6486 62.9267 62.9466C62.145 65.3253 61.3112 67.6883 60.4253 70.0356Z" fill="white"/>
<path d="M103.708 84.786C105.735 86.5635 107.854 88.2334 110.055 89.7891C113.432 91.9299 116.028 94.4942 119.694 92.2514L120.069 92.0083C120.846 91.46 121.566 90.8347 122.219 90.142C119.662 89.7185 117.646 91.4202 115.723 87.7894C114.746 85.9395 114.02 83.9668 113.565 81.9237C114.683 80.92 115.84 79.8535 117.02 78.787C115.035 77.3127 113.036 75.9325 111.025 74.6465C109.3 78.4912 106.81 81.9416 103.708 84.786Z" fill="#F39A83"/>
<path d="M122.836 89.397C122.656 89.6165 122.477 89.8283 122.289 90.04C122.477 89.8597 122.664 89.6479 122.836 89.397Z" fill="#F39A83"/>
<path d="M89.5747 70.4984C89.6451 70.6866 89.7233 70.8748 89.7936 71.0552C90.2541 71.2716 90.6914 71.5344 91.099 71.8394C93.921 73.941 95.2342 77.164 95.6641 80.7477C96.2817 81.3045 96.9149 81.8456 97.5637 82.3631C99.1271 83.6178 100.745 84.7941 102.402 85.9312C102.848 85.5704 103.286 85.147 103.708 84.8019C106.816 81.9415 109.306 78.4719 111.025 74.6075C111.118 74.3958 111.22 74.1919 111.306 73.988C105.052 70.122 98.9004 66.7422 97.3135 66.0678C94.0167 64.6258 90.5447 63.6265 86.9873 63.0957C86.9873 63.0957 86.9873 63.1584 86.9873 63.182C87.8003 65.6548 88.6627 68.0936 89.5747 70.4984Z" fill="white"/>
<path d="M138.721 51.6232C139.26 50.9958 140.738 49.6941 142.223 48.3296C142.817 46.3299 142.012 45.5928 142.012 45.5928C135.023 49.5137 136.946 55.0814 137.361 56.0616C137.369 56.0381 137.382 56.0167 137.4 55.9989C137.431 54.7756 137.845 52.6269 138.721 51.6232Z" fill="#F39A83"/>
<path d="M138.72 51.6231C137.845 52.6268 137.431 54.7598 137.399 55.9988C138.056 54.9559 138.634 53.9599 139.104 53.0189C143.598 43.891 144.364 55.5048 144.364 55.5048C143.583 57.128 142.856 58.7043 142.097 60.2648C143.27 59.7002 146.639 57.9122 148.546 55.0108C150.892 51.4427 149.891 48.5961 149.094 47.0826C148.546 46.0475 146.749 42.8716 146.037 44.3537C145.646 45.1379 143.927 46.7768 142.222 48.3295C140.706 49.694 139.26 50.9722 138.72 51.6231Z" fill="#F39A83"/>
<path d="M115.692 87.8288C117.615 91.4517 119.6 89.75 122.188 90.1813L122.25 90.1029C122.438 89.8912 122.617 89.6795 122.797 89.4599C130.54 80.689 137.024 70.8754 142.058 60.3039C142.84 58.7355 143.567 57.1671 144.325 55.5439C144.325 55.5439 143.544 43.9301 139.064 53.058C138.595 53.999 138.017 54.995 137.36 56.0379C137.343 56.0557 137.33 56.0772 137.321 56.1007C132.912 62.978 124.556 71.7138 116.997 78.842C115.817 79.9399 114.652 81.0064 113.534 81.9788C113.993 84.0156 114.719 85.9827 115.692 87.8288Z" fill="#F39A83"/>
<path d="M40.8283 72.9922C38.2097 74.5606 35.5753 76.372 33.0114 78.3011C34.1917 79.399 35.3565 80.4655 36.4665 81.4771C36.0106 83.5174 35.285 85.4874 34.309 87.3349C32.386 90.9579 30.8226 89.6875 28.2665 90.1423C27.7662 89.5699 27.2893 89.0053 26.8125 88.4485C27.6727 89.6509 28.7299 90.6983 29.9393 91.546L30.3145 91.7891C33.9807 94.0554 36.5681 91.4676 39.9528 89.3346C42.0386 87.8712 44.0476 86.3007 45.9719 84.6295L46.1908 84.2374C45.2609 80.135 43.4288 76.2929 40.8283 72.9922Z" fill="#F39A83"/>
<path d="M59.6673 71.9802C59.9174 71.3293 60.1754 70.6863 60.449 70.0354C61.3401 67.6881 62.1713 65.3199 62.9426 62.9307L63.0364 62.6562C59.4703 63.1775 55.9896 64.1744 52.6867 65.6205C51.2406 66.2321 46.0501 69.063 40.4375 72.4664C40.5782 72.6389 40.6955 72.8193 40.8283 72.9918C43.4218 76.2841 45.2511 80.1149 46.183 84.2056C49.2488 78.7807 53.9779 74.4931 59.6673 71.9802Z" fill="white"/>
<path d="M11.2798 51.1603C12.1553 52.164 12.5696 54.297 12.6009 55.536C12.6167 55.5551 12.6299 55.5762 12.64 55.5988C13.0543 54.6264 14.9851 49.0979 7.94981 45.1299C7.94981 45.1299 7.16812 45.867 7.73876 47.8667C9.26307 49.2312 10.7327 50.5329 11.2798 51.1603Z" fill="#F39A83"/>
<path d="M10.8972 52.5403C11.4132 53.5626 11.982 54.5573 12.6013 55.5202C12.6013 54.2968 12.1558 52.1482 11.2803 51.1444C10.7331 50.5171 9.26348 49.2153 7.77825 47.8508C6.07415 46.3138 4.35441 44.6984 3.96357 43.9142C3.23659 42.4321 1.45432 45.6081 0.907127 46.6432C0.12543 48.1645 -0.88296 51.0033 1.45432 54.5713C3.36948 57.4963 6.76204 59.2764 7.91896 59.8332C7.13726 58.2648 6.35556 56.6964 5.6364 55.0653C5.6364 55.0418 6.39465 43.428 10.8972 52.5403Z" fill="#F39A83"/>
<path d="M34.2781 87.3347C35.2549 85.4848 35.9805 83.5121 36.4356 81.469C35.3178 80.4653 34.1609 79.3988 32.9805 78.3323C25.4059 71.2746 17.0495 62.5074 12.6564 55.6301C12.6462 55.6075 12.6331 55.5864 12.6173 55.5674C11.9912 54.5896 11.4172 53.5792 10.8975 52.5404C6.39497 43.4125 5.63672 55.0263 5.63672 55.0263C6.41842 56.6417 7.1454 58.2258 7.91928 59.7942C12.928 70.1286 19.2699 79.7573 26.7816 88.4326C27.2585 88.9894 27.7353 89.554 28.2356 90.1264C30.7918 89.7108 32.3552 90.9655 34.2781 87.3347Z" fill="#F39A83"/>
<path d="M71.3932 55.3008C74.7761 56.3564 78.4308 56.0989 81.6335 54.5794C82.3722 54.2285 83.0762 53.8084 83.7362 53.3247C85.9799 51.5693 87.9141 49.4487 89.4583 47.0512C90.7793 45.1221 91.2093 42.6049 91.9831 40.3856C91.8067 40.2108 91.6869 39.9867 91.6392 39.7426C91.2952 38.2213 91.6392 36.6058 92.6632 33.9945C92.8704 33.4601 93.0326 32.9093 93.1479 32.3477C92.9284 31.9717 92.785 31.556 92.7258 31.1244C92.3036 28.8267 91.8112 26.4742 91.6001 24.1451C91.2952 20.828 90.3181 19.0793 86.4487 18.8833C84.2912 18.7656 82.165 19.3695 80.0622 19.8713C77.9595 20.3732 75.7473 20.781 73.6445 20.2791C71.2994 19.7145 69.095 18.0363 66.6952 18.4049C62.2552 19.095 62.5288 23.2904 62.1379 26.7957L61.8096 29.7991C61.7471 30.4029 61.7392 31.046 61.6923 31.6263L61.622 31.5165C61.622 31.7517 61.622 32.0027 61.6923 32.3007C62.0676 35.0688 62.0128 36.7313 61.3093 38.1272C61.217 38.3167 61.0802 38.4808 60.9106 38.6055C61.3966 41.4818 62.1396 44.3085 63.1307 47.0512V47.1453C63.7152 48.9516 64.6944 50.6043 65.9967 51.9827C67.299 53.361 68.8917 54.4303 70.6584 55.1126H70.7522C70.9945 55.144 71.1822 55.2381 71.3932 55.3008ZM82.7278 35.5237C82.4272 35.5074 82.1449 35.3734 81.9417 35.1505C81.7385 34.9276 81.6306 34.6336 81.6413 34.3317C81.6482 34.1795 81.6855 34.0303 81.751 33.8928C81.8165 33.7554 81.9088 33.6325 82.0226 33.5316C82.1363 33.4306 82.2691 33.3536 82.4131 33.3052C82.5571 33.2567 82.7093 33.2378 82.8607 33.2495C83.0093 33.2556 83.1552 33.2911 83.29 33.354C83.4248 33.4169 83.5458 33.5059 83.6461 33.616C83.7464 33.7261 83.824 33.8551 83.8743 33.9954C83.9247 34.1357 83.9468 34.2847 83.9395 34.4336C83.9336 34.5858 83.8972 34.7352 83.8327 34.873C83.7681 35.0108 83.6766 35.1342 83.5636 35.2359C83.4506 35.3376 83.3184 35.4154 83.1748 35.4648C83.0313 35.5143 82.8793 35.5343 82.7278 35.5237ZM81.4771 28.5993C83.5359 28.603 85.529 29.3268 87.1132 30.646C87.1743 30.698 87.2246 30.7616 87.2612 30.8331C87.2978 30.9046 87.32 30.9826 87.3266 31.0627C87.3331 31.1428 87.3238 31.2234 87.2993 31.3C87.2747 31.3765 87.2354 31.4474 87.1835 31.5086C87.1273 31.5788 87.0558 31.6351 86.9745 31.6732C86.8931 31.7112 86.8042 31.7301 86.7145 31.7282C86.5701 31.7299 86.4304 31.6767 86.3236 31.5792C84.976 30.4278 83.263 29.7965 81.4928 29.7991C81.3419 29.782 81.2027 29.7098 81.1016 29.5962C81.0005 29.4827 80.9446 29.3358 80.9446 29.1835C80.9446 29.0313 81.0005 28.8844 81.1016 28.7708C81.2027 28.6573 81.3419 28.585 81.4928 28.5679L81.4771 28.5993ZM74.0275 39.672C74.0567 39.4812 74.0985 39.2926 74.1526 39.1074C74.2464 38.7623 74.3715 38.4251 74.4887 38.1036C74.7623 37.4528 75.0516 36.8568 75.3408 36.2608C75.6378 35.652 75.8988 35.0262 76.1225 34.3866C76.3491 35.0839 76.3762 35.8311 76.2007 36.5431C76.0511 37.2277 75.8391 37.8971 75.5675 38.5428C75.4346 38.8486 75.3173 39.1544 75.2001 39.4603C75.081 39.6791 75.0041 39.9186 74.9734 40.166C75.0156 40.4509 75.1285 40.7206 75.3017 40.9502C75.487 41.2401 75.6906 41.5178 75.9114 41.7815C75.5478 41.7102 75.2022 41.5662 74.8952 41.358C74.5415 41.1428 74.2672 40.818 74.1135 40.4327C74.0148 40.1921 73.985 39.9286 74.0275 39.672ZM67.1642 30.8421C67.0342 30.8428 66.9073 30.8017 66.8021 30.7249C66.697 30.6481 66.619 30.5396 66.5797 30.4152C66.5405 30.2908 66.5418 30.1571 66.5837 30.0335C66.6256 29.91 66.7057 29.8031 66.8125 29.7285C68.5097 28.5595 70.5638 28.0291 72.6127 28.2307C72.7744 28.2474 72.9229 28.3278 73.0255 28.4543C73.1281 28.5807 73.1764 28.7429 73.1598 28.9051C73.1433 29.0674 73.0631 29.2163 72.937 29.3193C72.811 29.4222 72.6493 29.4707 72.4876 29.4541C70.728 29.2851 68.9658 29.7492 67.516 30.7637C67.4103 30.8272 67.2868 30.8547 67.1642 30.8421ZM69.3764 33.7828C69.386 33.5578 69.4619 33.3408 69.5945 33.1592C69.7271 32.9776 69.9104 32.8395 70.1213 32.7626C70.3322 32.6856 70.5611 32.6731 70.7791 32.7268C70.997 32.7805 71.1942 32.8978 71.3456 33.064C71.497 33.2302 71.5958 33.4377 71.6295 33.6603C71.6632 33.8829 71.6303 34.1105 71.5349 34.3143C71.4396 34.5181 71.286 34.6889 71.0938 34.805C70.9016 34.9212 70.6793 34.9776 70.4552 34.9669C70.3066 34.9609 70.1607 34.9254 70.0259 34.8625C69.8911 34.7996 69.7701 34.7105 69.6698 34.6004C69.5695 34.4903 69.4919 34.3614 69.4416 34.221C69.3912 34.0807 69.3691 33.9317 69.3764 33.7828ZM70.0174 44.7614L81.3911 45.2711C80.969 47.6785 78.4598 49.4586 75.5128 49.3253C72.5658 49.192 70.2207 47.208 70.0174 44.777V44.7614Z" fill="#F39A83"/>
<path d="M93.1477 32.3791C93.0324 32.9407 92.8702 33.4915 92.663 34.0259C91.6312 36.6215 91.2951 38.2526 91.639 39.774C91.6867 40.0181 91.8065 40.2421 91.9829 40.417C93.2024 41.5933 96.8607 39.076 97.7675 36.7784C98.2617 35.6446 98.3063 34.3645 97.8924 33.1989C97.4784 32.0333 96.6371 31.0698 95.5397 30.5049C94.7736 31.9792 93.8043 33.3123 93.1477 32.3791ZM94.5 32.779C95.1385 33.0787 95.6326 33.6199 95.8744 34.2841C96.1161 34.9484 96.0857 35.6817 95.7898 36.3235C95.5807 36.9219 95.171 37.4289 94.6306 37.7579C94.0903 38.0868 93.4528 38.2174 92.8272 38.1272C92.9744 37.6714 93.0971 37.2081 93.1946 36.7392C93.4291 35.6178 93.3275 33.6024 94.328 32.8182C94.328 32.8182 94.328 32.8182 94.3749 32.7633L94.5 32.779Z" fill="#F39A83"/>
<path d="M93.1936 36.7389C93.0961 37.2079 92.9734 37.6712 92.8262 38.1269C93.4518 38.2171 94.0893 38.0866 94.6296 37.7577C95.17 37.4287 95.5797 36.9217 95.7888 36.3233C96.0847 35.6815 96.1151 34.9482 95.8734 34.2839C95.6317 33.6197 95.1375 33.0785 94.499 32.7788H94.3739C94.3739 32.7788 94.3739 32.818 94.327 32.8337C93.3265 33.5787 93.4281 35.6176 93.1936 36.7389Z" fill="#F39A83"/>
<path d="M61.3091 38.0568C62.0126 36.6609 62.0908 34.9984 61.6921 32.2303C61.6921 31.9715 61.6374 31.7205 61.6218 31.4461C60.9589 30.3605 60.4337 29.1961 60.0584 27.98H59.9724C59.3466 28.0925 58.749 28.3276 58.2139 28.6719C57.6787 29.0162 57.2164 29.463 56.8534 29.9866C56.4905 30.5102 56.2339 31.1005 56.0984 31.7236C55.963 32.3468 55.9512 32.9906 56.0639 33.6183C56.4079 36.1198 59.4721 39.5232 60.9026 38.4881C61.0694 38.3776 61.2085 38.23 61.3091 38.0568ZM60.5274 36.1747C59.9043 36.106 59.3236 35.8247 58.8825 35.3779C58.4414 34.9311 58.1666 34.3459 58.1041 33.7202C57.9704 33.027 58.1145 32.3089 58.5053 31.7217C58.896 31.1344 59.5018 30.7254 60.1913 30.5835C60.2355 30.5797 60.2799 30.5797 60.3242 30.5835C60.3256 30.6044 60.3256 30.6253 60.3242 30.6462C61.1059 31.6421 60.5196 33.5947 60.4805 34.7397C60.4768 35.219 60.5003 35.6981 60.5508 36.1747H60.5274Z" fill="#F39A83"/>
<path d="M60.371 30.638C60.3725 30.6171 60.3725 30.5962 60.371 30.5753C60.311 30.5709 60.2507 30.5736 60.1912 30.5831C59.5004 30.7233 58.8926 31.1315 58.5003 31.719C58.1079 32.3064 57.9627 33.0255 58.0963 33.7199C58.158 34.3506 58.4354 34.9404 58.8814 35.3892C59.3274 35.8381 59.9145 36.1182 60.543 36.1822C60.5156 35.7016 60.5156 35.2199 60.543 34.7393C60.5664 33.5865 61.1527 31.6339 60.371 30.638Z" fill="#F39A83"/>
<path d="M75.5119 49.3408C78.4589 49.4741 80.9838 47.694 81.3903 45.2866L70.0166 44.7769C70.2198 47.2078 72.5649 49.2075 75.5119 49.3408Z" fill="white"/>
<path d="M82.8608 33.2494C82.7119 33.242 82.563 33.2642 82.4227 33.3146C82.2823 33.365 82.1533 33.4427 82.0429 33.5432C81.9325 33.6438 81.843 33.7651 81.7795 33.9004C81.7159 34.0357 81.6796 34.1822 81.6726 34.3316C81.6619 34.6335 81.7698 34.9275 81.973 35.1504C82.1762 35.3733 82.4585 35.5073 82.7592 35.5236C82.908 35.5299 83.0567 35.5067 83.1966 35.4553C83.3365 35.4039 83.465 35.3253 83.5746 35.2241C83.6843 35.1229 83.7729 35.0009 83.8355 34.8653C83.8981 34.7296 83.9335 34.5829 83.9395 34.4336C83.9469 34.2846 83.9247 34.1356 83.8744 33.9953C83.824 33.855 83.7465 33.726 83.6462 33.6159C83.5459 33.5058 83.4248 33.4168 83.29 33.3539C83.1552 33.291 83.0093 33.2555 82.8608 33.2494Z" fill="#27090B"/>
<path d="M71.6431 33.8845C71.6497 33.7352 71.627 33.586 71.5762 33.4455C71.5254 33.305 71.4475 33.1759 71.347 33.0655C71.2465 32.9552 71.1253 32.8658 70.9903 32.8025C70.8553 32.7392 70.7093 32.7031 70.5604 32.6965C70.4116 32.6898 70.2629 32.7125 70.1228 32.7635C69.9827 32.8145 69.854 32.8926 69.7441 32.9935C69.6341 33.0943 69.545 33.2159 69.4819 33.3513C69.4187 33.4867 69.3828 33.6332 69.3761 33.7826C69.3627 34.0841 69.4692 34.3787 69.6722 34.6015C69.8752 34.8243 70.1582 34.9571 70.4588 34.9706C70.7594 34.9841 71.0531 34.8773 71.2752 34.6736C71.4973 34.4699 71.6296 34.1861 71.6431 33.8845Z" fill="#27090B"/>
<path d="M72.4871 29.4229C72.5733 29.4503 72.6645 29.4581 72.7541 29.4457C72.8437 29.4334 72.9294 29.4012 73.0051 29.3515C73.0807 29.3018 73.1444 29.2359 73.1915 29.1584C73.2386 29.081 73.268 28.994 73.2774 28.9038C73.2869 28.8136 73.2763 28.7224 73.2463 28.6368C73.2163 28.5512 73.1676 28.4734 73.104 28.409C73.0403 28.3446 72.9631 28.2952 72.8781 28.2644C72.793 28.2336 72.7022 28.2222 72.6122 28.231C70.5595 28.0384 68.5051 28.58 66.812 29.7601C66.7053 29.8347 66.6251 29.9416 66.5832 30.0651C66.5414 30.1887 66.54 30.3224 66.5793 30.4468C66.6186 30.5712 66.6965 30.6797 66.8016 30.7565C66.9068 30.8333 67.0337 30.8744 67.1637 30.8737C67.2899 30.8771 67.4136 30.8385 67.5155 30.7639C68.9612 29.7384 70.7237 29.263 72.4871 29.4229Z" fill="#522200"/>
<path d="M81.4915 29.799C83.2578 29.7877 84.9704 30.4076 86.3224 31.5478C86.4292 31.6453 86.5689 31.6985 86.7133 31.6968C86.803 31.6986 86.8919 31.6798 86.9732 31.6417C87.0546 31.6036 87.1261 31.5474 87.1823 31.4772C87.2342 31.4159 87.2735 31.345 87.2981 31.2685C87.3226 31.192 87.3319 31.1114 87.3253 31.0313C87.3188 30.9512 87.2966 30.8731 87.26 30.8016C87.2234 30.7301 87.1731 30.6666 87.1119 30.6146C85.5278 29.2954 83.5347 28.5716 81.4759 28.5679C81.3251 28.585 81.1858 28.6572 81.0847 28.7707C80.9836 28.8843 80.9277 29.0312 80.9277 29.1835C80.9277 29.3357 80.9836 29.4826 81.0847 29.5962C81.1858 29.7097 81.3251 29.7819 81.4759 29.799H81.4915Z" fill="#522200"/>
<path d="M74.9022 41.3269C75.2091 41.535 75.5547 41.6791 75.9184 41.7503C75.6976 41.4867 75.4939 41.209 75.3087 40.9191C75.1354 40.6895 75.0225 40.4198 74.9803 40.1349C75.011 39.8875 75.0879 39.648 75.207 39.4291C75.3243 39.1233 75.4415 38.8175 75.5744 38.5116C75.8461 37.8659 76.058 37.1966 76.2076 36.512C76.3831 35.8 76.3561 35.0528 76.1294 34.3555C75.9058 34.9951 75.6448 35.6209 75.3477 36.2297C75.0585 36.8257 74.7693 37.4216 74.4957 38.0725C74.3784 38.394 74.2534 38.7312 74.1596 39.0763C74.1055 39.2615 74.0637 39.4501 74.0345 39.6409C73.9928 39.8859 74.0171 40.1377 74.1048 40.3702C74.2567 40.7694 74.5374 41.1062 74.9022 41.3269Z" fill="#DE7778"/>
<path d="M11.2722 179.108C10.553 180.331 9.87295 181.578 9.19287 182.817C12.179 177.932 15.3292 173.109 18.3935 168.255C15.8296 171.743 13.4525 175.366 11.2722 179.108Z" fill="#F39A83"/>
<path d="M27.9857 182.401C26.133 175.799 24.1162 168.568 22.3183 162.013C22.0447 162.405 21.8024 162.797 21.5835 163.142C20.5413 164.857 19.4782 166.569 18.3942 168.278C15.33 173.132 12.1406 177.955 9.19363 182.841L8.7168 183.625C13.1239 188.854 18.0623 193.608 23.4518 197.811C24.4446 196.611 25.4139 195.388 26.3441 194.133C25.5155 192.078 24.4367 187.538 27.9857 182.401Z" fill="#C03037"/>
<path d="M60.1911 148.925L59.894 149.16C60.6864 149.587 61.526 149.918 62.3955 150.148C61.6299 149.799 60.8929 149.39 60.1911 148.925Z" fill="#F39A83"/>
<path d="M102.583 157.002C102.718 155.972 102.673 154.926 102.45 153.912C102.13 154.666 101.759 155.397 101.34 156.1C101.77 156.379 102.184 156.68 102.583 157.002Z" fill="#C03037"/>
<path d="M99.1434 208.962C93.7341 195.858 89.0752 182.3 88.6843 168.592C88.6843 168.271 88.6843 167.941 88.6843 167.596C86.3392 169.165 83.9238 170.647 81.7741 172.168C80.8283 172.842 79.6245 173.532 78.5848 173.031C78.3661 172.915 78.1701 172.761 78.0063 172.576C77.7953 172.85 77.5842 173.117 77.3575 173.36C76.002 174.932 74.3495 176.22 72.4954 177.148C72.3781 178.292 72.2296 179.422 72.0576 180.551C78.6317 185.938 77.4201 192.086 76.9041 193.796C83.8554 199.657 91.197 205.036 98.8777 209.895L99.3701 209.707V209.37C99.2763 209.252 99.1982 209.103 99.1434 208.962Z" fill="#C03037"/>
<path d="M67.7185 200.461C66.757 204.586 65.7252 209.236 64.6855 214.663C67.0306 214.883 69.3757 215 71.7834 215C75.0509 215 78.315 214.785 81.5546 214.357C76.5392 210.148 71.9088 205.498 67.7185 200.461Z" fill="#C03037"/>
<path d="M56.1894 180.166C56.3536 179.798 56.6037 179.257 56.9086 178.661C56.9086 176.308 56.9086 173.901 56.9086 171.548C56.8039 169.332 57.2838 167.128 58.3 165.157C58.5037 164.793 58.7336 164.445 58.9879 164.114C58.6127 164.428 58.2062 164.742 57.8857 165.079C58.1906 163.095 58.4876 160.327 59.5898 158.617C60.692 156.908 62.8886 155.527 64.4129 154.194C65.6089 153.151 66.844 152.124 68.0712 151.058C66.1246 151.258 64.1599 150.933 62.3805 150.116C61.511 149.887 60.6714 149.555 59.879 149.128C52.7478 154.865 45.2824 160.17 37.5225 165.016C37.8351 168.278 38.1322 171.888 38.4136 175.846C38.7795 175.357 39.0938 174.831 39.3516 174.277C40.3522 171.736 43.6119 176.246 44.6203 177.728C46.0977 179.9 48.0598 184.103 44.7297 190.361C43.3613 192.792 41.5993 194.979 39.5158 196.83C39.5627 197.999 39.6096 199.183 39.6487 200.391C39.6487 200.736 39.6487 201.049 39.6487 201.347C39.9479 201.188 40.2353 201.007 40.5085 200.806C41.2745 202.925 41.7989 205.125 42.0719 207.362C42.1408 207.858 42.1591 208.36 42.1267 208.86C46.9084 210.905 51.8846 212.457 56.9789 213.494C56.9789 209.26 56.9789 200.571 56.9789 190.541C54.2508 185.946 55.2592 182.268 56.1894 180.166Z" fill="#C03037"/>
<path d="M70.9864 148.611C72.9172 146.893 74.8949 144.87 76.9507 142.957L77.1462 138.024V137.468C76.7397 137.593 76.3645 137.711 75.9033 137.82C75.1436 138.144 74.3594 138.406 73.5582 138.605C70.9835 139.295 68.2889 139.406 65.6663 138.932C63.0437 138.458 60.5577 137.409 58.3854 135.86C58.0024 135.64 57.6037 135.413 57.2676 135.17V135.742C57.2676 137.593 57.2676 139.452 57.3848 141.138L60.1677 148.901C60.8695 149.366 61.6065 149.775 62.3721 150.124C64.1515 150.941 66.1162 151.266 68.0628 151.065C69.0634 150.273 70.0405 149.45 70.9864 148.611Z" fill="#E6927C"/>
<path d="M94.6412 111.566C94.9654 110.081 94.7497 108.529 94.0329 107.19C93.3161 105.851 92.1455 104.814 90.7327 104.265C90.4279 104.791 90.0839 105.379 89.7947 105.975C89.7947 106.453 89.7947 106.931 89.74 107.41C90.5579 107.687 91.2438 108.26 91.6642 109.016C92.0847 109.773 92.2096 110.659 92.0147 111.503C91.9002 112.254 91.5495 112.949 91.0138 113.487C90.4781 114.024 89.7853 114.376 89.0364 114.491C88.8801 115.597 88.7003 116.687 88.5049 117.769C90.4435 118.412 94.094 114.561 94.6412 111.566Z" fill="#F39A83"/>
<path d="M92.0144 111.504C92.2028 110.663 92.0748 109.782 91.6548 109.031C91.2348 108.28 90.5527 107.711 89.7397 107.434C89.6146 109.786 89.3801 112.186 89.0361 114.53C89.7907 114.413 90.4876 114.056 91.024 113.511C91.5603 112.966 91.9076 112.262 92.0144 111.504Z" fill="#EE7379"/>
<path d="M46.4793 113.268C46.4754 113.302 46.4754 113.336 46.4793 113.37C46.5809 113.989 46.7216 114.593 46.878 115.189C46.0639 115.27 45.2472 115.064 44.5672 114.608C43.8872 114.152 43.386 113.473 43.1493 112.687C42.8051 111.84 42.8092 110.89 43.1606 110.045C43.5121 109.2 44.1825 108.529 45.0254 108.178C45.08 108.175 45.1349 108.175 45.1895 108.178C45.1895 108.178 45.1895 108.233 45.252 108.257C45.2822 108.285 45.3085 108.316 45.3302 108.351C45.3302 108.273 45.3302 108.186 45.3302 108.1C45.3341 108.027 45.3341 107.954 45.3302 107.88C45.1661 106.963 45.0175 106.045 44.8768 105.12C44.8768 105.034 44.8768 104.948 44.8221 104.861C44.5771 104.905 44.3364 104.971 44.103 105.057C40.9762 106.132 39.4128 109.762 40.6166 113.189C41.6328 116.146 46.0885 119.533 47.7769 118.318L47.2141 115.903C46.9014 115.001 46.6982 114.138 46.4793 113.268Z" fill="#F39A83"/>
<path d="M45.1983 108.139C45.1436 108.136 45.0888 108.136 45.0342 108.139C44.1913 108.49 43.5209 109.161 43.1694 110.006C42.8179 110.851 42.8139 111.801 43.1581 112.648C43.3879 113.444 43.8882 114.134 44.5722 114.598C45.2562 115.062 46.0807 115.271 46.9024 115.189C46.7461 114.593 46.6054 113.989 46.5037 113.37C46.4999 113.336 46.4999 113.302 46.5037 113.268C46.3943 112.837 46.2927 112.413 46.1911 111.982C45.807 110.784 45.522 109.557 45.339 108.312C45.3173 108.277 45.291 108.246 45.2608 108.218C45.2608 108.218 45.2218 108.163 45.1983 108.139Z" fill="#EE7379"/>
<path d="M84.5174 92.2597C81.3906 85.798 71.8148 85.5627 65.7019 85.9862C62.0514 86.2293 58.3305 86.8096 55.1021 88.5269C47.6525 92.5028 47.9886 101.591 47.4023 109.127C47.5743 109.747 47.7072 110.374 47.8635 110.978C49.083 115.558 52.6085 120.577 57.8927 120.2C61.1837 119.957 64.1463 118.201 67.4685 118.044C68.2082 118.02 68.9485 118.062 69.6807 118.169L69.9231 117.871C70.1914 117.573 70.3868 117.216 70.4937 116.828C70.4906 116.459 70.4079 116.095 70.2514 115.762L69.798 114.452C69.4606 113.55 69.1992 112.622 69.0163 111.676C68.8097 110.695 68.8555 109.678 69.1492 108.72C69.3638 109.635 69.6514 110.532 70.009 111.402C70.3452 112.256 70.7282 113.103 71.0409 114.013C71.2082 114.474 71.3466 114.946 71.4552 115.425C71.5189 115.683 71.5659 115.945 71.5959 116.209C71.6407 116.53 71.6003 116.857 71.4786 117.158C71.2572 117.639 70.8945 118.041 70.439 118.31C75.223 119.173 80.5307 121.745 84.6581 118.616C87.9647 116.115 88.4962 111.151 88.5666 107.324C88.6239 105.104 88.5325 102.882 88.293 100.674C87.9412 99.5134 87.5113 98.4234 87.394 98.047C86.6749 95.961 85.4632 94.2045 84.5174 92.2597ZM60.9726 109.865C60.6634 109.865 60.3611 109.773 60.104 109.6C59.8469 109.428 59.6466 109.183 59.5282 108.896C59.4099 108.61 59.3789 108.295 59.4393 107.99C59.4996 107.686 59.6485 107.407 59.8671 107.187C60.0858 106.968 60.3643 106.819 60.6676 106.758C60.9709 106.698 61.2852 106.729 61.5709 106.847C61.8566 106.966 62.1008 107.167 62.2725 107.425C62.4443 107.683 62.536 107.986 62.536 108.296C62.536 108.712 62.3713 109.111 62.0781 109.405C61.7849 109.699 61.3873 109.865 60.9726 109.865ZM63.0129 102.485C60.6703 102.372 58.3633 103.094 56.5013 104.524C56.278 104.699 56.0026 104.793 55.7196 104.791C55.4538 104.789 55.1952 104.704 54.9796 104.548C54.764 104.392 54.6021 104.173 54.5162 103.92C54.4303 103.668 54.4248 103.395 54.5004 103.139C54.5759 102.884 54.7288 102.658 54.9379 102.493C57.288 100.691 60.1989 99.7822 63.1536 99.929C63.3209 99.9383 63.4848 99.9805 63.6358 100.053C63.7869 100.126 63.9221 100.228 64.0339 100.353C64.1457 100.479 64.2318 100.625 64.2873 100.783C64.3428 100.942 64.3666 101.11 64.3574 101.278C64.3481 101.446 64.306 101.61 64.2335 101.762C64.1609 101.913 64.0593 102.049 63.9344 102.161C63.8096 102.273 63.6639 102.359 63.5058 102.415C63.3477 102.471 63.1802 102.495 63.0129 102.485ZM75.4184 99.929C78.3752 99.7844 81.2878 100.693 83.6419 102.493C83.8848 102.71 84.0368 103.01 84.0672 103.335C84.0975 103.659 84.004 103.983 83.8055 104.241C83.6069 104.499 83.3182 104.672 82.9976 104.724C82.6771 104.777 82.3485 104.705 82.0785 104.524C80.2146 103.098 77.9089 102.376 75.5669 102.485C75.3996 102.494 75.2322 102.47 75.0743 102.414C74.9163 102.358 74.771 102.271 74.6465 102.158C74.522 102.046 74.4208 101.91 74.3487 101.758C74.2766 101.606 74.235 101.442 74.2263 101.274C74.2176 101.106 74.2419 100.938 74.2979 100.78C74.3538 100.621 74.4404 100.475 74.5525 100.351C74.6647 100.226 74.8002 100.124 74.9515 100.052C75.1027 99.9795 75.2667 99.9378 75.434 99.929H75.4184ZM79.5692 108.288C79.5692 108.599 79.4775 108.902 79.3057 109.16C79.134 109.418 78.8898 109.619 78.6041 109.737C78.3184 109.856 78.0041 109.887 77.7008 109.827C77.3975 109.766 77.119 109.617 76.9003 109.397C76.6817 109.178 76.5328 108.899 76.4725 108.594C76.4121 108.29 76.4431 107.975 76.5614 107.688C76.6798 107.402 76.8801 107.157 77.1372 106.984C77.3943 106.812 77.6966 106.72 78.0058 106.72C78.4205 106.72 78.8181 106.885 79.1113 107.179C79.4045 107.474 79.5692 107.872 79.5692 108.288Z" fill="#F39A83"/>
<path d="M73.5897 138.628C74.391 138.43 75.1752 138.168 75.9348 137.844C72.0481 138.754 68.0114 138.813 64.0999 138.017C62.1159 137.604 60.2088 136.882 58.4482 135.876C60.6161 137.421 63.0964 138.469 65.7133 138.945C68.3301 139.42 71.0192 139.312 73.5897 138.628Z" fill="#F39A83"/>
<path d="M45.2917 107.841C45.2917 107.606 45.2917 107.379 45.2917 107.159C45.1432 106.469 45.0025 105.779 44.8618 105.081C44.9791 106.006 45.1276 106.924 45.2917 107.841Z" fill="#F39A83"/>
<path d="M47.1759 115.864C47.0039 115.119 46.8241 114.382 46.6365 113.66C46.4958 113.111 46.3316 112.547 46.1675 111.982C46.2691 112.413 46.3707 112.837 46.4802 113.268C46.699 114.138 46.9023 115.001 47.1759 115.864Z" fill="#F39A83"/>
<path d="M60.9726 106.712C60.6634 106.712 60.3611 106.804 60.104 106.976C59.8469 107.149 59.6465 107.394 59.5282 107.68C59.4099 107.967 59.3789 108.282 59.4392 108.586C59.4995 108.89 59.6484 109.17 59.8671 109.389C60.0857 109.609 60.3643 109.758 60.6676 109.819C60.9708 109.879 61.2852 109.848 61.5709 109.729C61.8565 109.611 62.1007 109.41 62.2725 109.152C62.4443 108.894 62.536 108.59 62.536 108.28C62.536 107.864 62.3713 107.465 62.0781 107.171C61.7849 106.877 61.3872 106.712 60.9726 106.712Z" fill="#27090B"/>
<path d="M76.4268 108.288C76.4268 108.598 76.5185 108.902 76.6902 109.159C76.862 109.417 77.1062 109.618 77.3919 109.737C77.6775 109.856 77.9919 109.887 78.2952 109.826C78.5984 109.766 78.877 109.616 79.0956 109.397C79.3143 109.178 79.4632 108.898 79.5235 108.594C79.5838 108.29 79.5529 107.974 79.4345 107.688C79.3162 107.401 79.1158 107.156 78.8587 106.984C78.6016 106.812 78.2994 106.72 77.9901 106.72C77.5755 106.72 77.1779 106.885 76.8847 107.179C76.5915 107.473 76.4268 107.872 76.4268 108.288Z" fill="#27090B"/>
<path d="M75.5513 102.485C77.8933 102.375 80.199 103.097 82.0629 104.524C82.2867 104.697 82.5617 104.791 82.8446 104.791C83.1104 104.789 83.369 104.704 83.5846 104.548C83.8002 104.392 83.9621 104.172 84.048 103.92C84.1338 103.668 84.1394 103.395 84.0638 103.139C83.9883 102.883 83.8354 102.658 83.6263 102.493C81.2743 100.694 78.3648 99.7859 75.4106 99.9287C75.2433 99.9374 75.0793 99.9791 74.9281 100.051C74.7768 100.124 74.6413 100.225 74.5291 100.35C74.417 100.475 74.3304 100.621 74.2745 100.779C74.2185 100.938 74.1942 101.106 74.2029 101.274C74.2116 101.441 74.2532 101.606 74.3253 101.758C74.3974 101.909 74.4986 102.045 74.6231 102.158C74.7476 102.27 74.8929 102.357 75.0509 102.413C75.2088 102.469 75.3762 102.494 75.5435 102.485H75.5513Z" fill="#201544"/>
<path d="M63.1538 99.929C60.1992 99.7821 57.2883 100.691 54.9382 102.493C54.7291 102.658 54.5762 102.884 54.5006 103.139C54.4251 103.395 54.4306 103.668 54.5165 103.92C54.6023 104.173 54.7643 104.392 54.9799 104.548C55.1955 104.704 55.4541 104.789 55.7199 104.791C56.0029 104.793 56.2783 104.699 56.5016 104.524C58.3636 103.094 60.6706 102.371 63.0131 102.485C63.3511 102.504 63.6826 102.387 63.9347 102.161C64.1869 101.934 64.339 101.617 64.3577 101.278C64.3763 100.939 64.26 100.606 64.0342 100.353C63.8084 100.1 63.4918 99.9477 63.1538 99.929Z" fill="#201544"/>
<path d="M71.4791 117.126C71.6007 116.825 71.6412 116.498 71.5964 116.177C71.5664 115.913 71.5194 115.651 71.4557 115.393C71.3471 114.914 71.2087 114.443 71.0414 113.981C70.7287 113.072 70.3457 112.225 70.0095 111.37C69.6519 110.5 69.3643 109.604 69.1497 108.688C68.856 109.646 68.8102 110.664 69.0168 111.644C69.1996 112.59 69.4611 113.519 69.7985 114.42L70.2519 115.73C70.4084 116.064 70.4911 116.428 70.4942 116.796C70.3873 117.184 70.1919 117.541 69.9236 117.839L69.6812 118.137L70.4629 118.263C70.9073 117.994 71.2613 117.598 71.4791 117.126Z" fill="#DE7778"/>
<path d="M111.401 169.619C109.97 166.02 106.711 160.28 102.583 157.002C102.185 156.68 101.77 156.379 101.34 156.1C98.5105 160.805 93.5936 164.365 88.6611 167.596C88.6611 167.941 88.6611 168.271 88.6611 168.592C89.052 182.331 93.7109 195.858 99.1203 208.962C99.175 209.103 99.2375 209.252 99.3 209.393C99.3626 209.534 99.386 209.589 99.4251 209.691C107.68 206.386 115.368 201.806 122.212 196.117C121.891 195.333 121.578 194.486 121.242 193.678C117.967 185.664 114.606 177.673 111.401 169.619Z" fill="#C03037"/>
<path d="M61.9032 162.327C60.8546 162.766 59.8792 163.364 59.0109 164.099C58.7566 164.429 58.5267 164.778 58.323 165.142C57.3068 167.112 56.8269 169.317 56.9316 171.533L72.8391 169.761C72.847 172.23 72.7244 174.699 72.4717 177.155C74.3259 176.227 75.9784 174.94 77.3339 173.368C77.5606 173.101 77.7716 172.835 77.9827 172.584C77.7047 172.268 77.461 171.924 77.2557 171.556C74.3947 166.875 68.0082 159.896 61.9032 162.327Z" fill="#EA947E"/>
<path d="M103.075 135.884C102.615 136.637 101.924 137.22 101.105 137.546C97.5799 139.193 93.2883 139.232 89.4893 139.209C88.1448 139.209 83.5093 139.695 81.9459 138.903L81.7896 139.005C80.082 140.19 78.4646 141.5 76.9509 142.926C74.895 144.839 72.9173 146.847 70.9865 148.58C70.0406 149.419 69.0635 150.242 68.0942 151.058C66.8669 152.093 65.6319 153.12 64.4359 154.195C62.8725 155.528 60.7228 156.9 59.6128 158.617C58.5028 160.335 58.2136 163.095 57.9087 165.079C58.2605 164.742 58.6357 164.428 59.0109 164.115C59.8792 163.379 60.8546 162.782 61.9032 162.342C68.0004 159.896 74.4103 166.875 77.2557 171.549C77.461 171.916 77.7047 172.26 77.9827 172.576C78.1465 172.761 78.3425 172.915 78.5611 173.031C79.6008 173.533 80.8046 172.843 81.7505 172.168C83.9001 170.647 86.2843 169.157 88.6607 167.596C93.5932 164.365 98.5101 160.829 101.34 156.1C101.759 155.397 102.13 154.666 102.45 153.912C103.449 151.535 103.887 148.959 103.732 146.384C103.732 145.451 103.661 144.518 103.638 143.569C103.599 141.561 103.919 139.593 103.833 137.593C103.834 136.864 103.674 136.144 103.364 135.484C103.364 135.429 103.31 135.374 103.278 135.327C103.233 135.52 103.165 135.707 103.075 135.884Z" fill="#50A2D3"/>
<path d="M66.7806 199.324C63.5552 197.667 60.6866 195.388 58.3382 192.62C57.8158 191.967 57.3404 191.278 56.9155 190.557C56.9155 200.587 56.9155 209.276 56.9155 213.51C59.481 214.034 62.0719 214.424 64.6778 214.679C65.7175 209.252 66.7493 204.602 67.7108 200.477C67.4137 200.077 67.0854 199.709 66.7806 199.324Z" fill="#EA947E"/>
<path d="M56.9312 171.549C56.9312 173.901 56.9312 176.254 56.9312 178.661C57.9786 176.638 59.6671 174.034 60.7771 175.83C61.5588 177.061 64.6152 179.587 67.6404 181.994C66.3584 178.857 67.5622 177.689 67.5622 177.689C69.1595 178.486 70.6665 179.453 72.057 180.575C72.229 179.445 72.3775 178.316 72.4948 177.171C72.7474 174.715 72.87 172.246 72.8621 169.776L56.9312 171.549Z" fill="#EA947E"/>
<path d="M27.9852 182.402C29.3764 180.454 31.0678 178.742 32.9959 177.328C32.9959 177.328 34.3951 178.261 33.6838 181.578C35.4973 179.508 37.303 177.391 38.3739 175.846C38.0925 171.883 37.7955 168.273 37.4828 165.016C36.7992 165.503 36.0452 165.881 35.2472 166.138C34.6296 165.902 33.6056 164.648 32.4174 162.821C31.2683 163.26 30.2287 163.605 29.3531 163.926C29.2704 163.956 29.1832 163.972 29.0952 163.973C28.4698 163.973 27.8132 163.464 27.1566 163.103C27.1566 163.103 26.4218 162.554 25.4134 161.644C23.4913 159.997 21.8675 158.028 20.6138 155.826C21.1453 157.786 21.7081 159.849 22.2944 161.989C24.1158 168.6 26.1326 175.799 27.9852 182.402Z" fill="#EA947E"/>
<path d="M35.8884 199.771C35.4819 200.657 35.0598 201.528 34.6221 202.39C36.3557 202.472 38.0819 202.113 39.6406 201.347C39.6406 201.049 39.6406 200.736 39.6406 200.391C39.6406 199.183 39.5546 198.038 39.5077 196.831C38.3642 197.886 37.1554 198.868 35.8884 199.771Z" fill="#EA947E"/>
<path d="M42.0474 207.362C41.7744 205.125 41.2499 202.925 40.484 200.806C40.2107 201.007 39.9234 201.188 39.6241 201.347C38.0655 202.113 36.3393 202.472 34.6056 202.39C34.2304 203.112 33.8239 203.833 33.4565 204.547C36.238 206.148 39.109 207.589 42.0552 208.86C42.1032 208.361 42.1006 207.86 42.0474 207.362Z" fill="#1C0F39"/>
<path d="M25.4368 161.644C26.4452 162.554 27.18 163.103 27.18 163.103C27.8367 163.463 28.4933 164.004 29.1186 163.973C29.2067 163.972 29.2939 163.956 29.3766 163.926C30.2521 163.636 31.2918 163.259 32.4409 162.82C29.6815 158.57 26.0622 151.238 24.6239 146.509L24.5223 146.58L23.9047 147.011C23.7953 147.082 23.678 147.16 23.5764 147.239L23.0292 147.631L22.7478 147.842L22.2631 148.219L22.0365 148.391C21.8254 148.564 21.63 148.729 21.458 148.885C21.2764 149.048 21.1041 149.221 20.9421 149.403C20.5202 149.86 20.1941 150.398 19.9833 150.984C19.7725 151.57 19.6812 152.192 19.7148 152.814C19.8016 153.869 20.105 154.894 20.606 155.825C21.8691 158.03 23.5036 159.999 25.4368 161.644Z" fill="#EA947E"/>
<path d="M32.4414 162.82C33.6296 164.648 34.6536 165.902 35.2711 166.138C36.0746 165.882 36.834 165.504 37.5224 165.016C45.2949 160.182 52.7733 154.887 59.9181 149.16L60.2151 148.925L57.4166 141.153L51.593 133.962L49.5137 131.406L48.6147 130.3C33.997 137.06 29.9321 139.562 25.7266 141.569L25.3514 141.749L25.2576 141.796L24.6948 142.055H24.6244C24.2414 142.228 24.085 142.714 24.1007 143.443C24.11 143.865 24.1598 144.285 24.2492 144.698C24.3474 145.227 24.4726 145.75 24.6244 146.266L24.6948 146.494C26.0627 151.238 29.7054 158.57 32.4414 162.82Z" fill="#50A2D3"/>
<path d="M85.8388 128.528C85.329 129.903 84.6711 131.218 83.8767 132.449L82.6573 134.998C82.1804 135.986 80.8359 137.813 81.5863 138.636C81.6898 138.739 81.8118 138.822 81.9459 138.879C83.5093 139.663 88.1448 139.177 89.4893 139.185C93.304 139.185 97.5799 139.185 101.105 137.523C101.924 137.197 102.615 136.613 103.075 135.86C103.165 135.683 103.233 135.496 103.278 135.303C103.341 135.062 103.38 134.815 103.396 134.566C103.42 134.043 103.399 133.518 103.333 132.998C103.177 131.492 102.942 129.987 102.778 128.473H85.8388V128.528Z" fill="white"/>
<path d="M28.4386 187.726C29.2203 186.589 31.4559 184.134 33.6838 181.578C34.3951 178.261 32.9959 177.328 32.9959 177.328C31.0678 178.741 29.3764 180.454 27.9852 182.401C24.4363 187.538 25.515 192.078 26.3515 194.164C26.5313 193.929 26.6954 193.686 26.8674 193.45C26.9925 191.514 27.4537 189.13 28.4386 187.726Z" fill="#F39A83"/>
<path d="M33.6831 181.578C31.4553 184.135 29.2431 186.589 28.4379 187.726C27.453 189.13 26.9918 191.514 26.8745 193.419C27.2497 192.902 27.6562 192.392 27.9923 191.851C31.0331 193.153 33.8394 195.772 36.7395 197.866C36.4738 198.501 36.1767 199.12 35.8953 199.748C37.1616 198.853 38.3704 197.878 39.5146 196.831C41.5925 194.978 43.3492 192.792 44.7129 190.361C48.0429 184.088 46.0808 179.9 44.6034 177.728C43.595 176.246 40.3353 171.737 39.3348 174.278C39.077 174.831 38.7626 175.357 38.3967 175.846C37.3024 177.391 35.4966 179.508 33.6831 181.578Z" fill="#F39A83"/>
<path d="M34.6216 202.39C35.0594 201.528 35.4815 200.657 35.888 199.771C36.1694 199.144 36.4664 198.524 36.7322 197.889C33.8321 195.788 31.0258 193.184 27.985 191.875C27.6254 192.392 27.2424 192.902 26.8672 193.443C26.6952 193.678 26.5311 193.921 26.3513 194.156C25.421 195.411 24.4517 196.635 23.459 197.834C26.6396 200.306 29.9853 202.557 33.4725 204.57C33.8712 203.833 34.2464 203.104 34.6216 202.39Z" fill="#F39A83"/>
<path d="M76.8803 193.819C76.8334 193.992 76.7865 194.117 76.763 194.188C76.8302 194.551 76.8115 194.924 76.7083 195.278C76.294 196.015 70.4547 201.034 70.4547 201.034C69.1977 200.543 67.9731 199.972 66.7886 199.324C67.0934 199.709 67.4217 200.109 67.7266 200.461C71.9168 205.498 76.5473 210.148 81.5627 214.357C87.4834 213.568 93.2901 212.078 98.8616 209.919C91.1782 205.06 83.8341 199.681 76.8803 193.819Z" fill="#F39A83"/>
<path d="M67.539 177.688C67.539 177.688 66.3352 178.857 67.6171 181.994C70.2671 184.103 72.8858 186.126 73.8707 187.099C75.5279 188.738 76.5676 192.329 76.7552 194.156C76.7552 194.086 76.8255 193.96 76.8724 193.788C77.3883 192.078 78.6 185.946 72.0259 180.543C70.6363 179.433 69.1321 178.476 67.539 177.688Z" fill="#F39A83"/>
<path d="M73.8789 187.099C72.8862 186.126 70.2675 184.103 67.6254 181.994C64.6002 179.586 61.5281 177.061 60.7621 175.83C59.652 174.034 57.9636 176.614 56.9161 178.661C56.6112 179.257 56.3611 179.798 56.1969 180.166C55.2667 182.268 54.2583 185.946 56.9239 190.541C57.3481 191.267 57.8236 191.962 58.3466 192.619C60.6949 195.388 63.5636 197.666 66.7889 199.324C67.9735 199.972 69.198 200.543 70.4551 201.034C70.4551 201.034 76.3022 196.015 76.7087 195.278C76.8118 194.924 76.8306 194.55 76.7634 194.188C76.6071 192.329 75.5361 188.738 73.8789 187.099Z" fill="#F39A83"/>
<path d="M52.8979 131.139C54.1356 132.722 55.6221 134.091 57.2989 135.194C57.6663 135.437 58.0337 135.664 58.4167 135.884C60.1874 136.89 62.1053 137.61 64.0996 138.017C68.0209 138.806 72.066 138.737 75.958 137.813C76.3879 137.703 76.7944 137.585 77.2009 137.46C77.9037 137.24 78.5928 136.978 79.2646 136.676C81.1742 135.739 82.783 134.282 83.9078 132.473C84.7023 131.241 85.3602 129.926 85.8699 128.552C86.369 127.205 86.7893 125.83 87.1284 124.435C87.6522 122.286 88.129 120.067 88.5355 117.808C88.7309 116.726 88.9107 115.636 89.0671 114.53C89.411 112.178 89.6455 109.825 89.7706 107.434C89.7706 106.955 89.7706 106.477 89.8253 105.998C89.4369 106.654 89.2799 107.422 89.3797 108.179C88.9889 106.79 89.2156 105.191 89.153 103.677C89.0201 103.818 88.8951 103.967 88.7544 104.109C89.153 103.716 88.8013 102.132 88.3635 100.666C88.6031 102.874 88.6945 105.096 88.6371 107.316C88.5277 111.143 87.9961 116.107 84.7286 118.608C80.6013 121.745 75.2935 119.165 70.5095 118.302L69.7278 118.177C68.9956 118.07 68.2553 118.028 67.5156 118.051C64.2091 118.208 61.2621 119.965 57.9398 120.208C52.6556 120.584 49.1301 115.566 47.9107 110.986C47.7543 110.382 47.6214 109.755 47.4495 109.135C47.4495 109.41 47.4495 109.692 47.3869 109.959C46.6052 110.547 45.761 109.316 45.5656 108.39C45.4796 107.998 45.3936 107.606 45.3154 107.206C45.3154 107.426 45.3154 107.653 45.3154 107.888C45.3193 107.961 45.3193 108.035 45.3154 108.108C45.3154 108.194 45.3154 108.28 45.3154 108.359C45.4908 109.603 45.7679 110.83 46.144 112.029C46.3082 112.593 46.4723 113.158 46.613 113.707C46.8007 114.428 46.9804 115.166 47.1524 115.911L47.7152 118.326C48.2267 120.682 48.8872 123.002 49.6929 125.274C50.4572 127.381 51.5379 129.359 52.8979 131.139ZM69.3135 129.446C65.2253 129.446 61.864 126.834 61.4262 123.47H77.1774C76.7397 126.834 73.3706 129.446 69.2823 129.446H69.3135Z" fill="#201544"/>
<path d="M45.2685 107.159C45.3467 107.551 45.4327 107.943 45.5187 108.343C45.7141 109.292 46.5661 110.523 47.34 109.912C47.34 109.645 47.3869 109.363 47.4026 109.088C47.9888 101.552 47.6527 92.4634 55.1023 88.4876C58.3307 86.7703 62.0516 86.19 65.7021 85.9469C71.815 85.5391 81.3361 85.7743 84.5176 92.2203C85.4634 94.1651 86.6751 95.9217 87.4333 97.9763C87.574 98.3527 87.9805 99.4427 88.3323 100.603C88.77 102.07 89.114 103.654 88.7231 104.046C88.8638 103.905 88.9889 103.756 89.1218 103.615C89.1843 105.128 88.9576 106.751 89.3485 108.116C89.2487 107.36 89.4056 106.592 89.7941 105.936C90.0833 105.34 90.4272 104.752 90.7321 104.226C90.9119 103.905 91.0839 103.599 91.2011 103.348C92.1555 101.268 92.9601 99.1212 93.6087 96.9254C94.8985 92.5732 96.3369 86.2135 95.6646 80.6928C95.2347 77.1091 93.9214 73.8861 91.0995 71.7845C90.6919 71.4795 90.2545 71.2167 89.7941 71.0003C89.148 70.687 88.4401 70.5235 87.7226 70.5219C86.1592 70.5219 84.8381 71.4237 83.4154 71.9727C81.4576 72.731 79.32 72.892 77.2712 72.4354C75.3952 72.0119 73.6676 71.0944 71.7994 70.6239C67.7228 69.7064 63.4583 70.164 59.6674 71.9256C53.9781 74.4385 49.2489 78.7261 46.1831 84.1511L45.9642 84.5432C45.6516 85.147 45.3623 85.7587 45.1122 86.3703C42.6811 92.3144 43.5488 98.5958 44.7839 104.767C44.7839 104.854 44.823 104.94 44.8386 105.026C44.9793 105.779 45.12 106.469 45.2685 107.159Z" fill="#201544"/>
<path d="M61.3945 123.47C61.8323 126.834 65.1936 129.446 69.2819 129.446C73.3701 129.446 76.7393 126.834 77.177 123.47H61.3945Z" fill="white"/>
<path d="M61.6208 31.485L61.6911 31.5948C61.738 31.0145 61.7459 30.3715 61.8084 29.7677L62.1367 26.827C62.5276 23.3217 62.254 19.1263 66.694 18.4362C69.0938 18.0676 71.2826 19.7458 73.6433 20.3104C75.7461 20.8123 77.9505 20.4045 80.061 19.9026C82.1716 19.4007 84.29 18.7969 86.4475 18.9145C90.356 19.1106 91.294 20.8593 91.5989 24.1764C91.81 26.529 92.3024 28.8815 92.7246 31.1557C92.7838 31.5873 92.9272 32.003 93.1467 32.379C93.7877 33.3122 94.7726 31.9791 95.5387 30.4656C95.938 29.6767 96.2777 28.8589 96.5549 28.0189C97.7821 24.098 97.5476 19.0165 96.4611 15.1112C96.3829 14.8446 96.3047 14.5702 96.2187 14.3271C94.7648 9.91993 91.5911 5.9598 87.2449 4.39143C85.6815 3.81897 83.993 3.60724 82.3905 3.09752C78.396 1.88988 74.4406 -0.823403 70.4149 0.282298C67.2881 1.1449 64.943 4.20322 61.7146 4.59532C61.0042 4.56981 60.2999 4.73494 59.6744 5.07367C59.2003 5.5264 58.8989 6.13111 58.8223 6.78319C57.8194 11.1101 57.6443 15.5886 58.3064 19.981C58.6574 22.704 59.2353 25.3927 60.0339 28.0189C60.4167 29.2362 60.9498 30.4006 61.6208 31.485Z" fill="#201544"/>
</g>
<g clip-path="url(#clip1)">
<path d="M226.862 27.439C226.139 30.2434 225.445 33.0653 224.782 35.9046C223.6 41.0825 222.538 46.4398 221.79 52.0736C222.022 53.2392 222.306 54.3973 222.643 55.5405C222.875 56.2877 223.137 57.1021 223.391 57.8866C228.844 59.1793 233.258 62.4519 235.21 67.189H235.3C235.075 66.6959 234.858 66.1953 234.656 65.6947C234.642 65.6462 234.625 65.5988 234.604 65.5527C233.057 61.4801 231.88 57.2763 231.088 52.9926C230.867 53.1496 230.61 53.2473 230.34 53.2765C230.147 53.7585 229.777 54.1491 229.306 54.3692C228.836 54.5893 228.299 54.6225 227.804 54.462C227.31 54.3015 226.895 53.9593 226.643 53.5048C226.392 53.0502 226.323 52.5173 226.45 52.0138C226.519 51.7779 226.628 51.5556 226.772 51.3563C225.27 49.8401 224.232 47.9271 223.78 45.8421C223.211 42.1062 225.276 38.5795 228.537 37.6231C228.28 36.104 228.132 34.5683 228.096 33.0279C227.945 25.8471 230.58 18.8861 235.449 13.6012C235.764 13.265 236.085 12.9437 236.422 12.6299C233.289 15.0781 230.534 17.9733 228.246 21.2225C228.128 22.3199 227.926 23.4066 227.64 24.4727C227.348 25.459 227.124 26.4527 226.862 27.439Z" fill="#201544"/>
<path d="M208.55 5.23274L208.415 5.06836C208.422 5.1429 208.422 5.21798 208.415 5.29251L208.55 5.23274Z" fill="#7E423B"/>
<path d="M235.576 68.0631C235.782 68.6705 235.942 69.2924 236.055 69.9236L236.728 69.7517C236.227 68.9435 235.778 68.1051 235.381 67.2412L235.284 67.286C235.352 67.5102 235.449 67.8016 235.576 68.0631Z" fill="#7E423B"/>
<path d="M298.958 92.302C296.602 90.307 293.258 88.2896 293.722 85.2262C293.909 83.8513 294.881 82.7231 295.367 81.4155C296.654 77.9486 294.313 74.2351 291.822 71.5004C289.331 68.7658 286.391 65.9041 286.204 62.213C286.219 60.6734 286.453 59.1439 286.899 57.6701C289.277 47.2145 288.287 36.2761 284.072 26.4155C283.735 25.6086 283.369 24.7717 282.98 23.92C282.324 22.4716 281.59 21.0599 280.78 19.6909C281.02 20.2214 281.244 20.7669 281.461 21.3347C283.855 27.6932 284.775 33.9023 283.212 40.4401C286.204 42.069 287.58 45.9767 286.204 49.5856C285.301 51.5387 283.855 53.1909 282.037 54.3452C282.142 54.581 282.2 54.8346 282.209 55.0924C282.244 55.6201 282.071 56.1405 281.729 56.5439C281.386 56.9472 280.9 57.2019 280.373 57.2542C279.847 57.3066 279.32 57.1525 278.905 56.8244C278.489 56.4963 278.218 56.02 278.147 55.4958C277.95 55.427 277.769 55.3176 277.616 55.1745C276.509 58.492 275.926 62.2429 273.988 65.1494C271.718 68.7402 268.867 71.9293 265.55 74.5863C264.156 75.6276 262.629 76.4794 261.01 77.1193L260.808 85.6072L261.63 85.7567C264.386 85.803 267.135 86.0377 269.859 86.459C270.578 86.3378 271.307 86.2853 272.036 86.3021C276.12 86.3469 283.84 94.7602 291.627 107.41C295.82 106.134 299.942 104.637 303.977 102.927C303.936 100.903 303.468 98.9103 302.603 97.0795C301.738 95.2487 300.496 93.6207 298.958 92.302Z" fill="#201544"/>
<path d="M243.401 84.5757C243.404 84.6255 243.404 84.6754 243.401 84.7252L244.83 84.6654C244.65 82.4761 244.568 79.6966 244.598 76.7677C242.554 75.8294 240.709 74.5108 239.159 72.8823C238.192 72.9198 237.227 73.0171 236.272 73.1737C235.939 77.6033 233.994 81.7578 230.804 84.8522C232.21 84.7027 233.624 84.6355 234.993 84.6056C237.82 84.5458 240.528 85.1884 243.401 84.5757Z" fill="#201544"/>
<path d="M236.249 73.0393C237.178 72.8961 238.115 72.8162 239.054 72.8002C238.19 71.8841 237.42 70.8828 236.758 69.8115L236.01 70.0133C236.2 71.0102 236.28 72.025 236.249 73.0393Z" fill="#7E423B"/>
<path d="M200.821 107.858C201.629 108.097 202.445 108.329 203.267 108.553C204.666 104.817 206.26 101.081 207.606 98.0923C205.654 100.947 203.297 104.286 200.821 107.858Z" fill="#F39A83"/>
<path d="M272.059 86.2946C271.33 86.2778 270.601 86.3303 269.882 86.4515C271.6 86.7143 273.301 87.0785 274.976 87.5424C275.205 87.5841 275.418 87.6904 275.589 87.8487C275.724 88.0302 275.806 88.2444 275.829 88.4689C276.031 89.5597 276.225 90.6357 276.405 91.7116C276.524 91.8013 276.644 91.876 276.756 91.9657C278.881 93.6095 278.963 99.6467 278.028 108C278.028 108.942 278.028 109.883 278.028 110.832C282.741 109.883 287.289 108.732 291.643 107.402C283.863 94.7526 276.143 86.3394 272.059 86.2946Z" fill="#F39A83"/>
<path d="M260.793 86.1151V86.9668C260.793 86.9668 247.164 92.1971 245.548 88.8348C245.102 87.4874 244.85 86.0836 244.8 84.6655L243.371 84.7253C242.496 88.5658 243.371 92.9443 246.206 95.6715C247.006 96.202 247.784 96.725 248.532 97.2481C253.275 99.4149 259.469 96.7998 261.249 91.6965C261.997 89.455 261.848 88.0577 261.653 85.7191L260.83 85.5696V86.0777L260.793 86.1151Z" fill="#F39A83"/>
<path d="M276.756 91.9655C276.644 91.8758 276.524 91.8011 276.404 91.7114C277.352 97.0929 277.894 102.538 278.028 108C278.963 99.639 278.88 93.6093 276.756 91.9655Z" fill="#F39A83"/>
<path d="M244.8 84.6956C244.851 86.1137 245.103 87.5174 245.548 88.8649C247.164 92.2646 260.793 86.9969 260.793 86.9969V86.1451C260.793 86.1451 260.793 86.0928 260.793 86.0704C259.178 83.0542 256.753 80.5471 253.791 78.8302C253.657 78.7555 253.515 78.6957 253.38 78.6285C251.277 78.6358 249.183 78.3414 247.164 77.7543C246.618 77.5974 246.094 77.4031 245.578 77.2014L244.643 77.2612V76.8203H244.583C244.553 79.697 244.62 82.4541 244.8 84.6956Z" fill="#F39A83"/>
<path d="M253.343 78.5986C253.477 78.6658 253.62 78.7256 253.754 78.8003C256.716 80.5171 259.141 83.0243 260.756 86.0405C260.756 86.0405 260.756 86.0928 260.756 86.1152V85.6071L261.01 77.1191C258.57 78.088 255.969 78.5899 253.343 78.5986Z" fill="#E28D78"/>
<path d="M245.541 77.1716C245.226 77.052 244.927 76.925 244.628 76.7905V77.2314L245.541 77.1716Z" fill="#E28D78"/>
<path d="M277.093 54.1806C276.599 52.1483 276.951 49.9516 278.11 46.7088C277.774 46.4357 277.47 46.1248 277.205 45.7823C274.961 42.9878 273.136 40.4922 270.428 37.9892C264.749 32.7003 260.703 25.9003 258.766 18.3906C254.644 23.8824 250.35 29.5386 244.358 32.9084C241.254 34.6568 237.626 35.6505 234.746 37.8547C233.684 38.7621 232.757 39.8163 231.993 40.9854C231.974 41.8599 232.027 42.7345 232.15 43.6005C232.764 47.71 232.711 50.1907 231.701 52.2828C231.566 52.5747 231.363 52.8307 231.11 53.0299C231.9 57.2825 233.069 61.456 234.604 65.5004C234.624 65.5464 234.642 65.5939 234.656 65.6424C234.858 66.1579 235.075 66.6585 235.299 67.1367C236.187 66.7831 237.1 66.4959 238.03 66.2775C237.119 66.5478 236.223 66.8646 235.344 67.2264C235.74 68.0953 236.19 68.9388 236.691 69.7519C237.715 69.4967 238.758 69.3267 239.81 69.2438C238.781 69.3787 237.762 69.5784 236.758 69.8415C237.42 70.9127 238.19 71.9141 239.055 72.8302C239.764 72.8202 240.473 72.8476 241.179 72.9124C240.498 72.9124 239.81 72.9124 239.129 72.9124C240.679 74.5409 242.524 75.8595 244.568 76.7978H244.628C244.927 76.9323 245.226 77.0593 245.54 77.1788C246.056 77.3806 246.58 77.5748 247.126 77.7317C249.146 78.3189 251.239 78.6133 253.342 78.6059C255.967 78.5916 258.565 78.0847 261.002 77.1116C262.626 76.463 264.155 75.6011 265.55 74.5488C268.866 71.894 271.718 68.7075 273.988 65.1193C275.926 62.2128 276.509 58.4619 277.616 55.1445C277.351 54.8816 277.169 54.5464 277.093 54.1806ZM250.911 54.4197C250.956 54.1059 251.023 53.8593 251.083 53.5978C251.225 53.0822 251.405 52.5891 251.577 52.1034C251.966 51.1396 252.385 50.228 252.789 49.3239C253.2 48.4032 253.538 47.4513 253.799 46.4772C254.09 47.5137 254.105 48.6083 253.843 49.6527C253.612 50.6722 253.299 51.6716 252.908 52.6414C252.714 53.1047 252.542 53.5679 252.377 54.0237C252.194 54.3777 252.091 54.7683 252.078 55.1669C252.177 55.5857 252.375 55.975 252.654 56.3026C252.957 56.7132 253.284 57.1049 253.634 57.4757C253.099 57.3461 252.592 57.1208 252.138 56.8107C251.622 56.4931 251.215 56.0267 250.971 55.4732C250.855 55.1345 250.829 54.7714 250.896 54.4197H250.911ZM243.67 45.715C243.681 45.3798 243.79 45.0552 243.986 44.7823C244.181 44.5094 244.452 44.3004 244.767 44.1817C245.081 44.0631 245.423 44.0401 245.75 44.1156C246.077 44.1912 246.374 44.362 246.604 44.6063C246.834 44.8507 246.987 45.1577 247.042 45.4885C247.097 45.8193 247.053 46.159 246.915 46.4648C246.778 46.7706 246.552 47.0287 246.267 47.2064C245.982 47.3842 245.651 47.4736 245.316 47.4634C244.866 47.4478 244.441 47.2553 244.132 46.9278C243.824 46.6003 243.658 46.1644 243.67 45.715ZM253.148 68.6311C248.727 68.4891 245.174 65.5676 244.815 61.9064L261.878 62.4444C261.294 66.0682 257.569 68.7656 253.148 68.6311ZM263.673 48.0313C263.337 48.0207 263.012 47.9109 262.738 47.7156C262.465 47.5203 262.256 47.2483 262.137 46.9342C262.019 46.6201 261.996 46.2779 262.072 45.951C262.149 45.624 262.321 45.3271 262.566 45.0977C262.811 44.8683 263.119 44.7168 263.451 44.6624C263.783 44.6079 264.123 44.653 264.429 44.792C264.735 44.9309 264.993 45.1574 265.17 45.4427C265.347 45.7281 265.435 46.0595 265.423 46.395C265.416 46.6174 265.366 46.8363 265.274 47.0391C265.182 47.2419 265.051 47.4246 264.889 47.5767C264.726 47.7287 264.535 47.8472 264.326 47.9252C264.118 48.0032 263.895 48.0393 263.673 48.0313Z" fill="#F39A83"/>
<path d="M282.083 44.1984C282.758 44.7667 283.234 45.5357 283.441 46.3932C283.649 47.2507 283.576 48.1519 283.235 48.9654C282.935 49.8626 282.332 50.6277 281.53 51.1294C280.727 51.6312 279.775 51.8382 278.836 51.7151C279.048 51.0296 279.225 50.3338 279.367 49.6304C279.494 48.9729 279.547 48.1361 279.644 47.2394C279.37 47.2545 279.096 47.2131 278.839 47.118C278.581 47.0229 278.346 46.876 278.148 46.6865C276.988 49.9517 276.652 52.1484 277.131 54.1583C277.206 54.5241 277.388 54.8594 277.654 55.1222C277.807 55.2652 277.988 55.3747 278.185 55.4435C278.181 55.3813 278.181 55.3189 278.185 55.2567C278.164 54.7802 278.309 54.311 278.597 53.9302C278.884 53.5494 279.296 53.2809 279.761 53.1711C280.226 53.0612 280.714 53.1169 281.142 53.3286C281.57 53.5402 281.911 53.8945 282.105 54.3302C283.896 53.1682 285.319 51.5196 286.204 49.5781C287.581 45.9692 286.204 42.0615 283.212 40.4326C283.115 40.8436 283.01 41.247 282.891 41.658C282.704 42.4425 282.404 43.3466 282.083 44.1984Z" fill="#F39A83"/>
<path d="M279.367 49.6302C279.225 50.3336 279.048 51.0294 278.836 51.7149C279.775 51.838 280.727 51.631 281.53 51.1293C282.332 50.6275 282.935 49.8624 283.234 48.9653C283.576 48.1518 283.648 47.2505 283.441 46.393C283.234 45.5355 282.758 44.7665 282.082 44.1982C281.492 45.6926 280.714 47.0824 279.644 47.2393C279.547 48.0836 279.494 48.9727 279.367 49.6302Z" fill="#EE7379"/>
<path d="M280.055 53.1271C279.512 53.1561 279.003 53.399 278.64 53.8025C278.277 54.206 278.089 54.7371 278.117 55.279C278.113 55.3412 278.113 55.4036 278.117 55.4658C278.176 55.8567 278.347 56.2223 278.61 56.5179C278.872 56.8135 279.216 57.0266 279.597 57.1311C279.979 57.2356 280.383 57.227 280.76 57.1065C281.137 56.986 281.47 56.7587 281.72 56.4522C281.97 56.1457 282.126 55.7733 282.168 55.3802C282.21 54.9872 282.136 54.5904 281.957 54.2381C281.777 53.8859 281.499 53.5933 281.156 53.3961C280.813 53.1988 280.42 53.1054 280.025 53.1271H280.055Z" fill="white"/>
<path d="M231.702 52.2452C232.711 50.1531 232.764 47.6725 232.15 43.563C232.029 42.7093 231.976 41.8473 231.993 40.9852C231.081 42.3899 230.497 43.9142 231.133 44.9303C230.991 44.7137 230.879 44.4746 230.752 44.2429C230.677 45.3488 230.467 46.4845 230.452 47.3138C230.44 48.0295 230.465 48.7453 230.527 49.4583C229.581 49.3477 228.698 48.9246 228.02 48.2561C227.341 47.5876 226.905 46.712 226.782 45.7681C226.658 44.8242 226.853 43.8661 227.337 43.0457C227.82 42.2253 228.564 41.5895 229.45 41.2393C229.052 40.0365 228.747 38.805 228.537 37.5557C225.298 38.5494 223.211 42.0388 223.78 45.7747C224.244 47.8744 225.304 49.7964 226.832 51.3113C227.114 50.9241 227.523 50.6479 227.987 50.5306C228.452 50.4134 228.943 50.4625 229.375 50.6695C229.808 50.8764 230.154 51.2282 230.353 51.6635C230.552 52.0988 230.593 52.5902 230.467 53.0522C230.449 53.1136 230.427 53.1735 230.4 53.2315C230.67 53.2023 230.927 53.1046 231.148 52.9476C231.382 52.7571 231.571 52.5172 231.702 52.2452Z" fill="#F39A83"/>
<path d="M226.809 45.8421C226.913 46.7859 227.343 47.6638 228.026 48.3241C228.709 48.9845 229.602 49.3857 230.549 49.4584C230.487 48.7454 230.462 48.0297 230.475 47.314C230.475 46.4772 230.699 45.3489 230.774 44.2431C230.25 43.2885 229.814 42.2881 229.472 41.2544C228.549 41.5701 227.772 42.2081 227.282 43.0511C226.793 43.8941 226.625 44.8852 226.809 45.8421Z" fill="#EE7379"/>
<path d="M229.031 50.5865C228.632 50.4741 228.208 50.4854 227.815 50.6188C227.422 50.7522 227.079 51.0015 226.832 51.3337C226.688 51.533 226.579 51.7553 226.51 51.9912C226.334 52.5064 226.371 53.0702 226.612 53.5585C226.852 54.0469 227.277 54.4197 227.793 54.5951C228.309 54.7705 228.873 54.734 229.362 54.4937C229.851 54.2534 230.224 53.8289 230.4 53.3137C230.427 53.2557 230.449 53.1957 230.467 53.1344C230.544 52.8729 230.568 52.5986 230.537 52.3278C230.506 52.057 230.421 51.795 230.288 51.5575C230.154 51.32 229.974 51.1117 229.758 50.9449C229.542 50.7781 229.295 50.6563 229.031 50.5865Z" fill="white"/>
<path d="M278.028 108C277.894 102.538 277.352 97.093 276.404 91.7115C276.225 90.6356 276.03 89.5596 275.828 88.4688C275.806 88.2443 275.723 88.0301 275.589 87.8486C275.418 87.6903 275.205 87.584 274.976 87.5423C273.301 87.0784 271.6 86.7142 269.881 86.4514C267.158 86.03 264.409 85.7954 261.653 85.749C261.847 88.0503 262.012 89.4849 261.249 91.7265C259.499 96.8297 253.305 99.4448 248.532 97.278C250.011 98.2875 251.425 99.388 252.766 100.573C260.03 105.534 258.848 111.631 258.369 113.275L258.698 113.544C265.192 113.035 271.65 112.134 278.035 110.847C278.043 109.883 278.043 108.942 278.028 108Z" fill="#F7C1DA"/>
<path d="M246.206 95.6713C243.371 92.9292 242.466 88.5656 243.371 84.7251C243.375 84.6754 243.375 84.6254 243.371 84.5757C240.499 85.1884 237.791 84.5757 234.933 84.5757C233.564 84.5757 232.15 84.6728 230.744 84.8223C230.34 85.2407 229.906 85.6516 229.465 86.0476C231.477 87.1012 239.586 91.3451 246.206 95.6713Z" fill="#F7C1DA"/>
<path d="M228.096 33.0279C228.132 34.5481 228.277 36.0637 228.529 37.5633C228.739 38.8126 229.044 40.0441 229.442 41.2469C229.784 42.2806 230.22 43.281 230.744 44.2356C230.871 44.4672 230.983 44.7063 231.125 44.923C230.489 43.9069 231.073 42.3826 231.985 40.9779C232.749 39.8088 233.676 38.7546 234.738 37.8472C237.581 35.6057 241.246 34.6493 244.351 32.9009C250.335 29.5311 254.636 23.8749 258.758 18.3832C260.699 25.8848 264.745 32.6765 270.42 37.9593C273.128 40.4624 274.908 42.9579 277.197 45.7524C277.462 46.0949 277.766 46.4058 278.102 46.6789C278.301 46.8684 278.536 47.0153 278.793 47.1104C279.05 47.2055 279.325 47.2468 279.599 47.2318C280.668 47.0749 281.446 45.7374 282.037 44.1908C282.359 43.339 282.621 42.4349 282.845 41.6653C282.965 41.2544 283.07 40.8509 283.167 40.4399C284.73 33.9021 283.81 27.693 281.416 21.3345C281.199 20.7667 280.975 20.2212 280.736 19.6907C277.886 13.25 273.322 9.15547 266.358 6.94381C265.9 6.75167 265.408 6.65271 264.911 6.65271C264.414 6.65271 263.922 6.75167 263.463 6.94381C263.373 6.99611 263.284 7.04095 263.194 7.10072C263.193 6.91977 263.173 6.73941 263.134 6.56275C263.06 6.1708 262.864 5.81237 262.573 5.53911C260.501 3.60391 256.686 3.94014 254.068 4.20166C250.776 4.52019 247.577 5.46628 244.642 6.98864C241.646 8.48214 238.875 10.3914 236.414 12.6597C236.077 12.9736 235.756 13.2948 235.441 13.6311C230.582 18.9097 227.95 25.8584 228.096 33.0279Z" fill="#201544"/>
<path d="M244.814 61.9287C245.174 65.5675 248.727 68.489 253.148 68.6533C257.569 68.8177 261.294 66.0905 261.877 62.4891L244.814 61.9287Z" fill="white"/>
<path d="M263.785 44.6465C263.45 44.6349 263.118 44.723 262.832 44.8998C262.546 45.0766 262.32 45.3342 262.181 45.6398C262.041 45.9454 261.996 46.2853 262.051 46.6166C262.105 46.9478 262.257 47.2555 262.487 47.5006C262.716 47.7457 263.014 47.9172 263.341 47.9934C263.668 48.0696 264.011 48.0471 264.325 47.9287C264.64 47.8103 264.912 47.6014 265.108 47.3284C265.303 47.0553 265.413 46.7305 265.424 46.3949C265.438 45.9463 265.273 45.5104 264.966 45.1826C264.659 44.8549 264.234 44.6621 263.785 44.6465Z" fill="#201544"/>
<path d="M247.066 45.8418C247.076 45.5066 246.987 45.1759 246.809 44.8914C246.631 44.607 246.373 44.3817 246.066 44.2439C245.76 44.1062 245.42 44.0622 245.089 44.1175C244.758 44.1728 244.45 44.3249 244.206 44.5546C243.961 44.7844 243.79 45.0814 243.715 45.4081C243.639 45.7349 243.662 46.0767 243.781 46.3904C243.9 46.7041 244.109 46.9756 244.382 47.1705C244.655 47.3655 244.98 47.4751 245.316 47.4856C245.766 47.4977 246.202 47.3317 246.53 47.0238C246.858 46.7159 247.051 46.2911 247.066 45.8418Z" fill="#201544"/>
<path d="M252.153 56.7881C252.607 57.0983 253.114 57.3236 253.649 57.4531C253.289 57.0905 252.952 56.7062 252.639 56.3025C252.36 55.9749 252.162 55.5856 252.063 55.1668C252.076 54.7682 252.179 54.3776 252.362 54.0236C252.527 53.5678 252.699 53.1045 252.894 52.6413C253.284 51.6715 253.597 50.6721 253.829 49.6526C254.09 48.6082 254.075 47.5136 253.784 46.4771C253.525 47.4509 253.19 48.4028 252.781 49.3238C252.377 50.2279 251.958 51.1395 251.569 52.1033C251.397 52.589 251.218 53.0821 251.076 53.5977C251.016 53.8592 250.949 54.1058 250.904 54.4196C250.845 54.7653 250.876 55.1202 250.993 55.4507C251.236 56.0032 251.64 56.4694 252.153 56.7881Z" fill="#DE7778"/>
<path d="M211.511 96.501C211.81 95.1711 212.042 93.7962 212.394 92.526C211.646 92.526 210.95 92.526 210.239 92.4438C209.933 93.079 208.9 95.2308 207.606 98.1299C206.312 101.029 204.666 104.855 203.268 108.59C205.542 109.208 207.861 109.778 210.224 110.301C210.224 110.182 210.224 110.07 210.224 109.943C210.337 106.536 210.77 99.7737 211.511 96.501Z" fill="#DDB8D8"/>
<path d="M212.386 92.5258C212.035 93.796 211.803 95.1709 211.504 96.5008C210.756 99.7735 210.329 106.535 210.225 109.905C210.225 110.032 210.225 110.144 210.225 110.264C210.741 110.376 211.257 110.496 211.781 110.6C212.057 107.2 212.94 97.1957 213.359 92.5034C213.04 92.5184 212.716 92.5258 212.386 92.5258Z" fill="#CBA5CD"/>
<path d="M229.494 86.0776C228.941 86.5633 228.365 87.0266 227.759 87.4674C228.739 88.2146 229.689 89.1261 230.661 89.948C231.917 91.0495 233.108 92.2221 234.229 93.4598C234.74 92.9519 235.192 92.388 235.576 91.7786C236.705 89.6342 239.167 93.9305 239.915 95.3277C240.51 96.4341 240.888 97.6438 241.029 98.8918C241.934 97.3974 243.101 95.9853 243.932 97.3078C244.62 98.3987 247.365 100.633 250.073 102.762C248.914 99.9827 249.983 98.9366 249.983 98.9366C250.945 99.4165 251.874 99.9581 252.766 100.558C251.425 99.3729 250.011 98.2724 248.532 97.2629C247.784 96.7399 247.036 96.2169 246.206 95.6864C239.585 91.3453 231.477 87.1013 229.494 86.0776Z" fill="#DDB8D8"/>
<path d="M234.229 93.4597C233.108 92.222 231.917 91.0494 230.661 89.9479C229.689 89.126 228.739 88.2294 227.759 87.4673C227.519 87.6391 227.28 87.811 227.011 87.9754C228.507 89.6715 230.751 92.2492 232.935 94.7523C233.422 94.2965 233.855 93.8632 234.229 93.4597Z" fill="#CBA5CD"/>
<path d="M220.967 93.0938C221.496 92.8656 222.08 92.7895 222.65 92.874C223.221 92.9584 223.757 93.2001 224.198 93.572C225.039 94.3379 225.84 95.1459 226.599 95.9928C227.537 95.201 228.538 94.4864 229.592 93.8559C229.592 93.8559 230.736 94.8198 229.794 97.674C230.871 96.6877 231.955 95.679 232.898 94.7525C230.706 92.2495 228.41 89.6717 226.973 87.9756C222.916 90.7065 218.186 92.2727 213.299 92.5035C212.88 97.1958 211.997 107.201 211.721 110.6C213.351 110.944 215.012 111.258 216.688 111.557C216.882 107.955 217.368 103.853 217.615 100.282C217.855 97.7188 217.9 94.1249 220.967 93.0938Z" fill="#DDB8D8"/>
<path d="M241.829 112.207C240.334 110.462 239.373 108.325 239.062 106.05C238.964 106.199 238.882 106.341 238.777 106.498C238.354 107.112 237.892 107.699 237.394 108.254C237.572 108.641 237.729 109.038 237.865 109.442C238.343 110.855 238.556 112.345 238.493 113.835C240.144 113.905 241.805 113.947 243.475 113.962C242.887 113.415 242.338 112.828 241.829 112.207Z" fill="#DDB8D8"/>
<path d="M222.358 108.74C221.775 107.193 220.189 101.395 226.622 95.9927C225.856 95.1452 225.047 94.3371 224.199 93.5718C223.758 93.2 223.222 92.9583 222.651 92.8738C222.08 92.7893 221.497 92.8655 220.967 93.0936C217.9 94.1247 217.855 97.7187 217.676 100.282C217.429 103.853 216.928 107.955 216.748 111.556L218.992 111.93C220.184 110.839 221.306 109.776 222.358 108.74Z" fill="#F5F0F8"/>
<path d="M237.865 109.442C237.73 109.038 237.572 108.641 237.394 108.254C235.718 110.075 233.803 111.661 231.702 112.969C231.597 113.118 231.485 113.267 231.38 113.424C233.729 113.619 236.1 113.763 238.494 113.858C238.56 112.36 238.347 110.862 237.865 109.442Z" fill="#F5F0F8"/>
<path d="M213.883 41.9792C214.212 35.9047 215.379 29.464 218.206 24.3009C219.328 22.2387 221.303 20.6771 222.695 22.8066C224.011 24.809 223.48 27.7977 222.971 30.1663C222.784 30.9882 222.612 31.8101 222.433 32.632C221.934 34.9532 221.48 37.2969 221.071 39.663C220.052 45.4974 219.363 51.3846 219.007 57.2965C219.755 57.2965 220.503 57.3861 221.184 57.4758C221.371 55.6452 221.588 53.8519 221.834 52.0811C222.582 46.4474 223.652 41.0901 224.827 35.9121C225.455 33.0679 226.133 30.2435 226.861 27.4391C227.123 26.4528 227.377 25.4591 227.647 24.4504C227.933 23.3843 228.135 22.2976 228.253 21.2001C228.406 20.0822 228.332 18.9449 228.035 17.8562C227.738 16.7675 227.224 15.7499 226.525 14.864C223.914 11.5764 220.54 13.0783 218.588 15.6112C213.74 21.9623 211.945 30.5548 211.534 38.5422C211.13 44.9886 211.926 51.4539 213.883 57.6103C214.331 57.5356 214.78 57.4758 215.229 57.431C214.019 52.3751 213.565 47.168 213.883 41.9792Z" fill="#DDB8D8"/>
<path d="M222.381 32.6245C222.56 31.8026 222.732 30.9807 222.919 30.1588C223.428 27.7902 223.959 24.8015 222.643 22.799C221.281 20.677 219.306 22.2387 218.154 24.2934C215.327 29.4639 214.19 35.9046 213.883 41.9792C213.563 47.1675 214.014 52.3746 215.222 57.4309C216.463 57.2882 217.714 57.2408 218.962 57.2889C219.318 51.377 220.008 45.4899 221.027 39.6554C221.441 37.3043 221.892 34.9607 222.381 32.6245Z" fill="#F5F0F8"/>
<path d="M201.361 63.2365C197.306 58.4242 192.962 53.863 188.352 49.578C186.592 47.9442 184.814 46.3502 183.018 44.796C182.383 44.2431 181.747 43.6902 181.103 43.1522C179.271 41.5682 177.042 39.4985 176.877 37.115C176.682 34.597 179.196 34.6568 181.365 35.6207C186.759 38.0191 191.554 42.4723 195.488 47.1123C199.111 51.3326 202.037 56.1021 204.158 61.2415C204.517 61.0173 204.906 60.8007 205.265 60.5989C203.119 54.1511 199.729 48.1858 195.286 43.0402C190.14 36.9282 183.512 31.145 175.837 29.0006C172.74 28.1115 169.105 28.9707 169 33.14C168.85 37.1075 171.573 39.6255 173.892 41.4636L176.316 43.3764C178.56 45.1696 180.804 46.9928 183.048 48.8831C188.953 53.7792 194.525 59.0609 199.73 64.6935C200.248 64.1801 200.792 63.6937 201.361 63.2365Z" fill="#DDB8D8"/>
<path d="M181.343 35.6433C179.196 34.6794 176.683 34.6196 176.855 37.1376C177.02 39.5211 179.249 41.6207 181.082 43.1748C181.725 43.7128 182.361 44.2657 182.997 44.8186C184.792 46.3728 186.57 47.9668 188.33 49.6006C192.947 53.8777 197.298 58.4314 201.361 63.2367C202.247 62.5093 203.182 61.8428 204.159 61.2417C202.029 56.1087 199.095 51.3469 195.466 47.1349C191.532 42.4949 186.737 38.0417 181.343 35.6433Z" fill="#F5F0F8"/>
<path d="M204.727 81.6247C204.946 81.2022 205.22 80.8103 205.542 80.4591C201.879 79.6356 198.074 79.6842 194.434 80.601C194.523 80.9821 194.628 81.3482 194.755 81.7293C194.927 82.2374 195.129 82.723 195.346 83.2236C196.993 82.5677 198.71 82.1015 200.463 81.8339C201.875 81.6372 203.302 81.5671 204.727 81.6247Z" fill="#DDB8D8"/>
<path d="M205.654 80.3542C205.886 80.1249 206.136 79.915 206.402 79.7265C207.898 78.7029 210.195 78.5086 212.618 78.1201L212.701 78.0529C213.596 77.3125 214.624 76.7495 215.73 76.3941C216.864 76.0009 218.063 75.8309 219.261 75.8935C221.363 74.7802 223.36 73.5772 225.103 73.4876C225.554 73.4614 226.006 73.4889 226.45 73.5698C228.794 70.7473 231.815 68.5626 235.232 67.2187C233.257 62.4517 228.844 59.1791 223.375 57.8864C222.627 57.7146 221.879 57.5726 221.131 57.468C220.383 57.3634 219.687 57.3111 218.954 57.2887C217.706 57.2406 216.455 57.288 215.214 57.4307C214.765 57.4755 214.316 57.5353 213.868 57.61C212.454 57.8475 211.061 58.1947 209.701 58.6486C208.169 59.1645 206.687 59.8172 205.273 60.5987C204.899 60.8004 204.525 61.0171 204.165 61.2413C203.191 61.8426 202.259 62.5092 201.375 63.2363C200.819 63.7066 200.287 64.2054 199.782 64.7306C195.294 69.2137 193.132 75.0492 194.426 80.5335C196.401 80.0002 198.439 79.7289 200.485 79.7265C202.226 79.7451 203.959 79.9556 205.654 80.3542ZM222.014 69.1465C222.424 69.0142 222.864 69.006 223.279 69.1229C223.693 69.2398 224.064 69.4766 224.344 69.8035C224.625 70.1304 224.802 70.5328 224.854 70.96C224.906 71.3873 224.83 71.8203 224.636 72.2046C224.442 72.5889 224.138 72.9074 223.764 73.1199C223.389 73.3324 222.96 73.4294 222.53 73.3989C222.1 73.3683 221.689 73.2114 221.348 72.948C221.008 72.6846 220.752 72.3264 220.615 71.9185C220.524 71.6463 220.488 71.3587 220.508 71.0724C220.529 70.7861 220.606 70.5068 220.736 70.2504C220.865 69.9941 221.044 69.7659 221.262 69.579C221.48 69.3921 221.733 69.2502 222.006 69.1614L222.014 69.1465ZM208.646 75.7291C208.782 76.1369 208.794 76.5756 208.68 76.99C208.566 77.4044 208.332 77.7758 208.007 78.0574C207.682 78.3389 207.281 78.518 206.854 78.572C206.427 78.626 205.994 78.5525 205.609 78.3607C205.224 78.169 204.905 77.8676 204.691 77.4947C204.478 77.1217 204.379 76.6939 204.409 76.2653C204.439 75.8366 204.595 75.4263 204.858 75.0862C205.12 74.7461 205.478 74.4914 205.886 74.3543C206.435 74.1719 207.033 74.2142 207.551 74.4719C208.068 74.7296 208.462 75.1817 208.646 75.7291Z" fill="#DDB8D8"/>
<path d="M204.061 83.3655C204.194 82.8077 204.395 82.2683 204.659 81.759C203.263 81.708 201.866 81.7881 200.485 81.9981C198.745 82.2377 197.038 82.6765 195.398 83.3057C195.83 84.2137 196.362 85.0707 196.984 85.8611C198.237 85.1706 199.549 84.593 200.904 84.1351C201.939 83.811 202.993 83.554 204.061 83.3655Z" fill="#DDB8D8"/>
<path d="M236.018 69.9236C235.917 69.2933 235.769 68.6714 235.576 68.0631C235.486 67.8016 235.389 67.5401 235.284 67.3159C233.411 68.0952 231.65 69.1204 230.048 70.3644C228.789 71.3093 227.634 72.3837 226.6 73.5698C227.084 73.6735 227.552 73.8419 227.991 74.0704C230.353 72.1345 233.099 70.7211 236.047 69.9236H236.018Z" fill="#DDB8D8"/>
<path d="M236.04 70.0435C234.386 70.5259 232.792 71.1952 231.29 72.0384C230.167 72.6453 229.098 73.3477 228.096 74.138C228.601 74.4211 229.067 74.7704 229.48 75.1766C230.378 74.728 231.302 74.3337 232.247 73.996C233.551 73.5615 234.89 73.2415 236.249 73.0397C236.288 72.0363 236.218 71.0317 236.04 70.0435Z" fill="#DDB8D8"/>
<path d="M212.386 92.5259C212.711 92.5259 213.032 92.5259 213.351 92.5259C218.238 92.2951 222.968 90.7289 227.026 87.9979C227.273 87.8336 227.512 87.6617 227.774 87.4899C228.38 87.049 228.956 86.5858 229.509 86.1001C229.951 85.7041 230.384 85.2931 230.788 84.8747C233.979 81.7803 235.924 77.6258 236.257 73.1963C234.918 73.4118 233.602 73.7443 232.322 74.19C231.388 74.4953 230.476 74.8622 229.591 75.2884C230.335 76.0505 230.902 76.9661 231.252 77.9708C232.636 82.0803 227.691 87.4376 220.211 89.9257C212.731 92.4138 205.549 91.1361 204.165 87.0266C203.823 85.8733 203.779 84.6522 204.038 83.4775C202.995 83.663 201.967 83.9278 200.964 84.2695C199.616 84.6993 198.311 85.2547 197.066 85.9282C200.014 89.6642 204.801 91.9057 210.24 92.3988C210.95 92.5034 211.638 92.5259 212.386 92.5259Z" fill="#DDB8D8"/>
<path d="M229.479 75.1765C229.066 74.7703 228.601 74.421 228.095 74.1379C226.724 75.2053 225.471 76.415 224.355 77.7468C225.387 76.3753 226.588 75.1401 227.931 74.0707C227.511 73.847 227.063 73.6788 226.599 73.5701C225.662 74.6421 224.821 75.7947 224.086 77.0146C224.752 75.7762 225.546 74.6116 226.457 73.5402C226.01 73.4687 225.555 73.4512 225.103 73.4879C223.383 73.6074 221.363 74.8104 219.268 75.9237C220.652 76.0283 221.715 76.5438 222.074 77.418C222.074 77.418 222.074 77.4928 222.126 77.5376C222.657 79.1067 220.772 81.1539 217.9 82.1851C218.446 83.8363 220.076 84.2099 221.445 83.9932C223.293 83.7018 225.186 82.342 225.118 80.5637C225.116 80.5261 225.122 80.4886 225.135 80.4533C225.148 80.418 225.168 80.3857 225.194 80.3584C225.22 80.3312 225.251 80.3095 225.286 80.2946C225.32 80.2798 225.357 80.2722 225.395 80.2723C225.433 80.2703 225.471 80.2759 225.507 80.2888C225.542 80.3017 225.575 80.3216 225.603 80.3474C225.631 80.3731 225.653 80.4042 225.669 80.4388C225.685 80.4734 225.693 80.5108 225.694 80.5487C225.739 82.3345 224.198 83.7467 222.463 84.3369C222.16 84.4371 221.85 84.5121 221.535 84.5611C220.898 84.6996 220.237 84.6742 219.613 84.4873C218.989 84.3004 218.422 83.9581 217.967 83.4926C217.878 84.1402 217.625 84.7544 217.232 85.2773C216.84 85.8002 216.32 86.2146 215.723 86.4813C215.442 86.6325 215.149 86.7599 214.848 86.8624C213.105 87.4452 211.025 87.236 209.985 85.7865C209.957 85.7561 209.936 85.7201 209.923 85.6809C209.91 85.6417 209.906 85.6002 209.91 85.5592C209.914 85.5182 209.927 85.4785 209.948 85.4429C209.969 85.4072 209.997 85.3764 210.031 85.3524C210.064 85.3284 210.103 85.3118 210.143 85.3037C210.184 85.2957 210.225 85.2963 210.266 85.3055C210.306 85.3148 210.344 85.3325 210.377 85.3574C210.41 85.3824 210.437 85.414 210.457 85.4502C211.489 86.8998 213.808 86.8475 215.453 85.9733C216.68 85.3157 217.75 84.0381 217.189 82.3868C214.376 83.1863 211.781 82.6707 211.264 81.1465C211.228 81.0347 211.203 80.9195 211.19 80.8028V80.6982C211.182 80.6161 211.182 80.5336 211.19 80.4516C211.185 80.4118 211.185 80.3718 211.19 80.332C211.2 80.2436 211.217 80.1561 211.242 80.0705C211.24 80.0357 211.24 80.0007 211.242 79.9659C211.273 79.8607 211.313 79.7582 211.362 79.6596C211.362 79.6596 211.362 79.6596 211.362 79.6073C211.641 79.0347 212.036 78.526 212.521 78.1129C210.097 78.5014 207.801 78.6957 206.305 79.7193C206.039 79.9078 205.789 80.1178 205.557 80.347C206.799 80.6484 208.009 81.0687 209.17 81.6022C207.957 81.1166 206.706 80.7318 205.43 80.4516C205.108 80.8029 204.834 81.1947 204.614 81.6172C206.211 81.6818 207.796 81.9326 209.334 82.3644C207.763 81.999 206.16 81.7888 204.547 81.7367C204.283 82.246 204.082 82.7854 203.948 83.3432C205.859 83.005 207.808 82.9346 209.738 83.134C207.793 83.0237 205.842 83.1466 203.926 83.5001C203.667 84.6748 203.711 85.8959 204.053 87.0492C205.437 91.1587 212.618 92.4513 220.099 89.9483C227.579 87.4452 232.524 82.0804 231.14 77.9934C230.825 76.9907 230.297 76.0679 229.592 75.2886C227.774 76.1826 226.073 77.2968 224.527 78.6061C226.005 77.2316 227.673 76.0765 229.479 75.1765Z" fill="#F5F0F8"/>
<path d="M204.488 77.1189C204.625 77.5261 204.881 77.8834 205.222 78.1457C205.563 78.4079 205.974 78.5633 206.404 78.5922C206.833 78.6211 207.261 78.5222 207.634 78.308C208.008 78.0938 208.309 77.774 208.5 77.3889C208.691 77.0037 208.764 76.5707 208.709 76.1443C208.654 75.718 208.473 75.3175 208.19 74.9936C207.907 74.6696 207.535 74.4367 207.119 74.3243C206.704 74.2118 206.264 74.2249 205.857 74.3618C205.585 74.4528 205.335 74.5964 205.119 74.7843C204.903 74.9722 204.727 75.2007 204.6 75.4568C204.473 75.7129 204.397 75.9915 204.378 76.2767C204.359 76.5619 204.396 76.8481 204.488 77.1189ZM207.053 74.9819C207.198 74.951 207.348 74.9744 207.476 75.0476C207.604 75.1207 207.701 75.2386 207.747 75.3785C207.793 75.5183 207.787 75.6704 207.728 75.8054C207.668 75.9405 207.562 76.049 207.427 76.1102C207.283 76.1411 207.133 76.1177 207.005 76.0445C206.877 75.9714 206.78 75.8535 206.734 75.7136C206.687 75.5738 206.694 75.4217 206.753 75.2867C206.812 75.1516 206.919 75.0431 207.053 74.9819Z" fill="#3F2B38"/>
<path d="M207.427 76.1328C207.541 76.0966 207.641 76.0274 207.714 75.9342C207.788 75.841 207.832 75.7279 207.842 75.6094C207.851 75.491 207.824 75.3725 207.766 75.2691C207.707 75.1657 207.619 75.0821 207.513 75.0289C207.406 74.9758 207.286 74.9555 207.168 74.9707C207.05 74.9859 206.94 75.0359 206.85 75.1143C206.761 75.1927 206.697 75.2959 206.666 75.4108C206.636 75.5256 206.641 75.6469 206.679 75.7592C206.704 75.8328 206.743 75.9009 206.794 75.9595C206.845 76.0182 206.906 76.0662 206.976 76.1009C207.045 76.1356 207.121 76.1563 207.199 76.1618C207.276 76.1672 207.354 76.1574 207.427 76.1328Z" fill="#F5F0F8"/>
<path d="M220.615 71.9187C220.752 72.3259 221.008 72.6833 221.349 72.9455C221.69 73.2077 222.101 73.3631 222.531 73.392C222.96 73.4209 223.388 73.322 223.761 73.1078C224.135 72.8937 224.436 72.5738 224.627 72.1887C224.818 71.8036 224.891 71.3705 224.836 70.9441C224.781 70.5178 224.6 70.1173 224.317 69.7934C224.034 69.4694 223.662 69.2365 223.246 69.1241C222.831 69.0116 222.391 69.0247 221.983 69.1616C221.712 69.2526 221.462 69.3962 221.246 69.5841C221.03 69.772 220.854 70.0005 220.727 70.2566C220.6 70.5127 220.524 70.7913 220.505 71.0765C220.486 71.3617 220.523 71.6479 220.615 71.9187ZM223.173 69.8042C223.322 69.7565 223.483 69.769 223.623 69.8388C223.763 69.9086 223.87 70.0302 223.921 70.1777C223.954 70.2537 223.971 70.3357 223.971 70.4186C223.971 70.5016 223.954 70.5836 223.92 70.6594C223.887 70.7353 223.838 70.8034 223.777 70.8593C223.715 70.9153 223.643 70.9579 223.564 70.9844C223.486 71.0109 223.402 71.0208 223.32 71.0135C223.237 71.0061 223.157 70.9816 223.084 70.9416C223.011 70.9016 222.948 70.8469 222.897 70.781C222.847 70.7151 222.811 70.6394 222.791 70.5588C222.767 70.4828 222.759 70.4027 222.766 70.3233C222.773 70.2439 222.796 70.1668 222.834 70.0965C222.872 70.0261 222.923 69.964 222.985 69.9138C223.047 69.8636 223.119 69.8263 223.195 69.8042H223.173Z" fill="#3F2B38"/>
<path d="M223.607 70.9322C223.681 70.9077 223.749 70.869 223.808 70.8182C223.867 70.7674 223.915 70.7055 223.949 70.6361C223.984 70.5667 224.005 70.4911 224.01 70.4137C224.016 70.3363 224.006 70.2586 223.981 70.185C223.921 70.0482 223.812 69.9389 223.675 69.8785C223.538 69.8182 223.384 69.8112 223.242 69.8591C223.1 69.9069 222.981 70.006 222.909 70.1369C222.837 70.2677 222.817 70.4209 222.852 70.5661C222.877 70.6399 222.917 70.708 222.968 70.7664C223.02 70.8249 223.083 70.8725 223.153 70.9065C223.223 70.9406 223.3 70.9604 223.378 70.9648C223.456 70.9692 223.534 70.9581 223.607 70.9322Z" fill="#F5F0F8"/>
<path d="M217.204 82.3569C217.765 84.0082 216.696 85.2858 215.469 85.9434C213.823 86.8176 211.504 86.8699 210.472 85.4203C210.452 85.3841 210.425 85.3525 210.392 85.3275C210.359 85.3026 210.321 85.2849 210.281 85.2756C210.241 85.2664 210.199 85.2658 210.158 85.2738C210.118 85.2819 210.08 85.2985 210.046 85.3225C210.012 85.3465 209.984 85.3773 209.963 85.413C209.943 85.4486 209.93 85.4883 209.925 85.5293C209.921 85.5703 209.926 85.6118 209.939 85.651C209.951 85.6902 209.973 85.7262 210.001 85.7566C211.04 87.2061 213.12 87.4153 214.863 86.8325C215.165 86.73 215.457 86.6026 215.738 86.4514C216.335 86.1847 216.855 85.7703 217.248 85.2474C217.64 84.7245 217.893 84.1103 217.982 83.4627C217.706 83.1299 217.498 82.7467 217.369 82.3345L217.204 82.3569Z" fill="#3F2B38"/>
<path d="M217.668 82.215L217.331 82.3196C217.46 82.7318 217.669 83.115 217.944 83.4478C218.4 83.9133 218.966 84.2556 219.59 84.4425C220.215 84.6294 220.876 84.6548 221.513 84.5163C221.827 84.4672 222.138 84.3923 222.44 84.2921C224.183 83.7018 225.717 82.2897 225.672 80.5039C225.671 80.466 225.662 80.4286 225.647 80.394C225.631 80.3594 225.609 80.3283 225.581 80.3025C225.553 80.2768 225.52 80.2569 225.484 80.244C225.448 80.2311 225.411 80.2254 225.373 80.2274C225.335 80.2274 225.298 80.235 225.263 80.2498C225.228 80.2646 225.197 80.2864 225.171 80.3136C225.145 80.3409 225.125 80.3732 225.112 80.4085C225.099 80.4437 225.094 80.4813 225.096 80.5189C225.141 82.2971 223.271 83.657 221.423 83.9484C220.054 84.1651 218.431 83.7915 217.877 82.1402L217.668 82.215Z" fill="#3F2B38"/>
<path d="M211.28 81.1167C211.244 81.0049 211.218 80.8897 211.205 80.7729C211.218 80.8897 211.244 81.0049 211.28 81.1167Z" fill="#E898BC"/>
<path d="M211.302 79.9357C211.333 79.8305 211.373 79.728 211.421 79.6294C211.373 79.728 211.333 79.8305 211.302 79.9357Z" fill="#E898BC"/>
<path d="M211.22 80.302C211.23 80.2136 211.247 80.1261 211.272 80.0405C211.247 80.1261 211.23 80.2136 211.22 80.302Z" fill="#E898BC"/>
<path d="M213.015 79.1291C213.867 80.6235 216.007 80.5413 217.428 80.3395C219.111 80.093 220.929 79.3607 221.834 77.8365C221.917 77.6872 221.989 77.5324 222.051 77.3732C221.692 76.514 220.63 75.9984 219.246 75.8789C218.048 75.8163 216.849 75.9863 215.715 76.3795C214.609 76.7349 213.581 77.2978 212.686 78.0382C212.711 78.4221 212.824 78.7951 213.015 79.1291ZM219.328 76.8876C219.425 77.179 218.977 77.6348 218.318 77.8215C217.66 78.0083 217.047 77.9785 216.949 77.6871C216.852 77.3957 217.301 76.9399 217.959 76.7531C218.618 76.5663 219.231 76.6036 219.328 76.9025V76.8876Z" fill="#E898BC"/>
<path d="M211.444 79.5774C211.749 78.9978 212.172 78.4887 212.686 78.083L212.604 78.1503C212.126 78.5437 211.731 79.029 211.444 79.5774Z" fill="#E898BC"/>
<path d="M211.205 80.668C211.197 80.5859 211.197 80.5034 211.205 80.4214C211.197 80.5034 211.197 80.5859 211.205 80.668Z" fill="#E898BC"/>
<path d="M211.444 79.5772C211.444 79.5772 211.444 79.5772 211.444 79.6295C211.396 79.7282 211.356 79.8306 211.325 79.9359C211.322 79.9707 211.322 80.0057 211.325 80.0405C211.3 80.1261 211.282 80.2135 211.272 80.302C211.268 80.3417 211.268 80.3818 211.272 80.4215C211.265 80.5036 211.265 80.5861 211.272 80.6681V80.7727C211.286 80.8895 211.311 81.0046 211.347 81.1164C211.863 82.6108 214.459 83.1562 217.272 82.3567L217.399 82.3194L217.735 82.2148L217.945 82.1401C220.817 81.109 222.702 79.0617 222.171 77.4926C222.171 77.4478 222.171 77.4104 222.119 77.373C222.057 77.5322 221.985 77.687 221.902 77.8363C220.997 79.3307 219.179 80.0778 217.496 80.3394C216.06 80.5411 213.935 80.5934 213.082 79.1289C212.894 78.7994 212.781 78.4317 212.753 78.053C212.211 78.4602 211.765 78.9803 211.444 79.5772Z" fill="#E474A5"/>
<path d="M217.96 76.7677C217.301 76.9844 216.853 77.4028 216.95 77.7017C217.047 78.0005 217.698 78.0528 218.319 77.8362C218.94 77.6195 219.426 77.1936 219.329 76.9022C219.231 76.6108 218.618 76.5435 217.96 76.7677Z" fill="#F5F0F8"/>
<path d="M226.6 73.57C227.635 72.373 228.793 71.2886 230.056 70.3347C231.658 69.0907 233.419 68.0655 235.292 67.2862L235.39 67.2414C236.268 66.8796 237.164 66.5629 238.075 66.2925C237.145 66.5109 236.232 66.7981 235.345 67.1517H235.255C231.838 68.4956 228.818 70.6803 226.473 73.5028C225.562 74.5742 224.767 75.7388 224.102 76.9772C224.833 75.7708 225.669 74.6308 226.6 73.57Z" fill="#3F2B38"/>
<path d="M231.2 71.8737C230.062 72.5156 228.978 73.2503 227.961 74.0704C226.608 75.138 225.396 76.3733 224.355 77.7466C225.471 76.4148 226.725 75.205 228.096 74.1377C229.098 73.3474 230.167 72.6449 231.29 72.0381C232.792 71.1949 234.386 70.5255 236.04 70.0431L236.788 69.8414C237.792 69.5783 238.811 69.3786 239.84 69.2437C238.788 69.3266 237.745 69.4966 236.721 69.7517L236.047 69.9236C234.365 70.3941 232.739 71.0481 231.2 71.8737Z" fill="#3F2B38"/>
<path d="M241.179 72.8826C240.472 72.8177 239.763 72.7903 239.054 72.8004C238.115 72.8163 237.177 72.8962 236.249 73.0395C234.89 73.2413 233.55 73.5614 232.247 73.9959C231.301 74.3335 230.377 74.7278 229.479 75.1764C227.67 76.0758 225.999 77.2309 224.52 78.606C226.067 77.2962 227.771 76.182 229.591 75.2885C230.473 74.855 231.383 74.4806 232.314 74.1677C233.594 73.722 234.911 73.3895 236.249 73.174C237.204 73.0174 238.169 72.9201 239.136 72.8826C239.81 72.8601 240.498 72.8527 241.179 72.8826Z" fill="#3F2B38"/>
<path d="M205.543 80.459C206.819 80.7392 208.07 81.1241 209.283 81.6097C208.117 81.0753 206.902 80.6549 205.655 80.3544C203.959 79.9427 202.223 79.7197 200.478 79.6895C198.432 79.6918 196.395 79.9631 194.419 80.4964C193.474 80.7554 192.549 81.0826 191.651 81.4752C192.562 81.1324 193.491 80.8405 194.434 80.601C198.075 79.6842 201.88 79.6356 205.543 80.459Z" fill="#3F2B38"/>
<path d="M204.659 81.7591C206.272 81.8112 207.875 82.0214 209.447 82.3868C207.908 81.955 206.324 81.7042 204.727 81.6396C203.303 81.5746 201.876 81.6371 200.463 81.8264C198.71 82.0892 196.994 82.5504 195.346 83.2012C194.182 83.6605 193.064 84.231 192.01 84.9048C193.097 84.2864 194.23 83.7519 195.398 83.3058C197.038 82.6766 198.745 82.2378 200.485 81.9982C201.866 81.7882 203.263 81.7081 204.659 81.7591Z" fill="#3F2B38"/>
<path d="M204.038 83.5226C205.954 83.1691 207.906 83.0462 209.851 83.1565C207.92 82.9571 205.972 83.0275 204.061 83.3657C202.994 83.5469 201.939 83.7964 200.904 84.1129C199.549 84.5708 198.237 85.1484 196.984 85.8389C195.589 86.6097 194.289 87.54 193.109 88.6109C194.339 87.5983 195.664 86.7075 197.067 85.951C198.311 85.2774 199.616 84.7221 200.964 84.2922C201.968 83.9581 202.995 83.7008 204.038 83.5226Z" fill="#3F2B38"/>
<path d="M250.074 102.748C252.445 104.608 254.787 106.394 255.669 107.231C257.023 108.546 257.913 111.318 258.205 113.051L258.37 113.193C258.848 111.572 260.03 105.475 252.767 100.491C251.875 99.8911 250.946 99.3495 249.984 98.8696C249.984 98.8696 248.914 99.968 250.074 102.748Z" fill="#F39A83"/>
<path d="M256.522 111.594C257.068 112.08 257.644 112.573 258.242 113.088C257.965 111.355 257.06 108.605 255.706 107.268C254.824 106.401 252.482 104.615 250.111 102.785C247.403 100.655 244.658 98.421 243.969 97.3302C243.139 96.0077 241.972 97.3825 241.067 98.9142C241.269 101.461 240.573 103.999 239.1 106.087C239.411 108.362 240.372 110.5 241.867 112.244C242.375 112.874 242.924 113.468 243.513 114.022H245.51C248.178 114.022 250.821 113.962 253.44 113.843C254.367 112.965 255.402 112.209 256.522 111.594Z" fill="#F39A83"/>
<path d="M258.205 113.089C257.606 112.581 257.03 112.087 256.484 111.594C255.365 112.207 254.33 112.96 253.402 113.836C255.183 113.756 256.948 113.646 258.699 113.507L258.369 113.238L258.205 113.089Z" fill="#F39A83"/>
<path d="M224.602 102.628C225.425 101.701 227.594 99.7436 229.838 97.7038C230.781 94.8496 229.636 93.8857 229.636 93.8857C228.583 94.5162 227.582 95.2309 226.644 96.0227C220.211 101.425 221.797 107.23 222.38 108.77L222.537 108.62C222.665 106.842 223.353 104.01 224.602 102.628Z" fill="#F39A83"/>
<path d="M235.576 91.7786C235.197 92.3872 234.75 92.9511 234.244 93.4598C233.87 93.8632 233.436 94.2966 232.973 94.7524C232.03 95.6789 230.945 96.6876 229.868 97.6739C227.624 99.7137 225.44 101.671 224.632 102.598C223.383 104.01 222.695 106.842 222.545 108.575C223.098 108.03 223.637 107.492 224.153 106.961C227.026 108.194 229.39 110.697 231.888 112.722L231.731 112.954C233.833 111.646 235.748 110.06 237.424 108.239C237.922 107.684 238.384 107.097 238.807 106.483C238.912 106.326 238.994 106.184 239.092 106.035C240.566 103.946 241.262 101.409 241.059 98.8619C240.911 97.618 240.528 96.4135 239.93 95.3128C239.152 93.9305 236.69 89.6342 235.576 91.7786Z" fill="#F39A83"/>
<path d="M231.836 112.737C229.3 110.727 226.973 108.209 224.101 106.977C223.585 107.507 223.046 108.045 222.493 108.59L222.336 108.74C221.283 109.776 220.159 110.839 218.962 111.93C222.996 112.573 227.128 113.071 231.357 113.425C231.462 113.268 231.574 113.118 231.679 112.969L231.836 112.737Z" fill="#F39A83"/>
<path d="M239.66 40.739C241.983 39.0667 244.825 38.2724 247.679 38.4974" stroke="#201544" stroke-width="0.28" stroke-linecap="round" stroke-linejoin="round"/>
<path d="M269.358 41.2694C267.144 39.4581 264.357 38.4939 261.496 38.5497" stroke="#201544" stroke-width="0.28" stroke-linecap="round" stroke-linejoin="round"/>
</g>
<defs>
<clipPath id="clip0">
<rect width="150" height="215" fill="white"/>
</clipPath>
<clipPath id="clip1">
<rect width="135" height="110" fill="white" transform="translate(169 4)"/>
</clipPath>
</defs>
</svg>
