<svg width="123" height="163" viewBox="0 0 123 163" fill="none" xmlns="http://www.w3.org/2000/svg">
<g clip-path="url(#clip0)">
<path d="M109.13 60.7297C108.5 59.4697 108.52 59.0197 105.19 57.4897C102.59 56.2897 100.47 56.8097 99.1897 58.1297C83.8297 78.3597 74.5897 103.28 77.8597 108.13C83.1997 116.07 89.3697 105.73 89.3697 105.73C89.3697 105.73 99.9397 85.2997 106.37 71.8097C108.23 67.8997 108.9 65.7097 110.58 61.8897L109.13 60.7297Z" fill="#F39A83"/>
<path d="M72.9199 163C75.0399 137 84.1899 97.5299 78.3199 93.2699C72.7599 89.2699 64.5199 87.4199 56.1899 87.2699C48.1899 87.1299 38.3899 88.0199 30.4199 90.7699C24.7999 92.7099 30.8799 135.68 31.1799 163H72.9199Z" fill="#F39A83"/>
<path d="M50.43 63.3097C54.92 60.3697 63.24 65.1097 63.24 65.1097L63.42 89.1097C63.42 89.1097 51 94.3697 49.42 91.2797C47.84 88.1897 47.34 65.3297 50.43 63.3097Z" fill="#F39A83"/>
<path d="M56.71 81.7697C59.4937 83.2705 61.8036 85.5181 63.38 88.2597V88.3197L63.24 65.1097C63.24 65.1097 54.92 60.3697 50.43 63.3097C48.91 64.3097 48.28 72.3097 48.23 80.5797C51.1117 80.0937 54.0733 80.5093 56.71 81.7697Z" fill="#E28D78"/>
<path d="M38.6499 67.3295L38.6999 67.4395C40.8099 72.4395 44.4899 76.2295 49.8599 77.6195C52.5858 78.3523 55.4451 78.4391 58.2104 77.8732C60.9758 77.3073 63.571 76.1042 65.7899 74.3595C68.5981 71.9574 70.9873 69.1052 72.8599 65.9195C74.5099 63.2595 74.8599 59.8595 75.8599 56.9195C77.3647 52.1099 78.4455 47.1777 79.0899 42.1795C79.4199 39.6895 79.6299 37.1795 79.7399 34.6595C79.9233 32.6462 79.3611 30.6356 78.1599 29.0095C73.7999 21.9495 65.9999 17.4395 57.8999 16.2395C53.6242 15.5549 49.2447 15.9643 45.1699 17.4295C42.3299 18.4895 39.6299 20.1695 38.2999 22.9395C31.7599 36.6095 32.9299 53.6095 38.6499 67.3295Z" fill="#F39A83"/>
<path d="M83.0598 52.0795C81.8698 55.4995 76.1398 59.5095 75.2598 56.3195C74.7298 54.3195 75.0798 52.2395 76.2598 48.8195C77.4398 45.3995 76.4298 42.8195 79.5498 43.9295C81.0934 44.5481 82.3292 45.7528 82.9869 47.2801C83.6447 48.8074 83.6709 50.533 83.0598 52.0795Z" fill="#F39A83"/>
<path d="M78.58 47.0996H78.41L78.35 47.1796C77.1 48.2396 77.35 50.8796 77.11 52.3396C77.0085 52.9528 76.875 53.5603 76.71 54.1596C77.5346 54.2407 78.3616 54.0299 79.0469 53.5639C79.7321 53.0979 80.2322 52.4064 80.46 51.6096C80.8046 50.7619 80.8004 49.8123 80.4483 48.9676C80.0962 48.1229 79.4247 47.4515 78.58 47.0996V47.0996Z" fill="#EE7379"/>
<path d="M79.7299 56.9499C79.7584 57.3008 79.6823 57.6522 79.5111 57.9597C79.3399 58.2672 79.0814 58.5171 78.7682 58.6778C78.455 58.8384 78.1012 58.9026 77.7516 58.8622C77.4019 58.8218 77.0721 58.6787 76.8038 58.4509C76.5355 58.2231 76.3407 57.9209 76.2441 57.5824C76.1475 57.244 76.1535 56.8845 76.2611 56.5494C76.3688 56.2143 76.5734 55.9186 76.8491 55.6998C77.1248 55.481 77.4592 55.3488 77.8099 55.3199C78.0431 55.3008 78.2777 55.3278 78.5004 55.3993C78.7231 55.4709 78.9295 55.5856 79.1078 55.737C79.2861 55.8884 79.4328 56.0734 79.5396 56.2816C79.6463 56.4897 79.711 56.7168 79.7299 56.9499V56.9499Z" fill="white"/>
<path d="M28.7 50.4896C29.35 54.0596 34.41 58.8896 35.76 55.8696C36.58 54.0196 36.56 51.8696 35.91 48.2996C35.26 44.7296 36.65 42.3696 33.4 42.9696C30.15 43.5696 28.05 46.9296 28.7 50.4896Z" fill="#F39A83"/>
<path d="M33.8797 46.2495H34.0497L34.0997 46.3395C35.1697 47.5795 34.5297 50.1495 34.5397 51.6295C34.5397 52.2595 34.5897 52.8795 34.6597 53.4995C33.8461 53.4564 33.072 53.1347 32.4675 52.5884C31.863 52.0422 31.4648 51.3046 31.3397 50.4995C31.2217 50.0535 31.1941 49.5885 31.2585 49.1317C31.3229 48.6749 31.4779 48.2356 31.7146 47.8396C31.9513 47.4436 32.2647 47.0989 32.6365 46.8259C33.0084 46.5528 33.431 46.3568 33.8797 46.2495V46.2495Z" fill="#EE7379"/>
<path d="M31.2499 55.8097C31.1669 56.1518 31.1872 56.5108 31.3082 56.8414C31.4293 57.172 31.6456 57.4592 31.9299 57.6668C32.2142 57.8745 32.5536 57.9931 32.9054 58.0078C33.2571 58.0225 33.6053 57.9326 33.9059 57.7494C34.2065 57.5663 34.4461 57.2981 34.5943 56.9788C34.7425 56.6595 34.7927 56.3034 34.7385 55.9555C34.6844 55.6077 34.5283 55.2837 34.29 55.0246C34.0517 54.7654 33.742 54.5828 33.3999 54.4997C33.1727 54.4431 32.9365 54.4322 32.705 54.4676C32.4735 54.5029 32.2513 54.5839 32.0514 54.7057C31.8514 54.8276 31.6776 54.9879 31.54 55.1774C31.4024 55.3669 31.3038 55.5818 31.2499 55.8097V55.8097Z" fill="white"/>
<path d="M8.07985 139.36C6.54985 139.36 6.12985 139.64 2.81985 137.41C1.78029 136.771 0.966176 135.823 0.491112 134.699C0.0160482 133.575 -0.0962649 132.331 0.169846 131.14C10.4198 107.86 28.3898 88.3897 34.7698 88.9697C45.2298 89.9697 36.3898 98.5697 36.3898 98.5697C36.3898 98.5697 21.2198 126 12.5398 138.36C10.9298 140.63 9.37985 136.61 8.07985 139.36V139.36Z" fill="#F39A83"/>
<path d="M89.6297 163C89.283 157.253 88.773 151.51 88.0997 145.77C88.1554 137.255 87.604 128.747 86.4497 120.31C85.2797 111.69 84.7097 97.0999 77.9897 90.7499C76.4897 89.3299 64.0797 87.1999 64.1697 87.9599C64.554 89.7853 64.4854 91.6771 63.9697 93.4699C62.2497 99.0599 54.7797 101.68 50.2497 97.5899C48.9353 96.2807 47.9772 94.6575 47.4662 92.8742C46.9551 91.0908 46.9082 89.2065 47.3297 87.3999C44.6897 88.0499 42.1797 87.5399 39.5397 87.6799C36.9064 87.7533 34.2927 88.1565 31.7597 88.8799C26.3197 90.5899 28.1697 99.4999 26.8197 103.7C22.3597 117.62 22.0397 134.14 20.5097 148.7C20.0097 153.46 19.5597 158.223 19.1597 162.99L89.6297 163Z" fill="#AF64A5"/>
<path d="M78.1301 27.8398C75.5201 21.4898 71.2901 17.6098 64.6901 15.7498C64.2497 15.564 63.7712 15.4861 63.2946 15.5226C62.818 15.5591 62.357 15.709 61.9501 15.9598C61.9525 15.7068 61.9022 15.4561 61.8024 15.2236C61.7025 14.9912 61.5553 14.7821 61.3701 14.6098C59.4801 12.9998 56.1801 13.3898 53.9101 13.6898C51.0681 14.0449 48.3213 14.9447 45.8201 16.3398C42.9069 17.8913 40.2739 19.9193 38.0301 22.3398C33.9569 27.0654 31.8617 33.1791 32.1801 39.4098C32.3901 42.8598 33.0701 46.7098 35.1101 49.5798C35.103 48.3441 35.4127 47.1273 36.0097 46.0454C36.6066 44.9635 37.4709 44.0526 38.5201 43.3998C40.4222 42.3176 42.4334 41.4394 44.5201 40.7798C51.3935 38.1012 57.3386 33.4799 61.6301 27.4798C61.7901 27.2498 62.0001 26.9898 62.2801 26.9898C62.4244 27.0031 62.5626 27.0549 62.6801 27.1398C67.3824 29.8636 71.0951 34.0141 73.2801 38.9898C74.3557 41.5213 75.0564 44.1961 75.3601 46.9298C75.5101 48.0698 76.0601 53.2798 77.8801 50.7198C78.7851 49.063 79.458 47.2898 79.8801 45.4498C81.4701 39.3198 80.5201 33.6098 78.1301 27.8398Z" fill="#201544"/>
<path d="M113.57 18.7099C113.57 18.7099 106.92 15.1599 111.16 5.60986C111.16 5.60986 112.96 5.74986 113.43 9.99986C113.755 12.4056 113.899 14.8325 113.86 17.2599C113.839 17.7554 113.741 18.2446 113.57 18.7099Z" fill="#F39A83"/>
<path d="M120 19.6097C120 19.6097 122.93 14.6097 122.83 9.60973C122.73 4.60973 120.11 2.60973 118.45 1.80973C117.33 1.24973 113.77 -0.390272 114 1.49973C114.23 3.38973 112.11 11.4297 111.89 13.4997C111.67 15.5697 113.44 18.9897 114 19.2097C114.56 19.4297 120 19.6097 120 19.6097Z" fill="#F39A83"/>
<path d="M113.61 16.6096C116.03 16.0896 118.69 16.6096 121.25 16.7796C121.44 25.7796 119.65 34.7796 117.25 43.3096C115.5 49.7981 113.274 56.1487 110.59 62.3096C110.385 62.9104 110.014 63.4409 109.52 63.8396C109.136 64.0675 108.705 64.2043 108.26 64.2396C107.137 64.3852 105.996 64.3139 104.9 64.0295C103.717 63.5634 102.726 62.7104 102.09 61.6096C101.3 60.6096 97.2396 61.2096 97.9296 59.8296C104.1 47.3496 111.9 27.5396 113.61 16.6096Z" fill="#F39A83"/>
<path d="M47.46 64.0698C47.87 67.2098 51 69.6098 54.87 69.6098C58.74 69.6098 61.87 67.1698 62.27 64.0298L47.46 64.0698Z" fill="white"/>
<path d="M64.9097 49.8597C64.9117 50.1532 64.8263 50.4408 64.6644 50.6857C64.5026 50.9306 64.2715 51.1218 64.0007 51.2351C63.7298 51.3483 63.4314 51.3785 63.1434 51.3217C62.8554 51.2649 62.5908 51.1237 62.3832 50.9162C62.1756 50.7086 62.0344 50.444 61.9777 50.1559C61.9209 49.8679 61.951 49.5695 62.0643 49.2987C62.1775 49.0278 62.3688 48.7968 62.6137 48.6349C62.8586 48.4731 63.1461 48.3877 63.4397 48.3897C63.8295 48.3897 64.2034 48.5446 64.4791 48.8202C64.7548 49.0959 64.9097 49.4698 64.9097 49.8597V49.8597Z" fill="#201544"/>
<path d="M48.9399 49.8596C48.9419 50.1528 48.8568 50.4399 48.6954 50.6846C48.534 50.9293 48.3035 51.1205 48.0333 51.2341C47.763 51.3477 47.4651 51.3784 47.1774 51.3224C46.8896 51.2665 46.625 51.1263 46.417 50.9197C46.209 50.7131 46.0671 50.4494 46.0092 50.1621C45.9512 49.8747 45.98 49.5766 46.0917 49.3056C46.2034 49.0346 46.3931 48.8029 46.6367 48.6398C46.8803 48.4767 47.1668 48.3897 47.4599 48.3896C47.8507 48.3896 48.2257 48.5442 48.5029 48.8196C48.7802 49.095 48.9373 49.4689 48.9399 49.8596V49.8596Z" fill="#201544"/>
<path d="M42.9097 45.3895C44.8826 43.8712 47.3336 43.1086 49.8197 43.2396" stroke="#201544" stroke-width="0.15" stroke-linecap="round" stroke-linejoin="round"/>
<path d="M68.3697 45.3899C66.3937 43.87 63.9391 43.1074 61.4497 43.2399" stroke="#201544" stroke-width="0.15" stroke-linecap="round" stroke-linejoin="round"/>
<path d="M54.7997 50.2495C55.4397 52.0795 54.5497 53.9295 54.1897 55.5995C53.8053 56.2918 53.5766 57.0597 53.5197 57.8495C53.8941 58.5837 54.3761 59.2578 54.9497 59.8495C54.4731 59.7314 54.0269 59.5134 53.6408 59.21C53.2546 58.9066 52.9373 58.5247 52.7097 58.0895C52.5624 57.1138 52.6621 56.1167 52.9997 55.1895C53.7866 53.6171 54.3905 51.9596 54.7997 50.2495Z" fill="#DE7778"/>
<path d="M21.0998 163C17.8548 153.345 15.2327 143.491 13.2498 133.5C10.9009 132.751 8.4629 132.317 5.9998 132.21C1.1398 132.01 1.9998 131.13 0.0498047 133.5C3.29479 143.558 7.14857 153.41 11.5898 163H21.0998Z" fill="#F39A83"/>
<path d="M34.3798 88.3196C28.8998 87.8196 13.1998 101.9 3.31982 120.71C5.44982 125.51 13.8598 130.92 19.4898 131.6C28.2598 119.13 37.9998 102.61 37.9998 102.61C37.9998 102.61 44.8398 89.2896 34.3798 88.3196Z" fill="#AF64A5"/>
<path d="M76.4198 106.36C73.7298 101.56 80.1698 81.4896 93.3198 64.7896C98.5698 64.7896 106.94 70.2396 109.85 75.1096C102.05 88.2096 85.7898 114.75 85.7898 114.75C85.7898 114.75 81.5698 115.52 76.4198 106.36Z" fill="#AF64A5"/>
<path d="M76.5796 15.4797C78.4841 14.3154 80.5356 13.4108 82.6796 12.7897C92.4196 10.4597 95.5596 18.7897 96.5096 26.8497C97.1096 31.9397 95.7896 36.7597 96.9296 41.9197C96.9296 46.6697 101.09 52.6497 103.93 56.2297C97.7996 55.1197 91.0696 53.6097 87.4596 48.6097C85.6296 46.0397 84.8796 42.8997 83.8596 39.9197C82.1196 34.8497 79.1696 32.6497 75.1896 29.5497C71.8096 26.9297 70.1096 24.0597 71.9196 19.7797C72.5396 18.2897 74.4496 16.7497 76.5796 15.4797Z" fill="#201544"/>
<path d="M38.9999 13.6599C37.0945 12.4949 35.0434 11.5871 32.8999 10.9599C23.1799 8.60993 19.9999 16.9799 19.0899 25.0199C18.4899 30.1199 19.7999 34.9299 18.6699 40.0999C18.6699 44.8399 14.5099 50.8299 11.6699 54.3999C17.7799 53.2999 24.5199 51.8199 28.1199 46.7599C29.9499 44.1999 30.6999 41.0499 31.7199 38.0799C33.4599 32.9999 36.4099 30.7999 40.3999 27.7099C43.7699 25.0799 45.4699 22.2199 43.6699 17.9399C43.0599 16.4699 41.1399 14.9299 38.9999 13.6599Z" fill="#201544"/>
</g>
<defs>
<clipPath id="clip0">
<rect width="122.86" height="162.39" fill="white" transform="translate(0 0.609863)"/>
</clipPath>
</defs>
</svg>
