<svg width="301" height="397" viewBox="0 0 301 397" fill="none" xmlns="http://www.w3.org/2000/svg">
<path d="M243.61 145.819C242.381 143.365 242.42 142.488 235.919 139.508C230.844 137.171 226.706 138.184 224.207 140.755C194.224 180.16 176.188 228.701 182.571 238.148C192.995 253.614 205.038 233.473 205.038 233.473C205.038 233.473 225.671 193.678 238.223 167.402C241.854 159.785 243.161 155.52 246.441 148.079L243.61 145.819Z" fill="#F39A83"/>
<path d="M172.927 345.028C177.065 294.383 194.926 217.501 183.468 209.203C172.615 201.411 156.53 197.808 140.27 197.516C124.654 197.243 105.524 198.976 89.9661 204.333C78.9958 208.112 90.864 291.812 91.4496 345.028H172.927Z" fill="#F39A83"/>
<path d="M129.027 150.845C137.791 145.118 154.032 154.351 154.032 154.351L154.384 201.1C154.384 201.1 130.139 211.346 127.055 205.327C123.971 199.308 122.995 154.78 129.027 150.845Z" fill="#F39A83"/>
<path d="M141.286 186.803C146.719 189.726 151.228 194.104 154.306 199.444V199.561L154.032 154.351C154.032 154.351 137.791 145.118 129.027 150.845C126.06 152.793 124.83 168.376 124.732 184.485C130.358 183.538 136.139 184.347 141.286 186.803Z" fill="#E28D78"/>
<path d="M106.032 158.675L106.13 158.89C110.248 168.629 117.432 176.011 127.914 178.719C133.235 180.146 138.816 180.315 144.214 179.213C149.612 178.111 154.678 175.767 159.01 172.369C164.491 167.69 169.155 162.134 172.811 155.929C176.031 150.747 176.715 144.125 178.667 138.398C181.604 129.029 183.714 119.422 184.972 109.686C185.616 104.836 186.026 99.9471 186.24 95.0385C186.598 91.1168 185.501 87.2005 183.156 84.033C174.645 70.2811 159.42 61.4962 143.608 59.1587C135.262 57.8251 126.713 58.6226 118.759 61.4767C113.215 63.5414 107.945 66.8139 105.349 72.2095C92.5825 98.8368 94.8664 131.951 106.032 158.675Z" fill="#F39A83"/>
<path d="M192.721 128.971C190.398 135.632 179.213 143.443 177.495 137.23C176.461 133.334 177.144 129.282 179.447 122.621C181.751 115.959 179.779 110.933 185.87 113.095C188.883 114.3 191.295 116.647 192.579 119.622C193.863 122.597 193.914 125.958 192.721 128.971Z" fill="#F39A83"/>
<path d="M183.975 119.27H183.644L183.526 119.426C181.086 121.491 181.574 126.633 181.106 129.477C180.908 130.672 180.647 131.855 180.325 133.022C181.935 133.18 183.549 132.77 184.887 131.862C186.225 130.954 187.201 129.607 187.645 128.055C188.318 126.404 188.31 124.554 187.623 122.909C186.935 121.264 185.624 119.956 183.975 119.27V119.27Z" fill="#EE7379"/>
<path d="M186.22 138.456C186.276 139.14 186.127 139.824 185.793 140.423C185.459 141.022 184.954 141.509 184.343 141.822C183.731 142.135 183.041 142.26 182.358 142.181C181.676 142.103 181.032 141.824 180.508 141.38C179.984 140.936 179.604 140.348 179.416 139.688C179.227 139.029 179.239 138.329 179.449 137.676C179.659 137.023 180.058 136.448 180.597 136.021C181.135 135.595 181.787 135.338 182.472 135.281C182.927 135.244 183.385 135.297 183.82 135.436C184.255 135.575 184.657 135.799 185.006 136.094C185.354 136.389 185.64 136.749 185.848 137.155C186.057 137.56 186.183 138.002 186.22 138.456V138.456Z" fill="white"/>
<path d="M86.6093 125.873C87.8781 132.827 97.7553 142.235 100.391 136.353C101.991 132.749 101.952 128.561 100.683 121.607C99.4145 114.654 102.128 110.057 95.7838 111.225C89.4397 112.394 85.3405 118.939 86.6093 125.873Z" fill="#F39A83"/>
<path d="M96.7209 117.615H97.0527L97.1503 117.79C99.239 120.205 97.9897 125.211 98.0092 128.094C98.0092 129.321 98.1068 130.529 98.2434 131.737C96.6552 131.653 95.1443 131.026 93.9643 129.962C92.7842 128.898 92.0069 127.461 91.7627 125.893C91.5324 125.024 91.4785 124.118 91.6042 123.229C91.7299 122.339 92.0326 121.483 92.4946 120.712C92.9565 119.94 93.5684 119.269 94.2942 118.737C95.02 118.205 95.8451 117.824 96.7209 117.615V117.615Z" fill="#EE7379"/>
<path d="M91.5872 136.236C91.4252 136.902 91.4648 137.602 91.7011 138.245C91.9374 138.889 92.3597 139.449 92.9146 139.853C93.4695 140.258 94.1322 140.489 94.8187 140.518C95.5053 140.546 96.185 140.371 96.7718 140.014C97.3586 139.657 97.8262 139.135 98.1155 138.513C98.4048 137.891 98.5028 137.197 98.3971 136.52C98.2914 135.842 97.9867 135.211 97.5216 134.707C97.0565 134.202 96.4518 133.846 95.7841 133.684C95.3405 133.574 94.8794 133.553 94.4276 133.622C93.9757 133.69 93.542 133.848 93.1517 134.086C92.7613 134.323 92.4221 134.635 92.1535 135.004C91.885 135.373 91.6925 135.792 91.5872 136.236V136.236Z" fill="white"/>
<path d="M46.3584 298.98C43.3718 298.98 42.5519 299.526 36.0907 295.182C34.0615 293.937 32.4723 292.091 31.545 289.902C30.6177 287.712 30.3984 285.289 30.9179 282.969C50.9261 237.623 86.0039 199.698 98.4578 200.827C118.876 202.775 101.62 219.527 101.62 219.527C101.62 219.527 72.0079 272.957 55.0644 297.033C51.9216 301.454 48.896 293.624 46.3584 298.98V298.98Z" fill="#F39A83"/>
<path d="M205.546 345.028C202.972 333.607 200.178 318.266 199.464 307.031C198.64 294.072 196.901 279.695 196.901 261.432C196.901 243.857 195.942 216.663 182.825 204.294C179.897 201.528 155.672 197.379 155.848 198.86C156.598 202.416 156.464 206.101 155.457 209.593C152.1 220.481 137.518 225.585 128.676 217.618C126.11 215.068 124.24 211.906 123.242 208.432C122.245 204.958 122.153 201.288 122.976 197.769C117.822 199.035 112.923 198.042 107.769 198.314C102.629 198.457 97.5273 199.243 92.5828 200.652C81.9638 203.983 85.575 221.338 82.9398 229.519C74.2338 256.634 73.6091 288.812 70.6225 317.173C69.6465 326.445 68.7681 335.724 67.9873 345.008C67.9873 345.008 104.094 368.277 133.597 368.277C163.1 368.277 205.546 345.028 205.546 345.028Z" fill="#AF64A5"/>
<path d="M183.097 81.7542C178.002 69.3852 169.745 61.8275 156.862 58.2045C156.002 57.8425 155.068 57.6908 154.138 57.7619C153.207 57.8331 152.308 58.1251 151.513 58.6135C151.518 58.1207 151.42 57.6324 151.225 57.1796C151.03 56.7269 150.743 56.3196 150.381 55.9839C146.692 52.8478 140.25 53.6075 135.819 54.1918C130.271 54.8836 124.91 56.6362 120.027 59.3537C114.341 62.3759 109.201 66.3262 104.821 71.0409C96.8699 80.2458 92.7801 92.1545 93.4016 104.291C93.8115 111.011 95.1389 118.51 99.121 124.101C99.1072 121.694 99.7117 119.324 100.877 117.216C102.042 115.109 103.729 113.335 105.777 112.063C109.49 109.955 113.416 108.244 117.49 106.96C130.906 101.742 142.512 92.7404 150.889 81.0529C151.201 80.6049 151.611 80.0985 152.157 80.0985C152.439 80.1244 152.709 80.2253 152.938 80.3907C162.117 85.6962 169.365 93.781 173.63 103.473C175.729 108.404 177.097 113.614 177.69 118.939C177.983 121.16 179.056 131.308 182.609 126.321C184.375 123.094 185.689 119.64 186.513 116.056C189.617 104.116 187.762 92.9934 183.097 81.7542Z" fill="#201544"/>
<path d="M252.277 63.97C252.277 63.97 239.296 57.055 247.573 38.4529C247.573 38.4529 251.086 38.7256 252.004 47.004C252.639 51.6901 252.92 56.4174 252.843 61.1455C252.803 62.1107 252.612 63.0637 252.277 63.97Z" fill="#F39A83"/>
<path d="M264.829 65.7231C264.829 65.7231 270.548 55.9838 270.353 46.2444C270.158 36.5051 265.043 32.6093 261.803 31.0511C259.617 29.9602 252.667 26.7657 253.116 30.4472C253.565 34.1287 249.427 49.7895 248.998 53.8216C248.568 57.8537 252.023 64.5154 253.116 64.944C254.21 65.3725 264.829 65.7231 264.829 65.7231Z" fill="#F39A83"/>
<path d="M252.355 59.8795C257.079 58.8666 262.271 59.8795 267.268 60.2106C267.639 77.7414 264.145 95.2722 259.46 111.888C256.045 124.526 251.7 136.896 246.46 148.897C246.06 150.067 245.335 151.101 244.371 151.877C243.622 152.321 242.78 152.588 241.911 152.656C239.719 152.94 237.493 152.801 235.353 152.247C233.043 151.339 231.11 149.678 229.868 147.534C228.325 145.586 220.4 146.754 221.747 144.066C233.791 119.757 249.017 81.1697 252.355 59.8795Z" fill="#F39A83"/>
<path d="M123.229 152.325C124.029 158.442 130.139 163.117 137.693 163.117C145.247 163.117 151.357 158.364 152.138 152.248L123.229 152.325Z" fill="white"/>
<path d="M157.292 124.646C157.295 125.218 157.129 125.778 156.813 126.255C156.497 126.732 156.046 127.105 155.517 127.325C154.989 127.546 154.406 127.605 153.844 127.494C153.282 127.383 152.765 127.108 152.36 126.704C151.955 126.3 151.679 125.784 151.568 125.223C151.457 124.662 151.516 124.081 151.737 123.553C151.958 123.026 152.332 122.576 152.81 122.261C153.288 121.945 153.849 121.779 154.422 121.783C155.183 121.783 155.913 122.084 156.451 122.621C156.989 123.158 157.292 123.887 157.292 124.646V124.646Z" fill="#201544"/>
<path d="M126.118 124.646C126.122 125.217 125.955 125.776 125.64 126.253C125.325 126.73 124.875 127.102 124.348 127.323C123.82 127.544 123.239 127.604 122.677 127.495C122.116 127.386 121.599 127.113 121.193 126.711C120.787 126.309 120.51 125.795 120.397 125.235C120.284 124.675 120.34 124.095 120.558 123.567C120.776 123.039 121.146 122.588 121.622 122.27C122.097 121.952 122.657 121.783 123.229 121.783C123.992 121.783 124.723 122.084 125.265 122.62C125.806 123.157 126.113 123.885 126.118 124.646V124.646Z" fill="#201544"/>
<path d="M114.347 115.939C118.198 112.982 122.982 111.496 127.835 111.751" stroke="#201544" stroke-width="0.15" stroke-linecap="round" stroke-linejoin="round"/>
<path d="M164.045 115.939C160.188 112.979 155.396 111.493 150.537 111.751" stroke="#201544" stroke-width="0.15" stroke-linecap="round" stroke-linejoin="round"/>
<path d="M137.558 125.406C138.807 128.97 137.069 132.574 136.367 135.827C135.616 137.175 135.17 138.671 135.059 140.21C135.79 141.64 136.731 142.953 137.85 144.105C136.92 143.875 136.049 143.451 135.295 142.86C134.541 142.269 133.922 141.525 133.478 140.677C133.19 138.776 133.385 136.834 134.044 135.028C135.58 131.965 136.759 128.737 137.558 125.406Z" fill="#DE7778"/>
<path d="M70.43 346.353C64.0956 327.546 60.3209 307.027 56.4503 287.566C51.8651 286.107 47.1061 285.262 42.2981 285.053C32.8113 284.663 34.49 282.949 30.6836 287.566C37.0179 307.158 40.5837 316.935 49.2531 335.615C49.2531 335.615 54.6219 340.537 58.6485 342.774C62.675 345.011 70.43 346.353 70.43 346.353Z" fill="#F39A83"/>
<path d="M97.6961 199.561C86.9991 198.587 56.3524 226.013 37.0664 262.652C41.2242 272.002 57.6407 282.54 68.6306 283.865C85.7498 259.575 104.762 227.396 104.762 227.396C104.762 227.396 118.114 201.45 97.6961 199.561Z" fill="#AF64A5"/>
<path d="M179.76 234.701C174.509 225.351 187.08 186.257 212.749 153.728C222.997 153.728 239.336 164.344 245.016 173.83C229.79 199.347 196.796 253.874 196.796 253.874C196.796 253.874 189.813 252.543 179.76 234.701Z" fill="#AF64A5"/>
<path d="M180.071 57.6783C183.789 55.4105 187.793 53.6483 191.979 52.4385C210.991 47.9 217.121 64.1257 218.975 79.8255C220.146 89.7402 217.57 99.1289 219.795 109.18C219.795 118.432 227.915 130.081 233.459 137.054C221.493 134.892 208.356 131.95 201.309 122.211C197.737 117.205 196.273 111.089 194.282 105.284C190.885 95.4085 185.127 91.1232 177.358 85.0848C170.76 79.9813 167.442 74.391 170.975 66.0541C172.185 63.1518 175.914 60.152 180.071 57.6783Z" fill="#201544"/>
<path d="M106.715 54.1332C102.996 51.864 98.9917 50.0956 94.8076 48.874C75.834 44.2965 69.6265 60.6002 67.8502 76.261C66.679 86.1951 69.2361 95.5644 67.0304 105.635C67.0304 114.868 58.9099 126.535 53.3662 133.489C65.2931 131.347 78.4497 128.464 85.4769 118.608C89.0491 113.621 90.5131 107.485 92.5042 101.7C95.9007 91.805 101.659 87.5197 109.448 81.5008C116.026 76.3779 119.344 70.807 115.831 62.4701C114.64 59.6067 110.892 56.607 106.715 54.1332Z" fill="#201544"/>
</svg>
