<svg width="112" height="239" viewBox="0 0 112 239" fill="none" xmlns="http://www.w3.org/2000/svg">
<path d="M48.6745 81.229C49.5987 81.5239 49.6577 81.1503 52.1744 80.8652C52.5877 80.8311 52.99 80.7141 53.3571 80.5211C53.7242 80.3281 54.0487 80.0631 54.3111 79.742C54.5735 79.4208 54.7686 79.0501 54.8845 78.6519C55.0005 78.2537 55.035 77.8362 54.9861 77.4243C52.489 60.0725 44.457 43.6251 40.4853 42.8779C33.9967 41.6687 36.0908 49.7007 36.0908 49.7007C36.0908 49.7007 42.2057 64.6341 45.4598 74.416C46.3448 77.108 47.0735 79.8489 47.6423 82.625L48.6745 81.229Z" fill="#F39A83"/>
<path d="M47.0515 49.7299C45.9436 47.5126 44.6022 45.4199 43.0503 43.4872C42.176 42.6076 41.0834 41.9765 39.8847 41.6586C39.3245 41.5796 38.7536 41.6327 38.2176 41.8136C37.6816 41.9946 37.1954 42.2983 36.7977 42.7007C35.4036 43.9745 34.5489 45.733 34.4087 47.6162C34.2023 50.2018 35.4902 52.6792 36.4733 54.9896C37.4564 57.2999 38.4395 59.6397 39.4226 61.9598C40.4057 64.2799 41.0349 66.7574 42.1065 69.1856C42.3326 69.7067 44.6626 76.0674 45.0558 76.0674C48.2706 75.9691 53.6678 73.1181 55.9585 71.8007C54.4498 66.8411 52.614 61.987 50.4629 57.2704C49.4896 54.8421 48.3197 52.1484 47.0515 49.7299Z" fill="#8F5891"/>
<path d="M44.3479 171.734C44.3479 171.734 41.0151 176.531 8.17933 198.73C3.9323 201.591 3.68652 196.95 3.68652 196.95C3.68652 196.95 32.118 168.018 36.3945 164.832C40.671 161.647 44.3479 171.734 44.3479 171.734Z" fill="#F39A83"/>
<path d="M15.1291 195.132C25.5009 188.299 48.0436 173.729 50.7275 170.996C54.4633 167.172 40.0411 160.782 40.0411 160.782C40.0411 160.782 33.356 163.987 10.1055 189.371L15.1291 195.132Z" fill="#404681"/>
<path d="M50.4337 108.038C56.8042 130.65 52.7637 161.883 52.0558 168.44C51.348 174.997 41.4677 169.109 41.4677 169.109C41.4677 169.109 27.8517 117.987 28.7463 113.249C29.641 108.51 49.018 102.995 50.4337 108.038Z" fill="#404681"/>
<path d="M12.2988 110.85C9.6346 134.169 15.1695 164.636 16.9194 170.996C18.6694 177.357 27.4583 169.954 27.4583 169.954C27.4583 169.954 35.7066 117.309 34.0747 112.836C32.4427 108.363 12.8985 105.639 12.2988 110.85Z" fill="#474F91"/>
<path d="M12.4075 208.934C12.8991 210.311 13.3906 211.687 13.8625 213.073C14.0591 213.663 14.1476 214.519 13.5578 214.715C7.89506 212.071 5.61425 207.568 2.2127 202.643C1.22959 201.266 0.246485 199.615 1.28858 197.992C1.51606 197.657 1.78345 197.35 2.0849 197.078C3.25608 195.978 4.54904 195.015 5.93868 194.208C6.45973 196.292 7.90489 197.235 9.35989 198.573C9.0453 200.185 8.79952 199.674 9.41888 201.197C10.461 203.76 11.4572 206.339 12.4075 208.934Z" fill="#1C0F39"/>
<path d="M26.1208 168.981C26.1208 168.981 27.5463 174.654 22.6897 213.998C22.0605 219.07 18.4034 216.21 18.4034 216.21C18.4034 216.21 15.2771 175.765 15.6605 170.446C16.0439 165.127 26.1208 168.981 26.1208 168.981Z" fill="#F39A83"/>
<path d="M24.5091 206.388C26.1705 194.08 27.8713 169.905 27.8418 165.294C27.8418 159.956 16.3493 165.294 16.3493 165.294C16.3493 165.294 13.0067 172.176 16.8703 206.398L24.5091 206.388Z" fill="#474F91"/>
<path d="M33.1601 217.517C34.5266 218.048 35.8833 218.579 37.2301 219.139C37.8102 219.375 38.5082 219.866 38.2722 220.447C32.5505 222.973 27.6645 221.734 21.7265 221.056C20.0651 220.869 18.1382 220.564 17.5975 218.697C17.4992 218.304 17.4496 217.902 17.45 217.497C17.384 215.893 17.5061 214.286 17.8138 212.709C19.721 213.693 21.3628 213.24 23.3486 212.995C24.3318 214.292 23.8107 214.145 25.364 214.686C27.9791 215.58 30.5843 216.524 33.1601 217.517Z" fill="#1C0F39"/>
<path d="M33.4453 40.7246C34.2827 40.4426 35.0923 40.0839 35.8638 39.653C39.7962 37.4017 42.1557 33.1252 43.129 28.7307C44.3185 23.3826 44.5446 16.5107 42.6964 11.3297C41.8141 8.43831 40.2144 5.81723 38.0463 3.71062C36.4539 2.40501 34.578 1.49026 32.5687 1.03958C30.5595 0.588906 28.4726 0.614807 26.4751 1.11522C23.6438 1.76407 19.4262 3.31738 17.4502 5.58836C14.5697 8.8916 13.1147 14.9869 12.4658 19.2142C11.6204 24.6312 11.2959 29.1535 13.7537 34.0395C14.8004 36.0552 16.1798 37.8799 17.8336 39.4368C20.3995 41.4718 23.8994 41.8552 27.1731 41.7372C29.3022 41.7086 31.4154 41.3674 33.4453 40.7246Z" fill="#201544"/>
<path d="M17.1557 86.6455L40.0522 86.1932C40.0522 72.1839 45.6166 46.2299 42.0185 43.7623C38.8823 41.629 34.2912 40.813 29.6805 40.813C24.851 40.8144 20.0547 41.6116 15.4844 43.1724C12.132 44.4407 17.1753 72.0463 17.1557 86.6455Z" fill="#F39A83"/>
<path d="M26.0713 27.6593C28.5094 25.9585 33.189 28.4457 33.189 28.4457L33.6805 41.7079C33.6805 41.7079 26.8971 44.8243 25.973 43.1432C25.0489 41.4621 24.3902 28.8291 26.0713 27.6593Z" fill="#F39A83"/>
<path d="M29.8562 37.7655C31.4193 38.5514 32.7331 39.7563 33.651 41.2457L33.1693 28.4653C33.1693 28.4653 28.4897 25.978 26.0516 27.6788C25.2258 28.2588 25.0095 32.7025 25.1176 37.2641C26.711 36.9372 28.3665 37.1124 29.8562 37.7655Z" fill="#E28D78"/>
<path d="M19.5938 30.0777V30.1367C20.1395 31.4846 20.9999 32.6823 22.103 33.6298C23.2062 34.5773 24.52 35.2471 25.9348 35.5831C27.4548 35.9445 29.0382 35.946 30.5589 35.5876C32.0796 35.2292 33.4956 34.5207 34.6943 33.5186C36.2045 32.1409 37.4767 30.5232 38.4596 28.7309C39.3346 27.2365 39.4427 25.349 39.9539 23.6777C40.7043 20.9944 41.2207 18.2511 41.4974 15.4786C41.635 14.0924 41.7038 12.6964 41.7235 11.3102C41.7923 10.1886 41.4419 9.08144 40.7404 8.20358C39.4396 6.34646 37.7572 4.78852 35.8057 3.63394C33.8543 2.47936 31.6788 1.75477 29.4248 1.50862C27.0496 1.1928 24.633 1.49064 22.4055 2.37376C20.8068 2.90391 19.4774 4.03582 18.6991 5.52953C15.3074 13.1879 16.2315 22.5668 19.5938 30.0777Z" fill="#F39A83"/>
<path d="M43.9349 20.9052C43.3352 22.8715 40.2286 25.1326 39.6879 23.3827C39.3634 22.3111 39.5207 21.1314 40.1204 19.2143C40.7201 17.2972 40.1204 15.9111 41.8605 16.4616C42.7228 16.7786 43.4247 17.4236 43.8133 18.256C44.2019 19.0884 44.2456 20.0407 43.9349 20.9052Z" fill="#F39A83"/>
<path d="M41.3691 18.2212H41.2806C40.6121 18.8307 40.7989 20.2857 40.6809 21.1017C40.6375 21.4327 40.5751 21.7609 40.4941 22.0848C40.9353 22.1102 41.3721 21.9863 41.7342 21.733C42.0962 21.4797 42.3624 21.1119 42.4899 20.6888C42.6552 20.2122 42.6311 19.6903 42.4225 19.2311C42.2139 18.7718 41.8368 18.4102 41.3691 18.2212Z" fill="#EE7379"/>
<path d="M42.2041 23.6384C42.2192 23.7669 42.2087 23.8971 42.1734 24.0215C42.138 24.146 42.0784 24.2622 41.9981 24.3636C41.9177 24.465 41.8181 24.5495 41.705 24.6123C41.5919 24.6751 41.4675 24.715 41.339 24.7296C41.2099 24.7445 41.0791 24.7337 40.9541 24.698C40.8292 24.6624 40.7125 24.6024 40.6107 24.5216C40.5089 24.4408 40.424 24.3408 40.3609 24.2272C40.2978 24.1136 40.2577 23.9887 40.2428 23.8596C40.228 23.7305 40.2387 23.5997 40.2744 23.4747C40.3101 23.3498 40.37 23.2331 40.4508 23.1313C40.5316 23.0295 40.6317 22.9446 40.7452 22.8815C40.8588 22.8184 40.9838 22.7782 41.1129 22.7634C41.2421 22.7484 41.373 22.7592 41.4981 22.7952C41.6231 22.8311 41.7397 22.8916 41.8412 22.9729C41.9428 23.0543 42.0271 23.1551 42.0894 23.2693C42.1517 23.3835 42.1907 23.509 42.2041 23.6384Z" fill="white"/>
<path d="M13.8415 20.9248C14.2544 22.891 17.1349 25.4766 17.8329 23.7856C18.2556 22.8025 18.2163 21.554 17.8329 19.5976C17.4495 17.6412 18.1475 16.3042 16.3582 16.6483C15.9095 16.7592 15.4875 16.9586 15.1169 17.2349C14.7463 17.5112 14.4346 17.8587 14.2002 18.2571C13.9658 18.6554 13.8133 19.0966 13.7517 19.5547C13.6901 20.0128 13.7206 20.4786 13.8415 20.9248Z" fill="#F39A83"/>
<path d="M16.6431 18.4966H16.7414C17.3509 19.1651 17.0363 20.5906 17.0658 21.4459C17.0658 21.79 17.115 22.1341 17.1642 22.429C16.7093 22.4174 16.2725 22.2484 15.9283 21.9508C15.5841 21.6532 15.3538 21.2455 15.2766 20.7971C15.172 20.3119 15.2547 19.8052 15.5082 19.3785C15.7616 18.9518 16.1671 18.6368 16.6431 18.4966Z" fill="#EE7379"/>
<path d="M15.3358 23.8252C15.2955 24.0152 15.3125 24.2129 15.3845 24.3933C15.4564 24.5738 15.5803 24.7288 15.7403 24.8389C15.9003 24.949 16.0894 25.0093 16.2836 25.012C16.4779 25.0148 16.6685 24.9599 16.8316 24.8544C16.9947 24.7489 17.1229 24.5974 17.2 24.4191C17.277 24.2408 17.2996 24.0436 17.2647 23.8525C17.2298 23.6614 17.1391 23.485 17.0041 23.3454C16.869 23.2058 16.6956 23.1093 16.5057 23.0682C16.3792 23.0408 16.2485 23.0386 16.1211 23.0619C15.9937 23.0851 15.8722 23.1333 15.7635 23.2036C15.6548 23.274 15.561 23.3651 15.4877 23.4717C15.4143 23.5784 15.3627 23.6985 15.3358 23.8252Z" fill="white"/>
<path d="M28.9123 10.8579L29.0303 10.6023C26.1109 13.0534 22.7222 14.8832 19.0714 15.9799L21.7061 12.9716C20.9 13.8957 19.7399 14.5642 18.8748 15.4884C18.1669 16.265 17.4099 17.8675 16.535 18.2706C15.9033 17.1972 15.5643 15.9768 15.5519 14.7314C15.2691 11.2913 16.3257 7.87499 18.5012 5.19523C19.7017 3.81854 21.1238 2.65223 22.7089 1.74452C24.0806 0.933891 25.5962 0.396407 27.1722 0.161715C28.5266 -0.144544 29.9433 -0.0135929 31.2186 0.535754C32.4939 1.0851 33.5623 2.02457 34.2702 3.21918C35.8334 5.71627 35.3222 6.9255 33.3559 8.89171C31.611 10.698 29.6023 12.2294 27.3983 13.4337C27.9722 12.6177 28.4785 11.7563 28.9123 10.8579Z" fill="#201544"/>
<path d="M46.7751 83.1066C46.549 81.6418 46.2934 80.1573 45.969 78.7121C44.044 69.7733 43.1599 60.6418 43.3342 51.4997C43.3342 49.1796 43.6587 45.8272 42.4003 43.7626C41.8863 42.9836 41.1498 42.3773 40.2866 42.0225C39.4244 41.6812 38.5227 41.45 37.6027 41.3344C37.1013 41.2459 35.4792 40.8526 35.1646 41.4327C35.0813 41.6122 35.0313 41.8054 35.0171 42.0029C34.4764 45.7878 30.2392 49.7891 26.5427 46.6431C25.7922 45.9428 25.2337 45.0618 24.9205 44.0843C24.6072 43.1067 24.5497 42.0652 24.7535 41.0591C23.3335 41.2877 21.8949 41.3799 20.4573 41.3344C19.001 41.4207 17.5611 41.6882 16.171 42.1307C14.2539 42.7894 14.2047 45.1783 13.9885 46.8496C13.6873 49.3516 13.5429 51.87 13.5559 54.39C13.5559 58.7648 14.2342 63.0414 13.9295 67.5145C13.5854 72.5087 12.8776 77.4832 12.1697 82.4381C11.585 87.66 10.712 92.8456 9.55465 97.9712L5.16016 114.91C12.209 117.181 19.779 112.944 27.1621 113.632C31.2027 113.996 35.1253 115.834 39.156 115.392C40.552 115.244 41.8891 114.822 43.2752 114.605C46.4114 114.124 49.4393 114.802 52.5263 115.205C54.3549 111.558 51.5432 105.895 50.3241 102.425C48.1023 96.0345 47.7779 89.5754 46.7751 83.1066Z" fill="#A464A6"/>
<path d="M30.5446 6.39446C30.9083 8.53763 32.5108 10.2482 34.1427 11.6443C35.7747 13.0403 37.6229 14.3183 38.8027 16.1371C39.6285 17.4053 40.0905 18.8701 40.9065 20.1481C41.3948 19.24 41.7901 18.2848 42.0862 17.2971C42.7569 14.0075 42.3069 10.5882 40.8082 7.58402C40.16 5.96498 39.1247 4.52957 37.7929 3.40352C36.4612 2.27747 34.8737 1.49512 33.1695 1.125C31.5572 0.712097 31.2032 1.58706 30.7805 2.91426C30.4227 4.03839 30.3418 5.23232 30.5446 6.39446Z" fill="#201544"/>
<path d="M7.16825 81.6414C6.24413 81.9266 6.01801 82.1527 3.66838 81.2285C2.9423 81.0253 2.30125 80.593 1.84068 79.9961C1.38011 79.3991 1.12464 78.6694 1.1123 77.9155C3.86501 60.5833 11.8282 44.0671 15.7999 43.3691C22.3179 42.2385 20.1158 50.2508 20.1158 50.2508C20.1158 50.2508 13.873 65.1056 10.4518 74.8285C9.54494 77.502 8.78356 80.2226 8.17102 82.9785L7.16825 81.6414Z" fill="#F39A83"/>
<path d="M9.15273 50.1822C10.2915 47.9749 11.6625 45.8953 13.2425 43.9788C14.1244 43.1124 15.22 42.4951 16.4179 42.1896C16.9797 42.1163 17.5508 42.176 18.0852 42.3638C18.6197 42.5517 19.1026 42.8624 19.495 43.271C20.8641 44.5568 21.6964 46.3127 21.825 48.1865C22.0019 50.7721 20.6846 53.2299 19.672 55.5303C18.6594 57.8308 17.6271 60.1116 16.644 62.4121C15.6609 64.7126 14.9727 67.1998 13.8716 69.6084C13.6357 70.1295 11.2369 76.4902 10.8142 76.4902C7.59942 76.3525 2.23165 73.4425 0 72.0957C1.54297 67.1523 3.41506 62.3177 5.60371 57.6243C6.66547 55.2256 7.86486 52.522 9.15273 50.1822Z" fill="#A464A6"/>
<path d="M24.4395 28.1213C24.6701 29.0322 25.2192 29.8304 25.9874 30.3714C26.7556 30.9124 27.6922 31.1605 28.6275 31.0707C29.5675 31.1032 30.488 30.7978 31.2222 30.2098C31.9563 29.6218 32.4553 28.7902 32.6287 27.8657L24.4395 28.1213Z" fill="white"/>
<path d="M33.8573 19.9811C33.8599 20.0883 33.8414 20.1949 33.8028 20.2949C33.7642 20.3949 33.7062 20.4864 33.6323 20.564C33.5583 20.6416 33.4698 20.7038 33.3718 20.7472C33.2738 20.7906 33.1682 20.8142 33.061 20.8168C32.8997 20.8206 32.7408 20.7765 32.6046 20.6901C32.4683 20.6037 32.3607 20.4788 32.2954 20.3313C32.2301 20.1837 32.21 20.0201 32.2377 19.8611C32.2653 19.7021 32.3395 19.5549 32.4508 19.4381C32.5622 19.3213 32.7056 19.2401 32.8631 19.2048C33.0205 19.1695 33.1849 19.1817 33.3355 19.2398C33.486 19.2979 33.6159 19.3994 33.7088 19.5313C33.8017 19.6633 33.8534 19.8198 33.8573 19.9811Z" fill="#201544"/>
<path d="M25.0189 20.2468C25.0242 20.3538 25.0079 20.4607 24.9708 20.5613C24.9338 20.6618 24.8769 20.7539 24.8035 20.8319C24.73 20.9099 24.6416 20.9723 24.5435 21.0154C24.4454 21.0584 24.3396 21.0812 24.2324 21.0824C24.1253 21.0863 24.0184 21.0691 23.9179 21.0317C23.8173 20.9943 23.7252 20.9375 23.6467 20.8644C23.5681 20.7914 23.5048 20.7036 23.4602 20.606C23.4157 20.5085 23.3908 20.4031 23.387 20.2959C23.3817 20.0785 23.4623 19.8678 23.6114 19.7095C23.7605 19.5512 23.966 19.4581 24.1833 19.4504C24.2904 19.4478 24.3971 19.4664 24.4971 19.505C24.5971 19.5436 24.6885 19.6015 24.7661 19.6755C24.8437 19.7494 24.906 19.8379 24.9493 19.936C24.9927 20.034 25.0164 20.1396 25.0189 20.2468Z" fill="#201544"/>
<path d="M21.6191 17.8773C22.6817 16.999 24.026 16.5345 25.4041 16.5697" stroke="#201544" stroke-width="0.7" stroke-linecap="round" stroke-linejoin="round"/>
<path d="M35.6976 17.4548C34.579 16.647 33.2094 16.2637 31.834 16.3734" stroke="#201544" stroke-width="0.7" stroke-linecap="round" stroke-linejoin="round"/>
<path d="M28.2742 20.3647C28.4434 20.8544 28.4807 21.3799 28.3823 21.8886C28.3027 22.3821 28.1843 22.8686 28.0284 23.3436C27.9399 23.5697 27.8711 23.7958 27.8023 24.0219C27.7283 24.1993 27.6915 24.3901 27.6941 24.5823C27.7624 24.7785 27.8694 24.959 28.0087 25.1132C28.1629 25.3019 28.3305 25.4793 28.5101 25.644C28.2393 25.6017 27.981 25.5005 27.7534 25.3476C27.5258 25.1948 27.3344 24.9939 27.1928 24.7592C27.105 24.4675 27.105 24.1564 27.1928 23.8646C27.2517 23.6188 27.3206 23.3731 27.3894 23.1371C27.7416 22.2323 28.0371 21.3063 28.2742 20.3647Z" fill="#DE7778"/>
<path d="M16.7807 43.8414C17.0952 47.0955 16.0335 50.3103 15.5026 53.5447C14.7509 58.3732 15.1841 63.3122 16.7648 67.9362C18.3455 72.5602 21.0264 76.7307 24.5767 80.0886C23.1217 74.7601 21.6864 68.9893 23.7607 63.946C24.8323 61.3211 26.7789 59.0894 27.5359 56.3564C28.0227 54.1844 28.0227 51.9317 27.5359 49.7597C27.2114 47.9115 27.0148 45.9748 26.5527 44.156C25.7717 41.4181 24.5028 38.8437 22.8071 36.5566C22.0993 35.5735 21.4111 34.5904 20.7229 33.5483C20.0347 32.5062 18.9337 31.8377 18.1963 30.8152C16.8366 29.1001 15.2716 27.5582 13.5364 26.2241C9.13208 28.4263 16.4562 40.43 16.7807 43.8414Z" fill="#201544"/>
<path d="M62.6617 125.478C62.8842 125.478 63.1057 125.448 63.3204 125.39C63.9263 125.211 64.4383 124.803 64.747 124.252C65.0556 123.701 65.1364 123.051 64.972 122.441L59.8991 104.646C59.2307 102.35 57.8374 100.332 55.9272 98.8932C54.0171 97.4544 51.6926 96.6722 49.3012 96.6636H22.2068C19.2957 96.6687 16.5044 97.8233 14.4405 99.8763C12.3765 101.929 11.2069 104.714 11.1862 107.625L11.0977 123.06C11.0951 123.697 11.345 124.309 11.7927 124.763C12.2404 125.216 12.8495 125.473 13.4866 125.478C14.1211 125.478 14.7298 125.227 15.1794 124.779C15.6289 124.332 15.8828 123.724 15.8854 123.09L15.9739 107.655C15.9843 106.013 16.6431 104.441 17.8069 103.283C18.9707 102.125 20.5452 101.474 22.1871 101.471H49.2717C50.6208 101.475 51.9323 101.916 53.0098 102.727C54.0874 103.539 54.873 104.678 55.249 105.974L60.3514 123.738C60.4947 124.24 60.7978 124.682 61.2148 124.996C61.6317 125.31 62.1397 125.479 62.6617 125.478Z" fill="#ACDAF1"/>
<path d="M92.5901 183.275C92.925 183.275 93.2561 183.204 93.5624 183.069C93.8687 182.934 94.1435 182.736 94.3695 182.489L104.663 171.183C104.875 170.95 105.039 170.678 105.146 170.381C105.253 170.084 105.301 169.77 105.286 169.455C105.272 169.14 105.195 168.831 105.061 168.545C104.927 168.26 104.738 168.004 104.505 167.791C104.272 167.579 104 167.415 103.703 167.308C103.407 167.201 103.092 167.153 102.777 167.168C102.462 167.182 102.153 167.259 101.868 167.393C101.582 167.527 101.326 167.716 101.114 167.949L90.8107 179.254C90.4995 179.6 90.2949 180.028 90.2216 180.487C90.1482 180.946 90.2093 181.416 90.3974 181.841C90.5856 182.267 90.8927 182.628 91.2818 182.883C91.6708 183.137 92.1252 183.273 92.5901 183.275Z" fill="#ACDAF1"/>
<path d="M50.4733 181.014H27.793L31.7254 204.815C31.7254 204.815 36.3067 227.712 55.7034 227.712C71.9345 227.712 82.7782 225.568 86.6418 199.555C89.8271 178.035 50.4733 181.014 50.4733 181.014Z" fill="#0F2E46"/>
<path d="M27.7919 183.413H50.4722C51.0831 183.374 51.6563 183.104 52.0751 182.657C52.4939 182.211 52.727 181.621 52.727 181.009C52.727 180.397 52.4939 179.808 52.0751 179.361C51.6563 178.915 51.0831 178.645 50.4722 178.606H27.7919C27.4633 178.584 27.1339 178.631 26.824 178.742C26.5141 178.854 26.2304 179.027 25.9902 179.253C25.7501 179.478 25.5587 179.75 25.4278 180.052C25.297 180.354 25.2295 180.68 25.2295 181.009C25.2295 181.338 25.297 181.664 25.4278 181.966C25.5587 182.269 25.7501 182.541 25.9902 182.766C26.2304 182.991 26.5141 183.165 26.824 183.276C27.1339 183.387 27.4633 183.434 27.7919 183.413Z" fill="#7D9EAE"/>
<path d="M106.894 210.999C107.232 211.007 107.568 210.94 107.877 210.803C108.168 210.68 108.431 210.502 108.653 210.277C108.874 210.052 109.048 209.786 109.166 209.494C109.284 209.201 109.343 208.888 109.339 208.573C109.336 208.258 109.27 207.946 109.145 207.657L72.7703 122.126C72.5213 121.54 72.0494 121.076 71.4585 120.837C70.8676 120.598 70.2061 120.604 69.6194 120.853C69.0327 121.102 68.569 121.574 68.3303 122.165C68.0915 122.756 68.0973 123.417 68.3463 124.004L104.721 209.534C104.903 209.962 105.205 210.328 105.591 210.588C105.977 210.848 106.429 210.991 106.894 210.999Z" fill="#ACDAF1"/>
<path d="M24.0182 143.686L13.5088 123.08L24.0379 111.626H81.1466L24.0182 143.686Z" fill="#18405F"/>
<path d="M55.9692 209.396H105.41L99.9141 181.014H50.4736L55.9692 209.396Z" fill="#25618E"/>
<path d="M99.9123 181.014L77.9399 142.555H23.4561L40.3557 177.003L50.4719 181.014H99.9123Z" fill="#18405F"/>
<path d="M50.4736 181.014L40.3574 177.003L55.9692 209.396L50.4736 181.014Z" fill="#133650"/>
<path d="M77.9399 142.555H23.4561L36.846 117.672H86.8173L77.9399 142.555Z" fill="#133650"/>
<path d="M77.9407 145.652C78.5897 145.656 79.2236 145.456 79.7529 145.08C80.2821 144.704 80.6799 144.172 80.89 143.558L87.8406 123.306C88.3037 121.956 88.438 120.515 88.2324 119.104C88.0268 117.692 87.4871 116.349 86.6584 115.188C85.8296 114.026 84.7356 113.079 83.4673 112.426C82.199 111.772 80.793 111.431 79.3662 111.43H43.0994C41.336 111.436 39.6132 111.959 38.1439 112.934C36.6745 113.909 35.5229 115.293 34.8314 116.915L20.7927 141.002C20.3794 141.709 20.2643 142.553 20.4726 143.345C20.6809 144.138 21.1957 144.816 21.9036 145.229C22.6115 145.642 23.4545 145.757 24.2473 145.549C25.0401 145.341 25.7177 144.826 26.1309 144.118L40.2877 119.835C40.3664 119.693 40.4354 119.545 40.4941 119.393C40.6979 118.867 41.0556 118.415 41.5204 118.096C41.9852 117.777 42.5355 117.605 43.0994 117.604H79.3367C79.7797 117.607 80.2156 117.715 80.6087 117.919C81.0018 118.124 81.3408 118.418 81.5979 118.779C81.855 119.14 82.0229 119.556 82.0879 119.995C82.1528 120.433 82.1129 120.88 81.9714 121.3L75.0209 141.552C74.8901 141.939 74.8373 142.349 74.8655 142.756C74.8937 143.164 75.0023 143.562 75.1851 143.928C75.3678 144.293 75.6212 144.619 75.9305 144.886C76.2397 145.153 76.5989 145.357 76.9871 145.485C77.2948 145.588 77.6163 145.644 77.9407 145.652Z" fill="#008BB1"/>
<path d="M55.9694 211.795H106.894C107.531 211.795 108.141 211.542 108.591 211.092C109.04 210.643 109.293 210.033 109.293 209.396C109.293 208.76 109.04 208.15 108.591 207.7C108.141 207.25 107.531 206.998 106.894 206.998H57.4637L15.662 122.018C15.5338 121.716 15.3455 121.444 15.1086 121.218C14.8717 120.992 14.5912 120.817 14.2843 120.703C13.9773 120.589 13.6504 120.539 13.3234 120.555C12.9963 120.572 12.6762 120.655 12.3824 120.8C12.0886 120.944 11.8273 121.147 11.6146 121.396C11.4019 121.645 11.2422 121.935 11.1452 122.247C11.0482 122.56 11.016 122.889 11.0506 123.215C11.0851 123.541 11.1857 123.856 11.3462 124.141L53.8066 210.429C54.0023 210.837 54.309 211.181 54.6916 211.423C55.0741 211.664 55.5169 211.793 55.9694 211.795Z" fill="#ACDAF1"/>
<path d="M23.457 224.192C23.8664 224.199 24.2721 224.114 24.6446 223.944C25.0171 223.774 25.3469 223.523 25.61 223.209L48.1035 194.915C48.5149 194.342 48.6904 193.633 48.5939 192.934C48.4974 192.235 48.1362 191.6 47.5849 191.159C47.0336 190.719 46.3342 190.507 45.6313 190.568C44.9283 190.628 44.2754 190.956 43.8074 191.484L21.3139 219.719C20.986 220.122 20.7794 220.61 20.7183 221.127C20.6571 221.643 20.7439 222.166 20.9685 222.634C21.1931 223.103 21.5462 223.499 21.9868 223.774C22.4274 224.05 22.9373 224.195 23.457 224.192Z" fill="#ACDAF1"/>
<path d="M18.9834 237.779C23.8428 237.779 27.7822 232.902 27.7822 226.886C27.7822 220.87 23.8428 215.993 18.9834 215.993C14.1239 215.993 10.1846 220.87 10.1846 226.886C10.1846 232.902 14.1239 237.779 18.9834 237.779Z" fill="#3A3938"/>
<path d="M17.894 236.383C21.8196 236.383 25.0019 232.131 25.0019 226.886C25.0019 221.641 21.8196 217.389 17.894 217.389C13.9684 217.389 10.7861 221.641 10.7861 226.886C10.7861 232.131 13.9684 236.383 17.894 236.383Z" fill="#858584"/>
<path d="M14.501 226.886C14.501 228.695 15.6021 230.16 16.9489 230.16C18.2958 230.16 19.3969 228.695 19.3969 226.886C19.3969 225.077 18.3056 223.612 16.9489 223.612C15.5922 223.612 14.501 225.077 14.501 226.886Z" fill="#3A3938"/>
<path d="M65.4355 238.605C70.295 238.605 74.2343 233.728 74.2343 227.712C74.2343 221.696 70.295 216.819 65.4355 216.819C60.5761 216.819 56.6367 221.696 56.6367 227.712C56.6367 233.728 60.5761 238.605 65.4355 238.605Z" fill="#3A3938"/>
<path d="M64.354 237.208C68.2795 237.208 71.4618 232.957 71.4618 227.712C71.4618 222.467 68.2795 218.215 64.354 218.215C60.4284 218.215 57.2461 222.467 57.2461 227.712C57.2461 232.957 60.4284 237.208 64.354 237.208Z" fill="#858584"/>
<path d="M102.478 237.789C107.338 237.789 111.277 232.912 111.277 226.896C111.277 220.88 107.338 216.003 102.478 216.003C97.619 216.003 93.6797 220.88 93.6797 226.896C93.6797 232.912 97.619 237.789 102.478 237.789Z" fill="#3A3938"/>
<path d="M101.388 236.393C105.314 236.393 108.496 232.141 108.496 226.896C108.496 221.651 105.314 217.399 101.388 217.399C97.4626 217.399 94.2803 221.651 94.2803 226.896C94.2803 232.141 97.4626 236.393 101.388 236.393Z" fill="#858584"/>
<path d="M97.9971 226.896C97.9971 228.695 99.0883 230.16 100.445 230.16C101.802 230.16 102.893 228.695 102.893 226.896C102.893 225.097 101.792 223.622 100.445 223.622C99.0981 223.622 97.9971 225.087 97.9971 226.896Z" fill="#3A3938"/>
<path d="M61.6909 228.734C62.4183 228.734 63.116 228.445 63.6304 227.931C64.1448 227.416 64.4337 226.719 64.4337 225.991V216.819C64.435 216.458 64.365 216.1 64.2278 215.766C64.0905 215.432 63.8887 215.129 63.6339 214.873C63.379 214.617 63.0762 214.414 62.7428 214.276C62.4094 214.137 62.0519 214.066 61.6909 214.066H58.3188V208.59C58.2769 207.89 57.9692 207.232 57.4585 206.751C56.9477 206.27 56.2726 206.002 55.571 206.002C54.8694 206.002 54.1943 206.27 53.6836 206.751C53.1729 207.232 52.8652 207.89 52.8232 208.59V216.819C52.8232 217.18 52.8945 217.537 53.033 217.871C53.1714 218.204 53.3743 218.507 53.6301 218.762C53.8858 219.017 54.1894 219.218 54.5233 219.356C54.8572 219.493 55.2149 219.563 55.5759 219.562H58.9185V225.991C58.9185 226.354 58.9904 226.713 59.1301 227.048C59.2698 227.382 59.4744 227.686 59.7323 227.941C59.9901 228.196 60.296 228.398 60.6322 228.534C60.9684 228.67 61.3282 228.738 61.6909 228.734Z" fill="#ACDAF1"/>
<path d="M56.6367 238.605C61.4962 238.605 65.4355 233.728 65.4355 227.712C65.4355 221.696 61.4962 216.819 56.6367 216.819C51.7773 216.819 47.8379 221.696 47.8379 227.712C47.8379 233.728 51.7773 238.605 56.6367 238.605Z" fill="#3A3938"/>
<path d="M55.5444 237.208C59.47 237.208 62.6523 232.957 62.6523 227.712C62.6523 222.467 59.47 218.215 55.5444 218.215C51.6188 218.215 48.4365 222.467 48.4365 227.712C48.4365 232.957 51.6188 237.208 55.5444 237.208Z" fill="#858584"/>
<path d="M52.1553 227.712C52.1553 229.511 53.2564 230.976 54.6032 230.976C55.9501 230.976 57.0511 229.511 57.0511 227.712C57.0511 225.913 55.9599 224.438 54.6032 224.438C53.2465 224.438 52.1553 225.903 52.1553 227.712Z" fill="#3A3938"/>
<path d="M100.032 229.294C100.668 229.294 101.278 229.042 101.728 228.592C102.178 228.142 102.43 227.532 102.43 226.896V219.798H106.363C107.002 219.798 107.614 219.544 108.066 219.092C108.518 218.64 108.771 218.028 108.771 217.389V211.087C108.732 210.476 108.462 209.903 108.016 209.484C107.569 209.066 106.98 208.833 106.368 208.833C105.756 208.833 105.166 209.066 104.72 209.484C104.273 209.903 104.003 210.476 103.964 211.087V215.02H100.032C99.3946 215.02 98.7834 215.272 98.332 215.722C97.8806 216.171 97.6256 216.781 97.623 217.419V226.925C97.6334 227.557 97.8917 228.16 98.3423 228.603C98.7929 229.046 99.3996 229.295 100.032 229.294Z" fill="#ACDAF1"/>
<path d="M32.836 211.795C32.9798 211.81 33.1247 211.81 33.2685 211.795C33.5813 211.742 33.8804 211.627 34.1487 211.458C34.4171 211.288 34.6492 211.068 34.8319 210.808C35.0146 210.549 35.1443 210.256 35.2134 209.946C35.2825 209.636 35.2898 209.316 35.2347 209.003L21.3533 133.747C21.3125 133.421 21.2056 133.107 21.0392 132.824C20.8728 132.542 20.6503 132.296 20.3855 132.102C20.1207 131.908 19.819 131.771 19.4991 131.698C19.1792 131.625 18.8477 131.618 18.5251 131.677C18.2024 131.737 17.8953 131.862 17.6227 132.045C17.3501 132.227 17.1177 132.464 16.9397 132.74C16.7617 133.015 16.642 133.324 16.5878 133.648C16.5336 133.972 16.5461 134.303 16.6245 134.622L30.4765 209.79C30.5676 210.35 30.855 210.859 31.2873 211.227C31.7196 211.594 32.2686 211.796 32.836 211.795Z" fill="#ACDAF1"/>
<path d="M79.3359 175.037V171.891C80.142 172.599 80.9384 173.326 81.715 174.064C83.4453 175.686 84.6643 177.78 86.4536 179.304C87.4367 180.11 88.5673 180.719 89.1866 181.791C89.6922 182.933 89.8495 184.198 89.6389 185.429C89.6461 185.651 89.5953 185.871 89.4914 186.068C89.3303 186.283 89.102 186.439 88.8425 186.51C87.6875 186.933 86.4315 186.998 85.2389 186.697C84.0462 186.395 82.9723 185.741 82.1574 184.819C81.5954 183.995 80.9744 183.213 80.2993 182.479C77.8711 180.366 74.4007 179.618 73.5552 176.109C73.4667 175.755 73.3979 175.391 73.3291 175.037H79.3359Z" fill="#EA947E"/>
<path d="M72.0039 170.279C71.1284 170.374 70.2671 170.572 69.438 170.868C68.3566 171.252 67.1769 171.97 67.0982 173.11C67.0196 174.25 67.9928 175.076 68.8776 175.715C72.8101 178.606 76.5655 181.535 80.5373 184.337C80.8814 184.583 81.3238 184.838 81.7072 184.652C81.9188 184.52 82.0864 184.328 82.1889 184.101C83.2507 182.381 85.6101 179.815 87.8615 180.709C88.4102 180.942 88.9105 181.275 89.3361 181.693C89.283 180.866 89.0693 180.058 88.7069 179.313C88.1865 178.695 87.5884 178.147 86.9275 177.681C86.1312 176.993 85.2955 176.335 84.5091 175.627C83.0344 174.319 81.4909 172.53 79.7312 171.625C77.3418 170.433 74.6559 169.965 72.0039 170.279Z" fill="#A36B4B"/>
<path d="M89.7083 184.101C89.7083 191.917 89.7083 200.568 89.7083 200.568C89.7083 200.568 87.3881 202.819 86.8868 200.224C85.3236 192.025 83.8096 188.643 83.8293 183.452L89.7083 184.101Z" fill="#EA947E"/>
<path d="M93.2577 204.274C93.7556 204.741 94.222 205.24 94.6537 205.769C94.7261 205.841 94.7742 205.933 94.7914 206.034C94.7914 206.309 94.4866 206.467 94.2113 206.516C92.7933 206.821 91.3172 206.704 89.9643 206.182C88.8304 205.689 87.8881 204.84 87.2804 203.763C86.9825 203.207 86.7987 202.597 86.7396 201.969C86.6805 201.341 86.7474 200.708 86.9363 200.106C86.838 200.607 89.3843 200.263 89.5612 200.283C89.9938 200.352 89.984 200.607 90.2396 201.02C90.4764 201.392 90.7427 201.743 91.0359 202.072C91.7368 202.845 92.4785 203.58 93.2577 204.274Z" fill="#1C0F39"/>
<path d="M68.1289 176.61V173.464C68.935 174.172 69.7215 174.899 70.4981 175.637C72.2284 177.259 73.4475 179.353 75.2466 180.877C76.2297 181.683 77.3504 182.292 77.9698 183.364C78.4753 184.505 78.6326 185.771 78.422 187.001C78.4293 187.223 78.3784 187.444 78.2745 187.64C78.1171 187.855 77.892 188.011 77.6355 188.083C76.4806 188.507 75.2243 188.573 74.0313 188.271C72.8384 187.97 71.7645 187.314 70.9504 186.392C70.3819 185.57 69.7578 184.788 69.0825 184.052C66.6542 181.938 63.2428 181.191 62.3384 177.681C62.2499 177.327 62.1811 176.964 62.1221 176.61H68.1289Z" fill="#EA947E"/>
<path d="M61.2279 175.411V176.453C60.9624 181.368 65.937 183.541 69.3483 185.949C69.6924 186.195 70.1348 186.451 70.5182 186.264C70.7327 186.133 70.9037 185.941 71.0098 185.714C72.0617 183.993 74.4212 181.427 76.6725 182.322C77.223 182.556 77.7261 182.89 78.157 183.305C78.0957 182.479 77.8789 181.672 77.518 180.926C76.9975 180.308 76.3995 179.759 75.7385 179.294C74.9521 178.606 74.1164 177.947 73.3201 177.239C71.8454 175.932 70.302 174.142 68.5422 173.238C66.639 172.194 64.4743 171.722 62.3093 171.881C62.045 171.899 61.7903 171.987 61.572 172.137C61.4384 172.276 61.3353 172.441 61.2693 172.622C61.2033 172.803 61.1758 172.996 61.1886 173.189C61.1296 173.946 61.2475 174.673 61.2279 175.411Z" fill="#B87955"/>
<path d="M78.2754 187.64C75.2671 194.847 72.3079 201.227 72.3079 201.227C72.3079 201.227 69.2898 202.416 69.8305 199.831C71.5313 191.661 71.374 189.017 73.3795 184.239L78.2754 187.64Z" fill="#EA947E"/>
<path d="M74.1561 206.015C74.4436 206.653 74.6867 207.31 74.8836 207.981C74.9082 208.078 74.9082 208.179 74.8836 208.276C74.8148 208.541 74.4412 208.561 74.1659 208.502C72.7362 208.231 71.417 207.548 70.3711 206.536C69.5125 205.647 68.9701 204.5 68.8277 203.272C68.7642 202.644 68.8272 202.01 69.0129 201.408C69.1987 200.805 69.5034 200.245 69.9091 199.762C69.624 200.185 72.1112 200.853 72.2587 200.942C72.6421 201.168 72.534 201.404 72.6126 201.876C72.6871 202.31 72.7956 202.737 72.9371 203.154C73.2811 204.127 73.7432 205.061 74.1561 206.015Z" fill="#1C0F39"/>
<path d="M89.8957 157.341C85.9965 153.912 81.4458 151.304 76.5156 149.673L77.7248 154.392C79.3273 155.237 83.2991 158.944 84.7344 159.858C86.1697 160.772 87.1234 161.736 88.5784 160.841L88.7357 160.743C89.7188 160.005 91.1836 158.432 89.8957 157.341Z" fill="#F39A83"/>
<path d="M76.614 152.13C76.2404 151.147 75.8963 150.164 75.6309 149.181C77.0511 149.386 78.4369 149.783 79.7501 150.361C81.0281 150.902 89.709 155.807 91.1541 157.872C91.277 158.009 91.3406 158.189 91.3311 158.373C91.2806 158.545 91.1686 158.692 91.0165 158.786C90.2365 159.429 89.4155 160.02 88.5587 160.556C88.2399 160.846 87.8529 161.052 87.4336 161.153C87.0144 161.254 86.5763 161.248 86.1599 161.136C85.6327 160.907 85.1397 160.606 84.6951 160.241C82.616 158.914 80.6258 157.453 78.7375 155.866C78.3266 155.451 77.9578 154.997 77.6364 154.51C77.194 153.733 76.8696 152.937 76.614 152.13Z" fill="#46774F"/>
<path d="M95.6565 146.448C95.6565 146.448 94.4178 143.961 97.4851 142.23C97.4851 142.23 97.9766 142.673 97.2983 143.971C96.935 144.712 96.5108 145.423 96.0301 146.094C95.9272 146.233 95.8008 146.353 95.6565 146.448Z" fill="#F39A83"/>
<path d="M97.3483 148.139C98.4334 147.666 99.3781 146.921 100.091 145.976C100.423 145.525 100.62 144.989 100.658 144.43C100.696 143.871 100.575 143.313 100.307 142.821C100.091 142.408 99.3833 141.149 99.0884 141.739C98.165 142.762 97.1801 143.727 96.1391 144.629C95.7399 145.243 95.5694 145.977 95.6574 146.704C95.8048 146.891 97.3483 148.139 97.3483 148.139Z" fill="#F39A83"/>
<path d="M88.4125 160.516C87.4293 160.349 87.7931 160.457 87.0263 159.012C86.644 158.274 86.3535 157.491 86.1611 156.682C89.9363 153.31 94.7535 148.424 96.356 145.18C98.155 141.552 98.4598 146.163 98.4598 146.163C96.2773 150.823 92.9741 155.276 88.4125 160.516Z" fill="#F39A83"/>
<path d="M97.3066 149.211C97.4835 149.348 94.0623 154.608 93.7477 155.109C93.0333 156.171 92.2862 157.203 91.5062 158.206C91.0835 158.747 90.6509 159.287 90.2085 159.818C89.7661 160.349 89.4712 160.801 88.8224 161.047C88.1692 161.264 87.4697 161.302 86.7972 161.155C86.6298 161.127 86.4716 161.06 86.3351 160.959C86.223 160.849 86.1387 160.714 86.0893 160.566C85.8285 159.811 85.7609 159.003 85.8927 158.216C85.8927 157.891 85.7157 156.643 86.0008 156.397C89.0183 153.653 91.764 150.624 94.2 147.353C95.289 147.878 96.3287 148.5 97.3066 149.211Z" fill="#46774F"/>
<path d="M79.0613 170.495L63.135 170.122C62.9482 164.282 62.8892 151.167 64.5998 150.096C66.0745 149.172 68.1783 149.29 70.4001 149.26C72.6212 149.113 74.8517 149.302 77.0165 149.82C78.6386 150.253 78.8352 164.42 79.0613 170.495Z" fill="#F39A83"/>
<path d="M71.9036 143.695C70.6059 142.85 68.1973 144.217 68.1973 144.217V151.157C68.1973 151.157 71.7954 152.671 72.2477 151.777C72.6999 150.882 72.7982 144.276 71.9036 143.695Z" fill="#F39A83"/>
<path d="M70.0844 149.034C69.2673 149.465 68.5865 150.115 68.1182 150.912V144.197C68.1182 144.197 70.5268 142.83 71.8245 143.676C72.2669 143.961 72.4438 146.281 72.4635 148.67C71.6519 148.552 70.8237 148.679 70.0844 149.034Z" fill="#D48873"/>
<path d="M64.6002 149.948C65.781 149.415 67.0713 149.169 68.3655 149.23C68.3868 149.596 68.5326 149.943 68.7784 150.214C69.3812 150.534 70.0657 150.667 70.7446 150.597C71.159 150.601 71.5626 150.465 71.8906 150.212C72.2187 149.959 72.4521 149.603 72.5535 149.201C73.9531 149.12 75.3573 149.219 76.7317 149.496C77.3314 149.653 78.6979 152.603 79.2091 155.837C80.0055 161.333 80.0153 166.808 80.4675 172.324C80.5168 172.484 80.5168 172.655 80.4675 172.815C80.2796 173.041 80.012 173.185 79.7204 173.218C74.8879 174.362 69.9398 174.946 64.9738 174.958C64.0297 175.001 63.0846 174.899 62.1719 174.654C59.4487 173.779 60.884 172.088 60.8742 170.22C60.8742 169.689 60.8152 169.237 60.8742 168.637C60.943 167.851 61.0118 167.074 61.1003 166.287C61.3625 163.764 61.7098 161.247 62.1424 158.737C62.4865 156.771 62.8601 154.805 63.3909 152.838C63.5089 152.111 63.6957 150.459 64.6002 149.948Z" fill="white"/>
<path d="M79.4064 138.957C79.2589 140.087 77.7154 141.69 77.2534 140.756C76.9519 139.992 76.8968 139.154 77.0961 138.357C77.2534 137.227 76.7717 136.499 77.8138 136.637C78.0721 136.682 78.3189 136.778 78.5396 136.919C78.7603 137.061 78.9505 137.245 79.0989 137.461C79.2473 137.678 79.3509 137.921 79.4037 138.178C79.4565 138.435 79.4574 138.7 79.4064 138.957Z" fill="#F39A83"/>
<path d="M77.8912 137.443C77.5668 137.846 77.8126 138.652 77.8323 139.124C77.8323 139.321 77.8323 139.517 77.8323 139.714C78.0829 139.685 78.3163 139.572 78.4947 139.393C78.6731 139.215 78.7861 138.981 78.8154 138.731C78.8435 138.585 78.8415 138.435 78.8098 138.29C78.778 138.145 78.717 138.008 78.6305 137.888C78.544 137.767 78.4338 137.666 78.3067 137.589C78.1796 137.513 78.0382 137.463 77.8912 137.443Z" fill="#D48873"/>
<path d="M76.5153 144.206C76.1953 145.043 75.6806 145.792 75.0139 146.39C74.3471 146.988 73.5476 147.419 72.6812 147.647C71.7248 147.927 70.7203 148.002 69.7329 147.868C68.7455 147.735 67.7973 147.395 66.9497 146.871C65.9295 146.171 65.0353 145.303 64.3052 144.305C63.7827 143.426 63.3825 142.48 63.1156 141.493C62.5161 139.999 62.0586 138.452 61.7491 136.872C61.6016 136.086 61.4935 135.29 61.4148 134.493C61.3714 134.175 61.3917 133.851 61.4744 133.541C61.557 133.23 61.7005 132.939 61.8965 132.684C62.7118 131.518 63.7566 130.53 64.9669 129.781C66.1773 129.032 67.5277 128.538 68.9356 128.329C70.4496 128.045 72.008 128.102 73.4972 128.496C74.5168 128.711 75.4206 129.296 76.0336 130.138C78.5799 134.356 78.3538 139.763 76.5153 144.206Z" fill="#F39A83"/>
<path d="M60.4803 140.353C60.9031 141.425 62.771 142.614 63.0069 141.592C63.1093 140.777 62.9619 139.951 62.5842 139.222C62.1615 138.161 62.4466 137.335 61.4733 137.728C61.2341 137.833 61.0183 137.985 60.8385 138.175C60.6587 138.364 60.5185 138.588 60.426 138.832C60.3336 139.077 60.2908 139.337 60.3001 139.598C60.3094 139.859 60.3707 140.116 60.4803 140.353Z" fill="#F39A83"/>
<path d="M61.8656 138.711C62.2785 139.035 62.2293 139.871 62.3277 140.333C62.3277 140.53 62.426 140.716 62.485 140.903C62.2276 140.943 61.9645 140.891 61.7417 140.756C61.5189 140.621 61.3505 140.412 61.2659 140.166C61.2081 140.031 61.1778 139.886 61.1768 139.74C61.1757 139.593 61.204 139.448 61.2598 139.312C61.3157 139.177 61.398 139.054 61.5021 138.951C61.6061 138.847 61.7297 138.766 61.8656 138.711Z" fill="#DB8C77"/>
<path d="M72.9463 143.332C72.9529 143.621 72.9011 143.91 72.7942 144.179C72.6872 144.448 72.5272 144.694 72.3236 144.9C72.12 145.106 71.877 145.27 71.609 145.38C71.3411 145.491 71.0536 145.546 70.7638 145.544C70.1724 145.605 69.5803 145.435 69.1125 145.068C68.6447 144.701 68.3378 144.166 68.2568 143.577L72.9463 143.332Z" fill="#6E2D30"/>
<path d="M71.984 145.15C71.6237 145.391 71.198 145.515 70.7649 145.504C70.1089 145.542 69.4639 145.323 68.9658 144.895C69.7818 143.99 71.1876 144.374 71.984 145.15Z" fill="#B64B53"/>
<path d="M71.9636 143.371C71.9636 143.371 72.0324 143.99 71.7571 144.118C71.1072 144.224 70.4493 144.273 69.7909 144.266C69.6674 144.271 69.5455 144.237 69.4429 144.168C69.3404 144.099 69.2625 143.999 69.2207 143.882L69.0732 143.499L71.9636 143.371Z" fill="white"/>
<path d="M67.2139 139.075C67.2139 139.205 67.2657 139.33 67.3578 139.423C67.45 139.515 67.5751 139.567 67.7054 139.567C67.8358 139.567 67.9608 139.515 68.053 139.423C68.1452 139.33 68.197 139.205 68.197 139.075C68.197 138.945 68.1452 138.82 68.053 138.727C67.9608 138.635 67.8358 138.583 67.7054 138.583C67.5751 138.583 67.45 138.635 67.3578 138.727C67.2657 138.82 67.2139 138.945 67.2139 139.075Z" fill="#27090B"/>
<path d="M72.2786 138.849C72.2798 138.91 72.2934 138.97 72.3186 139.026C72.3437 139.082 72.3799 139.132 72.4249 139.173C72.4699 139.214 72.5229 139.246 72.5805 139.266C72.6382 139.287 72.6994 139.295 72.7604 139.291C72.8219 139.29 72.8826 139.276 72.9388 139.251C72.995 139.226 73.0457 139.19 73.0878 139.145C73.13 139.101 73.1627 139.048 73.1841 138.99C73.2056 138.932 73.2152 138.871 73.2126 138.809C73.2126 138.679 73.1608 138.554 73.0686 138.462C72.9764 138.37 72.8514 138.318 72.721 138.318C72.5907 138.318 72.4656 138.37 72.3735 138.462C72.2813 138.554 72.2295 138.679 72.2295 138.809L72.2786 138.849Z" fill="#27090B"/>
<path d="M74.1169 137.6C74.1574 137.6 74.1973 137.59 74.2332 137.571C74.2691 137.552 74.3 137.525 74.3234 137.492C74.3438 137.465 74.3586 137.435 74.3667 137.402C74.3748 137.369 74.3761 137.335 74.3706 137.302C74.3651 137.269 74.3528 137.237 74.3345 137.209C74.3163 137.181 74.2924 137.157 74.2644 137.138C73.5669 136.654 72.721 136.431 71.8754 136.509C71.8093 136.516 71.7488 136.549 71.7065 136.601C71.6643 136.652 71.6438 136.718 71.6493 136.784C71.6518 136.818 71.6609 136.851 71.6761 136.881C71.6913 136.911 71.7123 136.937 71.7379 136.959C71.7635 136.981 71.7931 136.998 71.8252 137.008C71.8572 137.019 71.891 137.023 71.9246 137.02C72.651 136.945 73.3801 137.134 73.9793 137.551C73.9978 137.568 74.0195 137.581 74.0431 137.59C74.0668 137.598 74.0919 137.602 74.1169 137.6Z" fill="#522200"/>
<path d="M66.0554 137.964C66.1162 137.964 66.1752 137.943 66.2225 137.905C66.7792 137.452 67.4715 137.199 68.1888 137.187C68.2223 137.189 68.2557 137.183 68.2869 137.17C68.3181 137.158 68.3462 137.139 68.3695 137.115C68.3928 137.091 68.4106 137.062 68.4218 137.03C68.433 136.999 68.4374 136.965 68.4345 136.931C68.4359 136.898 68.4305 136.865 68.4187 136.834C68.407 136.803 68.3891 136.775 68.3661 136.751C68.3432 136.727 68.3156 136.708 68.2851 136.695C68.2547 136.682 68.2219 136.676 68.1888 136.676C67.3494 136.679 66.5381 136.978 65.8981 137.521C65.8615 137.555 65.8357 137.599 65.8238 137.648C65.8119 137.696 65.8144 137.747 65.8312 137.794C65.8479 137.841 65.8781 137.882 65.9179 137.913C65.9578 137.943 66.0056 137.96 66.0554 137.964Z" fill="#522200"/>
<path d="M70.43 139.055C70.3515 139.345 70.3515 139.65 70.43 139.94C70.4947 140.222 70.5835 140.499 70.6954 140.766L70.8429 141.139C70.8911 141.232 70.9243 141.331 70.9412 141.434C70.8592 141.677 70.7249 141.898 70.548 142.083C70.7076 142.055 70.8586 141.99 70.9897 141.895C71.1209 141.8 71.2286 141.676 71.305 141.533C71.362 141.36 71.362 141.174 71.305 141.002C71.305 140.854 71.2165 140.717 71.1673 140.579C70.8822 140.048 70.607 139.645 70.43 139.055Z" fill="#DE7778"/>
<path d="M62.7427 131.298C63.1831 131.777 63.5021 132.355 63.6732 132.983C63.8442 133.611 63.8623 134.27 63.7258 134.906C63.6309 135.571 63.4897 136.228 63.3031 136.873C63.2343 137.138 62.959 138.662 62.6641 138.593C62.5622 138.558 62.4731 138.493 62.4085 138.406C62.2431 138.231 62.11 138.028 62.0152 137.807C61.5674 136.721 61.2665 135.58 61.1206 134.415C61.0919 133.656 61.3168 132.909 61.7596 132.291C62.0136 131.883 62.3031 131.498 62.6248 131.141C62.6434 131.206 62.6854 131.262 62.7427 131.298Z" fill="#201544"/>
<path d="M77.036 136.627C76.7706 135.88 76.2888 135.211 75.9644 134.484C75.64 133.756 75.5318 133.216 75.2271 132.586C74.9223 131.957 74.244 130.168 75.7875 130.325C77.3309 130.482 77.616 133.039 77.8323 134.179C78.0486 135.319 78.5402 136.42 77.7537 137.561C77.7537 137.63 77.6554 137.698 77.5669 137.708C77.4784 137.718 77.3211 137.551 77.2818 137.404C77.2147 137.14 77.1327 136.881 77.036 136.627Z" fill="#201544"/>
<path d="M75.7087 129.597C76.1534 130.039 76.4899 130.577 76.6918 131.17C76.7838 131.383 76.8271 131.613 76.8186 131.844C76.8101 132.076 76.75 132.302 76.6427 132.507C76.4783 132.735 76.2485 132.906 75.984 132.999C75.2995 133.308 74.5572 133.467 73.8064 133.467C73.0556 133.467 72.3133 133.308 71.6288 132.999C72.2447 133.718 73.028 134.275 73.9096 134.621C72.9832 134.687 72.0521 134.614 71.1471 134.405C70.3213 134.208 69.5348 133.687 68.7385 133.54C69.0826 133.894 70.4589 135.044 70.9898 134.946C68.5217 135.398 65.9732 134.944 63.8131 133.668C63.348 133.416 62.9318 133.083 62.5842 132.684C62.2893 132.291 62.3385 131.8 61.9845 131.436C61.8967 131.334 61.781 131.26 61.6517 131.224C61.5224 131.187 61.3852 131.189 61.257 131.229C61.2475 131.135 61.2611 131.039 61.2967 130.951C61.3322 130.862 61.3886 130.784 61.4611 130.722C61.5335 130.66 61.6199 130.617 61.7128 130.595C61.8056 130.574 61.9023 130.576 61.9944 130.6C61.9936 130.487 61.9556 130.378 61.8863 130.289C61.8169 130.2 61.7201 130.137 61.611 130.109C61.3881 130.054 61.1555 130.054 60.9326 130.109C61.0817 129.897 61.3014 129.747 61.5521 129.683C61.8028 129.62 62.0678 129.649 62.2991 129.765C62.948 130.118 62.9087 129.352 63.2822 128.899C63.6747 128.371 64.1695 127.926 64.7372 127.592C65.9155 126.949 67.2515 126.653 68.591 126.737C70.3023 126.78 71.9821 127.207 73.5066 127.985C74.3151 128.413 75.0569 128.956 75.7087 129.597Z" fill="#201544"/>
<path d="M60.9916 165.432C63.4233 160.859 64.9111 155.845 65.3665 150.686L61.0998 152.937C60.6377 154.687 57.944 159.406 57.3836 161.018C56.8233 162.63 56.1056 163.771 57.3148 164.95L57.4525 165.078C58.3373 165.875 60.2052 166.936 60.9916 165.432Z" fill="#F39A83"/>
<path d="M62.3889 150.646C63.2639 149.899 64.7877 148.876 65.6626 149.378C66.3901 149.791 65.8003 151.413 65.7216 152.052C65.3082 154.568 64.6496 157.037 63.7554 159.425C63.0181 161.726 62.3103 164.832 60.6586 166.681C60.551 166.831 60.3886 166.933 60.2064 166.966C60.0314 166.955 59.8651 166.886 59.7345 166.769C58.9322 166.164 58.1703 165.507 57.4537 164.803C56.8498 164.269 56.4478 163.544 56.3153 162.749C56.1829 161.955 56.3279 161.138 56.7262 160.438C58.0731 157.223 59.4101 153.605 61.8973 151.079C62.0546 150.941 62.2119 150.803 62.3889 150.646Z" fill="#46774F"/>
<path d="M27.7937 183.413C28.1341 183.411 28.4699 183.334 28.7768 183.187L41.685 177.131C48.9264 173.742 56.8223 171.98 64.8175 171.97H102.883C103.494 171.93 104.067 171.66 104.486 171.214C104.905 170.767 105.138 170.178 105.138 169.566C105.138 168.954 104.905 168.364 104.486 167.918C104.067 167.471 103.494 167.201 102.883 167.162H64.8175C56.1226 167.177 47.5361 169.093 39.6598 172.776L26.7712 178.841C26.2795 179.071 25.8802 179.461 25.6388 179.948C25.3974 180.434 25.3281 180.988 25.4423 181.519C25.5564 182.049 25.8473 182.526 26.2672 182.87C26.6872 183.214 27.2115 183.405 27.7544 183.413H27.7937Z" fill="#ACDAF1"/>
<path d="M23.1316 181.722C23.8984 185.291 26.366 187.798 28.6468 187.306C30.9276 186.815 32.1467 183.531 31.3897 179.953C30.6327 176.374 28.1651 173.877 25.8843 174.359C23.6035 174.841 22.3746 178.154 23.1316 181.722Z" fill="#88CEED"/>
<path d="M24.9804 181.329C25.4031 183.295 26.7696 184.691 28.028 184.425C29.2864 184.16 29.9942 182.331 29.542 180.355C29.0898 178.379 27.7527 177.003 26.4747 177.259C25.1967 177.514 24.5576 179.353 24.9804 181.329Z" fill="#3A3938"/>
<path d="M70.9707 169.345C70.9707 169.345 73.5464 167.958 75.4635 171.114C75.4635 171.114 75.0113 171.645 73.6349 170.977C72.8443 170.621 72.0847 170.2 71.3639 169.718C71.2105 169.62 71.077 169.493 70.9707 169.345Z" fill="#F39A83"/>
<path d="M69.2588 171.183C69.7912 172.305 70.608 173.268 71.6281 173.975C72.1091 174.314 72.6778 174.507 73.2657 174.529C73.8536 174.552 74.4355 174.404 74.9412 174.103C75.3639 173.857 76.6616 173.071 76.0324 172.786C75.4032 172.501 73.4862 170.289 72.9061 169.836C72.2509 169.434 71.4728 169.28 70.7138 169.404C70.5172 169.512 69.2588 171.183 69.2588 171.183Z" fill="#F39A83"/>
<path d="M59.2038 163.485C59.3413 163.175 59.5462 162.9 59.8035 162.679C61.1111 161.519 62.0155 161.853 63.1068 162.895C64.198 163.937 65.2008 164.862 66.2822 165.776C68.0935 167.457 70.128 168.879 72.3283 170.003C76.2018 171.763 71.3452 172.235 71.3452 172.235C69.001 171.214 66.7453 170 64.6011 168.607C63.2936 167.772 58.614 165.491 59.135 163.692C59.1509 163.621 59.174 163.552 59.2038 163.485Z" fill="#F39A83"/>
<path d="M69.3276 172.55C69.1998 172.737 63.5666 169.325 63.0652 169.011C61.9347 168.303 60.8238 167.556 59.7423 166.769C59.1623 166.346 58.5823 165.904 58.0121 165.462C57.4419 165.019 56.911 164.724 56.6652 164.046C56.4154 163.367 56.3542 162.633 56.4882 161.922C56.5103 161.749 56.5744 161.584 56.675 161.441C56.7897 161.318 56.931 161.224 57.0879 161.165C57.8703 160.866 58.7155 160.768 59.5457 160.88C59.88 160.88 61.1875 160.644 61.4431 160.929C64.4287 163.997 67.701 166.772 71.2152 169.217C70.6882 170.383 70.0564 171.498 69.3276 172.55Z" fill="#46774F"/>
<path d="M13.4395 100.861C13.4395 100.861 18.6303 100.429 19.7608 107.586C19.7608 107.586 18.6499 108.176 16.8115 105.885C15.73 104.61 14.7442 103.256 13.8622 101.835C13.6717 101.534 13.529 101.206 13.4395 100.861Z" fill="#F39A83"/>
<path d="M9.37793 102.779C9.52199 105.206 10.2396 107.564 11.4719 109.66C13.4382 112.531 15.6502 112.61 16.9184 112.511C17.7835 112.413 20.4674 112.04 19.6121 111.037C18.7568 110.034 16.997 104.558 16.3383 103.27C15.5528 102.056 14.3611 101.16 12.9761 100.744C12.573 100.803 9.37793 102.779 9.37793 102.779Z" fill="#F39A83"/>
<path d="M14.2155 102.11C13.0062 103.319 11.2661 103.978 9.71283 104.863C9.2606 105.118 5.10206 95.7002 4.79729 95.0317C2.57547 89.6934 0.20618 84.1487 0.8452 78.2206C0.848808 77.9745 0.939355 77.7377 1.10081 77.552C1.27284 77.4379 1.4744 77.3764 1.68084 77.3751C3.45043 77.2178 5.76074 76.9425 7.09776 78.3582C8.66091 79.941 8.08087 82.1235 8.44462 84.1192C8.8934 86.401 9.48108 88.6532 10.2044 90.8633C10.8237 92.9672 11.4824 95.0514 12.2198 97.1061C12.3869 97.5288 14.3826 101.933 14.2155 102.11Z" fill="#F39A83"/>
<path d="M52.7819 96.123C52.7819 96.123 48.2596 98.6988 51.3662 105.246C51.3662 105.246 52.6049 105.109 52.8507 102.169C53.0331 100.504 53.0857 98.8281 53.008 97.1553C52.9908 96.801 52.9144 96.4521 52.7819 96.123Z" fill="#F39A83"/>
<path d="M57.2176 95.4053C58.4657 97.4976 59.2002 99.856 59.3607 102.287C59.3607 105.728 57.601 107.104 56.4704 107.704C55.7036 108.117 53.2753 109.316 53.4129 107.999C53.5506 106.682 51.9284 101.186 51.7318 99.7408C51.7015 98.2953 52.1819 96.8854 53.0885 95.7592C53.4621 95.5921 57.2176 95.4053 57.2176 95.4053Z" fill="#F39A83"/>
<path d="M52.8532 97.5974C53.9248 97.794 57.4935 96.9485 57.4542 95.8179C57.346 92.9768 55.9697 77.6501 54.6327 77.247C53.2956 76.844 46.9546 79.3509 47.1807 80.4618C47.7247 83.6503 48.6182 86.7691 49.8449 89.762C50.13 90.4207 52.5288 97.5384 52.8532 97.5974Z" fill="#F39A83"/>
</svg>
