<svg width="24" height="17" viewBox="0 0 24 17" fill="none" xmlns="http://www.w3.org/2000/svg">
    <path d="M20.4 7.4002C22.0575 7.4002 23.4 6.05769 23.4 4.4002C23.4 2.7427 22.0575 1.4002 20.4 1.4002C18.7425 1.4002 17.4 2.7427 17.4 4.4002C17.4 6.05769 18.7425 7.4002 20.4 7.4002ZM20.4 2.6002C21.3938 2.6002 22.2 3.40645 22.2 4.4002C22.2 5.39395 21.3938 6.20019 20.4 6.20019C19.4062 6.20019 18.6 5.39395 18.6 4.4002C18.6 3.40645 19.4062 2.6002 20.4 2.6002ZM12 8.60019C14.3213 8.60019 16.2 6.72145 16.2 4.4002C16.2 2.07895 14.3213 0.200195 12 0.200195C9.67875 0.200195 7.8 2.07895 7.8 4.4002C7.8 6.72145 9.67875 8.60019 12 8.60019ZM12 1.4002C13.6538 1.4002 15 2.74645 15 4.4002C15 6.05395 13.6538 7.4002 12 7.4002C10.3463 7.4002 9 6.05395 9 4.4002C9 2.74645 10.3463 1.4002 12 1.4002ZM21.15 8.60019H19.65C19.08 8.60019 18.5513 8.78019 18.1088 9.08394C18.4613 9.32394 18.78 9.60519 19.0613 9.92394C19.245 9.84519 19.4438 9.80019 19.65 9.80019H21.15C22.0575 9.80019 22.8 10.6064 22.8 11.6002C22.8 11.9302 23.07 12.2002 23.4 12.2002C23.73 12.2002 24 11.9302 24 11.6002C24 9.94644 22.7213 8.60019 21.15 8.60019ZM3.6 7.4002C5.2575 7.4002 6.6 6.05769 6.6 4.4002C6.6 2.7427 5.2575 1.4002 3.6 1.4002C1.9425 1.4002 0.6 2.7427 0.6 4.4002C0.6 6.05769 1.9425 7.4002 3.6 7.4002ZM3.6 2.6002C4.59375 2.6002 5.4 3.40645 5.4 4.4002C5.4 5.39395 4.59375 6.20019 3.6 6.20019C2.60625 6.20019 1.8 5.39395 1.8 4.4002C1.8 3.40645 2.60625 2.6002 3.6 2.6002ZM15.0038 9.35019C13.7513 9.35019 13.44 9.80019 12 9.80019C10.56 9.80019 10.2488 9.35019 8.99625 9.35019C7.635 9.35019 6.31125 9.95769 5.535 11.1089C5.07 11.7989 4.8 12.6277 4.8 13.5202V15.2002C4.8 16.1939 5.60625 17.0002 6.6 17.0002H17.4C18.3938 17.0002 19.2 16.1939 19.2 15.2002V13.5202C19.2 12.6277 18.93 11.7989 18.465 11.1089C17.6888 9.95769 16.365 9.35019 15.0038 9.35019ZM18 15.2002C18 15.5302 17.73 15.8002 17.4 15.8002H6.6C6.27 15.8002 6 15.5302 6 15.2002V13.5202C6 12.8977 6.18375 12.2939 6.52875 11.7802C7.04625 11.0114 7.96875 10.5502 8.9925 10.5502C10.02 10.5502 10.3875 11.0002 12 11.0002C13.6125 11.0002 13.98 10.5502 15.0038 10.5502C16.0275 10.5502 16.95 11.0114 17.4675 11.7802C17.8125 12.2939 17.9963 12.8977 17.9963 13.5202V15.2002H18ZM5.89125 9.08394C5.445 8.78019 4.91625 8.60019 4.35 8.60019H2.85C1.27875 8.60019 0 9.94644 0 11.6002C0 11.9302 0.27 12.2002 0.6 12.2002C0.93 12.2002 1.2 11.9302 1.2 11.6002C1.2 10.6064 1.9425 9.80019 2.85 9.80019H4.35C4.55625 9.80019 4.755 9.84519 4.93875 9.92394C5.22 9.60519 5.5425 9.32394 5.89125 9.08394Z" fill="white"/>
</svg>
