<svg width="304" height="176" viewBox="0 0 304 176" fill="none" xmlns="http://www.w3.org/2000/svg">
<g clip-path="url(#clip0)">
<path d="M222.387 32.8526H42.8476C42.1921 32.8566 41.538 32.9134 40.8916 33.0226V137.848C41.538 137.957 42.1921 138.014 42.8476 138.018H222.387C223.976 138.024 225.551 137.716 227.021 137.112C228.492 136.508 229.829 135.62 230.957 134.499C232.084 133.377 232.98 132.044 233.593 130.576C234.206 129.108 234.524 127.533 234.529 125.941V44.9368C234.524 43.345 234.206 41.7698 233.593 40.301C232.98 38.8323 232.085 37.4988 230.957 36.3766C229.83 35.2545 228.492 34.3658 227.022 33.7611C225.551 33.1564 223.976 32.8477 222.387 32.8526Z" fill="#945C41"/>
<path d="M268.917 73.0441L212.577 64.5889V127.057C212.577 130.187 213.816 133.189 216.023 135.406C218.23 137.622 221.224 138.873 224.35 138.882H268.925L268.917 73.0441Z" fill="#945C41"/>
<path d="M223.539 92.4971L52.3555 92.3862V126.266C52.3555 129.396 53.5946 132.398 55.8014 134.615C58.0082 136.832 61.0026 138.082 64.1284 138.092H220.011C221.39 138.639 222.86 138.92 224.344 138.919H256.083V104.323L223.539 92.4971Z" fill="#7D4E36"/>
<path d="M52.3555 104.212V126.592C52.3555 133.376 57.6256 138.868 64.1284 138.868H256.038V104.352C256.06 104.278 52.3555 104.212 52.3555 104.212Z" fill="#6C4026"/>
<path d="M279.613 138.846V84.8328C279.613 81.7029 278.374 78.7006 276.167 76.484C273.96 74.2673 270.966 73.0171 267.84 73.0073C264.708 73.0073 261.704 74.2532 259.489 76.4709C257.275 78.6886 256.03 81.6965 256.03 84.8328V138.846H279.613Z" fill="#A66547"/>
<path d="M193.534 64.7295C194.504 64.7295 195.291 63.942 195.291 62.9705C195.291 61.999 194.504 61.2114 193.534 61.2114C192.564 61.2114 191.777 61.999 191.777 62.9705C191.777 63.942 192.564 64.7295 193.534 64.7295Z" fill="#623C28"/>
<path d="M193.534 59.5852C193.234 57.7208 193.091 55.8344 193.106 53.9459C193.087 52.0573 193.23 50.1706 193.534 48.3066C193.832 50.1713 193.973 52.0577 193.955 53.9459C193.973 55.8342 193.832 57.7206 193.534 59.5852Z" fill="#815138"/>
<path d="M193.534 77.6047C193.234 75.7403 193.091 73.8539 193.106 71.9654C193.087 70.0769 193.23 68.1902 193.534 66.3262C194.095 70.0647 194.095 73.8662 193.534 77.6047Z" fill="#815138"/>
<path d="M196.907 62.9704C198.769 62.6697 200.653 62.5264 202.539 62.5417C204.425 62.5227 206.309 62.6661 208.171 62.9704C204.437 63.5321 200.641 63.5321 196.907 62.9704Z" fill="#815138"/>
<path d="M179.362 62.9704C181.224 62.6697 183.108 62.5264 184.994 62.5417C186.88 62.5227 188.764 62.6661 190.626 62.9704C186.892 63.5321 183.096 63.5321 179.362 62.9704Z" fill="#815138"/>
<path d="M105.16 63.0591C106.13 63.0591 106.917 62.2716 106.917 61.3001C106.917 60.3286 106.13 59.541 105.16 59.541C104.19 59.541 103.403 60.3286 103.403 61.3001C103.403 62.2716 104.19 63.0591 105.16 63.0591Z" fill="#623C28"/>
<path d="M105.16 57.9226C104.863 56.0579 104.722 54.1715 104.739 52.2833C104.718 50.3949 104.858 48.5082 105.16 46.644C105.458 48.5086 105.599 50.3951 105.581 52.2833C105.598 54.1715 105.458 56.0579 105.16 57.9226Z" fill="#815138"/>
<path d="M105.16 75.9636C104.863 74.0989 104.722 72.2126 104.739 70.3243C104.718 68.436 104.858 66.5492 105.16 64.6851C105.721 68.4236 105.721 72.2251 105.16 75.9636Z" fill="#815138"/>
<path d="M108.503 61.3002C112.237 60.7385 116.033 60.7385 119.767 61.3002C117.905 61.6057 116.021 61.7467 114.135 61.7215C112.249 61.7428 110.365 61.6018 108.503 61.3002Z" fill="#815138"/>
<path d="M91.0107 61.3002C94.7443 60.7385 98.5408 60.7385 102.274 61.3002C100.413 61.606 98.5285 61.747 96.6425 61.7215C94.7567 61.7427 92.8725 61.6018 91.0107 61.3002Z" fill="#815138"/>
<path d="M48.9675 73.2215V44.7C48.9675 38.159 45.5575 32.8745 41.3502 32.8745C37.1503 32.8745 33.7402 38.1812 33.7402 44.7V126.643V127.471C33.7402 134.012 37.1503 139.296 41.3502 139.296H88.8184L93.3947 73.5172L48.9675 73.2215Z" fill="#78472C"/>
<path d="M106.289 139.319V85.3133C106.289 78.7945 100.517 73.4878 93.3943 73.4878C86.2789 73.4878 80.5068 78.7649 80.5068 85.3133V139.319H106.289Z" fill="#A66547"/>
<path d="M95.9553 85.9118C95.9911 86.301 95.9084 86.6919 95.7181 87.0332C95.5278 87.3744 95.2388 87.65 94.8892 87.8238C94.5396 87.9975 94.1456 88.0612 93.7591 88.0066C93.3726 87.9519 93.0117 87.7814 92.7238 87.5175C92.4359 87.2536 92.2345 86.9087 92.146 86.528C92.0576 86.1473 92.0862 85.7488 92.2282 85.3847C92.3702 85.0206 92.6189 84.7081 92.9416 84.4883C93.2643 84.2684 93.6459 84.1514 94.0362 84.1528C94.2776 84.1418 94.5188 84.1787 94.746 84.2612C94.9731 84.3438 95.1818 84.4704 95.3601 84.6337C95.5383 84.7971 95.6827 84.9941 95.7848 85.2134C95.8869 85.4327 95.9449 85.67 95.9553 85.9118Z" fill="#815138"/>
<path d="M94.0361 75.0693C92.7337 75.1643 91.4538 75.461 90.2422 75.9489C89.0261 76.4012 87.9029 77.0725 86.9281 77.9296C84.9965 79.6569 83.7387 82.0136 83.3777 84.5815C82.9349 87.1239 83.1194 89.7551 83.0456 92.3937C82.9718 95.0322 82.957 97.6412 82.8758 100.265C82.7971 97.6437 82.7405 95.0199 82.7061 92.3937C82.7061 91.0781 82.7061 89.7699 82.7061 88.4543C82.7061 87.8039 82.7061 87.1387 82.7651 86.4809L82.8168 85.4831C82.8168 85.1579 82.9275 84.8327 82.9792 84.5002L83.1637 83.5246C83.2449 83.1994 83.3704 82.8889 83.4663 82.5711C83.5623 82.2533 83.6656 81.9281 83.7985 81.6251L84.2487 80.7308L84.4701 80.2799C84.5587 80.1395 84.6621 80.0065 84.758 79.8734L85.3264 79.053C85.5478 78.8018 85.784 78.5579 86.0128 78.314C86.1235 78.1957 86.2342 78.0701 86.3597 77.9592L86.7509 77.6414C88.8227 75.9905 91.3884 75.0847 94.0361 75.0693Z" fill="#815138"/>
<path d="M83.488 104.663C83.5766 106.518 83.6209 108.358 83.6578 110.228L83.7095 115.793L83.6578 121.359C83.6578 123.214 83.584 125.054 83.488 126.924C83.3995 125.069 83.3552 123.229 83.3183 121.359L83.2666 115.793L83.3183 110.228C83.3552 108.373 83.4068 106.518 83.488 104.663Z" fill="#815138"/>
<path d="M104.127 84.1528C104.223 86.008 104.26 87.8483 104.296 89.7182L104.348 95.2836L104.296 100.849C104.296 102.704 104.223 104.544 104.127 106.414C104.038 104.559 103.994 102.719 103.957 100.849L103.905 95.2836L103.957 89.7182C103.994 87.8631 104.075 86.008 104.127 84.1528Z" fill="#815138"/>
<path d="M25.6133 78.2992C26.1763 74.626 27.3568 71.0749 29.1046 67.7967C29.6434 66.8506 30.3815 65.8676 31.4592 65.7272C33.43 65.4685 34.4116 68.0184 34.6552 69.9991C36.3054 83.5834 34.7558 97.3659 30.1306 110.243C29.3458 112.673 27.8896 114.83 25.9307 116.466C25.879 110.464 24.8678 104.36 24.5726 98.3285C24.1541 91.6342 24.5033 84.9139 25.6133 78.2992Z" fill="#ADC174"/>
<path d="M26.3369 115.712C27.0406 112.411 27.6631 109.097 28.2043 105.771C28.7505 102.438 29.2303 99.1193 29.592 95.7491C29.9537 92.3788 30.2711 89.0455 30.4851 85.6826C30.6992 82.3198 30.8247 78.9421 30.8837 75.5645C30.9624 78.9446 30.9304 82.3345 30.7877 85.7344C30.6401 89.1046 30.3596 92.4749 29.9906 95.8377C29.6215 99.2006 29.1196 102.534 28.5144 105.86C27.9091 109.186 27.1784 112.445 26.3369 115.712Z" fill="#4D7757"/>
<path d="M28.3219 105.395C27.9307 104.559 27.5838 103.709 27.2738 102.845C26.9638 101.98 26.6685 101.108 26.4028 100.228C26.1371 99.3487 25.8935 98.4544 25.6647 97.5601C25.4359 96.6658 25.2735 95.7641 25.1406 94.8477C25.4359 95.7198 25.6942 96.5993 25.9599 97.4788L26.7571 100.11L27.5616 102.734C27.82 103.628 28.0857 104.508 28.3219 105.395Z" fill="#4D7757"/>
<path d="M29.4288 96.5549C29.1098 95.8763 28.8288 95.1805 28.5873 94.4706C28.329 93.7315 28.1223 93.0442 27.9304 92.3125C27.7385 91.5808 27.5909 90.8343 27.4728 90.0952C27.3406 89.362 27.2519 88.6216 27.207 87.8779C27.4137 88.617 27.5835 89.3561 27.768 90.0509L28.3216 92.2164L28.8752 94.3819C29.0671 95.0989 29.259 95.8232 29.4288 96.5549Z" fill="#4D7757"/>
<path d="M30.1594 85.6091C29.9158 85.1065 29.7165 84.5965 29.5172 84.0792C29.3179 83.5618 29.1481 83.0444 28.9784 82.5197C28.8086 81.9949 28.6536 81.4702 28.5207 80.9306C28.3782 80.3972 28.2624 79.857 28.1738 79.312C28.4174 79.8146 28.6167 80.3246 28.816 80.8419C29.0153 81.3593 29.185 81.8767 29.3548 82.4014C29.5246 82.9262 29.6796 83.4509 29.8124 83.9831C29.9453 84.5152 30.0782 85.0548 30.1594 85.6091Z" fill="#4D7757"/>
<path d="M30.7139 90.4202C30.9501 89.7697 31.2158 89.1341 31.4963 88.5059C31.7768 87.8777 32.072 87.2568 32.3746 86.636C32.6773 86.0152 33.002 85.4091 33.3416 84.8104C33.6811 84.2118 34.0206 83.6131 34.3971 83.0366C34.1682 83.687 33.8951 84.3226 33.6147 84.9509C33.3342 85.5791 33.0389 86.1999 32.7363 86.8208C32.4337 87.4416 32.1089 88.0403 31.7694 88.6389C31.4298 89.2376 31.0977 89.8437 30.7139 90.4202Z" fill="#4D7757"/>
<path d="M29.0156 101.174C29.3625 100.782 29.7537 100.435 30.0933 100.043L31.1857 98.9345L32.2929 97.8481C32.6693 97.4859 33.031 97.109 33.4369 96.7764C33.1622 97.2236 32.8564 97.6508 32.5217 98.055C32.1896 98.4617 31.8373 98.8514 31.4662 99.2228C31.0967 99.5912 30.7074 99.9391 30.2999 100.265C29.8968 100.602 29.4673 100.906 29.0156 101.174Z" fill="#4D7757"/>
<path d="M28.049 110.745C27.9752 110.745 27.9309 110.657 27.9383 110.59C27.9398 110.517 27.9601 110.446 27.9973 110.383L28.2335 110.051L28.7207 109.43C29.0455 109.009 29.3924 108.617 29.7467 108.218C30.101 107.819 30.4848 107.479 30.8391 107.08C31.1934 106.68 31.5772 106.34 32.0053 106.008C31.7174 106.451 31.3927 106.873 31.0679 107.286C30.7431 107.7 30.3888 108.092 30.0419 108.491C29.695 108.89 29.3038 109.267 28.9495 109.637L28.3812 110.184L28.0859 110.442C28.0047 110.516 27.894 110.686 28.049 110.745Z" fill="#4D7757"/>
<path d="M2.72414 89.0976C1.21536 85.6931 0.294404 82.0568 0.000494909 78.3438C-0.0585543 77.2573 0.0374006 76.0231 0.864089 75.3283C2.39199 74.0497 4.59157 75.6609 5.85375 77.1982C14.5565 87.7523 20.669 100.201 23.7014 113.547C24.3467 116.017 24.2828 118.62 23.5168 121.056C20.2322 116.03 16.1357 111.448 12.6075 106.511C8.65901 101.104 5.34288 95.2612 2.72414 89.0976Z" fill="#ADC174"/>
<path d="M23.4578 120.228C22.2768 117.064 21.0196 113.936 19.6861 110.841C18.3575 107.744 16.9624 104.67 15.464 101.654C13.9657 98.6389 12.423 95.6382 10.7918 92.6892C9.16055 89.7402 7.46288 86.8282 5.69141 83.9531C7.58098 86.7469 9.37214 89.6072 11.0649 92.534C12.7552 95.4904 14.3274 98.4467 15.8257 101.477C17.3241 104.507 18.697 107.589 19.9739 110.723C21.2509 113.857 22.4171 117.02 23.4578 120.228Z" fill="#4D7757"/>
<path d="M19.5902 110.457C18.8078 109.969 18.0623 109.43 17.3315 108.875C16.6008 108.321 15.8553 107.737 15.1836 107.146C14.5119 106.555 13.8033 105.926 13.1538 105.276C12.5042 104.625 11.8547 103.975 11.2568 103.273C11.995 103.857 12.6666 104.456 13.3605 105.047L15.4419 106.843L17.5234 108.646C18.2099 109.237 18.9111 109.836 19.5902 110.457Z" fill="#4D7757"/>
<path d="M15.7594 102.416C15.1249 102.017 14.5137 101.583 13.9289 101.115C13.331 100.657 12.7701 100.161 12.2239 99.6366C11.6776 99.1118 11.1462 98.5945 10.6443 98.0328C10.1394 97.4792 9.66392 96.8994 9.21973 96.2959C9.78069 96.7911 10.3195 97.3085 10.8657 97.8184L12.497 99.341L14.1282 100.863C14.6744 101.388 15.2206 101.891 15.7594 102.416Z" fill="#4D7757"/>
<path d="M10.4893 92.8004C10.0095 92.5047 9.56661 92.1869 9.12374 91.8617C8.68087 91.5365 8.25276 91.1891 7.82466 90.8418C7.39655 90.4944 6.99059 90.1027 6.592 89.7479C6.19342 89.3931 5.79484 89.0088 5.42578 88.5728C5.89817 88.861 6.34843 89.1788 6.79129 89.5114C7.23416 89.844 7.66227 90.184 8.083 90.5313C8.50372 90.8787 8.92445 91.2704 9.32303 91.6252C9.72161 91.98 10.1202 92.3865 10.4893 92.8004Z" fill="#4D7757"/>
<path d="M13.5371 96.5546C13.3895 95.882 13.2788 95.202 13.168 94.5221C13.0573 93.8421 12.9835 93.1548 12.9097 92.4748C12.8359 91.7948 12.7695 91.1001 12.7399 90.4127C12.7104 89.7254 12.6587 89.038 12.6735 88.3433C12.8285 89.0232 12.9392 89.7032 13.0426 90.3832C13.1459 91.0631 13.2271 91.7431 13.3083 92.4304C13.3895 93.1178 13.4411 93.7978 13.478 94.4851C13.5149 95.1725 13.5519 95.8598 13.5371 96.5546Z" fill="#4D7757"/>
<path d="M17.8994 106.533C17.9806 106.008 18.0913 105.505 18.1947 104.995L18.5194 103.473L18.8663 101.958C18.9918 101.455 19.1025 100.945 19.2502 100.479C19.265 100.985 19.2453 101.492 19.1911 101.995C19.1289 102.516 19.0402 103.034 18.9254 103.547C18.8132 104.047 18.6728 104.541 18.5047 105.025C18.3378 105.541 18.1356 106.045 17.8994 106.533Z" fill="#4D7757"/>
<path d="M22.2176 115.128C22.1586 115.18 22.07 115.128 22.0405 115.054C22.0023 114.992 21.9818 114.92 21.9814 114.847V114.448L22.0553 113.657C22.1069 113.133 22.1881 112.608 22.2693 112.083C22.3505 111.558 22.4538 111.048 22.5719 110.531C22.69 110.014 22.8155 109.504 22.9853 109.001C22.9853 109.533 22.9336 110.058 22.8746 110.583C22.8155 111.107 22.7491 111.632 22.6679 112.15C22.5867 112.667 22.4834 113.192 22.3579 113.709L22.1734 114.448L22.07 114.825C22.07 114.951 22.07 115.15 22.2176 115.128Z" fill="#4D7757"/>
<path d="M11.1162 82.5047C10.4778 78.8379 10.4653 75.0893 11.0793 71.4183C11.286 70.3466 11.6698 69.201 12.6441 68.6985C14.4304 67.8263 16.1871 69.9254 17.0359 71.7287C22.9335 84.0718 25.8609 97.6269 25.5833 111.307C25.623 113.868 24.9427 116.388 23.6199 118.58C21.6565 112.904 18.7557 107.442 16.5487 101.817C14.0054 95.6092 12.1826 89.1292 11.1162 82.5047Z" fill="#DCA365"/>
<path d="M23.7237 117.73C23.3399 114.382 22.8675 111.078 22.3286 107.708C21.7898 104.338 21.1772 101.056 20.4538 97.7745C19.7305 94.4929 18.9776 91.204 18.0845 87.9446C17.1914 84.6852 16.2392 81.448 15.2354 78.2329C16.4016 81.4061 17.4497 84.6088 18.3797 87.8411C19.3097 91.0857 20.1217 94.3673 20.845 97.671C21.5684 100.975 22.1515 104.323 22.6313 107.641C23.111 110.96 23.4801 114.367 23.7237 117.73Z" fill="#997347"/>
<path d="M22.3204 107.316C21.6857 106.651 21.0952 105.949 20.5121 105.239C19.929 104.53 19.3827 103.761 18.8513 103.022C18.3199 102.283 17.8106 101.544 17.3308 100.716C16.851 99.8882 16.386 99.1417 15.9727 98.314C16.5262 99.0531 17.0577 99.7921 17.5891 100.531L19.1761 102.749L20.7556 104.966C21.2871 105.801 21.8185 106.547 22.3204 107.316Z" fill="#997347"/>
<path d="M20.5497 98.5872C20.026 98.0463 19.5331 97.4763 19.0735 96.8799C18.6085 96.2886 18.1804 95.6751 17.767 95.0469C17.3537 94.4187 16.9772 93.7757 16.6451 93.1253C16.2852 92.4675 15.9648 91.7888 15.6855 91.0928C16.1063 91.7136 16.5049 92.3418 16.9108 92.9701L18.1213 94.8474L19.3392 96.7173C19.7452 97.3233 20.1585 97.9442 20.5497 98.5872Z" fill="#997347"/>
<path d="M17.7596 87.9518C17.3684 87.5601 17.0214 87.1388 16.6598 86.7175C16.2981 86.2963 15.9807 85.8528 15.6485 85.4094C15.3164 84.9659 15.0064 84.5151 14.7111 84.0494C14.4159 83.5838 14.1206 83.1256 13.8623 82.6304C14.2535 83.0221 14.6004 83.4434 14.9621 83.872C15.3238 84.3007 15.6412 84.7294 15.9733 85.1728C16.3055 85.6163 16.6155 86.0671 16.9107 86.5328C17.206 86.9984 17.5012 87.4862 17.7596 87.9518Z" fill="#997347"/>
<path d="M19.8115 92.3863C19.8115 91.6915 19.8853 91.0042 19.9444 90.3168C20.0034 89.6295 20.092 88.9495 20.188 88.2695C20.2839 87.5896 20.3873 86.9096 20.5127 86.2296C20.6382 85.5497 20.7785 84.8771 20.9556 84.2119C20.9556 84.8993 20.8818 85.5866 20.8227 86.274C20.7637 86.9613 20.6751 87.6413 20.5792 88.3213C20.4832 89.0012 20.3799 89.6886 20.247 90.3612C20.1142 91.0337 19.9887 91.6915 19.8115 92.3863Z" fill="#997347"/>
<path d="M21.6348 103.096C21.8414 102.615 22.0703 102.142 22.2917 101.677L22.9781 100.28L23.6793 98.8977C23.9155 98.4321 24.1517 97.9665 24.4175 97.5156C24.3006 98.0187 24.1477 98.5127 23.9598 98.9938C23.7797 99.4984 23.5702 99.992 23.3324 100.472C23.1094 100.937 22.8631 101.391 22.5943 101.832C22.3047 102.275 21.984 102.698 21.6348 103.096Z" fill="#997347"/>
<path d="M23.7527 112.482C23.6789 112.519 23.6051 112.438 23.5903 112.371C23.5754 112.301 23.5754 112.228 23.5903 112.157L23.7084 111.765L23.9741 111.026C24.1439 110.531 24.3506 110.043 24.5572 109.548C24.7639 109.053 24.9853 108.587 25.2289 108.114C25.4725 107.641 25.7087 107.175 25.967 106.725C25.8342 107.242 25.657 107.745 25.4799 108.203C25.3027 108.661 25.0961 109.186 24.8968 109.681C24.6975 110.176 24.4687 110.642 24.2251 111.115L23.856 111.854L23.6641 112.194C23.6198 112.275 23.6198 112.467 23.7527 112.482Z" fill="#997347"/>
<path d="M41.7045 84.16C43.6461 80.9918 46.1093 78.1755 48.9897 75.8304C49.8533 75.1726 50.9162 74.5444 51.9421 74.8327C53.8612 75.3648 53.7874 78.0994 53.2412 80.0063C49.5054 93.1699 42.7463 105.276 33.504 115.357C31.8377 117.291 29.6606 118.715 27.2227 119.466C29.4961 113.908 30.9132 107.892 32.9873 102.216C35.1955 95.884 38.1203 89.8259 41.7045 84.16Z" fill="#DCA365"/>
<path d="M27.9014 118.934C29.8254 116.165 31.683 113.352 33.4741 110.494C35.2604 107.634 36.9949 104.744 38.6409 101.795C40.2869 98.8458 41.8591 95.882 43.3575 92.8518C44.8559 89.8215 46.31 86.7764 47.6386 83.687C46.4133 86.8355 45.0773 89.9348 43.6306 92.9848C42.1765 96.0372 40.5969 99.038 38.9731 101.994C37.3492 104.951 35.5778 107.833 33.7325 110.656C31.8872 113.48 29.9459 116.251 27.9014 118.934Z" fill="#997347"/>
<path d="M33.7326 110.191C33.6883 109.275 33.7326 108.351 33.7326 107.434C33.7326 106.518 33.8433 105.594 33.9392 104.685C34.0352 103.776 34.1607 102.852 34.3157 101.95C34.4707 101.049 34.6552 100.139 34.884 99.2451C34.8176 100.169 34.7143 101.078 34.6257 101.987L34.3378 104.722L34.0352 107.456C33.954 108.366 33.8581 109.282 33.7326 110.191Z" fill="#997347"/>
<path d="M38.1681 102.468C38.125 101.729 38.125 100.989 38.1681 100.25C38.2124 99.5113 38.3009 98.7722 38.4043 98.0331C38.5076 97.294 38.6479 96.555 38.825 95.8159C38.9946 95.0855 39.204 94.3651 39.4524 93.6577C39.3564 94.3968 39.2383 95.1359 39.1276 95.875L38.8029 98.0923L38.4781 100.31C38.3821 100.99 38.2936 101.729 38.1681 102.468Z" fill="#997347"/>
<path d="M43.0771 92.6599C43.0771 92.1056 43.0771 91.5586 43.0771 91.0043C43.0771 90.45 43.1362 89.9031 43.1805 89.3561C43.2248 88.8092 43.2912 88.2623 43.3798 87.7154C43.4683 87.1684 43.5495 86.6289 43.6824 86.0894C43.6824 86.6437 43.6824 87.198 43.6824 87.7449C43.6824 88.2918 43.6234 88.8462 43.5495 89.43C43.4757 90.0139 43.4462 90.5239 43.3576 91.0708C43.2691 91.6178 43.21 92.1203 43.0771 92.6599Z" fill="#997347"/>
<path d="M41.7188 97.3163C42.1911 96.8063 42.6857 96.3259 43.195 95.8381C43.7043 95.3503 44.2062 94.9068 44.7229 94.456C45.2396 94.0051 45.7784 93.5691 46.3172 93.1478C46.856 92.7265 47.4096 92.3052 47.9853 91.9209C47.5203 92.4309 47.0184 92.9113 46.5091 93.3991C45.9998 93.8869 45.4905 94.3229 44.9738 94.7738C44.4572 95.2246 43.9257 95.6681 43.3795 96.0894C42.8333 96.5107 42.2945 96.9319 41.7188 97.3163Z" fill="#997347"/>
<path d="M35.998 106.569C36.4704 106.34 36.9502 106.148 37.43 105.941L38.8619 105.35L40.3382 104.773C40.8179 104.589 41.3051 104.397 41.8144 104.227C41.3871 104.535 40.9381 104.811 40.471 105.054C40.0109 105.301 39.5378 105.523 39.0538 105.72C38.572 105.918 38.0791 106.088 37.5776 106.229C37.0613 106.386 36.533 106.5 35.998 106.569Z" fill="#997347"/>
<path d="M31.385 115.018C31.3112 115.018 31.3112 114.884 31.3407 114.825C31.3768 114.761 31.4243 114.703 31.481 114.655L31.8205 114.448L32.5143 114.057C32.9719 113.798 33.4517 113.569 33.9241 113.318C34.3965 113.066 34.8837 112.882 35.4003 112.689C35.8833 112.488 36.376 112.31 36.8766 112.157C36.4337 112.453 35.9761 112.712 35.5111 112.97C35.046 113.229 34.5737 113.451 34.1013 113.709C33.6289 113.968 33.1417 114.153 32.625 114.345L31.8869 114.626L31.5105 114.759C31.4514 114.796 31.289 114.907 31.385 115.018Z" fill="#997347"/>
<path d="M34.7511 87.8559C36.0427 84.8419 37.8936 82.1007 40.2058 79.7776C40.5385 79.3876 40.9532 79.076 41.4202 78.8652C41.8873 78.6544 42.395 78.5495 42.9073 78.5581C44.878 78.7872 45.343 81.1671 45.1806 82.8892C44.1128 94.7833 39.8706 106.171 32.8984 115.86C31.5901 117.79 29.7411 119.289 27.584 120.169C28.7059 115.084 28.92 109.703 29.7983 104.537C30.707 98.7823 32.3724 93.1732 34.7511 87.8559Z" fill="#DB7064"/>
<path d="M28.1299 119.622C29.4536 117.005 30.7084 114.357 31.8943 111.677C33.0753 108.994 34.1972 106.281 35.2084 103.547C36.2196 100.812 37.1792 98.0329 38.0501 95.2318C38.9211 92.4306 39.7035 89.5999 40.4121 86.7544C39.8364 89.6369 39.1401 92.4898 38.3232 95.3131C37.5113 98.1364 36.5739 100.923 35.5627 103.68C34.5515 106.436 33.3926 109.141 32.1526 111.81C30.9126 114.478 29.5766 117.072 28.1299 119.622Z" fill="#995147"/>
<path d="M32.0862 111.359C31.6825 109.791 31.3987 108.195 31.2374 106.584C31.0603 104.975 31.0085 103.354 31.0824 101.736C31.2817 103.34 31.4367 104.944 31.6064 106.547C31.7762 108.151 31.9534 109.74 32.0862 111.359Z" fill="#995147"/>
<path d="M34.8909 104.138C34.5583 102.866 34.3531 101.563 34.2783 100.25C34.1908 98.9357 34.2402 97.6155 34.4259 96.311L34.8909 104.138Z" fill="#995147"/>
<path d="M37.7479 95.0545C37.2556 93.1726 37.0075 91.235 37.0098 89.2896C37.2617 90.2279 37.4419 91.1841 37.5486 92.1498C37.6853 93.1119 37.7519 94.0827 37.7479 95.0545Z" fill="#995147"/>
<path d="M37.3418 99.2524C38.0824 98.2644 38.8783 97.3194 39.7259 96.4217C40.5601 95.5102 41.4474 94.6489 42.3831 93.8423C41.6426 94.8303 40.8466 95.7754 39.999 96.673C39.1593 97.5791 38.2723 98.4401 37.3418 99.2524Z" fill="#995147"/>
<path d="M33.585 107.952C34.4264 107.442 35.29 107.006 36.1462 106.548C37.0024 106.089 37.8586 105.638 38.7518 105.232C38.0085 105.875 37.1907 106.426 36.316 106.873C35.4499 107.336 34.5335 107.698 33.585 107.952Z" fill="#995147"/>
<path d="M30.7505 115.816C30.7343 115.811 30.7193 115.803 30.7066 115.791C30.6938 115.78 30.6836 115.767 30.6766 115.751C30.6696 115.736 30.666 115.719 30.666 115.702C30.666 115.685 30.6697 115.668 30.6767 115.653C30.6974 115.587 30.7357 115.529 30.7875 115.483L31.0827 115.254L31.688 114.833C32.0865 114.552 32.5073 114.301 32.9206 114.042C33.7589 113.535 34.6321 113.088 35.5335 112.704C34.7669 113.315 33.9579 113.871 33.1125 114.367C32.6918 114.611 32.2711 114.862 31.8356 115.106L31.1787 115.431L30.8465 115.587C30.7653 115.609 30.6324 115.734 30.7505 115.816Z" fill="#995147"/>
<path d="M12.8735 100.139C12.2393 98.1324 11.9889 96.0236 12.1353 93.9236C12.1326 93.5954 12.2027 93.2707 12.3406 92.9729C12.4784 92.6751 12.6806 92.4116 12.9325 92.2016C13.988 91.4625 15.2133 92.4455 15.885 93.3471C20.3486 99.5715 23.0609 106.882 23.7385 114.515C23.9214 115.997 23.6648 117.501 23.0004 118.838C21.4134 115.882 19.2581 113.199 17.531 110.317C15.5344 107.146 13.9681 103.724 12.8735 100.139Z" fill="#DB7064"/>
<path d="M22.963 118.351C22.5128 116.518 22.0108 114.707 21.4868 112.904C20.9627 111.1 20.3353 109.319 19.671 107.56C19.0067 105.801 18.3203 104.049 17.5674 102.327C16.8145 100.605 16.01 98.898 15.1611 97.2202C16.0912 98.861 16.9474 100.539 17.7298 102.253C18.5196 103.961 19.206 105.712 19.8924 107.479C20.5789 109.245 21.1177 111.049 21.6344 112.859C22.1511 114.67 22.6013 116.503 22.963 118.351Z" fill="#995147"/>
<path d="M21.4055 112.675C20.5526 112.081 19.7458 111.424 18.9919 110.709C18.2336 110 17.528 109.237 16.8809 108.425C17.6559 109.112 18.394 109.836 19.1543 110.531C19.9145 111.226 20.6674 111.935 21.4055 112.675Z" fill="#995147"/>
<path d="M19.7601 107.989C19.0669 107.508 18.4217 106.961 17.8336 106.355C17.2374 105.753 16.7032 105.092 16.2393 104.382L19.7601 107.989Z" fill="#995147"/>
<path d="M17.3456 102.379C16.8296 102.024 16.3365 101.636 15.8694 101.219C15.4051 100.802 14.9709 100.352 14.5703 99.8735C15.0864 100.229 15.5795 100.616 16.0465 101.034C16.5109 101.451 16.945 101.9 17.3456 102.379Z" fill="#995147"/>
<path d="M18.9035 104.581C18.8629 103.791 18.8629 102.999 18.9035 102.209C18.9305 101.417 19.002 100.627 19.1175 99.8438C19.1581 100.634 19.1581 101.426 19.1175 102.216C19.0905 103.008 19.019 103.798 18.9035 104.581Z" fill="#995147"/>
<path d="M20.7266 110.383C20.9185 109.784 21.162 109.215 21.3761 108.631C21.5902 108.048 21.8264 107.471 22.1142 106.895C22.0224 107.52 21.8589 108.132 21.6271 108.72C21.391 109.307 21.0889 109.865 20.7266 110.383Z" fill="#995147"/>
<path d="M22.6462 115.394C22.5428 115.438 22.5059 115.291 22.5207 115.217L22.5724 114.988L22.6905 114.529C22.7643 114.226 22.8676 113.923 22.9562 113.628C23.1617 113.027 23.4083 112.442 23.6943 111.876C23.5762 112.495 23.4159 113.105 23.2145 113.702C23.1038 113.997 23.0079 114.293 22.8898 114.588L22.7126 115.025L22.6167 115.231C22.565 115.298 22.5502 115.409 22.6462 115.394Z" fill="#995147"/>
<path d="M39.9322 112.49H12.7253C11.9752 112.49 11.3672 113.099 11.3672 113.85V118.114C11.3672 118.865 11.9752 119.474 12.7253 119.474H39.9322C40.6823 119.474 41.2904 118.865 41.2904 118.114V113.85C41.2904 113.099 40.6823 112.49 39.9322 112.49Z" fill="#DB815C"/>
<path d="M14.4307 119.474L19.1325 139.592C19.1325 140.243 22.2916 140.767 26.1815 140.767C30.0713 140.767 33.2378 140.243 33.2378 139.592L38.2275 119.474H14.4307Z" fill="#C67554"/>
<path d="M22.764 124.788C24.4051 122.868 26.6774 121.6 29.1708 121.211C31.7395 120.834 35.1643 120.656 37.6296 121.95L38.2349 119.503H14.4307L19.1325 139.621H19.3908C18.2024 134.588 19.3539 128.698 22.764 124.788Z" fill="#B66D4D"/>
<path d="M177.842 103.384C177.842 103.384 178.617 107.708 172.971 136.968C172.233 140.745 169.642 138.446 169.642 138.446C169.642 138.446 169.369 107.952 169.952 103.983C170.535 100.014 177.842 103.384 177.842 103.384Z" fill="#F39A83"/>
<path d="M174.749 131.359C176.624 122.209 180.861 102.482 180.839 99.5777C180.802 95.5644 169.767 99.829 169.767 99.829C169.767 99.829 167.914 105.091 169.029 130.937L174.749 131.359Z" fill="#404681"/>
<path d="M166.815 81.5954C175.488 85.5865 179.466 96.4881 180.396 98.7127C181.326 100.937 173.93 103.339 173.93 103.339C173.93 103.339 154.791 93.9604 154.37 92.2087C153.95 90.4571 164.874 80.7011 166.815 81.5954Z" fill="#404681"/>
<path d="M150.465 99.2967C157.389 106.325 168.689 109.178 171.199 109.363C173.708 109.548 173.494 101.751 173.494 101.751C173.494 101.751 158.422 84.3375 156.518 84.4853C154.613 84.6331 148.915 97.7298 150.465 99.2967Z" fill="#474F91"/>
<path d="M180.632 140.147C181.616 140.61 182.601 141.083 183.585 141.566C184.006 141.773 184.507 142.187 184.323 142.608C179.894 144.204 176.314 143.029 171.9 142.216C170.66 141.987 169.236 141.662 168.948 140.235C168.891 139.936 168.872 139.631 168.889 139.326C168.927 138.118 169.103 136.918 169.413 135.749C170.793 136.584 172.048 136.34 173.539 136.252C174.233 137.279 173.827 137.139 174.964 137.619C176.863 138.422 178.753 139.265 180.632 140.147Z" fill="#1C0F39"/>
<path d="M172.631 105.261C172.631 105.261 173.731 109.637 169.981 140.035C169.501 143.96 166.674 141.743 166.674 141.743C166.674 141.743 164.261 110.501 164.6 106.429C164.94 102.357 172.631 105.261 172.631 105.261Z" fill="#F39A83"/>
<path d="M171.413 134.16C172.704 124.648 174.011 105.971 173.989 102.379C173.989 98.2547 165.131 102.379 165.131 102.379C165.131 102.379 162.548 107.715 165.53 134.16H171.413Z" fill="#474F91"/>
<path d="M177.687 141.624C178.713 142.016 179.731 142.423 180.742 142.837C181.178 143.014 181.702 143.391 181.525 143.827C177.229 145.726 173.561 144.795 169.095 144.285C167.848 144.145 166.401 143.916 166.002 142.511C165.93 142.216 165.89 141.914 165.884 141.61C165.841 140.401 165.935 139.191 166.165 138.003C167.597 138.742 168.829 138.409 170.32 138.225C171.058 139.193 170.667 139.089 171.833 139.488C173.797 140.161 175.745 140.878 177.687 141.624Z" fill="#1C0F39"/>
<path d="M155.617 105.217C155.617 105.217 153.004 112.039 155.455 134.921C155.787 137.981 159.396 135.912 159.396 135.912C159.396 135.912 163.825 106.703 163.574 103.502C163.323 100.302 155.617 105.217 155.617 105.217Z" fill="#F39A83"/>
<path d="M163.227 140.945C164.543 143.423 165.536 146.061 166.179 148.794C166.234 148.957 166.252 149.129 166.235 149.3C166.217 149.471 166.163 149.636 166.076 149.784C165.958 149.898 165.818 149.986 165.664 150.042C165.51 150.098 165.346 150.121 165.183 150.109C162.777 150.198 160.503 149.045 158.54 147.685C157.735 147.175 157.015 146.542 156.407 145.808C155.085 144.086 154.93 141.75 155.004 139.585C155.041 138.454 154.753 134.855 155.632 134.071C156.089 133.665 159.322 133.679 159.927 133.931C160.961 134.367 160.85 135.638 161.33 136.821C161.906 138.21 162.57 139.577 163.227 140.945Z" fill="#1C0F39"/>
<path d="M133.673 84.9956C133.404 84.461 133.334 83.8481 133.474 83.2662C134.035 81.958 137.681 81.241 138.899 80.9454C141.622 80.295 144.191 79.8959 146.811 78.8316C147.387 78.5951 151.152 83.1701 151.698 83.6948C153.241 85.2942 154.692 86.9796 156.045 88.7428C157.684 90.7532 159.426 92.7709 160.88 94.8995C162.334 97.0281 164.194 98.7871 165.028 101.16C165.054 101.241 165.054 101.329 165.028 101.411C164.777 102.335 161.862 102.741 161.116 103.052C159.623 103.641 158.239 104.476 157.02 105.52C155.543 106.836 154.909 108.477 153.787 109.955C152.17 108.573 151.07 106.437 149.358 104.382C147.854 102.735 146.44 101.008 145.121 99.2084C142.516 95.2173 138.286 92.49 135.651 88.4915C134.883 87.3916 134.22 86.221 133.673 84.9956Z" fill="#1C0F39"/>
<path d="M137.12 106.429C137.12 106.429 134.758 116.134 137.961 138.949C138.39 141.994 141.932 139.807 141.932 139.807C141.932 139.807 145.365 110.472 145.033 107.287C144.7 104.101 137.12 106.429 137.12 106.429Z" fill="#F39A83"/>
<path d="M145.926 144.677C147.328 147.111 148.415 149.713 149.159 152.423C149.217 152.583 149.241 152.754 149.23 152.925C149.218 153.095 149.171 153.262 149.093 153.413C148.978 153.531 148.84 153.624 148.688 153.685C148.535 153.746 148.371 153.774 148.207 153.768C145.808 153.938 143.498 152.866 141.475 151.55C140.645 151.069 139.897 150.458 139.261 149.74C137.881 148.062 137.659 145.734 137.652 143.561C137.652 142.437 137.246 138.845 138.095 138.032C138.537 137.619 141.785 137.515 142.383 137.752C143.431 138.151 143.357 139.429 143.859 140.59C144.516 141.987 145.225 143.332 145.926 144.677Z" fill="#1C0F39"/>
<path d="M125.125 98.9275C123.819 97.4494 122.357 96.1412 121.029 94.6778C119.487 92.8595 118.428 90.6809 117.951 88.3437C117.213 85.2913 115.67 80.2137 119.73 79.3712C122.343 78.8168 125.066 79.5929 127.687 79.7555C129.163 79.8442 130.211 74.301 131.68 74.6705C133.71 75.1879 136.529 83.0075 137.777 84.87C142.464 91.8618 146.634 99.0754 148.11 107.575C146.819 108.107 144.811 107.752 143.364 108.092C140.802 108.684 138.4 109.827 136.323 111.44C135.127 112.372 134.846 112.778 134.241 111.684C133.429 110.295 132.315 108.41 131.377 107.102C129.37 104.323 127.391 101.514 125.125 98.9275Z" fill="#1C0F39"/>
<path d="M165.693 102.933C165.848 103.911 165.912 104.9 165.884 105.89C165.888 108.027 165.755 110.162 165.486 112.283C164.977 116.54 164.083 120.738 163.441 124.973C163.389 125.662 163.19 126.333 162.858 126.939C162.031 128.203 160.075 127.678 158.828 127.486C154.754 126.954 153.551 128.41 153.484 125.209C153.403 121.122 152.879 117.013 152.473 112.955C152.318 111.396 152.074 109.851 151.786 108.314C151.518 106.931 151.464 105.515 151.624 104.116C151.652 103.265 151.877 102.433 152.281 101.684C153.558 99.6221 157.012 99.0752 159.204 99.0013C161.048 98.917 162.867 99.453 164.371 100.524C165.079 101.148 165.546 102 165.693 102.933Z" fill="#1C0F39"/>
<path d="M148.052 107.346C148.073 107.37 148.09 107.397 148.103 107.427C148.267 107.778 148.341 108.164 148.317 108.55C148.421 115.579 147.099 122.482 146.287 129.43C146.258 130.119 146.082 130.795 145.771 131.411C144.988 132.704 143.01 132.216 141.755 132.091C137.666 131.699 136.507 133.199 136.338 129.999C136.138 126.141 135.489 122.275 134.98 118.454C134.647 116.015 134.315 113.576 133.954 111.137C133.555 108.447 133.481 106.651 136.367 105.38C139.947 103.798 144.058 104.788 147.291 106.71C147.588 106.863 147.848 107.08 148.052 107.346Z" fill="#1C0F39"/>
<path d="M145.409 71.8098L122.343 71.6915C122.077 61.1742 120.173 35.9416 122.225 33.5618C127.724 27.1908 139.032 29.5115 144.369 33.1331C146.428 34.4856 145.077 60.8564 145.409 71.8098Z" fill="#F39A83"/>
<path d="M148.361 76.6878C148.472 80.0581 148.597 82.5119 148.723 82.4971C141.585 82.9849 134.396 83.4727 127.258 82.7336C125.111 82.5045 118.608 82.2975 118.15 80.1542C117.921 79.0677 118.645 76.88 118.682 75.6679C118.859 69.393 119.663 63.1033 119.663 56.821C119.848 53.5986 120.032 50.3762 119.922 47.1537C119.84 44.7073 119.575 42.2757 119.427 39.8367C119.331 38.2624 117.597 34.2122 118.563 32.8744C119.302 31.8397 123.199 31.3297 124.365 30.9898C125.841 30.5463 127.406 30.1842 128.941 29.8516C129.065 30.0828 129.219 30.2966 129.399 30.4872C130.392 31.4394 131.715 31.9692 133.09 31.9654C134.375 32.0867 135.663 31.7604 136.736 31.0415C137.186 30.7089 136.979 30.4724 137.171 29.9772C140.493 30.5241 143.814 31.5367 147.069 32.3423C147.231 32.3754 147.387 32.4301 147.534 32.5049C147.711 32.6294 147.851 32.798 147.942 32.9939C148.032 33.1897 148.07 33.4059 148.051 33.6209C148.007 34.0497 147.902 34.4702 147.741 34.87C147.25 36.6839 146.948 38.5441 146.841 40.4206C146.524 42.7775 146.524 45.1663 146.841 47.5233C147.409 50.8122 147.667 54.1751 147.911 57.5232C147.985 58.8979 148.162 69.7478 148.361 76.6878Z" fill="#3F7DAF"/>
<path d="M143.852 16.1269C143.379 17.5312 141.054 19.1867 140.685 17.8933C140.464 17.0951 140.597 16.223 141.069 14.8187C141.542 13.4144 141.113 12.3797 142.39 12.8084C143.022 13.056 143.531 13.544 143.805 14.1658C144.078 14.7876 144.095 15.4926 143.852 16.1269Z" fill="#F39A83"/>
<path d="M142.006 14.1089H141.94C141.438 14.545 141.549 15.624 141.46 16.2227C141.416 16.4814 141.364 16.7253 141.298 16.9618C141.631 16.9869 141.962 16.8983 142.239 16.7104C142.515 16.5224 142.719 16.2463 142.818 15.9271C142.951 15.5781 142.939 15.1909 142.787 14.8502C142.635 14.5094 142.354 14.2429 142.006 14.1089Z" fill="#EE7379"/>
<path d="M122.144 16.1491C122.631 17.546 124.971 19.1868 125.325 17.8786C125.547 17.0877 125.406 16.2156 124.919 14.8113C124.432 13.4071 124.853 12.3723 123.576 12.8158C122.947 13.0706 122.444 13.5636 122.175 14.1877C121.907 14.8118 121.896 15.5166 122.144 16.1491Z" fill="#F39A83"/>
<path d="M124.003 14.1089H124.07C124.579 14.545 124.476 15.624 124.572 16.2227C124.616 16.474 124.668 16.7253 124.734 16.9618C124.401 16.9891 124.068 16.9023 123.791 16.7157C123.513 16.5291 123.307 16.2536 123.206 15.9344C123.073 15.5863 123.082 15.1996 123.231 14.858C123.38 14.5164 123.658 14.2473 124.003 14.1089Z" fill="#EE7379"/>
<path d="M136.759 20.7756C134.884 19.0092 128.816 21.5147 128.816 21.5147L129.171 30.0217C129.171 30.0217 132.433 34.3232 136.803 30.7607C137.6 30.1177 137.541 21.5073 136.759 20.7756Z" fill="#E6927C"/>
<path d="M139.423 22.675C138.996 23.7133 138.337 24.6403 137.498 25.3856C136.659 26.131 135.662 26.675 134.581 26.9765C133.526 27.3067 132.401 27.3486 131.324 27.0978C130.247 26.847 129.256 26.3127 128.455 25.5501C126.063 23.185 125.259 19.4674 124.882 18.2479C124.269 16.2846 123.827 14.2716 123.561 12.2317C123.428 11.2043 123.34 10.1844 123.295 9.15703C123.223 8.33238 123.454 7.5096 123.945 6.84367C125.709 3.97599 128.905 3.04474 132.197 2.55694C133.973 2.33939 135.774 2.57061 137.438 3.22951C138.604 3.66558 139.6 3.9686 140.139 5.07724C142.811 10.65 141.756 17.0505 139.423 22.675Z" fill="#F39A83"/>
<path d="M128.433 15.2251C128.431 15.354 128.468 15.4805 128.539 15.5884C128.609 15.6963 128.71 15.7809 128.828 15.8312C128.947 15.8816 129.078 15.8955 129.204 15.8713C129.331 15.847 129.447 15.7857 129.539 15.695C129.63 15.6043 129.693 15.4885 129.719 15.3621C129.744 15.2357 129.732 15.1046 129.683 14.9853C129.634 14.866 129.551 14.764 129.444 14.6922C129.337 14.6204 129.211 14.5821 129.082 14.5821C128.997 14.5811 128.913 14.597 128.834 14.6289C128.755 14.6608 128.684 14.708 128.623 14.7678C128.563 14.8276 128.515 14.8988 128.482 14.9773C128.45 15.0558 128.433 15.14 128.433 15.2251Z" fill="#201544"/>
<path d="M135.444 15.2251C135.443 15.3543 135.48 15.4811 135.551 15.5892C135.622 15.6973 135.723 15.7818 135.842 15.8319C135.961 15.882 136.092 15.8956 136.219 15.8707C136.345 15.8458 136.462 15.7837 136.553 15.6923C136.644 15.6009 136.706 15.4844 136.731 15.3575C136.756 15.2307 136.743 15.0993 136.693 14.9801C136.642 14.861 136.558 14.7595 136.45 14.6886C136.342 14.6177 136.216 14.5806 136.087 14.5821C135.916 14.5821 135.753 14.6498 135.632 14.7704C135.512 14.891 135.444 15.0545 135.444 15.2251Z" fill="#201544"/>
<path d="M138.08 13.3037C137.216 12.6368 136.143 12.3012 135.054 12.3577" stroke="#201544" stroke-width="1.36" stroke-linecap="round" stroke-linejoin="round"/>
<path d="M126.956 13.3034C127.817 12.6358 128.888 12.3001 129.975 12.3574" stroke="#201544" stroke-width="1.36" stroke-linecap="round" stroke-linejoin="round"/>
<path d="M132.455 15.4023C132.666 16.1412 132.928 16.8647 133.237 17.5679C133.296 17.7527 133.355 17.9448 133.407 18.1444C133.479 18.373 133.479 18.6179 133.407 18.8465C133.309 19.0549 133.149 19.2279 132.95 19.3417C132.773 19.4502 132.581 19.5324 132.381 19.5856C132.521 19.4513 132.649 19.3054 132.765 19.1495C132.876 19.0273 132.957 18.8804 133.001 18.7209C133.001 18.5703 132.968 18.4217 132.905 18.2848C132.846 18.1074 132.78 17.93 132.713 17.7453C132.579 17.3745 132.473 16.994 132.396 16.6071C132.316 16.2068 132.336 15.7928 132.455 15.4023Z" fill="#DE7778"/>
<path d="M110.304 65.0399C110.267 64.9438 110.238 64.8403 110.208 64.7368C109.625 62.6378 110.481 60.3023 110.74 58.2328C111.164 54.5483 111.835 50.8964 112.747 47.3017C113.641 43.9909 114.85 40.7734 116.357 37.6935C117.095 36.2153 117.095 37.4717 118.918 37.2352C122.483 36.777 122.247 41.5811 122.247 41.5811C122.247 41.7585 122.195 41.9285 122.166 42.0985C121.612 45.5722 120.867 49.0237 119.951 52.4457C118.704 57.2129 117.678 62.0539 116.467 66.8876C116.43 67.1538 116.302 67.399 116.106 67.5823C115.954 67.6745 115.781 67.7278 115.604 67.7376C113.589 67.8928 111.072 67.0354 110.304 65.0399Z" fill="#F39A83"/>
<path d="M121.14 56.0081C121.962 53.3559 122.642 50.6618 123.177 47.9372C123.657 45.3578 123.266 42.564 122.845 39.9846C122.505 37.9003 121.937 35.7126 120.424 34.2344C117.722 31.5885 114.91 38.2108 114.371 40.0954C113.368 43.5913 112.29 47.0651 111.242 50.5536C110.383 53.3556 109.754 56.2228 109.36 59.1271C109.042 61.5956 108.703 64.8772 110.297 67.0132C110.408 67.1959 110.581 67.3324 110.784 67.3975C110.906 67.4142 111.03 67.4036 111.148 67.3665C111.265 67.3295 111.373 67.2668 111.463 67.1832C112.268 66.5475 112.364 65.3946 113.412 64.9659C113.714 64.8598 114.03 64.7976 114.349 64.7811L117.73 64.4337C117.937 64.4337 118.14 64.372 118.313 64.2564C118.438 64.1409 118.531 63.9961 118.586 63.8351C119.127 62.4791 119.595 61.095 119.988 59.6888C120.382 58.4668 120.766 57.2399 121.14 56.0081Z" fill="#4992CF"/>
<path d="M136.759 19.9551C135.497 19.859 134.353 19.216 133.068 19.1273C130.979 19.0312 128.381 20.7977 126.425 19.3417C125.156 18.3808 124.949 16.474 124.905 15.0032C124.88 13.4615 125.011 11.9213 125.296 10.406V10.3617C125.185 10.0439 125.082 9.71869 124.971 9.40088C124.004 13.3033 124.587 17.7378 125.525 21.5885C125.968 23.3993 126.757 25.4613 128.551 26.3039C130.4 27.0535 132.43 27.2337 134.382 26.8213C136.084 26.4775 137.609 25.5399 138.685 24.1753C140.161 22.2759 140.501 19.7408 141.091 17.4644C141.319 16.7625 141.49 16.0432 141.601 15.3136C141.645 14.848 141.601 14.4119 141.652 13.9389C141.488 14.3575 141.277 14.7566 141.025 15.1288C140.835 15.5432 140.698 15.9804 140.619 16.4296C140.147 18.1887 138.766 20.1103 136.759 19.9551Z" fill="#201544"/>
<path d="M141.851 6.70339C140.375 2.77881 135.695 -0.90926 131.584 0.199378C130.846 0.391542 130.196 0.77587 129.48 0.93847C128.692 1.12346 127.866 1.05625 127.118 0.746306C126.612 0.452976 126.057 0.252733 125.48 0.155032C125 0.171751 124.541 0.3546 124.181 0.672397C121.42 2.88967 122.402 8.06332 123.214 11.0566C123.463 11.9614 123.773 12.8479 124.144 13.71C124.35 14.2052 125.007 15.1143 124.882 15.6834C124.979 15.0676 125.008 14.4431 124.97 13.8208L125.125 13.9982C124.852 13.71 125.494 11.8475 125.62 11.4927C125.915 10.6427 126.358 9.91844 126.742 9.11283C127.952 6.44471 131.628 6.34862 133.983 6.51861C135.392 6.56103 136.775 6.91968 138.028 7.56813C140.98 9.26804 140.751 13.2444 141.017 16.4372C141.312 16.6811 141.637 16.1712 141.718 15.7794C142.279 12.7492 142.966 9.60802 141.851 6.70339Z" fill="#201544"/>
<path d="M135.754 21.4336C135.551 22.1369 135.125 22.755 134.541 23.1949C133.956 23.6348 133.245 23.8726 132.514 23.8726C131.783 23.8726 131.071 23.6348 130.487 23.1949C129.902 22.755 129.477 22.1369 129.273 21.4336H135.754Z" fill="white"/>
<path d="M134.241 73.318C134.241 73.318 137.024 69.7999 142.191 73.318C142.191 73.318 141.918 74.3601 139.378 74.1827C137.935 74.1165 136.499 73.9411 135.083 73.658C134.784 73.5949 134.5 73.4799 134.241 73.318Z" fill="#F39A83"/>
<path d="M133.053 77.0057C134.663 78.3448 136.568 79.2821 138.611 79.7404C141.563 80.2208 142.943 78.8682 143.608 77.9887C144.058 77.3827 145.401 75.4758 144.265 75.4167C143.128 75.3576 138.648 73.2511 137.452 72.8964C136.256 72.5416 134.064 73.2216 133.879 73.5246C133.695 73.8276 133.053 77.0057 133.053 77.0057Z" fill="#F39A83"/>
<path d="M135.481 73.5689C135.526 75.0471 134.913 76.5253 134.566 78.0035C129.696 77.1177 124.975 75.5502 120.542 73.3472C118.099 72.2016 115.715 70.923 113.39 69.5409C112.555 69.0383 111.419 68.7575 110.784 68.0036C109.374 66.3332 109.906 63.1995 111.825 62.1648C111.998 62.0605 112.192 61.9973 112.393 61.98C112.675 61.9977 112.949 62.084 113.19 62.2313C116.586 64.0125 119.789 66.0893 123.162 67.9223C127.109 70.1352 131.229 72.0236 135.481 73.5689Z" fill="#F39A83"/>
<path d="M208.636 167.885H208.488C207.379 167.885 206.48 168.785 206.48 169.895V173.99C206.48 175.1 207.379 176 208.488 176H208.636C209.745 176 210.643 175.1 210.643 173.99V169.895C210.643 168.785 209.745 167.885 208.636 167.885Z" fill="#2A2A29"/>
<path d="M230.24 167.885H230.093C228.984 167.885 228.085 168.785 228.085 169.895V173.99C228.085 175.1 228.984 176 230.093 176H230.24C231.349 176 232.248 175.1 232.248 173.99V169.895C232.248 168.785 231.349 167.885 230.24 167.885Z" fill="#2A2A29"/>
<path d="M274.734 167.885H274.587C273.478 167.885 272.579 168.785 272.579 169.895V173.99C272.579 175.1 273.478 176 274.587 176H274.734C275.843 176 276.742 175.1 276.742 173.99V169.895C276.742 168.785 275.843 167.885 274.734 167.885Z" fill="#2A2A29"/>
<path d="M296.346 167.885H296.198C295.089 167.885 294.19 168.785 294.19 169.895V173.99C294.19 175.1 295.089 176 296.198 176H296.346C297.455 176 298.353 175.1 298.353 173.99V169.895C298.353 168.785 297.455 167.885 296.346 167.885Z" fill="#2A2A29"/>
<path d="M275.096 120.169V126.252C275.096 130.346 272.608 133.694 269.567 133.694H244.833C241.785 133.694 239.297 130.346 239.297 126.252V120.169H234.81V127.626C234.81 132.733 238.006 136.917 241.918 136.917H272.483C276.388 136.917 279.591 132.733 279.591 127.626V120.169H275.096Z" fill="#3D3E3D"/>
<path d="M212.098 120.294L293.401 120.294C295.639 120.294 297.453 118.478 297.453 116.237V71.6252C297.453 69.3843 295.639 67.5676 293.401 67.5676H212.098C209.86 67.5676 208.045 69.3843 208.045 71.6252V116.237C208.045 118.478 209.86 120.294 212.098 120.294Z" fill="#676767"/>
<path d="M216.549 120.294L297.852 120.294C300.09 120.294 301.904 118.478 301.904 116.237V71.6252C301.904 69.3843 300.09 67.5676 297.852 67.5676H216.549C214.311 67.5676 212.496 69.3843 212.496 71.6252V116.237C212.496 118.478 214.311 120.294 216.549 120.294Z" fill="#3D3E3D"/>
<path d="M240.803 114.685H273.597C276.907 114.685 279.591 111.998 279.591 108.683V92.2531C279.591 88.9386 276.907 86.2517 273.597 86.2517H240.803C237.493 86.2517 234.809 88.9386 234.809 92.2531V108.683C234.809 111.998 237.493 114.685 240.803 114.685Z" fill="#575858"/>
<path d="M242.774 114.685H275.568C278.878 114.685 281.562 111.998 281.562 108.683V92.2531C281.562 88.9386 278.878 86.2517 275.568 86.2517H242.774C239.463 86.2517 236.78 88.9386 236.78 92.2531V108.683C236.78 111.998 239.463 114.685 242.774 114.685Z" fill="#4B4C4B"/>
<path d="M274.446 107.966H263.633C263.05 107.966 262.577 108.439 262.577 109.023V110.93C262.577 111.514 263.05 111.987 263.633 111.987H274.446C275.029 111.987 275.502 111.514 275.502 110.93V109.023C275.502 108.439 275.029 107.966 274.446 107.966Z" fill="#343534"/>
<path d="M249.992 109.917H244.582C244.292 109.917 244.058 110.152 244.058 110.442V111.403C244.058 111.693 244.292 111.928 244.582 111.928H249.992C250.281 111.928 250.516 111.693 250.516 111.403V110.442C250.516 110.152 250.281 109.917 249.992 109.917Z" fill="#343534"/>
<path d="M214.113 137.574H291.371C291.639 137.575 291.903 137.523 292.15 137.422C292.397 137.32 292.622 137.171 292.811 136.982C293.001 136.793 293.151 136.568 293.253 136.321C293.356 136.074 293.409 135.809 293.409 135.542C293.409 135.001 293.194 134.482 292.812 134.099C292.43 133.717 291.912 133.502 291.371 133.502H214.113C213.574 133.504 213.058 133.72 212.677 134.102C212.297 134.484 212.083 135.002 212.083 135.542C212.083 136.081 212.297 136.598 212.678 136.979C213.058 137.36 213.574 137.574 214.113 137.574Z" fill="#3D3E3D"/>
<path d="M214.113 137.574H228.764C229.303 137.574 229.819 137.36 230.2 136.979C230.58 136.598 230.794 136.081 230.794 135.542C230.794 135.002 230.581 134.484 230.2 134.102C229.82 133.72 229.303 133.504 228.764 133.502H214.113C213.574 133.504 213.058 133.72 212.677 134.102C212.297 134.484 212.083 135.002 212.083 135.542C212.083 136.081 212.297 136.598 212.678 136.979C213.058 137.36 213.574 137.574 214.113 137.574Z" fill="#676767"/>
<path d="M246.9 90.7827H240.877C240.776 90.7828 240.68 90.7433 240.608 90.6728C240.536 90.6023 240.495 90.5065 240.493 90.4058C240.493 90.3039 240.534 90.2061 240.606 90.134C240.678 90.062 240.775 90.0215 240.877 90.0215H246.9C247.002 90.0215 247.099 90.062 247.171 90.134C247.243 90.2061 247.284 90.3039 247.284 90.4058C247.284 90.4559 247.274 90.5056 247.254 90.5518C247.235 90.598 247.207 90.6399 247.171 90.675C247.135 90.7101 247.093 90.7377 247.046 90.7562C247 90.7747 246.95 90.7837 246.9 90.7827Z" fill="#1F201F"/>
<path d="M246.9 92.3199H240.877C240.775 92.3199 240.678 92.2794 240.606 92.2074C240.534 92.1353 240.493 92.0375 240.493 91.9356C240.495 91.8343 240.536 91.7376 240.608 91.6659C240.679 91.5943 240.776 91.5532 240.877 91.5513H246.9C247.002 91.5513 247.099 91.5918 247.171 91.6638C247.243 91.7359 247.284 91.8337 247.284 91.9356C247.284 92.0375 247.243 92.1353 247.171 92.2074C247.099 92.2794 247.002 92.3199 246.9 92.3199Z" fill="#1F201F"/>
<path d="M246.9 93.8644H240.877C240.775 93.8644 240.678 93.8239 240.606 93.7518C240.534 93.6797 240.493 93.582 240.493 93.48C240.493 93.3781 240.534 93.2803 240.606 93.2083C240.678 93.1362 240.775 93.0957 240.877 93.0957H246.9C247.002 93.0957 247.099 93.1362 247.171 93.2083C247.243 93.2803 247.284 93.3781 247.284 93.48C247.284 93.582 247.243 93.6797 247.171 93.7518C247.099 93.8239 247.002 93.8644 246.9 93.8644Z" fill="#1F201F"/>
<path d="M246.9 95.3946H240.877C240.776 95.3927 240.679 95.3516 240.608 95.28C240.536 95.2083 240.495 95.1116 240.493 95.0103C240.493 94.9084 240.534 94.8106 240.606 94.7385C240.678 94.6665 240.775 94.626 240.877 94.626H246.9C247.002 94.626 247.099 94.6665 247.171 94.7385C247.243 94.8106 247.284 94.9084 247.284 95.0103C247.284 95.1122 247.243 95.21 247.171 95.2821C247.099 95.3541 247.002 95.3946 246.9 95.3946Z" fill="#1F201F"/>
<path d="M246.9 96.9244H240.877C240.775 96.9244 240.678 96.8839 240.606 96.8118C240.534 96.7398 240.493 96.642 240.493 96.5401C240.495 96.4387 240.536 96.3421 240.608 96.2704C240.679 96.1988 240.776 96.1577 240.877 96.1558H246.9C247.002 96.1558 247.099 96.1962 247.171 96.2683C247.243 96.3404 247.284 96.4381 247.284 96.5401C247.284 96.642 247.243 96.7398 247.171 96.8118C247.099 96.8839 247.002 96.9244 246.9 96.9244Z" fill="#1F201F"/>
<path d="M246.9 98.4615H240.877C240.827 98.4615 240.777 98.4516 240.73 98.4323C240.684 98.413 240.641 98.3846 240.606 98.349C240.57 98.3133 240.542 98.2709 240.522 98.2243C240.503 98.1777 240.493 98.1277 240.493 98.0772C240.495 97.9759 240.536 97.8792 240.608 97.8075C240.679 97.7359 240.776 97.6948 240.877 97.6929H246.9C246.95 97.6929 247 97.7028 247.047 97.7221C247.093 97.7415 247.136 97.7698 247.171 97.8054C247.207 97.8411 247.235 97.8835 247.255 97.9301C247.274 97.9768 247.284 98.0267 247.284 98.0772C247.284 98.1277 247.274 98.1777 247.255 98.2243C247.235 98.2709 247.207 98.3133 247.171 98.349C247.136 98.3846 247.093 98.413 247.047 98.4323C247 98.4516 246.95 98.4615 246.9 98.4615Z" fill="#1F201F"/>
<path d="M246.9 99.9991H240.877C240.776 99.9972 240.679 99.9561 240.608 99.8845C240.536 99.8128 240.495 99.7161 240.493 99.6148C240.493 99.5129 240.534 99.4151 240.606 99.343C240.678 99.271 240.775 99.2305 240.877 99.2305H246.9C247.002 99.2305 247.099 99.271 247.171 99.343C247.243 99.4151 247.284 99.5129 247.284 99.6148C247.284 99.7167 247.243 99.8145 247.171 99.8866C247.099 99.9586 247.002 99.9991 246.9 99.9991Z" fill="#1F201F"/>
<path d="M255.757 90.7827H249.734C249.684 90.7837 249.635 90.7747 249.588 90.7562C249.542 90.7377 249.499 90.7101 249.463 90.675C249.428 90.6399 249.399 90.598 249.38 90.5518C249.361 90.5056 249.351 90.4559 249.351 90.4058C249.351 90.3039 249.391 90.2061 249.463 90.134C249.535 90.062 249.633 90.0215 249.734 90.0215H255.757C255.859 90.0215 255.957 90.062 256.029 90.134C256.101 90.2061 256.141 90.3039 256.141 90.4058C256.139 90.5065 256.098 90.6023 256.026 90.6728C255.954 90.7433 255.858 90.7828 255.757 90.7827Z" fill="#1F201F"/>
<path d="M255.757 92.3199H249.734C249.633 92.3199 249.535 92.2794 249.463 92.2074C249.391 92.1353 249.351 92.0375 249.351 91.9356C249.351 91.8337 249.391 91.7359 249.463 91.6638C249.535 91.5918 249.633 91.5513 249.734 91.5513H255.757C255.859 91.5532 255.955 91.5943 256.027 91.6659C256.098 91.7376 256.139 91.8343 256.141 91.9356C256.141 92.0375 256.101 92.1353 256.029 92.2074C255.957 92.2794 255.859 92.3199 255.757 92.3199Z" fill="#1F201F"/>
<path d="M255.757 93.8644H249.734C249.633 93.8644 249.535 93.8239 249.463 93.7518C249.391 93.6797 249.351 93.582 249.351 93.48C249.351 93.3781 249.391 93.2803 249.463 93.2083C249.535 93.1362 249.633 93.0957 249.734 93.0957H255.757C255.859 93.0957 255.957 93.1362 256.029 93.2083C256.101 93.2803 256.141 93.3781 256.141 93.48C256.141 93.582 256.101 93.6797 256.029 93.7518C255.957 93.8239 255.859 93.8644 255.757 93.8644Z" fill="#1F201F"/>
<path d="M255.757 95.3946H249.734C249.633 95.3946 249.535 95.3541 249.463 95.2821C249.391 95.21 249.351 95.1122 249.351 95.0103C249.351 94.9084 249.391 94.8106 249.463 94.7385C249.535 94.6665 249.633 94.626 249.734 94.626H255.757C255.859 94.626 255.957 94.6665 256.029 94.7385C256.101 94.8106 256.141 94.9084 256.141 95.0103C256.139 95.1116 256.098 95.2083 256.027 95.28C255.955 95.3516 255.859 95.3927 255.757 95.3946Z" fill="#1F201F"/>
<path d="M255.757 96.9244H249.734C249.633 96.9244 249.535 96.8839 249.463 96.8118C249.391 96.7398 249.351 96.642 249.351 96.5401C249.351 96.4381 249.391 96.3404 249.463 96.2683C249.535 96.1962 249.633 96.1558 249.734 96.1558H255.757C255.859 96.1577 255.955 96.1988 256.027 96.2704C256.098 96.3421 256.139 96.4387 256.141 96.5401C256.141 96.642 256.101 96.7398 256.029 96.8118C255.957 96.8839 255.859 96.9244 255.757 96.9244Z" fill="#1F201F"/>
<path d="M255.757 98.4615H249.734C249.684 98.4615 249.634 98.4516 249.588 98.4323C249.541 98.413 249.499 98.3846 249.463 98.349C249.427 98.3133 249.399 98.2709 249.38 98.2243C249.361 98.1777 249.351 98.1277 249.351 98.0772C249.351 98.0267 249.361 97.9768 249.38 97.9301C249.399 97.8835 249.427 97.8411 249.463 97.8054C249.499 97.7698 249.541 97.7415 249.588 97.7221C249.634 97.7028 249.684 97.6929 249.734 97.6929H255.757C255.859 97.6948 255.955 97.7359 256.027 97.8075C256.098 97.8792 256.139 97.9759 256.141 98.0772C256.141 98.1277 256.131 98.1777 256.112 98.2243C256.093 98.2709 256.064 98.3133 256.029 98.349C255.993 98.3846 255.951 98.413 255.904 98.4323C255.858 98.4516 255.808 98.4615 255.757 98.4615Z" fill="#1F201F"/>
<path d="M255.757 99.9991H249.734C249.633 99.9991 249.535 99.9586 249.463 99.8866C249.391 99.8145 249.351 99.7167 249.351 99.6148C249.351 99.5129 249.391 99.4151 249.463 99.343C249.535 99.271 249.633 99.2305 249.734 99.2305H255.757C255.859 99.2305 255.957 99.271 256.029 99.343C256.101 99.4151 256.141 99.5129 256.141 99.6148C256.139 99.7161 256.098 99.8128 256.027 99.8845C255.955 99.9561 255.859 99.9972 255.757 99.9991Z" fill="#1F201F"/>
<path d="M265.19 110.96C265.765 110.96 266.231 110.493 266.231 109.918C266.231 109.342 265.765 108.875 265.19 108.875C264.615 108.875 264.149 109.342 264.149 109.918C264.149 110.493 264.615 110.96 265.19 110.96Z" fill="#E7392E"/>
<path d="M265.722 109.917C265.722 110.059 265.666 110.194 265.566 110.294C265.467 110.393 265.332 110.45 265.191 110.45C265.05 110.45 264.914 110.393 264.815 110.294C264.715 110.194 264.659 110.059 264.659 109.917C264.659 109.776 264.715 109.641 264.815 109.541C264.914 109.441 265.05 109.385 265.191 109.385C265.332 109.385 265.467 109.441 265.566 109.541C265.666 109.641 265.722 109.776 265.722 109.917Z" fill="#161715"/>
<path d="M268.911 110.96C269.486 110.96 269.952 110.493 269.952 109.918C269.952 109.342 269.486 108.875 268.911 108.875C268.336 108.875 267.87 109.342 267.87 109.918C267.87 110.493 268.336 110.96 268.911 110.96Z" fill="#F7A635"/>
<path d="M268.91 110.45C269.204 110.45 269.442 110.211 269.442 109.917C269.442 109.624 269.204 109.385 268.91 109.385C268.617 109.385 268.379 109.624 268.379 109.917C268.379 110.211 268.617 110.45 268.91 110.45Z" fill="#161715"/>
<path d="M272.579 110.96C273.154 110.96 273.62 110.493 273.62 109.918C273.62 109.342 273.154 108.875 272.579 108.875C272.004 108.875 271.538 109.342 271.538 109.918C271.538 110.493 272.004 110.96 272.579 110.96Z" fill="#79A54D"/>
<path d="M273.103 109.917C273.103 110.059 273.047 110.194 272.947 110.294C272.848 110.393 272.712 110.45 272.571 110.45C272.431 110.45 272.295 110.393 272.196 110.294C272.096 110.194 272.04 110.059 272.04 109.917C272.04 109.776 272.096 109.641 272.196 109.541C272.295 109.441 272.431 109.385 272.571 109.385C272.712 109.385 272.848 109.441 272.947 109.541C273.047 109.641 273.103 109.776 273.103 109.917Z" fill="#161715"/>
<path d="M247.077 113.554V133.694H213.257" stroke="#4C4D4C" stroke-width="1.19" stroke-linecap="round" stroke-linejoin="round"/>
<path d="M245.055 110.635V111.522C245.057 112.06 245.271 112.576 245.651 112.957C246.032 113.337 246.547 113.552 247.085 113.554H247.498C248.037 113.554 248.554 113.34 248.936 112.959C249.318 112.578 249.533 112.061 249.535 111.522V110.635H245.055Z" fill="#6B6B6B"/>
<path d="M204.2 168.875H298.354C301.468 168.875 303.993 166.347 303.993 163.228V143.229C303.993 140.11 301.468 137.582 298.354 137.582H204.2C201.086 137.582 198.561 140.11 198.561 143.229V163.228C198.561 166.347 201.086 168.875 204.2 168.875Z" fill="#602513"/>
<path d="M204.207 168.875H217.191C220.305 168.875 222.83 166.347 222.83 163.228V143.229C222.83 140.11 220.305 137.582 217.191 137.582H204.207C201.093 137.582 198.568 140.11 198.568 143.229V163.228C198.568 166.347 201.093 168.875 204.207 168.875Z" fill="#8A5444"/>
<path d="M148.361 55.4319C148.14 54.6189 147.904 53.8059 147.623 53.0003C146.147 48.2553 144.767 43.3108 144.951 38.285C145.01 36.5999 145.136 34.0943 146.708 33.1113C150.354 30.8202 153.55 36.5851 154.451 39.3419C155.639 43.0004 157.027 46.5924 158.141 50.2657C158.71 52.0986 159.219 53.9611 159.618 55.831C159.839 56.8953 160.806 59.4526 160.119 60.3543C159.583 60.9802 158.894 61.4564 158.119 61.7364C156.473 62.4311 152.694 63.7689 151.004 62.6676C150.17 62.1207 149.719 60.6425 149.446 59.7113C149.099 58.2848 148.76 56.8436 148.361 55.4319Z" fill="#4992CF"/>
<path d="M144.907 69.1051C144.206 69.3195 144.044 69.4895 142.279 68.7947C141.734 68.6444 141.253 68.3211 140.906 67.8734C140.56 67.4256 140.369 66.8775 140.36 66.3114C142.405 53.296 148.406 40.8718 151.388 40.3545C156.274 39.4971 154.628 45.5281 154.628 45.5281C154.628 45.5281 149.941 56.6958 147.372 64.0054C146.687 66.0139 146.115 68.0595 145.66 70.1325L144.907 69.1051Z" fill="#F39A83"/>
<path d="M146.398 45.4391C147.253 43.7837 148.28 42.2231 149.461 40.7829C150.124 40.1287 150.95 39.6642 151.853 39.4377C152.273 39.3817 152.7 39.4255 153.1 39.5654C153.5 39.7054 153.862 39.9376 154.155 40.2433C155.188 41.2064 155.814 42.5285 155.905 43.9388C156.045 45.8826 155.056 47.7303 154.296 49.4598C153.535 51.1893 152.768 52.9335 152 54.6335C151.233 56.3334 150.745 58.2254 149.919 60.0436C149.742 60.4353 147.933 65.2173 147.623 65.2173C145.21 65.1138 141.179 62.9335 139.504 61.9209C140.677 58.2026 142.1 54.5679 143.763 51.0415C144.523 49.2602 145.409 47.2351 146.398 45.4391Z" fill="#A464A6"/>
<path d="M176.535 69.8957C177.229 70.1248 177.273 69.844 179.163 69.6223C179.474 69.5985 179.778 69.5119 180.055 69.3677C180.333 69.2234 180.578 69.0245 180.777 68.7828C180.975 68.5412 181.123 68.2618 181.211 67.9615C181.299 67.6612 181.325 67.3462 181.289 67.0354C179.399 53.9905 173.369 41.6255 170.394 41.0711C165.515 40.1547 167.087 46.2004 167.087 46.2004C167.087 46.2004 171.649 57.4199 174.121 64.7738C174.786 66.8001 175.333 68.8631 175.76 70.9526L176.535 69.8957Z" fill="#F39A83"/>
<path d="M175.317 46.2153C174.485 44.5484 173.478 42.975 172.313 41.5221C171.657 40.8608 170.836 40.3863 169.936 40.1473C169.516 40.0879 169.087 40.1278 168.685 40.2639C168.282 40.3999 167.917 40.6283 167.619 40.9308C166.572 41.8884 165.93 43.2104 165.825 44.6262C165.67 46.5701 166.637 48.4326 167.375 50.1694C168.113 51.9063 168.851 53.6653 169.59 55.4096C170.328 57.1539 170.8 59.0164 171.605 60.8419C171.774 61.2336 173.524 66.0156 173.819 66.0156C176.233 65.9417 180.285 63.7983 182.005 62.8153C180.874 59.0859 179.496 55.4364 177.879 51.8915C177.148 50.0586 176.269 48.0409 175.317 46.2153Z" fill="#8F5891"/>
<path d="M165.102 39.445C165.733 39.2393 166.342 38.9693 166.918 38.6394C169.87 36.9543 171.642 33.7318 172.373 30.4281C173.266 26.4074 173.436 21.2412 172.048 17.3462C171.385 15.1724 170.184 13.2019 168.557 11.6182C167.362 10.6378 165.955 9.95075 164.448 9.61195C162.94 9.27316 161.375 9.29201 159.876 9.667C157.751 10.1622 154.584 11.3226 153.1 13.0299C150.93 15.5206 149.838 20.0956 149.351 23.2811C148.716 27.3461 148.472 30.7459 150.318 34.4266C151.104 35.9398 152.139 37.3091 153.381 38.4768C155.307 40.0067 157.935 40.295 160.393 40.2063C161.992 40.1847 163.578 39.9283 165.102 39.445Z" fill="#201544"/>
<path d="M152.871 73.9682L170.062 73.6282C170.062 63.0962 174.24 43.5915 171.538 41.729C169.184 40.1252 165.737 39.4748 162.275 39.5117C158.648 39.5054 155.046 40.105 151.617 41.2856C149.1 42.239 152.886 62.9927 152.871 73.9682Z" fill="#F39A83"/>
<path d="M159.566 29.6225C161.396 28.3438 164.91 30.2137 164.91 30.2137L165.279 40.1915C165.279 40.1915 160.186 42.527 159.492 41.2632C158.798 39.9993 158.304 30.502 159.566 29.6225Z" fill="#F39A83"/>
<path d="M162.386 37.2207C163.559 37.8115 164.546 38.7174 165.235 39.8371L164.873 30.2289C164.873 30.2289 161.36 28.359 159.529 29.6376C158.909 30.0737 158.747 33.4144 158.791 36.8511C159.998 36.5952 161.255 36.7244 162.386 37.2207Z" fill="#E28D78"/>
<path d="M175.111 71.3074C174.942 70.2061 174.75 69.0901 174.506 68.0037C173.061 61.2835 172.397 54.4185 172.528 47.5456C172.528 45.8013 172.772 43.281 171.79 41.7289C171.404 41.1433 170.851 40.6875 170.203 40.4207C169.556 40.1591 168.879 39.9803 168.188 39.8886C167.811 39.8221 166.594 39.5338 166.357 39.9625C166.295 40.0975 166.257 40.2427 166.247 40.3912C165.841 43.2367 162.659 46.2448 159.884 43.8797C159.321 43.3532 158.901 42.6909 158.666 41.956C158.431 41.221 158.388 40.438 158.541 39.6816C157.475 39.8574 156.395 39.9267 155.315 39.8886C154.222 39.9535 153.141 40.1546 152.097 40.4873C150.621 40.9898 150.621 42.7784 150.458 44.0423C150.232 45.9208 150.124 47.8116 150.134 49.7037C150.134 52.9927 150.643 56.2077 150.414 59.5706C150.156 63.3326 149.624 67.065 149.093 70.79C148.654 74.7208 147.999 78.6243 147.129 82.4825L143.83 95.217C149.122 96.9243 154.806 93.7388 160.349 94.2562C163.383 94.5371 166.328 95.9118 169.354 95.5792C170.402 95.4683 171.406 95.1505 172.447 94.9953C174.801 94.6257 177.075 95.1357 179.392 95.4388C180.765 92.6967 178.654 88.4395 177.739 85.8306C176.137 81.0265 175.864 76.1706 175.111 71.3074Z" fill="#A464A6"/>
<path d="M154.724 31.4408V31.4851C155.132 32.4991 155.778 33.4002 156.606 34.1126C157.435 34.8251 158.422 35.3282 159.484 35.5797C160.63 35.8498 161.823 35.8474 162.968 35.5728C164.112 35.2981 165.177 34.7588 166.076 33.9981C167.214 32.9659 168.169 31.7491 168.903 30.3987C169.56 29.2753 169.641 27.8562 170.025 26.6071C170.587 24.5872 170.975 22.5224 171.184 20.4357C171.287 19.3936 171.339 18.3515 171.353 17.302C171.405 16.461 171.142 15.6308 170.615 14.9738C169.633 13.5696 168.36 12.3929 166.884 11.5233C165.409 10.6537 163.764 10.1115 162.06 9.93321C160.277 9.6994 158.464 9.9232 156.79 10.5836C155.593 10.9876 154.597 11.8371 154.008 12.9561C151.483 18.7432 152.177 25.7941 154.724 31.4408Z" fill="#F39A83"/>
<path d="M172.978 24.545C172.528 25.9863 170.195 27.7231 169.789 26.4075C169.546 25.6093 169.664 24.715 170.114 23.2738C170.564 21.8326 170.114 20.7904 171.42 21.2043C172.068 21.4426 172.595 21.9275 172.887 22.5533C173.178 23.1792 173.211 23.8951 172.978 24.545Z" fill="#F39A83"/>
<path d="M171.051 22.5347H170.985C170.483 22.9929 170.623 24.0868 170.542 24.7002C170.542 24.9589 170.454 25.2102 170.395 25.4393C170.726 25.4584 171.054 25.3652 171.326 25.1748C171.597 24.9844 171.797 24.7079 171.893 24.3898C172.017 24.0315 171.999 23.6392 171.842 23.2939C171.686 22.9486 171.403 22.6768 171.051 22.5347Z" fill="#EE7379"/>
<path d="M171.656 26.6071C171.667 26.7037 171.66 26.8015 171.633 26.8951C171.607 26.9887 171.562 27.0761 171.501 27.1523C171.441 27.2285 171.366 27.292 171.281 27.3392C171.196 27.3865 171.103 27.4164 171.007 27.4275C170.91 27.4386 170.811 27.4306 170.718 27.4037C170.624 27.3769 170.536 27.3318 170.46 27.2711C170.383 27.2103 170.32 27.1351 170.272 27.0497C170.225 26.9643 170.195 26.8704 170.184 26.7734C170.172 26.6763 170.18 26.578 170.207 26.484C170.234 26.3901 170.279 26.3024 170.34 26.2258C170.4 26.1493 170.476 26.0855 170.561 26.0381C170.646 25.9906 170.74 25.9604 170.837 25.9493C170.934 25.938 171.032 25.9461 171.126 25.9731C171.22 26.0002 171.307 26.0456 171.384 26.1068C171.46 26.168 171.523 26.2437 171.57 26.3296C171.617 26.4155 171.646 26.5098 171.656 26.6071Z" fill="white"/>
<path d="M150.384 24.5675C150.701 26.0457 152.864 27.9821 153.381 26.7108C153.698 25.9718 153.668 25.0405 153.381 23.5623C153.093 22.0841 153.617 21.0864 152.273 21.345C151.936 21.4293 151.619 21.58 151.341 21.7884C151.063 21.9969 150.829 22.2588 150.653 22.5589C150.477 22.8589 150.362 23.1911 150.316 23.536C150.27 23.8809 150.293 24.2316 150.384 24.5675Z" fill="#F39A83"/>
<path d="M152.481 22.7344H152.555C152.552 22.7466 152.552 22.7591 152.555 22.7713C153.012 23.2739 152.776 24.3456 152.798 24.9886C152.798 25.2473 152.835 25.506 152.872 25.7277C152.532 25.7193 152.204 25.5933 151.946 25.371C151.688 25.1488 151.514 24.844 151.455 24.5082C151.364 24.1371 151.42 23.745 151.611 23.4143C151.802 23.0836 152.114 22.8399 152.481 22.7344Z" fill="#EE7379"/>
<path d="M151.506 26.7402C151.485 26.8359 151.484 26.9346 151.502 27.0308C151.52 27.127 151.556 27.2186 151.61 27.3004C151.664 27.3822 151.733 27.4526 151.814 27.5074C151.895 27.5622 151.986 27.6004 152.081 27.6198C152.178 27.6397 152.278 27.6402 152.375 27.6215C152.473 27.6027 152.565 27.565 152.648 27.5104C152.73 27.4559 152.801 27.3855 152.857 27.3035C152.912 27.2214 152.951 27.1292 152.971 27.0322C152.991 26.9351 152.991 26.8351 152.973 26.7378C152.954 26.6405 152.916 26.5479 152.862 26.4652C152.807 26.3825 152.737 26.3113 152.655 26.2558C152.573 26.2003 152.481 26.1615 152.384 26.1416C152.287 26.1213 152.187 26.1208 152.09 26.1401C151.992 26.1594 151.9 26.1982 151.818 26.2541C151.736 26.31 151.666 26.3818 151.612 26.4653C151.559 26.5489 151.522 26.6424 151.506 26.7402Z" fill="white"/>
<path d="M161.699 16.9991L161.787 16.807C159.597 18.6524 157.053 20.0284 154.31 20.8498L156.289 18.5882C155.683 19.2829 154.812 19.7855 154.163 20.4876C153.631 21.0641 153.063 22.2762 152.406 22.5719C151.932 21.7649 151.677 20.8474 151.668 19.9111C151.458 17.3252 152.251 14.7577 153.882 12.742C154.784 11.707 155.851 10.8302 157.041 10.1477C158.065 9.53862 159.194 9.1298 160.37 8.94302C161.387 8.71281 162.45 8.81212 163.407 9.22661C164.364 9.6411 165.164 10.3493 165.692 11.249C166.866 13.1189 166.43 14.0428 165.006 15.5283C163.694 16.8864 162.186 18.0399 160.533 18.9503C160.975 18.3337 161.365 17.6811 161.699 16.9991Z" fill="#201544"/>
<path d="M162.925 13.6434C163.198 15.2472 164.401 16.5332 165.626 17.5901C166.852 18.647 168.239 19.5931 169.125 20.9604C169.745 21.9138 170.092 23.0225 170.705 23.9833C171.071 23.298 171.368 22.5774 171.59 21.8325C172.094 19.3594 171.756 16.7888 170.631 14.5303C170.144 13.3131 169.367 12.234 168.367 11.3874C167.367 10.5409 166.175 9.95271 164.896 9.67445C163.685 9.37142 163.419 10.0292 163.102 11.0196C162.833 11.8672 162.772 12.7672 162.925 13.6434Z" fill="#201544"/>
<path d="M158.341 29.8962C158.559 30.5815 158.993 31.1772 159.579 31.5933C160.165 32.0093 160.87 32.2231 161.588 32.2022C162.306 32.1813 162.997 31.927 163.558 31.4776C164.119 31.0282 164.518 30.4082 164.696 29.7114L158.341 29.8962Z" fill="white"/>
<path d="M165.413 23.8506C165.417 24.014 165.356 24.1724 165.244 24.2914C165.132 24.4104 164.978 24.4804 164.815 24.4862C164.652 24.4862 164.496 24.4215 164.382 24.3065C164.267 24.1915 164.202 24.0354 164.202 23.8727C164.202 23.71 164.267 23.554 164.382 23.439C164.496 23.3239 164.652 23.2593 164.815 23.2593C164.971 23.2611 165.121 23.3238 165.233 23.4341C165.344 23.5444 165.409 23.6937 165.413 23.8506Z" fill="#201544"/>
<path d="M158.776 24.05C158.78 24.1305 158.768 24.2109 158.74 24.2865C158.712 24.3621 158.67 24.4313 158.615 24.4899C158.559 24.5486 158.493 24.5955 158.419 24.6279C158.346 24.6602 158.266 24.6774 158.186 24.6783C158.101 24.6899 158.014 24.6835 157.932 24.6595C157.849 24.6354 157.773 24.5943 157.707 24.5388C157.642 24.4832 157.588 24.4144 157.551 24.337C157.514 24.2595 157.493 24.175 157.491 24.0891C157.488 24.0031 157.503 23.9175 157.536 23.8379C157.569 23.7583 157.617 23.6865 157.68 23.6271C157.742 23.5676 157.815 23.5219 157.896 23.4929C157.977 23.4639 158.063 23.4523 158.149 23.4588C158.229 23.4548 158.31 23.4671 158.385 23.4949C158.461 23.5227 158.53 23.5655 158.588 23.6208C158.647 23.676 158.694 23.7424 158.726 23.8162C158.758 23.89 158.775 23.9695 158.776 24.05Z" fill="#201544"/>
<path d="M156.223 22.2685C157.024 21.614 158.031 21.2656 159.064 21.2855" stroke="#201544" stroke-width="0.7" stroke-linecap="round" stroke-linejoin="round"/>
<path d="M166.815 21.9509C165.961 21.3316 164.912 21.0428 163.862 21.1379" stroke="#201544" stroke-width="0.7" stroke-linecap="round" stroke-linejoin="round"/>
<path d="M161.315 23.8726C161.441 24.2536 161.471 24.6596 161.404 25.0551C161.339 25.4362 161.245 25.8118 161.123 26.1785C161.057 26.3633 161.005 26.5407 160.953 26.7107C160.894 26.8481 160.866 26.9971 160.872 27.1467C160.916 27.3 160.997 27.4398 161.108 27.5532C161.227 27.7042 161.358 27.8451 161.5 27.9745C161.289 27.9409 161.089 27.862 160.912 27.7434C160.734 27.6247 160.585 27.4691 160.474 27.2872C160.399 27.0616 160.399 26.818 160.474 26.5924C160.474 26.3929 160.57 26.2081 160.621 26.0233C160.899 25.3222 161.131 24.6038 161.315 23.8726Z" fill="#DE7778"/>
<path d="M152.599 41.7879C152.835 44.2417 152.03 46.6511 151.632 49.0828C151.067 52.7128 151.392 56.4259 152.579 59.9021C153.766 63.3784 155.779 66.5138 158.444 69.0382C157.352 65.0619 156.274 60.7309 157.832 56.9097C158.636 54.9364 160.098 53.2586 160.666 51.204C161.032 49.5711 161.032 47.8775 160.666 46.2446C160.423 44.8552 160.275 43.3991 159.928 42.0318C159.339 39.9746 158.386 38.0397 157.116 36.3186C156.584 35.5795 156.068 34.8405 155.551 34.0644C155.034 33.2884 154.208 32.771 153.654 32.0023C152.633 30.7129 151.458 29.5537 150.155 28.5508C146.885 30.2063 152.348 39.2233 152.599 41.7879Z" fill="#201544"/>
<path d="M147.033 86.0968C147.141 87.9216 147.68 89.6946 148.605 91.2705C150.082 93.4286 151.742 93.4877 152.695 93.4138C153.344 93.3399 155.359 93.0591 154.717 92.3052C154.075 91.5513 152.754 87.442 152.259 86.4664C151.669 85.5534 150.775 84.8801 149.735 84.5669C149.432 84.6112 147.033 86.0968 147.033 86.0968Z" fill="#F39A83"/>
<path d="M179.62 81.1006C179.62 81.1006 176.225 83.0296 178.558 87.952C178.558 87.952 179.488 87.8559 179.672 85.6386C179.809 84.3871 179.849 83.1269 179.79 81.8692C179.778 81.6051 179.721 81.3451 179.62 81.1006Z" fill="#F39A83"/>
<path d="M182.95 80.561C183.887 82.134 184.438 83.907 184.559 85.7347C184.559 88.3289 183.237 89.3562 182.389 89.8071C181.813 90.1175 179.99 91.0192 180.093 90.0288C180.196 89.0384 178.978 84.9069 178.831 83.8278C178.811 82.7393 179.171 81.6779 179.849 80.8271C180.137 80.6941 182.95 80.561 182.95 80.561Z" fill="#F39A83"/>
<path d="M179.672 82.2014C180.477 82.3492 183.156 81.7136 183.127 80.8711C183.045 78.7277 181.997 67.2126 181.008 66.9022C180.019 66.5918 175.251 68.4839 175.413 69.3191C175.821 71.7163 176.492 74.0612 177.414 76.3109C177.628 76.8061 179.429 82.1571 179.672 82.2014Z" fill="#F39A83"/>
<path d="M150.199 84.5148C149.291 85.4165 147.985 85.919 146.819 86.5842C146.472 86.7764 143.357 79.6959 143.128 79.1933C141.43 75.1505 139.644 70.9746 140.131 66.5253C140.121 66.4399 140.13 66.3533 140.157 66.2718C140.185 66.1904 140.231 66.1163 140.291 66.0551C140.351 65.994 140.425 65.9473 140.506 65.9186C140.587 65.89 140.673 65.8801 140.759 65.8897C142.087 65.7714 143.822 65.5644 144.826 66.5844C145.999 67.7817 145.601 69.4225 145.837 70.9155C146.17 72.6341 146.612 74.33 147.158 75.993C147.616 77.5747 148.118 79.1342 148.671 80.6863C148.826 81.0706 150.325 84.3817 150.199 84.5148Z" fill="#F39A83"/>
</g>
<defs>
<clipPath id="clip0">
<rect width="304" height="176" fill="white"/>
</clipPath>
</defs>
</svg>
