<svg width="423" height="393" viewBox="0 0 423 393" fill="none" xmlns="http://www.w3.org/2000/svg">
<path d="M272.816 102.474H13.1806C12.2285 102.488 11.2804 102.602 10.3521 102.813V303.099C11.2809 303.306 12.229 303.415 13.1806 303.424H272.816C282.518 303.424 290.367 293.101 290.367 280.348V125.621C290.367 112.812 282.518 102.474 272.816 102.474Z" fill="#945C41"/>
<path d="M340.109 179.287L258.618 163.116V282.48C258.618 294.922 266.241 305.076 275.589 305.076H340.053L340.109 179.287Z" fill="#945C41"/>
<path d="M274.486 216.443L26.9849 216.161V280.969C26.9849 293.411 34.6079 303.565 43.9563 303.565H269.38C271.323 304.536 273.473 305.02 275.645 304.978H321.497V239.039L274.486 216.443Z" fill="#7D4E36"/>
<path d="M26.8716 238.785V281.549C26.8716 294.513 34.4946 305.006 43.8431 305.006H321.511V239.054C321.511 238.955 26.8716 238.785 26.8716 238.785Z" fill="#6C4026"/>
<path d="M355.581 304.978V201.798C355.581 189.356 347.944 179.202 338.61 179.202C329.205 179.202 321.638 189.286 321.638 201.798V304.978H355.581Z" fill="#A66547"/>
<path d="M231.081 163.385C232.487 163.385 233.627 161.88 233.627 160.024C233.627 158.168 232.487 156.663 231.081 156.663C229.675 156.663 228.536 158.168 228.536 160.024C228.536 161.88 229.675 163.385 231.081 163.385Z" fill="#623C28"/>
<path d="M231.082 153.555C230.653 149.98 230.45 146.381 230.474 142.78C230.444 139.179 230.647 135.579 231.082 132.004C231.521 135.579 231.729 139.178 231.704 142.78C231.723 146.381 231.515 149.98 231.082 153.555V153.555Z" fill="#815138"/>
<path d="M231.082 188.029C230.653 184.453 230.45 180.854 230.474 177.253C230.444 173.652 230.647 170.053 231.082 166.478C231.521 170.053 231.729 173.652 231.704 177.253C231.723 180.855 231.515 184.454 231.082 188.029V188.029Z" fill="#815138"/>
<path d="M235.974 160.024C238.645 159.448 241.374 159.178 244.106 159.219C246.844 159.171 249.578 159.441 252.253 160.024C246.88 161.097 241.347 161.097 235.974 160.024V160.024Z" fill="#815138"/>
<path d="M210.63 160.024C213.306 159.449 216.039 159.179 218.776 159.219C221.514 159.171 224.248 159.441 226.923 160.024C221.545 161.097 216.008 161.097 210.63 160.024V160.024Z" fill="#815138"/>
<path d="M103.285 160.193C104.691 160.193 105.831 158.688 105.831 156.832C105.831 154.976 104.691 153.471 103.285 153.471C101.879 153.471 100.739 154.976 100.739 156.832C100.739 158.688 101.879 160.193 103.285 160.193Z" fill="#623C28"/>
<path d="M103.243 150.378C102.808 146.803 102.605 143.204 102.635 139.602C102.605 136.001 102.808 132.402 103.243 128.827C103.678 132.402 103.881 136.001 103.851 139.602C103.881 143.204 103.678 146.803 103.243 150.378Z" fill="#815138"/>
<path d="M103.242 184.851C102.432 177.69 102.432 170.461 103.242 163.3C104.053 170.461 104.053 177.69 103.242 184.851V184.851Z" fill="#815138"/>
<path d="M108.165 156.832C113.542 155.759 119.08 155.759 124.457 156.832C121.782 157.412 119.049 157.686 116.311 157.651C113.574 157.679 110.842 157.405 108.165 156.832V156.832Z" fill="#815138"/>
<path d="M82.8352 156.832C88.2081 155.759 93.7407 155.759 99.1137 156.832C96.438 157.412 93.7051 157.686 90.9674 157.651C88.2346 157.679 85.5072 157.405 82.8352 156.832V156.832Z" fill="#815138"/>
<path d="M22.0205 179.612V125.113C22.0205 112.614 17.0988 102.516 11.0173 102.516C4.93587 102.516 0 112.656 0 125.113V281.704V283.285C0 295.784 4.93587 305.881 11.0173 305.881H79.6528L86.2717 180.191L22.0205 179.612Z" fill="#78472C"/>
<path d="M104.912 305.924V202.716C104.912 190.274 96.5672 180.12 86.2712 180.12C75.9752 180.12 67.6309 190.218 67.6309 202.716V305.924H104.912Z" fill="#A66547"/>
<path d="M89.9918 203.86C89.8902 204.384 89.6421 204.868 89.2764 205.257C88.9106 205.646 88.442 205.923 87.9249 206.057C87.4078 206.191 86.8633 206.176 86.3544 206.014C85.8455 205.851 85.393 205.549 85.0493 205.14C84.7056 204.732 84.4848 204.235 84.4124 203.706C84.3399 203.178 84.4189 202.639 84.64 202.154C84.8612 201.668 85.2155 201.255 85.6621 200.962C86.1086 200.669 86.6291 200.509 87.1632 200.499C87.9829 200.574 88.7398 200.97 89.2694 201.599C89.799 202.228 90.0586 203.041 89.9918 203.86Z" fill="#815138"/>
<path d="M87.2051 183.142C85.2824 183.333 83.4169 183.904 81.7177 184.823C79.8758 185.748 78.2439 187.041 76.9232 188.622C74.0946 191.785 72.4116 196.544 71.7893 201.332C71.3584 206.295 71.1979 211.279 71.3085 216.259C71.3085 221.273 71.1812 226.287 71.0539 231.3C70.9408 226.282 70.8606 221.268 70.8135 216.259C70.8135 213.76 70.8135 211.246 70.8135 208.746C70.8135 207.489 70.8135 206.232 70.8842 204.961L70.969 203.055C70.969 202.434 71.1246 201.812 71.1953 201.177L71.464 199.312C71.5913 198.691 71.7611 198.098 71.9025 197.491C72.0439 196.883 72.1853 196.276 72.3833 195.683L73.0339 193.974L73.3592 193.127C73.4865 192.858 73.6279 192.59 73.7693 192.336L74.6038 190.768C74.9149 190.288 75.2543 189.822 75.5796 189.356C75.7493 189.13 75.9049 188.89 76.0888 188.678L76.6545 188.085C77.9837 186.587 79.605 185.377 81.4192 184.527C83.2333 183.677 85.2022 183.206 87.2051 183.142V183.142Z" fill="#815138"/>
<path d="M71.9442 239.689C72.0715 243.234 72.1422 246.75 72.1846 250.323L72.2695 260.958L72.1988 271.592C72.1988 275.137 72.0856 278.653 71.9442 282.226C71.8169 278.681 71.7462 275.165 71.7038 271.592L71.6331 260.958L71.7038 250.323C71.7462 246.778 71.8169 243.234 71.9442 239.689Z" fill="#815138"/>
<path d="M101.829 200.471C101.956 204.015 102.013 207.532 102.069 211.105V221.739V232.374C102.069 235.918 101.956 239.435 101.829 243.008C101.688 239.463 101.631 235.947 101.574 232.374V221.739V211.105C101.603 207.532 101.659 204.044 101.829 200.471Z" fill="#815138"/>
<path d="M404.161 306.927C388.498 304.573 372.572 304.573 356.909 306.927H348.82V310.486C348.82 313.437 362.962 315.824 380.528 315.824C398.093 315.824 412.236 313.437 412.236 310.486V306.927H404.161Z" fill="#1A093E"/>
<path d="M380.528 312.251C398.04 312.251 412.236 309.867 412.236 306.926C412.236 303.986 398.04 301.602 380.528 301.602C363.016 301.602 348.82 303.986 348.82 306.926C348.82 309.867 363.016 312.251 380.528 312.251Z" fill="#6970A2"/>
<path d="M384.418 72.845H376.654V306.418H384.418V72.845Z" fill="#1A093E"/>
<path d="M422.873 86.2192L406.807 34.4459C406.496 33.4483 405.875 32.5758 405.033 31.9559C404.19 31.336 403.172 31.0011 402.126 31H362.667C361.621 31.0011 360.602 31.336 359.76 31.9559C358.918 32.5758 358.296 33.4483 357.986 34.4459L341.905 86.2192C341.847 86.3231 341.813 86.4391 341.806 86.5582C341.806 89.2697 359.98 91.4587 382.396 91.4587C404.813 91.4587 423.001 89.2697 423.001 86.5582C422.991 86.4354 422.947 86.3179 422.873 86.2192V86.2192Z" fill="#FFFDF0"/>
<path d="M373.84 277.693V307.576C373.84 308.198 376.838 308.692 380.529 308.692C384.221 308.692 387.219 308.198 387.219 307.576V277.693H373.84Z" fill="#757DB6"/>
<path d="M380.529 278.795C384.224 278.795 387.219 278.301 387.219 277.693C387.219 277.085 384.224 276.591 380.529 276.591C376.835 276.591 373.84 277.085 373.84 277.693C373.84 278.301 376.835 278.795 380.529 278.795Z" fill="#1A093E"/>
<path d="M187.295 211.769C185.175 212.583 182.96 213.124 180.704 213.379C177.338 201.841 177.239 184.823 179.87 169.994C182.104 168.751 182.062 168.229 185.527 170.079C186.345 170.467 187.078 171.015 187.683 171.689C188.287 172.363 188.751 173.15 189.048 174.005C186.782 186.459 186.192 199.159 187.295 211.769Z" fill="#F39A83"/>
<path d="M256.877 207.928C259.098 208.394 261.37 208.574 263.637 208.464C265.052 196.531 262.478 179.725 257.499 165.504C255.095 164.642 255.053 164.091 251.842 166.506C251.096 167.02 250.46 167.679 249.974 168.443C249.488 169.207 249.162 170.062 249.014 170.955C253.279 182.872 255.924 195.308 256.877 207.928V207.928Z" fill="#F39A83"/>
<path d="M235.791 175.897C235.791 175.897 249.029 191.63 247.544 222.121H192.514C192.514 222.121 189.897 193.875 204.776 177.522L235.791 175.897Z" fill="#F8C9DE"/>
<path d="M205.142 74.7799C204.142 75.1991 203.193 75.7297 202.313 76.3617C197.165 80.1324 194.492 86.9677 194.252 93.2099C194.139 96.1615 195.496 98.3787 195.666 101.274C195.836 105.355 194.252 109.507 193.545 113.49C192.541 118.814 192.922 125.226 197.307 128.403C198.904 129.439 200.67 130.189 202.525 130.621C207.97 132.202 213.684 133.544 219.242 132.513C224.801 131.482 230.203 127.499 231.165 121.921C231.29 120.497 231.502 119.082 231.801 117.684C232.48 115.453 234.29 113.786 235.747 111.965C239.792 106.909 236.808 97.7009 234.927 92.1931C234.404 90.5145 233.737 88.8843 232.933 87.3208C231.817 85.4587 230.446 83.7617 228.86 82.279C223.146 76.6724 213.161 71.334 205.142 74.7799Z" fill="#EFEEEE"/>
<path d="M187.408 175.05C186.206 175.361 185.909 175.629 182.953 174.302C182.034 174 181.236 173.409 180.68 172.618C180.125 171.826 179.84 170.876 179.87 169.91C184.438 147.893 195.71 127.217 200.858 126.582C209.344 125.522 205.978 135.662 205.978 135.662C205.978 135.662 197.04 154.304 192.047 166.563C190.714 169.932 189.572 173.374 188.625 176.872L187.408 175.05Z" fill="#F39A83"/>
<path d="M183.531 154.911C185.596 149.262 187.435 143.613 190.603 138.317C193.432 133.403 197.604 126.666 203.473 124.943C211.761 122.528 206.005 135.705 206.005 135.705C203.176 144.362 199.796 152.807 196.543 161.295L194.69 166.082C193.677 169.251 192.143 172.229 190.15 174.895C189.674 175.48 189.082 175.961 188.411 176.307C187.54 176.672 186.594 176.822 185.653 176.745C184.37 176.755 183.102 176.47 181.947 175.912C180.825 175.193 179.921 174.182 179.332 172.987C178.744 171.792 178.494 170.459 178.61 169.133C178.886 166.489 179.659 163.921 180.887 161.563C181.834 159.402 182.697 157.157 183.531 154.911Z" fill="#D569A5"/>
<path d="M235.365 180.699L205.948 181.49C205.156 163.54 196.43 130.649 200.941 127.245C204.845 124.322 210.672 122.938 216.583 122.726C222.79 122.434 229.003 123.169 234.969 124.901C239.283 126.37 234.46 162.043 235.365 180.699Z" fill="#F39A83"/>
<path d="M200.941 127.288C203.792 125.304 207.056 123.991 210.488 123.446C212.666 125.226 214.349 127.358 217.559 127.274C218.826 127.344 220.07 126.913 221.023 126.076C221.975 125.238 222.56 124.061 222.651 122.797C226.819 122.973 230.949 123.676 234.941 124.887C239.283 126.299 234.46 161.987 235.365 180.685L205.948 181.476C205.156 163.583 196.43 130.663 200.941 127.288Z" fill="white"/>
<path d="M242.154 191.757C241.744 192.066 241.298 192.322 240.825 192.52C234.064 195.514 226.371 195.274 218.974 194.977L195.468 194.059C196.92 183.881 198.056 173.657 198.877 163.385C199.598 154.318 198.24 146.522 199.244 137.442C199.655 133.742 199.004 129.872 200.404 127.316C201.014 126.281 201.928 125.458 203.021 124.957C204.1 124.452 205.241 124.091 206.415 123.884C207.051 123.743 209.116 123.15 209.555 123.884C209.668 124.115 209.739 124.363 209.767 124.618C210.7 129.434 214.745 142.498 217.178 142.554C219.61 142.611 223.457 125.353 222.835 122.782C224.67 123.003 226.522 123.041 228.365 122.895C230.236 122.917 232.098 123.169 233.909 123.644C238.152 124.901 237.119 132.598 237.275 135.775C237.543 141.777 238.081 147.765 238.689 153.753C239.976 165.475 241.73 177.154 242.932 188.89C243.064 189.6 243 190.332 242.748 191.009C242.599 191.293 242.397 191.547 242.154 191.757V191.757Z" fill="#D569A5"/>
<path d="M220.402 105.694C217.178 103.675 211.309 107.107 211.309 107.107L211.464 124.209C211.464 124.209 220.36 127.782 221.449 125.621C222.538 123.461 222.623 107.092 220.402 105.694Z" fill="#F39A83"/>
<path d="M216.146 118.871C214.189 119.971 212.578 121.595 211.493 123.559V123.559L211.338 107.092C211.338 107.092 217.207 103.632 220.432 105.68C221.521 106.372 222.058 112.064 222.2 117.924C220.132 117.6 218.016 117.931 216.146 118.871V118.871Z" fill="#F39A83"/>
<path d="M228.819 108.406V108.49C228.196 110.25 227.161 111.836 225.801 113.115C224.44 114.395 222.794 115.332 220.997 115.848C219.075 116.396 217.052 116.488 215.088 116.118C213.124 115.747 211.273 114.925 209.683 113.716C207.663 112.043 205.933 110.048 204.563 107.812C203.361 105.948 203.05 103.576 202.357 101.429C201.23 98.0383 200.402 94.5556 199.882 91.0208C199.628 89.2602 199.444 87.4807 199.331 85.6824C199.178 84.2563 199.555 82.8238 200.391 81.6575C201.959 79.1878 204.039 77.0827 206.491 75.4845C208.943 73.8862 211.71 72.832 214.605 72.3931C217.637 71.8506 220.757 72.0887 223.67 73.0851C225.751 73.6729 227.521 75.0453 228.606 76.9123C233.358 86.5157 232.722 98.5905 228.819 108.406Z" fill="#F39A83"/>
<path d="M197.081 98.1104C197.957 100.525 202.087 103.308 202.738 101.034C203.021 99.2245 202.745 97.372 201.946 95.7237C201.069 93.3088 201.748 91.487 199.541 92.292C198.997 92.5123 198.501 92.8376 198.083 93.2494C197.664 93.6612 197.331 94.1513 197.103 94.6917C196.874 95.2321 196.755 95.8122 196.751 96.3989C196.747 96.9855 196.859 97.5671 197.081 98.1104Z" fill="#F39A83"/>
<path d="M200.207 94.5518H200.32C201.225 95.2861 201.084 97.1644 201.268 98.1954C201.348 98.6337 201.452 99.0674 201.579 99.4946C200.996 99.5647 200.408 99.4295 199.915 99.1124C199.421 98.7952 199.055 98.316 198.878 97.7576C198.633 97.156 198.635 96.4824 198.884 95.8825C199.133 95.2827 199.608 94.8046 200.207 94.5518V94.5518Z" fill="#EE7379"/>
<path d="M199.499 101.528C199.473 101.702 199.484 101.879 199.53 102.048C199.576 102.218 199.656 102.376 199.767 102.513C199.877 102.65 200.014 102.762 200.17 102.843C200.326 102.924 200.498 102.972 200.673 102.984C200.849 102.996 201.025 102.971 201.19 102.911C201.356 102.852 201.507 102.759 201.634 102.638C201.762 102.517 201.863 102.371 201.931 102.209C202 102.047 202.034 101.873 202.031 101.697C202.026 101.378 201.902 101.072 201.682 100.841C201.461 100.609 201.162 100.469 200.843 100.448C200.524 100.426 200.209 100.526 199.96 100.726C199.711 100.926 199.547 101.212 199.499 101.528V101.528Z" fill="white"/>
<path d="M235.692 96.3453C235.268 98.8874 231.732 102.376 230.742 100.243C230.124 98.5174 230.055 96.6431 230.544 94.8766C230.954 92.3487 229.95 90.6398 232.255 91.0635C233.411 91.311 234.422 92.0057 235.066 92.9957C235.71 93.9856 235.935 95.1901 235.692 96.3453V96.3453Z" fill="#F39A83"/>
<path d="M231.943 93.3936H231.815C231.066 94.2833 231.561 96.1051 231.561 97.1502C231.589 97.5922 231.589 98.0356 231.561 98.4777C232.144 98.4388 232.696 98.1971 233.119 97.7947C233.543 97.3923 233.812 96.8545 233.88 96.2746C234.005 95.636 233.871 94.9742 233.508 94.4341C233.145 93.8941 232.582 93.5199 231.943 93.3936V93.3936Z" fill="#EE7379"/>
<path d="M233.939 100.2C234.023 100.524 233.976 100.869 233.806 101.157C233.636 101.446 233.358 101.656 233.034 101.74C232.709 101.824 232.365 101.776 232.076 101.607C231.787 101.437 231.577 101.16 231.492 100.836C231.451 100.676 231.441 100.508 231.464 100.344C231.487 100.18 231.542 100.022 231.626 99.8791C231.71 99.7362 231.821 99.6112 231.954 99.5112C232.086 99.4113 232.237 99.3384 232.398 99.2966C232.558 99.2549 232.725 99.2452 232.89 99.268C233.054 99.2909 233.213 99.3458 233.356 99.4297C233.499 99.5137 233.624 99.6249 233.724 99.7572C233.824 99.8894 233.897 100.04 233.939 100.2V100.2Z" fill="white"/>
<path d="M221.436 79.384C221.736 80.7793 222.324 82.0971 223.161 83.2536C224.47 84.6742 225.925 85.9524 227.503 87.0667C229.78 88.945 230.332 91.3034 231.888 93.5066C232.717 91.9676 233.131 90.24 233.09 88.493C233.243 84.0719 231.682 79.7622 228.734 76.4606C227.037 74.6247 224.265 71.3059 222.256 73.7067C221.704 74.532 221.344 75.4702 221.202 76.4525C221.06 77.4349 221.14 78.4365 221.436 79.384Z" fill="#EFEEEE"/>
<path d="M213.842 71.2495C216.051 70.939 218.293 70.939 220.503 71.2495C220.926 71.2643 221.342 71.366 221.724 71.5483C222.106 71.7305 222.446 71.9893 222.723 72.3087C224.491 74.9637 222.794 79.5394 221.309 81.8555C219.312 84.9019 216.191 87.0384 212.625 87.8011C210.32 88.253 207.831 88.14 205.794 89.2134C201.141 91.8402 201.778 98.6614 197.521 101.514C195.56 96.9097 195.162 91.7908 196.389 86.9396C197.45 82.2933 200.958 78.0424 204.507 75.0202C207.215 72.9339 210.443 71.6296 213.842 71.2495V71.2495Z" fill="#EFEEEE"/>
<path d="M186.828 209.905C186.828 209.905 193.347 211.402 191.933 220.581C191.933 220.581 190.349 220.878 188.963 217.347C188.14 215.364 187.459 213.326 186.926 211.246C186.824 210.807 186.791 210.354 186.828 209.905V209.905Z" fill="#F39A83"/>
<path d="M181.114 210.653C180.351 213.671 180.312 216.825 181 219.861C182.231 224.098 184.932 225.143 186.544 225.51C187.648 225.736 191.07 226.329 190.42 224.761C189.769 223.194 189.741 215.836 189.444 213.986C188.957 212.198 187.849 210.641 186.318 209.594C185.795 209.495 181.114 210.653 181.114 210.653Z" fill="#F39A83"/>
<path d="M251.122 173.101C252.338 173.355 252.649 173.624 255.563 172.197C257.84 171.096 258.844 170.969 258.66 169.373C253.003 148.373 241.236 125.593 236.031 125.127C227.546 124.35 231.223 134.363 231.223 134.363C231.223 134.363 240.769 152.722 246.158 164.797C247.162 167.028 250.712 175.686 251.405 178.284L251.122 173.101Z" fill="#F39A83"/>
<path d="M255.138 152.454C252.614 146.691 249.669 141.121 246.327 135.789C243.357 131.171 239.142 124.971 233.442 123.503C225.07 121.356 231.264 134.335 231.264 134.335C235.82 147.537 241.395 160.365 247.939 172.706C248.301 173.501 248.843 174.202 249.523 174.753C250.169 175.171 250.917 175.406 251.687 175.431C253.623 175.515 255.528 174.923 257.076 173.759C258.624 172.595 259.719 170.929 260.173 169.048C260.851 165.8 259.508 162.509 258.178 159.459C257.217 157.143 256.184 154.798 255.138 152.454Z" fill="#D569A5"/>
<path d="M257.047 206.12C257.047 206.12 250.852 208.648 253.724 217.418C253.724 217.418 255.336 217.418 256.128 213.746C256.636 211.662 256.981 209.542 257.16 207.405C257.185 206.973 257.147 206.54 257.047 206.12Z" fill="#F39A83"/>
<path d="M262.802 205.88C264.047 208.737 264.595 211.85 264.401 214.96C263.863 219.352 261.36 220.793 259.818 221.372C258.772 221.767 255.49 222.897 255.886 221.245C256.282 219.593 255.109 212.334 255.109 210.469C255.305 208.626 256.147 206.911 257.485 205.625C257.994 205.484 262.802 205.88 262.802 205.88Z" fill="#F39A83"/>
<path d="M222.523 106.202C222.219 107.355 221.546 108.376 220.606 109.11C219.667 109.845 218.512 110.253 217.319 110.272C216.126 110.292 214.959 109.921 213.997 109.217C213.034 108.513 212.328 107.514 211.987 106.372L222.523 106.202Z" fill="white"/>
<path d="M209.952 96.331C209.957 96.537 210.024 96.7367 210.143 96.9051C210.262 97.0735 210.428 97.203 210.62 97.2773C210.813 97.3517 211.023 97.3675 211.224 97.3229C211.426 97.2783 211.61 97.1752 211.753 97.0266C211.896 96.878 211.991 96.6905 212.028 96.4876C212.064 96.2848 212.04 96.0757 211.958 95.8867C211.876 95.6976 211.739 95.5371 211.566 95.4251C211.393 95.3132 211.19 95.2549 210.984 95.2577C210.845 95.2595 210.708 95.2888 210.581 95.3439C210.454 95.399 210.339 95.4788 210.243 95.5787C210.147 95.6786 210.072 95.7965 210.022 95.9256C209.972 96.0548 209.948 96.1925 209.952 96.331V96.331Z" fill="#201544"/>
<path d="M221.307 96.1333C221.307 96.4105 221.417 96.6763 221.614 96.8723C221.81 97.0683 222.076 97.1784 222.354 97.1784C222.631 97.1784 222.897 97.0683 223.094 96.8723C223.29 96.6763 223.4 96.4105 223.4 96.1333C223.393 95.8549 223.276 95.5906 223.075 95.3976C222.874 95.2046 222.604 95.0986 222.325 95.1024C222.055 95.1097 221.798 95.221 221.608 95.4132C221.419 95.6054 221.311 95.8634 221.307 96.1333V96.1333Z" fill="#201544"/>
<path d="M225.537 92.899C224.632 92.6589 223.868 92.3765 223.076 92.1505C222.284 91.9246 221.492 91.741 220.601 91.4444C221.46 91.0708 222.426 91.0256 223.316 91.3173C224.223 91.5596 225.012 92.1214 225.537 92.899V92.899Z" fill="white"/>
<path d="M207.449 93.1393C207.96 92.36 208.721 91.7766 209.607 91.4842C210.493 91.1919 211.452 91.2078 212.328 91.5294C211.451 91.8542 210.673 92.0519 209.881 92.3202C209.089 92.5886 208.34 92.9275 207.449 93.1393Z" fill="white"/>
<path d="M217.149 96.4862C217.507 97.6776 217.947 98.8431 218.464 99.9745C218.563 100.285 218.677 100.596 218.761 100.907C218.87 101.28 218.87 101.677 218.761 102.05C218.595 102.361 218.361 102.632 218.078 102.842C217.794 103.052 217.467 103.196 217.121 103.265C217.551 102.876 217.885 102.393 218.097 101.853C218.095 101.608 218.037 101.366 217.927 101.147L217.602 100.285C217.378 99.6859 217.193 99.0726 217.05 98.4492C216.913 97.7973 216.947 97.121 217.149 96.4862V96.4862Z" fill="#DE7778"/>
<path d="M256.354 248.953C256.354 248.953 251.758 260.929 256.072 301.136C256.651 306.517 263.016 302.887 263.016 302.887C263.016 302.887 270.766 251.566 270.37 245.945C269.974 240.324 256.354 248.953 256.354 248.953Z" fill="#F39A83"/>
<path d="M269.762 311.728C272.094 316.078 273.853 320.711 274.995 325.512C275.092 325.799 275.127 326.104 275.098 326.406C275.069 326.707 274.976 327 274.825 327.263C274.617 327.464 274.368 327.619 274.094 327.716C273.821 327.814 273.53 327.852 273.241 327.828C268.998 327.983 265.01 325.964 261.517 323.591C260.096 322.695 258.826 321.58 257.755 320.287C255.435 317.264 255.181 313.155 255.294 309.342C255.294 307.364 254.841 301.037 256.397 299.668C257.189 298.947 262.903 298.976 263.964 299.413C265.788 300.176 265.576 302.421 266.424 304.483C267.429 306.927 268.602 309.327 269.762 311.728Z" fill="#1C0F39"/>
<path d="M222.043 209.142C221.669 208.155 221.669 207.065 222.043 206.078C223.287 203.903 229.821 203.394 231.943 203.126C236.836 202.533 239.919 199.214 244.671 197.886C245.732 197.59 252.888 209.467 253.737 210.498C256.12 213.6 258.325 216.835 260.342 220.186C262.788 224.027 265.447 227.911 267.554 231.908C269.662 235.904 272.575 239.364 273.551 243.672C273.601 243.814 273.601 243.968 273.551 244.11C272.915 245.677 267.724 245.79 266.367 246.186C263.631 246.917 261.037 248.096 258.687 249.674C255.858 251.679 254.444 254.377 252.139 256.735C249.593 254.01 248.094 250.055 245.534 246.143C243.236 242.965 241.111 239.665 239.17 236.257C235.408 228.772 228.548 223.166 224.744 215.639C223.637 213.564 222.733 211.389 222.043 209.142V209.142Z" fill="#F8C9DE"/>
<path d="M224.208 245.508C224.208 245.508 220.035 262.582 225.693 302.619C226.442 307.972 232.693 304.13 232.693 304.13C232.693 304.13 238.732 252.583 238.153 246.976C237.573 241.37 224.208 245.508 224.208 245.508Z" fill="#F39A83"/>
<path d="M239.723 312.745C242.182 317.024 244.083 321.599 245.38 326.359C245.48 326.644 245.521 326.947 245.499 327.248C245.477 327.549 245.393 327.843 245.253 328.11C245.053 328.319 244.811 328.482 244.543 328.589C244.274 328.697 243.986 328.745 243.697 328.732C239.454 329.028 235.395 327.136 231.831 324.862C230.384 324.014 229.08 322.941 227.97 321.685C225.552 318.733 225.142 314.623 225.142 310.838C225.142 308.847 224.42 302.548 225.92 301.122C226.697 300.388 232.397 300.218 233.472 300.628C235.325 301.32 235.197 303.565 236.117 305.613C237.234 308.028 238.478 310.386 239.723 312.745Z" fill="#1C0F39"/>
<path d="M201.55 233.094C199.46 230.342 197.569 227.444 195.893 224.422C193.999 220.683 193.093 216.521 193.263 212.334C193.263 206.826 192.725 197.547 200.037 197.759C204.747 197.9 209.089 200.358 213.501 201.727C216.047 202.518 222.242 198.38 222.68 201.007C223.401 206.242 224.774 211.365 226.767 216.26C230.84 227.36 239.284 236.229 243.739 247.117C235.96 248.078 226.767 248.29 220.87 254.108C220.219 254.729 219.286 255.52 218.522 254.984C218.278 254.801 218.079 254.564 217.942 254.292C213.402 246.651 206.896 240.24 201.55 233.094Z" fill="#F8C9DE"/>
<path d="M274.103 244.942C274.386 246.66 274.499 248.4 274.443 250.14C274.448 253.916 274.216 257.69 273.75 261.438C272.845 268.908 271.261 276.295 270.143 283.737C270.047 284.946 269.695 286.12 269.111 287.183C267.697 289.4 264.217 288.426 262.039 288.143C254.855 287.211 252.733 289.782 252.62 284.147C252.479 276.972 251.559 269.756 250.838 262.61C250.569 259.884 250.145 257.158 249.636 254.461C249.16 252.033 249.065 249.546 249.353 247.089C249.412 245.609 249.804 244.161 250.499 242.852C252.762 239.237 258.843 238.263 262.704 238.135C265.939 237.999 269.127 238.937 271.77 240.805C273.003 241.873 273.827 243.336 274.103 244.942V244.942Z" fill="#F8C9DE"/>
<path d="M243.471 247.146L243.57 247.301C243.857 247.914 243.983 248.589 243.937 249.264C244.107 261.621 241.802 273.752 240.359 285.983C240.309 287.193 239.995 288.379 239.44 289.457C238.026 291.73 234.589 290.869 232.368 290.657C225.17 289.951 223.133 292.592 222.836 286.971C222.468 280.192 221.337 273.399 220.432 266.691C219.852 262.454 219.258 258.119 218.622 253.84C217.929 249.109 217.801 245.945 222.864 243.714C229.172 240.889 236.427 242.669 242.113 246.058C242.641 246.315 243.105 246.687 243.471 247.146V247.146Z" fill="#F8C9DE"/>
<path d="M179.94 245.861C179.94 245.861 175.5 257.385 179.658 296.067C180.209 301.235 186.347 297.733 186.347 297.733C186.347 297.733 193.786 248.304 193.419 242.966C193.051 237.627 179.94 245.861 179.94 245.861Z" fill="#F39A83"/>
<path d="M192.825 306.249C195.069 310.435 196.766 314.892 197.874 319.51C197.962 319.787 197.991 320.08 197.96 320.37C197.928 320.659 197.836 320.939 197.69 321.19C197.491 321.384 197.253 321.533 196.993 321.628C196.732 321.723 196.454 321.761 196.177 321.741C192.104 321.882 188.257 319.948 184.863 317.646C183.499 316.784 182.282 315.711 181.256 314.468C179.022 311.559 178.781 307.619 178.88 303.947C178.88 302.04 178.456 295.953 179.941 294.626C180.705 293.948 186.192 293.962 187.224 294.386C188.978 295.12 188.78 297.281 189.586 299.272C190.59 301.631 191.708 303.933 192.825 306.249Z" fill="#1C0F39"/>
<path d="M142.73 211.628C142.276 210.723 142.16 209.686 142.405 208.704C143.352 206.487 149.476 205.272 151.598 204.792C156.154 203.949 160.637 202.75 165.005 201.205C165.981 200.81 172.359 208.535 173.279 209.439C175.902 212.118 178.367 214.947 180.661 217.912C183.49 221.302 186.319 224.719 188.85 228.306C191.382 231.893 194.507 234.887 195.922 238.898C195.97 239.035 195.97 239.185 195.922 239.322C195.483 240.875 190.547 241.567 189.289 242.146C186.753 243.161 184.405 244.593 182.344 246.383C179.827 248.615 178.766 251.354 176.857 253.925C174.127 251.609 172.26 247.993 169.375 244.519C166.825 241.735 164.431 238.812 162.205 235.763C157.792 229.027 150.622 224.465 146.153 217.658C144.814 215.766 143.668 213.746 142.73 211.628V211.628Z" fill="#59677A"/>
<path d="M148.571 247.88C148.571 247.88 144.569 264.291 149.985 302.803C150.707 307.958 156.718 304.215 156.718 304.215C156.718 304.215 162.516 254.631 161.965 249.236C161.413 243.841 148.571 247.88 148.571 247.88Z" fill="#F39A83"/>
<path d="M163.507 312.547C165.888 316.658 167.727 321.058 168.98 325.639C169.079 325.911 169.12 326.202 169.101 326.491C169.081 326.78 169.001 327.062 168.867 327.319C168.674 327.521 168.441 327.679 168.183 327.784C167.924 327.889 167.646 327.937 167.368 327.927C163.309 328.209 159.391 326.387 155.954 324.212C154.566 323.386 153.311 322.352 152.235 321.148C149.915 318.323 149.534 314.383 149.519 310.711C149.519 308.805 148.826 302.746 150.269 301.362C151.019 300.656 156.492 300.501 157.538 300.882C159.306 301.56 159.193 303.706 160.07 305.684C161.117 308.014 162.305 310.288 163.507 312.547Z" fill="#1C0F39"/>
<path d="M128.248 235.227C126.042 232.713 123.553 230.524 121.304 228.038C118.688 224.966 116.893 221.284 116.085 217.333C114.897 212.179 112.224 203.634 119.098 202.166C123.538 201.234 128.149 202.547 132.59 202.815C135.15 202.971 136.833 193.593 139.364 194.229C142.801 195.104 147.567 208.351 149.689 211.472C157.637 223.293 164.751 235.481 167.212 249.843C165.02 250.733 161.554 250.14 159.164 250.719C154.824 251.719 150.751 253.646 147.228 256.368C145.205 257.936 144.767 258.613 143.692 256.763C142.278 254.419 140.439 251.242 138.841 249.038C135.447 244.35 132.081 239.59 128.248 235.227Z" fill="#627187"/>
<path d="M197.01 242.005C197.27 243.658 197.374 245.332 197.321 247.005C197.34 250.617 197.118 254.226 196.656 257.809C195.794 265.011 194.28 272.101 193.191 279.261C193.105 280.425 192.767 281.557 192.201 282.579C190.787 284.726 187.492 283.78 185.37 283.512C178.469 282.608 176.418 285.079 176.319 279.656C176.177 272.764 175.286 265.816 174.593 258.952C174.339 256.326 173.929 253.713 173.434 251.114C172.988 248.788 172.897 246.407 173.165 244.053C173.216 242.616 173.598 241.209 174.282 239.943C176.446 236.455 182.301 235.523 186.021 235.41C189.13 235.279 192.194 236.184 194.733 237.98C195.932 239.022 196.735 240.443 197.01 242.005V242.005Z" fill="#59677A"/>
<path d="M167.112 249.448L167.197 249.589C167.477 250.184 167.604 250.839 167.565 251.496C167.72 263.373 165.5 275.038 164.114 286.802C164.064 287.967 163.765 289.109 163.237 290.149C161.908 292.338 158.57 291.561 156.434 291.307C149.504 290.629 147.553 293.171 147.256 287.762C146.916 281.238 145.841 274.713 144.95 268.245C144.404 264.121 143.824 260.002 143.211 255.888C142.532 251.326 142.419 248.29 147.312 246.143C153.365 243.474 160.338 245.141 165.825 248.389C166.322 248.651 166.76 249.011 167.112 249.448Z" fill="#627187"/>
<path d="M189.246 173.497C188.765 168.963 187.393 161.295 186.828 157.651C185.809 151.056 185.597 146.805 183.688 140.393C181.917 134.537 179.592 128.863 176.744 123.446C175.33 120.876 173.222 116.795 169.927 116.47C163.52 115.834 166.42 130.691 166.42 130.691L166.589 131.609C167.749 137.767 169.276 143.882 171.044 149.968C172.968 156.535 174.651 163.187 176.447 169.74C177.091 172.829 177.908 175.88 178.894 178.877C179.869 181.321 184.197 177.564 185.965 176.335C187.733 175.107 189.515 175.22 189.246 173.497Z" fill="#F39A83"/>
<path d="M168.739 156.437C168.272 154.615 167.848 152.779 167.509 150.929C165.953 142.455 163.068 134.49 163.435 125.649C163.563 122.655 163.817 118.193 166.632 116.442C173.166 112.388 178.837 122.698 180.421 127.613C182.613 134.476 185.541 141.283 186.7 148.387L190.307 170.63C190.632 172.607 190.858 174.867 189.43 176.279C188.737 176.865 187.927 177.298 187.054 177.55C184.579 178.468 179.021 181.49 176.829 179.033C176.192 178.23 175.712 177.315 175.414 176.335C173.053 169.867 170.493 163.23 168.739 156.437Z" fill="#C9A97E"/>
<path d="M124.628 185.374L165.84 185.783C166.618 167.043 170.776 122.105 167.17 117.811C157.524 106.287 137.243 110.086 127.569 116.399C123.864 118.8 125.505 165.856 124.628 185.374Z" fill="#F39A83"/>
<path d="M119.097 193.988C118.8 199.991 118.517 204.354 118.291 204.34C131.019 205.414 143.875 206.487 156.66 205.385C160.507 205.046 169.799 207.08 170.676 203.281C171.114 201.346 170.676 193.042 170.676 190.867C170.393 166.577 170.676 144.263 168.47 120.043C168.13 116.258 167.055 114.394 163.421 113.222C160.733 112.388 158.004 111.682 155.274 111.061C155.042 111.465 154.762 111.84 154.44 112.176C152.686 114.012 150.635 111.131 148.302 111.216C145.968 111.301 144.766 114.408 142.956 113.024C142.308 112.545 141.848 111.856 141.655 111.075C135.7 111.936 128.714 113.659 122.845 114.987C122.555 115.045 122.275 115.14 122.01 115.269C121.687 115.483 121.428 115.779 121.259 116.127C121.09 116.474 121.017 116.861 121.048 117.246C121.111 118.012 121.288 118.764 121.572 119.478C122.386 122.715 122.86 126.028 122.986 129.364C123.516 133.587 123.468 137.863 122.845 142.074C121.727 147.921 121.162 153.937 120.624 159.868C120.37 162.34 119.719 181.617 119.097 193.988Z" fill="#F2F2F2"/>
<path d="M140.014 196.432C141.089 186.814 141.075 178.538 141.429 168.893C141.782 159.247 142.009 149.276 141.598 139.461C141.217 130.465 140.665 121.469 140.835 112.459C140.651 112.078 140.75 111.696 140.524 111.047C134.569 111.908 128.629 113.631 122.76 114.959C122.471 115.016 122.191 115.111 121.926 115.241C121.603 115.455 121.343 115.751 121.174 116.098C121.005 116.446 120.933 116.833 120.964 117.218C121.027 117.984 121.203 118.736 121.487 119.45C122.302 122.687 122.776 126 122.902 129.335C123.431 133.559 123.384 137.835 122.76 142.046C121.643 147.892 121.077 153.909 120.54 159.84C120.328 162.269 119.677 181.603 119.055 193.974C118.758 199.976 118.093 209.792 117.867 209.763C124.019 210.286 131.401 210.808 137.582 211.077C138.077 208.422 139.463 201.375 140.014 196.432Z" fill="#C9A97E"/>
<path d="M172.204 193.042C172.077 181.857 170.79 170.587 171.002 159.417C170.762 153.669 170.536 147.907 170.833 142.159C171.059 137.809 171.582 133.488 171.922 129.138C172.148 126.313 173.576 119.111 171.922 116.71C170.606 114.832 165.472 113.885 163.436 113.222C161.399 112.558 158.854 111.922 156.534 111.372C156.534 128.742 157.086 146.24 158.047 163.625C158.811 177.493 159.815 197.208 158.924 211.063C163.874 210.738 172.021 210.074 172.742 206.911C173.124 204.948 172.233 195.203 172.204 193.042Z" fill="#C9A97E"/>
<path d="M168.3 84.5389C167.791 87.1233 164.058 90.5833 163.082 88.3661C162.502 86.9538 162.544 85.4427 163.082 82.8583C163.619 80.2738 162.643 78.5227 164.934 79.0169C166.111 79.3079 167.126 80.0515 167.756 81.0858C168.387 82.1201 168.582 83.3612 168.3 84.5389V84.5389Z" fill="#F39A83"/>
<path d="M164.552 81.3751H164.425C163.633 82.2648 164.072 84.1996 164.043 85.2306C164.043 85.6825 164.043 86.1344 163.93 86.6428C164.531 86.6203 165.106 86.3895 165.555 85.99C166.004 85.5906 166.299 85.0474 166.391 84.4538C166.474 84.1311 166.492 83.7953 166.444 83.4656C166.396 83.1359 166.284 82.8189 166.113 82.5328C165.942 82.2467 165.716 81.9972 165.448 81.7985C165.181 81.5998 164.876 81.4559 164.552 81.3751V81.3751Z" fill="#EE7379"/>
<path d="M128.955 86.1487C129.776 88.6625 133.905 91.6424 134.612 89.3404C134.965 87.4872 134.743 85.5705 133.976 83.8467C133.156 81.347 133.976 79.4969 131.642 80.2454C131.077 80.4558 130.559 80.7756 130.118 81.1865C129.676 81.5974 129.321 82.0912 129.071 82.6397C128.821 83.1882 128.682 83.7805 128.663 84.3827C128.643 84.9848 128.742 85.585 128.955 86.1487V86.1487Z" fill="#F39A83"/>
<path d="M132.279 82.5754H132.407C133.298 83.3663 133.085 85.287 133.241 86.3462C133.307 86.7977 133.397 87.2455 133.51 87.6878C132.911 87.7363 132.314 87.5754 131.821 87.2327C131.329 86.89 130.971 86.3869 130.808 85.8095C130.578 85.1856 130.604 84.4964 130.879 83.8911C131.154 83.2857 131.657 82.8131 132.279 82.5754V82.5754Z" fill="#EE7379"/>
<path d="M142.151 94.3679C145.545 91.275 156.294 95.9072 156.294 95.9072L155.431 111.089L148.218 111.216C146.309 111.216 144.117 114.168 141.769 112.191C140.369 111.004 140.737 95.653 142.151 94.3679Z" fill="#F39A83"/>
<path d="M142.152 94.3678C141.317 95.1162 140.85 100.751 140.893 105.51C146.479 105.369 152.207 107.375 153.989 112.572C154.5 112.142 154.973 111.67 155.403 111.159L156.337 95.9636C156.337 95.9636 145.546 91.2749 142.152 94.3678Z" fill="#F39A83"/>
<path d="M161.23 97.7998V97.8846C160.535 99.6675 159.423 101.258 157.986 102.524C156.549 103.789 154.829 104.692 152.97 105.158C150.973 105.663 148.885 105.694 146.873 105.248C144.861 104.801 142.983 103.89 141.387 102.587C139.364 100.807 137.653 98.7024 136.324 96.3593C135.15 94.3963 134.91 91.9107 134.274 89.7359C133.201 86.2366 132.439 82.6497 131.997 79.0168C131.784 77.195 131.657 75.3591 131.615 73.5232C131.502 72.0551 131.935 70.597 132.831 69.4276C136.07 64.3576 141.826 62.8041 147.709 62.0274C150.899 61.7093 154.118 62.1949 157.072 63.4396C159.137 64.2588 160.919 64.7672 161.852 66.8008C166.463 76.7149 165.473 87.8434 161.23 97.7998Z" fill="#F39A83"/>
<path d="M141.344 92.5178C143.748 92.3907 145.941 91.1056 148.416 91.1056C152.376 90.9926 157.241 94.4103 160.932 91.7129C163.365 89.9334 163.761 86.3463 163.945 83.5783C164.037 80.6659 163.838 77.7516 163.351 74.8788C163.36 74.8513 163.36 74.8214 163.351 74.794C163.577 74.2009 163.775 73.5936 164.001 72.9863C165.529 79.5533 164.751 86.544 164.171 93.1816C164.027 96.0715 163.255 98.8954 161.908 101.457C159.589 105.482 155.105 107.276 150.594 107.445C146.082 107.615 140.34 106.57 137.526 102.841C136.514 101.422 135.718 99.861 135.164 98.2092C134.189 95.5512 133.506 92.7952 133.127 89.9899C132.943 88.2246 132.943 86.4451 132.646 84.6657C132.592 83.4118 132.464 82.1622 132.264 80.9232C132.561 81.7413 132.95 82.523 133.424 83.2534C133.769 84.0394 134.016 84.8647 134.16 85.7108C134.98 89.0578 137.497 92.7297 141.344 92.5178Z" fill="#EFEEEE"/>
<path d="M132.208 67.8883C132.346 67.5755 132.507 67.2734 132.689 66.9844C135.051 63.0019 140.524 60.1774 144.725 58.751C146.304 58.1443 147.983 57.8378 149.675 57.8471C151.957 58.2112 154.185 58.8563 156.308 59.7678C159.743 60.8144 163.409 60.8389 166.858 59.8384C166.858 61.8862 166.858 64.2305 165.204 65.4874C163.859 66.3383 162.248 66.665 160.678 66.4054C156.555 65.9356 152.41 65.6764 148.26 65.6287C140.482 65.9958 135.532 70.5009 134.471 78.339C134.344 79.3417 134.471 84.4964 133.778 84.9907C133.085 85.485 132.604 84.5105 132.477 83.8185C131.6 79.2569 130.186 72.464 132.208 67.8883Z" fill="#EFEEEE"/>
<path d="M142.843 82.8298C142.843 83.1369 142.965 83.4315 143.183 83.6487C143.4 83.8658 143.695 83.9879 144.003 83.9879C144.311 83.9879 144.606 83.8658 144.823 83.6487C145.04 83.4315 145.163 83.1369 145.163 82.8298C145.163 82.5227 145.04 82.2281 144.823 82.0109C144.606 81.7938 144.311 81.6718 144.003 81.6718C143.695 81.6718 143.4 81.7938 143.183 82.0109C142.965 82.2281 142.843 82.5227 142.843 82.8298V82.8298Z" fill="#201544"/>
<path d="M155.318 83.0274C155.3 83.1892 155.316 83.3531 155.366 83.5082C155.416 83.6633 155.498 83.8061 155.606 83.9275C155.715 84.0488 155.848 84.1459 155.997 84.2123C156.146 84.2788 156.307 84.3131 156.471 84.3131C156.634 84.3131 156.795 84.2788 156.944 84.2123C157.093 84.1459 157.226 84.0488 157.335 83.9275C157.443 83.8061 157.525 83.6633 157.575 83.5082C157.625 83.3531 157.641 83.1892 157.623 83.0274C157.627 82.7226 157.51 82.4287 157.299 82.2092C157.087 81.9898 156.797 81.8626 156.492 81.8552C156.336 81.8492 156.181 81.8755 156.036 81.9323C155.89 81.9891 155.759 82.0752 155.648 82.1853C155.538 82.2953 155.452 82.4269 155.395 82.5719C155.338 82.7168 155.312 82.8718 155.318 83.0274V83.0274Z" fill="#201544"/>
<path d="M160.083 79.6241C158.559 78.4139 156.655 77.7833 154.709 77.8447" stroke="white" stroke-width="1.27" stroke-linecap="round" stroke-linejoin="round"/>
<path d="M140.186 79.2993C141.761 78.1219 143.711 77.5549 145.673 77.7034" stroke="white" stroke-width="1.27" stroke-linecap="round" stroke-linejoin="round"/>
<path d="M149.915 83.2534C150.266 84.5774 150.711 85.8752 151.244 87.1371C151.343 87.4761 151.442 87.815 151.527 88.1681C151.654 88.5774 151.654 89.0157 151.527 89.425C151.335 89.762 151.071 90.0521 150.753 90.2744C150.435 90.4967 150.071 90.6455 149.688 90.7101C149.938 90.4735 150.17 90.2186 150.381 89.9475C150.581 89.728 150.731 89.4678 150.82 89.1849C150.817 88.9172 150.759 88.6529 150.65 88.4082C150.551 88.0833 150.452 87.7726 150.325 87.4478C150.098 86.7787 149.918 86.0944 149.787 85.4C149.652 84.685 149.696 83.9476 149.915 83.2534Z" fill="#DE7778"/>
<path d="M188.1 208.944C188.1 208.944 183.333 211.43 186.685 220.849C186.685 220.849 188.001 220.934 188.241 217.05C188.433 214.829 188.481 212.598 188.382 210.37C188.356 209.884 188.261 209.404 188.1 208.944Z" fill="#F39A83"/>
<path d="M189.09 172.084C187.039 171.082 181.933 164.628 179.6 167.057L176.517 170.277C180.095 185.43 183.97 199.214 186.94 209.439C190.08 220.285 192.979 212.517 192.979 212.517C192.343 199.948 192.739 190.077 189.09 172.084Z" fill="#F39A83"/>
<path d="M192.796 208.944C194.119 211.996 194.894 215.256 195.087 218.576C195.087 223.194 193.248 224.649 192.06 225.214C191.254 225.595 188.694 226.696 188.836 224.959C188.977 223.222 187.238 215.525 187.026 213.562C186.931 211.772 187.428 210.001 188.44 208.521C189.899 208.572 191.354 208.714 192.796 208.944V208.944Z" fill="#F39A83"/>
<path d="M99.8921 170.432C99.1425 166.887 102.848 157.284 103.499 154.671C104.799 149.195 106.438 143.804 108.406 138.529C110.611 132.806 113.357 127.306 116.609 122.105C118.136 119.647 120.611 115.735 123.921 115.735C130.356 115.58 126.368 130.169 126.368 130.169C126.283 130.479 126.212 130.776 126.127 131.073C124.458 137.061 122.535 143.034 120.314 148.909C118.547 153.626 116.892 158.4 115.237 163.159C114.233 165.984 113.087 171.915 110.443 173.85C107.261 176.18 99.9628 170.813 99.8921 170.432Z" fill="#F39A83"/>
<path d="M121.248 155.279C121.969 153.302 122.662 151.508 123.143 150.096C126.311 142.074 129.408 134.095 129.705 125.353C129.804 122.345 129.889 117.868 127.216 115.919C120.993 111.386 114.558 121.243 112.635 126.045C110.188 132.061 107.642 138.021 105.139 144.009C101.999 151.494 100.486 159.699 98.4636 167.565C98.2813 168.125 98.2093 168.715 98.2515 169.302C98.4495 170.813 99.9769 171.731 101.391 172.296C103.176 173.072 105.102 173.471 107.048 173.469C114.106 173.271 118.433 162.975 121.248 155.279Z" fill="#C9A97E"/>
<path d="M145.573 94.1135C146.284 94.9444 147.239 95.5321 148.302 95.7941C149.32 96.0907 150.452 96.1331 151.64 96.4579C150.502 96.9278 149.243 97.0219 148.048 96.7262C147.424 96.5552 146.851 96.2354 146.379 95.7941C145.905 95.3569 145.617 94.7558 145.573 94.1135V94.1135Z" fill="#DE7778"/>
<path d="M120.864 205.668C120.864 205.668 126.238 205.371 128.232 215.13C128.232 215.13 127.143 215.878 124.937 212.672C123.645 210.86 122.46 208.974 121.387 207.023C121.152 206.597 120.976 206.141 120.864 205.668V205.668Z" fill="#F39A83"/>
<path d="M99.9763 169.853C101.221 167.946 103.441 164.458 106.68 165.348C109.038 166.238 111.26 167.45 113.285 168.949C117.613 181.829 119.423 195.189 122.138 205.484C124.967 216.415 118.532 211.232 118.532 211.232C112.578 200.132 98.7176 171.759 99.9763 169.853Z" fill="#F39A83"/>
<path d="M99.9763 169.853C101.221 167.946 103.441 164.458 106.68 165.348C109.038 166.238 111.26 167.45 113.285 168.949C117.613 181.829 119.423 195.189 122.138 205.484C124.967 216.415 118.532 211.232 118.532 211.232C112.578 200.132 98.7176 171.759 99.9763 169.853Z" fill="#F39A83"/>
<path d="M116.834 208.054C117.27 211.349 118.28 214.542 119.819 217.488C122.152 221.485 124.514 221.725 125.829 221.64C126.72 221.555 129.478 221.188 128.46 219.776C127.442 218.364 124.995 210.865 124.217 209.057C123.371 207.478 122.036 206.215 120.413 205.456C119.166 206.246 117.971 207.114 116.834 208.054V208.054Z" fill="#F39A83"/>
<path d="M119.79 203.295C120.314 202.872 122.294 201.982 122.76 201.544C120.497 191.814 117.103 180.445 113.285 169.062C111.26 167.563 109.037 166.351 106.68 165.461C103.441 164.571 98.2789 167.142 98.1941 169.415C98.1941 175.559 107.302 194.285 113.921 207.207C115.378 206.247 118.532 204.256 119.79 203.295Z" fill="#C9A97E"/>
<path d="M193.898 205.583C193.787 193.846 192.584 182.145 190.306 170.63C188.255 169.641 181.933 164.628 179.6 167.057C177.648 169.09 174.989 175.163 174.989 175.149C178.327 189.271 181.877 198.522 184.748 208.492C187.928 207.992 191.014 207.011 193.898 205.583Z" fill="#C9A97E"/>
<path d="M138.077 112.798C136.818 116.498 135.616 120.198 134.315 123.87C133.014 127.542 131.769 131.242 130.44 134.9V134.603L134.937 143.868L139.35 153.175L139.434 153.344V153.513L136.266 160.575L133.042 167.636V167.382C135.093 170.574 137.073 173.822 139.081 177.028C136.931 173.906 134.739 170.814 132.618 167.664V167.551V167.424L135.644 160.363L138.727 153.302V153.641L134.258 144.362L129.718 134.942V134.787V134.632C131.048 130.974 132.462 127.344 133.848 123.701C135.234 120.057 136.662 116.442 138.077 112.798Z" fill="#704217"/>
<path d="M158.669 113.49C160.169 116.667 161.71 119.831 163.167 123.022C164.624 126.214 166.123 129.406 167.537 132.626L167.608 132.767V132.922L163.945 142.667L160.154 152.454V152.143L163.238 159.204L166.264 166.266V166.407V166.52C164.143 169.655 161.951 172.748 159.801 175.883C161.809 172.663 163.789 169.429 165.826 166.238V166.478L162.601 159.501L159.433 152.44V152.284V152.129L163.11 142.385L166.886 132.682V132.979C165.472 129.717 164.058 126.468 162.644 123.234C161.229 120 160.013 116.738 158.669 113.49Z" fill="#704217"/>
<path d="M122.859 185.261C122.958 186.447 123.014 187.647 123.043 188.834L122.788 188.551C126.734 188.707 130.652 189.074 134.555 189.611L134.201 189.935C134.201 188.523 134.371 187.111 134.527 185.783C134.668 187.196 134.767 188.608 134.838 189.935V190.26H134.498C130.557 190.072 126.635 189.695 122.732 189.13H122.449V188.876C122.571 187.652 122.708 186.447 122.859 185.261Z" fill="#704217"/>
<path d="M170.859 189.173C168.217 189.867 165.501 190.241 162.77 190.288H162.359V189.921C162.359 188.509 162.543 187.097 162.727 185.769C162.897 187.182 163.024 188.594 163.081 189.921L162.685 189.554C165.385 189.108 168.129 188.98 170.859 189.173V189.173Z" fill="#704217"/>
<path d="M140.184 107.432C140.184 107.432 144.865 111.414 148.556 111.216L144.313 119.068C144.313 119.068 135.842 115.736 137.185 111.216C138.529 106.697 140.184 107.432 140.184 107.432Z" fill="white"/>
<path d="M156.632 107.432C156.632 107.432 151.951 111.414 148.246 111.216L152.488 119.068C152.488 119.068 160.974 115.736 159.673 111.216C158.372 106.697 156.632 107.432 156.632 107.432Z" fill="white"/>
<path d="M149.688 118.56C149.69 118.776 149.629 118.988 149.51 119.169C149.391 119.35 149.222 119.492 149.022 119.576C148.822 119.66 148.602 119.683 148.39 119.641C148.177 119.6 147.982 119.496 147.829 119.343C147.676 119.19 147.572 118.995 147.53 118.783C147.488 118.57 147.511 118.351 147.595 118.151C147.68 117.952 147.821 117.782 148.003 117.664C148.184 117.546 148.396 117.484 148.613 117.487C148.898 117.487 149.171 117.6 149.373 117.801C149.574 118.002 149.688 118.275 149.688 118.56V118.56Z" fill="#878787"/>
<path d="M149.661 123.319C149.657 123.605 149.541 123.878 149.337 124.079C149.133 124.28 148.858 124.393 148.572 124.393C148.306 124.362 148.061 124.235 147.883 124.036C147.705 123.837 147.607 123.579 147.607 123.312C147.607 123.045 147.705 122.788 147.883 122.588C148.061 122.389 148.306 122.262 148.572 122.232C148.861 122.232 149.138 122.346 149.342 122.55C149.546 122.754 149.661 123.031 149.661 123.319V123.319Z" fill="#878787"/>
<path d="M149.688 128.234C149.688 128.45 149.623 128.66 149.503 128.84C149.383 129.019 149.212 129.158 149.012 129.24C148.812 129.322 148.593 129.342 148.381 129.299C148.169 129.256 147.975 129.151 147.824 128.998C147.672 128.844 147.569 128.649 147.529 128.437C147.489 128.225 147.512 128.006 147.597 127.808C147.681 127.61 147.823 127.441 148.004 127.323C148.185 127.205 148.397 127.144 148.613 127.147C148.899 127.15 149.173 127.266 149.374 127.47C149.575 127.674 149.688 127.948 149.688 128.234V128.234Z" fill="#878787"/>
<path d="M159.957 66.3065C159.829 65.4451 159.829 64.3435 160.607 63.9622C161.385 63.5809 162.304 64.287 162.828 65.0073C165.571 68.7639 165.656 73.7915 165.515 78.452C165.515 79.8642 164.468 79.9913 163.591 79.1298C163.093 78.0367 162.723 76.8899 162.488 75.7122C161.322 72.6725 160.474 69.5205 159.957 66.3065V66.3065Z" fill="#EFEEEE"/>
<path d="M219.568 360.493H219.286C217.161 360.493 215.439 362.213 215.439 364.335V372.159C215.439 374.28 217.161 376 219.286 376H219.568C221.693 376 223.415 374.28 223.415 372.159V364.335C223.415 362.213 221.693 360.493 219.568 360.493Z" fill="#2A2A29"/>
<path d="M260.979 360.493H260.696C258.572 360.493 256.85 362.213 256.85 364.335V372.159C256.85 374.28 258.572 376 260.696 376H260.979C263.104 376 264.826 374.28 264.826 372.159V364.335C264.826 362.213 263.104 360.493 260.979 360.493Z" fill="#2A2A29"/>
<path d="M346.232 360.493H345.949C343.824 360.493 342.102 362.213 342.102 364.335V372.159C342.102 374.28 343.824 376 345.949 376H346.232C348.356 376 350.079 374.28 350.079 372.159V364.335C350.079 362.213 348.356 360.493 346.232 360.493Z" fill="#2A2A29"/>
<path d="M387.629 360.493H387.346C385.221 360.493 383.499 362.213 383.499 364.335V372.159C383.499 374.28 385.221 376 387.346 376H387.629C389.753 376 391.476 374.28 391.476 372.159V364.335C391.476 362.213 389.753 360.493 387.629 360.493Z" fill="#2A2A29"/>
<path d="M346.925 269.333V280.97C346.925 288.793 342.159 295.191 336.332 295.191H288.925C283.098 295.191 278.332 288.793 278.332 280.97V269.361H269.719V283.596C269.719 293.369 275.857 301.348 283.339 301.348H341.905C349.4 301.348 355.524 293.369 355.524 283.596V269.333H346.925Z" fill="#3D3E3D"/>
<path d="M226.202 269.558H381.986C386.274 269.558 389.751 266.087 389.751 261.805V176.561C389.751 172.279 386.274 168.808 381.986 168.808H226.202C221.914 168.808 218.438 172.279 218.438 176.561V261.805C218.438 266.087 221.914 269.558 226.202 269.558Z" fill="#676767"/>
<path d="M234.745 269.558H390.529C394.817 269.558 398.293 266.087 398.293 261.805V176.561C398.293 172.279 394.817 168.808 390.529 168.808H234.745C230.457 168.808 226.981 172.279 226.981 176.561V261.805C226.981 266.087 230.457 269.558 234.745 269.558Z" fill="#3D3E3D"/>
<path d="M281.217 258.839H344.054C350.397 258.839 355.538 253.705 355.538 247.372V215.978C355.538 209.644 350.397 204.51 344.054 204.51H281.217C274.875 204.51 269.733 209.644 269.733 215.978V247.372C269.733 253.705 274.875 258.839 281.217 258.839Z" fill="#575858"/>
<path d="M284.979 258.839H347.816C354.158 258.839 359.3 253.705 359.3 247.372V215.978C359.3 209.644 354.158 204.51 347.816 204.51H284.979C278.636 204.51 273.495 209.644 273.495 215.978V247.372C273.495 253.705 278.636 258.839 284.979 258.839Z" fill="#4B4C4B"/>
<path d="M345.681 246.002H324.962C323.845 246.002 322.939 246.906 322.939 248.021V251.665C322.939 252.78 323.845 253.684 324.962 253.684H345.681C346.798 253.684 347.703 252.78 347.703 251.665V248.021C347.703 246.906 346.798 246.002 345.681 246.002Z" fill="#343534"/>
<path d="M298.811 249.73H288.445C287.89 249.73 287.44 250.179 287.44 250.733V252.569C287.44 253.123 287.89 253.572 288.445 253.572H298.811C299.366 253.572 299.815 253.123 299.815 252.569V250.733C299.815 250.179 299.366 249.73 298.811 249.73Z" fill="#343534"/>
<path d="M230.077 302.577H378.111C379.142 302.577 380.131 302.168 380.861 301.439C381.59 300.711 382 299.723 382 298.693C382 297.662 381.591 296.672 380.862 295.942C380.133 295.211 379.143 294.799 378.111 294.795H230.077C229.042 294.795 228.049 295.206 227.317 295.937C226.585 296.668 226.173 297.659 226.173 298.693V298.693C226.173 299.204 226.274 299.71 226.471 300.182C226.667 300.655 226.955 301.083 227.317 301.444C227.68 301.805 228.111 302.091 228.584 302.285C229.058 302.479 229.565 302.579 230.077 302.577V302.577Z" fill="#3D3E3D"/>
<path d="M230.077 302.577H258.136C259.169 302.577 260.16 302.168 260.891 301.44C261.623 300.712 262.036 299.724 262.04 298.693V298.693C262.036 297.66 261.624 296.671 260.892 295.941C260.161 295.211 259.17 294.799 258.136 294.795H230.077C229.042 294.795 228.049 295.206 227.317 295.937C226.585 296.668 226.173 297.659 226.173 298.693V298.693C226.173 299.204 226.274 299.71 226.471 300.182C226.667 300.655 226.955 301.083 227.317 301.444C227.68 301.805 228.111 302.091 228.584 302.285C229.058 302.479 229.565 302.579 230.077 302.577V302.577Z" fill="#676767"/>
<path d="M292.899 213.181H281.358C281.163 213.181 280.976 213.104 280.838 212.966C280.701 212.828 280.623 212.641 280.623 212.447V212.447C280.623 212.252 280.701 212.065 280.838 211.927C280.976 211.79 281.163 211.712 281.358 211.712H292.899C293.094 211.712 293.281 211.79 293.419 211.927C293.557 212.065 293.634 212.252 293.634 212.447V212.447C293.631 212.64 293.552 212.825 293.415 212.962C293.278 213.099 293.093 213.177 292.899 213.181V213.181Z" fill="#1F201F"/>
<path d="M292.899 216.104H281.358C281.163 216.104 280.976 216.027 280.838 215.889C280.701 215.751 280.623 215.565 280.623 215.37V215.37C280.623 215.175 280.701 214.988 280.838 214.851C280.976 214.713 281.163 214.635 281.358 214.635H292.899C293.093 214.639 293.278 214.718 293.415 214.855C293.552 214.992 293.631 215.176 293.634 215.37V215.37C293.634 215.565 293.557 215.751 293.419 215.889C293.281 216.027 293.094 216.104 292.899 216.104V216.104Z" fill="#1F201F"/>
<path d="M292.899 219.042H281.358C281.262 219.042 281.166 219.023 281.077 218.986C280.988 218.949 280.907 218.895 280.838 218.827C280.77 218.759 280.716 218.678 280.679 218.589C280.642 218.499 280.623 218.404 280.623 218.307V218.307C280.623 218.113 280.701 217.926 280.838 217.788C280.976 217.65 281.163 217.573 281.358 217.573H292.899C293.093 217.577 293.278 217.655 293.415 217.792C293.552 217.929 293.631 218.114 293.634 218.307V218.307C293.634 218.404 293.615 218.499 293.578 218.589C293.542 218.678 293.487 218.759 293.419 218.827C293.351 218.895 293.27 218.949 293.18 218.986C293.091 219.023 292.996 219.042 292.899 219.042V219.042Z" fill="#1F201F"/>
<path d="M292.899 221.979H281.358C281.163 221.979 280.976 221.902 280.838 221.764C280.701 221.627 280.623 221.44 280.623 221.245V221.245C280.623 221.05 280.701 220.863 280.838 220.726C280.976 220.588 281.163 220.511 281.358 220.511H292.899C293.094 220.511 293.281 220.588 293.419 220.726C293.557 220.863 293.634 221.05 293.634 221.245V221.245C293.631 221.439 293.552 221.623 293.415 221.76C293.278 221.897 293.093 221.976 292.899 221.979V221.979Z" fill="#1F201F"/>
<path d="M292.899 224.903H281.358C281.263 224.905 281.167 224.887 281.078 224.852C280.989 224.817 280.908 224.764 280.839 224.697C280.771 224.63 280.716 224.55 280.679 224.461C280.642 224.373 280.623 224.278 280.623 224.182V224.182C280.623 223.988 280.701 223.801 280.838 223.663C280.976 223.525 281.163 223.448 281.358 223.448H292.899C293.094 223.448 293.281 223.525 293.419 223.663C293.557 223.801 293.634 223.988 293.634 224.182V224.182C293.631 224.375 293.552 224.558 293.414 224.693C293.277 224.827 293.092 224.903 292.899 224.903V224.903Z" fill="#1F201F"/>
<path d="M292.899 227.84H281.358C281.163 227.84 280.976 227.763 280.838 227.625C280.701 227.487 280.623 227.301 280.623 227.106V227.106C280.623 226.911 280.701 226.724 280.838 226.587C280.976 226.449 281.163 226.371 281.358 226.371H292.899C293.093 226.375 293.278 226.454 293.415 226.591C293.552 226.728 293.631 226.912 293.634 227.106V227.106C293.634 227.301 293.557 227.487 293.419 227.625C293.281 227.763 293.094 227.84 292.899 227.84V227.84Z" fill="#1F201F"/>
<path d="M292.899 230.778H281.358C281.262 230.778 281.166 230.759 281.077 230.722C280.988 230.685 280.907 230.631 280.838 230.563C280.77 230.495 280.716 230.414 280.679 230.324C280.642 230.235 280.623 230.14 280.623 230.043V230.043C280.623 229.849 280.701 229.662 280.838 229.524C280.976 229.386 281.163 229.309 281.358 229.309H292.899C293.094 229.309 293.281 229.386 293.419 229.524C293.557 229.662 293.634 229.849 293.634 230.043C293.631 230.237 293.552 230.422 293.415 230.559C293.278 230.696 293.093 230.774 292.899 230.778V230.778Z" fill="#1F201F"/>
<path d="M309.857 213.181H298.316C298.123 213.177 297.938 213.099 297.8 212.962C297.663 212.825 297.585 212.64 297.581 212.447V212.447C297.581 212.252 297.659 212.065 297.796 211.927C297.934 211.79 298.121 211.712 298.316 211.712H309.857C310.052 211.712 310.239 211.79 310.377 211.927C310.515 212.065 310.592 212.252 310.592 212.447V212.447C310.592 212.641 310.515 212.828 310.377 212.966C310.239 213.104 310.052 213.181 309.857 213.181V213.181Z" fill="#1F201F"/>
<path d="M309.857 216.104H298.316C298.121 216.104 297.934 216.027 297.796 215.889C297.659 215.751 297.581 215.565 297.581 215.37V215.37C297.585 215.176 297.663 214.992 297.8 214.855C297.938 214.718 298.123 214.639 298.316 214.635H309.857C310.052 214.635 310.239 214.713 310.377 214.851C310.515 214.988 310.592 215.175 310.592 215.37V215.37C310.592 215.565 310.515 215.751 310.377 215.889C310.239 216.027 310.052 216.104 309.857 216.104V216.104Z" fill="#1F201F"/>
<path d="M309.857 219.042H298.316C298.22 219.042 298.124 219.023 298.035 218.986C297.946 218.949 297.865 218.895 297.796 218.827C297.728 218.759 297.674 218.678 297.637 218.589C297.6 218.499 297.581 218.404 297.581 218.307V218.307C297.585 218.114 297.663 217.929 297.8 217.792C297.938 217.655 298.123 217.577 298.316 217.573H309.857C310.052 217.573 310.239 217.65 310.377 217.788C310.515 217.926 310.592 218.113 310.592 218.307V218.307C310.592 218.404 310.573 218.499 310.536 218.589C310.5 218.678 310.445 218.759 310.377 218.827C310.309 218.895 310.228 218.949 310.138 218.986C310.049 219.023 309.954 219.042 309.857 219.042V219.042Z" fill="#1F201F"/>
<path d="M309.857 221.979H298.316C298.123 221.976 297.938 221.897 297.8 221.76C297.663 221.623 297.585 221.439 297.581 221.245V221.245C297.581 221.05 297.659 220.863 297.796 220.726C297.934 220.588 298.121 220.511 298.316 220.511H309.857C310.052 220.511 310.239 220.588 310.377 220.726C310.515 220.863 310.592 221.05 310.592 221.245V221.245C310.592 221.44 310.515 221.627 310.377 221.764C310.239 221.902 310.052 221.979 309.857 221.979V221.979Z" fill="#1F201F"/>
<path d="M309.857 224.903H298.316C298.124 224.903 297.939 224.827 297.801 224.693C297.664 224.558 297.585 224.375 297.581 224.182V224.182C297.581 223.988 297.659 223.801 297.796 223.663C297.934 223.525 298.121 223.448 298.316 223.448H309.857C310.052 223.448 310.239 223.525 310.377 223.663C310.515 223.801 310.592 223.988 310.592 224.182V224.182C310.592 224.278 310.573 224.373 310.536 224.461C310.499 224.55 310.445 224.63 310.376 224.697C310.308 224.764 310.227 224.817 310.137 224.852C310.048 224.887 309.953 224.905 309.857 224.903Z" fill="#1F201F"/>
<path d="M309.857 227.84H298.316C298.121 227.84 297.934 227.763 297.796 227.625C297.659 227.487 297.581 227.301 297.581 227.106V227.106C297.585 226.912 297.663 226.728 297.8 226.591C297.938 226.454 298.123 226.375 298.316 226.371H309.857C310.052 226.371 310.239 226.449 310.377 226.587C310.515 226.724 310.592 226.911 310.592 227.106V227.106C310.592 227.301 310.515 227.487 310.377 227.625C310.239 227.763 310.052 227.84 309.857 227.84V227.84Z" fill="#1F201F"/>
<path d="M309.857 230.778H298.316C298.123 230.774 297.938 230.696 297.8 230.559C297.663 230.422 297.585 230.237 297.581 230.043V230.043C297.581 229.849 297.659 229.662 297.796 229.524C297.934 229.386 298.121 229.309 298.316 229.309H309.857C310.052 229.309 310.239 229.386 310.377 229.524C310.515 229.662 310.592 229.849 310.592 230.043C310.592 230.14 310.573 230.235 310.536 230.324C310.5 230.414 310.445 230.495 310.377 230.563C310.309 230.631 310.228 230.685 310.138 230.722C310.049 230.759 309.954 230.778 309.857 230.778V230.778Z" fill="#1F201F"/>
<path d="M327.93 251.722C329.032 251.722 329.925 250.83 329.925 249.73C329.925 248.631 329.032 247.739 327.93 247.739C326.829 247.739 325.936 248.631 325.936 249.73C325.936 250.83 326.829 251.722 327.93 251.722Z" fill="#E7392E"/>
<path d="M328.95 249.73C328.95 249.932 328.89 250.128 328.778 250.295C328.666 250.463 328.507 250.593 328.321 250.67C328.135 250.747 327.93 250.767 327.733 250.728C327.535 250.688 327.354 250.592 327.211 250.449C327.069 250.307 326.972 250.126 326.933 249.929C326.893 249.732 326.914 249.527 326.991 249.341C327.068 249.156 327.198 248.997 327.366 248.885C327.533 248.773 327.73 248.714 327.931 248.714C328.2 248.717 328.457 248.826 328.647 249.015C328.838 249.205 328.946 249.462 328.95 249.73V249.73Z" fill="#161715"/>
<path d="M335.074 251.722C336.175 251.722 337.068 250.83 337.068 249.73C337.068 248.631 336.175 247.739 335.074 247.739C333.973 247.739 333.08 248.631 333.08 249.73C333.08 250.83 333.973 251.722 335.074 251.722Z" fill="#F7A635"/>
<path d="M335.074 250.747C335.637 250.747 336.092 250.292 336.092 249.73C336.092 249.169 335.637 248.714 335.074 248.714C334.512 248.714 334.056 249.169 334.056 249.73C334.056 250.292 334.512 250.747 335.074 250.747Z" fill="#161715"/>
<path d="M342.102 251.722C343.203 251.722 344.096 250.83 344.096 249.73C344.096 248.631 343.203 247.739 342.102 247.739C341 247.739 340.107 248.631 340.107 249.73C340.107 250.83 341 251.722 342.102 251.722Z" fill="#79A54D"/>
<path d="M343.121 249.73C343.121 249.932 343.061 250.128 342.949 250.295C342.837 250.463 342.678 250.593 342.492 250.67C342.306 250.747 342.101 250.767 341.904 250.728C341.706 250.688 341.525 250.592 341.382 250.449C341.24 250.307 341.143 250.126 341.104 249.929C341.065 249.732 341.085 249.527 341.162 249.341C341.239 249.156 341.369 248.997 341.537 248.885C341.704 248.773 341.901 248.714 342.103 248.714C342.371 248.717 342.628 248.826 342.818 249.015C343.009 249.205 343.117 249.462 343.121 249.73V249.73Z" fill="#161715"/>
<path d="M293.24 256.693V295.162H228.437" stroke="#4C4D4C" stroke-width="1.19" stroke-linecap="round" stroke-linejoin="round"/>
<path d="M289.335 251.1V252.795C289.339 253.827 289.751 254.816 290.483 255.547C291.214 256.277 292.205 256.689 293.239 256.692H294.031C295.062 256.685 296.049 256.271 296.778 255.542C297.506 254.812 297.916 253.825 297.92 252.795V251.1H289.335Z" fill="#6B6B6B"/>
<path d="M211.084 362.386H391.49C397.458 362.386 402.296 357.555 402.296 351.596V313.381C402.296 307.422 397.458 302.591 391.49 302.591H211.084C205.116 302.591 200.278 307.422 200.278 313.381V351.596C200.278 357.555 205.116 362.386 211.084 362.386Z" fill="#602513"/>
<path d="M211.097 362.386H235.974C241.942 362.386 246.779 357.555 246.779 351.596V313.381C246.779 307.422 241.942 302.591 235.974 302.591H211.097C205.129 302.591 200.292 307.422 200.292 313.381V351.596C200.292 357.555 205.129 362.386 211.097 362.386Z" fill="#8A5444"/>
</svg>
