<svg width="407" height="393" viewBox="0 0 407 393" fill="none" xmlns="http://www.w3.org/2000/svg">
<path d="M114.5 368C116 369 121 371.5 123.5 373C126.907 358.544 131.254 340.667 134.811 329C128.977 340.443 121.921 353.666 114.5 368Z" fill="#F39A83"/>
<path d="M122.35 97.2859L122.042 96.9116C122.059 97.0813 122.059 97.2523 122.042 97.422L122.35 97.2859Z" fill="#7E423B"/>
<path d="M281 286C279.335 285.962 264.083 281.945 262.441 282.221C266.365 282.819 270.251 283.648 274.077 284.705C274.601 284.8 275.087 285.042 275.478 285.402C275.784 285.815 275.973 286.303 276.025 286.814C276.486 289.298 276.93 291.748 277.34 294.198C277.614 294.402 277.887 294.572 278.143 294.776C282.996 298.519 283.184 312.266 281.048 331.287C281.048 333.431 294.5 372.839 294.5 375C304.5 371 319.5 361.5 323 358.5C305.23 329.696 290.329 286.102 281 286Z" fill="#F39A83"/>
<path d="M241.68 281.455V283.394C241.68 283.394 210.549 295.304 206.858 287.648C205.841 284.58 205.265 281.383 205.149 278.154L201.886 278.29C199.887 287.035 201.886 297.005 208.362 303.215C210.19 304.423 211.967 305.614 213.676 306.805C224.508 311.739 238.656 305.784 242.722 294.164C244.431 289.06 244.089 285.878 243.645 280.553L241.766 280.213V281.37L241.68 281.455Z" fill="#F39A83"/>
<path d="M278.143 294.776C277.887 294.572 277.613 294.402 277.34 294.198C279.504 306.452 280.743 318.849 281.048 331.287C283.183 312.249 282.995 298.519 278.143 294.776Z" fill="#F39A83"/>
<path d="M205.15 278.222C205.266 281.451 205.841 284.648 206.858 287.716C210.549 295.457 241.681 283.462 241.681 283.462V281.523C241.681 281.523 241.681 281.404 241.681 281.353C237.991 274.485 232.453 268.776 225.688 264.867C225.38 264.697 225.055 264.561 224.748 264.407C219.944 264.424 215.162 263.754 210.549 262.417C209.302 262.06 208.106 261.617 206.927 261.158L204.791 261.294V260.29H204.654C204.586 266.84 204.74 273.118 205.15 278.222Z" fill="#F39A83"/>
<path d="M224.663 264.339C224.971 264.492 225.295 264.628 225.603 264.799C232.368 268.708 237.906 274.417 241.596 281.285C241.596 281.285 241.596 281.404 241.596 281.455V280.298L242.177 260.971C236.602 263.177 230.661 264.319 224.663 264.339V264.339Z" fill="#E28D78"/>
<path d="M206.842 261.09C206.124 260.818 205.441 260.529 204.757 260.222V261.226L206.842 261.09Z" fill="#E28D78"/>
<path d="M278.912 208.74C277.784 204.112 278.587 199.11 281.236 191.726C280.467 191.104 279.774 190.397 279.168 189.617C274.042 183.254 269.873 177.571 263.688 171.872C250.718 159.829 241.476 144.345 237.05 127.246C227.636 139.751 217.828 152.63 204.142 160.303C197.051 164.284 188.764 166.547 182.186 171.566C179.76 173.632 177.643 176.032 175.898 178.694C175.855 180.685 175.975 182.677 176.257 184.649C177.658 194.006 177.538 199.655 175.232 204.418C174.922 205.083 174.46 205.666 173.882 206.12C175.685 215.803 178.356 225.306 181.861 234.515C181.909 234.62 181.948 234.728 181.981 234.838C182.442 236.012 182.938 237.152 183.45 238.241C185.477 237.436 187.562 236.782 189.687 236.284C187.606 236.9 185.559 237.621 183.553 238.445C184.457 240.424 185.484 242.344 186.628 244.196C188.967 243.615 191.35 243.228 193.753 243.039C191.403 243.346 189.075 243.801 186.782 244.4C188.295 246.839 190.052 249.119 192.028 251.205C193.647 251.182 195.267 251.245 196.88 251.392C195.325 251.392 193.753 251.392 192.198 251.392C195.737 255.1 199.953 258.103 204.62 260.239H204.757C205.44 260.545 206.124 260.835 206.841 261.107C208.02 261.566 209.216 262.008 210.464 262.366C215.077 263.703 219.858 264.373 224.663 264.356C230.657 264.324 236.592 263.169 242.159 260.954C245.867 259.477 249.361 257.514 252.548 255.118C260.122 249.073 266.635 241.817 271.821 233.647C276.246 227.029 277.579 218.488 280.108 210.934C279.501 210.336 279.085 209.573 278.912 208.74V208.74ZM219.11 209.284C219.212 208.57 219.366 208.008 219.502 207.413C219.827 206.239 220.237 205.116 220.63 204.01C221.519 201.815 222.476 199.74 223.398 197.681C224.338 195.584 225.109 193.417 225.705 191.199C226.37 193.559 226.406 196.052 225.807 198.43C225.279 200.751 224.565 203.027 223.672 205.235C223.227 206.29 222.834 207.345 222.458 208.382C222.039 209.189 221.805 210.078 221.775 210.985C222.001 211.939 222.452 212.826 223.091 213.572C223.781 214.506 224.529 215.398 225.329 216.243C224.107 215.948 222.95 215.435 221.912 214.728C220.734 214.005 219.805 212.943 219.246 211.683C218.981 210.912 218.922 210.085 219.075 209.284H219.11ZM202.57 189.464C202.594 188.7 202.845 187.961 203.29 187.34C203.736 186.718 204.357 186.242 205.074 185.972C205.792 185.702 206.573 185.65 207.321 185.822C208.068 185.994 208.747 186.383 209.272 186.939C209.798 187.495 210.146 188.194 210.272 188.948C210.399 189.701 210.298 190.475 209.983 191.171C209.668 191.867 209.153 192.455 208.502 192.86C207.852 193.264 207.095 193.468 206.329 193.445C205.302 193.409 204.33 192.971 203.626 192.225C202.922 191.479 202.542 190.487 202.57 189.464V189.464ZM224.218 241.644C214.12 241.32 206.004 234.668 205.184 226.332L244.158 227.556C242.825 235.808 234.316 241.95 224.218 241.644ZM248.259 194.738C247.492 194.714 246.749 194.464 246.124 194.019C245.5 193.574 245.022 192.955 244.751 192.24C244.481 191.524 244.429 190.745 244.604 190.001C244.778 189.256 245.17 188.58 245.731 188.058C246.291 187.536 246.995 187.191 247.752 187.067C248.51 186.943 249.287 187.045 249.986 187.362C250.685 187.678 251.274 188.194 251.678 188.844C252.082 189.493 252.284 190.248 252.257 191.012C252.242 191.518 252.126 192.017 251.916 192.479C251.707 192.94 251.408 193.356 251.036 193.703C250.664 194.049 250.228 194.318 249.751 194.496C249.275 194.674 248.767 194.756 248.259 194.738Z" fill="#F39A83"/>
<path d="M290.309 186.01C291.852 187.304 292.939 189.055 293.413 191.008C293.886 192.96 293.72 195.012 292.94 196.865C292.256 198.907 290.88 200.65 289.046 201.792C287.213 202.934 285.038 203.406 282.893 203.125C283.378 201.565 283.783 199.98 284.107 198.379C284.397 196.882 284.517 194.976 284.739 192.934C284.113 192.969 283.487 192.875 282.899 192.658C282.311 192.441 281.774 192.107 281.321 191.675C278.673 199.11 277.904 204.112 278.998 208.689C279.171 209.522 279.587 210.285 280.194 210.884C280.542 211.209 280.956 211.458 281.407 211.615C281.397 211.473 281.397 211.331 281.407 211.19C281.357 210.105 281.689 209.036 282.347 208.169C283.004 207.302 283.944 206.691 285.006 206.441C286.067 206.191 287.183 206.318 288.161 206.799C289.138 207.281 289.916 208.088 290.36 209.08C294.452 206.434 297.7 202.68 299.723 198.26C302.867 190.042 299.723 181.144 292.889 177.435C292.667 178.371 292.428 179.29 292.154 180.225C291.727 182.012 291.044 184.071 290.309 186.01Z" fill="#F39A83"/>
<path d="M284.106 198.379C283.782 199.981 283.378 201.565 282.893 203.126C285.037 203.406 287.213 202.935 289.046 201.792C290.879 200.65 292.256 198.908 292.94 196.865C293.72 195.013 293.886 192.96 293.412 191.008C292.939 189.055 291.851 187.304 290.309 186.01C288.959 189.413 287.182 192.578 284.738 192.935C284.516 194.857 284.397 196.882 284.106 198.379Z" fill="#EE7379"/>
<path d="M285.678 206.341C284.439 206.407 283.277 206.96 282.447 207.879C281.617 208.797 281.188 210.007 281.253 211.241C281.243 211.382 281.243 211.524 281.253 211.666C281.387 212.556 281.777 213.388 282.377 214.062C282.977 214.735 283.761 215.22 284.633 215.458C285.505 215.696 286.427 215.676 287.288 215.402C288.149 215.127 288.911 214.61 289.482 213.912C290.053 213.214 290.408 212.366 290.504 211.471C290.6 210.576 290.433 209.673 290.023 208.871C289.612 208.068 288.977 207.402 288.193 206.953C287.41 206.504 286.512 206.291 285.61 206.341H285.678Z" fill="white"/>
<path d="M175.232 204.334C177.538 199.57 177.658 193.922 176.257 184.564C175.979 182.62 175.859 180.658 175.898 178.695C173.814 181.893 172.481 185.364 173.933 187.678C173.609 187.184 173.352 186.64 173.062 186.112C172.891 188.63 172.412 191.216 172.378 193.105C172.349 194.734 172.406 196.364 172.549 197.988C170.387 197.736 168.371 196.773 166.821 195.25C165.272 193.728 164.277 191.734 163.994 189.585C163.711 187.436 164.158 185.254 165.262 183.386C166.366 181.518 168.065 180.071 170.089 179.273C169.18 176.534 168.483 173.73 168.004 170.885C160.606 173.148 155.839 181.094 157.137 189.6C158.198 194.381 160.618 198.758 164.108 202.207C164.752 201.325 165.686 200.697 166.748 200.43C167.809 200.163 168.931 200.274 169.918 200.746C170.906 201.217 171.696 202.018 172.151 203.009C172.607 204 172.699 205.119 172.412 206.171C172.372 206.311 172.32 206.447 172.259 206.579C172.874 206.513 173.463 206.29 173.967 205.933C174.502 205.499 174.934 204.953 175.232 204.334Z" fill="#F39A83"/>
<path d="M164.057 189.753C164.294 191.902 165.277 193.901 166.837 195.405C168.397 196.908 170.435 197.822 172.6 197.988C172.457 196.364 172.4 194.734 172.429 193.105C172.429 191.199 172.942 188.63 173.113 186.112C171.916 183.939 170.921 181.661 170.14 179.307C168.032 180.026 166.255 181.479 165.138 183.398C164.02 185.317 163.636 187.574 164.057 189.753V189.753Z" fill="#EE7379"/>
<path d="M169.131 200.557C168.22 200.301 167.251 200.327 166.354 200.63C165.457 200.934 164.674 201.502 164.108 202.258C163.779 202.712 163.531 203.218 163.373 203.755C162.972 204.928 163.056 206.212 163.605 207.324C164.155 208.436 165.125 209.285 166.304 209.684C167.482 210.084 168.771 210.001 169.888 209.453C171.005 208.906 171.857 207.94 172.258 206.767C172.32 206.635 172.371 206.498 172.412 206.358C172.588 205.763 172.643 205.138 172.572 204.522C172.502 203.905 172.308 203.309 172.002 202.768C171.696 202.227 171.285 201.753 170.792 201.373C170.299 200.993 169.734 200.716 169.131 200.557V200.557Z" fill="white"/>
<path d="M281.047 331.287C280.743 318.849 279.503 306.451 277.339 294.198C276.929 291.748 276.485 289.298 276.024 286.814C275.972 286.303 275.783 285.815 275.477 285.402C275.086 285.041 274.6 284.799 274.076 284.704C270.25 283.648 266.364 282.819 262.44 282.22C256.219 281.261 249.939 280.727 243.645 280.621C244.089 285.861 244.465 289.128 242.722 294.232C238.724 305.852 224.577 311.807 213.675 306.873C217.052 309.171 124.936 317.801 128 320.5C144.59 331.797 134.093 373.757 133 377.5L168.5 390L183.5 393H216.5C267.44 390.5 267.915 383.431 282.5 380.5C282.517 378.305 281.081 333.43 281.047 331.287Z" fill="#F7C1DA"/>
<path d="M217.5 310C208.355 301.103 198.936 290.945 201.856 278.485C201.867 278.323 201.867 278.161 201.856 278C192.59 279.988 183.856 278 174.638 278C170.223 278 165.662 278.315 161.126 278.8C159.823 280.158 178.924 324.215 177.5 325.5C183.991 328.918 217.5 320.5 217.5 310Z" fill="#F7C1DA"/>
<path d="M166.996 160.575C167.079 164.037 167.41 167.488 167.987 170.902C168.466 173.747 169.162 176.551 170.071 179.29C170.852 181.644 171.848 183.922 173.045 186.095C173.335 186.623 173.591 187.167 173.916 187.66C172.464 185.347 173.796 181.876 175.881 178.677C177.625 176.015 179.743 173.615 182.169 171.549C188.661 166.445 197.034 164.267 204.125 160.286C217.794 152.613 227.618 139.734 237.033 127.229C241.467 144.31 250.709 159.775 263.671 171.804C269.856 177.504 273.923 183.186 279.151 189.549C279.757 190.329 280.45 191.037 281.218 191.659C281.671 192.09 282.208 192.425 282.796 192.641C283.384 192.858 284.01 192.952 284.636 192.918C287.079 192.56 288.856 189.515 290.206 185.993C290.941 184.054 291.539 181.995 292.051 180.243C292.325 179.307 292.564 178.388 292.786 177.452C296.357 162.566 294.255 148.428 288.788 133.949C288.292 132.656 287.78 131.414 287.233 130.206C280.723 115.541 270.3 106.218 254.393 101.182C253.346 100.744 252.222 100.519 251.087 100.519C249.951 100.519 248.827 100.744 247.78 101.182C247.575 101.301 247.37 101.403 247.165 101.539C247.164 101.127 247.118 100.716 247.029 100.314C246.86 99.4216 246.411 98.6054 245.747 97.9832C241.014 93.5768 232.3 94.3424 226.32 94.9378C218.802 95.6631 211.494 97.8174 204.791 101.284C197.946 104.684 191.618 109.032 185.996 114.197C185.227 114.911 184.492 115.643 183.775 116.409C172.675 128.428 166.664 144.25 166.996 160.575V160.575Z" fill="#201544"/>
<path d="M295.117 103.299C300.68 99.9729 306.672 97.3884 312.934 95.6141C341.382 88.9577 350.553 112.755 353.328 135.781C355.08 150.322 351.225 164.092 354.555 178.833C354.555 192.402 366.705 209.486 375 219.713C357.096 216.542 337.439 212.229 326.895 197.945C321.55 190.603 319.359 181.632 316.38 173.119C311.298 158.635 302.682 152.35 291.057 143.494C281.185 136.009 276.22 127.81 281.506 115.583C283.317 111.326 288.896 106.927 295.117 103.299Z" fill="#201544"/>
<path d="M170.026 97.7676C164.97 93.7054 159.39 90.3119 153.433 87.6756C126.225 77.118 113.726 99.5203 107.928 121.902C104.184 136.09 106.082 150.225 100.776 164.398C98.9101 177.809 84.5117 193.084 74.8865 202.042C93.004 201.387 113.094 199.91 125.506 187.041C131.81 180.534 135.221 171.924 139.342 163.931C146.378 150.258 155.783 145.22 168.547 138.082C179.337 131.996 185.383 124.588 181.858 111.755C180.671 107.351 175.72 102.221 170.026 97.7676Z" fill="#201544"/>
<path d="M205.184 226.383C206.004 234.669 214.12 241.321 224.218 241.695C234.316 242.069 242.825 235.859 244.158 227.659L205.184 226.383Z" fill="white"/>
<path d="M248.515 187.031C247.748 187.005 246.99 187.205 246.338 187.608C245.685 188.011 245.167 188.597 244.85 189.293C244.532 189.989 244.429 190.763 244.553 191.517C244.678 192.271 245.024 192.972 245.549 193.53C246.073 194.088 246.752 194.479 247.5 194.652C248.248 194.826 249.03 194.774 249.748 194.505C250.467 194.235 251.089 193.759 251.535 193.138C251.982 192.516 252.233 191.776 252.257 191.012C252.29 189.991 251.914 188.998 251.212 188.252C250.511 187.506 249.541 187.067 248.515 187.031V187.031Z" fill="#201544"/>
<path d="M210.328 189.753C210.351 188.99 210.146 188.237 209.74 187.589C209.334 186.941 208.743 186.428 208.044 186.115C207.345 185.801 206.568 185.701 205.811 185.827C205.055 185.952 204.353 186.299 203.794 186.822C203.235 187.345 202.845 188.021 202.672 188.765C202.499 189.509 202.552 190.288 202.823 191.002C203.094 191.716 203.572 192.335 204.197 192.778C204.821 193.222 205.563 193.472 206.329 193.496C207.357 193.523 208.354 193.145 209.103 192.444C209.852 191.743 210.292 190.776 210.328 189.753V189.753Z" fill="#201544"/>
<path d="M221.946 214.677C222.984 215.384 224.142 215.897 225.363 216.192C224.541 215.366 223.771 214.491 223.056 213.572C222.418 212.826 221.967 211.939 221.741 210.986C221.771 210.078 222.004 209.189 222.424 208.383C222.8 207.345 223.193 206.29 223.637 205.235C224.53 203.027 225.245 200.751 225.773 198.43C226.371 196.052 226.336 193.559 225.671 191.199C225.081 193.417 224.315 195.584 223.381 197.681C222.458 199.74 221.502 201.815 220.613 204.01C220.22 205.116 219.81 206.239 219.485 207.413C219.349 208.008 219.195 208.57 219.092 209.284C218.959 210.072 219.03 210.88 219.297 211.632C219.851 212.89 220.775 213.952 221.946 214.677Z" fill="#DE7778"/>
<path d="M138.6 329.741C138.322 333.072 138.392 336.607 138.272 340.063C137.948 348.57 140.076 365.619 141.406 374.064C141.466 374.38 142.444 381.202 142.5 381.5C144 382 145.642 382.487 147 382.5C146.086 373.899 142.19 341.113 141.02 329.225C140.23 329.413 139.423 329.585 138.6 329.741Z" fill="#CBA5CD"/>
<path d="M247 359.5C243.614 356.948 186.712 316.81 183.054 314.66C180.235 313.074 177.437 311.29 174.628 309.855C174.111 310.397 173.594 310.939 172.999 311.476C177.539 314.992 202.859 334.799 209.5 340C221 362 249.5 367 247 359.5Z" fill="#CBA5CD"/>
<path fill-rule="evenodd" clip-rule="evenodd" d="M174.629 309.855C175.935 308.47 177.155 307.043 178.309 305.571C183.747 307.182 206.017 313.913 224.612 321.592C226.938 322.52 229.055 323.469 231.171 324.417L231.171 324.417C235.343 326.232 239.397 328.303 243.309 330.62C282.501 356.5 246.631 365.24 244.001 364.5C244.001 364.5 191.79 318.042 196.001 324.417C194.96 323.633 193.681 322.612 192.303 321.512L192.303 321.511C189.198 319.032 185.588 316.149 183.054 314.66C182.026 314.082 181 313.472 179.976 312.863C178.19 311.802 176.409 310.743 174.629 309.855ZM138.369 336.398V336.398C138.403 334.144 138.438 331.898 138.618 329.738L138.618 329.738L138.618 329.738C136.749 330.092 135.01 330.422 133.195 330.554C132.729 332.281 131.165 338.132 129.3 345.967C128.708 348.457 128.031 351.037 127.327 353.717C125.816 359.474 124.182 365.698 123 372.5L123.003 372.501L123.003 372.501C124.019 373.009 136.006 379.002 142.501 381.5C142.473 381.353 142.226 379.648 141.975 377.916L141.975 377.916L141.975 377.915C141.716 376.13 141.454 374.318 141.423 374.157C140.094 365.616 137.985 348.564 138.29 340.059C138.332 338.845 138.35 337.62 138.369 336.398ZM160.312 327.091C161.529 326.271 162.95 325.806 164.416 325.745C164.812 325.729 167.771 329.532 171.929 334.875C183.17 349.321 203.176 375.03 205.001 367C206.236 367.757 209.299 362.185 212.337 356.66C215.359 351.164 218.355 345.713 219.501 346.586C216.329 344.111 206.603 336.836 196.813 329.512C186.049 321.461 175.206 313.35 172.907 311.494C164.057 320.22 152.976 326.363 140.871 329.253C141.441 335.046 142.338 345.795 143.213 356.289C144.135 367.33 145.032 378.09 145.501 382.5C145.554 383 158.001 387.5 162.001 388C161.445 383.855 160.227 376.726 158.966 369.347C157.469 360.589 155.912 351.479 155.332 346.586C155.283 346.066 155.228 345.531 155.171 344.983C154.522 338.683 153.709 330.791 160.312 327.091Z" fill="#DDB8D8"/>
<path d="M219.5 362.5C219.5 392 200 399 159.5 387.5C158.248 378.442 156.55 355.573 155.48 346.558C154.719 340.088 153.133 331.113 160.311 327.09C161.528 326.271 162.949 325.805 164.416 325.745C165.882 325.685 167.336 326.033 168.613 326.751C171.095 328.255 217.185 360.751 219.5 362.5Z" fill="white"/>
<path d="M118.465 203.102C116.418 187.812 116.292 171.213 120.92 157.01C122.751 151.34 126.949 146.514 131.432 151.16C135.668 155.525 135.752 163.223 135.6 169.365C135.52 171.501 135.479 173.63 135.418 175.763C135.268 181.782 135.241 187.836 135.337 193.925C135.545 208.943 136.603 223.937 138.505 238.834C140.375 238.48 142.287 238.349 144.03 238.25C143.633 233.601 143.328 229.03 143.109 224.501C142.317 210.111 142.46 196.258 142.95 182.801C143.177 175.417 143.538 168.059 144.033 160.727C144.221 158.146 144.387 155.55 144.584 152.909C144.796 150.118 144.789 147.314 144.563 144.525C144.418 141.667 143.696 138.869 142.44 136.297C141.184 133.725 139.419 131.433 137.252 129.558C129.175 122.604 121.453 127.944 117.77 135.18C108.655 153.299 108.227 175.557 110.971 195.652C113.007 211.903 118.051 227.633 125.848 242.044C126.934 241.645 128.027 241.284 129.128 240.959C123.715 228.937 120.122 216.179 118.465 203.102V203.102Z" fill="#DDB8D8"/>
<path d="M135.284 175.77C135.344 173.637 135.386 171.508 135.465 169.371C135.618 163.23 135.534 155.532 131.297 151.167C126.893 146.525 122.695 151.351 120.786 157.016C116.162 171.238 116.362 187.823 118.465 203.102C120.116 216.18 123.703 228.939 129.11 240.963C132.144 240.02 135.247 239.309 138.39 238.837C136.487 223.94 135.429 208.946 135.221 193.928C135.145 187.874 135.166 181.821 135.284 175.77Z" fill="#F5F0F8"/>
<path d="M97.2092 261.994C84.8028 251.926 71.7915 242.621 58.2475 234.13C53.0762 230.893 47.8802 227.764 42.6594 224.743C40.8091 223.667 38.9589 222.591 37.097 221.555C31.7686 218.477 25.22 214.377 23.6829 208.517C22.0075 202.336 28.3172 201.294 34.194 202.667C48.8059 206.087 62.8927 214.91 74.9178 224.605C85.9639 233.404 95.5306 243.899 103.259 255.699C104.05 254.97 104.92 254.246 105.722 253.573C97.3132 238.526 86.0231 225.271 72.4897 214.556C56.7408 201.767 37.4455 190.5 17.2517 188.793C9.092 188.046 0.412112 191.909 2.11963 202.346C3.61969 212.301 11.614 217.284 18.2775 220.765L25.2382 224.382C31.6936 227.786 38.1632 231.265 44.6646 234.911C61.7326 244.312 78.1544 254.83 93.8219 266.397C94.8741 264.872 96.0047 263.403 97.2092 261.994V261.994Z" fill="#DDB8D8"/>
<path d="M34.1494 202.734C28.3287 201.35 22.019 202.391 23.6383 208.583C25.1753 214.443 31.7381 218.618 37.0524 221.622C38.9143 222.657 40.7645 223.733 42.6147 224.81C47.8356 227.831 53.0316 230.96 58.2029 234.196C71.7607 242.665 84.7872 251.948 97.2101 261.994C99.0817 259.762 101.103 257.659 103.26 255.699C95.5121 243.92 85.9301 233.446 74.8732 224.672C62.8481 214.976 48.7613 206.154 34.1494 202.734Z" fill="#F5F0F8"/>
<path d="M111.581 295.1C112.118 296.049 112.925 296.818 113.901 297.31C114.877 297.802 115.978 297.994 117.065 297.862C118.152 297.731 119.176 297.282 120.007 296.571C120.839 295.861 121.44 294.921 121.736 293.871C122.032 292.821 122.009 291.708 121.67 290.672C121.331 289.636 120.691 288.723 119.831 288.05C118.971 287.377 117.929 286.974 116.838 286.89C115.747 286.807 114.655 287.048 113.7 287.582C113.065 287.937 112.506 288.414 112.056 288.984C111.606 289.554 111.273 290.207 111.076 290.906C110.879 291.604 110.823 292.334 110.909 293.053C110.996 293.773 111.224 294.468 111.581 295.1V295.1ZM116.984 288.56C117.33 288.415 117.717 288.401 118.072 288.523C118.426 288.645 118.723 288.893 118.905 289.219C119.087 289.546 119.141 289.928 119.058 290.292C118.974 290.657 118.758 290.978 118.452 291.194C118.106 291.339 117.718 291.352 117.364 291.23C117.009 291.109 116.713 290.861 116.531 290.534C116.349 290.208 116.294 289.826 116.378 289.461C116.462 289.097 116.677 288.776 116.984 288.56Z" fill="#3F2B38"/>
<path d="M118.462 291.249C118.728 291.105 118.945 290.886 119.085 290.619C119.226 290.351 119.283 290.049 119.25 289.749C119.217 289.45 119.095 289.167 118.899 288.937C118.704 288.707 118.444 288.541 118.153 288.459C117.862 288.377 117.553 288.383 117.266 288.477C116.978 288.571 116.725 288.748 116.538 288.985C116.352 289.223 116.241 289.511 116.219 289.811C116.197 290.112 116.266 290.412 116.416 290.673C116.512 290.845 116.641 290.996 116.796 291.118C116.951 291.24 117.128 291.33 117.318 291.384C117.508 291.437 117.707 291.453 117.904 291.43C118.1 291.407 118.29 291.346 118.462 291.249V291.249Z" fill="#F5F0F8"/>
<path d="M149.43 274.502C149.967 275.452 150.774 276.221 151.75 276.713C152.726 277.204 153.827 277.397 154.914 277.265C156.001 277.134 157.025 276.684 157.856 275.974C158.688 275.264 159.289 274.324 159.585 273.274C159.881 272.224 159.858 271.111 159.519 270.074C159.18 269.038 158.54 268.126 157.68 267.453C156.82 266.78 155.778 266.376 154.687 266.293C153.596 266.21 152.504 266.45 151.549 266.985C150.914 267.34 150.356 267.817 149.905 268.387C149.455 268.957 149.122 269.61 148.925 270.308C148.728 271.007 148.672 271.737 148.758 272.456C148.845 273.176 149.073 273.871 149.43 274.502V274.502ZM154.825 268.022C155.174 267.833 155.584 267.787 155.967 267.895C156.349 268.003 156.673 268.255 156.871 268.599C156.99 268.772 157.072 268.968 157.111 269.175C157.15 269.381 157.145 269.594 157.097 269.799C157.049 270.004 156.959 270.197 156.832 270.365C156.706 270.533 156.545 270.674 156.361 270.777C156.177 270.88 155.974 270.945 155.763 270.965C155.553 270.986 155.341 270.963 155.14 270.898C154.94 270.833 154.755 270.727 154.598 270.586C154.441 270.446 154.315 270.275 154.228 270.083C154.132 269.905 154.072 269.71 154.053 269.508C154.034 269.307 154.056 269.104 154.116 268.911C154.177 268.718 154.276 268.539 154.408 268.384C154.539 268.23 154.7 268.103 154.881 268.012L154.825 268.022Z" fill="#3F2B38"/>
<path d="M156.443 270.627C156.616 270.531 156.768 270.402 156.891 270.248C157.013 270.094 157.104 269.917 157.158 269.727C157.212 269.538 157.228 269.34 157.205 269.145C157.183 268.949 157.121 268.76 157.025 268.588C156.81 268.276 156.485 268.055 156.115 267.97C155.744 267.885 155.355 267.94 155.023 268.127C154.691 268.313 154.442 268.616 154.323 268.976C154.204 269.337 154.225 269.728 154.382 270.073C154.48 270.245 154.611 270.396 154.768 270.517C154.925 270.638 155.104 270.727 155.296 270.778C155.488 270.83 155.688 270.843 155.885 270.817C156.081 270.791 156.271 270.727 156.443 270.627Z" fill="#F5F0F8"/>
<path d="M128.586 270.073C128.503 269.819 128.446 269.556 128.415 269.291C128.446 269.556 128.503 269.819 128.586 270.073V270.073Z" fill="#E898BC"/>
<path d="M128.637 267.385C128.708 267.145 128.8 266.912 128.91 266.687C128.8 266.912 128.708 267.145 128.637 267.385V267.385Z" fill="#E898BC"/>
<path d="M128.449 268.219C128.473 268.017 128.513 267.818 128.569 267.623C128.513 267.818 128.473 268.017 128.449 268.219Z" fill="#E898BC"/>
<path d="M128.962 266.568C129.657 265.248 130.624 264.089 131.798 263.165L131.61 263.318C130.518 264.214 129.618 265.319 128.962 266.568V266.568Z" fill="#E898BC"/>
<path d="M128.415 269.052C128.398 268.865 128.398 268.677 128.415 268.491C128.398 268.677 128.398 268.865 128.415 269.052V269.052Z" fill="#E898BC"/>
<path d="M173.122 278.419C171.899 277.602 170.57 276.953 169.173 276.487C166.251 279.796 163.689 283.404 161.53 287.25C163.461 283.344 165.88 279.698 168.73 276.397C167.574 276.039 166.376 275.832 165.166 275.781C163.329 278.896 161.771 282.166 160.512 285.553C161.59 282.153 163.027 278.875 164.797 275.774C163.644 275.808 162.5 275.98 161.388 276.285C157.145 277.398 152.665 281.352 147.957 285.118C151.465 284.723 154.363 285.504 155.673 287.512C155.673 287.512 155.708 287.698 155.861 287.785C157.929 291.442 154.185 297.436 147.493 301.366C149.638 305.221 153.89 305.379 157.208 304.191C161.688 302.589 165.776 298.305 164.768 293.906C164.745 293.814 164.741 293.717 164.757 293.623C164.773 293.529 164.808 293.439 164.86 293.359C164.912 293.279 164.979 293.21 165.059 293.157C165.138 293.103 165.228 293.067 165.322 293.049C165.416 293.026 165.513 293.022 165.609 293.037C165.704 293.053 165.795 293.087 165.877 293.138C165.959 293.189 166.03 293.256 166.085 293.334C166.141 293.413 166.18 293.502 166.2 293.596C167.156 298.024 163.972 302.272 159.913 304.565C159.205 304.958 158.465 305.292 157.701 305.563C156.175 306.21 154.51 306.46 152.862 306.29C151.214 306.12 149.637 305.536 148.279 304.592C148.362 306.247 148.02 307.897 147.286 309.386C146.552 310.875 145.449 312.153 144.082 313.101C143.452 313.61 142.781 314.067 142.075 314.465C137.994 316.743 132.698 317.207 129.415 314.088C129.331 314.026 129.261 313.946 129.21 313.855C129.159 313.763 129.128 313.662 129.12 313.558C129.111 313.453 129.125 313.348 129.16 313.25C129.195 313.151 129.251 313.061 129.323 312.985C129.396 312.91 129.484 312.85 129.581 312.811C129.679 312.772 129.783 312.753 129.888 312.757C129.993 312.761 130.096 312.787 130.19 312.834C130.284 312.88 130.367 312.946 130.434 313.027C133.698 316.15 139.469 314.92 143.169 311.963C145.924 309.743 147.994 306.053 145.812 302.205C139.161 305.53 132.43 305.475 130.42 301.922C130.276 301.661 130.159 301.386 130.071 301.101L130.021 300.841C129.964 300.64 129.925 300.434 129.905 300.227C129.876 300.129 129.857 300.03 129.848 299.929C129.832 299.703 129.835 299.477 129.856 299.252C129.833 299.167 129.817 299.08 129.806 298.992C129.835 298.715 129.887 298.44 129.961 298.172C129.961 298.172 129.961 298.172 129.936 298.041C130.364 296.483 131.11 295.028 132.128 293.769C126.254 295.885 120.607 297.458 117.351 300.717C116.775 301.312 116.249 301.954 115.778 302.635C119.024 302.797 122.247 303.271 125.401 304.05C122.14 303.415 118.832 303.049 115.51 302.956C114.872 303.983 114.372 305.089 114.023 306.246C118.045 305.65 122.122 305.524 126.172 305.871C122.072 305.705 117.965 305.941 113.911 306.576C113.492 307.969 113.244 309.409 113.174 310.861C117.79 309.114 122.627 308.015 127.545 307.597C122.632 308.244 117.813 309.474 113.192 311.263C113.1 314.312 113.786 317.334 115.186 320.045C120.586 329.627 139.143 329.445 156.656 319.665C174.169 309.885 183.992 294.176 178.603 284.65C177.343 282.301 175.587 280.252 173.456 278.645C169.335 281.733 165.61 285.315 162.366 289.309C165.41 285.185 169.032 281.517 173.122 278.419V278.419Z" fill="#F5F0F8"/>
<path d="M145.836 302.124C148.018 305.972 145.949 309.662 143.193 311.881C139.493 314.839 133.722 316.068 130.458 312.946C130.391 312.865 130.308 312.799 130.214 312.752C130.12 312.706 130.018 312.68 129.913 312.676C129.808 312.672 129.703 312.69 129.606 312.729C129.508 312.769 129.42 312.828 129.347 312.904C129.275 312.979 129.219 313.07 129.184 313.168C129.149 313.267 129.135 313.372 129.144 313.476C129.152 313.58 129.183 313.682 129.234 313.773C129.285 313.864 129.355 313.944 129.439 314.007C132.722 317.125 138.018 316.661 142.099 314.383C142.805 313.985 143.476 313.529 144.106 313.019C145.473 312.072 146.576 310.793 147.31 309.304C148.044 307.816 148.386 306.166 148.303 304.51C147.457 303.812 146.755 302.956 146.237 301.99L145.836 302.124Z" fill="#3F2B38"/>
<path d="M146.928 301.55L146.136 301.97C146.654 302.936 147.356 303.792 148.202 304.491C149.56 305.435 151.137 306.019 152.785 306.189C154.433 306.359 156.099 306.109 157.624 305.462C158.388 305.191 159.128 304.857 159.837 304.464C163.914 302.168 167.079 297.923 166.124 293.495C166.103 293.401 166.064 293.312 166.009 293.233C165.953 293.154 165.883 293.087 165.801 293.036C165.719 292.986 165.627 292.951 165.532 292.936C165.437 292.921 165.339 292.925 165.245 292.948C165.151 292.966 165.062 293.002 164.982 293.056C164.903 293.109 164.835 293.178 164.783 293.258C164.731 293.338 164.696 293.428 164.68 293.522C164.665 293.616 164.668 293.713 164.691 293.805C165.643 298.214 161.612 302.488 157.132 304.09C153.813 305.278 149.58 305.116 147.416 301.265L146.928 301.55Z" fill="#3F2B38"/>
<path d="M133.842 296.067C136.679 299.385 141.987 298.167 145.443 296.991C149.533 295.579 153.73 292.894 155.273 288.667C155.409 288.256 155.517 287.836 155.596 287.411C154.293 285.44 151.394 284.659 147.879 285.017C144.855 285.428 141.939 286.42 139.292 287.937C136.695 289.346 134.391 291.236 132.504 293.505C132.749 294.449 133.207 295.325 133.842 296.067V296.067ZM148.562 287.491C148.942 288.171 148.036 289.519 146.479 290.296C144.922 291.073 143.375 291.289 142.994 290.61C142.613 289.93 143.52 288.581 145.077 287.804C146.634 287.027 148.184 286.829 148.569 287.528L148.562 287.491Z" fill="#E898BC"/>
<path d="M130.129 297.928C130.129 297.928 130.129 297.928 130.153 298.058C130.079 298.327 130.028 298.601 129.999 298.878C130.009 298.966 130.026 299.053 130.048 299.139C130.027 299.364 130.025 299.59 130.041 299.815C130.049 299.916 130.068 300.016 130.097 300.113C130.118 300.321 130.156 300.527 130.214 300.727L130.263 300.988C130.352 301.273 130.469 301.548 130.613 301.809C132.608 305.287 139.353 305.416 146.005 302.092L146.305 301.939L147.097 301.518L147.585 301.233C154.277 297.303 158.021 291.31 155.953 287.652C155.931 287.54 155.914 287.447 155.765 287.379C155.686 287.805 155.578 288.225 155.442 288.636C153.886 292.788 149.696 295.511 145.613 296.96C142.119 298.143 136.834 299.28 134.011 296.035C133.383 295.303 132.929 294.441 132.68 293.51V293.51C131.518 294.782 130.648 296.289 130.129 297.928V297.928Z" fill="#E474A5"/>
<path d="M145.084 287.841C143.541 288.693 142.617 289.948 143.002 290.647C143.386 291.345 145.037 291.167 146.486 290.333C147.936 289.499 148.95 288.208 148.569 287.528C148.188 286.848 146.624 286.971 145.084 287.841Z" fill="#F5F0F8"/>
<path d="M175.864 269.375C173.322 271.514 170.961 273.858 168.806 276.383C165.929 279.684 163.484 283.335 161.532 287.25C163.69 283.403 166.252 279.795 169.175 276.487C171.306 274.043 173.645 271.786 176.166 269.742C179.522 266.93 183.189 264.507 187.095 262.522L188.869 261.665C191.253 260.533 193.706 259.553 196.214 258.729C193.624 259.434 191.097 260.352 188.658 261.473L187.057 262.22C183.074 264.19 179.321 266.589 175.864 269.375V269.375Z" fill="#3F2B38"/>
<path d="M165.167 275.781C167.188 272.308 169.571 269.058 172.276 266.083C175.693 262.225 179.609 258.836 183.923 256.007L184.145 255.849C186.169 254.532 188.26 253.318 190.408 252.213C188.186 253.198 186.041 254.346 183.99 255.647L183.766 255.69C175.862 260.656 169.344 267.531 164.818 275.673C163.048 278.774 161.611 282.052 160.532 285.453C161.791 282.101 163.342 278.864 165.167 275.781V275.781Z" fill="#3F2B38"/>
<path d="M201.278 267.16C199.483 267.334 197.698 267.601 195.93 267.962C193.59 268.447 191.285 269.09 189.033 269.887C185.731 271.034 182.535 272.466 179.482 274.166C177.279 275.455 175.155 276.875 173.123 278.419C169.026 281.517 165.397 285.186 162.348 289.313C165.597 285.316 169.328 281.733 173.456 278.645C175.455 277.147 177.552 275.783 179.732 274.562C182.72 272.845 185.854 271.393 189.096 270.222C191.41 269.379 193.774 268.68 196.175 268.128C197.847 267.753 199.563 267.409 201.278 267.16Z" fill="#3F2B38"/>
<path d="M114.202 306.578C118.257 305.944 122.364 305.708 126.464 305.873C122.414 305.527 118.336 305.653 114.314 306.248C110.725 306.761 107.188 307.593 103.746 308.734C99.4911 310.219 95.4189 312.181 91.6083 314.583C88.9152 316.279 86.3924 318.23 84.075 320.408C86.4999 318.353 89.0786 316.484 91.7885 314.819C95.5894 312.475 99.6477 310.573 103.883 309.151C107.235 307.974 110.69 307.112 114.202 306.578V306.578Z" fill="#3F2B38"/>
<path d="M115.795 302.92C119.117 303.014 122.425 303.38 125.686 304.015C122.519 303.236 119.284 302.764 116.026 302.607C111.594 302.384 107.15 302.651 102.775 303.403C97.6616 304.378 92.6984 306.019 88.0131 308.284C85.7736 309.377 83.6164 310.63 81.5583 312.034C83.6721 310.748 85.856 309.581 88.0999 308.537C96.765 304.528 106.252 302.604 115.795 302.92V302.92Z" fill="#3F2B38"/>
<path d="M113.483 311.265C118.104 309.477 122.923 308.246 127.836 307.599C122.918 308.017 118.081 309.116 113.465 310.864C110.884 311.821 108.366 312.942 105.929 314.221C102.758 316.004 99.7525 318.064 96.948 320.378C93.8261 322.959 91.0156 325.893 88.5733 329.12C91.1682 326.015 94.0595 323.167 97.2066 320.618C99.9981 318.351 102.997 316.349 106.163 314.639C108.514 313.331 110.961 312.203 113.483 311.265V311.265Z" fill="#3F2B38"/>
<path d="M116.025 302.607C116.496 301.927 117.022 301.285 117.598 300.689C120.854 297.43 126.501 295.858 132.375 293.742L132.549 293.535C134.436 291.267 136.74 289.377 139.337 287.967C141.984 286.451 144.9 285.459 147.924 285.047C152.652 281.278 157.075 277.334 161.389 276.285C162.502 276.006 163.645 275.861 164.793 275.852C169.319 267.709 175.837 260.835 183.741 255.868C176.554 244.928 163.978 238.865 149.701 238.236C147.751 238.162 145.814 238.163 143.895 238.257C141.976 238.35 140.213 238.55 138.37 238.841C135.227 239.313 132.125 240.024 129.09 240.967C127.989 241.291 126.896 241.653 125.81 242.052C122.388 243.313 119.071 244.839 115.887 246.613C112.303 248.625 108.907 250.953 105.741 253.57C104.901 254.25 104.069 254.967 103.277 255.696C101.127 257.655 99.1121 259.758 97.2464 261.988C96.0777 263.423 94.9842 264.918 93.9702 266.466C84.8707 279.761 82.2241 295.324 88.0487 308.374C92.734 306.109 97.6972 304.468 102.81 303.493C107.17 302.714 111.602 302.417 116.025 302.607V302.607ZM151.617 266.934C152.579 266.41 153.675 266.181 154.767 266.276C155.858 266.371 156.897 266.785 157.752 267.466C158.607 268.148 159.24 269.067 159.571 270.106C159.902 271.146 159.917 272.261 159.614 273.31C159.311 274.36 158.703 275.297 157.867 276.004C157.031 276.711 156.004 277.156 154.916 277.283C153.827 277.411 152.726 277.215 151.75 276.72C150.774 276.225 149.967 275.454 149.431 274.503C149.074 273.868 148.848 273.168 148.764 272.445C148.681 271.722 148.742 270.99 148.944 270.29C149.147 269.59 149.486 268.937 149.943 268.368C150.399 267.799 150.965 267.325 151.606 266.974L151.617 266.934ZM121.319 289.667C121.85 290.619 122.087 291.706 121.998 292.792C121.909 293.879 121.5 294.915 120.821 295.77C120.142 296.626 119.224 297.262 118.182 297.599C117.141 297.936 116.024 297.958 114.971 297.662C113.919 297.367 112.978 296.768 112.268 295.94C111.558 295.112 111.11 294.092 110.982 293.01C110.854 291.928 111.05 290.832 111.546 289.86C112.043 288.889 112.817 288.085 113.771 287.55C115.056 286.835 116.572 286.657 117.986 287.054C119.401 287.451 120.6 288.391 121.319 289.667V289.667Z" fill="#DDB8D8"/>
<path d="M113.465 310.864C113.535 309.411 113.782 307.972 114.202 306.579C110.689 307.113 107.234 307.974 103.883 309.152C99.647 310.573 95.5887 312.475 91.7879 314.82C93.2964 316.877 95.0305 318.76 96.9581 320.435C99.7627 318.121 102.768 316.06 105.939 314.277C108.372 312.98 110.885 311.84 113.465 310.864V310.864Z" fill="#DDB8D8"/>
<path d="M187.094 262.522C183.188 264.507 179.521 266.93 176.165 269.742C173.645 271.786 171.306 274.043 169.174 276.487C170.571 276.952 171.899 277.602 173.123 278.418C175.156 276.875 177.279 275.455 179.483 274.166C182.536 272.466 185.731 271.034 189.033 269.887C188.655 267.369 188.005 264.9 187.094 262.522V262.522Z" fill="#DDB8D8"/>
<path d="M138.6 329.741C139.41 329.588 140.214 329.435 141.011 329.284C153.116 326.394 164.197 320.251 173.047 311.525C173.586 310.998 174.103 310.457 174.676 309.904C175.983 308.519 177.203 307.092 178.357 305.62C179.273 304.424 180.163 303.195 180.975 301.961C187.487 292.74 190.387 281.468 189.125 270.275C185.883 271.446 182.749 272.898 179.761 274.615C177.572 275.818 175.466 277.164 173.456 278.645C175.674 280.191 177.523 282.204 178.874 284.541C184.273 294.123 174.446 309.813 156.926 319.556C139.407 329.299 120.856 329.519 115.456 319.936C114.057 317.225 113.371 314.203 113.462 311.154C110.942 312.111 108.499 313.257 106.153 314.584C102.986 316.294 99.9877 318.295 97.1962 320.563C106.327 328.474 119.35 331.79 133.174 330.442C135 330.366 136.73 330.096 138.6 329.741Z" fill="#DDB8D8"/>
<path d="M186.982 262.234C186.432 260.712 185.77 259.232 185 257.808C184.652 257.199 184.285 256.594 183.918 256.085C179.604 258.914 175.687 262.303 172.271 266.161C169.572 269.112 167.19 272.336 165.167 275.781C166.426 275.81 167.675 276.008 168.88 276.369C173.868 270.427 180.063 265.604 187.056 262.22L186.982 262.234Z" fill="#DDB8D8"/>
<path d="M114.307 306.211C114.657 305.055 115.157 303.948 115.794 302.921C106.252 302.605 96.7646 304.529 88.0995 308.538C88.5038 309.445 88.9385 310.307 89.4363 311.196C90.1063 312.381 90.8404 313.495 91.619 314.639C95.4257 312.225 99.4956 310.25 103.75 308.753C107.186 307.593 110.72 306.743 114.307 306.211V306.211Z" fill="#DDB8D8"/>
<path fill-rule="evenodd" clip-rule="evenodd" d="M267.965 385.345C267.977 385.397 267.988 385.449 268 385.5C259.5 387.5 242.774 391.093 236 391.5L230.5 392C229.377 391.065 229.199 390.125 227.826 388.537C227.269 387.893 226.762 387.307 226.363 386.87C222.301 382.683 219.536 377.42 218.398 371.708C221.823 366.197 223.204 359.668 222.302 353.252C224.367 349.237 227.121 345.579 229.43 348.799C231.344 351.456 238.655 356.691 245.854 361.668C246.457 362.076 247.058 362.484 247.656 362.888C247.728 362.937 247.801 362.986 247.873 363.035C247.172 362.554 246.464 362.068 245.755 361.579C242.388 354.72 244.937 351.777 244.937 351.777C247.452 352.845 249.894 354.074 252.249 355.456C271.451 366.962 269.969 380.823 269 385L267.965 385.345ZM261.018 372.407C260.927 372.323 260.836 372.241 260.744 372.161C260.646 372.076 260.542 371.988 260.432 371.896C260.506 371.957 260.577 372.015 260.645 372.072C260.771 372.18 260.895 372.292 261.018 372.407Z" fill="#F39A83"/>
<path d="M181.063 365.166C183.011 362.695 188.221 357.408 193.609 351.903C195.568 344.534 192.515 342.269 192.515 342.269C189.936 344.026 187.504 345.988 185.243 348.135C169.731 362.791 174.641 377.244 176.357 381.051L176.733 380.649C176.785 376.128 178.101 368.855 181.063 365.166Z" fill="#F39A83"/>
<path d="M207.275 336.029C206.404 337.627 205.356 339.123 204.15 340.487C203.261 341.566 202.226 342.729 201.118 343.953C198.865 346.443 196.265 349.161 193.68 351.822C188.292 357.328 183.044 362.617 181.134 365.085C178.177 368.85 176.86 376.123 176.744 380.534C178.067 379.069 179.353 377.625 180.582 376.203C188.064 378.885 194.447 384.86 201.099 389.603L200.735 390.214C205.873 386.582 210.493 382.275 214.472 377.411C215.653 375.93 216.737 374.375 217.718 372.755C217.96 372.342 218.147 371.97 218.372 371.577C221.796 366.066 223.177 359.537 222.275 353.121C221.711 349.995 220.554 347.004 218.867 344.31C216.681 340.93 209.778 330.431 207.275 336.029Z" fill="#F39A83"/>
<path d="M201.5 389C194.755 384.3 187.933 378.931 180.451 376.249C179.222 377.67 177.936 379.114 176.613 380.579L176.237 380.982C173.723 383.765 171.03 386.628 168.157 389.572C170.5 390.259 188.5 395 199.857 391.462C200.099 391.049 200.361 390.654 200.604 390.259L201.5 389Z" fill="#F39A83"/>
<path d="M193.411 178.133C198.717 174.325 205.208 172.517 211.728 173.029" stroke="#201544" stroke-width="0.28" stroke-linecap="round" stroke-linejoin="round"/>
<path d="M261.244 179.341C256.188 175.217 249.822 173.021 243.287 173.148" stroke="#201544" stroke-width="0.28" stroke-linecap="round" stroke-linejoin="round"/>
</svg>
