<svg width="1010" height="1032" viewBox="0 0 1010 1032" fill="none" xmlns="http://www.w3.org/2000/svg">
<path d="M213 762C197.559 746.754 179 719 216.508 676.31L404.643 488.402C419.889 472.961 434.31 480.759 449.751 496.005C465.192 511.251 430.605 606.549 415.359 621.99L275 747C259.754 762.441 228.441 777.246 213 762Z" fill="#4992CF"/>
<path d="M549.347 392.293C535.682 379.107 491.458 397.833 491.458 397.833L489.307 462.751C489.307 462.751 519.769 496.972 551.672 470.267C557.537 465.447 555.05 397.833 549.347 392.293Z" fill="#E6927C"/>
<path d="M413.5 896.5C547 875.5 625.5 805 639 794.5C637.313 743.298 634.243 674.752 633.699 664.827C631.849 640.072 629.944 615.316 625.808 590.996C623.471 573.607 623.471 555.983 625.808 538.595C626.575 524.766 628.801 511.058 632.447 497.698C633.635 494.749 634.404 491.647 634.733 488.483C634.883 486.89 634.604 485.285 633.924 483.837C633.245 482.389 632.19 481.15 630.869 480.249C629.793 479.68 628.637 479.276 627.441 479.05C603.495 473.106 580.6 464.436 556.111 460.456C524.381 490.442 492.533 462.157 491.613 460.456C480.334 462.835 471.349 465.536 460.586 468.771L460.313 468.853C451.714 471.361 422.98 475.124 417.538 482.758C407.072 514.034 391.356 687.626 424.931 784.781C424.659 793.778 411.813 888.484 413.5 896.5Z" fill="#3F7DAF"/>
<path d="M604.406 358.323C600.874 368.624 583.491 380.823 580.731 371.28C579.076 365.479 580.069 359.082 583.546 348.781C587.022 338.48 583.877 330.835 593.479 334.034C598.191 335.851 601.982 339.421 604.029 343.97C606.075 348.518 606.21 353.677 604.406 358.323V358.323Z" fill="#F39A83"/>
<path d="M591.551 344.728H591.091C587.967 347.563 588.656 354.338 588.059 358.47C587.828 360.09 587.506 361.695 587.094 363.275C589.172 363.436 591.241 362.853 592.961 361.621C594.681 360.39 595.95 358.584 596.559 356.5C597.346 354.242 597.264 351.752 596.329 349.556C595.395 347.359 593.682 345.628 591.551 344.728V344.728Z" fill="#EE7379"/>
<path d="M444.126 358.484C447.691 368.798 465.128 380.795 467.76 371.241C469.405 365.378 468.308 358.973 464.744 348.713C461.18 338.454 464.251 330.8 454.764 334.057C450.086 335.905 446.339 339.515 444.345 344.094C442.351 348.673 442.272 353.848 444.126 358.484V358.484Z" fill="#F39A83"/>
<path d="M458.381 344.728H458.907C462.937 347.566 462.119 354.348 462.937 358.437C463.244 360.06 463.673 361.667 464.222 363.247C461.581 363.483 458.924 362.947 456.714 361.734C454.504 360.521 452.882 358.707 452.131 356.609C451.057 354.35 451.112 351.833 452.283 349.607C453.453 347.382 455.646 345.627 458.381 344.728V344.728Z" fill="#EE7379"/>
<path d="M571.597 406.861C568.469 414.475 563.628 421.274 557.447 426.733C551.266 432.193 543.91 436.168 535.944 438.353C528.184 440.795 519.906 441.114 511.979 439.276C504.053 437.439 496.768 433.513 490.889 427.91C473.28 410.649 467.356 383.431 464.53 374.502C460.01 360.114 456.772 345.357 454.855 330.402C453.877 322.935 453.225 315.413 452.899 307.892C452.333 301.86 454.016 295.832 457.627 290.955C470.617 269.96 494.204 263.196 518.389 259.571C531.485 257.995 544.769 259.707 557.031 264.549C565.618 267.742 572.955 269.96 576.923 278.023C596.597 318.876 588.825 365.737 571.597 406.861Z" fill="#F39A83"/>
<path d="M494.94 351.806C494.929 352.942 495.214 354.056 495.759 355.006C496.304 355.955 497.084 356.698 498 357.139C498.916 357.579 499.927 357.698 500.902 357.479C501.877 357.261 502.773 356.715 503.476 355.912C504.179 355.109 504.656 354.085 504.847 352.97C505.038 351.855 504.935 350.701 504.549 349.654C504.164 348.607 503.514 347.715 502.683 347.092C501.852 346.469 500.877 346.144 499.884 346.156C498.572 346.156 497.315 346.752 496.388 347.811C495.461 348.871 494.94 350.308 494.94 351.806V351.806Z" fill="#201544"/>
<path d="M544.313 351.871C544.313 353.001 544.648 354.106 545.276 355.046C545.904 355.986 546.797 356.718 547.841 357.151C548.885 357.584 550.034 357.697 551.143 357.476C552.252 357.256 553.27 356.711 554.069 355.912C554.868 355.113 555.413 354.095 555.633 352.986C555.854 351.877 555.741 350.728 555.308 349.684C554.875 348.64 554.143 347.747 553.203 347.119C552.263 346.491 551.158 346.156 550.028 346.156C548.512 346.156 547.059 346.758 545.987 347.83C544.915 348.902 544.313 350.355 544.313 351.871V351.871Z" fill="#201544"/>
<path d="M560.744 337.584C554.195 331.628 546.105 328.609 537.884 329.054" stroke="#201544" stroke-width="1.36" stroke-linecap="round" stroke-linejoin="round"/>
<path d="M478.509 337.584C485.467 331.628 494.063 328.609 502.798 329.054" stroke="#201544" stroke-width="1.36" stroke-linecap="round" stroke-linejoin="round"/>
<path d="M520.844 353.3C522.451 358.573 524.425 363.742 526.752 368.775C527.268 370.101 527.7 371.455 528.046 372.828C528.672 374.534 528.672 376.386 528.046 378.092C527.282 379.582 526.044 380.814 524.502 381.619C523.19 382.406 521.744 382.976 520.226 383.303C521.306 382.359 522.285 381.319 523.151 380.198C523.998 379.346 524.615 378.317 524.952 377.197C524.951 376.102 524.681 375.021 524.164 374.039C523.714 372.776 523.264 371.512 522.758 370.249C521.733 367.608 520.924 364.898 520.338 362.143C519.674 359.205 519.849 356.155 520.844 353.3V353.3Z" fill="#DE7778"/>
<path d="M551.879 386.294C542.537 385.632 534.013 380.782 524.561 380.12C509.1 379.404 489.868 392.578 475.389 381.719C465.992 374.553 464.462 360.387 464.134 349.417C463.951 337.92 464.921 326.433 467.03 315.132C467.002 315.005 467.002 314.873 467.03 314.746C466.211 312.376 465.446 310.005 464.626 307.58C457.414 336.574 461.676 369.702 468.669 398.42C471.947 411.925 477.793 427.249 491.07 433.533C504.749 439.153 519.786 440.498 534.232 437.391C546.829 434.861 558.111 427.86 566.03 417.658C576.957 403.492 579.525 384.585 583.896 367.663C585.576 362.426 586.837 357.062 587.666 351.622C587.939 348.094 587.666 344.897 588.048 341.37C586.832 344.503 585.255 347.482 583.35 350.244C581.965 353.325 580.955 356.564 580.344 359.89C576.957 373.009 566.904 387.396 551.879 386.294Z" fill="#201544"/>
<path d="M534.802 401.314C531.099 404.15 526.619 405.757 521.983 405.913C517.413 406.241 512.661 405.409 507.464 405.789C511.802 408.745 516.958 410.243 522.201 410.07C524.936 409.903 527.593 409.061 529.937 407.619C532.304 406.229 534.048 403.969 534.802 401.314Z" fill="white"/>
<path d="M589.027 288.996C577.915 259.683 542.689 232.188 511.741 240.508C506.185 241.94 501.352 244.806 495.907 246.018C489.979 247.451 483.743 246.949 478.127 244.585C474.287 242.359 470.069 240.847 465.681 240.122C462.07 240.247 458.614 241.61 455.903 243.979C435.123 260.509 442.457 299.08 448.624 321.12C450.534 327.915 452.891 334.578 455.68 341.067C457.292 344.703 462.181 351.481 461.237 355.723C461.939 351.148 462.162 346.514 461.903 341.893C462.292 342.334 462.626 342.775 463.07 343.215C460.959 341.011 465.848 327.126 466.793 324.481C469.303 318.447 472.121 312.543 475.238 306.794C484.294 286.903 512.019 286.186 529.688 287.399C540.396 287.702 550.898 290.395 560.413 295.278C582.637 307.951 580.859 337.595 582.637 361.399C584.86 363.217 587.36 359.415 587.916 356.495C592.416 334.069 597.528 310.761 589.027 288.996Z" fill="#201544"/>
<path d="M631.018 649.312C629.324 643.314 627.536 637.371 625.579 631.461C613.997 596.603 603.529 560.414 604.67 523.265C605.009 510.885 605.745 492.435 617.169 485.049C643.844 467.889 667.894 510.149 674.596 530.414C683.755 557.243 694.181 583.658 702.863 610.637C707.213 624.089 711.16 637.711 714.143 651.509C715.871 659.31 722.675 677.857 722.5 699.5C722.325 721.143 743 754 706.5 767C694.462 772.226 676 770.5 669 759C662.802 755.089 641.73 687.56 639.648 680.78C636.549 670.376 634.023 659.77 631.018 649.312Z" fill="#4992CF"/>
<path d="M805.401 605.404C805.401 605.404 795.444 572.701 838.596 556.802C838.596 556.802 843.821 563.132 832.113 577.872C825.694 586.382 818.626 594.354 810.97 601.719C809.336 603.257 807.454 604.502 805.401 605.404V605.404Z" fill="#F39A83"/>
<path d="M828.154 624.109C818.349 618.672 825.311 592.772 814.812 590.215C795.697 617.287 771.155 636.558 748.068 659.856C724.981 683.153 670.869 718.098 668.173 725.784C663.724 738.47 670.763 753.325 676.067 759.291C698.926 776.675 722.041 757.425 728.953 750.589C740.303 738.952 813.056 656.927 828.154 624.109Z" fill="#F39A83"/>
<path d="M824.183 627.294C839.199 623.154 853.066 615.551 864.642 605.11C880.143 589.26 878.175 575.335 875.74 567.586C874.041 562.298 868.391 546.265 863.12 552.921C857.849 559.576 825.848 577.771 818.492 583.554C811.137 589.336 805.986 605.226 806.873 607.721C807.759 610.216 824.183 627.294 824.183 627.294Z" fill="#F39A83"/>
<path d="M877.582 574.548C875.007 576.552 859.062 596.137 852.825 598.121C862.328 596.236 874.956 581.041 877.283 579.086L877.582 574.548Z" fill="#BA5E44"/>
<path d="M873.629 560.403C871.054 562.406 853.624 582.286 847.387 584.27C856.89 582.385 873.725 566.355 874.072 564.794C874.617 563.939 873.629 560.403 873.629 560.403Z" fill="#BA5E44"/>
<path d="M383.141 915.728C393.071 912.547 455.056 910.133 408.702 822.53C409.624 809.436 396.405 820.143 390.759 808.438C388.539 803.807 384.772 799.152 379.641 798.871C376.82 798.715 374.124 799.935 371.581 801.173C363.25 805.226 355.158 809.753 347.343 814.73C343.161 817.394 339.041 820.2 334.43 822.044C332.16 822.913 320.147 821.459 275.291 825.5C262.023 826.695 245.657 830.679 229.04 834.27C208.322 838.747 195.749 851.977 191.586 872.442C188.142 889.37 186.612 899.075 196.028 918.697C229.682 952.461 276.035 949.245 351.411 923.281C365.751 918.342 380.773 916.486 383.141 915.728Z" fill="#FCA418"/>
<path d="M381.576 722.699C377.023 725.265 359.937 744.953 359.536 748.759C362.33 746.688 412.053 759.723 410.89 757.239C404.383 743.317 401.602 728.545 381.576 722.699Z" fill="#F9AB30"/>
<path d="M382.154 728.828C378.382 730.975 364.236 747.459 363.907 750.648C366.221 748.916 407.451 759.883 406.484 757.801C401.078 746.127 398.76 733.746 382.154 728.828Z" fill="#FFD797"/>
<path d="M298.507 781.074C302.078 777.258 330.546 763.798 334.339 764.31C331.666 766.534 327.261 819.452 325.124 817.734C313.138 808.115 304.603 797.494 298.507 781.074Z" fill="#F9AB30"/>
<path d="M305.927 783.431C308.067 781.144 325.125 773.079 327.398 773.385C325.796 774.718 323.157 806.427 321.876 805.398C314.694 799.634 309.58 793.27 305.927 783.431Z" fill="#FFD797"/>
<path d="M338.889 852.11C344.786 856.519 352.601 858.879 358.941 860.136C369.219 860.735 403.611 858.956 415.892 837.874C414.921 834.235 414.068 831.829 410.395 825.962C382.832 814.407 320.5 804.881 320.632 801.997C320.635 801.979 320.639 801.962 320.642 801.944C320.636 801.962 320.633 801.979 320.632 801.997C317.228 820.61 324.161 841.096 338.889 852.11Z" fill="#F28649"/>
<path d="M362.77 844.488C355.657 844.235 348.647 842.705 342.076 839.97C324.956 832.695 313.089 813.802 317.15 795.123C320.07 781.773 328.069 769.863 338.175 760.652C346.694 752.878 356.931 746.776 368.182 744.258C388.887 739.624 412.543 749.089 422.74 767.72C430.066 781.099 428.127 795.105 423.022 808.72C414.096 832.512 387.611 845.522 362.77 844.488Z" fill="#FABB57"/>
<path d="M400.81 775.673C400.04 775.212 399.243 774.905 398.451 774.765C397.615 774.563 396.785 774.501 395.98 774.581C394.458 774.705 393.094 775.459 392.064 776.744C390.245 779.1 389.856 783.455 391.659 786.954C392.262 788.121 393.439 787.182 392.834 786.009C391.401 783.232 391.844 779.827 393.237 777.958C394.084 776.822 395.334 776.238 396.59 776.022C397.239 775.914 397.907 775.893 398.584 775.957C399.309 776.024 400.033 776.266 400.755 776.36C400.812 776.359 400.865 776.334 400.904 776.288C400.944 776.242 400.969 776.177 400.976 776.103C400.983 776.028 400.971 775.948 400.943 775.873C400.915 775.798 400.871 775.732 400.818 775.684L400.81 775.673Z" fill="#B45622"/>
<path d="M355.444 814.009C355.17 812.993 355.074 811.976 355.16 810.995C355.191 809.951 355.373 808.94 355.704 807.988C356.302 806.18 357.543 804.684 359.266 803.693C362.405 801.957 367.309 802.326 370.608 805.168C371.709 806.118 370.321 807.353 369.214 806.4C366.596 804.142 362.72 804.021 360.245 805.337C358.741 806.138 357.721 807.529 357.103 808.999C356.789 809.759 356.564 810.558 356.43 811.385C356.284 812.27 356.33 813.188 356.215 814.074C356.197 814.143 356.154 814.201 356.091 814.24C356.029 814.278 355.95 814.296 355.866 814.29C355.782 814.284 355.697 814.255 355.623 814.207C355.549 814.158 355.49 814.093 355.453 814.02L355.444 814.009Z" fill="#B45622"/>
<path d="M341.105 843.173C347.676 845.908 354.686 847.438 361.799 847.691C386.64 848.725 412.614 835.328 421.539 811.537C393.581 803.835 331.151 861.268 317.304 794.801C311.507 812.151 323.985 835.898 341.105 843.173Z" fill="#F9AB30"/>
<path d="M414.659 799.173C419.78 804.007 418.55 811.318 412.188 815.639C405.825 819.961 396.406 819.534 391.178 814.584C389.581 813.048 388.372 811.328 387.713 809.654C387.053 807.981 386.973 806.433 387.484 805.216C388.723 803.023 393.485 802.775 396.504 800.79C399.522 798.805 400.721 795.101 403.679 794.59C405.251 794.339 407.177 794.651 409.162 795.479C411.146 796.308 413.077 797.606 414.659 799.173Z" fill="#F5F0F8"/>
<path d="M370.417 831.196C373.29 837.654 382.078 838.699 390.062 833.837C398.046 828.976 402.232 819.69 399.282 813.092C398.353 811.069 397.027 809.368 395.481 808.214C393.935 807.06 392.243 806.508 390.629 806.633C387.562 807.165 384.927 811.718 381.212 814.044C377.498 816.371 372.76 816.401 370.724 819.12C369.665 820.571 369.061 822.54 369.005 824.722C368.95 826.904 369.446 829.179 370.417 831.196Z" fill="#F5F0F8"/>
<path d="M382.096 815.325C375.45 819.205 373.228 793.32 376.09 791.644C380.896 787.417 397.675 794.381 399.899 799.932C400.85 802.304 385.896 813.107 382.096 815.325Z" fill="#FFD797"/>
<path d="M415.059 799.097C421.551 805.18 418.231 819.182 399.827 818.462C400.168 824.023 396.791 829.908 390.462 833.762C380.018 839.024 372.385 837.268 369.826 830.051C380.845 834.685 397.586 831.738 398.782 814.208C408.729 818.228 417.972 806.768 415.059 799.097Z" fill="#DCDBDB"/>
<path d="M400.456 799.256C403.085 802.288 399.412 814.284 398.297 815.635C397.124 816.37 382.479 820.235 379.909 817.248C377.339 814.261 379.779 807.739 385.551 802.712C391.323 797.684 397.886 796.269 400.456 799.256Z" fill="#EE7379"/>
<path d="M396.141 803.295C396.66 803.69 395.982 805.063 394.798 806.142C393.615 807.221 392.273 807.55 391.782 806.998C391.291 806.446 391.883 805.187 393.124 804.152C394.366 803.116 395.65 802.743 396.141 803.295Z" fill="#F5F0F8"/>
<path d="M411.029 794.707C415.176 784.759 421.453 775.778 429.469 768.324C437.503 760.858 456.624 749.951 457.748 751.494C458.348 752.318 437.932 761.339 429.995 768.799C421.95 776.153 415.509 784.95 411.029 794.707Z" fill="white" fill-opacity="0.86"/>
<path d="M410.726 796.704C416.55 787.635 424.301 779.89 433.496 773.953C442.712 768.008 463.447 760.614 464.283 762.329C464.73 763.245 443.051 768.556 433.931 774.512C424.724 780.346 416.844 787.881 410.726 796.704Z" fill="white" fill-opacity="0.86"/>
<path d="M408.717 801.459C415.549 793.122 424.142 786.324 433.962 781.489C443.803 776.647 465.252 771.697 465.885 773.497C466.223 774.459 444.075 777.231 434.329 782.095C424.51 786.826 415.813 793.402 408.717 801.459Z" fill="white" fill-opacity="0.86"/>
<path d="M273.699 905.716C269.584 922.996 268.649 917.928 258.845 935.663C263.355 949.228 205.193 946.415 191.245 925.057C182.514 911.688 186.744 887.31 188.625 879.411C192.741 862.13 217.545 859.298 240.175 864.68C262.805 870.063 277.815 888.435 273.699 905.716Z" fill="#FABB57"/>
<path d="M234.526 938.997C233.565 933.759 253.733 922.058 258.974 921.097L279.638 917.307C284.88 916.346 289.908 919.814 290.869 925.053C291.83 930.291 288.786 932.788 283.119 936.279L279.254 938.485C276.149 940.257 272.88 941.765 269.369 942.435C255.263 945.129 235.375 943.627 234.526 938.997Z" fill="#FABB57"/>
<rect x="404.775" y="874.575" width="43.8818" height="33.6072" rx="16.8036" transform="rotate(-12.1084 404.775 874.575)" fill="#FABB57"/>
<path d="M423.575 886.135C422.637 881.019 426.023 876.111 431.14 875.172L439.674 873.606C444.79 872.668 449.698 876.055 450.637 881.171V881.171C451.575 886.287 448.189 891.195 443.073 892.134L434.538 893.699C429.422 894.638 424.514 891.251 423.575 886.135V886.135Z" fill="#FFD797"/>
<path d="M437.508 887.831C441.571 898.183 434.114 900.434 433.5 902.028C434.055 902.486 436.172 902.692 440.196 899.85C444.22 897.008 440.081 890.653 437.508 887.831Z" fill="#F28649"/>
<path d="M442.917 883.593C449.57 892.233 445.454 895.971 445.651 897.577C446.196 897.876 447.687 897.594 449.288 894.077C450.89 890.559 445.708 885.622 442.917 883.593Z" fill="#F28649"/>
<rect x="369.775" y="895.575" width="43.8818" height="33.6072" rx="16.8036" transform="rotate(-12.1084 369.775 895.575)" fill="#FABB57"/>
<path d="M384.299 908.332C383.114 901.869 387.392 895.669 393.855 894.483L401.618 893.059C408.081 891.874 414.281 896.152 415.466 902.615V902.615C416.652 909.078 412.374 915.278 405.911 916.464L398.148 917.888C391.685 919.073 385.485 914.795 384.299 908.332V908.332Z" fill="#FFD797"/>
<path d="M395.81 911.009C399.874 921.361 392.417 923.612 391.802 925.206C392.358 925.664 394.475 925.87 398.499 923.028C402.523 920.186 398.383 913.831 395.81 911.009Z" fill="#F28649"/>
<path d="M405.03 906.785C412.506 915.018 406.334 919.771 406.326 921.479C407.008 921.71 409.06 921.15 411.813 917.065C414.565 912.979 408.438 908.509 405.03 906.785Z" fill="#F28649"/>
<rect x="243.557" y="924.036" width="50.5749" height="38.7331" rx="19.3666" transform="rotate(-12.1084 243.557 924.036)" fill="#FABB57"/>
<path d="M260.297 938.738C258.931 931.29 263.862 924.144 271.31 922.777L280.257 921.136C287.706 919.77 294.852 924.7 296.218 932.149V932.149C297.584 939.598 292.654 946.744 285.205 948.11L276.258 949.751C268.81 951.118 261.664 946.187 260.297 938.738V938.738Z" fill="#FFD797"/>
<path d="M273.564 941.824C278.247 953.755 269.652 956.349 268.944 958.186C269.585 958.714 272.025 958.951 276.662 955.676C281.3 952.401 276.529 945.076 273.564 941.824Z" fill="#F28649"/>
<path d="M284.19 936.955C292.805 946.444 285.693 951.922 285.683 953.89C286.469 954.156 288.834 953.512 292.007 948.803C295.179 944.094 288.117 938.942 284.19 936.955Z" fill="#F28649"/>
<path d="M135.795 956.985C141.797 915.426 163.722 889.896 186.791 890C186.291 891.5 186.791 899.5 186.291 907C176.307 905.484 156.414 932.308 157.267 956.469C158.605 994.401 218.408 1000.86 245.606 995.928C260.715 993.189 259.887 1016.58 244.914 1020.74C146 1038.5 133.049 976 135.795 956.985Z" fill="#F9A830"/>
<path d="M293.505 886.408C293.486 902.121 297.19 917.691 304.313 931.849C315.581 951.258 330.211 953.37 338.499 953.135C344.226 952.994 361.764 951.981 356.56 944.997C351.357 938.013 342.099 901.619 338.432 892.994C334.765 884.37 320.273 874.578 317.603 874.926C314.933 875.274 293.505 886.408 293.505 886.408Z" fill="#F39A83"/>
<path d="M336.53 954.313C334.637 951.633 315.568 934.205 313.922 928.04C315.266 937.302 330.044 951.068 331.902 953.507L336.53 954.313Z" fill="#BA5E44"/>
<path d="M351.258 952.178C349.365 949.497 330.086 930.622 328.44 924.458C329.784 933.72 345.157 951.585 346.734 952.095C347.576 952.712 351.258 952.178 351.258 952.178Z" fill="#BA5E44"/>
<path d="M319.369 880.365C319.369 880.365 356.382 878.741 358.63 926.567C358.63 926.567 350.403 930.249 339.097 914.592C332.419 905.889 326.51 896.658 321.423 886.981C320.311 884.941 319.615 882.7 319.369 880.365V880.365Z" fill="#F39A83"/>
<path d="M326.371 880.922C316.163 878.949 307.93 879.324 295.584 886.912C211.223 774.088 202.408 729.247 202.276 727.094C202.36 725.557 202.815 724.063 203.603 722.735C211.134 707.979 274.229 707.458 275.366 736.398C276.503 765.337 326.371 880.922 326.371 880.922Z" fill="#F39A83"/>
<path d="M361.078 830.678C349.487 827.841 337.358 827.53 325.449 829.765C313.517 832.009 291.234 841.848 291.871 843.857C292.211 844.931 313.664 832.705 325.527 830.544C337.366 828.217 349.438 828.262 361.078 830.678Z" fill="white" fill-opacity="0.86"/>
<path d="M363.056 831.717C351.147 830.945 339.152 832.755 327.82 837.033C316.466 841.324 296.255 854.899 297.234 856.767C297.757 857.764 316.732 841.984 328.032 837.786C339.281 833.43 351.173 831.369 363.056 831.717Z" fill="white" fill-opacity="0.86"/>
<path d="M368.614 833.049C356.696 833.654 344.992 836.833 334.232 842.387C323.451 847.957 304.947 863.769 306.136 865.511C306.771 866.442 323.792 848.582 334.53 843.111C345.198 837.488 356.772 834.072 368.614 833.049Z" fill="white" fill-opacity="0.86"/>
</svg>
