<svg width="912" height="912" viewBox="0 0 912 912" fill="none" xmlns="http://www.w3.org/2000/svg">
<path d="M384.616 700.198C385.149 699.712 385.755 699.202 386.409 698.667C385.852 699.202 385.149 699.712 384.616 700.198Z" fill="#F39A83"/>
<path d="M387.112 698.109L388.615 696.943L387.112 698.109Z" fill="#F39A83"/>
<path d="M392.202 694.392L394.117 693.056L392.202 694.392Z" fill="#F39A83"/>
<path d="M379.213 712.368C379.482 715.635 380.423 718.811 381.976 721.696V721.696C380.423 718.811 379.482 715.635 379.213 712.368V712.368Z" fill="#F39A83"/>
<path d="M389.486 696.311L391.183 695.097L389.486 696.311Z" fill="#F39A83"/>
<path d="M396.466 678.09L397.629 677.534L396.466 678.09Z" fill="#50A2D3"/>
<path d="M394.429 679.04L396.174 678.238L394.429 679.04Z" fill="#50A2D3"/>
<path d="M470.277 641.801L468.581 642.627L471.368 646.052C470.792 644.699 470.425 643.265 470.277 641.801V641.801Z" fill="#50A2D3"/>
<path d="M393.121 687.323C392.844 686.045 392.69 684.744 392.661 683.437C392.69 684.744 392.844 686.045 393.121 687.323V687.323Z" fill="#50A2D3"/>
<path d="M495.627 659.558C489.085 658.708 482.76 657.493 477.816 653.971L495.991 676.271C495.7 671.048 495.579 665.291 495.627 659.558Z" fill="#50A2D3"/>
<path d="M556.546 681.834C561.239 677.418 566.253 673.358 571.546 669.688C566.7 668.716 561.975 667.55 557.152 666.651L556.546 681.834Z" fill="#50A2D3"/>
<path d="M581.653 434.036L585.434 434.423C584.198 434.278 582.938 434.133 581.653 434.036Z" fill="#F39A83"/>
<path d="M577.604 433.769L580.682 433.962L577.604 433.769Z" fill="#F39A83"/>
<path d="M545.449 444.384C547.696 445.62 550.169 446.388 552.719 446.643C557.202 447.08 565.732 446.011 569.076 442.999C571.33 441.007 572.226 436.343 572.59 433.55L576.564 433.696L571.281 433.526V437.388C571.281 437.388 554.609 444.433 545.449 444.384Z" fill="#F39A83"/>
<path d="M587.758 434.764L586.134 434.546L587.758 434.788V434.764Z" fill="#F39A83"/>
<path d="M538.71 437.631C538.492 436.368 538.298 434.886 538.129 433.283H537.45C537.595 434.799 538.022 436.274 538.71 437.631V437.631Z" fill="#F39A83"/>
<path d="M545.448 444.384C554.608 444.384 571.28 437.388 571.28 437.388V433.526L571.086 408.069L571.28 435.615C571.28 435.615 571.28 435.615 571.28 435.469C567.757 429.32 562.597 424.273 556.377 420.895C550.469 418.066 543.832 417.141 537.379 418.247C537.379 415.307 537.379 412.417 537.548 409.575H537.257C537.122 417.514 537.446 425.454 538.227 433.356C538.396 434.959 538.59 436.441 538.808 437.704C540.282 440.564 542.601 442.897 545.448 444.384Z" fill="#F39A83"/>
<path d="M539.318 410.303C538.663 410.109 538.082 409.817 537.452 409.599C537.452 412.441 537.306 415.332 537.282 418.271C543.736 417.165 550.373 418.09 556.281 420.919C562.501 424.298 567.661 429.344 571.184 435.494C571.184 435.494 571.184 435.494 571.184 435.639L570.99 408.093C561.079 412.773 549.78 413.562 539.318 410.303Z" fill="#D48873"/>
<path d="M638.429 658.683C638.527 657.763 638.527 656.835 638.429 655.914C638.38 656.685 638.259 657.45 638.065 658.197C638.259 658.343 638.332 658.513 638.429 658.683Z" fill="white"/>
<path d="M477.937 653.972C482.784 657.494 489.205 658.708 495.748 659.559V657.785C490.55 654.37 485.942 650.128 482.105 645.227C477.902 639.663 474.576 633.486 472.243 626.911C471.71 632.231 469.819 636.943 470.401 641.802C470.548 643.266 470.916 644.699 471.491 646.053L477.937 653.972Z" fill="white"/>
<path d="M571.546 669.59L572.03 669.275C571.615 669.096 571.236 668.841 570.916 668.522C568.492 666.092 572.757 660.311 574.235 657.25L578.016 649.355C574.529 654.961 569.541 659.473 563.622 662.376C561.539 663.312 559.403 664.124 557.224 664.805V666.53C561.974 667.453 566.748 668.619 571.546 669.59Z" fill="white"/>
<path d="M614.56 489.202C616.644 506.206 612.137 526.003 608.187 539.485C606.176 546.287 603.682 552.935 600.724 559.38C600.36 560.157 599.827 561.105 599.27 562.101C603.649 563.8 607.278 567.014 609.5 571.162C611.722 575.31 612.391 580.117 611.386 584.716C609.69 593.995 598.373 605.971 592.363 603.979C591.103 610.975 589.625 617.85 588.002 624.505C586.95 628.829 585.647 633.087 584.1 637.258H636.2C636.2 636.262 636.055 635.267 636.055 634.271C636.055 629.194 636.539 624.384 636.055 619.186C635.449 611.679 634.867 604.198 634.189 596.716C631.959 572.586 629.019 548.522 625.368 524.522C623.842 514.392 622.218 504.287 620.352 494.206C618.486 492.481 616.475 490.805 614.56 489.202Z" fill="white"/>
<path d="M505.318 455.947C504.543 457.963 503.743 459.955 502.895 461.971C514.647 456.514 527.867 455.097 540.504 457.939C546.296 459.396 551.651 462.238 557.467 463.55C563.818 464.965 570.444 464.466 576.514 462.117C580.924 460.417 585.141 457.696 589.866 457.623C592.09 457.628 594.285 458.134 596.288 459.105C596.069 458.546 595.827 457.963 595.609 457.38C592.782 449.915 590.141 442.384 587.685 434.789L586.061 434.546H585.359L581.578 434.157H580.609L577.532 433.963H576.465L572.491 433.817C572.128 436.611 571.231 441.275 568.977 443.267C565.633 446.279 557.103 447.348 552.62 446.91C550.07 446.655 547.598 445.887 545.351 444.651C542.457 443.161 540.101 440.799 538.614 437.898C537.932 436.467 537.537 434.915 537.451 433.332V433.332C528.679 433.477 520.973 433.064 513.073 433.987C510.649 441.356 508.065 448.676 505.318 455.947Z" fill="white"/>
<path d="M639.495 501.64C645.78 507.146 652.348 512.319 659.172 517.137C669.641 523.769 677.686 531.712 689.051 524.765L690.214 524.012C692.623 522.313 694.855 520.377 696.878 518.231C688.954 516.919 682.702 522.19 676.741 510.943C673.713 505.213 671.463 499.102 670.052 492.773C673.518 489.664 677.104 486.36 680.763 483.057C674.608 478.49 668.413 474.214 662.177 470.231C656.83 482.14 649.112 492.829 639.495 501.64V501.64Z" fill="#F39A83"/>
<path d="M698.792 515.922C698.235 516.603 697.678 517.258 697.096 517.914C697.678 517.356 698.259 516.7 698.792 515.922Z" fill="#F39A83"/>
<path d="M595.682 457.38C595.9 457.963 596.143 458.546 596.361 459.104C597.788 459.775 599.144 460.589 600.408 461.533C609.156 468.044 613.227 478.027 614.559 489.129C616.474 490.853 618.437 492.529 620.448 494.133C625.294 498.019 630.311 501.663 635.448 505.185C636.829 504.068 638.186 502.756 639.495 501.687C649.13 492.827 656.85 482.079 662.177 470.108C662.467 469.453 662.782 468.821 663.049 468.189C643.663 456.214 624.592 445.744 619.672 443.655C609.452 439.188 598.689 436.093 587.661 434.448C587.661 434.448 587.661 434.643 587.661 434.716C590.181 442.376 592.855 449.93 595.682 457.38Z" fill="white"/>
<path d="M748.034 398.91C749.706 396.967 754.286 392.934 758.89 388.708C760.732 382.513 758.236 380.23 758.236 380.23C736.572 392.376 742.533 409.623 743.817 412.659C743.843 412.586 743.885 412.52 743.938 412.465C744.035 408.675 745.32 402.019 748.034 398.91Z" fill="#F39A83"/>
<path d="M748.034 398.911C745.32 402.02 744.035 408.627 743.938 412.465C745.974 409.234 747.767 406.149 749.221 403.234C763.155 374.959 765.53 410.935 765.53 410.935C763.106 415.963 760.853 420.846 758.502 425.68C762.137 423.931 772.581 418.392 778.494 409.404C785.764 398.352 782.662 389.534 780.19 384.846C778.494 381.639 772.921 371.801 770.716 376.392C769.504 378.821 764.173 383.898 758.89 388.708C754.189 392.935 749.706 396.894 748.034 398.911Z" fill="#F39A83"/>
<path d="M676.644 511.065C682.605 522.287 688.76 517.016 696.781 518.352L696.975 518.109C697.556 517.453 698.114 516.797 698.671 516.117C722.675 488.948 742.773 458.549 758.38 425.802C760.804 420.943 763.057 416.085 765.408 411.057C765.408 411.057 762.985 375.081 749.099 403.356C747.645 406.271 745.852 409.356 743.817 412.587C743.763 412.642 743.721 412.708 743.695 412.781C730.028 434.085 704.124 461.146 680.691 483.227C677.031 486.627 673.421 489.931 669.956 492.943C671.378 499.253 673.627 505.346 676.644 511.065V511.065Z" fill="#F39A83"/>
<path d="M444.568 465.104C436.45 469.963 428.284 475.574 420.336 481.55C423.995 484.951 427.605 488.254 431.046 491.388C429.633 497.708 427.384 503.811 424.358 509.534C418.397 520.756 413.55 516.821 405.626 518.23C404.076 516.457 402.597 514.708 401.119 512.983C403.786 516.708 407.063 519.952 410.812 522.578L411.975 523.331C423.34 530.351 431.361 522.335 441.854 515.728C448.32 511.195 454.548 506.33 460.513 501.153L461.192 499.939C458.309 487.231 452.63 475.329 444.568 465.104V465.104Z" fill="#F39A83"/>
<path d="M502.969 461.971C503.744 459.955 504.544 457.963 505.392 455.947C508.155 448.676 510.731 441.34 513.122 433.939L513.413 433.089C502.358 434.703 491.568 437.791 481.329 442.271C476.846 444.166 460.755 452.935 443.356 463.477C443.793 464.012 444.156 464.57 444.568 465.105C452.608 475.303 458.278 487.17 461.167 499.842C470.671 483.037 485.332 469.755 502.969 461.971V461.971Z" fill="white"/>
<path d="M352.967 397.478C355.681 400.587 356.966 407.194 357.063 411.032C357.112 411.091 357.152 411.157 357.184 411.227C358.468 408.214 364.454 391.089 342.644 378.797C342.644 378.797 340.221 381.081 341.99 387.275C346.715 391.502 351.271 395.534 352.967 397.478Z" fill="#F39A83"/>
<path d="M351.781 401.752C353.381 404.919 355.144 408 357.064 410.983C357.064 407.193 355.683 400.538 352.969 397.428C351.273 395.485 346.717 391.453 342.113 387.226C336.83 382.465 331.499 377.461 330.287 375.031C328.033 370.44 322.508 380.278 320.812 383.485C318.389 388.197 315.263 396.991 322.508 408.044C328.445 417.104 338.962 422.619 342.549 424.343C340.126 419.485 337.702 414.627 335.473 409.574C335.473 409.501 337.823 373.525 351.781 401.752Z" fill="#F39A83"/>
<path d="M424.262 509.535C427.29 503.804 429.539 497.693 430.95 491.365C427.485 488.255 423.899 484.952 420.239 481.648C396.758 459.786 370.853 432.628 357.235 411.324C357.203 411.254 357.162 411.189 357.113 411.13C355.173 408.101 353.393 404.971 351.782 401.753C337.824 373.478 335.474 409.454 335.474 409.454C337.897 414.458 340.151 419.365 342.55 424.223C358.077 456.235 377.736 486.062 401.023 512.935C402.501 514.66 403.979 516.409 405.53 518.182C413.454 516.895 418.301 520.782 424.262 509.535Z" fill="#F39A83"/>
<path d="M539.318 410.303C549.805 413.573 561.134 412.776 571.063 408.069V408.069C573.353 406.982 575.535 405.68 577.581 404.182C584.537 398.744 590.533 392.175 595.319 384.749C599.415 378.773 600.747 370.975 603.147 364.101C602.6 363.559 602.228 362.865 602.08 362.109C601.014 357.396 602.08 352.392 605.255 344.303C605.897 342.648 606.4 340.942 606.757 339.202C606.077 338.037 605.632 336.75 605.449 335.413C604.14 328.295 602.613 321.008 601.959 313.793C601.014 303.518 597.985 298.101 585.99 297.494C579.302 297.129 572.71 299 566.192 300.554C559.673 302.109 552.815 303.372 546.297 301.817C539.027 300.069 532.193 294.87 524.754 296.012C510.99 298.149 511.838 311.145 510.626 322.004L509.609 331.307C509.415 333.178 509.39 335.17 509.245 336.967L509.027 336.627C509.027 337.356 509.027 338.133 509.245 339.056C510.408 347.631 510.239 352.781 508.058 357.105C507.772 357.692 507.347 358.2 506.822 358.587C508.328 367.497 510.631 376.253 513.704 384.749V385.04C515.516 390.636 518.551 395.755 522.589 400.025C526.626 404.294 531.563 407.607 537.04 409.72H537.331C538.082 409.818 538.663 410.109 539.318 410.303ZM574.455 349.04C573.523 348.99 572.648 348.575 572.018 347.884C571.388 347.194 571.054 346.283 571.087 345.348C571.108 344.876 571.224 344.414 571.427 343.988C571.63 343.563 571.916 343.182 572.269 342.869C572.621 342.557 573.033 342.318 573.479 342.168C573.926 342.018 574.398 341.959 574.867 341.996C575.328 342.014 575.78 342.124 576.198 342.319C576.616 342.514 576.991 342.79 577.302 343.131C577.613 343.472 577.853 343.871 578.009 344.306C578.165 344.741 578.234 345.202 578.211 345.664C578.193 346.135 578.08 346.598 577.88 347.025C577.68 347.452 577.396 347.834 577.046 348.149C576.696 348.464 576.286 348.705 575.841 348.858C575.396 349.011 574.924 349.073 574.455 349.04V349.04ZM570.578 327.591C576.96 327.602 583.139 329.844 588.05 333.931C588.239 334.092 588.395 334.289 588.509 334.51C588.622 334.732 588.691 334.973 588.711 335.222C588.731 335.47 588.703 335.719 588.627 335.956C588.55 336.194 588.429 336.413 588.268 336.603C588.093 336.82 587.872 336.995 587.62 337.113C587.368 337.23 587.092 337.289 586.814 337.283C586.366 337.288 585.933 337.124 585.602 336.822C581.424 333.255 576.114 331.299 570.626 331.307C570.159 331.254 569.727 331.031 569.414 330.679C569.1 330.327 568.927 329.872 568.927 329.4C568.927 328.929 569.1 328.474 569.414 328.122C569.727 327.77 570.159 327.547 570.626 327.494L570.578 327.591ZM547.484 361.89C547.575 361.299 547.704 360.715 547.872 360.141C548.163 359.073 548.55 358.028 548.914 357.032C549.762 355.016 550.659 353.17 551.555 351.324C552.476 349.438 553.285 347.499 553.978 345.518C554.681 347.678 554.765 349.992 554.221 352.198C553.757 354.319 553.1 356.392 552.258 358.392C551.846 359.34 551.483 360.287 551.119 361.235C550.75 361.912 550.511 362.654 550.416 363.421C550.547 364.303 550.897 365.139 551.434 365.85C552.008 366.748 552.64 367.608 553.324 368.425C552.197 368.204 551.126 367.758 550.174 367.113C549.077 366.446 548.227 365.44 547.751 364.247C547.445 363.501 547.352 362.685 547.484 361.89V361.89ZM526.208 334.538C525.805 334.54 525.411 334.413 525.085 334.175C524.759 333.937 524.518 333.601 524.396 333.216C524.274 332.831 524.279 332.416 524.408 332.034C524.538 331.651 524.787 331.32 525.117 331.089C530.379 327.467 536.746 325.824 543.098 326.449C543.599 326.501 544.06 326.75 544.378 327.141C544.696 327.533 544.846 328.036 544.794 328.538C544.743 329.041 544.494 329.502 544.104 329.821C543.713 330.14 543.212 330.29 542.71 330.239C537.256 329.715 531.793 331.153 527.298 334.295C526.971 334.492 526.588 334.577 526.208 334.538V334.538ZM533.066 343.647C533.095 342.951 533.331 342.278 533.742 341.716C534.153 341.153 534.721 340.726 535.375 340.487C536.029 340.249 536.738 340.21 537.414 340.376C538.09 340.543 538.701 340.906 539.17 341.421C539.639 341.936 539.946 342.579 540.05 343.268C540.155 343.958 540.053 344.663 539.757 345.294C539.461 345.925 538.986 346.454 538.39 346.814C537.794 347.174 537.105 347.349 536.41 347.315C535.949 347.297 535.497 347.187 535.079 346.992C534.661 346.797 534.286 346.521 533.975 346.18C533.664 345.839 533.424 345.44 533.268 345.005C533.112 344.57 533.043 344.109 533.066 343.647ZM535.053 377.656L570.311 379.235C569.003 386.692 561.224 392.206 552.088 391.793C542.953 391.38 535.683 385.235 535.053 377.704V377.656Z" fill="#F39A83"/>
<path d="M606.757 339.3C606.4 341.039 605.897 342.746 605.255 344.401C602.056 352.441 601.014 357.494 602.08 362.206C602.228 362.963 602.6 363.657 603.147 364.198C606.927 367.842 618.268 360.045 621.079 352.927C622.611 349.415 622.749 345.45 621.466 341.839C620.183 338.228 617.574 335.244 614.172 333.494C611.798 338.061 608.793 342.19 606.757 339.3ZM610.95 340.538C612.929 341.467 614.461 343.143 615.21 345.201C615.959 347.259 615.865 349.53 614.948 351.518C614.3 353.372 613.03 354.942 611.354 355.961C609.679 356.98 607.703 357.385 605.764 357.105C606.22 355.694 606.6 354.258 606.903 352.806C607.63 349.332 607.315 343.089 610.416 340.66C610.416 340.66 610.416 340.66 610.562 340.49L610.95 340.538Z" fill="#F39A83"/>
<path d="M606.901 352.805C606.598 354.258 606.218 355.693 605.762 357.105C607.701 357.384 609.677 356.98 611.352 355.961C613.028 354.942 614.298 353.371 614.946 351.518C615.863 349.529 615.957 347.258 615.208 345.2C614.459 343.143 612.927 341.466 610.948 340.538H610.56C610.56 340.538 610.56 340.659 610.414 340.708C607.313 343.016 607.628 349.331 606.901 352.805Z" fill="#F39A83"/>
<path d="M508.059 356.886C510.24 352.562 510.482 347.413 509.246 338.838C509.246 338.036 509.076 337.259 509.028 336.408C506.973 333.046 505.345 329.439 504.181 325.672H503.915C501.975 326.02 500.122 326.749 498.463 327.815C496.804 328.882 495.371 330.265 494.246 331.887C493.121 333.509 492.325 335.338 491.906 337.268C491.486 339.198 491.449 341.193 491.799 343.137C492.865 350.886 502.364 361.429 506.799 358.222C507.316 357.88 507.747 357.423 508.059 356.886V356.886ZM505.635 351.056C503.704 350.843 501.904 349.972 500.536 348.588C499.169 347.204 498.317 345.391 498.123 343.453C497.709 341.306 498.155 339.081 499.367 337.262C500.578 335.443 502.456 334.176 504.593 333.736C504.73 333.725 504.868 333.725 505.005 333.736C505.01 333.801 505.01 333.866 505.005 333.931C507.429 337.016 505.611 343.064 505.49 346.611C505.478 348.096 505.551 349.58 505.708 351.056H505.635Z" fill="#F39A83"/>
<path d="M505.15 333.907C505.155 333.842 505.155 333.777 505.15 333.712C504.964 333.699 504.777 333.707 504.593 333.737C502.451 334.171 500.567 335.435 499.351 337.255C498.135 339.075 497.684 341.303 498.098 343.453C498.29 345.407 499.15 347.234 500.532 348.624C501.915 350.015 503.735 350.883 505.683 351.081C505.598 349.592 505.598 348.1 505.683 346.611C505.756 343.04 507.573 336.992 505.15 333.907Z" fill="#F39A83"/>
<path d="M552.088 391.842C561.223 392.254 569.051 386.74 570.311 379.283L535.052 377.704C535.682 385.234 542.952 391.429 552.088 391.842Z" fill="white"/>
<path d="M574.868 341.996C574.407 341.973 573.945 342.041 573.51 342.198C573.075 342.354 572.675 342.595 572.333 342.906C571.991 343.217 571.713 343.593 571.516 344.012C571.319 344.431 571.207 344.885 571.185 345.348C571.152 346.283 571.486 347.194 572.116 347.884C572.746 348.575 573.621 348.99 574.553 349.04C575.015 349.06 575.476 348.988 575.909 348.829C576.343 348.67 576.741 348.426 577.081 348.113C577.421 347.799 577.696 347.421 577.89 347.001C578.084 346.581 578.194 346.126 578.212 345.664C578.235 345.202 578.166 344.741 578.01 344.306C577.854 343.872 577.614 343.472 577.303 343.131C576.992 342.79 576.617 342.514 576.199 342.319C575.781 342.124 575.329 342.014 574.868 341.996V341.996Z" fill="#27090B"/>
<path d="M540.094 343.963C540.115 343.501 540.044 343.039 539.887 342.604C539.729 342.168 539.488 341.768 539.176 341.427C538.865 341.085 538.489 340.808 538.07 340.612C537.652 340.416 537.199 340.304 536.738 340.283C536.276 340.263 535.815 340.333 535.381 340.491C534.947 340.649 534.548 340.891 534.207 341.203C533.866 341.516 533.59 341.892 533.394 342.312C533.199 342.731 533.087 343.185 533.067 343.648C533.025 344.582 533.355 345.494 533.984 346.185C534.614 346.875 535.491 347.286 536.423 347.328C537.355 347.37 538.265 347.039 538.953 346.408C539.642 345.777 540.052 344.898 540.094 343.963V343.963Z" fill="#27090B"/>
<path d="M542.71 330.141C542.977 330.226 543.26 330.25 543.537 330.212C543.815 330.174 544.081 330.074 544.315 329.92C544.55 329.766 544.747 329.562 544.893 329.322C545.039 329.082 545.13 328.813 545.16 328.533C545.189 328.254 545.156 327.971 545.063 327.706C544.97 327.441 544.819 327.2 544.622 327.001C544.425 326.801 544.185 326.648 543.922 326.553C543.658 326.457 543.376 326.422 543.097 326.449C536.734 325.853 530.365 327.53 525.117 331.186C524.786 331.417 524.538 331.748 524.408 332.131C524.278 332.513 524.274 332.928 524.395 333.313C524.517 333.698 524.759 334.034 525.085 334.272C525.411 334.51 525.804 334.637 526.207 334.635C526.598 334.646 526.982 334.526 527.298 334.295C531.779 331.119 537.243 329.646 542.71 330.141V330.141Z" fill="#522200"/>
<path d="M570.625 331.307C576.1 331.272 581.409 333.192 585.601 336.724C585.932 337.026 586.365 337.191 586.812 337.186C587.09 337.191 587.366 337.133 587.618 337.015C587.87 336.897 588.092 336.723 588.266 336.506C588.427 336.316 588.549 336.096 588.625 335.859C588.701 335.622 588.73 335.372 588.71 335.124C588.689 334.876 588.62 334.634 588.507 334.413C588.393 334.191 588.237 333.995 588.048 333.833C583.137 329.747 576.959 327.505 570.576 327.493C570.109 327.546 569.677 327.77 569.364 328.122C569.05 328.474 568.877 328.929 568.877 329.4C568.877 329.872 569.05 330.327 569.364 330.679C569.677 331.03 570.109 331.254 570.576 331.307H570.625Z" fill="#522200"/>
<path d="M550.197 367.016C551.149 367.66 552.22 368.106 553.347 368.327C552.663 367.511 552.032 366.65 551.457 365.752C550.92 365.041 550.57 364.206 550.439 363.323C550.535 362.557 550.773 361.815 551.142 361.137C551.506 360.19 551.869 359.242 552.281 358.295C553.123 356.295 553.78 354.221 554.244 352.101C554.788 349.895 554.704 347.581 554.002 345.42C553.308 347.402 552.499 349.34 551.578 351.226C550.682 353.072 549.785 354.918 548.937 356.935C548.574 357.931 548.186 358.975 547.895 360.044C547.727 360.618 547.598 361.202 547.507 361.793C547.378 362.552 547.453 363.332 547.725 364.052C548.196 365.289 549.066 366.332 550.197 367.016Z" fill="#DE7778"/>
<path d="M352.944 793.817C350.715 797.606 348.607 801.469 346.499 805.307C355.755 790.173 365.521 775.234 375.02 760.198C367.072 771.004 359.703 782.226 352.944 793.817V793.817Z" fill="#F39A83"/>
<path d="M405.255 806.158C399.512 785.704 393.26 763.308 387.686 743C386.838 744.215 386.087 745.429 385.408 746.498C380.5 751 370.86 763.204 367.5 768.5C358.001 783.536 354.136 791.024 345 806.158L315 855.138C322 857.638 353 867.138 375.5 873.638C378.578 869.921 397.282 846.385 400.166 842.498C397.597 836.134 394.253 822.069 405.255 806.158Z" fill="#C03037"/>
<path d="M504.593 700.319L503.672 701.048C506.128 702.369 508.731 703.396 511.426 704.108C509.053 703.026 506.768 701.759 504.593 700.319V700.319Z" fill="#F39A83"/>
<path d="M636.006 725.339C636.426 722.149 636.287 718.91 635.594 715.768C634.603 718.104 633.453 720.368 632.153 722.546C633.485 723.409 634.771 724.341 636.006 725.339V725.339Z" fill="#C03037"/>
<path d="M625.344 886.295C608.575 845.704 594.132 803.704 592.92 761.242C592.92 760.247 592.92 759.226 592.92 758.157C585.65 763.016 578.163 767.607 571.499 772.319C568.566 774.408 564.835 776.546 561.612 774.991C560.934 774.634 560.326 774.157 559.818 773.583C559.164 774.433 558.51 775.259 557.807 776.012C553.605 780.882 548.482 784.87 542.734 787.744C542.371 791.291 541.911 794.789 541.377 798.287C561.757 814.975 558.001 834.02 556.402 839.315C577.951 857.471 600.709 874.133 624.52 889.186L626.046 888.603V887.558C625.756 887.194 625.513 886.732 625.344 886.295Z" fill="#C03037"/>
<path d="M527.927 859.963C524.947 872.74 521.748 887.145 518.525 903.955C525.795 904.635 531.5 905.5 540 906.5C550 907.676 567 910 577.5 910C561.952 896.961 540.917 875.563 527.927 859.963Z" fill="#C03037"/>
<path d="M491.868 797.146C492.376 796.004 493.152 794.328 494.097 792.482C494.097 785.194 494.097 777.737 494.097 770.449C493.772 763.585 495.26 756.756 498.41 750.652C499.042 749.524 499.755 748.445 500.543 747.421C499.38 748.393 498.12 749.364 497.126 750.409C498.071 744.263 498.992 735.688 502.409 730.393C505.826 725.097 512.635 720.822 517.36 716.692C521.068 713.462 524.897 710.279 528.701 706.976C522.667 707.597 516.576 706.59 511.06 704.061C508.364 703.348 505.762 702.321 503.305 701C481.198 718.769 458.056 735.203 434 750.215C434.969 760.32 435.89 771.502 436.763 783.761C437.897 782.247 438.871 780.619 439.67 778.903C442.772 771.032 452.877 785 456.003 789.591C460.583 796.32 466.666 809.34 456.342 828.725C452.101 836.257 446.638 843.03 440.179 848.765C440.325 852.385 440.47 856.053 440.591 859.793C440.591 860.862 440.591 861.834 440.591 862.757C441.519 862.263 442.41 861.703 443.257 861.081C445.631 867.645 447.257 874.458 448.103 881.389C448.317 882.925 447.781 888.501 447.68 890.049C459.68 893.049 478.523 897.173 494.315 900.385C494.315 887.267 494.315 860.352 494.315 829.283C485.858 815.049 488.984 803.656 491.868 797.146Z" fill="#C03037"/>
<path d="M538.058 699.348C544.044 694.028 550.174 687.761 556.548 681.834L557.153 666.554V664.83C555.893 665.218 554.73 665.583 553.3 665.923C550.945 666.925 548.514 667.737 546.031 668.352C538.049 670.489 529.696 670.836 521.566 669.366C513.436 667.896 505.729 664.647 498.995 659.85C497.808 659.17 496.572 658.465 495.53 657.712V659.486C495.53 665.218 495.53 670.976 495.893 676.198L504.52 700.247C506.696 701.687 508.981 702.954 511.354 704.036C516.87 706.566 522.961 707.572 528.995 706.951C532.097 704.498 535.126 701.947 538.058 699.348Z" fill="#E6927C"/>
<path d="M611.387 584.594C612.392 579.996 611.723 575.188 609.501 571.04C607.279 566.893 603.65 563.679 599.271 561.979C598.325 563.607 597.259 565.428 596.363 567.275C596.363 568.756 596.363 570.238 596.193 571.72C598.729 572.579 600.855 574.353 602.158 576.697C603.462 579.04 603.849 581.786 603.245 584.4C602.89 586.727 601.803 588.88 600.142 590.545C598.481 592.21 596.334 593.299 594.012 593.655C593.527 597.08 592.97 600.457 592.364 603.809C598.374 605.801 609.691 593.874 611.387 584.594Z" fill="#F39A83"/>
<path d="M603.243 584.4C603.827 581.797 603.43 579.069 602.129 576.741C600.827 574.414 598.712 572.651 596.192 571.793C595.804 579.08 595.077 586.513 594.011 593.776C596.35 593.414 598.51 592.306 600.173 590.618C601.836 588.929 602.912 586.749 603.243 584.4V584.4Z" fill="#EE7379"/>
<path d="M462.086 589.866C462.074 589.971 462.074 590.077 462.086 590.181C462.401 592.1 462.838 593.971 463.322 595.817C460.798 596.066 458.267 595.43 456.159 594.017C454.051 592.604 452.497 590.501 451.763 588.068C450.696 585.442 450.709 582.499 451.798 579.882C452.888 577.265 454.966 575.187 457.579 574.1C457.748 574.089 457.918 574.089 458.088 574.1C458.088 574.1 458.088 574.271 458.282 574.343C458.375 574.429 458.457 574.527 458.524 574.635C458.524 574.392 458.524 574.125 458.524 573.858C458.536 573.631 458.536 573.404 458.524 573.177C458.015 570.335 457.555 567.493 457.119 564.627C457.119 564.36 457.119 564.092 456.949 563.825C456.189 563.961 455.443 564.164 454.72 564.432C445.027 567.76 440.18 579.007 443.912 589.623C447.062 598.781 460.875 609.275 466.109 605.509L464.364 598.028C463.395 595.234 462.765 592.562 462.086 589.866Z" fill="#F39A83"/>
<path d="M458.114 573.979C457.945 573.968 457.775 573.968 457.605 573.979C454.992 575.066 452.914 577.144 451.825 579.761C450.735 582.378 450.722 585.321 451.789 587.947C452.502 590.412 454.053 592.548 456.173 593.986C458.294 595.424 460.849 596.072 463.397 595.817C462.912 593.971 462.476 592.101 462.161 590.182C462.149 590.077 462.149 589.971 462.161 589.866C461.822 588.53 461.507 587.218 461.192 585.882C460.001 582.172 459.117 578.369 458.55 574.513C458.483 574.406 458.401 574.308 458.308 574.222C458.308 574.222 458.187 574.052 458.114 573.979Z" fill="#EE7379"/>
<path d="M580.004 524.789C570.311 504.773 540.626 504.044 521.676 505.356C510.36 506.109 498.825 507.906 488.817 513.226C465.723 525.542 466.765 553.696 464.948 577.04C465.481 578.959 465.893 580.902 466.377 582.773C470.158 596.959 481.087 612.506 497.468 611.34C507.67 610.587 516.854 605.145 527.153 604.66C529.446 604.586 531.741 604.716 534.011 605.048L534.762 604.125C535.594 603.201 536.2 602.094 536.531 600.894C536.521 599.752 536.265 598.625 535.78 597.591L534.374 593.534C533.328 590.74 532.518 587.864 531.951 584.935C531.311 581.897 531.452 578.745 532.363 575.777C533.028 578.613 533.92 581.391 535.029 584.085C536.071 586.732 537.258 589.356 538.227 592.174C538.746 593.603 539.175 595.063 539.512 596.546C539.709 597.346 539.855 598.157 539.948 598.975C540.087 599.97 539.961 600.984 539.584 601.915C538.898 603.406 537.773 604.652 536.361 605.485C551.192 608.158 567.646 616.125 580.441 606.433C590.691 598.684 592.339 583.307 592.557 571.453C592.735 564.575 592.451 557.693 591.709 550.854C590.618 547.259 589.285 543.882 588.922 542.716C586.693 536.255 582.936 530.813 580.004 524.789ZM507.016 579.324C506.057 579.324 505.12 579.039 504.323 578.505C503.526 577.971 502.905 577.212 502.538 576.324C502.171 575.437 502.075 574.46 502.262 573.517C502.449 572.575 502.911 571.709 503.589 571.03C504.266 570.35 505.13 569.888 506.07 569.7C507.01 569.513 507.985 569.609 508.87 569.977C509.756 570.344 510.513 570.967 511.045 571.766C511.578 572.565 511.862 573.504 511.862 574.465C511.862 575.754 511.352 576.989 510.443 577.901C509.534 578.812 508.301 579.324 507.016 579.324ZM513.34 556.465C506.079 556.112 498.927 558.35 493.155 562.781C492.462 563.322 491.609 563.613 490.731 563.607C489.907 563.601 489.106 563.338 488.437 562.854C487.769 562.371 487.267 561.692 487.001 560.91C486.735 560.128 486.717 559.283 486.952 558.491C487.186 557.699 487.66 557 488.308 556.489C495.593 550.906 504.617 548.091 513.777 548.546C514.295 548.575 514.803 548.706 515.271 548.931C515.74 549.157 516.159 549.473 516.506 549.86C516.852 550.248 517.119 550.701 517.291 551.192C517.463 551.684 517.537 552.204 517.508 552.724C517.48 553.244 517.349 553.754 517.124 554.223C516.899 554.692 516.584 555.113 516.197 555.46C515.81 555.807 515.359 556.075 514.869 556.247C514.378 556.42 513.859 556.494 513.34 556.465ZM551.798 548.546C560.964 548.098 569.993 550.912 577.29 556.489C578.043 557.16 578.515 558.091 578.609 559.096C578.703 560.101 578.413 561.105 577.797 561.904C577.182 562.703 576.287 563.237 575.293 563.4C574.299 563.563 573.281 563.342 572.444 562.781C566.666 558.361 559.518 556.125 552.258 556.465C551.739 556.492 551.22 556.417 550.731 556.243C550.241 556.069 549.791 555.8 549.405 555.451C549.019 555.103 548.705 554.682 548.482 554.212C548.258 553.742 548.129 553.232 548.102 552.712C548.075 552.192 548.15 551.672 548.324 551.181C548.497 550.69 548.766 550.239 549.113 549.852C549.461 549.465 549.881 549.151 550.35 548.927C550.819 548.703 551.327 548.573 551.846 548.546H551.798ZM564.665 574.441C564.665 575.402 564.381 576.341 563.848 577.14C563.316 577.939 562.559 578.562 561.673 578.929C560.788 579.297 559.813 579.393 558.873 579.206C557.933 579.018 557.069 578.556 556.392 577.876C555.714 577.197 555.252 576.331 555.065 575.389C554.878 574.446 554.974 573.469 555.341 572.582C555.708 571.694 556.329 570.935 557.126 570.401C557.923 569.868 558.86 569.583 559.819 569.583C561.104 569.583 562.337 570.094 563.246 571.006C564.154 571.917 564.665 573.152 564.665 574.441Z" fill="#F39A83"/>
<path d="M546.128 668.424C548.611 667.81 551.042 666.997 553.397 665.995C541.348 668.815 528.835 668.997 516.709 666.53C510.559 665.252 504.647 663.014 499.189 659.898C505.909 664.685 513.598 667.931 521.711 669.404C529.823 670.878 538.159 670.543 546.128 668.424V668.424Z" fill="#F39A83"/>
<path d="M458.404 573.056C458.404 572.327 458.404 571.623 458.404 570.942C457.943 568.805 457.507 566.667 457.071 564.505C457.434 567.372 457.895 570.214 458.404 573.056Z" fill="#F39A83"/>
<path d="M464.244 597.907C463.711 595.599 463.154 593.316 462.572 591.081C462.136 589.38 461.627 587.631 461.118 585.882C461.433 587.218 461.748 588.53 462.087 589.866C462.766 592.563 463.396 595.235 464.244 597.907Z" fill="#F39A83"/>
<path d="M507.015 569.559C506.056 569.559 505.119 569.844 504.322 570.377C503.525 570.911 502.904 571.67 502.537 572.558C502.171 573.445 502.075 574.422 502.262 575.365C502.449 576.307 502.91 577.173 503.588 577.852C504.266 578.532 505.129 578.994 506.069 579.182C507.01 579.369 507.984 579.273 508.87 578.905C509.755 578.538 510.512 577.915 511.045 577.116C511.577 576.317 511.861 575.378 511.861 574.417C511.861 573.128 511.351 571.893 510.442 570.982C509.533 570.07 508.3 569.559 507.015 569.559Z" fill="#27090B"/>
<path d="M554.924 574.441C554.924 575.402 555.208 576.341 555.741 577.14C556.273 577.939 557.03 578.562 557.916 578.93C558.801 579.297 559.776 579.394 560.716 579.206C561.656 579.019 562.52 578.556 563.197 577.877C563.875 577.197 564.337 576.331 564.524 575.389C564.711 574.447 564.615 573.47 564.248 572.582C563.881 571.694 563.26 570.935 562.463 570.402C561.666 569.868 560.729 569.583 559.77 569.583C558.485 569.583 557.252 570.095 556.343 571.006C555.434 571.917 554.924 573.153 554.924 574.441Z" fill="#27090B"/>
<path d="M552.21 556.465C559.47 556.125 566.618 558.361 572.396 562.781C573.09 563.318 573.942 563.609 574.819 563.607C575.643 563.601 576.445 563.338 577.113 562.855C577.781 562.371 578.283 561.692 578.55 560.91C578.816 560.128 578.833 559.283 578.599 558.491C578.364 557.699 577.89 557 577.242 556.49C569.951 550.917 560.932 548.104 551.774 548.546C551.255 548.574 550.747 548.703 550.278 548.927C549.809 549.151 549.389 549.465 549.041 549.852C548.693 550.239 548.425 550.691 548.252 551.181C548.078 551.672 548.003 552.192 548.03 552.712C548.057 553.232 548.186 553.742 548.409 554.212C548.633 554.682 548.946 555.103 549.332 555.452C549.718 555.8 550.169 556.069 550.658 556.243C551.148 556.417 551.667 556.493 552.186 556.465H552.21Z" fill="#201544"/>
<path d="M513.776 548.546C504.617 548.091 495.593 550.906 488.307 556.489C487.659 556.999 487.185 557.699 486.951 558.491C486.717 559.283 486.734 560.128 487 560.91C487.266 561.692 487.768 562.371 488.437 562.854C489.105 563.338 489.907 563.601 490.731 563.607C491.608 563.613 492.462 563.322 493.154 562.781C498.926 558.35 506.078 556.112 513.34 556.465C514.387 556.523 515.415 556.162 516.197 555.46C516.978 554.759 517.45 553.774 517.508 552.724C517.566 551.674 517.205 550.644 516.505 549.86C515.805 549.077 514.824 548.604 513.776 548.546V548.546Z" fill="#201544"/>
<path d="M539.585 601.817C539.962 600.887 540.087 599.873 539.949 598.878C539.856 598.06 539.71 597.248 539.512 596.449C539.176 594.966 538.747 593.506 538.228 592.076C537.259 589.259 536.071 586.635 535.029 583.987C533.921 581.294 533.029 578.516 532.364 575.68C531.453 578.648 531.311 581.799 531.952 584.837C532.519 587.767 533.329 590.643 534.375 593.437L535.781 597.493C536.266 598.527 536.522 599.654 536.532 600.797C536.2 601.997 535.595 603.103 534.763 604.028L534.012 604.951L536.435 605.339C537.812 604.507 538.91 603.281 539.585 601.817Z" fill="#DE7778"/>
<path d="M663.341 764.425C658.907 753.275 648.802 735.494 636.007 725.34C634.772 724.342 633.486 723.409 632.154 722.546C623.382 737.121 608.139 748.149 592.849 758.158C592.849 759.226 592.849 760.247 592.849 761.243C594.06 803.801 608.503 845.704 625.272 886.295C625.442 886.732 625.635 887.194 625.829 887.631C626.023 888.068 631 911 635 911.5C660 911 689.5 908 724 899C723.007 896.571 694.892 841.453 693.85 838.951C683.697 814.125 673.277 789.372 663.341 764.425Z" fill="#C03037"/>
<path d="M509.899 741.834C506.648 743.194 503.625 745.046 500.933 747.323C500.145 748.347 499.432 749.427 498.8 750.554C495.65 756.658 494.162 763.487 494.487 770.352L543.8 764.862C543.825 772.512 543.445 780.159 542.662 787.769C548.409 784.894 553.532 780.906 557.734 776.036C558.437 775.21 559.091 774.384 559.746 773.607C558.884 772.629 558.128 771.563 557.492 770.425C548.623 755.923 528.825 734.303 509.899 741.834Z" fill="#EA947E"/>
<path d="M637.534 659.922C636.107 662.256 633.965 664.063 631.427 665.072C620.498 670.173 607.194 670.295 595.417 670.222C591.249 670.222 576.879 671.728 572.033 669.275L571.548 669.59C566.255 673.261 561.241 677.32 556.548 681.736C550.175 687.663 544.044 693.882 538.059 699.25C535.127 701.85 532.098 704.4 529.093 706.926C525.288 710.133 521.459 713.315 517.752 716.643C512.905 720.773 506.241 725.024 502.8 730.343C499.359 735.663 498.463 744.214 497.518 750.36C498.608 749.315 499.771 748.343 500.934 747.372C503.626 745.094 506.65 743.243 509.9 741.882C528.802 734.303 548.673 755.922 557.493 770.4C558.13 771.538 558.885 772.605 559.747 773.582C560.255 774.157 560.862 774.634 561.54 774.991C564.763 776.546 568.495 774.408 571.427 772.319C578.091 767.607 585.482 762.991 592.849 758.157C608.14 748.149 623.382 737.194 632.154 722.546C633.454 720.368 634.604 718.104 635.595 715.769C638.692 708.405 640.052 700.425 639.569 692.449C639.569 689.558 639.351 686.667 639.278 683.728C639.157 677.509 640.151 671.412 639.884 665.218C639.887 662.959 639.39 660.727 638.43 658.684C638.43 658.514 638.261 658.344 638.164 658.198C638.022 658.796 637.811 659.375 637.534 659.922Z" fill="#50A2D3"/>
<path d="M525.02 856.441C515.021 851.306 506.129 844.249 498.849 835.672C497.229 833.65 495.756 831.515 494.438 829.283C494.438 860.352 494.438 887.267 494.438 900.384C502.391 902.008 510.423 903.216 518.501 904.004C521.724 887.194 524.923 872.789 527.904 860.012C526.983 858.773 525.965 857.631 525.02 856.441Z" fill="#EA947E"/>
<path d="M494.487 770.4C494.487 777.687 494.487 784.975 494.487 792.432C497.734 786.165 502.969 778.1 506.41 783.663C508.833 787.477 518.308 795.299 527.686 802.756C523.712 793.04 527.444 789.42 527.444 789.42C532.395 791.889 537.067 794.887 541.377 798.359C541.911 794.862 542.371 791.364 542.734 787.817C543.518 780.207 543.898 772.561 543.873 764.91L494.487 770.4Z" fill="#EA947E"/>
<path d="M404.755 804.02C409.067 797.988 414.311 792.682 420.288 788.303C420.288 788.303 424.625 791.194 422.42 801.469C428.042 795.056 433.64 788.498 436.96 783.712C436.087 771.437 435.167 760.255 434.197 750.166C432.078 751.672 429.741 752.844 427.267 753.639C425.352 752.911 422.178 749.024 418.495 743.364C414.932 744.724 411.709 745.793 408.995 746.789C408.739 746.882 408.469 746.932 408.196 746.935C406.257 746.935 404.222 745.356 402.186 744.239C402.186 744.239 399.908 742.538 396.782 739.72C390.824 734.616 385.79 728.519 381.903 721.696V721.696C383.551 727.769 385.296 734.158 387.113 740.789C392.76 761.267 399.012 783.566 404.755 804.02Z" fill="#EA947E"/>
<path d="M429.253 857.825C427.993 860.57 426.685 863.267 425.328 865.939C430.702 866.191 436.053 865.08 440.885 862.708C440.885 861.785 440.885 860.813 440.885 859.744C440.885 856.003 440.618 852.457 440.473 848.716C436.928 851.986 433.181 855.029 429.253 857.825Z" fill="#EA947E"/>
<path d="M448.346 881.339C447.5 874.409 445.874 867.596 443.5 861.032C442.653 861.654 441.762 862.214 440.834 862.708C436.002 865.08 430.651 866.191 425.277 865.939C424.114 868.173 418.639 880.789 417.5 883C421 884.5 442 888.5 448.346 890.5C448.495 888.957 448.511 882.881 448.346 881.339Z" fill="#1C0F39"/>
<path d="M396.854 739.72C399.98 742.538 402.258 744.238 402.258 744.238C404.294 745.356 406.329 747.032 408.268 746.934C408.541 746.931 408.811 746.882 409.067 746.789C411.781 745.89 415.004 744.724 418.567 743.364C410.012 730.198 398.793 707.485 394.334 692.837L394.019 693.056L392.105 694.392C391.765 694.611 391.402 694.854 391.087 695.096L389.39 696.311L388.518 696.967L387.016 698.133L386.313 698.667C385.659 699.202 385.053 699.712 384.52 700.198C383.957 700.701 383.423 701.237 382.92 701.801C381.612 703.217 380.602 704.882 379.948 706.697C379.295 708.512 379.012 710.441 379.116 712.368C379.385 715.635 380.325 718.811 381.878 721.696C385.794 728.526 390.861 734.624 396.854 739.72V739.72Z" fill="#EA947E"/>
<path d="M418.568 743.364C422.251 749.024 425.425 752.911 427.34 753.639C429.83 752.848 432.185 751.676 434.319 750.166C458.413 735.19 481.597 718.788 503.745 701.048L504.666 700.319L495.991 676.247L477.937 653.971L471.492 646.052L468.705 642.627C423.39 663.566 410.789 671.315 397.752 677.534L396.589 678.093L396.298 678.239L394.553 679.04H394.335C393.147 679.575 392.663 681.081 392.711 683.34C392.74 684.647 392.895 685.949 393.172 687.226C393.476 688.865 393.864 690.486 394.335 692.085L394.553 692.789C398.794 707.485 410.086 730.198 418.568 743.364Z" fill="#50A2D3"/>
<path d="M584.1 637.137C582.519 641.396 580.48 645.468 578.017 649.283L574.237 657.177C572.759 660.238 568.591 665.898 570.917 668.449C571.238 668.768 571.616 669.023 572.032 669.202C576.878 671.631 591.248 670.125 595.416 670.149C607.242 670.149 620.497 670.149 631.426 664.999C633.963 663.99 636.106 662.183 637.533 659.85C637.81 659.302 638.021 658.723 638.163 658.125C638.356 657.377 638.478 656.612 638.526 655.841C638.6 654.219 638.535 652.594 638.332 650.983C637.848 646.319 637.121 641.655 636.612 636.967H584.1V637.137Z" fill="white"/>
<path d="M406.159 820.513C408.582 816.991 415.513 809.388 422.419 801.469C424.624 791.194 420.286 788.303 420.286 788.303C414.309 792.682 409.066 797.987 404.753 804.019C393.752 819.93 397.096 833.995 399.689 840.457C400.246 839.728 400.755 838.975 401.288 838.246C401.676 832.246 403.105 824.862 406.159 820.513Z" fill="#F39A83"/>
<path d="M422.417 801.469C415.51 809.388 408.653 816.992 406.157 820.514C403.103 824.862 401.674 832.247 401.31 838.149C402.473 836.546 403.733 834.967 404.775 833.291C414.202 837.324 422.901 845.437 431.892 851.923C431.068 853.89 430.147 855.809 429.275 857.753C433.2 854.98 436.947 851.962 440.494 848.716C446.936 842.977 452.382 836.204 456.609 828.676C466.932 809.243 460.85 796.271 456.27 789.542C453.144 784.951 443.039 770.983 439.937 778.854C439.138 780.57 438.163 782.198 437.029 783.712C433.636 788.498 428.039 795.056 422.417 801.469Z" fill="#F39A83"/>
<path d="M425.327 865.939C426.684 863.267 427.993 860.571 429.253 857.826C430.125 855.882 431.046 853.963 431.87 851.996C422.88 845.486 414.18 837.421 404.754 833.364C403.639 834.967 402.452 836.546 401.288 838.222C400.755 838.951 400.246 839.704 399.689 840.433C396.805 844.319 378.078 867.783 375 871.5C380.5 874 405 879 417.5 883C418.736 880.717 424.164 868.149 425.327 865.939Z" fill="#F39A83"/>
<path d="M556.328 839.388C556.183 839.922 556.037 840.311 555.965 840.53C556.173 841.653 556.115 842.81 555.795 843.906C554.511 846.19 536.409 861.736 536.409 861.736C532.512 860.215 528.716 858.446 525.044 856.441C525.989 857.631 527.007 858.87 527.952 859.963C540.942 875.563 558.452 896.961 574 910C590 910 638 913.5 652.5 910C629.5 889 577.885 857.545 556.328 839.388Z" fill="#F39A83"/>
<path d="M527.371 789.421C527.371 789.421 523.639 793.04 527.613 802.757C535.828 809.291 543.946 815.559 546.999 818.571C552.136 823.648 555.359 834.773 555.941 840.433C555.941 840.214 556.159 839.826 556.304 839.291C557.904 833.996 561.66 815 541.28 798.263C536.973 794.825 532.309 791.861 527.371 789.421V789.421Z" fill="#F39A83"/>
<path d="M547.024 818.57C543.947 815.558 535.829 809.291 527.638 802.756C518.26 795.299 508.737 787.477 506.362 783.663C502.921 778.101 497.687 786.092 494.439 792.433C493.494 794.279 492.719 795.955 492.21 797.096C489.326 803.607 486.2 814.999 494.464 829.234C495.779 831.483 497.253 833.634 498.874 835.671C506.154 844.249 515.047 851.306 525.045 856.441C528.717 858.446 532.513 860.215 536.41 861.736C536.41 861.736 554.536 846.19 555.796 843.906C556.116 842.81 556.174 841.653 555.966 840.53C555.481 834.773 552.162 823.647 547.024 818.57Z" fill="#F39A83"/>
<path d="M481.983 645.226C485.82 650.127 490.428 654.369 495.626 657.784C496.765 658.537 497.904 659.242 499.091 659.922C504.58 663.039 510.526 665.269 516.708 666.529C528.864 668.975 541.404 668.76 553.469 665.898C554.802 665.558 556.062 665.193 557.322 664.805C559.501 664.123 561.637 663.312 563.719 662.375C569.639 659.472 574.627 654.961 578.114 649.355C580.576 645.541 582.616 641.468 584.196 637.209C585.743 633.038 587.046 628.78 588.097 624.456C589.721 617.801 591.199 610.926 592.459 603.93C593.065 600.578 593.622 597.201 594.107 593.776C595.173 586.489 595.9 579.201 596.288 571.793C596.288 570.311 596.288 568.829 596.458 567.347C595.254 569.379 594.767 571.758 595.076 574.1C593.865 569.801 594.568 564.845 594.374 560.157C593.962 560.594 593.574 561.056 593.138 561.493C594.374 560.278 593.283 555.371 591.926 550.829C592.669 557.669 592.952 564.551 592.774 571.428C592.435 583.282 590.787 598.659 580.658 606.408C567.863 616.125 551.409 608.133 536.579 605.461L534.156 605.072C531.885 604.74 529.591 604.61 527.298 604.683C517.047 605.169 507.912 610.61 497.613 611.363C481.231 612.529 470.303 596.983 466.522 582.797C466.038 580.926 465.626 578.983 465.093 577.064C465.093 577.914 465.093 578.788 464.899 579.614C462.475 581.436 459.858 577.623 459.252 574.756C458.986 573.542 458.719 572.327 458.477 571.088C458.477 571.768 458.477 572.473 458.477 573.201C458.489 573.428 458.489 573.655 458.477 573.882C458.477 574.149 458.477 574.416 458.477 574.659C459.021 578.513 459.88 582.315 461.046 586.027C461.555 587.776 462.063 589.525 462.5 591.226C463.081 593.461 463.639 595.744 464.172 598.052L465.916 605.533C467.502 612.831 469.55 620.019 472.047 627.056C474.416 633.584 477.767 639.712 481.983 645.226ZM532.871 639.979C520.198 639.979 509.778 631.89 508.421 621.469H557.249C555.892 631.89 545.448 639.979 532.774 639.979H532.871Z" fill="#201544"/>
<path d="M458.331 570.942C458.574 572.157 458.84 573.372 459.107 574.61C459.713 577.55 462.354 581.364 464.753 579.469C464.753 578.643 464.898 577.768 464.947 576.918C466.764 553.574 465.722 525.42 488.816 513.104C498.824 507.785 510.359 505.987 521.675 505.234C540.625 503.971 570.141 504.7 580.003 524.667C582.936 530.691 586.692 536.133 589.042 542.497C589.478 543.663 590.738 547.04 591.829 550.635C593.186 555.177 594.252 560.084 593.041 561.299C593.477 560.861 593.864 560.4 594.276 559.963C594.47 564.651 593.768 569.679 594.979 573.906C594.67 571.563 595.156 569.185 596.36 567.153C597.257 565.307 598.323 563.485 599.268 561.857C599.826 560.861 600.359 559.914 600.722 559.137C603.681 552.692 606.175 546.044 608.186 539.242C612.184 525.76 616.643 506.06 614.559 488.959C613.226 477.857 609.155 467.874 600.407 461.363C599.144 460.419 597.788 459.605 596.36 458.934C594.358 457.964 592.163 457.457 589.939 457.453C585.092 457.453 580.997 460.246 576.587 461.946C570.517 464.296 563.891 464.794 557.54 463.38C551.724 462.068 546.368 459.226 540.577 457.768C527.939 454.926 514.72 456.344 502.968 461.801C485.331 469.585 470.671 482.866 461.167 499.671L460.488 500.886C459.519 502.756 458.622 504.651 457.847 506.546C450.31 524.959 453 544.416 456.829 563.534C456.829 563.801 456.95 564.068 456.999 564.335C457.435 566.667 457.871 568.805 458.331 570.942Z" fill="#201544"/>
<path d="M508.323 621.469C509.68 631.89 520.1 639.979 532.774 639.979C545.448 639.979 555.892 631.89 557.249 621.469H508.323Z" fill="white"/>
<path d="M509.025 336.53L509.243 336.87C509.388 335.072 509.412 333.08 509.606 331.21L510.624 322.1C511.836 311.242 510.988 298.246 524.752 296.109C532.191 294.967 538.976 300.165 546.294 301.914C552.813 303.469 559.647 302.206 566.189 300.651C572.732 299.096 579.299 297.226 585.988 297.59C598.104 298.198 601.012 303.615 601.957 313.89C602.611 321.177 604.138 328.465 605.446 335.509C605.63 336.846 606.075 338.134 606.755 339.299C608.742 342.19 611.795 338.06 614.17 333.372C615.408 330.928 616.461 328.395 617.32 325.793C621.125 313.647 620.398 297.906 617.03 285.809C616.787 284.983 616.545 284.133 616.278 283.38C611.771 269.728 601.933 257.461 588.459 252.602C583.613 250.829 578.379 250.173 573.411 248.594C561.028 244.853 548.766 236.449 536.286 239.874C526.593 242.546 519.324 252.019 509.315 253.234C507.113 253.155 504.93 253.667 502.991 254.716C501.521 256.118 500.587 257.991 500.349 260.011C497.24 273.415 496.698 287.288 498.75 300.894C499.838 309.329 501.63 317.658 504.105 325.793C505.292 329.563 506.945 333.17 509.025 336.53V336.53Z" fill="#201544"/>
</svg>
