<svg width="56" height="66" viewBox="0 0 56 66" fill="none" xmlns="http://www.w3.org/2000/svg">
<path d="M29.1132 60.7775H27.6309V58.8H29.1132V60.7775ZM29.1132 56.8257H27.6309V54.8481H29.1132V56.8257ZM29.1132 52.8739H27.6309V50.8896H29.1132V52.8739Z" fill="white"/>
<path d="M33.9911 36.4648H32.5088V42.5448H33.9911V36.4648Z" fill="white"/>
<path d="M28.3424 63.1366C20.7734 63.1366 13.4821 61.8751 7.2616 59.4926L6.61914 59.255L8.01449 54.3897C9.68756 48.8184 13.4486 44.3513 18.3073 42.1595L22.771 40.1519L23.3834 41.4903L18.9196 43.498C14.4491 45.5358 10.9926 49.6482 9.4366 54.8013L8.43276 58.3449C14.3521 60.5099 21.2251 61.6542 28.3558 61.6542C35.4864 61.6542 42.4096 60.5032 48.3323 58.3248L47.3284 54.7913C45.7725 49.6482 42.3092 45.5291 37.8421 43.5014L33.375 41.4937L33.9873 40.1552L38.4511 42.1629C43.3131 44.368 47.0674 48.8217 48.7506 54.383L50.1426 59.235L49.5101 59.4792C43.2461 61.8684 35.9348 63.1366 28.3424 63.1366Z" fill="white"/>
<path d="M24.2265 36.8359H22.7441V42.5445H24.2265V36.8359Z" fill="white"/>
<path d="M15.6308 56.374H14.1484V61.1456H15.6308V56.374Z" fill="white"/>
<path d="M41.9384 56.4878H40.4561V60.8512H41.9384V56.4878Z" fill="white"/>
<path d="M28.2415 39.7505C26.7119 39.7472 25.2292 39.2219 24.0387 38.2614L22.1013 36.7088C20.1873 35.1763 18.9961 32.8607 18.9961 30.669V24.7597C18.9961 19.2318 22.8576 16.7691 23.0115 16.6653L24.1057 15.9961L24.1425 17.2844C24.1425 17.3178 24.2763 20.5536 26.3576 21.8853L27.4752 19.3891L28.2315 20.0817C28.2817 20.1252 33.2775 24.5957 40.4349 23.8094L40.5955 25.285C34.4018 25.9543 29.7841 23.1268 28.014 21.8084L27.1072 23.8161L26.4379 23.5651C24.0321 22.6483 23.1487 20.2624 22.8274 18.7132C22.0525 19.5099 21.4434 20.4525 21.0356 21.4865C20.6277 22.5204 20.4293 23.625 20.4517 24.7363V30.6456C20.4517 32.3989 21.4287 34.2695 23.0014 35.531L24.9389 37.0802C25.8604 37.8425 27.0188 38.2595 28.2147 38.2595C29.4106 38.2595 30.5691 37.8425 31.4906 37.0802L33.4247 35.531C34.1663 34.9628 34.7726 34.237 35.1996 33.406C35.6267 32.5751 35.8639 31.6597 35.8942 30.7259V26.5867H37.4033V30.7493C37.374 31.9037 37.0886 33.0371 36.5678 34.0678C36.047 35.0984 35.3037 36.0005 34.3917 36.7088L32.4577 38.2614C31.2636 39.2248 29.7757 39.7503 28.2415 39.7505Z" fill="white"/>
<path d="M37.5135 19.834L36.0412 19.65C36.17 18.6064 36.0723 17.5472 35.7547 16.5448C35.4371 15.5423 34.9071 14.6201 34.2008 13.8411C33.4194 12.9604 32.4599 12.2557 31.3859 11.7735C30.3118 11.2912 29.1476 11.0425 27.9703 11.0437H27.7293L27.6992 9.56804C29.1328 9.52937 30.5575 9.80395 31.8741 10.3726C33.1906 10.9413 34.3672 11.7904 35.3218 12.8607C36.1667 13.7972 36.7999 14.905 37.1781 16.1083C37.5563 17.3117 37.6707 18.5825 37.5135 19.834Z" fill="white"/>
<path d="M19.2443 27.0685C18.175 26.1067 17.3043 24.9449 16.6812 23.6487C16.1283 22.5386 15.7534 21.3485 15.5702 20.1219C15.3508 18.3971 15.5063 16.6453 16.026 14.9862C16.5457 13.3271 17.4175 11.7997 18.5818 10.5084C19.8028 9.11269 21.3074 7.99327 22.995 7.22473C24.6827 6.45618 26.5148 6.05615 28.3693 6.0513C30.2227 6.0475 32.0557 6.43855 33.7462 7.19842C35.4367 7.95828 36.946 9.06953 38.1735 10.4582C39.3332 11.7388 40.2026 13.2548 40.7223 14.9024C41.2421 16.5501 41.3999 18.2905 41.1851 20.0048L40.9642 22.0124L39.4919 21.8485L39.7127 19.8408C39.9046 18.3325 39.7677 16.8005 39.3114 15.3501C38.8551 13.8998 38.0902 12.5653 37.0693 11.4386C35.9789 10.2084 34.6392 9.2242 33.1392 8.55151C31.6392 7.87881 30.0132 7.53298 28.3693 7.53699C26.7216 7.53777 25.0931 7.89042 23.5927 8.57136C22.0923 9.2523 20.7547 10.2458 19.6693 11.4854C18.646 12.6215 17.8803 13.9652 17.4246 15.4246C16.9689 16.8841 16.834 18.4248 17.0292 19.9412C17.1936 21.0044 17.5209 22.036 17.9995 22.9996C18.5394 24.1207 19.2917 25.1264 20.2147 25.9609L19.2443 27.0685Z" fill="white"/>
<path d="M35.9351 20.7262L35.6426 22.0117L37.088 22.3406L37.3805 21.0551L35.9351 20.7262Z" fill="white"/>
<path d="M13.7968 35.3201C11.9765 35.3201 9.94535 34.9085 8.40947 33.4663L7.74023 32.8205L8.52658 32.3052C12.6156 29.6283 11.7222 27.102 10.367 23.2974C10.1361 22.6516 9.8985 21.9824 9.67431 21.2897C8.01127 16.1132 7.95774 11.0705 9.48024 8.07573C10.156 6.76503 11.1417 5.63921 12.3516 4.79613C13.5615 3.95305 14.959 3.41824 16.4226 3.23817C17.8862 3.0581 19.3717 3.23823 20.7498 3.76291C22.128 4.28758 23.3571 5.14091 24.3305 6.24873L24.6115 6.52646C24.809 6.72054 25.0164 6.928 25.0399 6.95812L23.9088 7.91177L24.4743 7.43327L23.9256 7.93185C23.8854 7.88835 23.7248 7.73108 23.591 7.59723C23.4571 7.46339 23.2563 7.26262 23.2363 7.24254C22.4217 6.31709 21.3936 5.60434 20.2412 5.16612C19.0888 4.72789 17.8469 4.57741 16.6232 4.72774C15.3995 4.87807 14.2309 5.32466 13.2188 6.02878C12.2068 6.7329 11.3818 7.67329 10.8154 8.76839C9.47689 11.3684 9.58062 16.1098 11.0897 20.8413C11.3072 21.5105 11.5381 22.1798 11.759 22.8122C13.0372 26.3993 14.2485 29.799 10.1729 32.9611C13.1142 34.7847 17.7118 33.2321 17.762 33.2154L18.2472 34.6141C16.8081 35.0739 15.3075 35.312 13.7968 35.3201Z" fill="white"/>
<path d="M15.0277 11.1712L13.793 10.3547C14.8838 8.70839 16.0951 7.86851 17.3934 7.86182C19.274 7.86182 20.502 9.65201 20.5522 9.72897L19.3342 10.5588C19.3342 10.5588 18.491 9.34751 17.3901 9.34416C16.4331 9.35085 15.5765 10.3447 15.0277 11.1712Z" fill="white"/>
<path d="M33.9044 40.4842L27.8418 46.6021L28.8947 47.6455L34.9573 41.5276L33.9044 40.4842Z" fill="white"/>
<path d="M33.7627 51.8735L27.9404 47.7242L28.797 46.5196L33.3512 49.7587L36.7575 44.3848L38.009 45.1778L33.7627 51.8735Z" fill="white"/>
<path d="M22.9721 51.8738L18.6455 45.0109L19.9003 44.2212L23.3904 49.7591L27.9411 46.52L28.7977 47.7246L22.9721 51.8738Z" fill="white"/>
<path d="M22.9332 40.5921L21.8652 41.6201L27.8339 47.8204L28.9019 46.7923L22.9332 40.5921Z" fill="white"/>
<path d="M26.1279 51.8135H24.6455V62.3706H26.1279V51.8135Z" fill="white"/>
<path d="M17.9232 8.85561L16.5312 8.35369C17.7894 4.85361 20.2957 3.91669 20.4027 3.87988L20.9047 5.27523C20.8277 5.302 18.9371 6.05154 17.9232 8.85561Z" fill="white"/>
</svg>
