<svg width="56" height="66" viewBox="0 0 56 66" fill="none" xmlns="http://www.w3.org/2000/svg">
<path d="M28.2464 36.9843C26.7317 36.9856 25.2619 36.4697 24.0804 35.522L21.9857 33.9895C21.1013 33.2651 20.39 32.3523 19.9037 31.3177C19.4174 30.2832 19.1684 29.153 19.1749 28.0099V21.3879H20.5134V27.9965C20.5056 28.9325 20.7061 29.8584 21.1002 30.7074C21.4943 31.5564 22.0722 32.3071 22.7921 32.9053L24.8868 34.4378C25.8209 35.2147 26.9967 35.6414 28.2116 35.6445C29.4264 35.6475 30.6044 35.2267 31.5423 34.4546L33.6839 32.8852C34.3978 32.2877 34.9703 31.5394 35.3603 30.694C35.7503 29.8487 35.948 28.9274 35.9392 27.9965V21.3042H37.2776V27.9965C37.285 29.135 37.0386 30.2609 36.5565 31.2923C36.0744 32.3237 35.3685 33.2348 34.4903 33.9594L32.3956 35.522C31.2208 36.4702 29.7561 36.9864 28.2464 36.9843Z" fill="white"/>
<path d="M39.5204 20.7989L38.2053 20.4643L38.6972 18.3529C39.1791 15.9537 39.7479 10.1715 34.5781 8.77619L34.9127 7.47119C39.2627 8.64569 41.1667 12.825 40.0022 18.6407L39.5204 20.7989Z" fill="white"/>
<path d="M17.0908 20.5546L16.619 18.3494C15.836 13.715 17.4555 10.6533 18.9613 8.87314C20.0234 7.62036 21.3355 6.60326 22.8135 5.88702C24.2915 5.17078 25.9028 4.7712 27.5442 4.71387C32.269 4.71387 35.0396 7.30044 35.1567 7.41087L35.4077 7.65179L34.2332 15.7328L32.8947 15.5387L33.9621 8.17714C32.1085 6.79685 29.8552 6.05906 27.5442 6.07575C25.329 6.07575 22.1301 7.21344 19.9852 9.75652C18.1047 11.9817 17.3987 14.8694 17.9474 18.1219L18.4125 20.2969L17.0908 20.5546Z" fill="white"/>
<path d="M36.81 27.7021L35.9902 26.628L37.3287 25.6241C37.6392 25.3806 37.8499 25.0319 37.921 24.6437L38.1786 23.3052C38.2157 23.1149 38.211 22.9187 38.1647 22.7304C38.1185 22.542 38.0319 22.366 37.9109 22.2144C37.8165 22.0899 37.6953 21.9883 37.5563 21.917C37.4173 21.8458 37.264 21.8067 37.1079 21.8028H36.1642V20.4644H37.1079C37.4608 20.4665 37.8089 20.5468 38.1271 20.6996C38.4454 20.8523 38.7258 21.0737 38.9482 21.3477C39.197 21.652 39.3758 22.0073 39.4718 22.3884C39.5678 22.7695 39.5787 23.1671 39.5037 23.5529L39.2427 24.8913C39.1113 25.6062 38.7204 26.2473 38.1452 26.6916L36.81 27.7021Z" fill="white"/>
<path d="M19.6437 27.9095L18.3053 26.9057C17.7252 26.4635 17.3295 25.8222 17.1943 25.1054L16.9333 23.767C16.8564 23.3833 16.8658 22.9873 16.9607 22.6077C17.0556 22.228 17.2337 21.8742 17.4821 21.5719C17.7045 21.2888 17.9872 21.0587 18.3096 20.8984C18.6319 20.7381 18.9859 20.6515 19.3459 20.645H20.6844V21.9835H19.3459C19.1865 21.9841 19.0293 22.0208 18.8862 22.091C18.743 22.1611 18.6176 22.2628 18.5194 22.3884C18.3981 22.5371 18.3112 22.7108 18.2649 22.8971C18.2187 23.0834 18.2142 23.2776 18.2517 23.4658L18.5161 24.8043C18.5853 25.1948 18.7991 25.5449 19.115 25.7847L20.4535 26.7886L19.6437 27.9095Z" fill="white"/>
<path d="M28.5253 60.7856L16.874 42.0706L18.0218 41.3578L28.4785 58.1522L38.3864 40.8994L39.5576 41.5753L28.5253 60.7856Z" fill="white"/>
<path d="M28.3544 46.3067L26.1493 45.6241L25.0752 42.8937L26.3333 42.3984L27.1699 44.5266L28.3544 44.8913L29.539 44.5266L30.3755 42.3984L31.6337 42.8937L30.5595 45.6241L28.3544 46.3067Z" fill="white"/>
<path d="M26.6894 45.3912L24.1689 53.1992L25.4554 53.6145L27.9758 45.8065L26.6894 45.3912Z" fill="white"/>
<path d="M30.0886 45.5798L28.791 45.959L31.1441 54.011L32.4416 53.6318L30.0886 45.5798Z" fill="white"/>
<path d="M28.3549 41.2907C26.1695 41.3153 24.0301 40.6618 22.2314 39.4202L23.0178 38.3193C24.5972 39.3742 26.4539 39.9372 28.3532 39.9372C30.2525 39.9372 32.1092 39.3742 33.6887 38.3193L34.4784 39.4169C32.6799 40.6592 30.5407 41.3139 28.3549 41.2907Z" fill="white"/>
<path d="M28.3541 60.9764C20.765 60.9764 13.4537 59.7116 7.20975 57.3224L6.63086 57.1016L8.01282 52.2764C9.6859 46.7017 13.4503 42.238 18.3089 40.0429L22.3946 38.1992V35.8234H23.7331V39.0692L18.8577 41.2843C14.3638 43.3188 10.8805 47.468 9.30778 52.6579L8.27382 56.2684C14.2333 58.4568 21.1632 59.6145 28.3507 59.6145C35.5383 59.6145 42.5117 58.4501 48.4846 56.245L47.4539 52.6478C45.8846 47.468 42.4012 43.3188 37.894 41.2709L33.0119 39.0558V35.375H34.3504V38.1992L38.4361 40.0529C43.298 42.258 47.0524 46.7118 48.7355 52.2764L50.1309 57.0782L49.552 57.299C43.298 59.7049 35.9666 60.9764 28.3541 60.9764Z" fill="white"/>
<path d="M15.5257 55.4888H14.1738V59.0491H15.5257V55.4888Z" fill="white"/>
<path d="M41.9319 55.1909H40.5801V58.7512H41.9319V55.1909Z" fill="white"/>
<path d="M37.3054 21.3045H35.967C35.967 21.261 35.9469 16.911 33.29 15.7833L33.8154 14.5386C37.292 16.0109 37.3054 21.087 37.3054 21.3045Z" fill="white"/>
<path d="M30.6663 14.6858L29.6992 13.7422C30.0108 13.4325 30.2869 13.0891 30.5224 12.7183L31.6902 13.3875C31.4008 13.8588 31.0572 14.2946 30.6663 14.6858Z" fill="white"/>
<path d="M20.0488 18.8415V17.503H20.5809C24.6799 17.426 27.2129 15.9905 28.6116 14.7993L29.4883 15.8266C27.919 17.165 25.1015 18.7712 20.5909 18.8549L20.0488 18.8415Z" fill="white"/>
<path d="M20.418 21.9867V20.6482H21.0872C30.1218 20.4909 33.3375 14.3508 33.3676 14.2905L34.5722 14.9029C34.4317 15.1839 30.9483 21.8328 21.0972 22.0034L20.418 21.9867Z" fill="white"/>
<path d="M27.7895 40.2357L21.793 45.0278L22.6369 46.0839L28.6334 41.2918L27.7895 40.2357Z" fill="white"/>
<path d="M29.0219 40.1936L28.1777 41.2495L34.1734 46.0426L35.0175 44.9867L29.0219 40.1936Z" fill="white"/>
<path d="M31.6204 60.5113L30.6768 59.5443L38.6941 51.721L37.9245 48.4116L40.5211 47.0565L39.3768 41.5922L40.6985 41.3145L42.0537 47.7826L39.4771 49.1277L40.1832 52.156L31.6204 60.5113Z" fill="white"/>
<path d="M25.694 60.8322L17.1312 52.4769L17.8373 49.4486L15.2607 48.1034L16.6159 41.6387L17.9377 41.9131L16.7933 47.3773L19.3932 48.7325L18.6203 52.0419L26.6377 59.8652L25.694 60.8322Z" fill="white"/>
<path d="M32.1582 31.1052C31.7533 30.2687 30.6156 28.5387 29.6787 28.5387H26.7073C25.7035 28.5856 24.5892 30.2921 24.2847 30.881L23.0801 30.2653C23.2373 29.9575 24.6695 27.2538 26.6805 27.1802H29.6921C31.7299 27.1802 33.2256 30.1716 33.3896 30.5263L32.1582 31.1052Z" fill="white"/>
<path d="M29.6153 32.2863C29.3877 31.8178 29.0096 31.3895 28.859 31.3694H27.5474C27.4102 31.3694 27.0187 31.8011 26.8179 32.1959L25.6133 31.5802C25.7438 31.3293 26.4431 30.0644 27.5172 30.0176H28.8557C29.9599 30.0176 30.6927 31.4196 30.8266 31.6907L29.6153 32.2863Z" fill="white"/>
<path d="M32.4792 30.7035L32.1914 29.3818C33.5426 29.1043 34.8496 28.6439 36.0763 28.0132L36.7455 29.1843C35.4016 29.8882 33.9655 30.3996 32.4792 30.7035Z" fill="white"/>
<path d="M23.9104 30.5831C22.4724 30.2766 21.0722 29.8143 19.7344 29.2045L20.3501 27.9932C21.5937 28.5512 22.8924 28.9774 24.2249 29.2647L23.9104 30.5831Z" fill="white"/>
</svg>
