<svg width="56" height="66" viewBox="0 0 56 66" fill="none" xmlns="http://www.w3.org/2000/svg">
<path d="M38.553 19.4893H37.25V25.3529H38.553V19.4893Z" fill="white"/>
<path d="M19.6575 19.4893H18.3545V25.3529H19.6575V19.4893Z" fill="white"/>
<path d="M37.3436 27.3074L36.5996 26.3517L38.3561 24.9308C38.6933 24.6606 38.9219 24.2715 38.9982 23.838L39.2606 22.4171C39.3025 22.2037 39.2982 21.9834 39.248 21.7719C39.1979 21.5604 39.1031 21.363 38.9704 21.1937C38.8647 21.0555 38.7301 20.9436 38.5767 20.8664C38.4233 20.7891 38.2551 20.7486 38.0844 20.7477H36.7601V19.4893H38.0968C38.445 19.4906 38.7885 19.5719 39.1024 19.7273C39.4164 19.8827 39.6929 20.1083 39.9119 20.3877C40.1585 20.6976 40.3354 21.06 40.4298 21.449C40.5243 21.8379 40.534 22.2436 40.4583 22.6369L40.1959 24.061C40.0648 24.7924 39.6767 25.4481 39.1062 25.9025L37.3436 27.3074Z" fill="white"/>
<path d="M17.9859 27.3074L16.5641 26.1834C15.9714 25.7107 15.5667 25.0248 15.428 24.258L15.1487 22.7648C15.0727 22.3577 15.0833 21.9379 15.1799 21.5356C15.2764 21.1332 15.4565 20.7581 15.7073 20.437C15.9375 20.1407 16.2278 19.9018 16.5572 19.7379C16.8866 19.5739 17.2467 19.489 17.6114 19.4893H19.0077V20.7895H17.6114C17.4314 20.7908 17.2539 20.8341 17.092 20.9164C16.93 20.9986 16.7876 21.1178 16.6752 21.2651C16.5398 21.4397 16.4431 21.6436 16.3921 21.8621C16.341 22.0807 16.3369 22.3083 16.3801 22.5287L16.653 24.0152C16.7319 24.4665 16.9684 24.8707 17.3162 25.1492L18.738 26.2699L17.9859 27.3074Z" fill="white"/>
<path d="M33.3412 29.9135H32.0188C32.0188 28.5713 30.8417 27.3164 29.5936 27.3164H26.6071C25.9792 27.3164 25.3769 27.5638 24.9329 28.0043C24.4889 28.4448 24.2395 29.0422 24.2395 29.6652H22.917C22.917 29.1844 23.0124 28.7084 23.1979 28.2643C23.3833 27.8201 23.6551 27.4166 23.9978 27.0766C24.3404 26.7367 24.7472 26.467 25.1949 26.2831C25.6426 26.0991 26.1225 26.0044 26.6071 26.0044H29.5835C31.5892 26.0044 33.3412 27.8331 33.3412 29.9135Z" fill="white"/>
<path d="M25.3738 31.2163C24.8813 31.2166 24.3892 31.1862 23.9004 31.1252L23.7381 31.105L21.6257 29.5702C20.6248 28.7818 19.8109 27.7738 19.2446 26.6212C18.6783 25.4685 18.3741 24.2007 18.3545 22.9119H19.6491C19.6659 23.9953 19.9216 25.0611 20.3973 26.0303C20.873 26.9995 21.5565 27.8473 22.3972 28.5111L24.2215 29.8367C25.5095 29.975 27.4166 29.8873 27.9298 29.2599L28.4331 28.6426L28.9298 29.2633C29.3801 29.8266 31.0951 29.9379 32.201 29.83L34.575 28.4807C35.4064 27.7828 36.0774 26.9077 36.5407 25.917C37.0041 24.9262 37.2486 23.844 37.2569 22.7466H38.5515C38.5407 24.0529 38.2459 25.3405 37.6883 26.5169C37.1307 27.6933 36.3241 28.7291 35.3266 29.55L35.2471 29.604L32.5983 31.105H32.4692C31.9725 31.1589 29.7145 31.3546 28.4265 30.5214C27.5987 31.0881 26.3604 31.2163 25.3738 31.2163Z" fill="white"/>
<path d="M30.0818 31.8682H26.8242V33.1712H30.0818V31.8682Z" fill="white"/>
<path d="M33.3412 14.9282H22.917V16.2313H33.3412V14.9282Z" fill="white"/>
<path d="M30.084 12.3223H25.5234V13.6253H30.084V12.3223Z" fill="white"/>
<path d="M26.8225 24.0497H21.6104V20.1406H26.8225V24.0497ZM22.8762 22.8367H25.5567V21.3537H22.8762V22.8367Z" fill="white"/>
<path d="M34.6408 24.0497H29.4287V20.1406H34.6279L34.6408 24.0497ZM30.7204 22.8367H33.3943V21.3537H30.7204V22.8367Z" fill="white"/>
<path d="M30.7335 20.1406H26.1729V21.4437H30.7335V20.1406Z" fill="white"/>
<path d="M38.5515 20.1407H37.2581V16.7752C37.2555 14.5441 36.3371 12.4052 34.7044 10.8276C33.0716 9.24996 30.8579 8.36255 28.5489 8.36001H28.3571C26.048 8.36255 23.8343 9.24996 22.2016 10.8276C20.5689 12.4052 19.6504 14.5441 19.6478 16.7752V20.1407H18.3545V16.7752C18.358 14.213 19.413 11.7566 21.288 9.94486C23.1631 8.13308 25.7053 7.11373 28.3571 7.11035H28.5489C31.2007 7.11373 33.7428 8.13308 35.6179 9.94486C37.493 11.7566 38.548 14.213 38.5515 16.7752V20.1407Z" fill="white"/>
<path d="M31.9695 39.6859H24.9402C23.7695 39.6862 22.6134 39.4302 21.5559 38.9364C20.4984 38.4425 19.566 37.7234 18.8264 36.831C18.0868 35.9387 17.5586 34.8955 17.2801 33.7774C17.0016 32.6593 16.9798 31.4942 17.2163 30.3667L18.2648 25.3525L19.5438 25.612L18.4953 30.6262C18.2979 31.5669 18.3161 32.539 18.5485 33.472C18.7809 34.405 19.2216 35.2754 19.8388 36.0199C20.4559 36.7645 21.2339 37.3646 22.1163 37.7766C22.9987 38.1886 23.9634 38.4022 24.9402 38.4019H31.9695C32.9462 38.4015 33.9106 38.1875 34.7928 37.7753C35.675 37.3631 36.4529 36.7631 37.0702 36.0188C37.6875 35.2745 38.1286 34.4044 38.3617 33.4717C38.5947 32.539 38.6139 31.567 38.4178 30.6262L37.3659 25.612L38.6448 25.3525L39.6934 30.3667C39.9306 31.4943 39.9092 32.6596 39.631 33.778C39.3527 34.8963 38.8245 35.9397 38.0848 36.8322C37.3451 37.7247 36.4124 38.4439 35.3546 38.9375C34.2968 39.4312 33.1404 39.6868 31.9695 39.6859Z" fill="white"/>
<path d="M15.4773 19.4894C14.9676 17.2407 14.7229 14.1398 16.4085 12.1503C17.428 10.9676 18.9436 10.3682 20.9623 10.3682V11.6351C19.3616 11.6351 18.179 12.0758 17.4416 12.9312C16.0143 14.6161 16.4221 17.5874 16.7619 19.2075L15.4773 19.4894Z" fill="white"/>
<path d="M40.8628 19.4894L39.5568 19.2393C39.8663 17.634 40.1792 14.6939 38.7916 13.0278C38.0536 12.1424 36.8769 11.676 35.292 11.676V10.3682C37.2918 10.3682 38.8154 10.9799 39.8187 12.1863C41.4614 14.1667 41.2948 17.2488 40.8628 19.4894Z" fill="white"/>
<path d="M28.1024 58.5801C20.594 58.5801 13.3601 57.3423 7.18129 55.0011L6.62891 54.7915L7.99168 50.0829C9.64552 44.6473 13.3898 40.2596 18.2455 38.0395L20.3757 37.0801L20.9082 38.2491L18.7847 39.2019C14.2631 41.2681 10.7768 45.3677 9.22544 50.4464L8.19345 54.0122C14.101 56.1635 20.9678 57.2867 28.0958 57.2867C35.2239 57.2867 42.1304 56.1439 48.0511 53.9795L47.0191 50.4234C45.4678 45.3415 42.0146 41.2714 37.5459 39.2641L35.5084 38.3506L36.0442 37.1849L38.0784 38.0984C42.8845 40.2563 46.5958 44.6178 48.2595 50.06L49.6289 54.7555L49.0765 54.9651C42.8878 57.3358 35.6341 58.5801 28.1024 58.5801Z" fill="white"/>
<path d="M15.5264 56.6258L14.2618 56.3025C16.831 47.0767 12.6695 43.411 12.4922 43.2623L13.3452 42.2925C13.5493 42.4735 18.3197 46.5789 15.5264 56.6258Z" fill="white"/>
<path d="M40.7318 56.6258C37.9364 46.5721 42.7046 42.4639 42.9086 42.2925L43.7612 43.2629L43.3366 42.7842L43.7646 43.2629C43.5873 43.4117 39.4177 47.08 41.9924 56.312L40.7318 56.6258Z" fill="white"/>
<path d="M28.1222 43.5954C26.6539 43.566 25.2328 43.0825 24.063 42.2144C22.8931 41.3462 22.0345 40.138 21.6104 38.7631L22.8591 38.3833C23.2006 39.4973 23.8935 40.4771 24.8388 41.1828C25.784 41.8884 26.9333 42.2837 28.1222 42.312C29.3127 42.3103 30.4704 41.9294 31.4199 41.2271C32.3695 40.5247 33.0593 39.5391 33.3852 38.4193L34.6407 38.7827C34.2372 40.169 33.3825 41.3889 32.2062 42.2574C31.0299 43.1259 29.5961 43.5956 28.1222 43.5954Z" fill="white"/>
<path d="M28.0511 46.2015C26.182 46.1775 24.3543 45.6469 22.7626 44.666C21.1708 43.6851 19.8746 42.2907 19.0117 40.6311L20.138 40.0216C20.9491 41.6275 22.2266 42.9502 23.8027 43.8161C25.3787 44.6819 27.1796 45.0505 28.9687 44.8732C30.7578 44.696 32.4516 43.9813 33.8275 42.8231C35.2033 41.6648 36.197 40.1171 36.6779 38.3833L37.9057 38.747C37.2958 40.8927 36.0039 42.781 34.2258 44.1261C32.4476 45.4711 30.28 46.1997 28.0511 46.2015Z" fill="white"/>
<path d="M38.5511 48.1562H15.748V49.4593H38.5511V48.1562Z" fill="white"/>
<path d="M40.5083 53.3682H17.0537V54.6712H40.5083V53.3682Z" fill="white"/>
<path d="M40.5056 52.0647H39.9226V50.7617H40.5056V52.0647ZM38.1869 52.0647H36.4611V50.7617H38.1869V52.0647ZM34.7319 52.0647H33.0061V50.7617H34.7319V52.0647ZM31.2803 52.0647H29.5545V50.7617H31.2803V52.0647ZM27.8254 52.0647H26.0996V50.7617H27.8254V52.0647ZM24.3738 52.0647H22.6447V50.7617H24.3738V52.0647ZM20.9188 52.0647H19.193V50.7617H20.9288L20.9188 52.0647ZM17.4672 52.0647H15.748V50.7617H17.4772L17.4672 52.0647Z" fill="white"/>
</svg>
