<svg width="56" height="66" viewBox="0 0 56 66" fill="none" xmlns="http://www.w3.org/2000/svg">
<path d="M26.2 30.6319C25.6297 30.6326 25.072 30.4641 24.5975 30.1477C24.123 29.8313 23.7531 29.3813 23.5345 28.8546C23.3159 28.3278 23.2586 27.7481 23.3697 27.1887C23.4807 26.6293 23.7553 26.1155 24.1585 25.7122C24.5618 25.309 25.0756 25.0344 25.635 24.9234C26.1944 24.8123 26.7741 24.8697 27.3008 25.0882C27.8276 25.3068 28.2776 25.6767 28.594 26.1512C28.9104 26.6257 29.0789 27.1834 29.0782 27.7537C29.0772 28.5167 28.7737 29.2483 28.2341 29.7878C27.6945 30.3274 26.963 30.6309 26.2 30.6319ZM26.2 26.3346C25.9193 26.3346 25.6449 26.4178 25.4115 26.5737C25.1782 26.7297 24.9963 26.9513 24.8889 27.2106C24.7815 27.4699 24.7534 27.7552 24.8081 28.0305C24.8629 28.3058 24.998 28.5587 25.1965 28.7571C25.395 28.9556 25.6478 29.0907 25.9231 29.1455C26.1984 29.2003 26.4837 29.1722 26.743 29.0647C27.0023 28.9573 27.224 28.7754 27.3799 28.5421C27.5358 28.3087 27.6191 28.0343 27.6191 27.7537C27.6181 27.3776 27.4683 27.0172 27.2023 26.7513C26.9364 26.4853 26.576 26.3355 26.2 26.3346Z" fill="white"/>
<path d="M33.4063 30.6319C32.8361 30.6319 32.2788 30.4628 31.8048 30.146C31.3308 29.8291 30.9614 29.3788 30.7434 28.852C30.5254 28.3252 30.4686 27.7456 30.5801 27.1865C30.6916 26.6273 30.9664 26.1138 31.3698 25.711C31.7732 25.3081 32.287 25.0339 32.8463 24.9231C33.4056 24.8123 33.9851 24.8699 34.5116 25.0886C35.0382 25.3073 35.488 25.6772 35.8042 26.1516C36.1205 26.626 36.2889 27.1835 36.2881 27.7537C36.2872 28.5174 35.9831 29.2494 35.4428 29.7891C34.9024 30.3288 34.17 30.6319 33.4063 30.6319ZM33.4063 26.3346C33.1256 26.3346 32.8512 26.4178 32.6179 26.5737C32.3845 26.7297 32.2026 26.9513 32.0952 27.2106C31.9878 27.4699 31.9597 27.7552 32.0144 28.0305C32.0692 28.3058 32.2044 28.5587 32.4028 28.7571C32.6013 28.9556 32.8541 29.0907 33.1294 29.1455C33.4047 29.2003 33.69 29.1722 33.9493 29.0647C34.2086 28.9573 34.4303 28.7754 34.5862 28.5421C34.7421 28.3087 34.8254 28.0343 34.8254 27.7537C34.8244 27.3776 34.6746 27.0172 34.4087 26.7513C34.1427 26.4854 33.7823 26.3355 33.4063 26.3346Z" fill="white"/>
<path d="M31.2442 26.3091H28.3623V27.75H31.2442V26.3091Z" fill="white"/>
<path d="M38.7093 30.6319L37.8658 29.4879L39.1276 28.4874C39.4105 28.2584 39.6015 27.9287 39.6634 27.5621L39.9054 26.2424C39.9407 26.0643 39.9376 25.8804 39.8964 25.7037C39.8552 25.527 39.7768 25.3619 39.6669 25.2203C39.5814 25.1093 39.4731 25.0195 39.3499 24.9575C39.2267 24.8954 39.0917 24.8627 38.9548 24.8617H37.7275V23.4272H38.9651C39.3062 23.4292 39.6426 23.5094 39.9504 23.6619C40.2581 23.8144 40.5296 24.0355 40.7455 24.3095C40.9865 24.6145 41.1595 24.971 41.2522 25.3536C41.3448 25.7361 41.3547 26.1351 41.2813 26.5221L41.0359 27.8419C40.9124 28.5507 40.5436 29.1884 39.9988 29.6349L38.7093 30.6319Z" fill="white"/>
<path d="M20.2773 29.9117L18.8985 28.8961C18.4173 28.5404 18.0369 28.0749 17.792 27.5421C17.5151 26.924 17.4762 26.2318 17.6824 25.5889L19.0364 25.9985C18.9386 26.3104 18.9498 26.6444 19.0682 26.9497C19.2184 27.2969 19.4625 27.5995 19.7753 27.8264L21.1541 28.842L20.2773 29.9117Z" fill="white"/>
<path d="M29.4222 63.0529C21.7639 63.0529 14.3869 61.7886 8.09154 59.3991L7.46777 59.1633L8.87034 54.3094C10.3378 49.4983 13.5107 45.3408 17.5742 42.8799L18.3278 44.105C14.5527 46.3766 11.6142 50.2483 10.2513 54.713L9.21648 58.2847C15.2126 60.4634 22.1966 61.61 29.4077 61.61C36.6189 61.61 43.6462 60.4563 49.6567 58.2633L48.6219 54.6915C47.5163 51.0545 45.3484 47.8232 42.3914 45.4051L43.3073 44.2907C46.4903 46.8954 48.8238 50.3752 50.0137 54.2915L51.4162 59.1419L50.7961 59.3776C44.4863 61.7814 37.0876 63.0529 29.4222 63.0529Z" fill="white"/>
<path d="M5.92466 57.289L4.58496 56.8979L5.83442 52.4329C7.00433 48.447 9.25646 44.884 12.3282 42.1592L13.2306 43.247C10.3659 45.7959 8.26487 49.1238 7.17066 52.8453L5.92466 57.289Z" fill="white"/>
<path d="M14.8467 42.8801L13.9512 41.6434C14.3971 41.3162 14.8618 41.0041 15.3266 40.7188L16.1126 42.024C15.6856 42.2865 15.2548 42.5757 14.8467 42.8801Z" fill="white"/>
<path d="M16.8364 56.5688H15.3955V61.6121H16.8364V56.5688Z" fill="white"/>
<path d="M43.4878 56.5688H42.0469V60.8916H43.4878V56.5688Z" fill="white"/>
<path d="M36.1279 20.5452C35.6977 20.549 35.2683 20.5065 34.8457 20.4182L35.093 19.1045C35.4785 19.1824 35.8704 19.2149 36.2622 19.2014L36.2866 20.5385L36.1279 20.5452Z" fill="white"/>
<path d="M33.7692 19.825C30.7365 19.1288 27.9881 17.6303 25.8593 15.5124L24.7617 14.1573L25.9398 13.3408L27.0374 14.6959C28.9667 16.5586 31.4242 17.8795 34.1278 18.5072L33.7692 19.825Z" fill="white"/>
<path d="M29.7934 39.2778C28.194 39.2762 26.644 38.7379 25.4044 37.7537L23.3704 36.1663C22.4453 35.4221 21.7019 34.4866 21.1941 33.4279C20.6863 32.3691 20.4269 31.2136 20.4347 30.0451V25.5078L23.6625 15.5024L24.51 16.3909C24.5569 16.4401 29.1984 21.1706 37.7636 22.621L39.1665 22.9265V30.0346C39.1743 31.2031 38.9149 32.3586 38.4072 33.4174C37.8994 34.4761 37.156 35.4115 36.2309 36.1558L34.1933 37.7431C32.953 38.7348 31.3981 39.2771 29.7934 39.2778ZM21.8809 25.722V30.0451C21.8735 31.0026 22.0845 31.9498 22.4986 32.8182C22.9127 33.6867 23.5196 34.4548 24.2756 35.0671L26.3132 36.6545C27.2946 37.438 28.5244 37.8662 29.7934 37.8662C31.0624 37.8662 32.2923 37.438 33.2736 36.6545L35.3113 35.0636C36.0713 34.4542 36.6824 33.6876 37.1004 32.8196C37.5183 31.9516 37.7326 31.0038 37.7276 30.0451V24.0749L37.4859 24.0223C30.5399 22.8458 26.1076 19.6781 24.3333 18.175L21.8809 25.722Z" fill="white"/>
<path d="M20.1724 26.3095C17.7012 22.0487 16.9676 18.3311 18.0145 15.2669C18.7155 13.2375 20.1747 11.5561 22.0881 10.5729C23.8472 7.35596 28.1772 6.0351 32.728 7.37726C37.5707 8.79754 42.887 13.5555 41.9363 22.3718L40.512 22.2191C41.3666 14.2798 36.6378 9.99767 32.322 8.74428C28.341 7.58675 24.6092 8.70167 23.2454 11.4499L23.1243 11.6878L22.8786 11.7908C21.2257 12.6019 19.9594 14.0292 19.3534 15.764C18.4632 18.4199 19.154 21.7327 21.4045 25.6136L20.1724 26.3095Z" fill="white"/>
<path d="M35.5497 9.73859H34.0976C34.0976 8.4598 33.6062 7.23339 32.7314 6.32915C31.8566 5.42491 30.6701 4.91692 29.433 4.91692C28.1958 4.91692 27.0093 5.42491 26.1346 6.32915C25.2598 7.23339 24.7683 8.4598 24.7683 9.73859H23.3163C23.2964 8.89459 23.44 8.05501 23.7388 7.26925C24.0375 6.4835 24.4853 5.76745 25.0557 5.16326C25.6262 4.55906 26.3078 4.07892 27.0605 3.7511C27.8131 3.42328 28.6217 3.25439 29.4384 3.25439C30.2552 3.25439 31.0637 3.42328 31.8164 3.7511C32.569 4.07892 33.2506 4.55906 33.8211 5.16326C34.3916 5.76745 34.8393 6.4835 35.1381 7.26925C35.4368 8.05501 35.5804 8.89459 35.5606 9.73859H35.5497Z" fill="white"/>
<path d="M32.1544 52.2462C24.6204 49.5762 24.0572 42.435 24.0352 41.1139V39.2778H25.5074V41.0754H25.4595L25.5074 41.0964C25.5074 41.17 25.4742 48.3708 32.6808 50.9077L32.1544 52.2462Z" fill="white"/>
<path d="M29.6795 50.8053L29.0801 49.5529C33.5076 47.3733 33.4803 41.1045 33.4803 41.0422V39.2778H34.8427V41.0492C34.8529 41.3155 34.9006 48.2348 29.6795 50.8053Z" fill="white"/>
<path d="M29.0986 59.4505L28.8342 59.3461C22.2961 56.751 18.3839 53.0724 17.2085 48.4149C15.322 40.9463 21.1635 33.8124 21.4136 33.5137L22.514 34.4423C22.4569 34.5107 16.8941 41.3206 18.584 48.0658C19.6237 52.1834 23.1571 55.4876 29.0808 57.8956C35.0044 55.4876 38.5343 52.1834 39.5776 48.0658C41.2853 41.3206 35.719 34.5107 35.6475 34.4423L36.7479 33.5137C36.998 33.8124 42.8395 40.9463 40.9566 48.4149C39.7812 53.0724 35.869 56.751 29.3273 59.3461L29.0986 59.4505Z" fill="white"/>
<path d="M29.8062 45.7618C28.2762 45.7598 26.8095 45.152 25.7276 44.0715C24.6457 42.991 24.0371 41.5261 24.0352 39.998H25.5046C25.5046 41.1355 25.957 42.2264 26.7623 43.0307C27.5677 43.835 28.66 44.2869 29.7989 44.2869C30.9378 44.2869 32.0301 43.835 32.8354 43.0307C33.6408 42.2264 34.0932 41.1355 34.0932 39.998H35.5626C35.5607 41.5236 34.9541 42.9862 33.8754 44.0663C32.7967 45.1464 31.3337 45.756 29.8062 45.7618Z" fill="white"/>
</svg>
