<svg width="55" height="65" viewBox="0 0 55 65" fill="none" xmlns="http://www.w3.org/2000/svg">
<path d="M31.6301 40.3321C31.1651 40.3319 30.7012 40.287 30.2448 40.1982L30.5794 38.5252C31.3862 38.6788 32.2169 38.6525 33.0123 38.4481C33.8078 38.2437 34.5483 37.8663 35.1811 37.3428C35.8139 36.8193 36.3234 36.1626 36.6732 35.4196C37.023 34.6765 37.2045 33.8654 37.2048 33.0442V32.9639C37.2217 32.6045 37.1992 32.2443 37.1378 31.8898L37.0408 31.4481L38.1885 30.2635C38.564 29.8966 38.8065 29.4151 38.8778 28.8949V28.8347L39.1757 27.5933C39.2503 27.2451 39.2085 26.882 39.0568 26.5598C38.905 26.2376 38.6517 25.9741 38.3358 25.8098L37.5595 25.4752L37.8941 24.6955C38.4904 23.343 38.797 21.8806 38.7942 20.4024C38.7942 14.3459 33.7147 9.41699 27.4675 9.41699C21.2202 9.41699 16.1742 14.3425 16.1742 20.3991C16.174 21.8723 16.4794 23.3296 17.071 24.6788L17.4056 25.4584L16.6293 25.7931C16.3096 25.9577 16.0537 26.2238 15.9017 26.5497C15.7497 26.8755 15.7102 27.2426 15.7894 27.5933L16.0972 28.8949C16.1704 29.4178 16.4153 29.9016 16.7932 30.2702L16.8367 30.3104L17.941 31.4548L17.8473 31.8998C17.7859 32.2498 17.7635 32.6056 17.7803 32.9605V33.0442C17.78 33.8678 17.9619 34.6814 18.313 35.4264C18.6642 36.1715 19.1759 36.8296 19.8115 37.3535C20.447 37.8774 21.1907 38.2542 21.989 38.4568C22.7874 38.6593 23.6207 38.6827 24.4292 38.5252L24.7638 40.1982C23.7085 40.4049 22.6205 40.3752 21.5781 40.1111C20.5357 39.8471 19.5648 39.3554 18.7351 38.6713C17.9055 37.9872 17.2377 37.1278 16.7798 36.1548C16.322 35.1818 16.0854 34.1195 16.0872 33.0442V32.9572C16.0872 32.6226 16.0872 32.3047 16.1173 32.0002L15.6388 31.5016C14.9919 30.8872 14.5681 30.0748 14.4342 29.1927L14.1264 27.8878C14.0194 27.3034 14.0661 26.7013 14.262 26.1405C14.458 25.5796 14.7964 25.0794 15.244 24.6888C14.7324 23.3143 14.4718 21.859 14.4744 20.3924C14.4744 13.3989 20.3167 7.71045 27.4976 7.71045C34.6784 7.71045 40.5208 13.3989 40.5208 20.3924C40.5229 21.8587 40.2634 23.3136 39.7545 24.6888C40.2013 25.08 40.5392 25.5803 40.735 26.141C40.9309 26.7016 40.9781 27.3034 40.8722 27.8878V27.948L40.5743 29.1927C40.4405 30.0748 40.0166 30.8872 39.3697 31.5016L38.8778 32.0069C38.908 32.3114 38.908 32.6159 38.908 32.9706V33.0442C38.908 34.9753 38.1415 36.8275 36.7769 38.194C35.4123 39.5604 33.5612 40.3294 31.6301 40.3321Z" fill="white"/>
<path d="M20.5178 19.9943H18.8213C18.8303 18.111 19.5209 16.2948 20.7654 14.8813C21.6109 13.9334 22.6494 13.1772 23.8111 12.6636C24.9729 12.1499 26.231 11.8907 27.5012 11.9033V13.5998C26.4732 13.5879 25.4545 13.7969 24.5142 14.2125C23.5738 14.6281 22.7336 15.2408 22.0503 16.009C21.0683 17.1047 20.523 18.5229 20.5178 19.9943Z" fill="white"/>
<path d="M29.984 14.0179C29.5852 13.879 29.1756 13.7738 28.7593 13.7034L29.0404 12.0303C29.5522 12.1162 30.0558 12.245 30.5461 12.4151L29.984 14.0179Z" fill="white"/>
<path d="M27.5014 41.5369C26.7939 41.5369 26.1023 41.3271 25.5141 40.9341C24.9258 40.541 24.4673 39.9823 24.1966 39.3287C23.9259 38.6751 23.855 37.9559 23.993 37.262C24.1311 36.5681 24.4717 35.9308 24.972 35.4305C25.4723 34.9302 26.1096 34.5896 26.8035 34.4515C27.4974 34.3135 28.2166 34.3844 28.8702 34.6551C29.5238 34.9258 30.0825 35.3843 30.4755 35.9726C30.8686 36.5608 31.0784 37.2524 31.0784 37.9599C31.0784 38.9085 30.7015 39.8184 30.0307 40.4892C29.3599 41.16 28.45 41.5369 27.5014 41.5369ZM27.5014 36.0827C27.1293 36.0827 26.7656 36.193 26.4562 36.3998C26.1469 36.6066 25.9059 36.9005 25.7636 37.2443C25.6214 37.5881 25.5844 37.9664 25.6572 38.3313C25.73 38.6962 25.9095 39.0313 26.1728 39.2941C26.4361 39.557 26.7715 39.7358 27.1365 39.808C27.5015 39.8802 27.8798 39.8425 28.2233 39.6996C28.5669 39.5568 28.8604 39.3152 29.0666 39.0055C29.2728 38.6958 29.3825 38.3319 29.3819 37.9599C29.381 37.4617 29.1825 36.9842 28.8299 36.6323C28.4773 36.2803 27.9995 36.0827 27.5014 36.0827Z" fill="white"/>
<path d="M30.4258 37.8959V36.1994C30.7893 36.2006 31.148 36.1162 31.4728 35.9528C31.7975 35.7895 32.0792 35.5518 32.2949 35.2592C32.5106 34.9666 32.6543 34.6273 32.7142 34.2687C32.7742 33.9102 32.7488 33.5425 32.6401 33.1956C32.5314 32.8488 32.3424 32.5324 32.0885 32.2722C31.8346 32.0121 31.5229 31.8155 31.1787 31.6983C30.8346 31.5812 30.4677 31.5469 30.1078 31.5981C29.7479 31.6494 29.4052 31.7847 29.1074 31.9933C28.6356 32.3217 28.0745 32.4978 27.4996 32.4978C26.9247 32.4978 26.3636 32.3217 25.8917 31.9933C25.5942 31.7869 25.2523 31.6535 24.8936 31.6037C24.5349 31.5538 24.1696 31.5891 23.8271 31.7065C23.4845 31.824 23.1744 32.0204 22.9218 32.2798C22.6692 32.5392 22.4811 32.8545 22.3728 33.2C22.2645 33.5455 22.239 33.9117 22.2984 34.2689C22.3577 34.6261 22.5002 34.9643 22.7144 35.2563C22.9286 35.5482 23.2085 35.7857 23.5314 35.9496C23.8543 36.1134 24.2112 36.199 24.5733 36.1994V37.8959C23.9768 37.897 23.3877 37.7644 22.8491 37.5079C22.3106 37.2514 21.8364 36.8774 21.4614 36.4135C21.084 35.9457 20.8157 35.3996 20.6762 34.8149C20.5367 34.2302 20.5294 33.6218 20.655 33.0339C20.7976 32.3905 21.0964 31.7921 21.525 31.2915C21.9535 30.7909 22.4988 30.4034 23.1125 30.1634C23.7262 29.9233 24.3896 29.838 25.0441 29.9149C25.6986 29.9919 26.3241 30.2287 26.8655 30.6046C27.0523 30.7322 27.2733 30.8005 27.4996 30.8005C27.7258 30.8005 27.9468 30.7322 28.1337 30.6046C28.65 30.2386 29.2456 29.9999 29.8718 29.9079C30.4981 29.8159 31.1372 29.8732 31.737 30.0752C32.3368 30.2772 32.8804 30.6181 33.3234 31.0702C33.7664 31.5222 34.0963 32.0726 34.2861 32.6764C34.4759 33.2802 34.5203 33.9204 34.4157 34.5446C34.311 35.1688 34.0603 35.7594 33.6839 36.2683C33.3075 36.7772 32.8162 37.1899 32.25 37.4727C31.6838 37.7556 31.0587 37.9006 30.4258 37.8959Z" fill="white"/>
<path d="M27.6248 65.0001C25.2825 65.0001 22.9402 64.8964 20.628 64.6889C11.7741 63.8892 5.12866 56.2165 5.79789 47.5834C5.79789 47.5466 5.79789 47.5098 5.79789 47.4763V23.2468C5.80409 17.5489 8.07055 12.0862 12.0999 8.05746C16.1293 4.02874 21.5923 1.76313 27.2902 1.75781H27.7085C33.4058 1.76401 38.868 4.03002 42.8967 8.05864C46.9253 12.0873 49.1913 17.5495 49.1975 23.2468V46.7636C49.1975 46.7904 49.1975 46.8238 49.1975 46.8606C49.8868 56.0659 43.4589 63.9026 34.5614 64.699C32.286 64.8964 29.9504 65.0001 27.6248 65.0001ZM27.2902 3.45431C22.0428 3.46051 17.0121 5.54778 13.3017 9.25825C9.5912 12.9687 7.50393 17.9994 7.49773 23.2468V47.4763C7.49773 47.5432 7.49773 47.6202 7.49773 47.7072C6.90212 55.4268 12.8516 62.2831 20.792 62.9991C25.3271 63.4024 29.8891 63.4024 34.4242 62.9991C42.3847 62.2864 48.1435 55.2494 47.5177 46.9744C47.5177 46.8941 47.5177 46.8205 47.5177 46.7535V23.2468C47.5124 17.9997 45.4259 12.969 41.716 9.25845C38.006 5.54789 32.9757 3.46051 27.7286 3.45431H27.2902Z" fill="white"/>
<path d="M48.6726 50.7989C12.166 50.7989 6.54784 33.5127 5.8418 26.0775L7.51487 25.9136C8.1841 32.887 13.538 49.1024 48.6726 49.1024V50.7989Z" fill="white"/>
<path d="M45.4901 57.3442C44.7573 57.3007 43.9844 57.2371 43.198 57.1568L43.372 55.467C44.1349 55.5473 44.8845 55.6075 45.5939 55.651L45.4901 57.3442ZM40.9193 56.8757C40.1787 56.7709 39.4235 56.6527 38.6539 56.521L38.945 54.848C39.6946 54.9785 40.4341 55.0956 41.1535 55.1826L40.9193 56.8757ZM36.4053 56.0961C35.6692 55.9455 34.9196 55.7815 34.1667 55.6075L34.5549 53.9545C35.291 54.1252 36.0239 54.2892 36.7433 54.433L36.4053 56.0961ZM31.9482 55.0521C31.2154 54.858 30.4826 54.6539 29.7431 54.4364L30.225 52.8102C30.9477 53.0198 31.6672 53.2206 32.3832 53.4125L31.9482 55.0521ZM27.5581 53.7538C26.8353 53.5162 26.1092 53.2686 25.3898 53.0076L25.9687 51.4115C26.6714 51.6691 27.3774 51.91 28.0868 52.1443L27.5581 53.7538ZM23.2482 52.1911C22.5322 51.9067 21.8194 51.6055 21.1335 51.3044L21.8027 49.7518C22.4719 50.0462 23.1612 50.3373 23.8606 50.6184L23.2482 52.1911ZM19.0522 50.3373C18.3528 50.0027 17.6669 49.6413 17.0077 49.2833L17.8174 47.7909C18.4532 48.1255 19.1191 48.4802 19.7984 48.8115L19.0522 50.3373ZM15.01 48.1356C14.3408 47.7307 13.6716 47.3091 13.0659 46.8875L14.0262 45.4854C14.6185 45.8903 15.2442 46.2952 15.8901 46.6867L15.01 48.1356ZM11.1954 45.5222C10.5764 45.037 9.9774 44.5351 9.41524 44.0298L10.5496 42.7717C11.0816 43.2502 11.6505 43.7253 12.2227 44.1838L11.1954 45.5222ZM7.7589 42.4137C7.22281 41.8451 6.71578 41.2498 6.23975 40.6302L7.57821 39.5962C8.00986 40.155 8.48167 40.7138 8.99028 41.2525L7.7589 42.4137Z" fill="white"/>
<path d="M27.7087 48.1323L27.2402 46.4994C27.712 46.3655 28.1738 46.225 28.6222 46.0811L29.1375 47.7006C28.6724 47.8479 28.1939 47.9918 27.7087 48.1323ZM31.3158 46.9478L30.7202 45.3583C31.4196 45.0973 32.1089 44.8163 32.7681 44.5251L33.4373 46.0778C32.7647 46.3789 32.0453 46.6734 31.3158 46.9478ZM35.532 45.0906L34.7457 43.5849C35.4149 43.2503 36.0507 42.8755 36.6597 42.5007L37.5497 43.9463C36.914 44.3277 36.238 44.7125 35.532 45.0906ZM39.4838 42.6513L38.48 41.2827C39.0756 40.8477 39.6511 40.3893 40.1898 39.9208L41.3041 41.1991C40.742 41.6876 40.1296 42.1761 39.4938 42.6379L39.4838 42.6513ZM42.9973 39.5795L41.7759 38.3983C42.2779 37.8696 42.753 37.3142 43.1947 36.7487L44.5332 37.786C44.0548 38.4047 43.5456 38.9988 43.0073 39.5661L42.9973 39.5795ZM45.8649 35.8686L44.4194 34.9752C44.8051 34.3516 45.1559 33.707 45.4701 33.0445L47.0026 33.7773C46.6635 34.4893 46.2871 35.1829 45.875 35.8553L45.8649 35.8686ZM47.9128 31.6157L46.2999 31.0368C46.5403 30.3542 46.7447 29.6595 46.9123 28.9555L48.582 29.3637C48.3984 30.1256 48.1751 30.8772 47.9128 31.6157ZM49.0036 27.0515L47.3305 26.8273C47.4277 26.1059 47.488 25.3799 47.5112 24.6523L49.2077 24.7092C49.1575 25.4922 49.094 26.2786 48.9902 27.0515H49.0036Z" fill="white"/>
</svg>
