<svg width="55" height="65" viewBox="0 0 55 65" fill="none" xmlns="http://www.w3.org/2000/svg">
<path d="M23.2216 39.0214C21.3333 39.0187 19.5232 38.2672 18.1883 36.9317C16.8534 35.5962 16.1027 33.7857 16.1009 31.8974V31.8104C16.1009 31.4758 16.1009 31.178 16.1277 30.8835L15.6693 30.4084C15.0373 29.8063 14.622 29.0123 14.4881 28.1497L14.1869 26.8782C14.0822 26.3067 14.1273 25.7178 14.3179 25.1689C14.5085 24.62 14.838 24.1298 15.2744 23.7462C14.779 22.4074 14.5263 20.991 14.5282 19.5635C14.5282 13.2727 19.3601 7.98246 25.7646 7.25635L25.9587 8.92942C20.4108 9.56519 16.2247 14.1293 16.2247 19.5568C16.2225 20.9958 16.5211 22.4194 17.1014 23.7362L17.4361 24.5125L16.6564 24.8471C16.3527 25.0056 16.1094 25.2594 15.9638 25.5694C15.8181 25.8795 15.7781 26.2287 15.85 26.5637L16.1511 27.8352C16.2169 28.344 16.4528 28.8157 16.8204 29.1737L16.8639 29.2172L17.9514 30.3415L17.8543 30.7832C17.796 31.1234 17.7747 31.4689 17.7907 31.8138V31.9041C17.791 32.7041 17.9681 33.4941 18.3093 34.2176C18.6505 34.9412 19.1475 35.5803 19.7646 36.0893C20.3817 36.5984 21.1037 36.9647 21.8789 37.1621C22.6541 37.3595 23.4634 37.3831 24.2488 37.2312L24.5834 38.9043C24.1344 38.9879 23.6783 39.0271 23.2216 39.0214Z" fill="white"/>
<path d="M31.282 39.0215C30.8271 39.0207 30.3734 38.977 29.9268 38.891L30.2614 37.2179C31.047 37.3717 31.8569 37.3494 32.6329 37.1528C33.409 36.9561 34.1317 36.5899 34.7493 36.0805C35.3668 35.5711 35.8638 34.9311 36.2045 34.2067C36.5451 33.4823 36.721 32.6913 36.7195 31.8908V31.8005C36.7355 31.4556 36.7142 31.1101 36.6559 30.7698L36.5588 30.3282L37.6898 29.1603C38.0574 28.8024 38.2933 28.3307 38.3591 27.8219V27.7617L38.6468 26.5537C38.7187 26.2188 38.6787 25.8695 38.533 25.5594C38.3874 25.2494 38.1441 24.9957 37.8404 24.8371L37.0608 24.5025L37.3954 23.7262C37.7169 22.9917 37.9527 22.2226 38.0981 21.4341L39.7711 21.7419C39.6465 22.4188 39.464 23.0838 39.2257 23.7295C39.6621 24.1132 39.9917 24.6033 40.1823 25.1522C40.3729 25.7011 40.418 26.29 40.3132 26.8615V26.9218L40.0154 28.1498C39.8822 29.0135 39.4669 29.8089 38.8342 30.4118L38.3758 30.887C38.4026 31.1814 38.4026 31.4725 38.4026 31.8138V31.9009C38.3999 33.7885 37.6489 35.5982 36.3141 36.933C34.9793 38.2678 33.1696 39.0188 31.282 39.0215Z" fill="white"/>
<path d="M27.2537 40.196C26.5593 40.1967 25.8803 39.9914 25.3027 39.6061C24.725 39.2208 24.2746 38.6728 24.0084 38.0315C23.7422 37.3901 23.6722 36.6843 23.8073 36.0032C23.9423 35.322 24.2764 34.6963 24.7671 34.2051C25.2579 33.7138 25.8833 33.3792 26.5643 33.2435C27.2453 33.1078 27.9513 33.1771 28.5928 33.4427C29.2344 33.7082 29.7828 34.1581 30.1687 34.7354C30.5545 35.3127 30.7605 35.9915 30.7605 36.6859C30.7596 37.616 30.3899 38.5078 29.7326 39.1658C29.0752 39.8237 28.1838 40.1942 27.2537 40.196ZM27.2537 34.8756C26.8947 34.875 26.5436 34.9808 26.2448 35.1799C25.9461 35.3789 25.7131 35.6621 25.5754 35.9937C25.4378 36.3252 25.4016 36.6901 25.4714 37.0422C25.5413 37.3944 25.7141 37.7178 25.9679 37.9717C26.2218 38.2255 26.5452 38.3983 26.8974 38.4682C27.2495 38.538 27.6144 38.5018 27.9459 38.3642C28.2775 38.2265 28.5607 37.9935 28.7597 37.6947C28.9587 37.396 29.0646 37.0449 29.064 36.6859C29.0631 36.206 28.8721 35.7461 28.5328 35.4068C28.1935 35.0675 27.7335 34.8765 27.2537 34.8756Z" fill="white"/>
<path d="M30.1776 36.7362V35.0397C30.5403 35.0394 30.8977 34.9539 31.2212 34.79C31.5447 34.626 31.8251 34.3883 32.0397 34.0961C32.2543 33.8038 32.3972 33.4651 32.4568 33.1074C32.5164 32.7497 32.491 32.383 32.3827 32.0369C32.2744 31.6908 32.0862 31.3751 31.8333 31.1152C31.5805 30.8553 31.27 30.6585 30.927 30.5407C30.5841 30.4229 30.2182 30.3874 29.859 30.4371C29.4998 30.4869 29.1573 30.6204 28.8593 30.8269C28.3883 31.156 27.8276 31.3324 27.2531 31.3324C26.6786 31.3324 26.1179 31.156 25.6469 30.8269C25.146 30.4816 24.5304 30.3448 23.9304 30.4454C23.359 30.5437 22.8454 30.853 22.4914 31.312C22.1373 31.7711 21.9686 32.3464 22.0187 32.9239C22.0688 33.5015 22.334 34.0392 22.7619 34.4304C23.1897 34.8217 23.7488 35.0379 24.3286 35.0363V36.7328C23.6961 36.7368 23.0716 36.5913 22.506 36.3081C21.9404 36.025 21.4497 35.6123 21.0739 35.1036C20.698 34.5948 20.4477 34.0045 20.3432 33.3807C20.2388 32.7569 20.2831 32.1172 20.4727 31.5138C20.6624 30.9104 20.9918 30.3604 21.4343 29.9084C21.8768 29.4565 22.4198 29.1154 23.0191 28.9131C23.6183 28.7108 24.2569 28.6529 24.8828 28.7442C25.5087 28.8354 26.1041 29.0732 26.6207 29.4382C26.8075 29.5658 27.0285 29.6341 27.2548 29.6341C27.481 29.6341 27.702 29.5658 27.8889 29.4382C28.4055 29.0731 29.0012 28.8353 29.6272 28.7441C30.2532 28.6529 30.8919 28.7109 31.4913 28.9134C32.0906 29.1159 32.6337 29.4571 33.0761 29.9093C33.5185 30.3615 33.8479 30.9118 34.0373 31.5155C34.2267 32.1191 34.2707 32.7589 34.1659 33.3828C34.0611 34.0067 33.8104 34.597 33.4341 35.1056C33.0579 35.6142 32.5668 36.0267 32.0009 36.3095C31.435 36.5922 30.8103 36.7373 30.1776 36.7328V36.7362Z" fill="white"/>
<path d="M34.6986 17.1947C34.1411 17.1947 33.5933 17.0494 33.1091 16.7731C32.4445 16.3872 31.9427 15.773 31.6973 15.0447C31.4518 14.3165 31.4793 13.5238 31.7748 12.8144C32.0702 12.1049 32.6134 11.527 33.3033 11.1882C33.9931 10.8495 34.7825 10.773 35.5246 10.9729C36.2666 11.1729 36.9107 11.6357 37.3369 12.2752C37.7631 12.9147 37.9424 13.6873 37.8414 14.4492C37.7403 15.211 37.3659 15.9102 36.7877 16.4165C36.2096 16.9228 35.4671 17.2017 34.6986 17.2014V17.1947ZM34.6986 12.5502C34.4398 12.5507 34.1856 12.6189 33.9614 12.748C33.7371 12.8772 33.5506 13.0628 33.4203 13.2864C33.2262 13.6242 33.1739 14.0252 33.2749 14.4015C33.3758 14.7779 33.6219 15.0988 33.9591 15.2941C34.2986 15.479 34.6962 15.5266 35.0697 15.4269C35.4433 15.3273 35.7644 15.0881 35.9668 14.7587C36.0967 14.535 36.1654 14.2811 36.1659 14.0225C36.1665 13.7639 36.099 13.5096 35.9701 13.2854C35.8412 13.0612 35.6555 12.8749 35.4317 12.7452C35.2079 12.6156 34.9539 12.5472 34.6952 12.5469L34.6986 12.5502Z" fill="white"/>
<path d="M31.8511 14.568C30.1595 14.514 28.5344 13.897 27.2334 12.8146C26.0856 11.8108 25.2089 10.0306 27.5379 7.41056C30.1479 4.47598 32.1121 5.43633 33.0523 6.27287C34.2804 7.36371 35.4482 9.80306 35.1872 11.8342L33.5141 11.6167C33.6914 10.2448 32.8248 8.33075 31.9347 7.54106C31.6001 7.23656 30.6866 6.43348 28.8161 8.54491C27.2568 10.2983 27.7688 11.0177 28.3711 11.5564C29.2344 12.3261 31.0112 13.0254 32.2827 12.8548L32.5136 14.5278C32.294 14.5569 32.0726 14.5703 31.8511 14.568Z" fill="white"/>
<path d="M38.8945 22.1802C38.1003 22.1532 37.3443 21.8324 36.773 21.2801C35.6219 20.2762 34.4307 18.1481 34.4575 16.2608L36.154 16.2943C36.1306 17.5759 37.0374 19.259 37.9007 20.0252C38.503 20.5606 39.2759 20.9889 40.8386 19.2322C42.7091 17.1275 41.8023 16.3211 41.461 16.0166C40.5709 15.2269 38.5699 14.5911 37.2247 14.9291L36.8132 13.2828C38.8008 12.7842 41.3572 13.6542 42.5886 14.7484C43.5289 15.5849 44.7134 17.4253 42.1068 20.3599C40.8854 21.705 39.818 22.1802 38.8945 22.1802Z" fill="white"/>
<path d="M27.6248 64.1212C25.2825 64.1212 22.9402 64.0175 20.628 63.81C11.7741 63.0103 5.12866 55.3376 5.79789 46.7045C5.79789 46.6677 5.79789 46.6309 5.79789 46.5974V22.3679C5.80409 16.67 8.07055 11.2073 12.0999 7.17856C16.1293 3.14983 21.5923 0.884221 27.2902 0.878906H27.7085C33.4058 0.885106 38.868 3.15111 42.8967 7.17974C46.9253 11.2084 49.1913 16.6706 49.1975 22.3679V45.8847C49.1975 45.9114 49.1975 45.9449 49.1975 45.9817C49.8868 55.187 43.4589 63.0237 34.5614 63.8201C32.286 64.0175 29.9504 64.1212 27.6248 64.1212ZM27.2902 2.57541C22.0428 2.58161 17.0121 4.66887 13.3017 8.37934C9.5912 12.0898 7.50393 17.1205 7.49773 22.3679V46.5974C7.49773 46.6643 7.49773 46.7413 7.49773 46.8283C6.90212 54.5479 12.8516 61.4041 20.792 62.1202C25.3271 62.5235 29.8891 62.5235 34.4242 62.1202C42.3847 61.4075 48.1435 54.3705 47.5177 46.0955C47.5177 46.0152 47.5177 45.9416 47.5177 45.8746V22.3679C47.5124 17.1208 45.4259 12.0901 41.716 8.37955C38.006 4.66898 32.9757 2.58161 27.7286 2.57541H27.2902Z" fill="white"/>
<path d="M48.6726 49.92C12.166 49.92 6.54784 32.6338 5.8418 25.1986L7.51487 25.0347C8.1841 32.0081 13.538 48.2235 48.6726 48.2235V49.92Z" fill="white"/>
<path d="M45.4901 56.4653C44.7573 56.4218 43.9844 56.3582 43.198 56.2779L43.372 54.5881C44.1349 54.6684 44.8845 54.7286 45.5939 54.7721L45.4901 56.4653ZM40.9193 55.9968C40.1787 55.892 39.4235 55.7737 38.6539 55.6421L38.945 53.9691C39.6946 54.0996 40.4341 54.2167 41.1535 54.3037L40.9193 55.9968ZM36.4053 55.2172C35.6692 55.0666 34.9196 54.9026 34.1667 54.7286L34.5549 53.0756C35.291 53.2463 36.0239 53.4102 36.7433 53.5541L36.4053 55.2172ZM31.9482 54.1732C31.2154 53.9791 30.4826 53.775 29.7431 53.5575L30.225 51.9312C30.9477 52.1409 31.6672 52.3417 32.3832 52.5336L31.9482 54.1732ZM27.5581 52.8749C26.8353 52.6373 26.1092 52.3897 25.3898 52.1287L25.9687 50.5326C26.6714 50.7902 27.3774 51.0311 28.0868 51.2654L27.5581 52.8749ZM23.2482 51.3122C22.5322 51.0278 21.8194 50.7266 21.1335 50.4255L21.8027 48.8729C22.4719 49.1673 23.1612 49.4584 23.8606 49.7395L23.2482 51.3122ZM19.0522 49.4584C18.3528 49.1238 17.6669 48.7624 17.0077 48.4044L17.8174 46.912C18.4532 47.2466 19.1191 47.6013 19.7984 47.9326L19.0522 49.4584ZM15.01 47.2567C14.3408 46.8518 13.6716 46.4302 13.0659 46.0086L14.0262 44.6065C14.6185 45.0114 15.2442 45.4163 15.8901 45.8078L15.01 47.2567ZM11.1954 44.6433C10.5764 44.1581 9.9774 43.6562 9.41524 43.1509L10.5496 41.8928C11.0816 42.3713 11.6505 42.8464 12.2227 43.3049L11.1954 44.6433ZM7.7589 41.5347C7.22281 40.9662 6.71578 40.3709 6.23975 39.7512L7.57821 38.7173C8.00986 39.2761 8.48167 39.8349 8.99028 40.3736L7.7589 41.5347Z" fill="white"/>
<path d="M27.7087 47.2534L27.2402 45.6205C27.712 45.4866 28.1738 45.3461 28.6222 45.2022L29.1375 46.8217C28.6724 46.969 28.1939 47.1128 27.7087 47.2534ZM31.3158 46.0688L30.7202 44.4794C31.4196 44.2184 32.1089 43.9373 32.7681 43.6462L33.4373 45.1988C32.7647 45.5 32.0453 45.7945 31.3158 46.0688ZM35.532 44.2117L34.7457 42.706C35.4149 42.3713 36.0507 41.9966 36.6597 41.6218L37.5497 43.0674C36.914 43.4488 36.238 43.8336 35.532 44.2117ZM39.4838 41.7724L38.48 40.4038C39.0756 39.9688 39.6511 39.5104 40.1898 39.0419L41.3041 40.3202C40.742 40.8087 40.1296 41.2972 39.4938 41.759L39.4838 41.7724ZM42.9973 38.7006L41.7759 37.5194C42.2779 36.9907 42.753 36.4353 43.1947 35.8698L44.5332 36.9071C44.0548 37.5258 43.5456 38.1199 43.0073 38.6872L42.9973 38.7006ZM45.8649 34.9897L44.4194 34.0963C44.8051 33.4727 45.1559 32.8281 45.4701 32.1656L47.0026 32.8984C46.6635 33.6104 46.2871 34.304 45.875 34.9764L45.8649 34.9897ZM47.9128 30.7368L46.2999 30.1579C46.5403 29.4753 46.7447 28.7806 46.9123 28.0766L48.582 28.4848C48.3984 29.2467 48.1751 29.9983 47.9128 30.7368ZM49.0036 26.1726L47.3305 25.9484C47.4277 25.227 47.488 24.501 47.5112 23.7734L49.2077 23.8303C49.1575 24.6133 49.094 25.3997 48.9902 26.1726H49.0036Z" fill="white"/>
</svg>
