<svg width="56" height="66" viewBox="0 0 56 66" fill="none" xmlns="http://www.w3.org/2000/svg">
<path d="M28.12 41.9336C25.9335 41.9582 23.7931 41.3048 21.9932 40.0631L22.7862 38.9556C24.3655 40.0093 26.2215 40.5716 28.12 40.5716C30.0185 40.5716 31.8745 40.0093 33.4537 38.9556L34.2468 40.0631C32.4475 41.3062 30.3067 41.9598 28.12 41.9336Z" fill="white"/>
<path d="M28.3541 61.619C20.765 61.619 13.457 60.3542 7.21309 57.965L6.63086 57.7275L8.01617 52.899C9.68924 47.3276 13.4503 42.8605 18.3089 40.6654L22.3912 38.815V34.4081H23.7531V39.7084L18.8744 41.9202C14.3705 43.9647 10.8905 48.1106 9.32117 53.2972L8.30394 56.911C14.2601 59.0994 21.1833 60.2572 28.3809 60.2572C35.5784 60.2572 42.5317 59.096 48.5013 56.8943L47.4539 53.2905C45.8879 48.1106 42.4046 43.9647 37.9007 41.9135L33.0186 39.7017V33.9263H34.3805V38.8284L38.4628 40.6788C43.3248 42.8873 47.0792 47.341 48.7623 52.9023L50.1309 57.7275L49.5486 57.9517C43.2947 60.3475 35.9666 61.619 28.3541 61.619Z" fill="white"/>
<path d="M15.066 56.1216H13.7041V59.5012H15.066V56.1216Z" fill="white"/>
<path d="M41.6051 55.6396H40.2432V59.5011H41.6051V55.6396Z" fill="white"/>
<path d="M27.5509 40.8649L23.5332 44.0757L24.3834 45.1396L28.4011 41.9288L27.5509 40.8649Z" fill="white"/>
<path d="M28.7721 40.8235L27.959 41.916L32.3155 45.1586L33.1287 44.0661L28.7721 40.8235Z" fill="white"/>
<path d="M28.8033 53.6454H27.4414V51.8285H28.8033V53.6454ZM28.8033 50.0115H27.4414V48.1945H28.8033V50.0115ZM28.8033 46.3776H27.4414V44.564H28.8033V46.3776Z" fill="white"/>
<path d="M19.2556 27.7929L18.0075 26.7623C17.4603 26.3015 17.0949 25.661 16.9769 24.9554L16.726 23.5969C16.6536 23.1975 16.6681 22.7872 16.7686 22.394C16.869 22.0008 17.0531 21.6338 17.3082 21.3181C17.513 21.0625 17.7721 20.8554 18.0666 20.7119C18.3611 20.5684 18.6838 20.492 19.0114 20.4883H20.2394V21.8502H19.0114C18.8821 21.8533 18.7551 21.885 18.6394 21.9428C18.5238 22.0006 18.4223 22.0833 18.3421 22.1848C18.2128 22.3471 18.1201 22.5356 18.0704 22.7372C18.0207 22.9388 18.0152 23.1487 18.0544 23.3526L18.2986 24.7111C18.3568 25.101 18.5527 25.4571 18.8508 25.715L20.1056 26.7456L19.2556 27.7929Z" fill="white"/>
<path d="M39.8909 19.6452L38.6193 19.16C38.871 18.5471 38.9898 17.8879 38.9679 17.2257C38.9459 16.5635 38.7838 15.9135 38.4922 15.3186L39.67 14.6494C40.0598 15.4186 40.2811 16.262 40.3191 17.1235C40.3572 17.985 40.2112 18.8446 39.8909 19.6452Z" fill="white"/>
<path d="M28.1359 37.2694C26.5784 37.2737 25.0661 36.746 23.8494 35.7737L21.8719 34.1843C20.9703 33.437 20.246 32.4989 19.7513 31.4376C19.2565 30.3763 19.0036 29.2184 19.0109 28.0474V21.8604C19.1113 19.4211 19.988 18.1796 20.7074 17.5405L21.6042 18.5778C21.0855 19.0329 20.4531 19.9765 20.3728 21.9039V28.0608C20.3637 29.0275 20.569 29.9841 20.9741 30.8618C21.3791 31.7396 21.9737 32.5166 22.7151 33.1369L24.6927 34.723C25.6691 35.4997 26.8799 35.9225 28.1275 35.9225C29.3751 35.9225 30.5859 35.4997 31.5623 34.723L33.5399 33.1369C34.2813 32.5166 34.8759 31.7396 35.2809 30.8618C35.6859 29.9841 35.8913 29.0275 35.8822 28.0608V20.455H37.2407C37.6019 20.4576 37.958 20.54 38.2837 20.6961C38.6094 20.8523 38.8965 21.0785 39.1246 21.3585C39.3801 21.6711 39.5635 22.0362 39.6618 22.4277C39.7601 22.8192 39.7709 23.2276 39.6935 23.6238L39.4291 25.0158C39.2938 25.7487 38.8937 26.4061 38.3048 26.8629L37.2441 27.676V28.0474C37.2538 29.2168 37.0041 30.3737 36.5128 31.4349C36.0216 32.4961 35.3011 33.4351 34.4032 34.1843L32.4256 35.7737C31.2076 36.746 29.6943 37.2737 28.1359 37.2694ZM37.2642 21.8169V25.9628L37.4951 25.7821C37.8152 25.5332 38.0339 25.1764 38.1107 24.7783L38.3751 23.3863C38.4159 23.1871 38.4119 22.9814 38.3633 22.784C38.3146 22.5867 38.2227 22.4026 38.094 22.2452C37.9967 22.1161 37.8716 22.0106 37.7279 21.9365C37.5843 21.8623 37.4258 21.8215 37.2642 21.8169Z" fill="white"/>
<path d="M17.0238 19.645C16.8787 18.6588 16.9516 17.6528 17.2372 16.6978C17.5228 15.7428 18.0141 14.8619 18.6768 14.1172L19.7007 15.0173C19.1653 15.6165 18.7679 16.3259 18.5367 17.0955C18.3054 17.865 18.2458 18.676 18.3622 19.471L17.0238 19.645Z" fill="white"/>
<path d="M37.3385 21.4553H35.9766C35.9766 20.1503 35.6119 19.2803 34.8623 18.7985C33.283 17.7946 30.4789 18.7081 29.9937 18.9323L29.6758 19.0796C28.7422 19.5212 27.1796 20.2507 25.7039 20.2507C24.3817 20.2506 23.0822 19.9073 21.9325 19.2544C20.7827 18.6015 19.8221 17.6613 19.1446 16.5259C18.4671 15.3905 18.0958 14.0987 18.0672 12.7768C18.0386 11.4549 18.3536 10.1482 18.9813 8.98456C19.609 7.82088 20.528 6.84006 21.6485 6.13801C22.7689 5.43596 24.0523 5.03673 25.3733 4.97936C26.6942 4.922 28.0074 5.20846 29.1845 5.81074C30.3615 6.41302 31.3621 7.31048 32.0884 8.41536C33.5473 10.0884 34.6348 9.41921 35.7692 8.71317L36.4953 8.27817L36.87 8.70313C38.8777 10.9618 38.8777 13.8897 36.9135 16.7339L35.7926 15.9609C36.6659 14.6994 37.8003 12.317 36.2008 10.0449C35.023 10.7443 33.0688 11.6578 31.0143 9.27532L30.9574 9.19836C30.3623 8.28865 29.5411 7.54906 28.5743 7.05203C27.6075 6.555 26.5282 6.31756 25.4421 6.36295C24.3559 6.40834 23.3002 6.73501 22.3783 7.31098C21.4563 7.88695 20.6997 8.69247 20.1826 9.64867C19.6654 10.6049 19.4055 11.679 19.4282 12.7658C19.4508 13.8527 19.7554 14.915 20.3119 15.8488C20.8685 16.7826 21.658 17.5558 22.6032 18.0928C23.5484 18.6299 24.6168 18.9122 25.7039 18.9122C26.8717 18.9122 28.2068 18.2798 29.0902 17.8616L29.4248 17.7076C30.1945 17.3529 33.4904 16.3156 35.5951 17.6641C36.7462 18.3936 37.3385 19.6718 37.3385 21.4553Z" fill="white"/>
<path d="M26.5204 60.8865H25.1585C25.1585 54.2779 19.1354 41.2178 19.0752 41.0873L20.3099 40.5151C20.5642 41.0606 26.5204 53.9801 26.5204 60.8865Z" fill="white"/>
<path d="M20.9151 60.5922L19.59 60.2877L20.7377 55.2584L17.7664 53.0901L16.6855 41.9943L18.0407 41.8638L19.0613 52.3506L22.2669 54.6862L20.9151 60.5922Z" fill="white"/>
<path d="M31.4527 60.8865H30.0908C30.0908 53.9801 36.0436 41.0606 36.2979 40.5151L37.5327 41.0873C37.4724 41.2178 31.4527 54.2812 31.4527 60.8865Z" fill="white"/>
<path d="M35.6922 60.5922L34.3438 54.6862L37.546 52.3506L38.5666 41.8638L39.9218 41.9943L38.8443 53.0901L35.8696 55.2584L37.0173 60.2877L35.6922 60.5922Z" fill="white"/>
</svg>
