<svg width="56" height="66" viewBox="0 0 56 66" fill="none" xmlns="http://www.w3.org/2000/svg">
<path d="M29.9908 60.0269H28.6572V58.2567H29.9908V60.0269ZM29.9908 56.4832H28.6572V54.7097H29.9908V56.4832ZM29.9908 52.9395H28.6572V51.166H29.9908V52.9395ZM29.9908 49.3958H28.6572V47.6223H29.9908V49.3958ZM29.9908 45.8488H28.6572V44.0786H29.9908V45.8488Z" fill="white"/>
<path d="M29.3707 36.0301C28.5725 36.0096 27.787 35.8261 27.0623 35.4909C26.3377 35.1556 25.6892 34.6757 25.1569 34.0806L23.2243 32.0498C21.532 30.2661 20.5166 27.44 20.5166 24.4853H21.8501C21.8501 27.1083 22.7267 29.5926 24.1957 31.1326L26.1249 33.1634C26.5185 33.6448 27.0142 34.0328 27.5762 34.2992C28.1381 34.5656 28.7522 34.7038 29.3741 34.7038C29.996 34.7038 30.6101 34.5656 31.1721 34.2992C31.734 34.0328 32.2297 33.6448 32.6233 33.1634L34.5559 31.1326C36.1196 29.3794 36.9252 26.3942 36.9015 24.4988L38.235 24.4751C38.2722 26.6819 37.3618 29.9886 35.5273 32.0329L33.5812 34.0637C33.0505 34.6611 32.4032 35.1438 31.6791 35.4819C30.9551 35.8201 30.1695 36.0066 29.3707 36.0301Z" fill="white"/>
<path d="M18.0772 37.871L17.4883 36.6762L19.1061 35.8809L19.695 37.0756L18.0772 37.871Z" fill="white"/>
<path d="M7.27938 55.1327L6 54.7638L7.37753 49.9441C8.86676 44.6133 11.94 40.2066 16.0286 37.5361L16.7597 38.6497C12.9384 41.1407 10.0615 45.2801 8.6603 50.3029L8.15599 52.1068L7.27938 55.1327Z" fill="white"/>
<path d="M17.5757 54.9497H16.2422V58.4054H17.5757V54.9497Z" fill="white"/>
<path d="M42.5064 54.9497H41.1729V58.4054H42.5064V54.9497Z" fill="white"/>
<path d="M33.034 14.8625L31.9307 14.1213L32.6854 13.001L33.7888 13.7456L33.034 14.8625Z" fill="white"/>
<path d="M20.2625 21.9464L20.1914 20.6196C22.3124 20.5205 24.3894 19.9802 26.2898 19.0332C28.1903 18.0862 29.8723 16.7533 31.2286 15.1196L32.271 15.9489C30.7957 17.7277 28.9659 19.1797 26.8984 20.2123C24.8309 21.2449 22.5709 21.8355 20.2625 21.9464Z" fill="white"/>
<path d="M40.2186 26.184L39.0577 25.5308C41.3728 21.4422 41.718 16.4499 39.9445 12.8114C38.9562 10.7807 37.4297 9.51823 35.6494 9.24746L35.4531 9.217L35.3042 9.085C32.522 6.59394 28.8159 6.03886 24.2941 7.42316C22.8363 7.91109 21.5071 8.72089 20.405 9.79252C19.3029 10.8642 18.4562 12.1701 17.9276 13.6136C16.7972 16.7647 17.3962 20.3016 19.6639 23.8588C22.4591 23.8154 25.2087 23.1444 27.7097 21.8954C30.2106 20.6464 32.3989 18.8513 34.1128 16.6428L34.37 16.2671L34.8134 16.3687C34.9792 16.4059 38.8479 17.384 38.198 24.9825L36.8679 24.8708C37.2842 19.9056 35.6325 18.3047 34.8709 17.8376C32.9965 20.1558 30.6229 22.0209 27.9271 23.2938C25.2313 24.5667 22.2829 25.2145 19.3018 25.1889H18.943L18.7467 24.8911C15.3621 19.8142 15.7547 15.7121 16.6686 13.1668C17.2716 11.53 18.235 10.0499 19.4877 8.83591C20.7403 7.62196 22.2499 6.70534 23.9048 6.15394C28.826 4.64102 32.9113 5.25363 36.0488 7.96808C38.1879 8.36408 39.9918 9.87023 41.1426 12.2293C43.1023 16.2604 42.7401 21.7265 40.2186 26.184Z" fill="white"/>
<path d="M34.4878 32.5947H33.1543V38.2538H34.4878V32.5947Z" fill="white"/>
<path d="M48.7177 55.9959L47.5568 51.8396C46.0439 46.4243 42.6897 42.092 38.3574 39.9631L33.5547 37.8849L34.0861 36.6631L38.9159 38.7582C43.6205 41.0665 47.2251 45.7 48.8396 51.4843L50.0005 55.6406L48.7177 55.9959Z" fill="white"/>
<path d="M25.3189 32.9331H23.9854V38.0946H25.3189V32.9331Z" fill="white"/>
<path d="M29.2454 60.3452C22.4075 60.3741 15.6153 59.2293 9.16457 56.9606L8.57227 56.7508L10.0615 51.5994C11.6759 45.8151 15.2805 41.1816 19.9547 38.8868L24.2633 36.7681L24.8522 37.9594L20.5436 40.0782C16.2113 42.2071 12.8572 46.536 11.3443 51.9548L10.8704 53.6471L10.2172 55.9046C16.3491 57.9847 22.7839 59.0324 29.259 59.0049C34.8079 59.0202 40.3314 58.2557 45.6675 56.7338L46.0364 58.0132C40.576 59.5719 34.9239 60.3569 29.2454 60.3452Z" fill="white"/>
<path d="M29.3533 39.9532C27.2684 39.9934 25.2216 39.3907 23.4912 38.227L24.2697 37.144C25.7699 38.147 27.5423 38.6646 29.3466 38.6264C31.1333 38.6676 32.8878 38.1467 34.3626 37.1372L35.1376 38.2169C33.4389 39.3871 31.4157 39.9944 29.3533 39.9532Z" fill="white"/>
<path d="M35.9002 34.4089L35.7378 33.0889L35.819 33.7489L35.7344 33.0889C35.7716 33.0889 39.2408 32.6184 40.7537 30.0224C41.8063 28.2185 41.7048 25.7714 40.4525 22.7523L41.6845 22.2446C43.106 25.6698 43.1805 28.5163 41.9011 30.7061C40.0497 33.8606 36.0694 34.3886 35.9002 34.4089Z" fill="white"/>
<path d="M24.7571 44.4578C23.3738 44.4551 22.0479 43.9044 21.0697 42.9262C20.0915 41.9481 19.5408 40.6221 19.5381 39.2388H20.8716C20.9302 40.2314 21.3658 41.1641 22.0893 41.8462C22.8128 42.5283 23.7696 42.9082 24.7639 42.9082C25.7583 42.9082 26.715 42.5283 27.4385 41.8462C28.1621 41.1641 28.5976 40.2314 28.6562 39.2388H29.9897C29.9862 40.6242 29.4333 41.9516 28.4524 42.93C27.4715 43.9084 26.1426 44.4578 24.7571 44.4578Z" fill="white"/>
<path d="M33.8864 44.4578C32.5013 44.4578 31.1728 43.9083 30.1924 42.9298C29.212 41.9513 28.6599 40.6239 28.6572 39.2388H29.9908C30.0493 40.2314 30.4849 41.1641 31.2084 41.8462C31.9319 42.5283 32.8887 42.9082 33.8831 42.9082C34.8774 42.9082 35.8342 42.5283 36.5577 41.8462C37.2812 41.1641 37.7168 40.2314 37.7753 39.2388H39.1089C39.1053 40.6224 38.5538 41.9484 37.5751 42.9264C36.5964 43.9045 35.2701 44.4551 33.8864 44.4578Z" fill="white"/>
<path d="M27.1538 45.8452H25.8203V59.6781H27.1538V45.8452Z" fill="white"/>
</svg>
