<svg width="56" height="66" viewBox="0 0 56 66" fill="none" xmlns="http://www.w3.org/2000/svg">
<path d="M16.0612 21.0731L15.5627 18.7877C14.9369 15.6591 15.5627 12.43 17.2056 10.158C18.1501 8.77198 19.6 7.81104 21.2444 7.48107C22.014 6.5475 24.9754 3.36865 29.573 3.36865C32.367 3.36865 36.3624 4.86438 38.9924 8.21054C40.612 10.2684 42.2817 13.8086 41.0336 18.9651L40.525 20.7787L39.1196 20.3838L39.6215 18.597C40.7291 14.0328 39.2668 10.9008 37.8447 9.11065C35.5325 6.16938 31.9354 4.82758 29.573 4.82758C25.0557 4.82758 22.2516 8.55184 22.2115 8.592L22.0241 8.84296L21.7095 8.88311C20.428 9.03704 19.2735 9.77319 18.3634 11.0146C17.0049 12.9453 16.4527 15.8063 17.0049 18.4899L17.5034 20.762L16.0612 21.0731Z" fill="white"/>
<path d="M34.0029 37.8403H32.5439V41.4241H34.0029V37.8403Z" fill="white"/>
<path d="M28.3809 62.0068C20.7985 62.0068 13.4972 60.7352 7.26663 58.326L6.63086 58.1185L8.01951 53.2834C9.69259 47.7154 13.4537 43.265 18.3123 41.0632L22.7794 39.0354L23.3817 40.3739L18.9146 42.3916C14.4374 44.3993 10.9809 48.5251 9.41821 53.6782L8.41436 57.2151C14.3471 59.3968 21.2368 60.5612 28.3942 60.5612C35.5517 60.5612 42.4481 59.4102 48.3741 57.2151L47.3535 53.6682C45.7809 48.5251 42.3243 44.3993 37.8471 42.3916L33.38 40.3639L33.9823 39.0254L38.4494 41.0532C43.308 43.2549 47.0591 47.7053 48.7389 53.2633L50.1309 58.1185L49.5085 58.3561C43.2779 60.752 35.9766 62.0369 28.3942 62.0369L28.3809 62.0068Z" fill="white"/>
<path d="M24.2421 37.7939H22.7832V41.4279H24.2421V37.7939Z" fill="white"/>
<path d="M37.0479 19.711C36.537 19.7143 36.027 19.6672 35.5254 19.5705L35.8198 18.145C36.2777 18.229 36.7432 18.2637 37.2085 18.2487L37.2386 19.7077L37.0479 19.711Z" fill="white"/>
<path d="M34.421 19.3464C31.354 18.53 28.6159 16.7822 26.5843 14.3439L25.5068 12.9051L26.678 12.0317L27.7488 13.4639C29.5708 15.646 32.0266 17.2071 34.7757 17.931L34.421 19.3464Z" fill="white"/>
<path d="M37.319 23.6828C30.3523 23.6828 25.7748 19.4666 24.1419 17.6597L20.3507 23.4954L19.126 22.7023L24.0314 15.1802L24.6572 16.0134C24.704 16.0769 29.4154 22.2238 37.3291 22.2238L37.319 23.6828Z" fill="white"/>
<path d="M37.8208 28.7422L37.0245 27.5209L38.0752 26.8516C38.3658 26.6701 38.5737 26.3818 38.654 26.0486L38.9284 24.8339C38.9567 24.7032 38.9548 24.5678 38.923 24.4379C38.8911 24.308 38.83 24.1871 38.7444 24.0844C38.6304 23.9475 38.4869 23.8381 38.3246 23.7645C38.1624 23.6909 37.9856 23.655 37.8075 23.6594H36.4121V22.1838H37.7974C38.1947 22.1792 38.5879 22.2645 38.9477 22.4331C39.3075 22.6017 39.6246 22.8493 39.8754 23.1575C40.0964 23.4311 40.253 23.7509 40.3335 24.0932C40.414 24.4356 40.4164 24.7917 40.3405 25.1351L40.0661 26.3531C39.9041 27.0571 39.4714 27.669 38.8615 28.0563L37.8208 28.7422Z" fill="white"/>
<path d="M19.0112 28.9231L17.9538 28.2538C17.3387 27.8671 16.9 27.2543 16.7324 26.5473L16.438 25.3259C16.3632 24.9843 16.3658 24.6303 16.4458 24.2898C16.5257 23.9493 16.6808 23.6311 16.8998 23.3584C17.1525 23.0427 17.4735 22.7884 17.8386 22.6145C18.2037 22.4407 18.6034 22.3518 19.0078 22.3546H19.7473V23.8135H19.0112C18.8275 23.8098 18.6453 23.8472 18.478 23.9231C18.3107 23.9989 18.1624 24.1112 18.0441 24.2518C17.9603 24.3522 17.9004 24.4704 17.8691 24.5973C17.8378 24.7243 17.8359 24.8568 17.8634 24.9846L18.1412 26.2026C18.2269 26.5361 18.4378 26.8237 18.7301 27.0057L19.7875 27.6749L19.0112 28.9231Z" fill="white"/>
<path d="M28.4276 38.5435C26.8268 38.5386 25.2756 37.9873 24.0307 36.9808L23.6961 36.7164C20.8117 35.9769 18.8877 33.2331 18.8877 29.8301C18.888 29.4942 18.9115 29.1588 18.958 28.8262C19.096 27.5887 19.1296 26.3418 19.0583 25.0986C19.0416 24.5565 19.0249 24.0111 19.0249 23.469V22.7764H20.4838V23.469C20.4838 23.9977 20.5005 24.5264 20.5139 25.0551C20.5902 26.3809 20.5533 27.7108 20.4035 29.0303C20.366 29.2975 20.347 29.567 20.3466 29.8368C20.3466 32.6509 21.8557 34.8125 24.188 35.3412L24.3486 35.3813L24.9375 35.8498C25.9278 36.6503 27.1626 37.087 28.4359 37.087C29.7093 37.087 30.9441 36.6503 31.9344 35.8498L32.5199 35.3813L32.6839 35.3412C35.0262 34.8125 36.5219 32.6643 36.5219 29.8368C36.5215 29.567 36.5025 29.2975 36.465 29.0303C36.317 27.7118 36.2801 26.3832 36.3546 25.0584C36.3714 24.5298 36.3847 23.9977 36.3847 23.469V22.9203H37.8437V23.469C37.8437 24.0111 37.8437 24.5565 37.8135 25.0986C37.7395 26.3416 37.772 27.5887 37.9106 28.8262C37.9571 29.1588 37.9806 29.4942 37.9809 29.8301C37.9809 33.2331 36.0568 35.9769 33.1724 36.7164L32.8378 36.9808C31.5894 37.9902 30.033 38.5417 28.4276 38.5435Z" fill="white"/>
<path d="M28.3809 46.1259C27.0314 46.1159 25.7281 45.6335 24.6974 44.7624C23.6668 43.8912 22.9739 42.6865 22.7393 41.3576L24.1748 41.0966C24.3416 42.1028 24.8636 43.0159 25.6461 43.6701C26.4286 44.3243 27.4197 44.6762 28.4396 44.662C29.4594 44.6479 30.4404 44.2685 31.2044 43.5928C31.9685 42.9172 32.4649 41.99 32.6037 40.9795L34.0459 41.2037C33.8486 42.567 33.1679 43.814 32.1281 44.7175C31.0882 45.621 29.7584 46.1208 28.3809 46.1259Z" fill="white"/>
<path d="M16.622 56.3647H15.1631V59.8414H16.622V56.3647Z" fill="white"/>
<path d="M41.9003 56.0737H40.4414V59.5504H41.9003V56.0737Z" fill="white"/>
<path d="M28.361 49.3282C26.2104 49.3124 24.1335 48.5425 22.4923 47.1526C20.8511 45.7627 19.7496 43.841 19.3799 41.7224L20.8154 41.458C21.1116 43.266 22.0469 44.9076 23.4511 46.0843C24.8554 47.261 26.6353 47.8946 28.4673 47.8699C30.2992 47.8452 32.0614 47.1638 33.4334 45.9496C34.8054 44.7355 35.696 43.0692 35.9433 41.2539L37.3855 41.4781C37.0732 43.6516 35.9899 45.6403 34.3331 47.0815C32.6764 48.5226 30.5568 49.32 28.361 49.3282Z" fill="white"/>
<path d="M29.1103 57.2049H27.6514V55.2608H29.1103V57.2049ZM29.1103 53.3167H27.6514V51.3726H29.1103V53.3167Z" fill="white"/>
</svg>
