<svg width="56" height="66" viewBox="0 0 56 66" fill="none" xmlns="http://www.w3.org/2000/svg">
<path d="M11.9302 38.4341L11.3915 37.7849C11.0569 37.37 9.30682 35.2184 9.30682 33.7695C9.29881 33.0184 9.55593 32.2885 10.0329 31.7083C10.2647 31.4295 10.5546 31.2048 10.8823 31.0499C11.2101 30.895 11.5677 30.8136 11.9302 30.8115C13.3757 30.8115 14.5536 32.15 14.5536 33.7829C14.5536 35.2151 12.8203 37.3666 12.4723 37.7983L11.9302 38.4341ZM11.9302 32.2203C11.7714 32.2245 11.6155 32.2639 11.4737 32.3356C11.3319 32.4074 11.2079 32.5097 11.1104 32.6352C10.8466 32.9587 10.7066 33.3656 10.7156 33.7829C10.7156 34.3083 11.3212 35.3389 11.9302 36.1854C12.5426 35.3389 13.1449 34.3083 13.1449 33.7829C13.1449 32.9229 12.5994 32.2203 11.9302 32.2203Z" fill="white"/>
<path d="M12.6783 18.2871H11.2695V31.6081H12.6783V18.2871Z" fill="white"/>
<path d="M36.0662 23.6308H17.1973V15.2018L17.5653 15.001C17.7025 14.9274 20.9951 13.1606 26.3256 13.1606C29.5057 13.1815 32.6559 13.7767 35.6245 14.9174L36.0662 15.0847V23.6308ZM18.5926 22.222H34.6542V16.0685C31.9724 15.0922 29.1426 14.5851 26.2888 14.5694C23.6407 14.5349 21.0136 15.0428 18.5692 16.0618L18.5926 22.222Z" fill="white"/>
<path d="M17.5843 19.7658L9.65723 15.3288L26.8163 4.57422L43.7746 15.3321L35.9245 19.729L35.2352 18.5009L41.0274 15.2551L26.8096 6.2406L12.4178 15.2585L18.2702 18.5377L17.5843 19.7658Z" fill="white"/>
<path d="M32.6921 19.2671H18.0059V20.6758H32.6921V19.2671Z" fill="white"/>
<path d="M18.3777 32.3474L17.0828 31.3736C16.5126 30.9442 16.1225 30.318 15.9886 29.6169L15.7376 28.3286C15.6625 27.953 15.6719 27.5654 15.7651 27.1939C15.8583 26.8223 16.0329 26.4761 16.2764 26.1804C16.4976 25.908 16.7765 25.6881 17.0931 25.5365C17.4096 25.3849 17.7558 25.3054 18.1067 25.3037H19.3749V26.7124H18.1167C17.9729 26.7128 17.8309 26.7458 17.7017 26.809C17.5724 26.8722 17.4592 26.9639 17.3705 27.0772C17.2602 27.2125 17.1814 27.3707 17.1397 27.5403C17.098 27.7098 17.0946 27.8865 17.1296 28.0576L17.3806 29.3492C17.4461 29.7067 17.6416 30.0273 17.9294 30.2493L19.2243 31.2231L18.3777 32.3474Z" fill="white"/>
<path d="M34.974 32.3474L34.1274 31.2231L35.4224 30.2493C35.7101 30.0273 35.9056 29.7067 35.9711 29.3492L36.2221 28.0576C36.2564 27.8865 36.2526 27.71 36.211 27.5405C36.1693 27.3711 36.0909 27.2129 35.9812 27.0772C35.8925 26.9639 35.7793 26.8722 35.65 26.809C35.5208 26.7458 35.3789 26.7128 35.235 26.7124H33.9668V25.3037H35.235C35.5859 25.3056 35.932 25.3852 36.2485 25.5368C36.565 25.6884 36.8439 25.9082 37.0653 26.1804C37.3082 26.4765 37.4824 26.8227 37.5756 27.1941C37.6687 27.5655 37.6784 27.953 37.6041 28.3286L37.3531 29.6169C37.2217 30.3165 36.8354 30.9425 36.269 31.3736L34.974 32.3474Z" fill="white"/>
<path d="M32.104 36.9185H30.6953V42.5701H32.104V36.9185Z" fill="white"/>
<path d="M26.8366 61.7334C19.8097 61.7334 13.0136 60.5589 7.22145 58.3404L6.61914 58.1095L7.92079 53.5654C9.48679 48.3822 12.9768 44.2363 17.5008 42.1885L21.6501 40.3046L22.2323 41.5862L18.0797 43.4701C13.9305 45.354 10.7182 49.182 9.26929 53.967L8.32903 57.2462C13.8301 59.2539 20.2112 60.318 26.8366 60.318C33.462 60.318 39.8866 59.2505 45.3944 57.2295L44.4541 53.9536C43.0086 49.1786 39.7963 45.3506 35.6403 43.4667L31.4878 41.5828L32.07 40.3013L36.2226 42.1885C40.7466 44.2397 44.2533 48.3856 45.8059 53.5654L47.1076 58.0894L46.5053 58.3237C40.6997 60.5522 33.9003 61.7334 26.8366 61.7334Z" fill="white"/>
<path d="M47.9211 53.679L47.6266 52.5915C46.1543 47.4619 42.8885 43.3562 38.6689 41.3351L39.2746 40.0669C43.8588 42.262 47.3991 46.6889 48.9785 52.2134L49.2763 53.3076L47.9211 53.679Z" fill="white"/>
<path d="M49.2264 54.6953L47.874 55.0615L48.2864 56.5842L49.6388 56.2179L49.2264 54.6953Z" fill="white"/>
<path d="M23.0249 37.2627H21.6162V42.5697H23.0249V37.2627Z" fill="white"/>
<path d="M26.7429 39.9831C25.3171 39.9812 23.9347 39.4925 22.8245 38.5978L21.0243 37.169C19.2408 35.7368 18.1299 33.5819 18.1299 31.5407V24.1792H19.5386V31.5407C19.5386 33.1636 20.4454 34.8869 21.9077 36.0714L23.7046 37.5136C24.5599 38.2191 25.6341 38.605 26.7429 38.605C27.8516 38.605 28.9258 38.2191 29.7812 37.5136L31.5814 36.0714C32.2684 35.5436 32.8299 34.8702 33.2256 34.0996C33.6214 33.3289 33.8415 32.4802 33.8702 31.6144V24.2127H35.2756V31.601C35.2476 32.6775 34.9805 33.7344 34.4938 34.6951C34.0071 35.6558 33.3129 36.4962 32.4615 37.1556L30.6612 38.5978C29.5511 39.4925 28.1687 39.9812 26.7429 39.9831Z" fill="white"/>
<path d="M26.7028 51.9125L16.8818 43.5873L17.792 42.5132L26.7028 50.0655L35.6136 42.5132L36.5238 43.5873L26.7028 51.9125Z" fill="white"/>
<path d="M21.8568 54.7197L20.4414 53.485L21.3649 52.4243L22.7804 53.659L21.8568 54.7197ZM19.026 52.2536L17.6072 51.0222L18.5341 49.9615L19.9495 51.1929L19.026 52.2536ZM16.1918 49.7875L14.7764 48.5461L15.7033 47.4854L17.1187 48.7167L16.1918 49.7875Z" fill="white"/>
<path d="M26.8333 59.0328L21.4795 54.3415L22.4064 53.2841L26.8166 57.1456L32.4482 52.0059L33.3985 53.0465L26.8333 59.0328Z" fill="white"/>
<path d="M33.0198 53.4247L32.0762 52.3807L32.5179 51.9825L33.4615 53.0298L33.0198 53.4247ZM34.8568 51.7717L33.9132 50.7277L35.3086 49.4729L36.2522 50.5168L34.8568 51.7717ZM37.6475 49.262L36.7039 48.2114L38.0992 46.9565L39.0429 48.0039L37.6475 49.262Z" fill="white"/>
</svg>
