<svg width="56" height="66" viewBox="0 0 56 66" fill="none" xmlns="http://www.w3.org/2000/svg">
<path d="M44.5934 30.8228L44.0112 30.1268C43.6364 29.6784 41.7726 27.3696 41.7726 25.827C41.7646 25.0215 42.0419 24.2391 42.5556 23.6185C42.8008 23.3142 43.1105 23.0681 43.4623 22.898C43.8141 22.7278 44.1993 22.6379 44.5901 22.6348C46.1461 22.6348 47.4075 24.0669 47.4109 25.8237C47.4109 27.3662 45.5471 29.6784 45.1723 30.1268L44.5934 30.8228ZM44.5934 24.1472C44.4231 24.1525 44.256 24.1951 44.104 24.272C43.9519 24.3489 43.8186 24.4582 43.7134 24.5923C43.4306 24.9409 43.2801 25.3782 43.2884 25.827C43.2884 26.3925 43.9376 27.5001 44.5934 28.4069C45.2627 27.4967 45.9018 26.3992 45.9018 25.827C45.8984 24.9001 45.3129 24.1472 44.5901 24.1472H44.5934Z" fill="white"/>
<path d="M45.3963 15.8853H43.8838V23.3907H45.3963V15.8853Z" fill="white"/>
<path d="M38.7215 21.2559H16.9883V22.7683H38.7215V21.2559Z" fill="white"/>
<path d="M17.6968 41.7375C11.5633 31.6054 16.8804 22.0387 17.1112 21.6372L18.4229 22.3867C18.3727 22.4771 13.3267 31.5987 18.9918 40.9512L17.6968 41.7375Z" fill="white"/>
<path d="M14.3549 43.3039C10.2659 37.0266 10.6005 31.6694 11.4872 27.2524L12.9729 27.5502C12.1096 31.8735 11.8352 36.6719 15.6231 42.4774L14.3549 43.3039Z" fill="white"/>
<path d="M13.4804 25.6963L12.0449 25.2279C12.2591 24.5586 12.5067 23.9095 12.7777 23.2871L14.163 23.8894C13.9121 24.4683 13.6845 25.074 13.4804 25.6963Z" fill="white"/>
<path d="M37.9543 41.3193L36.6426 40.5664C41.9429 31.3511 37.0341 22.4737 36.9772 22.3867L38.2889 21.6372C38.5198 22.0287 43.6963 31.3377 37.9543 41.3193Z" fill="white"/>
<path d="M38.7072 22.012H37.1947V14.0381C31.1537 11.8901 24.5555 11.8983 18.5199 14.0615V22.012H17.0107V13.071L17.4491 12.8703C17.8339 12.6929 26.9823 8.57716 38.2187 12.8L37.9543 13.506H38.7072V22.012Z" fill="white"/>
<path d="M17.4257 18.0103L8.88965 13.232L27.946 1.70117L47.0057 13.232L38.5433 17.9702L37.8038 16.6518L44.0008 13.1818L27.946 3.46794L11.8945 13.1818L18.1652 16.6919L17.4257 18.0103Z" fill="white"/>
<path d="M34.264 18.0806H17.8779V19.593H34.264V18.0806Z" fill="white"/>
<path d="M33.6316 37.043H32.1191V43.1162H33.6316V37.043Z" fill="white"/>
<path d="M27.9732 63.7054C20.4076 63.7054 13.123 62.4473 6.89246 60.0648L6.25 59.8072L7.64869 54.9318C9.32177 49.3638 13.0828 44.9101 17.9415 42.705L22.4019 40.6973L23.0243 42.0759L18.5672 44.0836C14.1034 46.1113 10.6535 50.2204 9.09758 55.3635L8.09373 58.8903C14.003 61.0519 20.8593 62.1896 27.9799 62.1896C35.1005 62.1896 41.997 61.0452 47.9197 58.8702L46.9158 55.3534C45.3632 50.2204 41.8966 46.1113 37.4462 44.0836L32.9858 42.0759L33.6082 40.6973L38.0719 42.705C42.9339 44.9101 46.6849 49.3638 48.368 54.9218L49.75 59.8072L49.1042 60.0548C42.867 62.4406 35.5623 63.7054 27.9732 63.7054Z" fill="white"/>
<path d="M23.8777 37.4146H22.3652V43.1164H23.8777V37.4146Z" fill="white"/>
<path d="M27.8733 40.3393C26.3365 40.3425 24.8454 39.8167 23.6505 38.8502L21.7164 37.301C19.7991 35.7617 18.6045 33.4462 18.6045 31.2545V26.697L19.1466 26.5364C21.7633 25.7567 24.6209 23.5249 24.8083 22.1195L26.3274 22.3303C26.0463 24.4417 22.9511 26.8108 20.137 27.818V31.2645C20.137 33.0079 21.1141 34.8717 22.6835 36.1298L24.6175 37.6791C25.5354 38.438 26.6891 38.8533 27.88 38.8533C29.071 38.8533 30.2247 38.438 31.1425 37.6791L33.0766 36.1298C33.8151 35.5632 34.4188 34.8398 34.844 34.0118C35.2693 33.1838 35.5057 32.2718 35.536 31.3415V27.7879C33.09 26.8175 30.1353 24.5287 29.4393 22.4608L30.8715 21.9756C31.4002 23.5416 34.1474 25.7601 36.5265 26.5431L37.0485 26.7137V31.3314C37.0192 32.4872 36.734 33.6222 36.2132 34.6544C35.6924 35.6867 34.9492 36.5906 34.037 37.301L32.1029 38.8502C30.9062 39.8182 29.4125 40.3441 27.8733 40.3393Z" fill="white"/>
<path d="M27.8287 53.1548L17.2783 44.2106L18.2554 43.0562L27.8287 51.1706L37.4021 43.0562L38.3825 44.2106L27.8287 53.1548Z" fill="white"/>
<path d="M22.931 56.461L21.4085 55.1226L22.4124 53.9815L23.9349 55.32L22.931 56.461ZM19.8894 53.8109L18.3668 52.4724L19.3707 51.3347L20.8932 52.6732L19.8894 53.8109ZM16.8477 51.1641L15.3252 49.8256L16.329 48.6846L17.8515 50.023L16.8477 51.1641Z" fill="white"/>
<path d="M28.2774 61.1085L22.5254 56.0692L23.5225 54.9315L28.2574 59.0807L34.3105 53.5596L35.3311 54.6772L28.2774 61.1085Z" fill="white"/>
<path d="M34.9238 55.0855L33.9199 53.9612L34.3951 53.5329L35.3989 54.6572L34.9238 55.0855ZM36.898 53.3087L35.8941 52.1844L37.3932 50.8459L38.3971 51.9702L36.898 53.3087ZM39.9095 50.6117L38.9057 49.4874L40.4048 48.1489L41.4086 49.2732L39.9095 50.6117Z" fill="white"/>
</svg>
