<svg width="56" height="66" viewBox="0 0 56 66" fill="none" xmlns="http://www.w3.org/2000/svg">
<path d="M28.3257 36.0443C27.5741 36.0455 26.8303 35.8865 26.1403 35.5773C25.4504 35.268 24.8291 34.8151 24.3149 34.2466L22.5028 32.2516C20.893 30.4947 19.9326 27.7073 19.9326 24.7947H21.2313C21.2313 27.3691 22.0588 29.8056 23.4451 31.3215L25.2753 33.3165C25.667 33.7524 26.1411 34.1 26.6679 34.3376C27.1948 34.5753 27.7632 34.698 28.3378 34.698C28.9124 34.698 29.4808 34.5753 30.0076 34.3376C30.5345 34.1 31.0086 33.7524 31.4003 33.3165L33.2275 31.3215C34.6137 29.8088 35.4443 27.3691 35.4443 24.7947V22.9907H36.743V24.7947C36.743 27.7073 35.7825 30.4947 34.1698 32.2516L32.3426 34.2466C31.8277 34.8159 31.2054 35.2692 30.5144 35.5785C29.8233 35.8878 29.0783 36.0463 28.3257 36.0443Z" fill="white"/>
<path d="M37.157 26.4257C31.6038 20.2269 31.3672 14.3496 31.3613 14.1023L32.6328 14.0591C32.6328 14.1178 32.8812 19.7078 38.0855 25.5172L37.157 26.4257Z" fill="white"/>
<path d="M33.378 32.6089H32.0332V39.4792H33.378V32.6089Z" fill="white"/>
<path d="M46.2585 55.9683L45.1707 51.9096C43.7571 46.6265 40.6192 42.4 36.5638 40.324L32.0332 37.9217L32.616 36.7314L37.1406 39.1275C41.5157 41.3682 44.9107 45.8993 46.4049 51.5584L47.4987 55.6109L46.2585 55.9683Z" fill="white"/>
<path d="M24.6388 33.2964H23.2939V39.4797H24.6388V33.2964Z" fill="white"/>
<path d="M27.803 60.0899C21.42 60.1207 15.0797 58.9878 9.06028 56.7408L8.50098 56.53L9.88139 51.4182C11.3897 45.6927 14.7545 41.1035 19.1189 38.8278L23.1381 36.7314L23.7034 37.9464L19.6841 40.0427C15.641 42.1485 12.5232 46.4261 11.116 51.7802L10.6727 53.4799L10.0777 55.6832C15.7891 57.7356 21.7831 58.7695 27.8149 58.7427C32.9873 58.7564 38.1358 58.0009 43.1095 56.4985L43.4665 57.7984C38.3729 59.3366 33.0999 60.108 27.803 60.0899Z" fill="white"/>
<path d="M17.2413 54.5942H15.8965V58.0294H17.2413V54.5942Z" fill="white"/>
<path d="M40.7804 54.5942H39.4355V58.0294H40.7804V54.5942Z" fill="white"/>
<path d="M19.8895 31.2349H18.5889C18.5889 22.8393 23.5891 19.6922 27.6056 17.1643C30.1043 15.5844 32.2619 14.2352 32.796 11.998L34.0544 12.314C33.3905 15.0947 30.9039 16.6588 28.2725 18.3177C24.3435 20.8044 19.8895 23.6103 19.8895 31.2349Z" fill="white"/>
<path d="M17.1788 21.6167H15.8965C15.8965 21.5878 15.8965 20.9601 15.9679 20.2427L17.2413 20.3526C17.1818 21.0179 17.1788 21.6167 17.1788 21.6167Z" fill="white"/>
<path d="M17.8325 18.8684L16.5684 18.6325C16.9509 16.4881 17.9311 13.5686 20.4265 11.9235C24.6104 9.16638 27.8619 10.0701 27.9994 10.1099L27.6497 11.3782L27.8231 10.7441L27.6527 11.3782C27.5362 11.3476 24.7778 10.6185 21.1228 13.0325C19.0159 14.4233 18.1732 16.9721 17.8325 18.8684Z" fill="white"/>
<path d="M27.5041 46.3498C26.8789 46.2974 26.2602 46.179 25.657 45.9965L26.0106 44.6581C26.5299 44.8163 27.063 44.9184 27.6017 44.9628L27.5041 46.3498ZM29.3787 46.3077L29.2233 44.9239C29.7598 44.8552 30.2887 44.7304 30.8022 44.5512L31.2106 45.8766C30.615 46.0848 30.0013 46.2292 29.3787 46.3077ZM23.9104 45.2641C23.3538 44.9582 22.827 44.5945 22.3376 44.1785L23.1545 43.0896C23.576 43.4493 24.0304 43.763 24.5109 44.0262L23.9104 45.2641ZM32.9267 45.0697L32.2775 43.8544C32.7468 43.5705 33.1889 43.2384 33.5973 42.8628L34.4569 43.916C33.9832 44.3524 33.4707 44.7388 32.9267 45.0697ZM20.9934 42.8012C20.5901 42.2906 20.2348 41.7392 19.9326 41.1549L21.0848 40.4841C21.3456 40.9877 21.6518 41.4631 21.9992 41.9035L20.9934 42.8012ZM35.7462 42.4771L34.7068 41.6248C35.0389 41.1708 35.3269 40.6822 35.5664 40.1665L36.743 40.7887C36.4637 41.3819 36.1298 41.9442 35.7462 42.4674V42.4771Z" fill="white"/>
<path d="M28.0252 49.0978C25.6352 49.0881 23.2955 48.3672 21.2708 47.0169C19.2461 45.6666 17.6172 43.7407 16.5684 41.4571L17.7462 40.8535C18.6871 42.9023 20.1486 44.63 21.9652 45.8412C23.7818 47.0523 25.881 47.6985 28.0252 47.7065C30.1545 47.7147 32.2431 47.0862 34.0525 45.8927C35.862 44.6992 37.3195 42.9889 38.2586 40.9568L39.4304 41.5766C38.3831 43.8407 36.7585 45.7463 34.742 47.0761C32.7254 48.4059 30.3981 49.1064 28.0252 49.0978Z" fill="white"/>
<path d="M14.7578 40.1665C14.6984 39.2206 14.8298 38.2723 15.1437 37.3823C15.4576 36.4923 15.947 35.6803 16.5806 34.9983C15.2637 33.686 13.402 30.8749 14.4136 26.0114L14.2041 25.5792C13.6578 24.5976 13.3419 23.496 13.2822 22.3638C12.4172 12.5654 19.1277 8.02533 22.7973 6.99604C26.5985 5.92633 31.1989 6.63532 34.0842 8.71878C38.2745 8.49489 41.4472 11.6294 42.5936 17.1552C43.1144 19.674 42.6714 24.4597 40.5463 27.2491C41.531 29.687 41.0132 33.0268 39.3072 35.3341C40.5507 36.3834 41.3985 37.8543 41.7016 39.4886L40.4326 39.7125C40.0405 37.3181 38.068 36.0245 38.0381 36.012L37.3676 35.5829L37.9064 34.9858C39.7022 32.9895 40.3009 29.6093 39.2174 27.4543L39.0108 27.0407L39.3101 26.6987C41.3604 24.3385 41.8064 19.7269 41.3335 17.4382C40.3009 12.4628 37.6131 9.76673 33.9465 10.0715L33.7071 10.0901L33.5125 9.94397C30.9385 7.97558 26.6703 7.29457 23.1325 8.28965C19.8401 9.22254 13.7791 13.3304 14.5663 22.2301C14.6091 23.1994 14.8793 24.1431 15.3535 24.979C15.4492 25.175 15.554 25.3895 15.6707 25.6352L15.7695 25.8497L15.7186 26.0799C14.5902 31.1268 16.9009 33.6207 17.9455 34.4603L18.6309 35.0076L17.9305 35.5331C17.289 36.081 16.7831 36.7804 16.4551 37.573C16.127 38.3655 15.9864 39.2282 16.0449 40.0888L14.7578 40.1665Z" fill="white"/>
<path d="M28.673 48.4111H27.3281V54.5944H28.673V48.4111Z" fill="white"/>
<path d="M24.8398 47.8219L23.9658 51.8462L25.2766 52.1532L26.1507 48.1289L24.8398 47.8219Z" fill="white"/>
<path d="M32.0159 47.4971L30.6895 47.7236L31.3339 51.7929L32.6604 51.5663L32.0159 47.4971Z" fill="white"/>
</svg>
