<svg width="56" height="66" viewBox="0 0 56 66" fill="none" xmlns="http://www.w3.org/2000/svg">
<path d="M26.749 38.1274C25.2765 38.1262 23.8488 37.6208 22.7035 36.6952L20.8264 35.1894C19.973 34.4851 19.2873 33.5996 18.819 32.5971C18.3508 31.5946 18.1117 30.5003 18.1193 29.3939V21.7848H19.4578V29.3939C19.4492 30.3013 19.643 31.1992 20.0251 32.0222C20.4071 32.8453 20.9677 33.5729 21.6662 34.1521L23.5434 35.6579C24.4478 36.4051 25.5843 36.8139 26.7574 36.8139C27.9305 36.8139 29.067 36.4051 29.9714 35.6579L31.8486 34.1521C32.5475 33.5731 33.1087 32.8456 33.4913 32.0225C33.8739 31.1995 34.0683 30.3015 34.0604 29.3939V19.9912H35.3989V29.3939C35.4064 30.5003 35.1674 31.5946 34.6991 32.5971C34.2309 33.5996 33.5452 34.4851 32.6918 35.1894L30.8146 36.6952C29.6638 37.6248 28.2284 38.1305 26.749 38.1274Z" fill="white"/>
<path d="M35.0783 30.0193L34.2686 28.9619L35.5669 27.9581C35.8666 27.7232 36.0692 27.386 36.1357 27.0111L36.3867 25.6994C36.4243 25.5161 36.4207 25.3268 36.3762 25.145C36.3316 24.9633 36.2472 24.7938 36.129 24.6487C36.0366 24.5328 35.9197 24.4387 35.7866 24.3733C35.6535 24.308 35.5076 24.2729 35.3594 24.2706V22.9321C35.7031 22.9351 36.042 23.0137 36.352 23.1623C36.6619 23.3109 36.9354 23.5259 37.1529 23.7921C37.3964 24.0885 37.5713 24.4352 37.665 24.8071C37.7587 25.1791 37.769 25.5673 37.695 25.9437L37.4441 27.2554C37.3141 27.9513 36.9331 28.5753 36.3733 29.0087L35.0783 30.0193Z" fill="white"/>
<path d="M18.466 30.0196L17.171 29.0158C16.6083 28.5871 16.2225 27.9667 16.0869 27.2724L15.8359 25.9608C15.7619 25.5843 15.7722 25.1962 15.8659 24.8242C15.9596 24.4523 16.1345 24.1056 16.378 23.8092C16.5955 23.543 16.869 23.328 17.1789 23.1794C17.4889 23.0307 17.8278 22.9522 18.1715 22.9492V24.2877C18.0275 24.2929 17.8864 24.3291 17.7576 24.3938C17.6288 24.4585 17.5155 24.5501 17.4253 24.6624C17.3071 24.8075 17.2227 24.9771 17.1781 25.1588C17.1336 25.3405 17.13 25.5299 17.1677 25.7131L17.4186 27.0248C17.4851 27.3998 17.6877 27.737 17.9875 27.9718L19.2858 28.9756L18.466 30.0196Z" fill="white"/>
<path d="M32.1706 35.4067H30.8389V41.1521H32.1706V35.4067Z" fill="white"/>
<path d="M45.9569 56.6749L44.8225 52.703C43.3469 47.8343 40.071 43.9361 35.8381 42.0154L31.6152 40.098L32.164 38.8867L36.3868 40.8007C40.9711 42.882 44.5113 47.0815 46.0907 52.3282L47.2284 56.2968L45.9569 56.6749Z" fill="white"/>
<path d="M26.867 60.5734C19.7196 60.5734 12.8332 59.3855 6.95068 57.1335L6.38184 56.916L7.69018 52.3485C9.27961 47.0917 12.8165 42.8923 17.394 40.811L21.6102 38.897L22.1623 40.1083L17.9428 42.0223C13.7099 43.9463 10.4374 47.8446 8.96172 52.73L7.99134 56.1096C13.5961 58.1675 20.1044 59.2516 26.8603 59.2516C32.3164 59.2754 37.7481 58.5228 42.9921 57.0164L43.3702 58.2913C38.0053 59.831 32.4485 60.5994 26.867 60.5734Z" fill="white"/>
<path d="M22.9451 35.7583H21.6133V41.1523H22.9451V35.7583Z" fill="white"/>
<path d="M26.7791 48.1457L18.3066 41.6809L19.1164 40.6235L26.7724 46.4693L34.3079 40.6235L35.1244 41.6776L26.7791 48.1457Z" fill="white"/>
<path d="M26.7123 51.5922L18.0625 45.0505L18.8656 43.9897L26.719 49.9292L34.4051 44.2072L35.1982 45.2747L26.7123 51.5922Z" fill="white"/>
<path d="M48.6038 52.9542L48.219 51.6158C46.9859 47.3899 44.3996 43.6857 40.8574 41.072L41.6337 39.9912C45.4079 42.7667 48.1678 46.7032 49.4905 51.1975V51.2443L49.8753 52.5828L48.6038 52.9542Z" fill="white"/>
<path d="M39.6194 40.2657C39.0509 39.9244 38.4633 39.616 37.8594 39.3422L38.4081 38.1309C39.0586 38.428 39.691 38.7632 40.3021 39.1347L39.6194 40.2657Z" fill="white"/>
<path d="M18.7852 26.0041V24.6657C22.1748 24.6657 28.6864 21.7077 28.75 21.6776L29.359 21.3998L30.1788 23.2268C31.8761 22.5601 33.2838 21.3159 34.154 19.7134L35.362 20.2688C34.8166 21.4534 33.0766 23.7254 30.0082 24.7025L29.4393 24.8832L28.673 23.1666C26.9297 23.9262 21.8536 26.0041 18.7852 26.0041Z" fill="white"/>
<path d="M36.7516 17.7023H17.6786V16.5646C17.6305 15.2822 17.8416 14.0033 18.2992 12.8043C18.7568 11.6054 19.4516 10.511 20.3418 9.58675C21.2321 8.66248 22.2997 7.92726 23.4807 7.42508C24.6617 6.9229 25.9318 6.66406 27.2151 6.66406C28.4984 6.66406 29.7686 6.9229 30.9495 7.42508C32.1305 7.92726 33.1981 8.66248 34.0884 9.58675C34.9787 10.511 35.6734 11.6054 36.131 12.8043C36.5886 14.0033 36.7997 15.2822 36.7516 16.5646V17.7023ZM19.017 16.3639H35.4333C35.3723 14.2275 34.4807 12.1991 32.9481 10.7096C31.4154 9.22007 29.3624 8.3868 27.2251 8.3868C25.0879 8.3868 23.0349 9.22007 21.5022 10.7096C19.9696 12.1991 19.078 14.2275 19.017 16.3639Z" fill="white"/>
<path d="M28.4 6.01758H26.0176V7.34935H28.4V6.01758Z" fill="white"/>
<path d="M36.7514 20.5567H14.7237C13.4221 20.5567 12.3613 19.6265 12.3613 18.4788C12.3613 17.331 13.4221 16.374 14.7237 16.374H36.7514V20.5567ZM14.7237 17.7024C14.1649 17.7024 13.6931 18.0371 13.6931 18.452C13.6931 18.8669 14.1649 19.2417 14.7237 19.2417H35.4197V17.7024H14.7237Z" fill="white"/>
<path d="M24.4976 17.0367H23.1592C23.1592 9.91939 24.8323 7.74439 26.2109 7.1722C26.7161 6.96474 27.4222 6.91454 27.7334 7.22908L27.2582 7.69754L26.676 8.03216C26.7185 8.11338 26.7773 8.185 26.8487 8.24256C26.9201 8.30012 27.0025 8.3424 27.0909 8.36678C26.9541 8.36285 26.8179 8.38694 26.6907 8.43758C26.5636 8.48822 26.4481 8.56433 26.3514 8.66124C25.6654 9.20331 24.4976 11.0872 24.4976 17.0367Z" fill="white"/>
<path d="M31.3079 17.0366H29.9694C29.9761 11.0872 28.8016 9.20329 28.1324 8.6311C28.0361 8.53461 27.9212 8.45874 27.7946 8.40811C27.668 8.35748 27.5325 8.33317 27.3962 8.33664C27.4852 8.31267 27.5683 8.27058 27.6403 8.213C27.7123 8.15542 27.7716 8.08359 27.8145 8.00202L27.2256 7.69083L26.7471 7.22906C27.0516 6.91118 27.7509 6.95468 28.2595 7.15879C29.6415 7.73098 31.3079 9.90264 31.3079 17.0366Z" fill="white"/>
<path d="M15.353 58.572H14.0145C14.0145 50.5914 12.2511 45.6425 12.2344 45.5923L13.4825 45.1372C13.5661 45.3413 15.353 50.3371 15.353 58.572Z" fill="white"/>
<path d="M18.9728 59.3184H17.6344C17.6344 48.3129 15.2084 42.5207 15.1816 42.4638L16.4197 41.9385C16.5168 42.1794 18.9728 48.0184 18.9728 59.3184Z" fill="white"/>
<path d="M39.7056 58.572H38.3672C38.3672 50.3371 40.154 45.3447 40.2276 45.1372L41.4791 45.5923C41.4691 45.6425 39.7056 50.5914 39.7056 58.572Z" fill="white"/>
<path d="M36.0826 59.3184H34.7441C34.7441 48.0051 37.2036 42.1794 37.3073 41.9385L38.5286 42.4638C38.5052 42.5207 36.0826 48.3129 36.0826 59.3184Z" fill="white"/>
</svg>
