<svg width="56" height="66" viewBox="0 0 56 66" fill="none" xmlns="http://www.w3.org/2000/svg">
<path d="M28.0986 45.0208C26.7488 45.0122 25.4449 44.5302 24.4139 43.6588C23.383 42.7875 22.6905 41.5821 22.457 40.2526L23.8992 39.9882C24.0635 40.9951 24.584 41.9094 25.3659 42.5648C26.1478 43.2201 27.1391 43.5728 28.1592 43.5586C29.1793 43.5444 30.1603 43.1643 30.9237 42.4875C31.687 41.8106 32.1819 40.8821 32.3181 39.8711L33.767 40.0986C33.5696 41.4625 32.8885 42.71 31.8479 43.6136C30.8074 44.5171 29.4767 45.0166 28.0986 45.0208Z" fill="white"/>
<path d="M14.9114 22.6348C14.8612 22.501 13.7402 19.3188 13.7402 16.8761C13.7402 8.13931 20.4995 5.59958 22.5741 5.03408C26.3084 4.0135 29.0556 4.45185 31.9868 6.55993C33.2356 6.47462 34.4887 6.64193 35.6713 7.05186C36.8539 7.46178 37.9418 8.1059 38.8698 8.94573C40.9712 10.8731 42.139 13.7107 42.1558 16.9363C42.1558 18.8437 41.607 21.4871 41.3728 22.5345L39.944 22.1998C40.1682 21.196 40.6902 18.683 40.6902 16.9263C40.6902 14.1189 39.6863 11.6595 37.8794 10.0132C37.0661 9.27613 36.1079 8.71689 35.0662 8.37119C34.0245 8.02548 32.9221 7.90092 31.8295 8.00546L31.5552 8.02889L31.331 7.86493C28.654 5.85723 26.3853 5.47912 22.9656 6.41604C20.6233 7.05516 15.1925 9.35396 15.1958 16.8393C15.1958 19.0377 16.2833 22.0727 16.2933 22.1062L14.9114 22.6348Z" fill="white"/>
<path d="M28.1279 37.2745C26.5967 37.2724 25.1115 36.751 23.9151 35.7955L23.6106 35.5479C20.8266 34.8318 19.0364 32.272 19.0364 28.976C19.0337 28.6561 19.0527 28.3364 19.0933 28.019C19.2217 26.8603 19.2508 25.6927 19.1803 24.529C19.1803 24.0003 19.1468 23.4683 19.1468 22.9362V22.3038L19.7625 22.1967C26.3377 21.1929 28.9443 14.2295 28.9678 14.166L29.801 11.9341L30.3865 14.2295C30.3865 14.253 31.29 17.3615 36.8547 22.2302L37.1056 22.451V22.9295C37.1056 23.4616 37.1056 23.9903 37.0722 24.5223C36.9988 25.6859 37.0268 26.8536 37.1558 28.0123C37.2001 28.3317 37.2224 28.6537 37.2227 28.976C37.2227 32.272 35.4359 34.8318 32.6519 35.5512L32.344 35.7955C31.1473 36.7529 29.6604 37.2745 28.1279 37.2745ZM20.6292 23.5318C20.6292 23.8464 20.6459 24.1609 20.6559 24.4755C20.7289 25.7219 20.6953 26.9724 20.5555 28.2131C20.5209 28.466 20.5031 28.7208 20.502 28.976C20.502 31.6295 21.9174 33.6607 24.1025 34.1626L24.2664 34.1994L24.8319 34.6511C25.7665 35.4003 26.9285 35.8085 28.1262 35.8085C29.324 35.8085 30.486 35.4003 31.4205 34.6511L31.986 34.1994L32.15 34.1626C34.3383 33.664 35.7504 31.6295 35.7504 28.976C35.751 28.7208 35.7331 28.4658 35.6969 28.2131C35.5565 26.9724 35.524 25.7218 35.5998 24.4755C35.5998 24.0204 35.6266 23.5687 35.63 23.1136C32.17 20.0485 30.4702 17.646 29.6571 16.1737C28.4625 18.4189 25.6818 22.4711 20.6225 23.5318H20.6292Z" fill="white"/>
<path d="M22.1048 18.5128L21.2549 17.3115C23.9318 15.4544 25.3606 12.6603 25.9863 11.1579C26.1647 10.7528 26.321 10.3384 26.4548 9.9165L27.8669 10.3047C27.7242 10.7868 27.5544 11.2605 27.3583 11.7234C26.6522 13.3697 25.0595 16.4415 22.1048 18.5128Z" fill="white"/>
<path d="M19.4694 19.9014L18.9541 18.5261C19.3847 18.3585 19.8048 18.1652 20.2123 17.9473L20.8815 19.2489C20.423 19.4919 19.9516 19.7098 19.4694 19.9014Z" fill="white"/>
<path d="M35.8252 26.3626V22.036L41.3129 21.5977L41.6944 25.9209L35.8252 26.3626ZM37.3075 23.3912V24.7832L40.135 24.569L40.0112 23.1737L37.3075 23.3912Z" fill="white"/>
<path d="M40.4624 34.8117C39.3715 34.8117 38.0364 34.6946 37.1631 34.2195L37.8624 32.9312C38.7057 33.393 40.5394 33.3729 41.5867 33.3026L42.2392 30.8198L44.7555 32.088C45.3478 31.8136 46.7431 31.054 47.4324 29.7122L40.5561 25.8842L41.2688 24.606L49.236 29.0396L49.0553 29.6118C48.1585 32.4159 45.1102 33.5368 44.9797 33.5837L44.6852 33.6908L43.1862 32.9412L42.7378 34.6578L42.2392 34.7147C41.649 34.7779 41.0559 34.8103 40.4624 34.8117Z" fill="white"/>
<path d="M20.453 26.5331L14.5537 25.8974L14.9352 21.5708L20.4329 22.2066L20.453 26.5331ZM16.1398 24.5924L18.9773 24.9002V23.5116L16.2703 23.2004L16.1398 24.5924Z" fill="white"/>
<path d="M15.7957 34.8117C15.1987 34.8095 14.6023 34.776 14.0088 34.7113L13.5102 34.6545L13.0719 32.9412L11.5762 33.7075L11.2817 33.6004C11.1512 33.5536 8.10285 32.4326 7.20943 29.6285L7.02539 29.0563L14.9926 24.606L15.7053 25.8842L8.82897 29.7122C9.51493 31.0506 10.9069 31.8169 11.5059 32.088L14.0222 30.8198L14.6914 33.3026C15.7421 33.3762 17.5658 33.3963 18.4157 32.9312L19.115 34.2195C18.2216 34.7113 16.8865 34.8117 15.7957 34.8117Z" fill="white"/>
<path d="M16.2137 55.2568H14.748V58.7335H16.2137V55.2568Z" fill="white"/>
<path d="M41.4842 55.2568H40.0186V58.7335H41.4842V55.2568Z" fill="white"/>
<path d="M41.4842 54.9653H40.0186V58.442H41.4842V54.9653Z" fill="white"/>
<path d="M28.0647 48.0053C25.9566 47.9862 23.9215 47.2305 22.3119 45.869C20.7022 44.5074 19.6194 42.6259 19.251 40.5501L20.6932 40.2857C20.9831 42.0514 21.897 43.6543 23.2687 44.8032C24.6404 45.9521 26.3788 46.5706 28.1679 46.5463C29.957 46.522 31.678 45.8565 33.018 44.6708C34.3579 43.485 35.2279 41.8578 35.4698 40.085L36.9187 40.3092C36.6119 42.4409 35.5488 44.3913 33.9233 45.8042C32.2978 47.2171 30.2185 47.9984 28.0647 48.0053Z" fill="white"/>
<path d="M33.7537 36.5786H32.2881V40.3196H33.7537V36.5786Z" fill="white"/>
<path d="M28.1289 60.8982C20.5465 60.8982 13.2486 59.6267 7.01802 57.2342L6.37891 56.9933L7.76756 52.1581C9.44064 46.5901 13.2017 42.1363 18.0603 39.9346L22.5274 37.9102L23.1298 39.2486L18.666 41.2563C14.1922 43.2975 10.7289 47.4266 9.17294 52.5697L8.1691 56.0998C14.0985 58.2815 20.9849 59.446 28.1389 59.446C35.293 59.446 42.1928 58.2949 48.1088 56.0998L47.1049 52.563C45.549 47.4166 42.0857 43.2975 37.6153 41.2697L33.1515 39.262L33.7538 37.9235L38.2209 39.948C43.0795 42.1497 46.8306 46.6035 48.5103 52.1614L49.8789 56.9933L49.2532 57.2342C43.0226 59.6267 35.7247 60.8949 28.1423 60.8982H28.1289Z" fill="white"/>
<path d="M23.993 36.3374H22.5273V40.3193H23.993V36.3374Z" fill="white"/>
<path d="M20.6936 58.0676C20.6685 57.7078 20.6685 57.3466 20.6936 56.9868L22.1559 57.0705C22.1358 57.3624 22.1358 57.6553 22.1559 57.9472L20.6936 58.0676Z" fill="white"/>
<path d="M34.4393 55.5142C34.2625 54.9576 34.0091 54.4283 33.6864 53.9415L34.9078 53.1318C35.3048 53.7333 35.6178 54.3863 35.838 55.0725L34.4393 55.5142ZM22.4802 55.357L21.1016 54.8751C21.3369 54.1942 21.6669 53.5499 22.082 52.9611L23.2799 53.801C22.9418 54.2797 22.6726 54.8034 22.4802 55.357ZM32.5186 52.6332C32.0772 52.2518 31.5837 51.9352 31.053 51.6929L31.662 50.3545C32.3178 50.6536 32.9283 51.0433 33.4756 51.5122L32.5186 52.6332ZM24.4544 52.5261L23.5309 51.3884C24.0914 50.9351 24.7119 50.5613 25.3746 50.2775L25.9501 51.616C25.4148 51.8484 24.9147 52.1547 24.4644 52.5261H24.4544ZM29.3766 51.1876C28.7993 51.0998 28.2127 51.0919 27.6333 51.1642L27.4492 49.7087C28.1645 49.621 28.8885 49.6323 29.6008 49.7421L29.3766 51.1876Z" fill="white"/>
<path d="M36.1597 58.2715L34.7041 58.1243L34.7309 57.8968C34.7476 57.6793 34.7509 57.4584 34.7476 57.2443L36.2099 57.2041C36.2199 57.4731 36.2132 57.7424 36.1898 58.0105C36.1863 58.0711 36.1796 58.1314 36.1697 58.1912L36.1597 58.2715Z" fill="white"/>
<path d="M32.5054 58.6997L31.0933 58.3015C31.1658 58.0503 31.2019 57.79 31.2004 57.5286C31.2004 56.7778 30.9021 56.0578 30.3712 55.5269C29.8403 54.996 29.1203 54.6977 28.3695 54.6977C27.6187 54.6977 26.8987 54.996 26.3678 55.5269C25.8369 56.0578 25.5387 56.7778 25.5387 57.5286C25.538 57.7449 25.5627 57.9605 25.6123 58.171L24.1835 58.5057C24.0361 57.8674 24.0365 57.204 24.1848 56.566C24.3331 55.928 24.6253 55.3323 25.039 54.8246C25.4528 54.3168 25.9772 53.9103 26.5721 53.6363C27.1671 53.3623 27.8168 53.2279 28.4716 53.2434C29.1264 53.2589 29.769 53.424 30.3503 53.7259C30.9316 54.0279 31.4361 54.4587 31.8253 54.9855C32.2145 55.5124 32.4782 56.1212 32.596 56.7655C32.7139 57.4098 32.6829 58.0726 32.5054 58.7031V58.6997Z" fill="white"/>
</svg>
