<svg width="619" height="834" viewBox="0 0 619 834" fill="none" xmlns="http://www.w3.org/2000/svg">
<path d="M203.239 467.915C203.513 467.663 203.824 467.399 204.161 467.122C203.874 467.399 203.513 467.663 203.239 467.915Z" fill="#F39A83"/>
<path d="M204.522 466.833L205.294 466.229L204.522 466.833Z" fill="#F39A83"/>
<path d="M207.138 464.907L208.122 464.215L207.138 464.907Z" fill="#F39A83"/>
<path d="M200.462 474.22C200.601 475.912 201.084 477.557 201.882 479.052C201.084 477.557 200.601 475.912 200.462 474.22Z" fill="#F39A83"/>
<path d="M205.742 465.902L206.614 465.272L205.742 465.902Z" fill="#F39A83"/>
<path d="M209.33 456.462L209.928 456.174L209.33 456.462Z" fill="#50A2D3"/>
<path d="M208.283 456.954L209.18 456.539L208.283 456.954Z" fill="#50A2D3"/>
<path d="M247.267 437.663L246.395 438.091L247.828 439.865C247.532 439.164 247.343 438.422 247.267 437.663Z" fill="#50A2D3"/>
<path d="M207.611 461.246C207.468 460.584 207.389 459.91 207.374 459.232C207.389 459.91 207.468 460.584 207.611 461.246Z" fill="#50A2D3"/>
<path d="M260.297 446.862C256.934 446.422 253.683 445.792 251.142 443.968L260.483 455.52C260.334 452.814 260.272 449.832 260.297 446.862Z" fill="#50A2D3"/>
<path d="M291.608 458.401C294.02 456.113 296.597 454.01 299.317 452.109C296.826 451.606 294.398 451.002 291.919 450.536L291.608 458.401Z" fill="#50A2D3"/>
<path d="M304.512 330.035L306.455 330.236C305.82 330.16 305.172 330.085 304.512 330.035Z" fill="#F39A83"/>
<path d="M302.431 329.896L304.013 329.997L302.431 329.896Z" fill="#F39A83"/>
<path d="M285.904 335.395C287.059 336.036 288.33 336.434 289.64 336.566C291.945 336.792 296.329 336.239 298.048 334.678C299.206 333.646 299.667 331.23 299.854 329.783L301.896 329.859L299.181 329.771V331.771C299.181 331.771 290.612 335.421 285.904 335.395Z" fill="#F39A83"/>
<path d="M307.65 330.412L306.815 330.299L307.65 330.424V330.412Z" fill="#F39A83"/>
<path d="M282.44 331.897C282.328 331.243 282.229 330.475 282.141 329.645H281.793C281.867 330.43 282.087 331.194 282.44 331.897Z" fill="#F39A83"/>
<path d="M285.903 335.396C290.611 335.396 299.18 331.772 299.18 331.772V329.771L299.081 316.583L299.18 330.853C299.18 330.853 299.18 330.853 299.18 330.777C297.369 327.592 294.717 324.978 291.52 323.227C288.484 321.762 285.073 321.283 281.756 321.856C281.756 320.333 281.756 318.835 281.843 317.363H281.693C281.624 321.476 281.79 325.589 282.192 329.683C282.279 330.513 282.378 331.281 282.491 331.935C283.248 333.416 284.44 334.625 285.903 335.396Z" fill="#F39A83"/>
<path d="M282.753 317.741C282.416 317.64 282.117 317.489 281.793 317.376C281.793 318.848 281.719 320.346 281.706 321.868C285.023 321.296 288.434 321.775 291.471 323.24C294.668 324.99 297.32 327.604 299.131 330.79C299.131 330.79 299.131 330.79 299.131 330.866L299.031 316.596C293.938 319.02 288.13 319.429 282.753 317.741Z" fill="#D48873"/>
<path d="M333.694 446.409C333.744 445.932 333.744 445.451 333.694 444.975C333.669 445.374 333.606 445.77 333.507 446.158C333.606 446.233 333.644 446.321 333.694 446.409Z" fill="white"/>
<path d="M251.204 443.968C253.695 445.793 256.996 446.422 260.359 446.863V445.944C257.687 444.175 255.319 441.977 253.347 439.438C251.186 436.556 249.477 433.356 248.277 429.95C248.003 432.706 247.032 435.147 247.331 437.664C247.407 438.422 247.596 439.165 247.891 439.866L251.204 443.968Z" fill="white"/>
<path d="M299.317 452.059L299.566 451.896C299.352 451.803 299.158 451.671 298.993 451.506C297.748 450.247 299.94 447.252 300.699 445.667L302.642 441.577C300.85 444.481 298.287 446.818 295.244 448.322C294.174 448.807 293.076 449.227 291.956 449.58V450.474C294.397 450.952 296.851 451.556 299.317 452.059Z" fill="white"/>
<path d="M321.426 358.612C322.497 367.421 320.18 377.677 318.15 384.661C317.116 388.184 315.834 391.628 314.314 394.967C314.127 395.369 313.853 395.86 313.566 396.376C315.817 397.257 317.683 398.922 318.825 401.07C319.967 403.219 320.311 405.709 319.794 408.091C318.922 412.898 313.106 419.102 310.017 418.07C309.369 421.694 308.609 425.256 307.775 428.704C307.234 430.943 306.565 433.149 305.77 435.31H332.548C332.548 434.794 332.473 434.278 332.473 433.762C332.473 431.132 332.722 428.641 332.473 425.948C332.162 422.059 331.863 418.184 331.514 414.308C330.368 401.808 328.857 389.342 326.98 376.909C326.196 371.662 325.361 366.427 324.402 361.205C323.443 360.311 322.409 359.443 321.426 358.612Z" fill="white"/>
<path d="M265.278 341.385C264.879 342.43 264.468 343.462 264.032 344.506C270.072 341.679 276.867 340.945 283.362 342.417C286.339 343.172 289.092 344.645 292.081 345.324C295.345 346.057 298.751 345.799 301.871 344.582C304.137 343.701 306.305 342.291 308.733 342.254C309.877 342.256 311.005 342.519 312.034 343.021C311.922 342.732 311.797 342.43 311.685 342.128C310.232 338.26 308.874 334.359 307.612 330.425L306.778 330.299H306.417L304.474 330.098H303.975L302.394 329.997H301.846L299.803 329.922C299.616 331.369 299.155 333.785 297.997 334.817C296.278 336.377 291.894 336.931 289.59 336.704C288.279 336.572 287.008 336.174 285.853 335.534C284.366 334.762 283.155 333.538 282.391 332.036C282.041 331.294 281.837 330.49 281.793 329.67C277.284 329.745 273.324 329.531 269.263 330.01C268.018 333.827 266.689 337.619 265.278 341.385Z" fill="white"/>
<path d="M334.242 365.055C337.472 367.907 340.848 370.587 344.355 373.083C349.736 376.519 353.871 380.634 359.712 377.035L360.31 376.645C361.548 375.765 362.696 374.761 363.735 373.65C359.662 372.97 356.449 375.701 353.385 369.874C351.829 366.906 350.673 363.74 349.948 360.462C351.729 358.851 353.572 357.14 355.453 355.428C352.289 353.063 349.105 350.848 345.9 348.784C343.152 354.954 339.184 360.491 334.242 365.055Z" fill="#F39A83"/>
<path d="M364.719 372.455C364.433 372.807 364.146 373.147 363.847 373.487C364.146 373.198 364.445 372.858 364.719 372.455Z" fill="#F39A83"/>
<path d="M311.723 342.128C311.835 342.43 311.959 342.732 312.071 343.021C312.805 343.369 313.502 343.79 314.151 344.28C318.648 347.652 320.74 352.824 321.425 358.575C322.409 359.468 323.418 360.337 324.452 361.167C326.943 363.181 329.521 365.068 332.161 366.893C332.871 366.314 333.569 365.634 334.241 365.081C339.194 360.491 343.162 354.923 345.899 348.722C346.049 348.382 346.211 348.055 346.348 347.728C336.384 341.524 326.582 336.1 324.053 335.018C318.8 332.704 313.268 331.101 307.6 330.249C307.6 330.249 307.6 330.35 307.6 330.387C308.895 334.356 310.27 338.269 311.723 342.128Z" fill="white"/>
<path d="M390.028 311.839C390.888 310.832 393.242 308.743 395.608 306.554C396.555 303.345 395.272 302.162 395.272 302.162C384.137 308.454 387.201 317.388 387.861 318.961C387.874 318.924 387.895 318.889 387.923 318.861C387.973 316.898 388.633 313.45 390.028 311.839Z" fill="#F39A83"/>
<path d="M390.028 311.839C388.633 313.45 387.973 316.873 387.923 318.861C388.969 317.188 389.891 315.589 390.638 314.079C397.8 299.432 399.021 318.068 399.021 318.068C397.775 320.673 396.617 323.203 395.409 325.707C397.277 324.801 402.645 321.932 405.684 317.276C409.421 311.55 407.826 306.982 406.556 304.553C405.684 302.892 402.819 297.796 401.686 300.174C401.063 301.433 398.323 304.063 395.608 306.554C393.192 308.744 390.888 310.795 390.028 311.839Z" fill="#F39A83"/>
<path d="M353.335 369.938C356.399 375.752 359.563 373.021 363.685 373.713L363.785 373.587C364.084 373.248 364.37 372.908 364.657 372.555C376.994 358.481 387.324 342.733 395.346 325.769C396.592 323.252 397.75 320.736 398.958 318.131C398.958 318.131 397.713 299.494 390.576 314.142C389.829 315.652 388.907 317.25 387.861 318.924C387.833 318.952 387.812 318.987 387.798 319.024C380.774 330.06 367.459 344.078 355.415 355.517C353.535 357.279 351.679 358.99 349.898 360.551C350.629 363.819 351.785 366.976 353.335 369.938Z" fill="#F39A83"/>
<path d="M234.053 346.13C229.881 348.647 225.684 351.553 221.598 354.649C223.479 356.411 225.335 358.122 227.104 359.745C226.377 363.02 225.221 366.181 223.666 369.145C220.602 374.959 218.111 372.921 214.038 373.65C213.241 372.732 212.481 371.826 211.722 370.932C213.092 372.862 214.777 374.543 216.704 375.903L217.301 376.293C223.143 379.93 227.265 375.777 232.659 372.354C235.982 370.006 239.183 367.486 242.249 364.804L242.598 364.175C241.116 357.592 238.197 351.427 234.053 346.13Z" fill="#F39A83"/>
<path d="M264.07 344.506C264.468 343.462 264.879 342.43 265.315 341.385C266.735 337.618 268.06 333.818 269.289 329.984L269.438 329.544C263.756 330.38 258.21 331.98 252.947 334.301C250.643 335.282 242.373 339.825 233.43 345.286C233.655 345.563 233.841 345.852 234.053 346.129C238.185 351.412 241.1 357.56 242.585 364.124C247.47 355.419 255.005 348.538 264.07 344.506Z" fill="white"/>
<path d="M186.972 311.097C188.367 312.708 189.028 316.13 189.077 318.119C189.103 318.149 189.123 318.183 189.14 318.219C189.8 316.659 192.876 307.787 181.667 301.42C181.667 301.42 180.421 302.603 181.33 305.812C183.759 308.001 186.101 310.09 186.972 311.097Z" fill="#F39A83"/>
<path d="M186.363 313.311C187.185 314.952 188.091 316.548 189.078 318.093C189.078 316.13 188.368 312.682 186.973 311.071C186.101 310.065 183.76 307.976 181.393 305.786C178.678 303.32 175.938 300.728 175.315 299.469C174.157 297.091 171.317 302.187 170.445 303.848C169.2 306.29 167.593 310.845 171.317 316.571C174.369 321.264 179.774 324.121 181.617 325.014C180.372 322.497 179.126 319.981 177.981 317.363C177.981 317.326 179.189 298.689 186.363 313.311Z" fill="#F39A83"/>
<path d="M223.616 369.145C225.173 366.176 226.329 363.011 227.054 359.732C225.273 358.121 223.429 356.41 221.549 354.699C209.48 343.373 196.165 329.305 189.166 318.269C189.149 318.233 189.128 318.199 189.103 318.168C188.106 316.599 187.191 314.978 186.363 313.311C179.189 298.663 177.981 317.3 177.981 317.3C179.226 319.892 180.385 322.434 181.618 324.951C189.598 341.534 199.703 356.985 211.672 370.906C212.432 371.8 213.191 372.706 213.989 373.625C218.061 372.958 220.552 374.971 223.616 369.145Z" fill="#F39A83"/>
<path d="M282.753 317.741C288.143 319.434 293.966 319.021 299.069 316.583C300.246 316.02 301.367 315.346 302.419 314.569C305.994 311.753 309.076 308.35 311.536 304.503C313.641 301.407 314.326 297.368 315.559 293.806C315.278 293.526 315.087 293.166 315.011 292.775C314.463 290.333 315.011 287.741 316.643 283.551C316.973 282.693 317.231 281.809 317.415 280.908C317.065 280.305 316.837 279.638 316.742 278.945C316.07 275.258 315.285 271.483 314.949 267.746C314.463 262.423 312.906 259.616 306.741 259.302C303.303 259.113 299.916 260.082 296.565 260.887C293.215 261.693 289.69 262.347 286.34 261.542C282.603 260.636 279.091 257.943 275.267 258.534C268.193 259.642 268.628 266.374 268.006 271.999L267.483 276.818C267.383 277.787 267.371 278.819 267.296 279.75L267.184 279.574C267.184 279.952 267.184 280.354 267.296 280.833C267.894 285.275 267.806 287.942 266.686 290.182C266.538 290.486 266.32 290.75 266.05 290.95C266.825 295.565 268.008 300.101 269.588 304.503V304.654C270.519 307.552 272.079 310.204 274.154 312.416C276.229 314.628 278.767 316.344 281.582 317.439H281.731C282.117 317.489 282.416 317.64 282.753 317.741ZM300.812 286.004C300.333 285.978 299.883 285.763 299.56 285.406C299.236 285.048 299.064 284.576 299.081 284.092C299.092 283.848 299.151 283.608 299.256 283.387C299.36 283.167 299.507 282.97 299.689 282.808C299.87 282.646 300.081 282.522 300.311 282.445C300.54 282.367 300.783 282.336 301.024 282.355C301.261 282.365 301.493 282.422 301.708 282.523C301.923 282.624 302.116 282.767 302.275 282.943C302.435 283.12 302.559 283.327 302.639 283.552C302.719 283.777 302.755 284.016 302.743 284.255C302.733 284.499 302.676 284.739 302.573 284.96C302.47 285.182 302.324 285.38 302.144 285.543C301.964 285.706 301.753 285.831 301.525 285.91C301.296 285.989 301.054 286.021 300.812 286.004ZM298.82 274.893C302.1 274.899 305.276 276.06 307.8 278.177C307.897 278.261 307.977 278.363 308.035 278.478C308.094 278.592 308.129 278.717 308.14 278.846C308.15 278.975 308.135 279.104 308.096 279.227C308.057 279.35 307.994 279.463 307.912 279.562C307.822 279.674 307.708 279.765 307.579 279.826C307.449 279.887 307.307 279.917 307.164 279.914C306.934 279.917 306.712 279.831 306.542 279.675C304.394 277.827 301.665 276.814 298.844 276.818C298.604 276.791 298.382 276.675 298.221 276.493C298.06 276.311 297.971 276.075 297.971 275.831C297.971 275.586 298.06 275.35 298.221 275.168C298.382 274.986 298.604 274.87 298.844 274.843L298.82 274.893ZM286.95 292.661C286.996 292.355 287.063 292.052 287.149 291.755C287.299 291.202 287.498 290.66 287.685 290.145C288.121 289.1 288.581 288.144 289.042 287.187C289.516 286.21 289.931 285.206 290.288 284.18C290.649 285.299 290.692 286.498 290.412 287.64C290.174 288.739 289.836 289.813 289.404 290.849C289.192 291.34 289.005 291.831 288.818 292.321C288.628 292.673 288.506 293.057 288.457 293.454C288.524 293.911 288.704 294.344 288.98 294.712C289.275 295.178 289.6 295.623 289.952 296.046C289.372 295.932 288.821 295.701 288.332 295.367C287.769 295.021 287.332 294.5 287.087 293.882C286.93 293.496 286.882 293.073 286.95 292.661ZM276.014 278.492C275.807 278.493 275.605 278.427 275.437 278.304C275.27 278.181 275.146 278.007 275.083 277.807C275.02 277.607 275.023 277.393 275.089 277.195C275.156 276.996 275.284 276.825 275.454 276.705C278.158 274.829 281.431 273.978 284.696 274.302C284.953 274.328 285.19 274.457 285.353 274.66C285.517 274.863 285.594 275.123 285.567 275.384C285.541 275.644 285.413 275.883 285.212 276.048C285.011 276.214 284.754 276.291 284.496 276.265C281.693 275.993 278.885 276.738 276.575 278.366C276.406 278.468 276.21 278.512 276.014 278.492ZM279.539 283.211C279.554 282.85 279.675 282.502 279.886 282.21C280.098 281.919 280.39 281.697 280.726 281.574C281.062 281.45 281.427 281.43 281.774 281.516C282.121 281.603 282.435 281.791 282.677 282.057C282.918 282.324 283.075 282.657 283.129 283.014C283.183 283.371 283.13 283.737 282.978 284.064C282.826 284.391 282.582 284.665 282.275 284.851C281.969 285.038 281.615 285.128 281.258 285.111C281.021 285.101 280.789 285.044 280.574 284.943C280.359 284.842 280.166 284.7 280.007 284.523C279.847 284.346 279.723 284.139 279.643 283.914C279.563 283.689 279.527 283.45 279.539 283.211ZM280.56 300.828L298.683 301.646C298.01 305.509 294.012 308.366 289.316 308.152C284.621 307.938 280.884 304.754 280.56 300.853V300.828Z" fill="#F39A83"/>
<path d="M317.415 280.959C317.231 281.86 316.973 282.744 316.643 283.601C314.999 287.766 314.463 290.384 315.011 292.825C315.087 293.217 315.278 293.576 315.559 293.857C317.502 295.745 323.331 291.705 324.776 288.018C325.563 286.199 325.635 284.145 324.975 282.274C324.315 280.404 322.975 278.858 321.226 277.951C320.006 280.317 318.461 282.456 317.415 280.959ZM319.57 281.6C320.587 282.081 321.375 282.95 321.76 284.016C322.145 285.082 322.096 286.258 321.625 287.288C321.292 288.249 320.639 289.062 319.778 289.59C318.917 290.118 317.901 290.327 316.904 290.183C317.139 289.451 317.334 288.708 317.49 287.955C317.863 286.156 317.702 282.922 319.296 281.663C319.296 281.663 319.296 281.663 319.371 281.575L319.57 281.6Z" fill="#F39A83"/>
<path d="M317.489 287.955C317.333 288.708 317.138 289.451 316.903 290.183C317.9 290.327 318.916 290.118 319.777 289.59C320.638 289.062 321.291 288.249 321.624 287.288C322.095 286.258 322.144 285.082 321.759 284.016C321.373 282.95 320.586 282.081 319.569 281.601H319.369C319.369 281.601 319.369 281.664 319.295 281.689C317.7 282.884 317.862 286.156 317.489 287.955Z" fill="#F39A83"/>
<path d="M266.686 290.069C267.807 287.83 267.931 285.162 267.296 280.72C267.296 280.305 267.209 279.902 267.184 279.461C266.128 277.719 265.291 275.851 264.693 273.899H264.556C263.559 274.08 262.607 274.457 261.754 275.01C260.902 275.562 260.165 276.279 259.587 277.119C259.008 277.96 258.599 278.907 258.384 279.907C258.168 280.907 258.149 281.94 258.329 282.947C258.877 286.961 263.759 292.423 266.038 290.762C266.304 290.584 266.526 290.347 266.686 290.069ZM265.44 287.049C264.448 286.939 263.522 286.488 262.82 285.771C262.117 285.054 261.679 284.115 261.579 283.111C261.366 281.998 261.596 280.846 262.219 279.904C262.841 278.961 263.806 278.305 264.905 278.077C264.975 278.071 265.046 278.071 265.117 278.077C265.119 278.111 265.119 278.144 265.117 278.178C266.362 279.776 265.428 282.909 265.366 284.747C265.36 285.516 265.397 286.285 265.478 287.049H265.44Z" fill="#F39A83"/>
<path d="M265.191 278.164C265.193 278.131 265.193 278.097 265.191 278.064C265.095 278.057 264.999 278.061 264.905 278.076C263.804 278.301 262.836 278.956 262.21 279.899C261.585 280.842 261.354 281.996 261.567 283.11C261.665 284.122 262.107 285.068 262.818 285.789C263.528 286.509 264.464 286.959 265.465 287.061C265.421 286.29 265.421 285.517 265.465 284.746C265.502 282.896 266.437 279.763 265.191 278.164Z" fill="#F39A83"/>
<path d="M289.316 308.177C294.012 308.391 298.035 305.535 298.682 301.671L280.56 300.854C280.884 304.754 284.62 307.963 289.316 308.177Z" fill="white"/>
<path d="M301.025 282.356C300.787 282.344 300.55 282.379 300.327 282.46C300.103 282.541 299.897 282.666 299.722 282.827C299.546 282.989 299.403 283.183 299.302 283.4C299.201 283.617 299.143 283.853 299.132 284.092C299.115 284.577 299.286 285.049 299.61 285.406C299.934 285.764 300.384 285.979 300.863 286.005C301.1 286.015 301.337 285.978 301.56 285.895C301.783 285.813 301.987 285.687 302.162 285.524C302.337 285.362 302.478 285.166 302.578 284.949C302.678 284.731 302.734 284.496 302.743 284.256C302.755 284.017 302.72 283.778 302.64 283.553C302.559 283.327 302.436 283.121 302.276 282.944C302.116 282.767 301.923 282.624 301.709 282.523C301.494 282.422 301.261 282.365 301.025 282.356Z" fill="#27090B"/>
<path d="M283.152 283.375C283.162 283.135 283.126 282.896 283.045 282.671C282.964 282.445 282.84 282.238 282.68 282.061C282.52 281.884 282.326 281.74 282.111 281.639C281.896 281.537 281.664 281.479 281.426 281.469C281.189 281.458 280.952 281.494 280.729 281.576C280.506 281.658 280.301 281.783 280.126 281.945C279.951 282.107 279.809 282.302 279.708 282.519C279.607 282.737 279.55 282.972 279.54 283.211C279.518 283.695 279.688 284.168 280.011 284.526C280.335 284.883 280.786 285.096 281.265 285.118C281.744 285.14 282.211 284.968 282.565 284.641C282.919 284.314 283.13 283.859 283.152 283.375Z" fill="#27090B"/>
<path d="M284.496 276.215C284.633 276.259 284.779 276.271 284.921 276.252C285.064 276.232 285.201 276.18 285.321 276.1C285.442 276.021 285.543 275.915 285.618 275.791C285.693 275.666 285.74 275.527 285.755 275.382C285.77 275.237 285.753 275.091 285.705 274.954C285.658 274.816 285.58 274.691 285.479 274.588C285.377 274.485 285.254 274.405 285.119 274.356C284.983 274.307 284.839 274.288 284.695 274.302C281.425 273.993 278.151 274.863 275.454 276.756C275.283 276.876 275.156 277.047 275.089 277.246C275.022 277.444 275.02 277.658 275.083 277.858C275.145 278.058 275.27 278.232 275.437 278.355C275.605 278.478 275.807 278.544 276.014 278.543C276.215 278.549 276.412 278.487 276.574 278.367C278.878 276.721 281.686 275.958 284.496 276.215Z" fill="#522200"/>
<path d="M298.844 276.818C301.658 276.8 304.387 277.795 306.541 279.625C306.711 279.781 306.934 279.866 307.164 279.864C307.307 279.867 307.448 279.836 307.578 279.775C307.708 279.714 307.821 279.624 307.911 279.511C307.994 279.413 308.056 279.299 308.095 279.176C308.135 279.054 308.149 278.924 308.139 278.796C308.129 278.667 308.093 278.542 308.035 278.427C307.976 278.313 307.896 278.211 307.799 278.127C305.275 276.01 302.099 274.849 298.819 274.843C298.579 274.87 298.357 274.986 298.196 275.168C298.034 275.351 297.945 275.586 297.945 275.831C297.945 276.075 298.034 276.311 298.196 276.493C298.357 276.675 298.579 276.791 298.819 276.818H298.844Z" fill="#522200"/>
<path d="M288.344 295.317C288.833 295.651 289.384 295.882 289.963 295.996C289.612 295.573 289.287 295.128 288.992 294.662C288.716 294.294 288.536 293.861 288.469 293.404C288.518 293.007 288.64 292.623 288.83 292.272C289.017 291.781 289.204 291.29 289.415 290.799C289.848 289.763 290.186 288.689 290.424 287.59C290.704 286.448 290.661 285.249 290.3 284.13C289.943 285.156 289.528 286.16 289.054 287.137C288.593 288.094 288.133 289.05 287.697 290.095C287.51 290.61 287.311 291.152 287.161 291.705C287.075 292.002 287.008 292.305 286.962 292.611C286.895 293.005 286.934 293.409 287.074 293.782C287.316 294.422 287.763 294.963 288.344 295.317Z" fill="#DE7778"/>
<path d="M186.961 516.412C185.815 518.375 184.731 520.376 183.648 522.364C188.405 514.524 193.425 506.785 198.307 498.996C194.222 504.594 190.435 510.408 186.961 516.412Z" fill="#F39A83"/>
<path d="M213.59 521.697C210.638 511.102 207.425 499.499 204.56 488.979C204.124 489.609 203.738 490.238 203.39 490.792C201.729 493.543 198.61 496.002 196.883 498.745C192.001 506.535 186.973 512.885 182.278 520.725L169.664 546.034C174.311 547.366 196.509 555.358 204.85 558.023C206.432 556.097 209.493 542.536 210.975 540.522C209.654 537.225 207.936 529.939 213.59 521.697Z" fill="#C03037"/>
<path d="M264.905 467.978L264.432 468.355C265.694 469.039 267.032 469.572 268.417 469.941C267.197 469.38 266.023 468.724 264.905 467.978Z" fill="#F39A83"/>
<path d="M332.448 480.938C332.664 479.286 332.593 477.608 332.236 475.98C331.727 477.19 331.136 478.363 330.468 479.491C331.152 479.938 331.813 480.421 332.448 480.938Z" fill="#C03037"/>
<path d="M326.968 564.318C318.349 543.291 310.926 521.534 310.303 499.538C310.303 499.022 310.303 498.493 310.303 497.939C306.567 500.456 302.718 502.835 299.293 505.276C297.786 506.358 295.868 507.465 294.211 506.66C293.863 506.475 293.551 506.228 293.29 505.93C292.953 506.371 292.617 506.798 292.256 507.188C290.096 509.711 287.463 511.777 284.509 513.266C284.322 515.104 284.085 516.916 283.811 518.728C294.286 527.373 292.355 537.238 291.533 539.982C302.609 549.387 314.307 558.018 326.545 565.816L327.329 565.514V564.973C327.18 564.784 327.055 564.545 326.968 564.318Z" fill="#C03037"/>
<path d="M278.541 550.696C277.01 557.315 264.265 563.302 262.608 572.009C265.928 573.342 279.205 574.008 283.189 574.674C288.5 575.34 297.446 576.025 304.749 576.025C296.758 569.27 285.218 558.778 278.541 550.696Z" fill="#C03037"/>
<path d="M258.528 518.111C258.79 517.52 259.189 516.651 259.674 515.695C259.674 511.92 259.674 508.057 259.674 504.281C259.507 500.725 260.272 497.188 261.891 494.026C262.216 493.442 262.582 492.882 262.987 492.352C262.389 492.855 261.742 493.359 261.231 493.9C261.717 490.716 262.19 486.274 263.946 483.531C265.703 480.788 269.202 478.573 271.631 476.434C273.537 474.76 275.505 473.112 277.46 471.4C274.358 471.722 271.228 471.201 268.393 469.89C267.007 469.521 265.67 468.989 264.407 468.305C253.045 477.51 241.15 486.023 228.786 493.799C229.284 499.034 229.757 504.827 230.206 511.177C230.789 510.393 231.289 509.549 231.7 508.661C233.294 504.584 238.488 511.819 240.095 514.197C242.449 517.683 245.575 524.428 240.269 534.47C238.089 538.372 235.282 541.88 231.962 544.851C232.036 546.726 232.111 548.626 232.174 550.564C232.174 551.118 232.174 551.621 232.174 552.1C232.65 551.844 233.108 551.554 233.544 551.231C234.764 554.632 211.718 531.169 212.153 534.759C212.262 535.555 202.91 556.555 202.858 557.357C210.477 560.638 251.669 569.928 259.786 571.592C259.786 564.797 259.786 550.854 259.786 534.759C255.44 527.385 257.046 521.483 258.528 518.111Z" fill="#C03037"/>
<path d="M282.105 467.475C285.181 464.719 288.332 461.472 291.608 458.402L291.92 450.487V449.593C291.272 449.795 290.674 449.983 289.939 450.16C288.729 450.679 287.479 451.1 286.203 451.418C282.1 452.525 277.807 452.704 273.628 451.943C269.45 451.182 265.489 449.499 262.027 447.014C261.417 446.661 260.782 446.296 260.246 445.906V446.825C260.246 449.795 260.246 452.777 260.433 455.482L264.867 467.94C265.985 468.686 267.16 469.343 268.379 469.903C271.215 471.214 274.345 471.735 277.447 471.413C279.041 470.142 280.598 468.821 282.105 467.475Z" fill="#E6927C"/>
<path d="M319.794 408.029C320.311 405.647 319.967 403.156 318.825 401.008C317.683 398.859 315.818 397.194 313.567 396.313C313.081 397.157 312.533 398.1 312.072 399.057C312.072 399.824 312.072 400.592 311.985 401.36C313.288 401.805 314.381 402.724 315.051 403.938C315.721 405.152 315.92 406.574 315.61 407.928C315.427 409.134 314.868 410.249 314.015 411.111C313.161 411.974 312.057 412.538 310.864 412.723C310.615 414.497 310.329 416.246 310.017 417.983C313.106 419.014 318.923 412.836 319.794 408.029Z" fill="#F39A83"/>
<path d="M315.609 407.928C315.909 406.58 315.705 405.167 315.036 403.961C314.367 402.755 313.28 401.842 311.985 401.397C311.785 405.173 311.412 409.023 310.864 412.786C312.066 412.598 313.176 412.024 314.031 411.149C314.886 410.275 315.439 409.145 315.609 407.928Z" fill="#EE7379"/>
<path d="M243.057 410.759C243.051 410.814 243.051 410.869 243.057 410.923C243.219 411.917 243.443 412.886 243.693 413.842C242.395 413.971 241.094 413.642 240.011 412.91C238.927 412.178 238.129 411.089 237.752 409.828C237.203 408.468 237.21 406.943 237.77 405.588C238.33 404.232 239.398 403.155 240.741 402.592C240.828 402.587 240.915 402.587 241.002 402.592C241.002 402.592 241.002 402.681 241.102 402.718C241.15 402.763 241.192 402.813 241.226 402.869C241.226 402.743 241.226 402.605 241.226 402.467C241.233 402.349 241.233 402.232 241.226 402.114C240.965 400.642 240.728 399.17 240.504 397.685C240.504 397.546 240.504 397.408 240.417 397.27C240.026 397.34 239.643 397.445 239.271 397.584C234.289 399.308 231.798 405.134 233.716 410.633C235.335 415.377 242.435 420.814 245.125 418.863L244.228 414.987C243.73 413.54 243.406 412.156 243.057 410.759Z" fill="#F39A83"/>
<path d="M241.016 402.53C240.929 402.524 240.841 402.524 240.754 402.53C239.411 403.093 238.343 404.169 237.783 405.525C237.223 406.881 237.216 408.405 237.765 409.765C238.131 411.042 238.928 412.149 240.018 412.894C241.108 413.639 242.422 413.974 243.731 413.843C243.482 412.886 243.258 411.917 243.096 410.923C243.089 410.869 243.089 410.814 243.096 410.76C242.921 410.067 242.759 409.388 242.597 408.696C241.985 406.774 241.531 404.804 241.24 402.807C241.205 402.751 241.163 402.7 241.115 402.656C241.115 402.656 241.053 402.567 241.016 402.53Z" fill="#EE7379"/>
<path d="M303.665 377.048C298.683 366.679 283.425 366.301 273.685 366.981C267.869 367.371 261.94 368.302 256.796 371.058C244.927 377.438 245.462 392.022 244.528 404.115C244.802 405.109 245.014 406.116 245.263 407.085C247.206 414.434 252.823 422.487 261.243 421.883C266.486 421.493 271.207 418.675 276.5 418.423C277.679 418.385 278.858 418.452 280.025 418.624L280.411 418.146C280.839 417.667 281.15 417.094 281.32 416.472C281.315 415.88 281.183 415.297 280.934 414.761L280.212 412.66C279.674 411.212 279.258 409.722 278.966 408.205C278.637 406.631 278.71 404.998 279.178 403.461C279.52 404.93 279.978 406.369 280.548 407.764C281.084 409.136 281.694 410.495 282.192 411.955C282.459 412.695 282.679 413.452 282.852 414.22C282.954 414.634 283.029 415.054 283.076 415.478C283.148 415.994 283.083 416.519 282.89 417.001C282.537 417.774 281.959 418.419 281.233 418.851C288.855 420.235 297.312 424.362 303.889 419.341C309.157 415.327 310.004 407.362 310.116 401.221C310.208 397.658 310.062 394.093 309.68 390.55C309.12 388.688 308.435 386.938 308.248 386.334C307.102 382.987 305.172 380.168 303.665 377.048ZM266.15 405.298C265.657 405.298 265.176 405.15 264.766 404.874C264.356 404.597 264.037 404.204 263.849 403.744C263.66 403.285 263.611 402.779 263.707 402.29C263.803 401.802 264.04 401.354 264.389 401.002C264.737 400.65 265.181 400.41 265.664 400.313C266.147 400.216 266.648 400.266 267.103 400.456C267.558 400.647 267.947 400.969 268.221 401.383C268.495 401.797 268.641 402.284 268.641 402.781C268.641 403.449 268.378 404.089 267.911 404.561C267.444 405.033 266.811 405.298 266.15 405.298ZM269.401 393.457C265.668 393.274 261.992 394.433 259.026 396.729C258.67 397.009 258.231 397.159 257.78 397.156C257.357 397.153 256.945 397.017 256.601 396.767C256.258 396.516 255.999 396.164 255.863 395.759C255.726 395.354 255.717 394.916 255.837 394.506C255.958 394.096 256.201 393.734 256.535 393.469C260.279 390.577 264.917 389.119 269.625 389.355C269.891 389.369 270.153 389.437 270.393 389.554C270.634 389.671 270.849 389.834 271.028 390.035C271.206 390.236 271.343 390.471 271.431 390.725C271.52 390.98 271.558 391.25 271.543 391.519C271.528 391.788 271.461 392.052 271.346 392.295C271.23 392.538 271.068 392.756 270.869 392.936C270.67 393.116 270.438 393.255 270.186 393.344C269.934 393.433 269.667 393.472 269.401 393.457ZM289.167 389.355C293.878 389.122 298.519 390.58 302.27 393.469C302.657 393.817 302.899 394.299 302.947 394.82C302.996 395.34 302.847 395.86 302.53 396.274C302.214 396.688 301.754 396.965 301.243 397.049C300.732 397.134 300.209 397.019 299.779 396.729C296.809 394.439 293.135 393.281 289.403 393.457C289.137 393.471 288.87 393.432 288.619 393.342C288.367 393.251 288.135 393.112 287.937 392.932C287.739 392.751 287.577 392.533 287.463 392.289C287.348 392.046 287.281 391.782 287.267 391.513C287.254 391.243 287.292 390.974 287.381 390.72C287.471 390.465 287.609 390.231 287.787 390.031C287.966 389.831 288.182 389.668 288.423 389.552C288.664 389.436 288.925 389.369 289.192 389.355H289.167ZM295.78 402.769C295.78 403.267 295.634 403.753 295.361 404.167C295.087 404.581 294.698 404.903 294.243 405.094C293.788 405.284 293.287 405.334 292.804 405.237C292.32 405.14 291.876 404.9 291.528 404.548C291.18 404.196 290.942 403.748 290.846 403.26C290.75 402.772 290.8 402.266 290.988 401.806C291.177 401.346 291.496 400.953 291.906 400.676C292.315 400.4 292.797 400.252 293.289 400.252C293.95 400.252 294.584 400.517 295.051 400.989C295.518 401.461 295.78 402.101 295.78 402.769Z" fill="#F39A83"/>
<path d="M286.253 451.455C287.529 451.137 288.779 450.716 289.989 450.197C283.796 451.657 277.364 451.752 271.132 450.473C267.971 449.812 264.932 448.652 262.127 447.038C265.581 449.518 269.533 451.199 273.703 451.963C277.872 452.726 282.157 452.553 286.253 451.455Z" fill="#F39A83"/>
<path d="M241.165 402.052C241.165 401.674 241.165 401.309 241.165 400.957C240.928 399.849 240.704 398.742 240.479 397.622C240.666 399.107 240.903 400.579 241.165 402.052Z" fill="#F39A83"/>
<path d="M244.167 414.925C243.893 413.73 243.606 412.547 243.307 411.389C243.083 410.508 242.821 409.602 242.56 408.696C242.722 409.388 242.884 410.068 243.058 410.76C243.407 412.157 243.731 413.541 244.167 414.925Z" fill="#F39A83"/>
<path d="M266.15 400.239C265.657 400.239 265.175 400.387 264.766 400.663C264.356 400.94 264.037 401.333 263.848 401.793C263.66 402.253 263.61 402.759 263.707 403.247C263.803 403.735 264.04 404.184 264.388 404.536C264.737 404.888 265.181 405.127 265.664 405.224C266.147 405.321 266.648 405.272 267.103 405.081C267.558 404.891 267.947 404.568 268.221 404.154C268.495 403.74 268.641 403.254 268.641 402.756C268.641 402.089 268.378 401.448 267.911 400.976C267.444 400.504 266.81 400.239 266.15 400.239Z" fill="#27090B"/>
<path d="M290.774 402.769C290.774 403.266 290.92 403.753 291.193 404.167C291.467 404.581 291.856 404.903 292.311 405.094C292.767 405.284 293.267 405.334 293.751 405.237C294.234 405.14 294.678 404.9 295.026 404.548C295.374 404.196 295.612 403.748 295.708 403.26C295.804 402.772 295.755 402.265 295.566 401.806C295.378 401.346 295.058 400.953 294.649 400.676C294.239 400.4 293.757 400.252 293.265 400.252C292.604 400.252 291.97 400.517 291.503 400.989C291.036 401.461 290.774 402.101 290.774 402.769Z" fill="#27090B"/>
<path d="M289.379 393.457C293.111 393.28 296.784 394.439 299.754 396.728C300.111 397.007 300.549 397.157 301 397.156C301.423 397.153 301.835 397.017 302.179 396.767C302.522 396.516 302.78 396.164 302.917 395.759C303.054 395.354 303.063 394.916 302.942 394.506C302.822 394.096 302.578 393.734 302.245 393.469C298.498 390.583 293.862 389.125 289.155 389.354C288.888 389.369 288.627 389.435 288.386 389.552C288.145 389.668 287.929 389.83 287.75 390.031C287.572 390.231 287.434 390.465 287.345 390.719C287.255 390.974 287.217 391.243 287.231 391.513C287.244 391.782 287.311 392.046 287.426 392.289C287.54 392.533 287.702 392.751 287.9 392.932C288.098 393.112 288.33 393.251 288.582 393.342C288.833 393.432 289.1 393.471 289.367 393.457H289.379Z" fill="#201544"/>
<path d="M269.625 389.355C264.917 389.119 260.279 390.577 256.535 393.47C256.201 393.734 255.958 394.096 255.837 394.506C255.717 394.917 255.726 395.355 255.863 395.76C255.999 396.165 256.257 396.517 256.601 396.767C256.945 397.017 257.357 397.153 257.78 397.157C258.231 397.16 258.67 397.009 259.026 396.729C261.992 394.433 265.668 393.274 269.401 393.457C269.939 393.487 270.467 393.3 270.869 392.936C271.271 392.573 271.513 392.063 271.543 391.519C271.573 390.975 271.387 390.442 271.028 390.036C270.668 389.63 270.163 389.385 269.625 389.355Z" fill="#201544"/>
<path d="M282.89 416.95C283.084 416.468 283.148 415.943 283.077 415.428C283.029 415.004 282.954 414.583 282.853 414.169C282.68 413.401 282.459 412.645 282.192 411.904C281.694 410.444 281.084 409.085 280.548 407.714C279.979 406.319 279.52 404.879 279.178 403.41C278.71 404.948 278.637 406.58 278.967 408.154C279.258 409.672 279.675 411.162 280.212 412.609L280.935 414.71C281.184 415.246 281.316 415.83 281.321 416.422C281.15 417.043 280.839 417.616 280.411 418.095L280.025 418.574L281.271 418.775C281.979 418.344 282.543 417.708 282.89 416.95Z" fill="#DE7778"/>
<path d="M346.498 501.186C344.219 495.411 339.025 486.199 332.449 480.939C331.814 480.422 331.153 479.939 330.468 479.492C325.96 487.042 318.125 492.755 310.266 497.94C310.266 498.494 310.266 499.022 310.266 499.538C310.889 521.585 307.764 542.324 316.383 563.352C316.47 563.578 317.711 574.008 325.375 565.489C325.475 565.716 320.968 576.509 321.031 576.673C327.005 578.005 357.544 578.671 379.453 577.339C378.942 576.08 362.714 541.089 362.179 539.793C356.96 526.933 351.605 514.11 346.498 501.186Z" fill="#C03037"/>
<path d="M267.632 489.483C265.961 490.188 264.407 491.147 263.023 492.327C262.618 492.857 262.252 493.416 261.927 494C260.308 497.162 259.544 500.7 259.71 504.256L285.056 501.412C285.069 505.375 284.874 509.336 284.471 513.279C287.425 511.789 290.058 509.724 292.218 507.201C292.579 506.773 292.916 506.345 293.252 505.942C292.809 505.436 292.421 504.883 292.094 504.294C287.535 496.781 277.359 485.582 267.632 489.483Z" fill="#EA947E"/>
<path d="M333.233 447.051C332.5 448.259 331.399 449.195 330.095 449.718C324.477 452.361 317.64 452.424 311.586 452.386C309.444 452.386 302.058 453.166 299.567 451.895L299.318 452.059C296.597 453.96 294.02 456.063 291.609 458.351C288.333 461.421 285.182 464.643 282.105 467.424C280.598 468.77 279.041 470.091 277.497 471.4C275.542 473.061 273.574 474.71 271.668 476.434C269.177 478.573 265.752 480.775 263.983 483.531C262.215 486.287 261.754 490.716 261.268 493.9C261.829 493.359 262.426 492.855 263.024 492.352C264.408 491.172 265.962 490.213 267.633 489.508C277.348 485.582 287.561 496.781 292.094 504.281C292.421 504.871 292.81 505.423 293.253 505.93C293.514 506.227 293.826 506.475 294.174 506.66C295.831 507.465 297.749 506.358 299.256 505.275C302.681 502.834 306.48 500.443 310.266 497.939C318.125 492.755 325.96 487.079 330.468 479.491C331.137 478.363 331.728 477.19 332.237 475.981C333.829 472.166 334.528 468.032 334.28 463.9C334.28 462.403 334.168 460.905 334.13 459.383C334.068 456.161 334.579 453.003 334.442 449.794C334.443 448.624 334.188 447.468 333.694 446.409C333.694 446.321 333.607 446.233 333.557 446.157C333.485 446.467 333.376 446.767 333.233 447.051Z" fill="#50A2D3"/>
<path d="M275.404 548.853C270.265 546.193 265.694 542.537 261.952 538.094C261.12 537.046 260.362 535.94 259.686 534.784C259.686 550.879 259.686 564.821 259.686 571.617C263.773 572.458 267.901 573.084 272.053 573.492C273.71 564.784 275.354 557.322 276.886 550.703C276.413 550.061 275.89 549.469 275.404 548.853Z" fill="#EA947E"/>
<path d="M259.71 504.281C259.71 508.057 259.71 511.832 259.71 515.695C261.379 512.448 264.07 508.27 265.838 511.152C267.084 513.128 271.954 517.18 276.774 521.043C274.731 516.009 276.649 514.134 276.649 514.134C279.194 515.414 281.595 516.966 283.811 518.765C284.085 516.953 284.322 515.141 284.508 513.304C284.911 509.362 285.106 505.401 285.094 501.438L259.71 504.281Z" fill="#EA947E"/>
<path d="M213.59 521.698C215.807 518.573 218.502 515.825 221.574 513.556C221.574 513.556 223.803 515.054 222.67 520.377C225.559 517.055 228.436 513.657 230.143 511.178C229.694 504.819 229.221 499.026 228.723 493.8C227.634 494.58 226.432 495.187 225.161 495.599C224.177 495.222 222.545 493.208 220.652 490.276C218.821 490.981 217.165 491.535 215.77 492.051C215.638 492.099 215.499 492.125 215.359 492.126C214.362 492.126 213.316 491.308 212.27 490.729C212.27 490.729 211.099 489.849 209.492 488.389C206.43 485.745 203.843 482.586 201.845 479.052C202.692 482.198 203.589 485.507 204.523 488.943C207.425 499.551 210.638 511.102 213.59 521.698Z" fill="#EA947E"/>
<path d="M226.182 549.57C225.534 550.992 224.862 552.389 224.164 553.773C226.927 553.904 229.677 553.329 232.16 552.1C232.16 551.622 232.16 551.118 232.16 550.565C232.16 548.627 232.023 546.789 231.949 544.852C230.127 546.546 228.201 548.122 226.182 549.57Z" fill="#EA947E"/>
<path d="M235.995 561.751C235.56 558.161 234.725 554.632 233.504 551.231C233.069 551.554 232.611 551.844 232.134 552.1C229.651 553.329 226.9 553.904 224.138 553.773C223.54 554.931 220.085 560.855 219.5 562C223.932 564.57 232.5 566 236.5 566.5C236.576 565.7 236.08 562.55 235.995 561.751Z" fill="#1C0F39"/>
<path d="M209.529 488.388C211.136 489.848 212.307 490.729 212.307 490.729C213.353 491.308 214.399 492.176 215.396 492.125C215.536 492.124 215.675 492.098 215.807 492.05C217.201 491.584 218.858 490.98 220.689 490.276C216.292 483.455 210.526 471.69 208.234 464.102L208.072 464.215L207.088 464.907C206.914 465.02 206.727 465.146 206.565 465.272L205.693 465.901L205.245 466.241L204.472 466.845L204.111 467.122C203.775 467.398 203.464 467.663 203.19 467.914C202.9 468.175 202.626 468.453 202.368 468.745C201.695 469.479 201.176 470.341 200.84 471.281C200.504 472.222 200.358 473.221 200.412 474.219C200.55 475.911 201.034 477.557 201.832 479.051C203.845 482.589 206.449 485.748 209.529 488.388Z" fill="#EA947E"/>
<path d="M220.69 490.276C222.583 493.208 224.214 495.222 225.198 495.599C226.478 495.189 227.688 494.582 228.785 493.8C241.169 486.042 253.085 477.545 264.469 468.356L264.942 467.978L260.483 455.508L251.204 443.968L247.891 439.866L246.459 438.092C223.168 448.939 216.691 452.953 209.991 456.175L209.393 456.464L209.243 456.54L208.347 456.955H208.234C207.624 457.232 207.375 458.012 207.4 459.182C207.415 459.859 207.494 460.534 207.637 461.195C207.793 462.044 207.993 462.884 208.234 463.712L208.347 464.077C210.526 471.69 216.33 483.456 220.69 490.276Z" fill="#50A2D3"/>
<path d="M305.769 435.247C304.957 437.453 303.909 439.563 302.643 441.539L300.7 445.629C299.941 447.214 297.798 450.146 298.994 451.468C299.159 451.633 299.353 451.765 299.567 451.858C302.058 453.116 309.444 452.336 311.586 452.348C317.664 452.348 324.477 452.348 330.094 449.681C331.398 449.158 332.5 448.222 333.233 447.013C333.375 446.729 333.484 446.429 333.557 446.12C333.656 445.732 333.719 445.336 333.744 444.937C333.782 444.096 333.748 443.254 333.644 442.42C333.395 440.004 333.021 437.588 332.76 435.159H305.769V435.247Z" fill="white"/>
<path d="M214.312 530.242C215.557 528.417 219.119 524.478 222.669 520.376C223.803 515.053 221.573 513.556 221.573 513.556C218.501 515.824 215.806 518.573 213.589 521.697C207.935 529.94 209.654 537.226 210.986 540.573C211.273 540.195 211.534 539.805 211.808 539.428C212.008 536.32 212.742 532.494 214.312 530.242Z" fill="#F39A83"/>
<path d="M222.668 520.377C219.118 524.479 215.593 528.418 214.311 530.242C212.741 532.495 212.006 536.32 211.82 539.378C212.417 538.547 213.065 537.73 213.601 536.861C218.446 538.95 222.917 543.153 227.538 546.513C227.114 547.532 226.641 548.526 226.193 549.533C228.21 548.097 230.136 546.533 231.959 544.852C235.27 541.879 238.069 538.37 240.242 534.47C245.548 524.403 242.422 517.684 240.068 514.198C238.461 511.82 233.267 504.584 231.673 508.661C231.262 509.55 230.761 510.394 230.178 511.178C228.435 513.657 225.558 517.055 222.668 520.377Z" fill="#F39A83"/>
<path d="M224.164 553.773C224.861 552.389 225.534 550.992 226.182 549.57C226.63 548.564 227.103 547.569 227.527 546.55C222.906 543.178 218.435 539 213.59 536.898C213.017 537.729 212.406 538.547 211.808 539.415C211.534 539.793 211.273 540.183 210.986 540.56C209.504 542.574 195.809 552.767 194.228 554.693C198.875 557.357 219.455 562.019 220.783 562.685C221.418 561.502 223.566 554.918 224.164 553.773Z" fill="#F39A83"/>
<path d="M291.496 540.02C291.421 540.296 291.346 540.498 291.309 540.611C291.416 541.193 291.386 541.792 291.222 542.36C290.561 543.543 281.258 551.597 281.258 551.597C279.255 550.809 277.304 549.892 275.416 548.853C275.902 549.47 276.425 550.112 276.911 550.678C283.587 558.759 293.123 569.252 301.114 576.006C303.106 576.672 338.956 578.67 346.922 578.004C334.68 570.207 302.575 549.425 291.496 540.02Z" fill="#F39A83"/>
<path d="M276.612 514.135C276.612 514.135 274.694 516.01 276.737 521.043C280.959 524.428 285.131 527.675 286.701 529.235C289.341 531.865 290.998 537.629 291.296 540.561C291.296 540.447 291.409 540.246 291.483 539.969C292.305 537.226 294.236 527.385 283.761 518.715C281.547 516.934 279.15 515.399 276.612 514.135Z" fill="#F39A83"/>
<path d="M286.714 529.235C285.132 527.675 280.959 524.428 276.75 521.043C271.93 517.18 267.035 513.128 265.814 511.152C264.045 508.271 261.355 512.411 259.686 515.695C259.2 516.651 258.802 517.52 258.54 518.111C257.058 521.483 255.452 527.385 259.699 534.759C260.375 535.924 261.132 537.038 261.965 538.094C265.707 542.537 270.278 546.193 275.417 548.853C277.304 549.892 279.255 550.808 281.258 551.596C281.258 551.596 290.575 543.543 291.222 542.36C291.387 541.792 291.417 541.192 291.31 540.611C291.06 537.628 289.354 531.865 286.714 529.235Z" fill="#F39A83"/>
<path d="M253.284 439.437C255.256 441.976 257.624 444.174 260.296 445.943C260.881 446.333 261.467 446.698 262.077 447.051C264.898 448.665 267.954 449.82 271.132 450.473C277.38 451.74 283.825 451.629 290.026 450.146C290.711 449.97 291.359 449.781 292.006 449.58C293.126 449.227 294.224 448.807 295.295 448.321C298.337 446.818 300.901 444.481 302.693 441.577C303.959 439.601 305.007 437.491 305.819 435.285C306.614 433.124 307.284 430.918 307.824 428.678C308.659 425.23 309.419 421.669 310.066 418.045C310.378 416.309 310.664 414.559 310.913 412.785C311.461 409.01 311.835 405.235 312.034 401.397C312.034 400.629 312.034 399.862 312.121 399.094C311.502 400.146 311.252 401.379 311.411 402.592C310.789 400.365 311.15 397.798 311.05 395.369C310.838 395.596 310.639 395.835 310.415 396.061C311.05 395.432 310.49 392.89 309.792 390.537C310.174 394.08 310.32 397.645 310.228 401.208C310.054 407.349 309.207 415.314 304.001 419.329C297.424 424.362 288.967 420.222 281.345 418.838L280.099 418.637C278.933 418.465 277.753 418.397 276.575 418.435C271.306 418.687 266.611 421.506 261.317 421.896C252.898 422.5 247.28 414.446 245.337 407.097C245.088 406.128 244.877 405.122 244.602 404.128C244.602 404.568 244.602 405.021 244.503 405.449C243.257 406.393 241.912 404.417 241.601 402.932C241.464 402.303 241.327 401.674 241.202 401.032C241.202 401.384 241.202 401.749 241.202 402.127C241.208 402.244 241.208 402.362 241.202 402.479C241.202 402.617 241.202 402.756 241.202 402.882C241.482 404.878 241.923 406.848 242.523 408.771C242.784 409.677 243.046 410.583 243.27 411.464C243.569 412.622 243.855 413.804 244.129 415L245.026 418.876C245.841 422.656 246.893 426.38 248.177 430.025C249.395 433.407 251.117 436.581 253.284 439.437ZM279.439 436.719C272.925 436.719 267.57 432.529 266.872 427.131H291.969C291.272 432.529 285.903 436.719 279.389 436.719H279.439Z" fill="#201544"/>
<path d="M241.127 400.956C241.252 401.586 241.389 402.215 241.526 402.857C241.837 404.379 243.195 406.355 244.428 405.373C244.428 404.945 244.503 404.492 244.528 404.052C245.462 391.959 244.926 377.375 256.796 370.995C261.94 368.239 267.868 367.308 273.685 366.917C283.425 366.263 298.595 366.641 303.664 376.984C305.171 380.105 307.102 382.924 308.31 386.221C308.534 386.825 309.182 388.574 309.742 390.436C310.44 392.79 310.988 395.332 310.365 395.961C310.589 395.734 310.788 395.495 311 395.269C311.1 397.697 310.739 400.302 311.361 402.492C311.202 401.278 311.452 400.046 312.071 398.993C312.532 398.037 313.08 397.093 313.566 396.25C313.852 395.734 314.126 395.243 314.313 394.841C315.834 391.502 317.116 388.058 318.149 384.535C320.205 377.551 322.496 367.345 321.425 358.486C320.74 352.736 318.648 347.564 314.151 344.191C313.502 343.702 312.805 343.28 312.071 342.933C311.042 342.43 309.914 342.168 308.771 342.165C306.28 342.165 304.175 343.612 301.908 344.493C298.789 345.71 295.383 345.969 292.118 345.236C289.129 344.556 286.377 343.084 283.4 342.329C276.904 340.857 270.11 341.591 264.07 344.418C255.005 348.45 247.469 355.33 242.585 364.036L242.236 364.665C241.738 365.634 241.277 366.615 240.878 367.597C237.005 377.135 238.387 387.215 240.355 397.118C240.355 397.257 240.417 397.395 240.442 397.534C240.667 398.742 240.891 399.849 241.127 400.956Z" fill="#201544"/>
<path d="M266.822 427.131C267.52 432.529 272.875 436.72 279.389 436.72C285.903 436.72 291.271 432.529 291.969 427.131H266.822Z" fill="white"/>
<path d="M267.182 279.524L267.294 279.7C267.369 278.769 267.382 277.737 267.481 276.768L268.004 272.049C268.627 266.424 268.191 259.692 275.266 258.585C279.089 257.993 282.577 260.686 286.338 261.592C289.689 262.397 293.201 261.743 296.564 260.938C299.927 260.132 303.302 259.163 306.74 259.352C312.967 259.667 314.462 262.473 314.948 267.796C315.284 271.571 316.068 275.346 316.741 278.995C316.835 279.688 317.064 280.355 317.414 280.958C318.435 282.456 320.004 280.317 321.225 277.888C321.861 276.622 322.402 275.31 322.844 273.962C324.799 267.67 324.426 259.516 322.695 253.249C322.57 252.821 322.445 252.381 322.308 251.991C319.992 244.919 314.935 238.564 308.01 236.047C305.519 235.129 302.829 234.789 300.275 233.971C293.911 232.033 287.609 227.679 281.194 229.453C276.212 230.837 272.476 235.745 267.332 236.374C266.2 236.333 265.078 236.598 264.081 237.142C263.326 237.868 262.846 238.839 262.723 239.885C261.125 246.828 260.847 254.015 261.901 261.064C262.461 265.433 263.382 269.748 264.654 273.962C265.264 275.915 266.113 277.784 267.182 279.524Z" fill="#201544"/>
</svg>
