<svg width="834" height="806" viewBox="0 0 834 806" fill="none" xmlns="http://www.w3.org/2000/svg">
<path d="M397.989 654.576C398.365 654.231 398.793 653.869 399.254 653.489C398.861 653.869 398.365 654.231 397.989 654.576Z" fill="#F39A83"/>
<path d="M399.75 653.092L400.81 652.264L399.75 653.092Z" fill="#F39A83"/>
<path d="M403.341 650.452L404.691 649.503L403.341 650.452Z" fill="#F39A83"/>
<path d="M394.179 663.221C394.368 665.541 395.032 667.797 396.127 669.846C395.032 667.797 394.368 665.541 394.179 663.221Z" fill="#F39A83"/>
<path d="M401.425 651.816L402.621 650.953L401.425 651.816Z" fill="#F39A83"/>
<path d="M406.348 638.873L407.169 638.479L406.348 638.873Z" fill="#50A2D3"/>
<path d="M404.911 639.548L406.142 638.979L404.911 639.548Z" fill="#50A2D3"/>
<path d="M458.413 613.098L457.216 613.684L459.182 616.117C458.776 615.156 458.517 614.138 458.413 613.098Z" fill="#50A2D3"/>
<path d="M403.988 645.433C403.793 644.525 403.684 643.6 403.664 642.672C403.684 643.6 403.793 644.525 403.988 645.433Z" fill="#50A2D3"/>
<path d="M476.294 625.711C471.679 625.108 467.218 624.245 463.731 621.743L476.551 637.582C476.345 633.872 476.26 629.783 476.294 625.711Z" fill="#50A2D3"/>
<path d="M519.265 641.533C522.575 638.396 526.112 635.512 529.846 632.906C526.427 632.216 523.094 631.387 519.692 630.749L519.265 641.533Z" fill="#50A2D3"/>
<path d="M536.975 465.529L539.642 465.804C538.77 465.701 537.881 465.598 536.975 465.529Z" fill="#F39A83"/>
<path d="M534.119 465.339L536.29 465.476L534.119 465.339Z" fill="#F39A83"/>
<path d="M511.437 472.879C513.022 473.757 514.766 474.303 516.565 474.484C519.727 474.795 525.744 474.035 528.103 471.896C529.693 470.481 530.325 467.168 530.581 465.184L533.385 465.288L529.658 465.167V467.91C529.658 467.91 517.898 472.914 511.437 472.879Z" fill="#F39A83"/>
<path d="M541.281 466.045L540.135 465.891L541.281 466.062V466.045Z" fill="#F39A83"/>
<path d="M506.684 468.083C506.53 467.185 506.393 466.133 506.274 464.994H505.795C505.897 466.071 506.198 467.118 506.684 468.083Z" fill="#F39A83"/>
<path d="M511.436 472.879C517.897 472.879 529.657 467.91 529.657 467.91V465.167L529.521 447.085L529.657 466.651C529.657 466.651 529.657 466.651 529.657 466.547C527.172 462.179 523.533 458.595 519.145 456.195C514.978 454.186 510.296 453.529 505.744 454.314C505.744 452.227 505.744 450.173 505.864 448.155H505.659C505.564 453.794 505.792 459.434 506.342 465.046C506.462 466.185 506.599 467.237 506.753 468.134C507.792 470.165 509.428 471.822 511.436 472.879Z" fill="#F39A83"/>
<path d="M507.112 448.672C506.651 448.534 506.241 448.327 505.796 448.171C505.796 450.19 505.694 452.243 505.676 454.331C510.229 453.546 514.91 454.203 519.077 456.211C523.465 458.611 527.105 462.196 529.59 466.564C529.59 466.564 529.59 466.564 529.59 466.667L529.453 447.102C522.462 450.426 514.492 450.986 507.112 448.672Z" fill="#D48873"/>
<path d="M577.023 625.09C577.092 624.436 577.092 623.777 577.023 623.123C576.989 623.671 576.903 624.214 576.767 624.745C576.903 624.848 576.955 624.969 577.023 625.09Z" fill="white"/>
<path d="M463.816 621.743C467.235 624.245 471.764 625.107 476.38 625.711V624.452C472.713 622.026 469.463 619.013 466.756 615.532C463.791 611.58 461.445 607.193 459.799 602.522C459.423 606.301 458.09 609.648 458.5 613.099C458.604 614.139 458.863 615.157 459.269 616.118L463.816 621.743Z" fill="white"/>
<path d="M529.845 632.837L530.187 632.613C529.894 632.486 529.627 632.305 529.401 632.078C527.691 630.353 530.7 626.246 531.742 624.072L534.409 618.465C531.949 622.446 528.431 625.651 524.256 627.713C522.787 628.378 521.28 628.954 519.743 629.438V630.663C523.093 631.319 526.461 632.147 529.845 632.837Z" fill="white"/>
<path d="M560.187 504.711C561.657 516.788 558.477 530.85 555.691 540.426C554.273 545.257 552.513 549.979 550.426 554.557C550.17 555.109 549.794 555.782 549.401 556.489C552.49 557.696 555.05 559.979 556.617 562.925C558.185 565.871 558.656 569.286 557.947 572.552C556.751 579.143 548.768 587.649 544.529 586.234C543.64 591.203 542.598 596.086 541.453 600.813C540.711 603.884 539.792 606.909 538.701 609.872H575.451C575.451 609.164 575.348 608.457 575.348 607.749C575.348 604.143 575.69 600.727 575.348 597.035C574.921 591.703 574.511 586.389 574.032 581.075C572.459 563.937 570.386 546.844 567.81 529.798C566.733 522.603 565.588 515.425 564.272 508.265C562.956 507.04 561.537 505.85 560.187 504.711Z" fill="white"/>
<path d="M483.13 481.091C482.583 482.523 482.019 483.938 481.421 485.37C489.71 481.494 499.035 480.488 507.949 482.506C512.034 483.541 515.812 485.56 519.914 486.492C524.394 487.496 529.068 487.142 533.349 485.474C536.46 484.266 539.435 482.334 542.768 482.282C544.337 482.285 545.885 482.645 547.297 483.334C547.144 482.938 546.973 482.523 546.819 482.109C544.825 476.807 542.962 471.458 541.229 466.064L540.084 465.891H539.588L536.922 465.615H536.238L534.067 465.477H533.315L530.512 465.373C530.256 467.358 529.623 470.67 528.034 472.085C525.675 474.224 519.658 474.984 516.496 474.673C514.697 474.492 512.953 473.946 511.368 473.068C509.326 472.01 507.665 470.332 506.616 468.272C506.135 467.255 505.856 466.153 505.795 465.028C499.608 465.132 494.172 464.839 488.6 465.494C486.89 470.728 485.067 475.927 483.13 481.091Z" fill="white"/>
<path d="M577.775 513.545C582.209 517.456 586.841 521.13 591.655 524.553C599.039 529.263 604.714 534.905 612.731 529.971L613.551 529.436C615.25 528.229 616.825 526.854 618.252 525.329C612.662 524.398 608.252 528.142 604.047 520.153C601.911 516.083 600.325 511.743 599.33 507.248C601.774 505.039 604.304 502.693 606.885 500.346C602.543 497.103 598.173 494.066 593.774 491.236C590.003 499.695 584.559 507.287 577.775 513.545Z" fill="#F39A83"/>
<path d="M619.602 523.69C619.209 524.174 618.816 524.639 618.406 525.105C618.816 524.708 619.226 524.243 619.602 523.69Z" fill="#F39A83"/>
<path d="M546.87 482.11C547.024 482.524 547.195 482.938 547.349 483.335C548.356 483.811 549.312 484.389 550.204 485.06C556.374 489.684 559.246 496.775 560.186 504.66C561.536 505.885 562.921 507.076 564.34 508.214C567.758 510.975 571.297 513.563 574.92 516.065C575.895 515.271 576.852 514.339 577.775 513.58C584.571 507.287 590.017 499.653 593.774 491.151C593.979 490.685 594.201 490.236 594.389 489.787C580.715 481.281 567.263 473.845 563.793 472.361C556.584 469.189 548.991 466.99 541.213 465.822C541.213 465.822 541.213 465.96 541.213 466.012C542.99 471.453 544.876 476.819 546.87 482.11Z" fill="white"/>
<path d="M654.336 440.58C655.515 439.199 658.746 436.335 661.993 433.333C663.292 428.933 661.532 427.312 661.532 427.312C646.251 435.938 650.455 448.188 651.361 450.345C651.38 450.293 651.409 450.246 651.447 450.207C651.515 447.515 652.421 442.788 654.336 440.58Z" fill="#F39A83"/>
<path d="M654.336 440.58C652.421 442.788 651.515 447.481 651.447 450.207C652.883 447.913 654.148 445.721 655.173 443.651C665.002 423.568 666.677 449.12 666.677 449.12C664.967 452.692 663.378 456.16 661.72 459.593C664.284 458.351 671.651 454.417 675.822 448.033C680.95 440.183 678.762 433.92 677.018 430.59C675.822 428.312 671.89 421.325 670.335 424.586C669.48 426.311 665.72 429.917 661.993 433.333C658.677 436.335 655.515 439.148 654.336 440.58Z" fill="#F39A83"/>
<path d="M603.979 520.239C608.184 528.21 612.525 524.466 618.183 525.415L618.32 525.242C618.73 524.777 619.123 524.311 619.517 523.828C636.448 504.53 650.625 482.938 661.634 459.679C663.343 456.228 664.933 452.777 666.591 449.206C666.591 449.206 664.882 423.653 655.087 443.737C654.062 445.807 652.797 447.998 651.361 450.293C651.323 450.332 651.294 450.379 651.276 450.431C641.635 465.562 623.362 484.783 606.833 500.466C604.252 502.882 601.706 505.228 599.261 507.368C600.265 511.849 601.851 516.177 603.979 520.239Z" fill="#F39A83"/>
<path d="M440.278 487.596C434.552 491.046 428.792 495.032 423.185 499.276C425.766 501.692 428.313 504.038 430.74 506.264C429.744 510.753 428.157 515.088 426.023 519.153C421.818 527.124 418.399 524.329 412.81 525.329C411.716 524.07 410.673 522.828 409.63 521.603C411.511 524.248 413.823 526.553 416.468 528.418L417.288 528.953C425.305 533.939 430.963 528.245 438.364 523.552C442.925 520.332 447.318 516.877 451.526 513.2L452.004 512.337C449.971 503.311 445.965 494.858 440.278 487.596Z" fill="#F39A83"/>
<path d="M481.473 485.37C482.02 483.938 482.584 482.523 483.182 481.091C485.131 475.927 486.948 470.716 488.635 465.459L488.84 464.855C481.042 466.002 473.431 468.196 466.208 471.377C463.046 472.723 451.696 478.952 439.423 486.44C439.731 486.819 439.988 487.216 440.278 487.596C445.949 494.839 449.949 503.268 451.987 512.268C458.691 500.332 469.032 490.899 481.473 485.37Z" fill="white"/>
<path d="M375.665 439.562C377.58 441.77 378.486 446.463 378.554 449.189C378.588 449.231 378.617 449.278 378.639 449.327C379.545 447.188 383.767 435.024 368.384 426.294C368.384 426.294 366.674 427.916 367.922 432.315C371.255 435.318 374.469 438.182 375.665 439.562Z" fill="#F39A83"/>
<path d="M374.828 442.599C375.957 444.848 377.201 447.037 378.555 449.155C378.555 446.464 377.58 441.736 375.666 439.528C374.47 438.147 371.256 435.283 368.008 432.281C364.282 428.899 360.522 425.345 359.667 423.62C358.077 420.359 354.18 427.347 352.983 429.624C351.274 432.971 349.069 439.217 354.18 447.067C358.368 453.503 365.786 457.42 368.316 458.645C366.607 455.194 364.897 451.743 363.325 448.154C363.325 448.103 364.983 422.55 374.828 442.599Z" fill="#F39A83"/>
<path d="M425.955 519.153C428.091 515.083 429.677 510.742 430.672 506.247C428.228 504.039 425.698 501.692 423.117 499.346C406.554 483.818 388.281 464.528 378.675 449.397C378.653 449.347 378.624 449.301 378.59 449.259C377.221 447.107 375.965 444.884 374.829 442.599C364.983 422.516 363.325 448.068 363.325 448.068C365.035 451.622 366.624 455.108 368.317 458.558C379.269 481.296 393.137 502.481 409.562 521.568C410.605 522.793 411.648 524.036 412.742 525.295C418.331 524.381 421.75 527.141 425.955 519.153Z" fill="#F39A83"/>
<path d="M507.112 448.672C514.51 450.995 522.501 450.428 529.504 447.085C531.12 446.313 532.659 445.389 534.102 444.324C539.008 440.462 543.238 435.796 546.614 430.521C549.503 426.277 550.443 420.739 552.136 415.856C551.75 415.471 551.488 414.978 551.383 414.441C550.631 411.094 551.383 407.54 553.623 401.794C554.076 400.619 554.43 399.407 554.682 398.171C554.203 397.344 553.889 396.429 553.759 395.479C552.836 390.424 551.76 385.248 551.298 380.124C550.631 372.825 548.495 368.978 540.034 368.547C535.316 368.288 530.667 369.616 526.069 370.721C521.47 371.825 516.633 372.722 512.035 371.618C506.907 370.375 502.087 366.683 496.839 367.494C487.13 369.012 487.729 378.243 486.874 385.955L486.156 392.564C486.019 393.892 486.002 395.307 485.9 396.584L485.746 396.342C485.746 396.86 485.746 397.412 485.9 398.067C486.72 404.158 486.601 407.816 485.062 410.887C484.86 411.304 484.561 411.665 484.19 411.939C485.253 418.268 486.878 424.487 489.045 430.521V430.729C490.323 434.703 492.464 438.339 495.312 441.372C498.16 444.404 501.642 446.757 505.505 448.258H505.711C506.241 448.327 506.651 448.534 507.112 448.672ZM531.897 405.159C531.24 405.123 530.623 404.828 530.178 404.338C529.734 403.847 529.498 403.2 529.521 402.536C529.536 402.201 529.618 401.873 529.761 401.57C529.904 401.268 530.106 400.998 530.355 400.776C530.604 400.554 530.894 400.384 531.209 400.278C531.524 400.171 531.857 400.129 532.188 400.155C532.513 400.168 532.832 400.247 533.126 400.385C533.421 400.523 533.686 400.719 533.905 400.962C534.125 401.204 534.294 401.487 534.404 401.796C534.514 402.105 534.563 402.433 534.547 402.76C534.534 403.095 534.454 403.424 534.313 403.727C534.172 404.03 533.972 404.302 533.725 404.526C533.478 404.749 533.189 404.921 532.875 405.029C532.561 405.138 532.228 405.182 531.897 405.159ZM529.162 389.924C533.664 389.932 538.023 391.524 541.487 394.427C541.62 394.541 541.73 394.681 541.81 394.838C541.89 394.996 541.939 395.167 541.953 395.344C541.967 395.52 541.947 395.697 541.894 395.866C541.84 396.034 541.754 396.19 541.64 396.325C541.517 396.479 541.361 396.603 541.183 396.687C541.005 396.771 540.811 396.812 540.615 396.808C540.299 396.812 539.994 396.695 539.76 396.48C536.813 393.947 533.067 392.558 529.197 392.564C528.867 392.526 528.562 392.367 528.341 392.117C528.12 391.867 527.998 391.544 527.998 391.209C527.998 390.874 528.12 390.551 528.341 390.301C528.562 390.051 528.867 389.892 529.197 389.855L529.162 389.924ZM512.873 414.286C512.936 413.866 513.028 413.451 513.146 413.044C513.351 412.284 513.625 411.543 513.881 410.835C514.479 409.403 515.112 408.092 515.744 406.781C516.394 405.441 516.965 404.064 517.454 402.657C517.949 404.191 518.008 405.835 517.625 407.402C517.297 408.908 516.834 410.381 516.24 411.801C515.949 412.474 515.693 413.147 515.437 413.82C515.176 414.302 515.008 414.828 514.941 415.373C515.033 416 515.28 416.593 515.659 417.098C516.064 417.736 516.509 418.347 516.992 418.927C516.197 418.77 515.441 418.453 514.77 417.995C513.997 417.522 513.397 416.807 513.061 415.959C512.845 415.43 512.78 414.85 512.873 414.286ZM497.865 394.858C497.58 394.86 497.303 394.77 497.073 394.601C496.843 394.432 496.673 394.193 496.587 393.919C496.501 393.645 496.504 393.351 496.595 393.079C496.687 392.808 496.862 392.572 497.096 392.408C500.807 389.836 505.299 388.669 509.779 389.113C510.132 389.149 510.457 389.326 510.681 389.605C510.906 389.883 511.012 390.24 510.975 390.597C510.939 390.954 510.764 391.281 510.488 391.508C510.212 391.734 509.859 391.841 509.505 391.804C505.658 391.433 501.804 392.454 498.634 394.686C498.403 394.826 498.133 394.886 497.865 394.858ZM502.702 401.328C502.723 400.834 502.889 400.356 503.179 399.956C503.469 399.557 503.87 399.253 504.331 399.084C504.792 398.914 505.293 398.887 505.769 399.005C506.246 399.123 506.677 399.381 507.008 399.747C507.339 400.113 507.555 400.569 507.629 401.059C507.703 401.549 507.631 402.049 507.422 402.498C507.214 402.946 506.878 403.322 506.458 403.578C506.037 403.833 505.551 403.957 505.061 403.934C504.736 403.92 504.417 403.842 504.122 403.704C503.828 403.566 503.563 403.37 503.344 403.127C503.124 402.885 502.955 402.601 502.845 402.293C502.735 401.984 502.686 401.656 502.702 401.328ZM504.104 425.483L528.974 426.605C528.051 431.902 522.564 435.818 516.12 435.525C509.676 435.232 504.548 430.867 504.104 425.518V425.483Z" fill="#F39A83"/>
<path d="M554.683 398.239C554.431 399.474 554.076 400.686 553.623 401.862C551.367 407.573 550.632 411.162 551.384 414.509C551.488 415.046 551.75 415.539 552.136 415.924C554.802 418.512 562.802 412.973 564.785 407.918C565.865 405.424 565.963 402.607 565.058 400.043C564.153 397.478 562.313 395.358 559.913 394.115C558.238 397.359 556.119 400.292 554.683 398.239ZM557.64 399.119C559.036 399.778 560.116 400.969 560.645 402.43C561.174 403.892 561.107 405.505 560.46 406.917C560.003 408.234 559.107 409.349 557.925 410.073C556.744 410.797 555.35 411.084 553.982 410.886C554.304 409.883 554.572 408.864 554.785 407.832C555.298 405.365 555.076 400.93 557.264 399.205C557.264 399.205 557.264 399.205 557.366 399.084L557.64 399.119Z" fill="#F39A83"/>
<path d="M554.784 407.833C554.57 408.865 554.302 409.884 553.98 410.887C555.348 411.086 556.742 410.798 557.924 410.075C559.106 409.351 560.001 408.235 560.459 406.919C561.106 405.507 561.172 403.893 560.644 402.432C560.115 400.97 559.034 399.779 557.638 399.12H557.365C557.365 399.12 557.365 399.206 557.262 399.241C555.074 400.88 555.297 405.366 554.784 407.833Z" fill="#F39A83"/>
<path d="M485.063 410.731C486.601 407.66 486.772 404.003 485.9 397.912C485.9 397.343 485.781 396.791 485.746 396.187C484.297 393.798 483.149 391.236 482.328 388.561H482.14C480.771 388.808 479.465 389.325 478.295 390.083C477.124 390.841 476.113 391.823 475.32 392.975C474.526 394.128 473.965 395.426 473.669 396.797C473.373 398.168 473.347 399.585 473.593 400.966C474.345 406.47 481.046 413.958 484.174 411.68C484.539 411.437 484.843 411.113 485.063 410.731ZM483.353 406.591C481.991 406.439 480.721 405.82 479.757 404.837C478.792 403.854 478.191 402.567 478.055 401.19C477.762 399.665 478.077 398.085 478.932 396.793C479.786 395.501 481.111 394.601 482.618 394.289C482.715 394.28 482.812 394.28 482.909 394.289C482.912 394.335 482.912 394.381 482.909 394.427C484.618 396.618 483.336 400.914 483.251 403.433C483.243 404.488 483.294 405.542 483.405 406.591H483.353Z" fill="#F39A83"/>
<path d="M483.011 394.409C483.015 394.363 483.015 394.317 483.011 394.271C482.88 394.262 482.748 394.267 482.618 394.288C481.107 394.597 479.779 395.495 478.921 396.787C478.063 398.08 477.745 399.662 478.037 401.19C478.172 402.577 478.779 403.875 479.754 404.863C480.729 405.85 482.013 406.467 483.387 406.607C483.327 405.55 483.327 404.49 483.387 403.433C483.439 400.896 484.721 396.6 483.011 394.409Z" fill="#F39A83"/>
<path d="M516.12 435.559C522.564 435.852 528.085 431.936 528.974 426.639L504.103 425.518C504.548 430.866 509.676 435.266 516.12 435.559Z" fill="white"/>
<path d="M532.189 400.154C531.863 400.138 531.537 400.187 531.231 400.298C530.924 400.409 530.642 400.58 530.4 400.801C530.159 401.022 529.963 401.289 529.824 401.587C529.685 401.884 529.606 402.207 529.59 402.535C529.567 403.2 529.803 403.846 530.247 404.337C530.692 404.827 531.309 405.122 531.966 405.158C532.292 405.172 532.617 405.121 532.923 405.008C533.229 404.895 533.51 404.722 533.75 404.499C533.989 404.276 534.183 404.008 534.32 403.71C534.457 403.411 534.534 403.088 534.547 402.76C534.563 402.432 534.515 402.104 534.405 401.795C534.295 401.487 534.125 401.203 533.906 400.961C533.687 400.719 533.422 400.523 533.127 400.384C532.832 400.246 532.513 400.168 532.189 400.154Z" fill="#27090B"/>
<path d="M507.66 401.552C507.674 401.223 507.625 400.895 507.514 400.586C507.403 400.277 507.232 399.993 507.012 399.75C506.793 399.507 506.528 399.311 506.232 399.171C505.937 399.032 505.618 398.953 505.292 398.938C504.967 398.923 504.642 398.973 504.335 399.086C504.029 399.198 503.748 399.37 503.507 399.592C503.267 399.813 503.072 400.081 502.934 400.379C502.796 400.677 502.717 400.999 502.703 401.328C502.673 401.991 502.906 402.639 503.35 403.13C503.794 403.62 504.413 403.912 505.07 403.942C505.728 403.971 506.37 403.736 506.855 403.288C507.341 402.84 507.63 402.215 507.66 401.552Z" fill="#27090B"/>
<path d="M509.505 391.735C509.693 391.795 509.893 391.812 510.089 391.785C510.285 391.758 510.472 391.687 510.637 391.578C510.803 391.468 510.942 391.323 511.045 391.153C511.148 390.982 511.212 390.791 511.233 390.592C511.254 390.394 511.23 390.193 511.165 390.005C511.099 389.817 510.993 389.646 510.854 389.504C510.714 389.362 510.546 389.254 510.36 389.186C510.174 389.118 509.975 389.093 509.778 389.112C505.29 388.688 500.797 389.88 497.095 392.477C496.862 392.641 496.687 392.876 496.595 393.148C496.503 393.419 496.5 393.714 496.586 393.987C496.672 394.261 496.843 394.5 497.073 394.669C497.303 394.838 497.58 394.928 497.864 394.927C498.14 394.934 498.411 394.849 498.634 394.685C501.795 392.429 505.649 391.383 509.505 391.735Z" fill="#522200"/>
<path d="M529.196 392.563C533.058 392.538 536.803 393.902 539.759 396.411C539.993 396.625 540.298 396.742 540.614 396.739C540.81 396.743 541.004 396.701 541.182 396.618C541.36 396.534 541.516 396.41 541.639 396.256C541.753 396.121 541.839 395.965 541.892 395.796C541.946 395.628 541.966 395.451 541.952 395.274C541.938 395.098 541.889 394.926 541.809 394.769C541.729 394.612 541.619 394.472 541.485 394.358C538.021 391.455 533.663 389.863 529.161 389.854C528.832 389.892 528.527 390.051 528.306 390.301C528.085 390.551 527.963 390.874 527.963 391.209C527.963 391.544 528.085 391.867 528.306 392.117C528.527 392.367 528.832 392.526 529.161 392.563H529.196Z" fill="#522200"/>
<path d="M514.786 417.926C515.458 418.384 516.213 418.701 517.008 418.858C516.526 418.278 516.08 417.667 515.675 417.029C515.296 416.524 515.049 415.931 514.957 415.304C515.024 414.759 515.192 414.233 515.453 413.751C515.709 413.078 515.966 412.405 516.256 411.732C516.85 410.312 517.314 408.839 517.641 407.333C518.025 405.766 517.965 404.122 517.47 402.588C516.981 403.995 516.41 405.372 515.761 406.711C515.128 408.023 514.496 409.334 513.897 410.766C513.641 411.473 513.368 412.215 513.162 412.975C513.044 413.382 512.953 413.797 512.889 414.217C512.798 414.756 512.851 415.31 513.043 415.821C513.375 416.7 513.989 417.441 514.786 417.926Z" fill="#DE7778"/>
<path d="M375.649 721.071C374.076 723.763 372.589 726.506 371.102 729.232C377.632 718.483 384.52 707.872 391.221 697.192C385.614 704.868 380.417 712.839 375.649 721.071Z" fill="#F39A83"/>
<path d="M412.195 728.318C408.144 713.791 403.734 697.883 399.802 683.459C399.204 684.322 398.674 685.184 398.196 685.943C395.917 689.716 391.637 693.088 389.267 696.849C382.566 707.529 375.666 716.236 369.222 726.985L351.911 761.687C358.289 763.513 388.753 774.472 400.2 778.124C402.371 775.485 406.571 756.89 408.605 754.13C406.794 749.609 404.435 739.619 412.195 728.318Z" fill="#C03037"/>
<path d="M482.618 654.663L481.969 655.181C483.701 656.119 485.537 656.849 487.439 657.355C485.765 656.586 484.153 655.686 482.618 654.663Z" fill="#F39A83"/>
<path d="M575.314 672.434C575.61 670.168 575.512 667.867 575.023 665.636C574.324 667.294 573.513 668.903 572.596 670.449C573.536 671.063 574.443 671.725 575.314 672.434Z" fill="#C03037"/>
<path d="M567.793 786.756C555.964 757.925 545.777 728.094 544.922 697.934C544.922 697.227 544.922 696.502 544.922 695.743C539.794 699.194 534.513 702.455 529.812 705.802C527.744 707.286 525.111 708.804 522.838 707.7C522.36 707.446 521.931 707.107 521.573 706.699C521.112 707.303 520.65 707.89 520.154 708.425C517.19 711.884 513.577 714.716 509.522 716.758C509.266 719.277 508.941 721.762 508.565 724.246C522.941 736.099 520.291 749.626 519.163 753.387C534.363 766.283 550.417 778.118 567.212 788.809L568.289 788.395V787.653C568.083 787.394 567.913 787.066 567.793 786.756Z" fill="#C03037"/>
<path d="M501.333 768.079C499.231 777.154 481.74 785.362 479.466 797.302C484.022 799.128 502.244 800.041 507.711 800.955C515 801.868 527.278 802.807 537.3 802.807C526.333 793.546 510.496 779.16 501.333 768.079Z" fill="#C03037"/>
<path d="M473.867 723.4C474.226 722.589 474.773 721.399 475.44 720.087C475.44 714.911 475.44 709.614 475.44 704.438C475.211 699.563 476.261 694.712 478.483 690.377C478.928 689.576 479.431 688.809 479.987 688.082C479.166 688.772 478.278 689.462 477.577 690.204C478.243 685.839 478.893 679.748 481.303 675.987C483.713 672.226 488.516 669.189 491.849 666.256C494.465 663.961 497.165 661.701 499.849 659.355C495.592 659.796 491.296 659.081 487.405 657.284C485.504 656.778 483.668 656.049 481.935 655.11C466.342 667.731 450.017 679.404 433.049 690.066C433.733 697.244 434.382 705.186 434.998 713.893C435.798 712.818 436.485 711.661 437.049 710.443C439.237 704.852 446.365 714.773 448.57 718.034C451.8 722.813 456.091 732.061 448.809 745.83C445.817 751.18 441.964 755.99 437.408 760.064C437.51 762.635 437.613 765.24 437.698 767.897C437.698 768.656 437.698 769.346 437.698 770.002C438.353 769.651 438.981 769.253 439.579 768.811C441.253 773.474 409.625 741.304 410.222 746.227C410.373 747.318 397.538 776.111 397.467 777.21C407.923 781.71 464.454 794.446 475.594 796.728C475.594 787.411 475.594 768.294 475.594 746.227C469.628 736.116 471.833 728.024 473.867 723.4Z" fill="#C03037"/>
<path d="M506.224 653.972C510.446 650.193 514.77 645.742 519.266 641.532L519.693 630.68V629.455C518.804 629.731 517.984 629.99 516.975 630.231C515.314 630.943 513.599 631.52 511.847 631.956C506.217 633.475 500.325 633.72 494.59 632.677C488.856 631.633 483.42 629.325 478.67 625.918C477.832 625.435 476.96 624.934 476.225 624.399V625.659C476.225 629.731 476.225 633.82 476.482 637.529L482.567 654.61C484.101 655.633 485.713 656.533 487.387 657.302C491.278 659.099 495.574 659.814 499.831 659.372C502.019 657.63 504.155 655.818 506.224 653.972Z" fill="#E6927C"/>
<path d="M557.948 572.465C558.657 569.199 558.185 565.784 556.618 562.838C555.05 559.893 552.491 557.61 549.401 556.402C548.735 557.558 547.983 558.852 547.35 560.164C547.35 561.216 547.35 562.269 547.231 563.321C549.019 563.931 550.519 565.191 551.438 566.856C552.358 568.521 552.631 570.471 552.205 572.327C551.954 573.98 551.187 575.509 550.016 576.692C548.845 577.874 547.33 578.648 545.692 578.901C545.35 581.334 544.957 583.732 544.53 586.113C548.769 587.528 556.751 579.056 557.948 572.465Z" fill="#F39A83"/>
<path d="M552.204 572.329C552.616 570.48 552.336 568.542 551.418 566.889C550.499 565.236 549.008 563.984 547.23 563.374C546.956 568.55 546.444 573.83 545.692 578.989C547.342 578.731 548.866 577.944 550.038 576.745C551.211 575.546 551.97 573.997 552.204 572.329Z" fill="#EE7379"/>
<path d="M452.635 576.211C452.627 576.285 452.627 576.36 452.635 576.435C452.857 577.798 453.165 579.127 453.507 580.438C451.727 580.615 449.941 580.163 448.454 579.159C446.967 578.156 445.871 576.662 445.354 574.934C444.601 573.069 444.61 570.978 445.378 569.12C446.147 567.261 447.613 565.785 449.456 565.013C449.575 565.005 449.695 565.005 449.815 565.013C449.815 565.013 449.815 565.134 449.952 565.186C450.018 565.247 450.075 565.316 450.123 565.393C450.123 565.22 450.123 565.03 450.123 564.841C450.131 564.68 450.131 564.518 450.123 564.357C449.764 562.339 449.439 560.32 449.131 558.284C449.131 558.094 449.131 557.905 449.011 557.715C448.476 557.811 447.949 557.956 447.439 558.146C440.602 560.51 437.183 568.498 439.815 576.038C442.037 582.543 451.781 589.996 455.473 587.322L454.242 582.008C453.558 580.024 453.114 578.126 452.635 576.211Z" fill="#F39A83"/>
<path d="M449.833 564.927C449.714 564.919 449.594 564.919 449.474 564.927C447.631 565.699 446.165 567.175 445.397 569.034C444.628 570.892 444.619 572.982 445.372 574.848C445.874 576.598 446.968 578.116 448.464 579.137C449.96 580.159 451.763 580.619 453.559 580.438C453.218 579.127 452.91 577.798 452.688 576.435C452.679 576.361 452.679 576.285 452.688 576.211C452.448 575.262 452.226 574.33 452.004 573.381C451.164 570.746 450.541 568.045 450.141 565.306C450.093 565.23 450.036 565.16 449.97 565.099C449.97 565.099 449.884 564.979 449.833 564.927Z" fill="#EE7379"/>
<path d="M535.812 529.988C528.974 515.771 508.035 515.254 494.668 516.185C486.686 516.72 478.55 517.997 471.49 521.776C455.2 530.523 455.935 550.52 454.653 567.101C455.029 568.464 455.32 569.844 455.662 571.173C458.328 581.249 466.037 592.291 477.592 591.463C484.789 590.928 491.267 587.063 498.532 586.718C500.149 586.666 501.768 586.758 503.369 586.994L503.899 586.338C504.486 585.682 504.913 584.896 505.147 584.044C505.14 583.232 504.959 582.432 504.617 581.697L503.625 578.816C502.888 576.832 502.316 574.789 501.916 572.708C501.464 570.55 501.564 568.312 502.207 566.204C502.676 568.218 503.305 570.191 504.087 572.104C504.822 573.985 505.659 575.848 506.343 577.85C506.709 578.865 507.012 579.902 507.249 580.955C507.388 581.523 507.491 582.099 507.557 582.681C507.655 583.387 507.566 584.107 507.3 584.768C506.816 585.828 506.023 586.713 505.027 587.305C515.488 589.203 527.094 594.862 536.119 587.978C543.35 582.474 544.512 571.552 544.666 563.132C544.791 558.247 544.591 553.359 544.068 548.501C543.298 545.948 542.358 543.55 542.102 542.721C540.529 538.132 537.88 534.267 535.812 529.988ZM484.327 568.723C483.651 568.723 482.99 568.52 482.428 568.141C481.866 567.762 481.427 567.223 481.169 566.592C480.91 565.962 480.842 565.268 480.974 564.599C481.106 563.929 481.432 563.314 481.91 562.832C482.388 562.349 482.997 562.021 483.66 561.887C484.323 561.754 485.011 561.823 485.635 562.084C486.26 562.345 486.794 562.787 487.17 563.355C487.545 563.922 487.746 564.589 487.746 565.272C487.746 566.187 487.386 567.065 486.744 567.712C486.103 568.359 485.234 568.723 484.327 568.723ZM488.788 552.487C483.666 552.236 478.621 553.826 474.55 556.973C474.062 557.357 473.459 557.564 472.841 557.559C472.259 557.555 471.694 557.368 471.222 557.025C470.751 556.682 470.397 556.199 470.209 555.644C470.021 555.089 470.009 554.488 470.174 553.926C470.34 553.363 470.674 552.866 471.131 552.504C476.27 548.538 482.635 546.539 489.096 546.862C489.462 546.883 489.82 546.976 490.151 547.136C490.481 547.296 490.777 547.52 491.021 547.796C491.266 548.071 491.454 548.393 491.575 548.742C491.697 549.091 491.749 549.461 491.728 549.83C491.708 550.199 491.616 550.561 491.457 550.894C491.299 551.228 491.077 551.526 490.804 551.773C490.531 552.02 490.212 552.21 489.866 552.332C489.521 552.455 489.154 552.507 488.788 552.487ZM515.915 546.862C522.381 546.544 528.75 548.542 533.897 552.504C534.428 552.98 534.761 553.642 534.827 554.356C534.894 555.07 534.689 555.782 534.255 556.35C533.821 556.917 533.189 557.297 532.488 557.413C531.787 557.528 531.069 557.371 530.479 556.973C526.403 553.834 521.361 552.245 516.24 552.487C515.874 552.506 515.508 552.452 515.163 552.329C514.817 552.205 514.5 552.014 514.227 551.767C513.955 551.519 513.734 551.22 513.576 550.886C513.419 550.552 513.328 550.191 513.309 549.821C513.289 549.452 513.343 549.082 513.465 548.734C513.587 548.385 513.777 548.064 514.022 547.79C514.267 547.515 514.564 547.292 514.894 547.132C515.225 546.973 515.584 546.881 515.949 546.862H515.915ZM524.992 565.255C524.992 565.937 524.791 566.604 524.416 567.172C524.04 567.739 523.506 568.181 522.881 568.443C522.257 568.704 521.569 568.772 520.906 568.639C520.243 568.506 519.634 568.177 519.156 567.695C518.678 567.212 518.352 566.597 518.22 565.928C518.088 565.258 518.156 564.565 518.415 563.934C518.673 563.303 519.112 562.765 519.674 562.385C520.236 562.006 520.897 561.804 521.573 561.804C522.48 561.804 523.349 562.167 523.99 562.815C524.632 563.462 524.992 564.339 524.992 565.255Z" fill="#F39A83"/>
<path d="M511.916 632.008C513.668 631.572 515.383 630.995 517.044 630.283C508.545 632.285 499.718 632.415 491.165 630.662C486.826 629.755 482.656 628.165 478.806 625.952C483.547 629.352 488.971 631.657 494.693 632.704C500.415 633.751 506.295 633.513 511.916 632.008Z" fill="#F39A83"/>
<path d="M450.037 564.271C450.037 563.754 450.037 563.254 450.037 562.77C449.713 561.252 449.405 559.734 449.097 558.198C449.354 560.234 449.678 562.253 450.037 564.271Z" fill="#F39A83"/>
<path d="M454.157 581.921C453.781 580.282 453.388 578.661 452.978 577.073C452.67 575.865 452.311 574.623 451.952 573.381C452.174 574.33 452.397 575.262 452.636 576.21C453.115 578.126 453.559 580.024 454.157 581.921Z" fill="#F39A83"/>
<path d="M484.327 561.787C483.651 561.787 482.99 561.989 482.427 562.369C481.865 562.748 481.427 563.287 481.168 563.917C480.91 564.548 480.842 565.242 480.974 565.911C481.106 566.58 481.431 567.195 481.909 567.678C482.387 568.16 482.997 568.489 483.66 568.622C484.323 568.755 485.01 568.687 485.635 568.426C486.26 568.165 486.794 567.722 487.169 567.155C487.545 566.587 487.745 565.92 487.745 565.238C487.745 564.323 487.385 563.445 486.744 562.798C486.103 562.151 485.233 561.787 484.327 561.787Z" fill="#27090B"/>
<path d="M518.12 565.254C518.12 565.937 518.321 566.604 518.697 567.172C519.072 567.739 519.606 568.181 520.231 568.443C520.855 568.704 521.543 568.772 522.206 568.639C522.869 568.506 523.478 568.177 523.956 567.695C524.434 567.212 524.76 566.597 524.892 565.928C525.024 565.258 524.956 564.564 524.697 563.934C524.439 563.303 524 562.764 523.438 562.385C522.876 562.006 522.215 561.804 521.539 561.804C520.632 561.804 519.763 562.167 519.122 562.814C518.481 563.462 518.12 564.339 518.12 565.254Z" fill="#27090B"/>
<path d="M516.206 552.487C521.327 552.245 526.369 553.834 530.445 556.973C530.934 557.354 531.536 557.561 532.154 557.559C532.735 557.555 533.301 557.368 533.772 557.025C534.244 556.682 534.598 556.199 534.786 555.644C534.973 555.089 534.985 554.488 534.82 553.926C534.655 553.363 534.321 552.866 533.863 552.504C528.72 548.546 522.358 546.548 515.899 546.862C515.533 546.881 515.174 546.973 514.843 547.132C514.513 547.292 514.216 547.515 513.971 547.79C513.726 548.064 513.537 548.385 513.414 548.734C513.292 549.082 513.239 549.452 513.258 549.821C513.277 550.19 513.368 550.552 513.525 550.886C513.683 551.22 513.904 551.519 514.176 551.767C514.449 552.014 514.766 552.205 515.112 552.329C515.457 552.452 515.823 552.506 516.189 552.487H516.206Z" fill="#201544"/>
<path d="M489.096 546.862C482.635 546.539 476.27 548.538 471.131 552.504C470.674 552.866 470.34 553.363 470.174 553.925C470.009 554.488 470.021 555.088 470.209 555.644C470.397 556.199 470.751 556.681 471.222 557.025C471.694 557.368 472.259 557.555 472.84 557.559C473.459 557.563 474.062 557.356 474.55 556.973C478.621 553.825 483.666 552.236 488.788 552.487C489.527 552.528 490.252 552.271 490.804 551.773C491.355 551.274 491.688 550.575 491.728 549.83C491.769 549.084 491.515 548.352 491.021 547.795C490.527 547.239 489.835 546.903 489.096 546.862Z" fill="#201544"/>
<path d="M507.301 584.699C507.567 584.038 507.655 583.317 507.557 582.611C507.492 582.03 507.389 581.453 507.25 580.886C507.012 579.832 506.71 578.795 506.344 577.78C505.66 575.779 504.822 573.915 504.087 572.035C503.305 570.122 502.676 568.148 502.207 566.134C501.565 568.242 501.465 570.48 501.917 572.638C502.316 574.719 502.888 576.762 503.626 578.746L504.617 581.627C504.959 582.362 505.14 583.162 505.147 583.974C504.913 584.826 504.486 585.612 503.899 586.269L503.369 586.924L505.079 587.2C506.051 586.609 506.825 585.738 507.301 584.699Z" fill="#DE7778"/>
<path d="M594.596 700.194C591.468 692.275 584.34 679.645 575.315 672.433C574.444 671.725 573.536 671.062 572.597 670.449C566.409 680.801 555.657 688.634 544.872 695.743C544.872 696.502 544.872 697.227 544.872 697.934C545.726 728.162 541.438 756.599 553.267 785.43C553.386 785.74 555.089 800.041 565.607 788.36C565.744 788.671 559.559 803.469 559.644 803.694C567.844 805.52 609.756 806.433 639.822 804.607C639.121 802.882 616.851 754.905 616.116 753.128C608.954 735.495 601.604 717.914 594.596 700.194Z" fill="#C03037"/>
<path d="M486.361 684.149C484.068 685.115 481.935 686.43 480.036 688.048C479.48 688.775 478.978 689.542 478.532 690.343C476.31 694.678 475.261 699.529 475.49 704.404L510.274 700.505C510.291 705.939 510.023 711.37 509.471 716.775C513.525 714.733 517.139 711.901 520.103 708.442C520.598 707.855 521.06 707.268 521.521 706.716C520.914 706.022 520.381 705.264 519.932 704.456C513.676 694.156 499.711 678.8 486.361 684.149Z" fill="#EA947E"/>
<path d="M576.391 625.97C575.385 627.627 573.874 628.911 572.084 629.628C564.375 633.251 554.991 633.337 546.684 633.286C543.744 633.286 533.607 634.355 530.189 632.613L529.847 632.837C526.113 635.444 522.576 638.327 519.266 641.464C514.771 645.674 510.446 650.091 506.224 653.904C504.156 655.75 502.019 657.561 499.9 659.356C497.216 661.633 494.515 663.893 491.9 666.257C488.481 669.19 483.781 672.21 481.354 675.988C478.926 679.767 478.294 685.84 477.627 690.205C478.397 689.463 479.217 688.773 480.037 688.083C481.936 686.465 484.069 685.15 486.362 684.184C499.695 678.801 513.711 694.156 519.933 704.439C520.382 705.248 520.915 706.005 521.522 706.7C521.881 707.108 522.309 707.447 522.787 707.7C525.061 708.805 527.693 707.286 529.761 705.802C534.462 702.455 539.675 699.177 544.872 695.744C555.657 688.635 566.409 680.854 572.597 670.45C573.514 668.903 574.325 667.295 575.024 665.636C577.208 660.406 578.168 654.738 577.827 649.073C577.827 647.019 577.673 644.966 577.622 642.879C577.537 638.462 578.238 634.131 578.049 629.731C578.051 628.127 577.701 626.542 577.024 625.09C577.024 624.969 576.904 624.849 576.836 624.745C576.736 625.17 576.587 625.581 576.391 625.97Z" fill="#50A2D3"/>
<path d="M497.027 765.551C489.974 761.904 483.701 756.892 478.566 750.799C477.424 749.363 476.384 747.847 475.455 746.262C475.455 768.329 475.455 787.446 475.455 796.763C481.065 797.916 486.731 798.774 492.429 799.334C494.702 787.394 496.959 777.163 499.061 768.087C498.412 767.208 497.694 766.397 497.027 765.551Z" fill="#EA947E"/>
<path d="M475.49 704.438C475.49 709.614 475.49 714.791 475.49 720.087C477.78 715.636 481.472 709.908 483.899 713.859C485.609 716.568 492.292 722.123 498.907 727.42C496.104 720.519 498.736 717.948 498.736 717.948C502.229 719.702 505.524 721.83 508.565 724.297C508.941 721.813 509.266 719.328 509.522 716.809C510.074 711.404 510.343 705.973 510.325 700.539L475.49 704.438Z" fill="#EA947E"/>
<path d="M412.195 728.318C415.237 724.034 418.935 720.265 423.151 717.155C423.151 717.155 426.211 719.208 424.655 726.506C428.621 721.951 432.57 717.293 434.911 713.894C434.296 705.175 433.646 697.233 432.963 690.067C431.468 691.137 429.819 691.969 428.074 692.534C426.724 692.017 424.485 689.256 421.886 685.236C419.374 686.202 417.1 686.961 415.186 687.669C415.005 687.735 414.814 687.77 414.622 687.772C413.254 687.772 411.819 686.651 410.383 685.857C410.383 685.857 408.776 684.649 406.571 682.648C402.368 679.023 398.817 674.692 396.076 669.846C397.238 674.159 398.469 678.697 399.751 683.407C403.733 697.952 408.143 713.791 412.195 728.318Z" fill="#EA947E"/>
<path d="M429.476 766.535C428.587 768.484 427.664 770.399 426.707 772.297C430.498 772.477 434.272 771.688 437.68 770.003C437.68 769.347 437.68 768.657 437.68 767.898C437.68 765.241 437.492 762.722 437.39 760.064C434.889 762.387 432.246 764.548 429.476 766.535Z" fill="#EA947E"/>
<path d="M442.943 783.236C442.346 778.314 441.199 773.475 439.525 768.812C438.927 769.255 438.299 769.652 437.644 770.003C434.236 771.688 430.462 772.477 426.671 772.298C425.85 773.885 421.303 781.93 420.5 783.5C426.582 787.024 439 788.5 445 790C445.105 788.904 443.06 784.331 442.943 783.236Z" fill="#1C0F39"/>
<path d="M406.622 682.647C408.827 684.648 410.433 685.856 410.433 685.856C411.869 686.65 413.305 687.84 414.673 687.771C414.865 687.769 415.056 687.734 415.237 687.668C417.151 687.029 419.424 686.201 421.937 685.235C415.903 675.884 407.989 659.752 404.844 649.348L404.622 649.503L403.271 650.452C403.032 650.607 402.776 650.78 402.553 650.952L401.357 651.815L400.742 652.281L399.682 653.109L399.186 653.489C398.725 653.868 398.297 654.23 397.921 654.575C397.524 654.933 397.147 655.313 396.793 655.714C395.871 656.72 395.158 657.903 394.697 659.192C394.236 660.481 394.036 661.851 394.109 663.22C394.299 665.54 394.963 667.796 396.058 669.845C398.82 674.696 402.394 679.028 406.622 682.647Z" fill="#EA947E"/>
<path d="M421.938 685.235C424.536 689.255 426.775 692.016 428.126 692.533C429.883 691.971 431.543 691.139 433.049 690.066C450.044 679.429 466.397 667.78 482.02 655.179L482.67 654.662L476.551 637.563L463.816 621.742L459.269 616.117L457.304 613.685C425.34 628.557 416.451 634.061 407.255 638.478L406.435 638.875L406.229 638.978L404.999 639.548H404.845C404.007 639.927 403.665 640.997 403.7 642.602C403.72 643.53 403.829 644.455 404.024 645.362C404.239 646.526 404.513 647.678 404.845 648.813L404.999 649.313C407.99 659.752 415.955 675.884 421.938 685.235Z" fill="#50A2D3"/>
<path d="M538.7 609.786C537.586 612.811 536.147 615.703 534.41 618.413L531.743 624.02C530.701 626.194 527.761 630.214 529.402 632.026C529.628 632.252 529.895 632.434 530.188 632.56C533.607 634.286 543.743 633.216 546.683 633.233C555.024 633.233 564.374 633.233 572.083 629.576C573.873 628.859 575.384 627.575 576.391 625.918C576.586 625.529 576.735 625.117 576.835 624.693C576.971 624.162 577.057 623.619 577.092 623.071C577.144 621.919 577.098 620.765 576.955 619.62C576.613 616.308 576.1 612.995 575.741 609.665H538.7V609.786Z" fill="white"/>
<path d="M413.185 740.034C414.895 737.532 419.783 732.131 424.655 726.507C426.21 719.208 423.151 717.155 423.151 717.155C418.934 720.266 415.236 724.034 412.194 728.318C404.434 739.619 406.792 749.609 408.621 754.199C409.015 753.681 409.373 753.146 409.75 752.629C410.023 748.367 411.032 743.122 413.185 740.034Z" fill="#F39A83"/>
<path d="M424.653 726.507C419.782 732.132 414.944 737.532 413.184 740.034C411.03 743.122 410.021 748.367 409.765 752.56C410.585 751.421 411.474 750.3 412.209 749.109C418.859 751.973 424.995 757.736 431.337 762.343C430.755 763.74 430.106 765.103 429.49 766.483C432.259 764.514 434.903 762.37 437.405 760.065C441.948 755.988 445.79 751.178 448.772 745.831C456.053 732.028 451.763 722.815 448.532 718.035C446.327 714.774 439.199 704.854 437.011 710.444C436.448 711.662 435.76 712.819 434.96 713.894C432.567 717.293 428.619 721.952 424.653 726.507Z" fill="#F39A83"/>
<path d="M426.706 772.297C427.663 770.399 428.586 768.484 429.475 766.535C430.091 765.154 430.74 763.791 431.321 762.394C424.98 757.77 418.843 752.042 412.194 749.16C411.408 750.299 410.57 751.42 409.75 752.611C409.374 753.128 409.015 753.663 408.622 754.181C406.588 756.942 387.793 770.918 385.622 773.558C392 777.211 420.244 783.603 422.067 784.516C422.938 782.894 425.886 773.867 426.706 772.297Z" fill="#F39A83"/>
<path d="M519.111 753.439C519.009 753.819 518.906 754.095 518.855 754.25C519.002 755.048 518.961 755.87 518.735 756.649C517.829 758.27 505.061 769.313 505.061 769.313C502.312 768.232 499.634 766.976 497.044 765.551C497.711 766.397 498.429 767.277 499.095 768.053C508.258 779.134 521.344 793.52 532.311 802.781C535.045 803.694 584.245 806.434 595.178 805.52C578.377 794.83 534.317 766.336 519.111 753.439Z" fill="#F39A83"/>
<path d="M498.685 717.948C498.685 717.948 496.053 720.519 498.856 727.42C504.651 732.062 510.377 736.513 512.53 738.653C516.154 742.259 518.428 750.161 518.838 754.181C518.838 754.025 518.992 753.749 519.094 753.37C520.222 749.609 522.872 736.116 508.496 724.229C505.458 721.787 502.169 719.681 498.685 717.948Z" fill="#F39A83"/>
<path d="M512.548 738.652C510.378 736.513 504.651 732.062 498.874 727.42C492.259 722.123 485.541 716.568 483.866 713.859C481.439 709.908 477.747 715.584 475.456 720.088C474.79 721.399 474.243 722.589 473.884 723.4C471.85 728.024 469.645 736.116 475.473 746.227C476.401 747.824 477.441 749.352 478.584 750.799C483.719 756.891 489.992 761.904 497.045 765.551C499.635 766.975 502.313 768.232 505.062 769.312C505.062 769.312 517.847 758.27 518.736 756.648C518.962 755.869 519.003 755.047 518.856 754.25C518.514 750.161 516.172 742.258 512.548 738.652Z" fill="#F39A83"/>
<path d="M466.67 615.531C469.376 619.012 472.627 622.025 476.293 624.451C477.096 624.986 477.9 625.486 478.737 625.969C482.609 628.183 486.803 629.767 491.164 630.662C499.739 632.399 508.584 632.246 517.094 630.214C518.034 629.972 518.923 629.713 519.812 629.437C521.349 628.953 522.856 628.377 524.325 627.712C528.5 625.65 532.018 622.445 534.478 618.464C536.215 615.755 537.654 612.862 538.768 609.837C539.86 606.874 540.779 603.85 541.52 600.779C542.666 596.051 543.708 591.169 544.597 586.2C545.025 583.819 545.418 581.42 545.76 578.988C546.512 573.812 547.024 568.636 547.298 563.373C547.298 562.321 547.298 561.268 547.418 560.216C546.568 561.659 546.225 563.348 546.443 565.012C545.589 561.958 546.084 558.439 545.948 555.109C545.657 555.419 545.383 555.747 545.076 556.058C545.948 555.195 545.178 551.71 544.221 548.483C544.745 553.341 544.945 558.229 544.819 563.114C544.58 571.534 543.418 582.456 536.273 587.96C527.248 594.861 515.641 589.185 505.18 587.287L503.471 587.011C501.87 586.775 500.251 586.683 498.634 586.735C491.403 587.08 484.959 590.944 477.695 591.479C466.14 592.307 458.431 581.265 455.764 571.189C455.422 569.861 455.132 568.48 454.756 567.117C454.756 567.721 454.756 568.342 454.619 568.929C452.91 570.223 451.064 567.514 450.636 565.478C450.448 564.615 450.26 563.753 450.089 562.873C450.089 563.356 450.089 563.856 450.089 564.374C450.098 564.535 450.098 564.696 450.089 564.857C450.089 565.047 450.089 565.237 450.089 565.409C450.473 568.146 451.079 570.847 451.901 573.484C452.26 574.726 452.619 575.968 452.927 577.176C453.337 578.763 453.73 580.385 454.106 582.024L455.337 587.338C456.455 592.522 457.9 597.627 459.661 602.625C461.333 607.262 463.696 611.614 466.67 615.531ZM502.565 611.804C493.625 611.804 486.275 606.059 485.318 598.657H519.761C518.804 606.059 511.437 611.804 502.497 611.804H502.565Z" fill="#201544"/>
<path d="M449.986 562.77C450.157 563.632 450.345 564.495 450.533 565.375C450.961 567.463 452.824 570.171 454.516 568.826C454.516 568.239 454.619 567.618 454.653 567.014C455.935 550.433 455.2 530.436 471.49 521.689C478.549 517.91 486.685 516.634 494.668 516.099C508.035 515.201 528.854 515.719 535.811 529.902C537.879 534.18 540.529 538.045 542.187 542.566C542.494 543.394 543.383 545.792 544.152 548.346C545.11 551.572 545.862 555.057 545.007 555.92C545.315 555.609 545.588 555.282 545.879 554.971C546.016 558.301 545.52 561.872 546.375 564.875C546.156 563.211 546.5 561.521 547.349 560.078C547.981 558.767 548.733 557.473 549.4 556.317C549.793 555.609 550.169 554.936 550.426 554.384C552.513 549.807 554.272 545.085 555.69 540.254C558.511 530.678 561.656 516.685 560.186 504.539C559.246 496.654 556.374 489.563 550.203 484.939C549.312 484.268 548.356 483.69 547.349 483.213C545.936 482.524 544.388 482.164 542.819 482.161C539.401 482.161 536.512 484.145 533.401 485.353C529.12 487.021 524.446 487.375 519.966 486.371C515.863 485.439 512.086 483.42 508 482.385C499.086 480.367 489.761 481.373 481.472 485.249C469.031 490.778 458.69 500.212 451.986 512.148L451.508 513.01C450.824 514.339 450.192 515.685 449.645 517.03C444.329 530.109 446.226 543.929 448.927 557.507C448.927 557.697 449.012 557.887 449.046 558.077C449.354 559.733 449.662 561.251 449.986 562.77Z" fill="#201544"/>
<path d="M485.249 598.657C486.207 606.059 493.557 611.804 502.496 611.804C511.436 611.804 518.803 606.059 519.76 598.657H485.249Z" fill="white"/>
<path d="M485.744 396.272L485.898 396.514C486.001 395.237 486.018 393.822 486.154 392.494L486.872 386.024C487.727 378.311 487.129 369.081 496.838 367.562C502.085 366.752 506.871 370.444 512.033 371.686C516.631 372.79 521.452 371.893 526.067 370.789C530.682 369.685 535.314 368.356 540.032 368.615C548.578 369.046 550.63 372.894 551.296 380.192C551.758 385.368 552.835 390.544 553.758 395.548C553.887 396.497 554.201 397.412 554.681 398.239C556.082 400.293 558.236 397.359 559.911 394.029C560.784 392.294 561.527 390.494 562.133 388.646C564.817 380.02 564.304 368.839 561.928 360.247C561.757 359.66 561.586 359.056 561.398 358.522C558.219 348.825 551.279 340.112 541.775 336.661C538.357 335.402 534.665 334.936 531.161 333.814C522.426 331.157 513.777 325.188 504.974 327.62C498.137 329.518 493.009 336.247 485.949 337.11C484.396 337.054 482.856 337.417 481.488 338.162C480.451 339.158 479.792 340.489 479.625 341.924C477.432 351.444 477.049 361.297 478.497 370.961C479.264 376.953 480.528 382.868 482.274 388.646C483.111 391.325 484.277 393.886 485.744 396.272Z" fill="#201544"/>
</svg>
