<svg width="376" height="458" viewBox="0 0 376 458" fill="none" xmlns="http://www.w3.org/2000/svg">
<path d="M178.303 374.356C178.509 374.167 178.744 373.969 178.997 373.761C178.781 373.969 178.509 374.167 178.303 374.356Z" fill="#F39A83"/>
<path d="M179.269 373.543L179.851 373.09L179.269 373.543Z" fill="#F39A83"/>
<path d="M181.239 372.098L181.98 371.578L181.239 372.098Z" fill="#F39A83"/>
<path d="M176.212 379.089C176.316 380.359 176.68 381.594 177.281 382.716V382.716C176.68 381.594 176.316 380.359 176.212 379.089V379.089Z" fill="#F39A83"/>
<path d="M180.188 372.844L180.845 372.372L180.188 372.844Z" fill="#F39A83"/>
<path d="M182.89 365.758L183.34 365.542L182.89 365.758Z" fill="#50A2D3"/>
<path d="M182.101 366.128L182.777 365.816L182.101 366.128Z" fill="#50A2D3"/>
<path d="M211.462 351.646L210.805 351.967L211.884 353.299C211.661 352.772 211.519 352.215 211.462 351.646V351.646Z" fill="#50A2D3"/>
<path d="M181.595 369.349C181.488 368.852 181.428 368.346 181.417 367.838C181.428 368.346 181.488 368.852 181.595 369.349V369.349Z" fill="#50A2D3"/>
<path d="M221.275 358.552C218.742 358.221 216.294 357.749 214.38 356.379L221.416 365.051C221.303 363.02 221.256 360.781 221.275 358.552Z" fill="#50A2D3"/>
<path d="M244.856 367.214C246.673 365.496 248.614 363.918 250.663 362.49C248.787 362.113 246.958 361.659 245.091 361.31L244.856 367.214Z" fill="#50A2D3"/>
<path d="M254.575 270.849L256.039 270.999C255.56 270.943 255.072 270.886 254.575 270.849Z" fill="#F39A83"/>
<path d="M253.008 270.744L254.199 270.819L253.008 270.744Z" fill="#F39A83"/>
<path d="M240.561 274.873C241.43 275.354 242.388 275.652 243.375 275.752C245.11 275.922 248.412 275.506 249.707 274.335C250.579 273.56 250.926 271.746 251.067 270.66L252.605 270.717L250.56 270.65V272.152C250.56 272.152 244.106 274.892 240.561 274.873Z" fill="#F39A83"/>
<path d="M256.938 271.131L256.31 271.047L256.938 271.141V271.131Z" fill="#F39A83"/>
<path d="M237.952 272.247C237.868 271.755 237.793 271.179 237.727 270.556H237.464C237.52 271.145 237.686 271.719 237.952 272.247V272.247Z" fill="#F39A83"/>
<path d="M240.56 274.873C244.106 274.873 250.56 272.152 250.56 272.152V270.65L250.485 260.75L250.56 271.463C250.56 271.463 250.56 271.463 250.56 271.406C249.196 269.014 247.198 267.052 244.791 265.738C242.504 264.638 239.935 264.278 237.436 264.708C237.436 263.565 237.436 262.441 237.502 261.336H237.39C237.337 264.423 237.463 267.511 237.765 270.584C237.83 271.207 237.906 271.784 237.99 272.275C238.56 273.387 239.458 274.294 240.56 274.873Z" fill="#F39A83"/>
<path d="M238.187 261.618C237.934 261.543 237.709 261.43 237.465 261.344C237.465 262.45 237.409 263.574 237.399 264.717C239.898 264.287 242.467 264.647 244.754 265.747C247.161 267.061 249.159 269.023 250.523 271.415C250.523 271.415 250.523 271.415 250.523 271.471L250.448 260.759C246.611 262.579 242.237 262.886 238.187 261.618Z" fill="#D48873"/>
<path d="M276.553 358.212C276.591 357.854 276.591 357.493 276.553 357.135C276.534 357.435 276.487 357.732 276.412 358.023C276.487 358.079 276.515 358.146 276.553 358.212Z" fill="white"/>
<path d="M214.427 356.379C216.303 357.749 218.789 358.221 221.322 358.552V357.862C219.31 356.534 217.526 354.884 216.041 352.978C214.414 350.815 213.126 348.412 212.223 345.855C212.016 347.924 211.285 349.757 211.51 351.646C211.567 352.216 211.709 352.773 211.932 353.299L214.427 356.379Z" fill="white"/>
<path d="M250.663 362.453L250.85 362.33C250.689 362.261 250.543 362.162 250.419 362.037C249.481 361.093 251.132 358.844 251.704 357.654L253.167 354.584C251.817 356.764 249.887 358.518 247.595 359.647C246.789 360.012 245.962 360.327 245.119 360.592V361.263C246.957 361.622 248.805 362.075 250.663 362.453Z" fill="white"/>
<path d="M267.313 292.302C268.12 298.914 266.375 306.613 264.846 311.856C264.068 314.502 263.103 317.087 261.957 319.593C261.817 319.896 261.61 320.264 261.394 320.651C263.09 321.312 264.494 322.562 265.355 324.175C266.215 325.788 266.474 327.658 266.085 329.446C265.428 333.055 261.047 337.712 258.721 336.937C258.233 339.658 257.661 342.331 257.033 344.92C256.626 346.601 256.121 348.257 255.522 349.879H275.69C275.69 349.492 275.634 349.105 275.634 348.717C275.634 346.743 275.821 344.873 275.634 342.851C275.399 339.932 275.174 337.022 274.912 334.113C274.049 324.729 272.91 315.371 271.497 306.037C270.906 302.098 270.278 298.168 269.555 294.248C268.833 293.577 268.055 292.925 267.313 292.302Z" fill="white"/>
<path d="M225.026 279.369C224.726 280.153 224.417 280.928 224.088 281.712C228.637 279.59 233.755 279.039 238.647 280.144C240.889 280.711 242.962 281.816 245.213 282.326C247.671 282.876 250.236 282.682 252.586 281.769C254.293 281.107 255.925 280.049 257.754 280.021C258.615 280.023 259.465 280.22 260.24 280.597C260.156 280.38 260.062 280.153 259.978 279.926C258.883 277.023 257.861 274.095 256.91 271.141L256.282 271.047H256.01L254.546 270.895H254.171L252.98 270.82H252.567L251.029 270.763C250.888 271.85 250.541 273.663 249.669 274.438C248.374 275.609 245.072 276.025 243.337 275.855C242.35 275.756 241.392 275.457 240.523 274.976C239.402 274.397 238.491 273.478 237.915 272.35C237.651 271.793 237.498 271.19 237.465 270.574V270.574C234.069 270.631 231.086 270.47 228.028 270.829C227.09 273.695 226.089 276.541 225.026 279.369Z" fill="white"/>
<path d="M276.966 297.138C279.399 299.28 281.941 301.291 284.583 303.165C288.635 305.744 291.749 308.833 296.149 306.132L296.599 305.839C297.531 305.178 298.395 304.425 299.178 303.59C296.111 303.08 293.691 305.13 291.383 300.756C290.211 298.528 289.34 296.152 288.794 293.69C290.136 292.481 291.524 291.196 292.94 289.912C290.558 288.136 288.16 286.473 285.746 284.924C283.676 289.555 280.688 293.712 276.966 297.138V297.138Z" fill="#F39A83"/>
<path d="M299.92 302.693C299.704 302.958 299.488 303.213 299.263 303.468C299.488 303.251 299.713 302.996 299.92 302.693Z" fill="#F39A83"/>
<path d="M260.006 279.926C260.09 280.153 260.184 280.38 260.268 280.597C260.821 280.858 261.346 281.174 261.835 281.542C265.221 284.074 266.797 287.956 267.313 292.273C268.054 292.944 268.814 293.596 269.593 294.219C271.469 295.731 273.41 297.148 275.399 298.518C275.934 298.083 276.459 297.573 276.966 297.157C280.695 293.711 283.684 289.532 285.746 284.877C285.858 284.621 285.98 284.376 286.083 284.13C278.579 279.473 271.197 275.401 269.292 274.589C265.336 272.852 261.17 271.648 256.901 271.009C256.901 271.009 256.901 271.084 256.901 271.113C257.876 274.092 258.911 277.029 260.006 279.926Z" fill="white"/>
<path d="M318.981 257.188C319.628 256.433 321.401 254.864 323.183 253.221C323.896 250.812 322.93 249.924 322.93 249.924C314.544 254.647 316.851 261.354 317.348 262.535C317.358 262.507 317.374 262.481 317.395 262.46C317.433 260.986 317.93 258.398 318.981 257.188Z" fill="#F39A83"/>
<path d="M318.981 257.189C317.93 258.398 317.433 260.967 317.395 262.46C318.183 261.203 318.877 260.004 319.44 258.87C324.834 247.874 325.753 261.865 325.753 261.865C324.815 263.82 323.943 265.719 323.033 267.599C324.44 266.919 328.483 264.765 330.772 261.27C333.586 256.971 332.385 253.542 331.428 251.719C330.772 250.472 328.614 246.646 327.761 248.431C327.292 249.376 325.228 251.351 323.183 253.221C321.363 254.865 319.628 256.404 318.981 257.189Z" fill="#F39A83"/>
<path d="M291.346 300.803C293.653 305.168 296.036 303.118 299.141 303.637L299.216 303.543C299.441 303.288 299.657 303.033 299.873 302.768C309.164 292.202 316.944 280.381 322.986 267.645C323.924 265.756 324.796 263.867 325.706 261.911C325.706 261.911 324.768 247.921 319.393 258.917C318.83 260.05 318.136 261.25 317.348 262.506C317.327 262.528 317.311 262.554 317.301 262.582C312.011 270.867 301.983 281.39 292.912 289.977C291.496 291.3 290.098 292.585 288.757 293.756C289.308 296.21 290.178 298.579 291.346 300.803V300.803Z" fill="#F39A83"/>
<path d="M201.51 282.931C198.368 284.82 195.207 287.002 192.13 289.326C193.546 290.649 194.944 291.933 196.276 293.152C195.729 295.61 194.858 297.983 193.687 300.209C191.379 304.573 189.503 303.043 186.436 303.591C185.836 302.901 185.263 302.221 184.691 301.55C185.723 302.999 186.992 304.26 188.443 305.282L188.894 305.574C193.293 308.304 196.398 305.187 200.46 302.618C202.962 300.855 205.373 298.963 207.682 296.95L207.945 296.477C206.829 291.535 204.631 286.907 201.51 282.931V282.931Z" fill="#F39A83"/>
<path d="M224.117 281.712C224.417 280.928 224.726 280.153 225.055 279.369C226.124 276.541 227.122 273.688 228.047 270.81L228.16 270.479C223.88 271.107 219.704 272.308 215.74 274.05C214.005 274.787 207.776 278.197 201.041 282.297C201.21 282.505 201.351 282.722 201.51 282.93C204.622 286.896 206.817 291.511 207.936 296.439C211.615 289.904 217.29 284.739 224.117 281.712V281.712Z" fill="white"/>
<path d="M166.052 256.631C167.102 257.84 167.599 260.409 167.637 261.902C167.656 261.925 167.672 261.95 167.684 261.978C168.181 260.806 170.498 254.146 162.056 249.366C162.056 249.366 161.118 250.254 161.802 252.663C163.632 254.307 165.395 255.875 166.052 256.631Z" fill="#F39A83"/>
<path d="M165.593 258.294C166.212 259.525 166.894 260.723 167.637 261.883C167.637 260.41 167.103 257.821 166.052 256.612C165.396 255.856 163.632 254.288 161.85 252.644C159.805 250.793 157.741 248.847 157.272 247.902C156.4 246.117 154.261 249.943 153.604 251.19C152.666 253.022 151.456 256.442 154.261 260.74C156.559 264.264 160.63 266.408 162.019 267.079C161.081 265.19 160.143 263.3 159.28 261.335C159.28 261.307 160.189 247.316 165.593 258.294Z" fill="#F39A83"/>
<path d="M193.65 300.209C194.822 297.98 195.692 295.604 196.239 293.143C194.897 291.933 193.509 290.649 192.092 289.364C183.003 280.862 172.975 270.3 167.703 262.016C167.691 261.989 167.676 261.963 167.657 261.94C166.905 260.762 166.216 259.545 165.593 258.294C160.19 247.298 159.28 261.288 159.28 261.288C160.218 263.234 161.09 265.143 162.019 267.032C168.029 279.481 175.64 291.08 184.654 301.531C185.226 302.202 185.798 302.882 186.399 303.572C189.466 303.071 191.342 304.583 193.65 300.209Z" fill="#F39A83"/>
<path d="M238.187 261.619C242.247 262.891 246.632 262.581 250.476 260.75V260.75C251.362 260.327 252.207 259.821 252.999 259.239C255.691 257.124 258.012 254.569 259.865 251.681C261.451 249.357 261.967 246.325 262.895 243.652C262.684 243.441 262.54 243.171 262.483 242.877C262.07 241.044 262.483 239.098 263.711 235.952C263.96 235.309 264.155 234.645 264.293 233.969C264.03 233.516 263.858 233.015 263.786 232.495C263.28 229.727 262.689 226.893 262.436 224.087C262.07 220.091 260.897 217.985 256.254 217.749C253.665 217.607 251.114 218.334 248.59 218.939C246.067 219.544 243.412 220.035 240.889 219.43C238.075 218.75 235.43 216.728 232.55 217.172C227.222 218.004 227.55 223.058 227.081 227.28L226.687 230.899C226.612 231.626 226.603 232.401 226.546 233.1L226.462 232.967C226.462 233.251 226.462 233.553 226.546 233.912C226.997 237.247 226.931 239.249 226.087 240.931C225.976 241.159 225.812 241.357 225.608 241.507C226.191 244.972 227.083 248.377 228.272 251.681V251.795C228.974 253.971 230.149 255.961 231.712 257.622C233.274 259.282 235.186 260.571 237.306 261.392H237.418C237.709 261.43 237.934 261.544 238.187 261.619ZM251.789 237.795C251.428 237.775 251.089 237.614 250.845 237.345C250.602 237.077 250.472 236.722 250.485 236.359C250.493 236.175 250.538 235.996 250.617 235.83C250.695 235.664 250.806 235.516 250.943 235.395C251.079 235.273 251.238 235.18 251.411 235.122C251.584 235.064 251.767 235.041 251.948 235.055C252.127 235.062 252.302 235.105 252.463 235.181C252.625 235.257 252.77 235.364 252.891 235.497C253.011 235.629 253.104 235.785 253.165 235.954C253.225 236.123 253.252 236.302 253.243 236.482C253.236 236.665 253.192 236.845 253.115 237.011C253.037 237.177 252.927 237.325 252.792 237.448C252.656 237.57 252.498 237.664 252.325 237.724C252.153 237.783 251.971 237.807 251.789 237.795V237.795ZM250.288 229.453C252.759 229.458 255.15 230.33 257.051 231.919C257.125 231.981 257.185 232.058 257.229 232.144C257.273 232.23 257.3 232.324 257.307 232.421C257.315 232.517 257.304 232.614 257.275 232.706C257.245 232.799 257.198 232.884 257.136 232.958C257.068 233.042 256.982 233.11 256.885 233.156C256.787 233.202 256.681 233.225 256.573 233.222C256.4 233.224 256.232 233.16 256.104 233.043C254.487 231.656 252.431 230.895 250.307 230.899C250.126 230.878 249.959 230.791 249.837 230.654C249.716 230.517 249.649 230.34 249.649 230.157C249.649 229.974 249.716 229.797 249.837 229.66C249.959 229.523 250.126 229.436 250.307 229.415L250.288 229.453ZM241.349 242.792C241.384 242.562 241.434 242.335 241.499 242.112C241.611 241.696 241.761 241.29 241.902 240.903C242.23 240.118 242.577 239.401 242.924 238.683C243.281 237.949 243.594 237.195 243.862 236.425C244.134 237.265 244.167 238.165 243.956 239.023C243.777 239.847 243.522 240.654 243.196 241.432C243.037 241.8 242.896 242.168 242.756 242.537C242.613 242.8 242.52 243.089 242.484 243.387C242.534 243.73 242.67 244.055 242.878 244.332C243.1 244.681 243.344 245.015 243.609 245.333C243.173 245.247 242.758 245.074 242.39 244.823C241.965 244.564 241.636 244.172 241.452 243.708C241.333 243.418 241.297 243.101 241.349 242.792V242.792ZM233.113 232.155C232.956 232.156 232.804 232.106 232.678 232.014C232.552 231.921 232.458 231.791 232.411 231.641C232.364 231.491 232.366 231.33 232.416 231.181C232.466 231.032 232.562 230.903 232.69 230.813C234.727 229.405 237.192 228.766 239.651 229.009C239.845 229.029 240.023 229.126 240.146 229.278C240.269 229.431 240.327 229.626 240.307 229.822C240.287 230.017 240.191 230.196 240.04 230.32C239.889 230.444 239.695 230.503 239.501 230.483C237.389 230.279 235.275 230.838 233.535 232.06C233.408 232.137 233.26 232.17 233.113 232.155V232.155ZM235.767 235.697C235.779 235.426 235.87 235.165 236.029 234.946C236.188 234.727 236.408 234.561 236.661 234.468C236.914 234.376 237.189 234.361 237.45 234.425C237.712 234.49 237.948 234.631 238.13 234.832C238.312 235.032 238.43 235.282 238.471 235.55C238.511 235.818 238.472 236.092 238.357 236.338C238.243 236.583 238.059 236.789 237.828 236.929C237.597 237.069 237.331 237.137 237.062 237.124C236.883 237.117 236.708 237.074 236.547 236.998C236.385 236.922 236.24 236.815 236.119 236.682C235.999 236.55 235.906 236.394 235.845 236.225C235.785 236.056 235.758 235.877 235.767 235.697ZM236.536 248.923L250.185 249.537C249.678 252.437 246.667 254.581 243.131 254.421C239.594 254.26 236.78 251.87 236.536 248.942V248.923Z" fill="#F39A83"/>
<path d="M264.293 234.006C264.155 234.682 263.96 235.346 263.711 235.99C262.473 239.116 262.07 241.081 262.483 242.914C262.54 243.208 262.684 243.478 262.895 243.689C264.359 245.106 268.749 242.073 269.837 239.305C270.43 237.94 270.483 236.398 269.987 234.993C269.49 233.589 268.48 232.429 267.163 231.748C266.244 233.524 265.081 235.13 264.293 234.006ZM265.916 234.488C266.682 234.849 267.275 235.501 267.565 236.301C267.855 237.101 267.819 237.984 267.464 238.757C267.213 239.478 266.721 240.089 266.073 240.485C265.424 240.882 264.659 241.039 263.908 240.93C264.085 240.381 264.232 239.823 264.349 239.258C264.631 237.907 264.509 235.479 265.71 234.535C265.71 234.535 265.71 234.535 265.766 234.469L265.916 234.488Z" fill="#F39A83"/>
<path d="M264.348 239.259C264.231 239.824 264.084 240.382 263.908 240.931C264.658 241.04 265.423 240.882 266.072 240.486C266.72 240.09 267.212 239.479 267.463 238.758C267.818 237.985 267.854 237.102 267.564 236.301C267.274 235.501 266.681 234.849 265.915 234.488H265.765C265.765 234.488 265.765 234.536 265.709 234.554C264.508 235.452 264.63 237.908 264.348 239.259Z" fill="#F39A83"/>
<path d="M226.087 240.846C226.931 239.165 227.025 237.162 226.547 233.827C226.547 233.515 226.481 233.213 226.462 232.882C225.667 231.575 225.037 230.172 224.586 228.707H224.483C223.732 228.843 223.015 229.126 222.373 229.541C221.73 229.955 221.176 230.494 220.74 231.124C220.305 231.755 219.997 232.466 219.834 233.217C219.672 233.967 219.658 234.743 219.793 235.499C220.205 238.513 223.883 242.613 225.599 241.366C225.799 241.233 225.966 241.055 226.087 240.846V240.846ZM225.149 238.579C224.401 238.496 223.704 238.157 223.175 237.619C222.646 237.081 222.316 236.376 222.241 235.622C222.081 234.787 222.253 233.922 222.722 233.214C223.191 232.507 223.918 232.014 224.746 231.843C224.799 231.839 224.852 231.839 224.905 231.843C224.907 231.868 224.907 231.894 224.905 231.919C225.843 233.119 225.14 235.471 225.093 236.85C225.088 237.427 225.116 238.005 225.177 238.579H225.149Z" fill="#F39A83"/>
<path d="M224.961 231.909C224.963 231.884 224.963 231.859 224.961 231.833C224.889 231.828 224.817 231.831 224.745 231.843C223.916 232.012 223.187 232.504 222.716 233.211C222.245 233.919 222.071 234.785 222.231 235.622C222.306 236.381 222.638 237.092 223.174 237.633C223.709 238.173 224.413 238.511 225.167 238.588C225.135 238.009 225.135 237.429 225.167 236.85C225.196 235.461 225.899 233.109 224.961 231.909Z" fill="#F39A83"/>
<path d="M243.131 254.439C246.667 254.6 249.697 252.456 250.185 249.555L236.536 248.941C236.78 251.87 239.594 254.279 243.131 254.439Z" fill="white"/>
<path d="M251.949 235.054C251.77 235.046 251.591 235.072 251.423 235.133C251.255 235.194 251.1 235.287 250.967 235.408C250.835 235.529 250.727 235.676 250.651 235.839C250.575 236.002 250.531 236.178 250.523 236.358C250.51 236.722 250.639 237.076 250.883 237.344C251.127 237.613 251.466 237.774 251.827 237.794C252.005 237.802 252.184 237.774 252.352 237.712C252.52 237.65 252.674 237.555 252.805 237.433C252.937 237.311 253.043 237.164 253.118 237.001C253.193 236.838 253.236 236.661 253.243 236.481C253.252 236.301 253.225 236.122 253.165 235.953C253.105 235.784 253.011 235.629 252.891 235.496C252.771 235.363 252.625 235.256 252.464 235.18C252.302 235.104 252.127 235.062 251.949 235.054V235.054Z" fill="#27090B"/>
<path d="M238.488 235.82C238.496 235.64 238.469 235.461 238.408 235.291C238.347 235.122 238.253 234.967 238.133 234.834C238.012 234.701 237.866 234.593 237.704 234.517C237.543 234.441 237.367 234.397 237.189 234.389C237.01 234.381 236.832 234.408 236.663 234.47C236.495 234.531 236.341 234.625 236.209 234.747C236.077 234.868 235.97 235.015 235.894 235.178C235.819 235.341 235.775 235.518 235.767 235.697C235.751 236.061 235.879 236.416 236.123 236.684C236.366 236.952 236.706 237.112 237.067 237.129C237.427 237.145 237.78 237.016 238.046 236.771C238.313 236.525 238.472 236.184 238.488 235.82V235.82Z" fill="#27090B"/>
<path d="M239.5 230.445C239.604 230.478 239.713 230.487 239.821 230.472C239.928 230.457 240.031 230.418 240.122 230.359C240.213 230.299 240.289 230.219 240.346 230.126C240.402 230.033 240.437 229.928 240.449 229.819C240.46 229.711 240.447 229.601 240.411 229.498C240.375 229.395 240.317 229.301 240.241 229.223C240.164 229.146 240.072 229.086 239.969 229.049C239.867 229.012 239.758 228.998 239.65 229.009C237.187 228.777 234.722 229.429 232.69 230.851C232.562 230.941 232.466 231.069 232.416 231.218C232.365 231.367 232.364 231.528 232.411 231.678C232.458 231.828 232.552 231.959 232.678 232.051C232.804 232.144 232.956 232.193 233.112 232.192C233.264 232.196 233.412 232.15 233.534 232.06C235.269 230.825 237.384 230.252 239.5 230.445V230.445Z" fill="#522200"/>
<path d="M250.306 230.898C252.426 230.885 254.481 231.631 256.103 233.005C256.231 233.122 256.399 233.186 256.572 233.184C256.68 233.186 256.787 233.164 256.884 233.118C256.982 233.072 257.068 233.004 257.135 232.92C257.197 232.846 257.245 232.761 257.274 232.668C257.303 232.576 257.315 232.479 257.307 232.383C257.299 232.286 257.272 232.192 257.228 232.106C257.184 232.02 257.124 231.943 257.051 231.881C255.15 230.291 252.758 229.42 250.287 229.415C250.106 229.436 249.939 229.523 249.818 229.659C249.697 229.796 249.63 229.973 249.63 230.157C249.63 230.34 249.697 230.517 249.818 230.654C249.939 230.791 250.106 230.878 250.287 230.898H250.306Z" fill="#522200"/>
<path d="M242.399 244.785C242.767 245.036 243.182 245.209 243.618 245.295C243.353 244.977 243.109 244.643 242.886 244.294C242.679 244.017 242.543 243.692 242.492 243.349C242.529 243.051 242.622 242.762 242.764 242.499C242.905 242.13 243.046 241.762 243.205 241.393C243.531 240.616 243.786 239.809 243.965 238.985C244.176 238.127 244.143 237.227 243.871 236.387C243.603 237.157 243.29 237.911 242.933 238.644C242.586 239.362 242.239 240.08 241.911 240.864C241.77 241.252 241.62 241.658 241.508 242.074C241.443 242.297 241.392 242.524 241.357 242.754C241.307 243.049 241.337 243.352 241.442 243.632C241.624 244.113 241.961 244.519 242.399 244.785Z" fill="#DE7778"/>
<path d="M166.043 410.764C165.18 412.237 164.364 413.739 163.548 415.232C167.131 409.347 170.911 403.537 174.588 397.689C171.512 401.892 168.659 406.256 166.043 410.764V410.764Z" fill="#F39A83"/>
<path d="M186.099 414.731C183.875 406.777 181.455 398.067 179.298 390.17C178.969 390.642 178.679 391.115 178.416 391.53C177.165 393.596 174.817 395.442 173.516 397.501C169.839 403.349 166.052 408.116 162.516 414.001L153.016 433.001C156.516 434.001 173.234 440.001 179.516 442.001C180.707 440.556 183.012 430.375 184.129 428.864C183.134 426.389 181.84 420.919 186.099 414.731Z" fill="#C03037"/>
<path d="M224.745 374.403L224.389 374.687C225.34 375.2 226.347 375.6 227.391 375.877C226.472 375.456 225.588 374.963 224.745 374.403V374.403Z" fill="#F39A83"/>
<path d="M275.615 384.133C275.778 382.893 275.724 381.633 275.456 380.411C275.072 381.319 274.627 382.2 274.124 383.047C274.639 383.382 275.137 383.745 275.615 384.133V384.133Z" fill="#C03037"/>
<path d="M271.488 446.727C264.996 430.941 259.406 414.608 258.937 398.095C258.937 397.708 258.937 397.311 258.937 396.896C256.123 398.785 253.224 400.57 250.644 402.403C249.509 403.215 248.065 404.047 246.817 403.442C246.555 403.303 246.32 403.118 246.123 402.894C245.87 403.225 245.617 403.546 245.345 403.839C243.718 405.733 241.735 407.284 239.51 408.402C239.369 409.781 239.191 411.141 238.985 412.501C246.874 418.991 245.42 426.397 244.8 428.457C253.142 435.518 261.952 441.997 271.169 447.851L271.76 447.624V447.218C271.647 447.076 271.553 446.897 271.488 446.727Z" fill="#C03037"/>
<path d="M235.016 436.501C233.862 441.47 224.263 445.964 223.016 452.501C225.516 453.501 235.516 454.001 238.516 454.501C242.516 455.001 249.254 455.515 254.754 455.515C248.735 450.444 240.044 442.568 235.016 436.501Z" fill="#C03037"/>
<path d="M219.943 412.038C220.14 411.594 220.44 410.943 220.806 410.225C220.806 407.391 220.806 404.491 220.806 401.657C220.681 398.987 221.256 396.331 222.476 393.957C222.72 393.519 222.996 393.099 223.301 392.701C222.851 393.079 222.363 393.457 221.979 393.863C222.345 391.473 222.701 388.138 224.024 386.079C225.346 384.02 227.982 382.357 229.811 380.751C231.247 379.495 232.729 378.257 234.201 376.972C231.865 377.214 229.508 376.823 227.372 375.839C226.329 375.562 225.322 375.162 224.371 374.648C215.813 381.559 206.855 387.95 197.543 393.787C197.918 397.717 198.275 402.066 198.612 406.833C199.051 406.244 199.428 405.611 199.738 404.944C200.939 401.883 204.85 407.315 206.06 409.101C207.833 411.717 210.188 416.781 206.192 424.319C204.55 427.248 202.435 429.882 199.935 432.113C199.991 433.52 200.047 434.947 200.094 436.401C200.094 436.817 200.094 437.195 200.094 437.554C200.453 437.362 200.798 437.144 201.126 436.902C202.045 439.455 184.688 421.841 185.016 424.536C185.099 425.134 178.055 440.899 178.016 441.501C183.754 443.964 214.777 450.938 220.891 452.187C220.891 447.086 220.891 436.619 220.891 424.536C217.617 419.001 218.827 414.57 219.943 412.038Z" fill="#C03037"/>
<path d="M237.7 374.025C240.017 371.956 242.39 369.519 244.857 367.214L245.091 361.272V360.601C244.604 360.752 244.153 360.894 243.6 361.026C242.688 361.416 241.747 361.732 240.786 361.971C237.696 362.802 234.463 362.936 231.316 362.365C228.168 361.793 225.185 360.53 222.578 358.664C222.119 358.4 221.64 358.126 221.237 357.833V358.523C221.237 360.752 221.237 362.991 221.378 365.022L224.717 374.374C225.559 374.934 226.444 375.427 227.362 375.848C229.498 376.832 231.855 377.223 234.191 376.981C235.392 376.027 236.565 375.035 237.7 374.025Z" fill="#E6927C"/>
<path d="M266.085 329.398C266.474 327.61 266.215 325.74 265.355 324.127C264.495 322.514 263.09 321.265 261.395 320.604C261.029 321.236 260.616 321.945 260.269 322.663C260.269 323.239 260.269 323.815 260.203 324.392C261.185 324.726 262.008 325.416 262.513 326.327C263.017 327.238 263.167 328.306 262.933 329.323C262.796 330.228 262.375 331.065 261.732 331.712C261.089 332.36 260.258 332.784 259.359 332.922C259.172 334.254 258.956 335.567 258.721 336.871C261.048 337.645 265.428 333.007 266.085 329.398Z" fill="#F39A83"/>
<path d="M262.933 329.324C263.159 328.311 263.005 327.25 262.501 326.345C261.997 325.44 261.179 324.755 260.203 324.421C260.053 327.255 259.772 330.146 259.359 332.97C260.264 332.829 261.101 332.399 261.744 331.742C262.388 331.085 262.805 330.237 262.933 329.324V329.324Z" fill="#EE7379"/>
<path d="M208.291 331.449C208.287 331.49 208.287 331.531 208.291 331.572C208.413 332.318 208.582 333.046 208.77 333.764C207.793 333.861 206.813 333.613 205.997 333.064C205.181 332.514 204.58 331.696 204.295 330.75C203.882 329.729 203.887 328.584 204.309 327.567C204.731 326.549 205.535 325.741 206.547 325.318C206.612 325.314 206.678 325.314 206.744 325.318C206.744 325.318 206.744 325.384 206.819 325.413C206.855 325.446 206.886 325.484 206.913 325.526C206.913 325.432 206.913 325.328 206.913 325.224C206.917 325.136 206.917 325.047 206.913 324.959C206.716 323.854 206.537 322.749 206.368 321.634C206.368 321.53 206.368 321.426 206.303 321.322C206.009 321.375 205.72 321.454 205.44 321.558C201.688 322.853 199.812 327.226 201.256 331.355C202.476 334.916 207.822 338.997 209.849 337.533L209.173 334.623C208.798 333.537 208.554 332.498 208.291 331.449Z" fill="#F39A83"/>
<path d="M206.754 325.271C206.688 325.266 206.622 325.266 206.557 325.271C205.545 325.693 204.741 326.502 204.319 327.519C203.897 328.537 203.892 329.681 204.305 330.703C204.581 331.661 205.181 332.492 206.002 333.051C206.823 333.611 207.812 333.862 208.799 333.763C208.611 333.045 208.442 332.318 208.32 331.572C208.315 331.531 208.315 331.49 208.32 331.449C208.189 330.929 208.067 330.419 207.945 329.9C207.484 328.457 207.142 326.978 206.922 325.479C206.896 325.437 206.865 325.399 206.829 325.365C206.829 325.365 206.782 325.299 206.754 325.271Z" fill="#EE7379"/>
<path d="M253.937 306.141C250.185 298.357 238.694 298.074 231.358 298.584C226.978 298.877 222.513 299.576 218.639 301.645C209.699 306.434 210.102 317.383 209.399 326.461C209.605 327.208 209.765 327.963 209.952 328.691C211.416 334.208 215.646 340.253 221.987 339.8C225.937 339.507 229.492 337.391 233.478 337.202C234.366 337.174 235.254 337.224 236.133 337.353L236.424 336.994C236.746 336.635 236.98 336.205 237.109 335.738C237.105 335.294 237.006 334.855 236.818 334.453L236.274 332.876C235.869 331.789 235.555 330.671 235.336 329.531C235.088 328.35 235.143 327.124 235.495 325.97C235.753 327.073 236.098 328.153 236.527 329.201C236.93 330.23 237.39 331.251 237.765 332.347C237.966 332.902 238.132 333.47 238.262 334.047C238.339 334.358 238.395 334.673 238.431 334.992C238.485 335.378 238.436 335.773 238.29 336.135C238.025 336.715 237.589 337.199 237.043 337.523C242.784 338.562 249.153 341.661 254.106 337.892C258.074 334.878 258.712 328.898 258.796 324.289C258.865 321.614 258.755 318.938 258.468 316.278C258.046 314.88 257.53 313.567 257.389 313.113C256.526 310.6 255.072 308.484 253.937 306.141ZM225.683 327.349C225.312 327.349 224.949 327.238 224.641 327.031C224.332 326.823 224.092 326.528 223.95 326.183C223.808 325.838 223.771 325.458 223.843 325.091C223.916 324.725 224.094 324.388 224.357 324.124C224.619 323.86 224.953 323.68 225.317 323.607C225.681 323.534 226.058 323.571 226.401 323.714C226.744 323.857 227.037 324.1 227.243 324.41C227.449 324.721 227.559 325.086 227.559 325.46C227.559 325.961 227.362 326.442 227.01 326.796C226.658 327.15 226.181 327.349 225.683 327.349ZM228.132 318.46C225.321 318.323 222.552 319.193 220.318 320.916C220.05 321.126 219.719 321.239 219.38 321.237C219.061 321.235 218.75 321.132 218.492 320.945C218.233 320.757 218.039 320.492 217.936 320.188C217.833 319.884 217.826 319.556 217.917 319.248C218.007 318.94 218.191 318.668 218.442 318.469C221.262 316.298 224.755 315.203 228.3 315.38C228.501 315.391 228.698 315.442 228.879 315.53C229.06 315.618 229.223 315.741 229.357 315.891C229.491 316.042 229.594 316.218 229.661 316.409C229.727 316.6 229.756 316.803 229.745 317.005C229.734 317.207 229.683 317.405 229.596 317.588C229.509 317.77 229.387 317.934 229.237 318.069C229.088 318.204 228.913 318.308 228.723 318.375C228.533 318.442 228.332 318.471 228.132 318.46ZM243.018 315.38C246.566 315.206 250.061 316.3 252.886 318.469C253.178 318.73 253.36 319.092 253.397 319.483C253.433 319.874 253.321 320.264 253.083 320.575C252.844 320.886 252.498 321.094 252.113 321.157C251.729 321.22 251.334 321.134 251.01 320.916C248.774 319.197 246.007 318.328 243.196 318.46C242.996 318.47 242.795 318.441 242.605 318.373C242.416 318.306 242.241 318.201 242.092 318.066C241.943 317.93 241.821 317.766 241.735 317.584C241.648 317.401 241.598 317.203 241.588 317C241.577 316.798 241.606 316.596 241.674 316.405C241.741 316.214 241.845 316.038 241.979 315.888C242.114 315.738 242.276 315.615 242.458 315.528C242.639 315.441 242.836 315.391 243.037 315.38H243.018ZM247.999 325.45C247.999 325.824 247.889 326.189 247.683 326.5C247.477 326.811 247.184 327.053 246.841 327.196C246.498 327.339 246.121 327.376 245.757 327.303C245.393 327.231 245.059 327.051 244.797 326.786C244.534 326.522 244.355 326.186 244.283 325.819C244.211 325.453 244.248 325.073 244.39 324.727C244.532 324.382 244.772 324.087 245.081 323.88C245.389 323.672 245.752 323.561 246.123 323.561C246.621 323.561 247.098 323.76 247.45 324.114C247.802 324.469 247.999 324.949 247.999 325.45Z" fill="#F39A83"/>
<path d="M240.823 361.999C241.785 361.76 242.726 361.444 243.637 361.055C238.973 362.151 234.129 362.222 229.436 361.263C227.055 360.766 224.766 359.895 222.654 358.684C225.255 360.545 228.231 361.807 231.372 362.38C234.512 362.953 237.739 362.823 240.823 361.999V361.999Z" fill="#F39A83"/>
<path d="M206.866 324.912C206.866 324.629 206.866 324.355 206.866 324.09C206.688 323.259 206.519 322.428 206.35 321.587C206.491 322.702 206.669 323.807 206.866 324.912Z" fill="#F39A83"/>
<path d="M209.127 334.576C208.92 333.678 208.704 332.79 208.479 331.921C208.31 331.26 208.113 330.58 207.917 329.899C208.038 330.419 208.16 330.929 208.292 331.449C208.554 332.497 208.798 333.536 209.127 334.576Z" fill="#F39A83"/>
<path d="M225.683 323.552C225.312 323.552 224.949 323.663 224.641 323.87C224.332 324.078 224.092 324.373 223.95 324.718C223.808 325.063 223.771 325.443 223.843 325.81C223.915 326.176 224.094 326.513 224.356 326.777C224.619 327.041 224.953 327.221 225.317 327.294C225.681 327.367 226.058 327.33 226.401 327.187C226.744 327.044 227.037 326.801 227.243 326.491C227.449 326.18 227.559 325.815 227.559 325.441C227.559 324.94 227.361 324.459 227.01 324.105C226.658 323.751 226.181 323.552 225.683 323.552Z" fill="#27090B"/>
<path d="M244.228 325.45C244.228 325.824 244.338 326.189 244.544 326.5C244.751 326.81 245.044 327.052 245.386 327.195C245.729 327.338 246.106 327.376 246.47 327.303C246.834 327.23 247.169 327.05 247.431 326.786C247.693 326.522 247.872 326.185 247.944 325.819C248.017 325.452 247.98 325.072 247.838 324.727C247.696 324.382 247.455 324.087 247.147 323.879C246.838 323.671 246.475 323.561 246.104 323.561C245.607 323.561 245.13 323.76 244.778 324.114C244.426 324.468 244.228 324.949 244.228 325.45Z" fill="#27090B"/>
<path d="M243.178 318.459C245.988 318.327 248.755 319.197 250.992 320.916C251.26 321.125 251.59 321.238 251.93 321.237C252.249 321.234 252.559 321.132 252.818 320.944C253.077 320.756 253.271 320.492 253.374 320.188C253.477 319.884 253.484 319.555 253.393 319.247C253.302 318.939 253.119 318.667 252.868 318.469C250.046 316.302 246.554 315.208 243.009 315.38C242.808 315.39 242.612 315.441 242.43 315.528C242.249 315.615 242.086 315.737 241.951 315.888C241.817 316.038 241.713 316.214 241.646 316.405C241.579 316.595 241.549 316.798 241.56 317C241.57 317.202 241.62 317.4 241.707 317.583C241.793 317.766 241.915 317.93 242.064 318.065C242.213 318.201 242.388 318.305 242.577 318.373C242.767 318.441 242.968 318.47 243.169 318.459H243.178Z" fill="#201544"/>
<path d="M228.3 315.38C224.755 315.203 221.262 316.297 218.442 318.469C218.191 318.667 218.007 318.939 217.916 319.247C217.826 319.555 217.832 319.884 217.935 320.188C218.039 320.492 218.233 320.756 218.492 320.944C218.75 321.132 219.061 321.234 219.38 321.237C219.719 321.239 220.05 321.126 220.318 320.916C222.552 319.192 225.32 318.322 228.131 318.459C228.537 318.482 228.935 318.341 229.237 318.069C229.54 317.796 229.723 317.413 229.745 317.005C229.767 316.596 229.628 316.196 229.357 315.891C229.086 315.586 228.706 315.402 228.3 315.38V315.38Z" fill="#201544"/>
<path d="M238.291 336.096C238.437 335.734 238.485 335.34 238.431 334.953C238.395 334.635 238.339 334.319 238.263 334.009C238.132 333.432 237.966 332.864 237.765 332.308C237.39 331.212 236.931 330.192 236.527 329.162C236.098 328.115 235.753 327.035 235.495 325.932C235.143 327.086 235.088 328.312 235.336 329.493C235.555 330.632 235.869 331.751 236.274 332.837L236.818 334.415C237.006 334.817 237.105 335.255 237.109 335.7C236.981 336.166 236.746 336.596 236.424 336.956L236.133 337.315L237.071 337.466C237.605 337.142 238.029 336.665 238.291 336.096Z" fill="#DE7778"/>
<path d="M286.196 399.333C284.48 394.997 280.568 388.082 275.615 384.133C275.137 383.745 274.639 383.383 274.124 383.047C270.728 388.715 264.828 393.004 258.909 396.896C258.909 397.311 258.909 397.708 258.909 398.095C259.378 414.646 257.025 430.216 263.516 446.001C263.581 446.171 264.516 454.001 270.288 447.606C270.363 447.776 266.969 455.878 267.016 456.001C271.516 457.001 294.516 457.501 311.016 456.501C310.631 455.556 298.41 429.288 298.006 428.315C294.076 418.661 290.042 409.035 286.196 399.333Z" fill="#C03037"/>
<path d="M226.799 390.547C225.541 391.077 224.371 391.797 223.329 392.682C223.023 393.08 222.748 393.5 222.503 393.939C221.284 396.313 220.708 398.968 220.833 401.638L239.923 399.503C239.932 402.478 239.785 405.452 239.482 408.411C241.707 407.293 243.69 405.742 245.316 403.848C245.588 403.527 245.842 403.206 246.095 402.904C245.761 402.524 245.469 402.109 245.222 401.666C241.789 396.027 234.125 387.619 226.799 390.547Z" fill="#EA947E"/>
<path d="M276.206 358.693C275.654 359.601 274.825 360.303 273.843 360.696C269.612 362.68 264.462 362.727 259.903 362.699C258.29 362.699 252.727 363.284 250.851 362.33L250.664 362.453C248.615 363.88 246.674 365.459 244.857 367.176C242.39 369.481 240.017 371.9 237.7 373.987C236.565 374.998 235.392 375.99 234.229 376.973C232.757 378.219 231.274 379.457 229.839 380.751C227.963 382.357 225.384 384.01 224.052 386.079C222.72 388.148 222.372 391.473 222.007 393.863C222.429 393.457 222.879 393.079 223.329 392.701C224.371 391.815 225.542 391.096 226.8 390.566C234.117 387.619 241.809 396.026 245.223 401.657C245.469 402.099 245.762 402.514 246.095 402.894C246.292 403.118 246.527 403.303 246.79 403.442C248.037 404.047 249.482 403.215 250.617 402.403C253.196 400.57 256.057 398.775 258.909 396.896C264.828 393.004 270.728 388.743 274.124 383.047C274.627 382.2 275.072 381.319 275.456 380.411C276.655 377.548 277.181 374.444 276.994 371.342C276.994 370.218 276.91 369.094 276.882 367.951C276.835 365.533 277.22 363.161 277.116 360.753C277.117 359.874 276.925 359.006 276.553 358.211C276.553 358.145 276.488 358.079 276.45 358.022C276.396 358.255 276.314 358.48 276.206 358.693Z" fill="#50A2D3"/>
<path d="M232.653 435.117C228.782 433.12 225.34 430.376 222.522 427.04C221.895 426.254 221.325 425.424 220.815 424.556C220.815 436.638 220.815 447.105 220.815 452.206C223.893 452.838 227.002 453.307 230.129 453.614C231.377 447.077 232.615 441.475 233.769 436.506C233.413 436.024 233.019 435.58 232.653 435.117Z" fill="#EA947E"/>
<path d="M220.833 401.656C220.833 404.49 220.833 407.324 220.833 410.225C222.09 407.787 224.117 404.651 225.449 406.814C226.387 408.297 230.054 411.339 233.684 414.239C232.146 410.461 233.591 409.053 233.591 409.053C235.507 410.013 237.316 411.179 238.984 412.53C239.191 411.169 239.369 409.809 239.51 408.43C239.813 405.47 239.96 402.497 239.951 399.521L220.833 401.656Z" fill="#EA947E"/>
<path d="M186.098 414.731C187.768 412.385 189.797 410.322 192.111 408.619C192.111 408.619 193.79 409.743 192.937 413.739C195.113 411.245 197.28 408.694 198.565 406.833C198.227 402.059 197.871 397.711 197.496 393.787C196.675 394.373 195.77 394.829 194.813 395.138C194.072 394.855 192.843 393.343 191.417 391.142C190.038 391.671 188.791 392.087 187.74 392.474C187.641 392.511 187.536 392.53 187.43 392.531C186.68 392.531 185.892 391.917 185.104 391.482C185.104 391.482 184.222 390.821 183.012 389.725C180.706 387.74 178.757 385.369 177.253 382.716V382.716C177.891 385.077 178.566 387.562 179.269 390.141C181.455 398.104 183.875 406.777 186.098 414.731Z" fill="#EA947E"/>
<path d="M195.582 435.655C195.094 436.722 194.588 437.771 194.062 438.81C196.143 438.908 198.214 438.476 200.084 437.554C200.084 437.195 200.084 436.817 200.084 436.401C200.084 434.946 199.981 433.567 199.925 432.112C198.553 433.384 197.102 434.567 195.582 435.655Z" fill="#EA947E"/>
<path d="M202.973 444.8C202.645 442.104 202.016 439.455 201.097 436.902C200.769 437.144 200.424 437.362 200.065 437.554C198.194 438.477 196.123 438.909 194.042 438.811C193.592 439.68 193.104 440.549 192.664 441.408C196.001 443.338 199.446 445.073 202.982 446.604C203.04 446.004 203.036 445.399 202.973 444.8Z" fill="#1C0F39"/>
<path d="M183.04 389.725C184.25 390.821 185.132 391.482 185.132 391.482C185.92 391.917 186.708 392.569 187.458 392.531C187.564 392.53 187.668 392.511 187.768 392.474C188.818 392.125 190.066 391.671 191.445 391.142C188.134 386.022 183.79 377.19 182.064 371.493L181.943 371.578L181.201 372.098C181.07 372.183 180.929 372.277 180.807 372.372L180.151 372.844L179.813 373.099L179.232 373.553L178.96 373.76C178.706 373.968 178.472 374.167 178.265 374.356C178.047 374.551 177.841 374.76 177.646 374.979C177.14 375.53 176.749 376.177 176.496 376.883C176.243 377.589 176.133 378.339 176.174 379.088C176.278 380.359 176.642 381.594 177.243 382.716C178.759 385.372 180.72 387.744 183.04 389.725V389.725Z" fill="#EA947E"/>
<path d="M191.445 391.142C192.871 393.343 194.1 394.855 194.841 395.138C195.805 394.83 196.716 394.375 197.543 393.787C206.869 387.963 215.844 381.585 224.417 374.686L224.774 374.403L221.416 365.041L214.427 356.378L211.932 353.299L210.853 351.967C193.312 360.11 188.434 363.123 183.388 365.542L182.937 365.759L182.825 365.816L182.149 366.127H182.065C181.605 366.335 181.418 366.921 181.436 367.799C181.448 368.308 181.507 368.814 181.615 369.311C181.732 369.948 181.883 370.579 182.065 371.2L182.149 371.474C183.791 377.189 188.162 386.022 191.445 391.142Z" fill="#50A2D3"/>
<path d="M255.522 349.832C254.911 351.488 254.121 353.072 253.168 354.555L251.704 357.625C251.132 358.816 249.519 361.017 250.419 362.008C250.543 362.133 250.69 362.232 250.851 362.301C252.727 363.246 258.289 362.66 259.903 362.67C264.48 362.67 269.612 362.67 273.842 360.667C274.824 360.274 275.654 359.572 276.206 358.664C276.313 358.451 276.395 358.226 276.45 357.994C276.525 357.703 276.572 357.406 276.591 357.106C276.619 356.475 276.594 355.843 276.515 355.216C276.328 353.403 276.046 351.589 275.849 349.766H255.522V349.832Z" fill="white"/>
<path d="M186.642 421.145C187.58 419.776 190.263 416.819 192.936 413.739C193.79 409.743 192.111 408.619 192.111 408.619C189.797 410.322 187.767 412.385 186.098 414.731C181.839 420.919 183.134 426.388 184.137 428.901C184.353 428.618 184.55 428.325 184.757 428.042C184.907 425.708 185.46 422.836 186.642 421.145Z" fill="#F39A83"/>
<path d="M192.935 413.739C190.262 416.819 187.607 419.776 186.641 421.146C185.459 422.837 184.906 425.708 184.765 428.004C185.215 427.38 185.703 426.766 186.106 426.115C189.755 427.683 193.123 430.838 196.603 433.36C196.284 434.125 195.928 434.872 195.59 435.627C197.109 434.549 198.56 433.375 199.933 432.113C202.427 429.881 204.535 427.248 206.171 424.32C210.167 416.762 207.813 411.718 206.04 409.101C204.83 407.316 200.918 401.884 199.717 404.945C199.408 405.612 199.031 406.245 198.592 406.834C197.278 408.695 195.112 411.245 192.935 413.739Z" fill="#F39A83"/>
<path d="M194.062 438.811C194.587 437.771 195.094 436.723 195.582 435.655C195.919 434.9 196.276 434.153 196.595 433.388C193.115 430.856 189.747 427.72 186.098 426.143C185.667 426.766 185.207 427.38 184.757 428.032C184.55 428.315 184.353 428.608 184.138 428.892C183.021 430.403 172.707 438.055 171.516 439.501C175.016 441.501 190.516 445.001 191.516 445.501C191.994 444.613 193.612 439.67 194.062 438.811Z" fill="#F39A83"/>
<path d="M244.772 428.485C244.716 428.693 244.659 428.844 244.631 428.929C244.712 429.366 244.689 429.816 244.566 430.242C244.069 431.13 237.061 437.176 237.061 437.176C235.553 436.585 234.083 435.897 232.662 435.117C233.028 435.58 233.422 436.062 233.788 436.487C238.816 442.553 245.998 450.43 252.016 455.501C253.516 456.001 280.516 457.501 286.516 457.001C277.296 451.147 253.117 435.546 244.772 428.485Z" fill="#F39A83"/>
<path d="M233.563 409.054C233.563 409.054 232.118 410.461 233.656 414.24C236.836 416.781 239.979 419.218 241.161 420.39C243.149 422.364 244.397 426.691 244.622 428.892C244.622 428.807 244.706 428.656 244.763 428.448C245.382 426.388 246.836 419.001 238.947 412.492C237.279 411.155 235.474 410.003 233.563 409.054V409.054Z" fill="#F39A83"/>
<path d="M241.171 420.389C239.979 419.218 236.837 416.781 233.666 414.24C230.036 411.339 226.35 408.298 225.43 406.815C224.098 404.651 222.072 407.759 220.815 410.225C220.449 410.943 220.149 411.595 219.952 412.039C218.836 414.57 217.626 419.001 220.825 424.536C221.334 425.411 221.904 426.247 222.532 427.04C225.35 430.375 228.792 433.12 232.663 435.117C234.084 435.897 235.553 436.585 237.062 437.176C237.062 437.176 244.078 431.13 244.566 430.242C244.69 429.816 244.713 429.366 244.632 428.929C244.444 426.69 243.159 422.364 241.171 420.389Z" fill="#F39A83"/>
<path d="M215.993 352.977C217.479 354.883 219.262 356.533 221.274 357.861C221.715 358.154 222.156 358.428 222.616 358.693C224.741 359.905 227.042 360.772 229.435 361.262C234.141 362.213 238.995 362.13 243.665 361.017C244.181 360.884 244.669 360.743 245.157 360.591C246 360.326 246.827 360.011 247.633 359.647C249.925 358.518 251.855 356.763 253.205 354.583C254.158 353.1 254.948 351.516 255.56 349.86C256.159 348.238 256.663 346.582 257.07 344.9C257.698 342.312 258.271 339.639 258.758 336.918C258.993 335.614 259.209 334.301 259.396 332.969C259.809 330.135 260.09 327.301 260.24 324.42C260.24 323.844 260.24 323.268 260.306 322.691C259.84 323.481 259.652 324.406 259.771 325.318C259.302 323.645 259.574 321.718 259.499 319.895C259.34 320.065 259.19 320.245 259.021 320.415C259.499 319.942 259.077 318.034 258.552 316.268C258.839 318.927 258.949 321.604 258.88 324.278C258.749 328.888 258.111 334.868 254.19 337.882C249.237 341.66 242.868 338.552 237.127 337.513L236.189 337.362C235.31 337.233 234.422 337.182 233.535 337.211C229.567 337.4 226.03 339.516 222.044 339.809C215.702 340.262 211.472 334.216 210.009 328.699C209.821 327.972 209.661 327.216 209.455 326.47C209.455 326.801 209.455 327.141 209.38 327.462C208.442 328.17 207.429 326.687 207.194 325.573C207.091 325.1 206.988 324.628 206.894 324.146C206.894 324.411 206.894 324.685 206.894 324.968C206.899 325.056 206.899 325.144 206.894 325.232C206.894 325.336 206.894 325.44 206.894 325.535C207.105 327.033 207.437 328.512 207.889 329.956C208.086 330.636 208.283 331.316 208.451 331.977C208.677 332.847 208.892 333.735 209.099 334.632L209.774 337.542C210.388 340.379 211.18 343.175 212.147 345.911C213.064 348.45 214.361 350.833 215.993 352.977ZM235.692 350.937C230.786 350.937 226.753 347.791 226.227 343.739H245.129C244.603 347.791 240.56 350.937 235.655 350.937H235.692Z" fill="#201544"/>
<path d="M206.838 324.09C206.932 324.562 207.035 325.035 207.138 325.516C207.372 326.659 208.395 328.143 209.324 327.406C209.324 327.085 209.38 326.744 209.399 326.414C210.102 317.336 209.699 306.387 218.638 301.597C222.512 299.529 226.977 298.829 231.358 298.537C238.694 298.045 250.119 298.329 253.937 306.094C255.072 308.437 256.526 310.553 257.436 313.028C257.604 313.481 258.092 314.794 258.514 316.192C259.04 317.959 259.452 319.867 258.983 320.34C259.152 320.17 259.302 319.99 259.462 319.82C259.537 321.643 259.265 323.599 259.734 325.242C259.614 324.331 259.802 323.406 260.268 322.616C260.615 321.898 261.028 321.19 261.394 320.557C261.61 320.17 261.816 319.801 261.957 319.499C263.102 316.993 264.068 314.407 264.846 311.762C266.394 306.519 268.12 298.858 267.313 292.207C266.797 287.89 265.221 284.008 261.835 281.476C261.346 281.108 260.821 280.792 260.268 280.531C259.493 280.154 258.644 279.957 257.783 279.955C255.907 279.955 254.321 281.041 252.614 281.703C250.265 282.616 247.7 282.81 245.241 282.26C242.99 281.75 240.917 280.645 238.675 280.078C233.783 278.973 228.666 279.524 224.116 281.646C217.289 284.673 211.614 289.838 207.935 296.373L207.673 296.846C207.297 297.573 206.95 298.31 206.65 299.047C203.733 306.207 204.774 313.774 206.256 321.209C206.256 321.313 206.303 321.417 206.322 321.52C206.491 322.427 206.66 323.259 206.838 324.09Z" fill="#201544"/>
<path d="M226.189 343.739C226.715 347.792 230.748 350.938 235.654 350.938C240.56 350.938 244.603 347.792 245.128 343.739H226.189Z" fill="white"/>
<path d="M226.461 232.929L226.545 233.061C226.602 232.362 226.611 231.588 226.686 230.86L227.08 227.318C227.549 223.095 227.221 218.041 232.549 217.21C235.429 216.766 238.055 218.787 240.888 219.468C243.411 220.072 246.057 219.581 248.589 218.976C251.122 218.372 253.664 217.644 256.253 217.786C260.943 218.022 262.069 220.129 262.435 224.125C262.688 226.959 263.279 229.793 263.785 232.532C263.857 233.052 264.029 233.553 264.292 234.006C265.061 235.13 266.243 233.524 267.162 231.701C267.642 230.751 268.049 229.766 268.382 228.754C269.855 224.03 269.573 217.909 268.269 213.204C268.175 212.883 268.082 212.553 267.978 212.26C266.234 206.951 262.425 202.18 257.21 200.291C255.334 199.601 253.308 199.346 251.385 198.732C246.591 197.277 241.845 194.009 237.014 195.341C233.262 196.38 230.448 200.064 226.574 200.536C225.721 200.506 224.876 200.705 224.125 201.113C223.556 201.658 223.195 202.387 223.103 203.172C221.899 208.384 221.689 213.78 222.484 219.071C222.905 222.351 223.598 225.59 224.557 228.754C225.016 230.22 225.656 231.623 226.461 232.929V232.929Z" fill="#201544"/>
</svg>
