<svg width="24" height="25" viewBox="0 0 24 25" fill="none" xmlns="http://www.w3.org/2000/svg">
<path d="M21.75 4.55234H15.8812L17.5547 2.61172C18.1406 2.02578 18.1406 1.07422 17.5547 0.488281C16.9687 -0.0976562 16.0172 -0.0976562 15.4312 0.488281L12 4.46797L8.56875 0.492969C7.98281 -0.0929688 7.03125 -0.0929688 6.44531 0.492969C5.85937 1.07891 5.85937 2.03047 6.44531 2.61641L8.11875 4.55234H2.25C1.00781 4.55234 0 5.56016 0 6.80234V20.3023C0 21.5445 1.00781 22.5523 2.25 22.5523H3V24.0523H5.25L6.24844 22.5523H17.7469L18.7453 24.0523H20.9953V22.5523H21.7453C22.9875 22.5523 23.9953 21.5445 23.9953 20.3023V6.80234C24 5.56016 22.9922 4.55234 21.75 4.55234ZM18.375 19.1773C18.375 19.1773 18.375 19.5523 10.5 19.5523C3.375 19.5523 3.375 19.1773 3.375 19.1773C3.375 19.1773 3 19.1773 3 13.5523C3 7.92734 3.375 7.92734 3.375 7.92734C3.375 7.92734 3.375 7.55234 10.5 7.55234C18.375 7.55234 18.375 7.92734 18.375 7.92734C18.375 7.92734 18.75 7.92734 18.75 13.5523C18.75 19.1773 18.375 19.1773 18.375 19.1773ZM21.75 14.4898C21.75 14.7992 21.4969 15.0523 21.1875 15.0523H20.8125C20.5031 15.0523 20.25 14.7992 20.25 14.4898V14.1148C20.25 13.8055 20.5031 13.5523 20.8125 13.5523H21.1875C21.4969 13.5523 21.75 13.8055 21.75 14.1148V14.4898ZM21.75 11.4898C21.75 11.7992 21.4969 12.0523 21.1875 12.0523H20.8125C20.5031 12.0523 20.25 11.7992 20.25 11.4898V11.1148C20.25 10.8055 20.5031 10.5523 20.8125 10.5523H21.1875C21.4969 10.5523 21.75 10.8055 21.75 11.1148V11.4898Z" fill="white"/>
</svg>
