<svg width="27" height="19" viewBox="0 0 27 19" fill="none" xmlns="http://www.w3.org/2000/svg">
<path d="M25.4953 1.55225C25.2047 1.55225 24.9094 1.63662 24.6422 1.81943L19.5 5.02568V2.29287C19.5 1.05537 18.4125 0.0522461 17.0719 0.0522461H2.42812C1.0875 0.0522461 0 1.05537 0 2.29287V15.8116C0 17.0491 1.0875 18.0522 2.42812 18.0522H17.0719C18.4125 18.0522 19.5 17.0491 19.5 15.8116V13.0788L24.6422 16.2804C24.9094 16.4679 25.2094 16.5476 25.4953 16.5476C26.2734 16.5476 27 15.9382 27 15.071V3.02881C27 2.16162 26.2734 1.55225 25.4953 1.55225ZM17.25 6.42725V15.7507C17.2219 15.7694 17.1656 15.8022 17.0719 15.8022H2.42812C2.33437 15.8022 2.27813 15.7741 2.25 15.7507V2.35381C2.27813 2.33506 2.33437 2.30225 2.42812 2.30225H17.0719C17.1656 2.30225 17.2219 2.33037 17.25 2.35381V6.42725ZM24.75 13.7022L19.5 10.4304V7.67881L24.75 4.40693V13.7022Z" fill="white"/>
</svg>
