<svg width="20" height="20" viewBox="0 0 20 20" fill="none" xmlns="http://www.w3.org/2000/svg">
<path d="M13.9688 13.9688L7.96875 10.7344V17.25L13.9688 13.9688ZM19.9688 9.98438V18C19.9688 18.5312 19.7656 19 19.3594 19.4062C18.9844 19.7812 18.5312 19.9688 18 19.9688H1.96875C1.4375 19.9688 0.96875 19.7812 0.5625 19.4062C0.1875 19 0 18.5312 0 18V9.98438C0 9.45312 0.1875 8.98438 0.5625 8.57812C0.96875 8.17188 1.4375 7.96875 1.96875 7.96875H18C18.5312 7.96875 18.9844 8.17188 19.3594 8.57812C19.7656 8.98438 19.9688 9.45312 19.9688 9.98438ZM15.9844 0V1.96875H3.98438V0H15.9844ZM18 6H1.96875V3.98438H18V6Z" fill="white"/>
</svg>
