<svg width="24" height="18" viewBox="0 0 24 18" fill="none" xmlns="http://www.w3.org/2000/svg">
<path d="M22.875 0H22.5V0.9375C22.5 1.24688 22.2469 1.5 21.9375 1.5H20.0625C19.7531 1.5 19.5 1.24688 19.5 0.9375V0H4.5V0.9375C4.5 1.24688 4.24687 1.5 3.9375 1.5H2.0625C1.75312 1.5 1.5 1.24688 1.5 0.9375V0H1.125C0.501562 0 0 0.501562 0 1.125V16.875C0 17.4984 0.501562 18 1.125 18H1.5V17.0625C1.5 16.7531 1.75312 16.5 2.0625 16.5H3.9375C4.24687 16.5 4.5 16.7531 4.5 17.0625V18H19.5V17.0625C19.5 16.7531 19.7531 16.5 20.0625 16.5H21.9375C22.2469 16.5 22.5 16.7531 22.5 17.0625V18H22.875C23.4984 18 24 17.4984 24 16.875V1.125C24 0.501562 23.4984 0 22.875 0ZM4.5 14.4375C4.5 14.7469 4.24687 15 3.9375 15H2.0625C1.75312 15 1.5 14.7469 1.5 14.4375V12.5625C1.5 12.2531 1.75312 12 2.0625 12H3.9375C4.24687 12 4.5 12.2531 4.5 12.5625V14.4375ZM4.5 9.9375C4.5 10.2469 4.24687 10.5 3.9375 10.5H2.0625C1.75312 10.5 1.5 10.2469 1.5 9.9375V8.0625C1.5 7.75313 1.75312 7.5 2.0625 7.5H3.9375C4.24687 7.5 4.5 7.75313 4.5 8.0625V9.9375ZM4.5 5.4375C4.5 5.74687 4.24687 6 3.9375 6H2.0625C1.75312 6 1.5 5.74687 1.5 5.4375V3.5625C1.5 3.25312 1.75312 3 2.0625 3H3.9375C4.24687 3 4.5 3.25312 4.5 3.5625V5.4375ZM17.25 15.1875C17.25 15.4969 16.9969 15.75 16.6875 15.75H7.3125C7.00313 15.75 6.75 15.4969 6.75 15.1875V10.6875C6.75 10.3781 7.00313 10.125 7.3125 10.125H16.6875C16.9969 10.125 17.25 10.3781 17.25 10.6875V15.1875ZM17.25 7.3125C17.25 7.62187 16.9969 7.875 16.6875 7.875H7.3125C7.00313 7.875 6.75 7.62187 6.75 7.3125V2.8125C6.75 2.50312 7.00313 2.25 7.3125 2.25H16.6875C16.9969 2.25 17.25 2.50312 17.25 2.8125V7.3125ZM22.5 14.4375C22.5 14.7469 22.2469 15 21.9375 15H20.0625C19.7531 15 19.5 14.7469 19.5 14.4375V12.5625C19.5 12.2531 19.7531 12 20.0625 12H21.9375C22.2469 12 22.5 12.2531 22.5 12.5625V14.4375ZM22.5 9.9375C22.5 10.2469 22.2469 10.5 21.9375 10.5H20.0625C19.7531 10.5 19.5 10.2469 19.5 9.9375V8.0625C19.5 7.75313 19.7531 7.5 20.0625 7.5H21.9375C22.2469 7.5 22.5 7.75313 22.5 8.0625V9.9375ZM22.5 5.4375C22.5 5.74687 22.2469 6 21.9375 6H20.0625C19.7531 6 19.5 5.74687 19.5 5.4375V3.5625C19.5 3.25312 19.7531 3 20.0625 3H21.9375C22.2469 3 22.5 3.25312 22.5 3.5625V5.4375Z" fill="white"/>
</svg>
