<svg width="106" height="151" viewBox="0 0 106 151" fill="none" xmlns="http://www.w3.org/2000/svg">
<path d="M24.6183 136.493C12.5975 127.628 5.42078 113.431 5.42078 98.5157V52.4836C5.42078 51.1343 5.47833 49.7718 5.59202 48.435C5.71671 46.9688 4.62889 45.6792 3.16271 45.5545C1.69795 45.4312 0.406916 46.5176 0.282218 47.9838C0.156098 49.4702 0.0917969 50.9843 0.0917969 52.4836V98.5157C0.0917969 106.874 2.1058 115.191 5.91638 122.569C9.60226 129.705 14.9756 136.003 21.4553 140.782C21.9314 141.133 22.4853 141.302 23.0348 141.302C23.8523 141.302 24.6591 140.927 25.1814 140.219C26.0546 139.034 25.8027 137.366 24.6183 136.493Z" fill="#D9D9D9"/>
<path d="M37.0516 143.057C35.4106 142.485 33.7842 141.814 32.2164 141.062C30.8898 140.426 29.2979 140.986 28.662 142.313C28.0257 143.64 28.5856 145.232 29.9125 145.868C31.6586 146.705 33.4701 147.452 35.2976 148.089C35.5879 148.19 35.8838 148.238 36.1748 148.238C37.2768 148.238 38.3074 147.55 38.6908 146.45C39.1746 145.061 38.441 143.542 37.0516 143.057Z" fill="#D9D9D9"/>
<path d="M102.396 86.4072C100.924 86.4072 99.7317 87.6002 99.7317 89.0717V98.5161C99.7317 124.517 78.5781 145.671 52.5765 145.671C50.7366 145.671 48.8835 145.564 47.0692 145.353C45.6055 145.183 44.2846 146.23 44.1148 147.692C43.9446 149.154 44.992 150.477 46.4535 150.646C48.4718 150.881 50.5316 151 52.5765 151C81.5161 151 105.06 127.456 105.06 98.5161V89.0717C105.061 87.5999 103.868 86.4072 102.396 86.4072Z" fill="#D9D9D9"/>
<path d="M52.5756 0C41.2444 0 30.4557 3.55372 21.3748 10.2771C12.4743 16.8673 5.98467 25.895 2.60751 36.3852C2.15633 37.7861 2.92654 39.2871 4.32736 39.7382C5.72852 40.1887 7.22917 39.4192 7.68036 38.0184C10.7143 28.595 16.546 20.4832 24.5459 14.5602C32.7021 8.52105 42.3948 5.32899 52.5756 5.32899C78.5768 5.32899 99.7304 26.4826 99.7304 52.4838V78.4135C99.7304 79.885 100.923 81.078 102.395 81.078C103.867 81.078 105.059 79.885 105.059 78.4135V52.4838C105.06 23.5442 81.5152 0 52.5756 0Z" fill="#D9D9D9"/>
<path d="M16.5712 113.239C15.2514 113.891 14.7096 115.488 15.3604 116.808C18.7369 123.651 23.933 129.437 30.3867 133.539C37.0224 137.757 44.6951 139.987 52.5756 139.987C58.5383 139.987 64.2979 138.742 69.6948 136.287C71.0345 135.678 71.6263 134.098 71.017 132.758C70.4074 131.419 68.8279 130.827 67.4882 131.437C62.7891 133.574 57.7717 134.658 52.5756 134.658C45.7094 134.658 39.025 132.716 33.2452 129.042C27.6157 125.463 23.0836 120.418 20.1395 114.45C19.4886 113.13 17.8903 112.588 16.5712 113.239Z" fill="#D9D9D9"/>
<path d="M78.1968 130.304C78.8224 130.304 79.4505 130.085 79.9568 129.639C88.9109 121.752 94.0462 110.408 94.0462 98.5158V52.4837C94.0462 43.6152 91.2748 35.1496 86.0318 28.0027C85.1618 26.8161 83.4945 26.56 82.3075 27.4304C81.121 28.3008 80.8648 29.9684 81.7356 31.155C86.3029 37.3813 88.7172 44.7567 88.7172 52.4837V98.5158C88.7172 108.879 84.2402 118.765 76.4346 125.64C75.3305 126.613 75.2236 128.296 76.1963 129.4C76.7231 129.998 77.4582 130.304 78.1968 130.304Z" fill="#D9D9D9"/>
<path d="M73.1107 22.7576C73.574 23.0784 74.1026 23.2326 74.6263 23.2326C75.4707 23.2326 76.3013 22.8322 76.8186 22.0858C77.6567 20.8761 77.3561 19.2163 76.1464 18.3779C74.1292 16.9799 71.9781 15.7553 69.7517 14.7385C68.4119 14.1271 66.8324 14.7169 66.221 16.0552C65.6096 17.3938 66.199 18.9744 67.5376 19.5858C69.4774 20.4718 71.3525 21.5387 73.1107 22.7576Z" fill="#D9D9D9"/>
<path d="M59.5143 11.5942C57.2364 11.2091 54.9019 11.0137 52.576 11.0137C29.7093 11.0137 11.1055 29.6175 11.1055 52.4845V97.2434C11.1055 98.7149 12.2985 99.9079 13.77 99.9079C15.2415 99.9079 16.4345 98.7149 16.4345 97.2434V52.4845C16.4345 32.5559 32.6477 16.3427 52.576 16.3427C54.6049 16.3427 56.6402 16.5128 58.6251 16.8486C60.0803 17.0937 61.4512 16.1164 61.6967 14.6658C61.9426 13.2149 60.9652 11.8397 59.5143 11.5942Z" fill="#2F80ED"/>
<path d="M27.3285 35.4629C26.5043 36.6818 26.8244 38.3384 28.0433 39.1626C29.2622 39.9865 30.9188 39.6667 31.7431 38.4478C36.4393 31.502 44.2271 27.3554 52.5755 27.3554C66.4312 27.3554 77.7038 38.6279 77.7038 52.484V82.3217C77.7038 83.7932 78.8964 84.9862 80.3683 84.9862C81.8401 84.9862 83.0328 83.7932 83.0328 82.3217V52.484C83.0328 35.6895 69.3696 22.0264 52.5755 22.0264C42.4554 22.0264 33.0174 27.0495 27.3285 35.4629Z" fill="#D9D9D9"/>
<path d="M24.7827 61.5381C26.2542 61.5381 27.4471 60.3451 27.4471 58.8736V52.4838C27.4471 51.0123 26.2542 49.8193 24.7827 49.8193C23.3111 49.8193 22.1182 51.0123 22.1182 52.4838V58.8736C22.1182 60.3451 23.3111 61.5381 24.7827 61.5381Z" fill="#D9D9D9"/>
<path d="M22.1182 98.5163C22.1182 109.538 28.1143 119.735 37.7669 125.126C38.1783 125.356 38.6238 125.465 39.0636 125.465C39.9976 125.465 40.9046 124.973 41.3924 124.099C42.11 122.815 41.6503 121.191 40.3653 120.474C32.3971 116.023 27.4471 107.61 27.4471 98.5166V69.5327C27.4471 68.0611 26.2542 66.8682 24.7827 66.8682C23.3111 66.8682 22.1182 68.0611 22.1182 69.5327V98.5163Z" fill="#D9D9D9"/>
<path d="M83.0336 98.5168V93.6909C83.0336 92.2193 81.841 91.0264 80.3691 91.0264C78.8973 91.0264 77.7046 92.2193 77.7046 93.6909V98.5168C77.7046 112.373 66.4321 123.645 52.5763 123.645C50.552 123.645 48.5373 123.403 46.589 122.925C45.1591 122.574 43.7171 123.449 43.3664 124.878C43.0158 126.307 43.8901 127.75 45.3193 128.1C47.6829 128.68 50.1247 128.974 52.5763 128.974C69.3705 128.974 83.0336 115.311 83.0336 98.5168Z" fill="#D9D9D9"/>
<path d="M72.0203 52.7658C72.0203 42.0901 63.4659 33.2429 52.9507 33.0436C47.6849 32.9441 42.724 34.9205 38.9642 38.6099C35.203 42.3004 33.1318 47.228 33.1318 52.4845V98.5166C33.1318 99.9881 34.3248 101.181 35.7963 101.181C37.2678 101.181 38.4608 99.9881 38.4608 98.5166V52.4845C38.4608 48.6703 39.965 45.0939 42.6967 42.4138C45.4269 39.7347 49.0463 38.3012 52.8494 38.3719C60.4816 38.5165 66.6913 44.9738 66.6913 52.7662V78.059C66.6913 79.5305 67.8839 80.7235 69.3558 80.7235C70.8277 80.7235 72.0203 79.5305 72.0203 78.059V52.7658Z" fill="#D9D9D9"/>
<path d="M44.1455 101.601C44.1455 109.286 50.3978 115.539 58.0829 115.539C65.768 115.539 72.0204 109.287 72.0204 101.601V88.7161C72.0204 87.2446 70.8277 86.0516 69.3559 86.0516C67.884 86.0516 66.6914 87.2446 66.6914 88.7161V101.601C66.6914 106.348 62.8296 110.21 58.0829 110.21C53.3362 110.21 49.4745 106.348 49.4745 101.601V78.769C49.4745 77.2975 48.2815 76.1045 46.81 76.1045C45.3385 76.1045 44.1455 77.2975 44.1455 78.769V101.601Z" fill="#D9D9D9"/>
<path d="M58.343 103.241C59.8149 103.241 61.0075 102.048 61.0075 100.577V52.6515C61.0075 48.0572 57.4897 44.285 52.998 44.0633C50.665 43.9486 48.4552 44.7706 46.7663 46.3782C45.1008 47.9638 44.1455 50.1892 44.1455 52.4842V67.4007C44.1455 68.8722 45.3385 70.0652 46.81 70.0652C48.2815 70.0652 49.4745 68.8722 49.4745 67.4007V52.4842C49.4745 51.629 49.8177 50.8311 50.4408 50.2382C51.0625 49.6463 51.874 49.3436 52.7358 49.3859C54.3583 49.4658 55.6785 50.931 55.6785 52.6515V100.577C55.6785 102.048 56.8711 103.241 58.343 103.241Z" fill="#2F80ED"/>
</svg>
