<svg width="220" height="155" viewBox="0 0 220 155" fill="none" xmlns="http://www.w3.org/2000/svg">
    <g clip-path="url(#clip0)">
        <path d="M131.323 126.101L104.851 110.84L69.2855 131.337L95.7698 146.591L131.323 126.101Z" fill="#656565"/>
        <path d="M131.323 126.101V134.503L95.7632 155L95.7698 146.591L131.323 126.101Z" fill="#424242"/>
        <path d="M95.7633 155L69.2855 139.739V131.337L95.7698 146.591L95.7633 155Z" fill="#424242"/>
        <path d="M129.366 129.215V133.608L97.7005 151.853V147.461L129.366 129.215Z" fill="#292929"/>
        <path d="M102.401 146.345C102.219 146.45 102.068 146.602 101.963 146.784C101.858 146.966 101.802 147.173 101.802 147.383C101.803 147.474 101.827 147.563 101.873 147.642C101.919 147.72 101.984 147.786 102.063 147.831C102.142 147.876 102.232 147.9 102.323 147.9C102.414 147.9 102.504 147.876 102.583 147.83C102.765 147.727 102.916 147.577 103.022 147.395C103.127 147.214 103.182 147.008 103.181 146.799C103.181 146.707 103.158 146.617 103.113 146.538C103.067 146.458 103.002 146.392 102.923 146.346C102.843 146.3 102.753 146.275 102.662 146.275C102.57 146.275 102.48 146.299 102.401 146.345Z" fill="white"/>
        <path d="M126.518 132.479C126.337 132.583 126.185 132.733 126.08 132.914C125.975 133.096 125.92 133.301 125.92 133.511C125.921 133.602 125.945 133.691 125.991 133.77C126.037 133.848 126.102 133.913 126.181 133.959C126.26 134.004 126.35 134.028 126.441 134.028C126.532 134.028 126.622 134.004 126.701 133.958C126.883 133.853 127.034 133.701 127.139 133.519C127.243 133.337 127.299 133.13 127.299 132.92C127.297 132.83 127.272 132.741 127.226 132.664C127.18 132.586 127.114 132.521 127.035 132.477C126.956 132.432 126.867 132.409 126.776 132.409C126.686 132.41 126.597 132.434 126.518 132.479Z" fill="#A4C639"/>
        <path d="M29.3901 79.8391L3.54297 94.7298V154.773L29.3901 139.876V79.8391Z" fill="white"/>
        <path d="M29.3901 79.839L25.8537 77.8017L0 92.686L3.54293 94.7298L29.3901 79.839Z" fill="#C2C2C2"/>
        <path d="M3.54293 94.7298V154.773L0 152.729V92.686L3.54293 94.7298Z" fill="#888888"/>
        <path d="M4.73901 146.234L28.1939 132.713V84.9584L4.73901 98.4801V146.234Z" fill="#292929"/>
        <path d="M15.2899 143.704C15.29 143.07 15.457 142.448 15.7742 141.899C16.0914 141.35 16.5476 140.894 17.0971 140.576L17.2987 140.46C17.5327 140.326 17.7979 140.255 18.0677 140.255C18.3375 140.256 18.6025 140.327 18.8362 140.462C19.0699 140.596 19.264 140.79 19.3992 141.023C19.5344 141.256 19.6058 141.52 19.6064 141.79V141.79C19.6059 142.422 19.4386 143.044 19.1214 143.592C18.8042 144.139 18.3482 144.594 17.7992 144.911L17.5912 145.027C17.3582 145.162 17.0938 145.232 16.8247 145.233C16.5556 145.233 16.2912 145.162 16.0581 145.028C15.8249 144.894 15.6312 144.701 15.4964 144.469C15.3616 144.236 15.2904 143.972 15.2899 143.704V143.704Z" stroke="#888888" stroke-width="0.34" stroke-miterlimit="10"/>
        <path opacity="0.1" d="M28.1939 88.17L4.73901 128.917V146.234L12.1304 141.971L28.1939 114.072V88.17Z" fill="white"/>
        <path opacity="0.1" d="M4.73901 123.123L25.9641 86.243L8.97753 96.0339L4.73901 103.398V123.123Z" fill="white"/>
        <path opacity="0.1" d="M28.194 130.215V120.255L17.4612 138.902L26.0357 133.958L28.194 130.215Z" fill="white"/>
        <path d="M85.1085 11.3611L43.1588 35.5366V132.972L85.1085 108.803V11.3611Z" fill="#656565"/>
        <path d="M85.1084 11.3611L79.3682 8.0585L37.4121 32.2211L43.1588 35.5366L85.1084 11.3611Z" fill="#424242"/>
        <path d="M43.1588 35.5367V132.972L37.4121 129.663V32.2211L43.1588 35.5367Z" fill="#424242"/>
        <path d="M45.1025 119.113L83.1647 97.1824V19.6791L45.1025 41.6162V119.113Z" fill="#292929"/>
        <path d="M62.2256 115.012C62.2233 113.984 62.4932 112.973 63.0081 112.082C63.5229 111.191 64.2644 110.452 65.1575 109.938L65.489 109.75C65.8677 109.531 66.2976 109.416 66.7353 109.416C67.173 109.415 67.6031 109.53 67.9821 109.748C68.3612 109.967 68.6758 110.281 68.8944 110.66C69.1129 111.038 69.2276 111.468 69.227 111.904C69.2281 112.932 68.9576 113.941 68.4429 114.831C67.9281 115.721 67.1872 116.459 66.2951 116.972L65.9636 117.167C65.5845 117.383 65.1551 117.497 64.7181 117.497C64.2812 117.496 63.8521 117.381 63.4737 117.163C63.0953 116.945 62.7809 116.631 62.5618 116.254C62.3428 115.877 62.2269 115.448 62.2256 115.012Z" stroke="#424242" stroke-width="0.3" stroke-miterlimit="10"/>
        <path opacity="0.1" d="M45.1025 79.4497L77.691 22.8325L50.1212 38.7224L45.1025 47.4427V79.4497Z" fill="white"/>
        <path opacity="0.1" d="M83.1647 22.7287L45.1025 88.8514V119.113L55.2438 113.273L83.1647 64.7666V22.7287Z" fill="white"/>
        <path opacity="0.1" d="M83.1647 90.9601V74.7976L63.8833 108.29L77.808 100.271L83.1647 90.9601Z" fill="white"/>
        <path d="M133.858 79.0864L111.417 88.6308L138.526 104.248L155.434 91.5246L133.858 79.0864Z" fill="#D1D1D1"/>
        <path d="M111.417 88.6307L111.43 91.0833L138.539 106.701L157.358 92.6275L155.434 91.5245L138.526 104.248L111.417 88.6307Z" fill="#888888"/>
        <path d="M96.3158 2.34879L165.471 42.1937V101.348L96.3158 61.4965V2.34879Z" fill="white"/>
        <path d="M161.486 88.0598L165.471 90.3567V42.1937L96.3158 2.34879V50.5118L100.301 52.8021L161.486 88.0598Z" fill="#656565"/>
        <path d="M161.486 44.6593V88.0598L100.301 52.8021V9.40161L161.486 44.6593Z" fill="#292929"/>
        <path d="M165.471 101.348L169.469 99.0446V88.0598L165.471 90.3567V101.348Z" fill="#C2C2C2"/>
        <path d="M165.471 90.3567L169.469 88.0598V39.8579L100.301 0L96.3158 2.34878L165.471 42.1937V90.3567Z" fill="#424242"/>
        <path d="M132.129 76.3483C132.129 75.416 131.884 74.5 131.417 73.6924C130.95 72.8848 130.279 72.2142 129.47 71.7481L129.164 71.5729C128.821 71.3751 128.432 71.2708 128.035 71.2704C127.639 71.27 127.25 71.3735 126.906 71.5707C126.562 71.7678 126.277 72.0516 126.077 72.3936C125.878 72.7356 125.773 73.1238 125.771 73.5194C125.77 74.4525 126.016 75.3692 126.484 76.1769C126.952 76.9847 127.626 77.6548 128.436 78.1196L128.735 78.2948C129.079 78.4926 129.468 78.5969 129.864 78.5973C130.261 78.5977 130.65 78.4942 130.994 78.2971C131.337 78.0999 131.623 77.8162 131.822 77.4742C132.021 77.1321 132.127 76.7439 132.129 76.3483Z" fill="#C2C2C2"/>
        <path opacity="0.1" d="M161.486 82.5187L128.872 25.8625L155.701 41.3243L161.486 51.3747V82.5187Z" fill="white"/>
        <path opacity="0.1" d="M100.301 26.2973V9.40161L120.986 21.3207L158.379 86.269L123.138 65.9605L100.301 26.2973Z" fill="white"/>
        <path opacity="0.1" d="M100.301 51.7834V36.0622L114.726 61.1137L101.178 53.3082L100.301 51.7834Z" fill="white"/>
        <path d="M185.702 112.125L189.336 114.221L186.105 116.063L182.49 113.974L185.702 112.125Z" fill="#C2C2C2"/>
        <path d="M172.617 108.323L216.23 133.608L216.315 100.719L172.701 75.434L172.617 108.323Z" fill="#656565"/>
        <path d="M172.701 75.4339L175.204 74L218.824 99.2851L216.315 100.719L172.701 75.4339Z" fill="#888888"/>
        <path d="M216.23 132.888L218.74 131.454L218.824 99.2851L216.315 100.719L216.23 132.888Z" fill="#424242"/>
        <path d="M172.538 107.72L216.217 132.888L187.685 149.336L144 124.161L172.538 107.72Z" fill="#888888"/>
        <path d="M144 124.161V127.042L187.685 152.217V149.336L144 124.161Z" fill="#656565"/>
        <path d="M216.217 132.888V135.775L187.685 152.217V149.336L216.217 132.888Z" fill="#424242"/>
        <path d="M174.456 79.035V104.521L214.462 127.594V102.082L174.456 79.035Z" fill="#292929"/>
        <path d="M211.153 132.888L172.617 110.698L156.144 120.236L194.466 142.439L211.153 132.888Z" fill="#888888"/>
        <path d="M167.455 128.457L180.268 135.84L173.221 139.863L160.558 132.441L167.455 128.457Z" fill="#D1D1D1"/>
        <path d="M205.563 131.175L209.197 133.271L205.966 135.114L202.351 133.024L205.563 131.175Z" fill="#C2C2C2"/>
        <path d="M201.337 128.755L204.971 130.851L201.74 132.694L198.126 130.604L201.337 128.755Z" fill="#C2C2C2"/>
        <path d="M197.144 126.322L200.785 128.418L197.554 130.254L193.939 128.171L197.144 126.322Z" fill="#C2C2C2"/>
        <path d="M192.919 123.902L196.559 125.998L193.322 127.834L189.714 125.751L192.919 123.902Z" fill="#C2C2C2"/>
        <path d="M188.752 121.488L192.385 123.584L189.155 125.427L185.547 123.337L188.752 121.488Z" fill="#C2C2C2"/>
        <path d="M180.333 116.635L183.973 118.731L180.736 120.567L177.128 118.484L180.333 116.635Z" fill="#C2C2C2"/>
        <path d="M176.107 114.215L179.741 116.31L176.511 118.147L172.903 116.064L176.107 114.215Z" fill="#C2C2C2"/>
        <path d="M171.979 111.795L175.613 113.89L172.382 115.727L168.775 113.644L171.979 111.795Z" fill="#C2C2C2"/>
        <path d="M201.877 133.336L205.511 135.432L202.28 137.268L198.672 135.185L201.877 133.336Z" fill="#C2C2C2"/>
        <path d="M197.651 130.916L201.285 133.012L198.054 134.848L194.44 132.765L197.651 130.916Z" fill="#C2C2C2"/>
        <path d="M193.458 128.476L197.099 130.572L193.868 132.415L190.253 130.332L193.458 128.476Z" fill="#C2C2C2"/>
        <path d="M189.233 126.056L192.873 128.152L189.636 129.994L186.028 127.912L189.233 126.056Z" fill="#C2C2C2"/>
        <path d="M185.066 123.649L188.7 125.745L185.469 127.581L181.861 125.498L185.066 123.649Z" fill="#C2C2C2"/>
        <path d="M180.84 121.229L184.474 123.324L181.243 125.161L177.629 123.078L180.84 121.229Z" fill="#C2C2C2"/>
        <path d="M176.647 118.789L180.287 120.885L177.057 122.727L173.442 120.645L176.647 118.789Z" fill="#C2C2C2"/>
        <path d="M172.421 116.369L176.055 118.465L172.825 120.307L169.217 118.225L172.421 116.369Z" fill="#C2C2C2"/>
        <path d="M168.294 113.949L171.934 116.051L168.697 117.887L165.089 115.804L168.294 113.949Z" fill="#C2C2C2"/>
        <path d="M198.113 135.419L201.753 137.514L198.522 139.351L194.908 137.268L198.113 135.419Z" fill="#C2C2C2"/>
        <path d="M193.887 132.998L197.528 135.094L194.297 136.93L190.682 134.848L193.887 132.998Z" fill="#C2C2C2"/>
        <path d="M189.701 130.559L193.335 132.661L190.104 134.497L186.496 132.415L189.701 130.559Z" fill="#C2C2C2"/>
        <path d="M185.475 128.139L189.109 130.241L185.878 132.077L182.27 129.994L185.475 128.139Z" fill="#C2C2C2"/>
        <path d="M181.302 125.732L184.942 127.827L181.711 129.663L178.097 127.581L181.302 125.732Z" fill="#C2C2C2"/>
        <path d="M177.076 123.311L180.717 125.407L177.486 127.243L173.871 125.161L177.076 123.311Z" fill="#C2C2C2"/>
        <path d="M172.89 120.872L176.524 122.974L173.293 124.81L169.685 122.727L172.89 120.872Z" fill="#C2C2C2"/>
        <path d="M168.664 118.452L172.298 120.554L169.067 122.39L165.453 120.307L168.664 118.452Z" fill="#C2C2C2"/>
        <path d="M164.536 116.031L168.17 118.134L164.939 119.97L161.325 117.887L164.536 116.031Z" fill="#C2C2C2"/>
        <path d="M194.401 137.573L198.035 139.675L194.804 141.511L191.189 139.428L194.401 137.573Z" fill="#C2C2C2"/>
        <path d="M190.169 135.153L193.809 137.255L190.578 139.091L186.964 137.008L190.169 135.153Z" fill="#C2C2C2"/>
        <path d="M169.171 123.026L189.616 134.815L186.385 136.658L165.966 124.882L169.171 123.026Z" fill="#C2C2C2"/>
        <path d="M164.946 120.612L168.58 122.708L165.349 124.551L161.734 122.461L164.946 120.612Z" fill="#C2C2C2"/>
        <path d="M160.818 118.192L164.452 120.288L161.221 122.131L157.606 120.041L160.818 118.192Z" fill="#C2C2C2"/>
        <path opacity="0.1" d="M214.462 125.446L194.336 90.4869L210.594 99.856L214.462 106.571V125.446Z" fill="white"/>
        <path opacity="0.1" d="M174.456 86.3019V79.035L189.558 87.7358L211.53 125.9L190.162 113.579L174.456 86.3019Z" fill="white"/>
        <path opacity="0.1" d="M175.632 94.8076V85.2762L186.235 103.69L178.024 98.9537L175.632 94.8076Z" fill="white"/>
    </g>
    <defs>
        <clipPath id="clip0">
            <rect width="220" height="155" fill="white"/>
        </clipPath>
    </defs>
</svg>
