<svg width="24" height="24" viewBox="0 0 24 24" fill="none" xmlns="http://www.w3.org/2000/svg">
    <defs>
        <mask id="hole">
            <rect width="24" height="24" fill="white"/>
            <ellipse cx="19.5634" cy="18.5634" rx="0.56338" ry="0.563381" fill="black"/>
        </mask>
    </defs>
    <path d="M2.12825 5.8C2.23012 4.8 3.14692 4 4.16558 4H19.2419C20.3624 4 21.1773 4.8 21.2792 5.9L21.9923 14.4C22.0941 15.6 21.1773 16.5 19.9549 16.5H3.04507C1.82266 16.5 0.905865 15.5 1.00773 14.3L2.12825 5.8Z" fill="#666666"/>
<path d="M1.12353 16C1.12353 16 1.61765 17.3231 3.59412 17.3231C5.57059 17.3231 11.5 17.3231 11.5 17.3231C11.5 17.3231 17.9235 17.3231 19.9 17.3231C21.8765 17.3231 21.8765 16 21.8765 16C21.8765 16 22.3706 18.6462 21.3824 19.5282C20.8882 19.9693 20.7894 20.0575 11.5 19.9693C2.21059 19.8811 2.11176 20.2339 1.61765 19.5282C0.629412 18.2051 1.12353 16 1.12353 16Z" fill="#666666" mask="url(#hole)"/>
</svg>
