<svg width="317" height="360" viewBox="0 0 317 360" fill="none" xmlns="http://www.w3.org/2000/svg">
<path d="M290.285 53.0124C251.449 -13.857 208.832 -8.30674 150.354 19.7248C110.766 38.7017 110.948 95.4723 83.6145 134.529C74.7471 147.2 24.6635 121.774 2.32407 180.175C-5.99391 201.921 8.34784 239.07 40.0247 269.667C54.9176 290.693 42.3998 312.201 59.8819 320.869C121.845 351.593 347.493 292.861 300.65 184.919C253.808 76.9757 329.122 119.882 290.285 53.0124Z" fill="#5E6574"/>
<rect x="35.0865" y="19.1504" width="167.33" height="44.1651" rx="20" fill="white"/>
<rect x="81.1179" y="26.562" width="108.236" height="6.84249" rx="3.42124" fill="#EFECEC"/>
<rect x="44.4172" y="26.6147" width="29.2361" height="29.2361" rx="10" fill="#EFECEC"/>
<rect x="81.1179" y="48.9556" width="80.2437" height="6.84249" rx="3.42124" fill="#EFECEC"/>
<rect x="81.1179" y="37.7588" width="56.606" height="6.84249" rx="3.42124" fill="#EFECEC"/>
<rect x="49.8776" y="37.9463" width="13.4838" height="6.84249" rx="3.42124" transform="rotate(45 49.8776 37.9463)" fill="#F4511E"/>
<rect width="29.7434" height="6.84249" rx="3.42124" transform="matrix(0.707107 -0.707107 -0.707107 -0.707107 55.0175 52.271)" fill="#F4511E"/>
<rect x="58.1023" y="69.5361" width="139.96" height="44.1651" rx="20" fill="white"/>
<rect x="104.134" y="77.0005" width="57.2281" height="6.84249" rx="3.42124" fill="#EFECEC"/>
<rect x="67.4329" y="77.0005" width="29.2361" height="29.2361" rx="10" fill="#EFECEC"/>
<rect x="104.134" y="99.394" width="51.0076" height="6.84249" rx="3.42124" fill="#EFECEC"/>
<rect x="104.134" y="88.1973" width="33.5904" height="6.84249" rx="3.42124" fill="#EFECEC"/>
<rect x="72.8934" y="88.332" width="13.4838" height="6.84249" rx="3.42124" transform="rotate(45 72.8934 88.332)" fill="#A464A6"/>
<rect width="29.7434" height="6.84249" rx="3.42124" transform="matrix(0.707107 -0.707107 -0.707107 -0.707107 78.0333 102.657)" fill="#A464A6"/>
<rect x="26.3781" y="119.869" width="177.905" height="44.1651" rx="20" fill="white"/>
<rect x="72.4094" y="127.333" width="82.7319" height="6.84249" rx="3.42124" fill="#EFECEC"/>
<rect x="35.7088" y="127.386" width="29.2361" height="29.2361" rx="10" fill="#EFECEC"/>
<rect x="72.4094" y="149.727" width="74.0233" height="6.84249" rx="3.42124" fill="#EFECEC"/>
<rect x="72.4094" y="138.53" width="48.5195" height="6.84249" rx="3.42124" fill="#EFECEC"/>
<rect x="41.1691" y="138.718" width="13.4838" height="6.84249" rx="3.42124" transform="rotate(45 41.1691 138.718)" fill="#F28649"/>
<rect width="29.7434" height="6.84249" rx="3.42124" transform="matrix(0.707107 -0.707107 -0.707107 -0.707107 46.309 153.042)" fill="#F28649"/>
<rect x="45.0393" y="170.308" width="176.039" height="44.1651" rx="20" fill="white"/>
<rect x="91.0706" y="177.772" width="57.2281" height="6.84249" rx="3.42124" fill="#EFECEC"/>
<rect x="54.3699" y="177.772" width="29.2361" height="29.2361" rx="10" fill="#EFECEC"/>
<rect x="91.0706" y="200.166" width="51.0076" height="6.84249" rx="3.42124" fill="#EFECEC"/>
<rect x="91.0706" y="188.969" width="33.5904" height="6.84249" rx="3.42124" fill="#EFECEC"/>
<rect x="59.8304" y="189.104" width="13.4838" height="6.84249" rx="3.42124" transform="rotate(45 59.8304 189.104)" fill="#201544"/>
<rect width="29.7434" height="6.84249" rx="3.42124" transform="matrix(0.707107 -0.707107 -0.707107 -0.707107 64.9703 203.428)" fill="#201544"/>
<path d="M70.7431 264.858C64.0204 258.22 64.1054 243.912 70.7432 237.189L152.653 155.378C159.291 148.656 165.569 152.051 172.292 158.689C178.247 164.568 167.111 197.796 159.876 209.98C158.378 212.504 156.141 214.425 153.795 216.19L96.7708 259.097C94.4252 260.862 92.2856 262.895 89.9252 264.64C83.7745 269.187 76.4012 270.445 70.7431 264.858Z" fill="#4992CF"/>
<path d="M215.218 113.883C209.269 108.142 190.015 116.295 190.015 116.295L189.078 144.559C189.078 144.559 202.341 159.458 216.231 147.831C218.784 145.732 217.701 116.295 215.218 113.883Z" fill="#E6927C"/>
<path d="M157.007 323.9C213.941 322.033 249.07 291.553 254.046 288.132C253.312 265.84 252.18 236.859 251.944 232.538C251.138 221.76 250.309 210.982 248.508 200.394C247.49 192.823 247.49 185.15 248.508 177.58C248.842 171.559 249.811 165.591 251.399 159.774C251.916 158.49 252.251 157.139 252.394 155.762C252.459 155.068 252.338 154.37 252.042 153.739C251.746 153.109 251.286 152.569 250.711 152.177C250.243 151.93 249.74 151.753 249.219 151.655C238.793 149.067 228.825 145.293 218.163 143.56C204.349 156.615 190.483 144.3 190.082 143.56C185.172 144.595 181.26 145.771 176.574 147.18L176.455 147.216C172.711 148.308 160.201 149.946 157.832 153.269C153.275 166.886 146.433 242.465 161.051 284.764C160.932 288.681 156.273 320.41 157.007 323.9Z" fill="#3F7DAF"/>
<path d="M239.19 99.0932C237.652 103.578 230.084 108.889 228.883 104.735C228.162 102.209 228.594 99.4237 230.108 94.9388C231.622 90.454 230.252 87.1257 234.433 88.5184C236.484 89.3094 238.135 90.8641 239.026 92.8444C239.917 94.8247 239.976 97.0704 239.19 99.0932V99.0932Z" fill="#F39A83"/>
<path d="M233.593 93.1738H233.393C232.033 94.4081 232.333 97.3579 232.073 99.157C231.973 99.8624 231.832 100.561 231.653 101.249C232.558 101.319 233.459 101.065 234.207 100.529C234.956 99.9931 235.509 99.2068 235.774 98.2993C236.116 97.316 236.08 96.232 235.674 95.2759C235.267 94.3197 234.521 93.5661 233.593 93.1738V93.1738Z" fill="#EE7379"/>
<path d="M169.408 99.1636C170.96 103.654 178.551 108.877 179.697 104.717C180.414 102.165 179.936 99.3763 178.384 94.9095C176.833 90.4427 178.169 87.1104 174.039 88.5284C172.003 89.3332 170.371 90.9047 169.503 92.8983C168.635 94.8919 168.601 97.145 169.408 99.1636V99.1636Z" fill="#F39A83"/>
<path d="M175.614 93.1738H175.843C177.597 94.4094 177.241 97.3623 177.597 99.1424C177.731 99.8494 177.918 100.549 178.157 101.237C177.007 101.339 175.85 101.106 174.888 100.578C173.926 100.05 173.22 99.26 172.893 98.3466C172.425 97.3632 172.449 96.2675 172.959 95.2984C173.468 94.3293 174.423 93.5656 175.614 93.1738V93.1738Z" fill="#EE7379"/>
<path d="M224.906 120.225C223.544 123.54 221.436 126.5 218.745 128.877C216.054 131.254 212.851 132.985 209.383 133.936C206.004 134.999 202.401 135.138 198.95 134.338C195.498 133.538 192.327 131.829 189.767 129.39C182.101 121.874 179.521 110.024 178.291 106.137C176.323 99.8727 174.914 93.4478 174.079 86.9369C173.653 83.6858 173.369 80.4111 173.227 77.1365C172.981 74.5103 173.714 71.8856 175.286 69.7626C180.941 60.6219 191.211 57.677 201.74 56.0986C207.442 55.4127 213.226 56.1578 218.564 58.266C222.303 59.656 225.497 60.6219 227.225 64.1321C235.79 81.9189 232.407 102.321 224.906 120.225Z" fill="#F39A83"/>
<path d="M189.354 96.256C189.349 96.7504 189.473 97.2354 189.71 97.6488C189.948 98.0623 190.287 98.3856 190.686 98.5774C191.085 98.7693 191.525 98.8209 191.95 98.7258C192.374 98.6307 192.764 98.3932 193.07 98.0435C193.376 97.6938 193.584 97.2479 193.667 96.7626C193.751 96.2773 193.705 95.7747 193.538 95.3189C193.37 94.8631 193.087 94.4748 192.725 94.2036C192.363 93.9324 191.939 93.7905 191.506 93.7961C190.935 93.7961 190.388 94.0552 189.984 94.5166C189.581 94.9779 189.354 95.6036 189.354 96.256V96.256Z" fill="#201544"/>
<path d="M210.85 96.2841C210.85 96.7762 210.996 97.2573 211.269 97.6664C211.543 98.0756 211.931 98.3945 212.386 98.5829C212.84 98.7712 213.341 98.8204 213.823 98.7244C214.306 98.6284 214.749 98.3915 215.097 98.0435C215.445 97.6955 215.682 97.2521 215.778 96.7695C215.874 96.2868 215.825 95.7865 215.637 95.3319C215.448 94.8772 215.13 94.4886 214.72 94.2152C214.311 93.9418 213.83 93.7959 213.338 93.7959C212.678 93.7959 212.045 94.0581 211.579 94.5247C211.112 94.9913 210.85 95.6242 210.85 96.2841V96.2841Z" fill="#201544"/>
<path d="M220.181 90.0638C217.329 87.4708 213.807 86.1566 210.228 86.3503" stroke="#201544" stroke-width="1.36" stroke-linecap="round" stroke-linejoin="round"/>
<path d="M184.377 90.0638C187.407 87.4708 191.149 86.1566 194.952 86.3503" stroke="#201544" stroke-width="1.36" stroke-linecap="round" stroke-linejoin="round"/>
<path d="M226.343 209.154C226.343 209.154 227.228 194.298 207.343 191.961C207.343 191.961 205.776 195.173 212.233 200.22C215.816 203.169 219.62 205.824 223.611 208.162C224.459 208.647 225.382 208.982 226.343 209.154V209.154Z" fill="#F39A83"/>
<rect x="185.869" y="192.263" width="22.4592" height="39.3036" rx="3" transform="rotate(-25.0637 185.869 192.263)" fill="#2A2A29"/>
<path d="M202.809 96.9062C203.509 99.2021 204.368 101.453 205.381 103.644C205.606 104.221 205.794 104.811 205.944 105.409C206.217 106.151 206.217 106.958 205.944 107.7C205.612 108.349 205.073 108.885 204.401 109.236C203.83 109.579 203.201 109.827 202.54 109.969C203.01 109.558 203.436 109.105 203.813 108.617C204.182 108.246 204.451 107.798 204.597 107.311C204.597 106.834 204.48 106.363 204.254 105.936C204.058 105.386 203.862 104.836 203.642 104.286C203.196 103.136 202.844 101.956 202.589 100.756C202.3 99.4771 202.376 98.1493 202.809 96.9062V96.9062Z" fill="#DE7778"/>
<path d="M216.321 111.271C212.253 110.983 208.542 108.871 204.427 108.583C197.695 108.271 189.322 114.006 183.019 109.279C178.927 106.159 178.261 99.9912 178.119 95.2155C178.039 90.2096 178.461 85.2084 179.379 80.2883C179.367 80.233 179.367 80.1756 179.379 80.1203C179.023 79.0884 178.69 78.0564 178.333 77.0005C175.193 89.6238 177.048 104.047 180.093 116.55C181.52 122.43 184.065 129.102 189.846 131.838C195.801 134.284 202.348 134.87 208.638 133.517C214.122 132.416 219.034 129.368 222.482 124.926C227.239 118.758 228.357 110.527 230.26 103.159C230.992 100.879 231.541 98.5439 231.901 96.1754C232.02 94.6395 231.901 93.2476 232.068 91.7117C231.538 93.0759 230.852 94.3728 230.022 95.5755C229.419 96.9168 228.98 98.327 228.714 99.7752C227.239 105.487 222.862 111.751 216.321 111.271Z" fill="#201544"/>
<path d="M208.886 117.811C207.274 119.045 205.323 119.745 203.304 119.813C201.315 119.956 199.246 119.593 196.983 119.759C198.872 121.046 201.117 121.698 203.399 121.623C204.591 121.55 205.747 121.184 206.768 120.556C207.798 119.951 208.558 118.966 208.886 117.811Z" fill="white"/>
<path d="M232.494 68.9099C227.656 56.1475 212.32 44.1766 198.846 47.7991C196.427 48.4228 194.322 49.6703 191.952 50.198C189.371 50.822 186.656 50.6032 184.211 49.5743C182.539 48.6051 180.703 47.9466 178.792 47.6311C177.22 47.6854 175.715 48.2789 174.535 49.3104C165.488 56.5073 168.681 73.3 171.366 82.8958C172.198 85.8541 173.224 88.755 174.438 91.5801C175.14 93.1634 177.268 96.1141 176.857 97.9613C177.163 95.9695 177.26 93.9516 177.147 91.9399C177.317 92.1318 177.462 92.3237 177.655 92.5157C176.736 91.5561 178.865 85.5107 179.276 84.3592C180.369 81.732 181.596 79.1617 182.953 76.6585C186.896 67.9983 198.967 67.6864 206.659 68.2142C211.322 68.3463 215.894 69.5189 220.036 71.6447C229.712 77.1623 228.938 90.0687 229.712 100.432C230.68 101.224 231.768 99.5686 232.01 98.2972C233.97 88.5334 236.195 78.3858 232.494 68.9099Z" fill="#201544"/>
<path d="M250.776 225.783C250.039 223.172 249.26 220.584 248.408 218.011C243.366 202.835 238.808 187.079 239.305 170.905C239.453 165.515 239.773 157.483 244.746 154.267C256.36 146.796 266.831 165.195 269.749 174.018C273.737 185.699 278.276 197.199 282.056 208.945C283.95 214.802 285.668 220.732 286.967 226.74C287.719 230.136 288.822 231.8 288.746 241.223C288.67 250.645 284.157 273.155 281.677 274.066C276.436 276.341 265.061 252.381 259.638 248.882C256.939 247.179 255.44 242.436 254.534 239.484C253.184 234.954 252.085 230.336 250.776 225.783Z" fill="#4992CF"/>
<path d="M214.144 218.486C218.413 216.119 215.382 204.842 219.953 203.729C228.275 215.516 238.96 223.906 249.012 234.049C259.063 244.192 282.622 259.407 283.796 262.753C285.733 268.276 282.668 274.743 280.359 277.341C270.407 284.909 260.343 276.529 257.334 273.552C252.392 268.486 220.717 232.774 214.144 218.486Z" fill="#F39A83"/>
<path d="M220.622 220.333C213.844 220.11 207.2 218.303 201.237 215.062C193.061 209.931 192.476 203.836 192.718 200.308C192.899 197.897 193.658 190.535 196.567 192.815C199.475 195.096 214.875 199.539 218.577 201.238C222.279 202.937 226.078 209.139 225.956 210.285C225.835 211.432 220.622 220.333 220.622 220.333Z" fill="#F39A83"/>
<path d="M192.647 203.443C193.941 204.029 202.685 210.696 205.527 210.9C201.312 211.07 194.42 205.924 193.236 205.333L192.647 203.443Z" fill="#BA5E44"/>
<path d="M192.88 197.053C194.174 197.639 203.577 204.279 206.419 204.484C202.204 204.654 193.445 199.583 193.139 198.957C192.822 198.65 192.88 197.053 192.88 197.053Z" fill="#BA5E44"/>
<path d="M144 326C149.118 324.886 180.229 326.656 161.257 280.624C162.346 274.121 155.222 278.84 152.961 272.716C152.073 270.294 150.413 267.785 147.861 267.398C146.458 267.185 145.051 267.666 143.72 268.162C139.36 269.789 135.096 271.664 130.949 273.778C128.73 274.909 126.535 276.115 124.141 276.815C122.964 277.14 121.47 288.576 98.846 288.443C92.1539 288.403 79.3359 276.87 70.854 277.868C60.2792 279.112 53.3569 285.124 50.2924 295.157C47.7576 303.457 46.5261 308.236 50.2924 318.5C65.5 337 88.8329 337.617 127.771 328.254C135.179 326.472 142.78 326.265 144 326Z" fill="#FCA418"/>
<path d="M152.486 229.401C150.086 230.466 140.597 239.49 140.214 241.374C141.71 240.473 165.948 249.379 165.486 248.081C162.9 240.806 162.219 233.287 152.486 229.401Z" fill="#F9AB30"/>
<path d="M152.481 232.494C150.492 233.386 142.627 240.95 142.309 242.529C143.549 241.774 163.639 249.238 163.256 248.15C161.113 242.053 160.549 235.751 152.481 232.494Z" fill="#FFD797"/>
<path d="M106.821 257.069C108.79 255.333 123.672 249.969 125.544 250.407C124.1 251.391 119.357 277.641 118.371 276.679C112.839 271.294 109.081 265.573 106.821 257.069Z" fill="#F9AB30"/>
<path d="M110.418 258.604C111.598 257.564 120.515 254.35 121.637 254.612C120.772 255.202 117.93 270.931 117.339 270.355C114.024 267.128 111.772 263.699 110.418 258.604Z" fill="#FFD797"/>
<path d="M124.927 292.063C127.664 294.551 131.458 296.107 134.569 297.04C139.679 297.833 156.962 298.595 164.116 288.642C163.805 286.776 163.494 285.532 161.939 282.422C148.711 275.32 117.999 267.564 118.204 266.128C118.206 266.119 118.209 266.111 118.211 266.102C118.208 266.11 118.205 266.119 118.204 266.128C115.608 275.272 118.091 285.849 124.927 292.063Z" fill="#F28649"/>
<path d="M137.234 289.398C133.69 288.931 130.258 287.829 127.103 286.146C118.892 281.686 113.865 271.669 116.793 262.523C118.894 255.988 123.466 250.417 128.961 246.296C133.595 242.818 139.006 240.258 144.753 239.539C155.33 238.216 166.704 244.085 170.908 253.891C173.93 260.933 172.287 267.843 169.08 274.406C163.475 285.874 149.607 291.109 137.234 289.398Z" fill="#FABB57"/>
<path d="M159.56 256.815C159.197 256.547 158.814 256.356 158.424 256.247C158.016 256.106 157.604 256.035 157.198 256.036C156.43 256.026 155.712 256.337 155.136 256.93C154.113 258.021 153.709 260.18 154.443 262.016C154.688 262.629 155.322 262.216 155.075 261.6C154.492 260.143 154.878 258.461 155.664 257.593C156.142 257.066 156.795 256.834 157.434 256.786C157.763 256.764 158.098 256.785 158.434 256.85C158.793 256.918 159.143 257.074 159.5 257.155C159.529 257.158 159.556 257.148 159.578 257.127C159.6 257.105 159.615 257.074 159.622 257.037C159.63 257.001 159.628 256.96 159.617 256.921C159.607 256.882 159.588 256.847 159.564 256.82L159.56 256.815Z" fill="#B45622"/>
<path d="M135.035 273.806C134.946 273.285 134.947 272.772 135.037 272.286C135.103 271.765 135.243 271.268 135.454 270.808C135.839 269.933 136.532 269.244 137.441 268.831C139.094 268.114 141.529 268.534 143.042 270.113C143.546 270.641 142.793 271.192 142.286 270.662C141.085 269.408 139.153 269.161 137.852 269.7C137.061 270.028 136.484 270.675 136.105 271.381C135.911 271.745 135.76 272.134 135.653 272.541C135.538 272.977 135.517 273.438 135.417 273.876C135.405 273.909 135.38 273.936 135.347 273.953C135.314 273.969 135.274 273.974 135.232 273.967C135.19 273.96 135.149 273.941 135.115 273.914C135.08 273.886 135.053 273.85 135.039 273.812L135.035 273.806Z" fill="#B45622"/>
<path d="M126.464 287.701C129.618 289.384 133.05 290.486 136.595 290.953C148.967 292.664 162.599 287.212 168.204 275.744C154.593 270.549 120.618 296.271 116.885 262.37C113.153 270.767 118.252 283.241 126.464 287.701Z" fill="#F9AB30"/>
<path d="M165.357 269.231C167.686 271.894 166.72 275.491 163.331 277.346C159.942 279.201 155.252 278.536 152.875 275.809C152.151 274.964 151.629 274.046 151.379 273.178C151.13 272.309 151.164 271.531 151.478 270.948C152.203 269.911 154.596 270.015 156.201 269.167C157.806 268.32 158.583 266.525 160.087 266.412C160.885 266.361 161.833 266.61 162.785 267.12C163.738 267.629 164.641 268.371 165.357 269.231Z" fill="#F5F0F8"/>
<path d="M141.696 283.12C142.823 286.487 147.167 287.431 151.393 285.384C155.619 283.336 158.157 278.893 156.999 275.453C156.632 274.397 156.051 273.482 155.333 272.831C154.615 272.18 153.796 271.823 152.983 271.807C151.423 271.926 149.887 274.076 147.918 275.061C145.949 276.046 143.578 275.834 142.43 277.096C141.83 277.77 141.434 278.726 141.301 279.814C141.169 280.903 141.307 282.064 141.696 283.12Z" fill="#F5F0F8"/>
<path d="M148.299 275.744C144.789 277.365 144.921 264.315 146.432 263.614C149.039 261.731 157.095 266.019 157.94 268.901C158.302 270.134 150.305 274.817 148.299 275.744Z" fill="#FFD797"/>
<path d="M165.561 269.212C168.515 272.566 166.182 279.408 157.014 278.164C156.918 280.961 154.946 283.742 151.597 285.365C146.121 287.495 142.389 286.251 141.456 282.519C146.743 285.365 155.256 284.695 156.696 275.987C161.477 278.475 166.649 273.188 165.561 269.212Z" fill="#DCDBDB"/>
<path d="M158.251 268.591C159.42 270.233 157.007 276.055 156.385 276.677C155.763 276.988 148.255 278.218 147.113 276.601C145.971 274.984 147.505 271.84 150.632 269.603C153.759 267.366 157.11 266.974 158.251 268.591Z" fill="#EE7379"/>
<path d="M155.899 270.403C156.14 270.625 155.735 271.279 155.091 271.762C154.448 272.245 153.761 272.345 153.542 272.045C153.323 271.745 153.679 271.144 154.35 270.686C155.02 270.228 155.68 270.103 155.899 270.403Z" fill="#F5F0F8"/>
<path d="M163.189 270.642C165.741 265.867 169.311 261.677 173.677 258.335C178.053 254.988 188.138 250.452 188.626 251.277C188.887 251.718 178.244 255.248 173.917 258.598C169.541 261.889 165.898 265.979 163.189 270.642Z" fill="white" fill-opacity="0.86"/>
<path d="M162.942 271.627C166.29 267.371 170.538 263.871 175.421 261.344C180.315 258.813 191.038 256.111 191.374 257.009C191.553 257.489 180.458 259.103 175.612 261.644C170.727 264.119 166.425 267.509 162.942 271.627Z" fill="white" fill-opacity="0.86"/>
<path d="M161.709 273.907C165.526 270.067 170.149 267.08 175.292 265.134C180.445 263.185 191.409 261.74 191.638 262.67C191.761 263.167 180.553 263.49 175.446 265.454C170.309 267.349 165.644 270.219 161.709 273.907Z" fill="white" fill-opacity="0.86"/>
<rect x="158.873" y="306.73" width="17.8688" height="13.685" rx="6.84249" transform="rotate(-6.62332 158.873 306.73)" fill="#FABB57"/>
<rect x="147.676" y="314.194" width="17.8688" height="13.685" rx="6.84249" transform="rotate(-6.62332 147.676 314.194)" fill="#FABB57"/>
<path d="M153.067 319.931C152.838 317.265 154.814 314.918 157.48 314.689L160.682 314.414C163.347 314.185 165.694 316.161 165.923 318.827V318.827C166.152 321.492 164.177 323.839 161.511 324.068L158.309 324.343C155.643 324.572 153.296 322.597 153.067 319.931V319.931Z" fill="#FFD797"/>
<path d="M89.7584 315.739C86.8721 324.182 86.6482 321.603 80.8969 330C82.5 337 55.6798 331.086 49.7335 319.736C46.0113 312.632 47.1807 302.359 48.5 298.5C51.3864 290.057 63.9196 289.831 74.9722 293.609C86.0248 297.388 92.6448 307.295 89.7584 315.739Z" fill="#FABB57"/>
<path d="M68.5819 330.5C68.353 327.834 78.9946 322.952 81.6604 322.723L92.1707 321.82C94.8365 321.591 97.1833 323.567 97.4123 326.232C97.6413 328.898 96 330 93 331.474V331.474C90.0086 332.821 86.8798 333.933 83.6005 334.024C76.7679 334.213 68.764 332.619 68.5819 330.5Z" fill="#FABB57"/>
<path d="M166.044 312.147C165.863 310.037 167.426 308.179 169.537 307.998L173.057 307.696C175.167 307.514 177.025 309.078 177.206 311.188V311.188C177.388 313.299 175.824 315.156 173.713 315.338L170.193 315.64C168.083 315.821 166.225 314.258 166.044 312.147V312.147Z" fill="#FFD797"/>
<path d="M157.629 321.464C158.873 325.818 155.763 326.44 155.452 327.062C155.659 327.27 156.509 327.435 158.251 326.44C159.993 325.445 158.562 322.708 157.629 321.464Z" fill="#F28649"/>
<path d="M171.625 313.377C172.869 317.732 169.759 318.354 169.448 318.976C169.655 319.183 170.505 319.349 172.247 318.354C173.989 317.359 172.558 314.622 171.625 313.377Z" fill="#F28649"/>
<path d="M161.53 320.11C164.24 323.739 161.554 325.425 161.484 326.117C161.751 326.237 162.605 326.09 163.879 324.541C165.154 322.992 162.845 320.942 161.53 320.11Z" fill="#F28649"/>
<path d="M173.983 311.87C176.343 315.631 174.529 316.986 174.547 317.644C174.756 317.787 175.371 317.73 176.157 316.367C176.943 315.004 175.035 312.801 173.983 311.87Z" fill="#F28649"/>
<path d="M23.0235 321.175C28.0203 300.682 43.3942 289.856 54.9248 291.016C52.5 292.5 52.7323 292.213 49 297.5C44.0803 296.263 34.5192 309.826 33.7853 321.949C32.633 340.98 62.2274 347.082 76.0641 345.922C83.7511 345.277 82.2137 356.935 74.5267 358.295C33.0167 365.642 20.1791 332.841 23.0235 321.175Z" fill="#F9A830"/>
<path d="M119.763 321.657C121.075 328.208 123.902 334.4 128.014 339.728C134.267 346.911 140.448 346.613 143.829 345.848C146.167 345.328 153.278 343.493 150.557 341.001C147.835 338.509 140.98 324.083 138.751 320.784C136.522 317.484 129.753 314.569 128.687 314.929C127.62 315.289 119.763 321.657 119.763 321.657Z" fill="#F39A83"/>
<path d="M143.12 346.498C142.118 345.533 132.83 339.804 131.637 337.367C132.966 341.119 140.186 345.667 141.153 346.534L143.12 346.498Z" fill="#BA5E44"/>
<path d="M148.983 344.421C147.982 343.456 138.486 337.141 137.293 334.704C138.622 338.456 146.43 344.665 147.121 344.751C147.518 344.94 148.983 344.421 148.983 344.421Z" fill="#BA5E44"/>
<path d="M129.868 317.055C129.868 317.055 144.919 313.397 149.858 333.152C149.858 333.152 146.791 335.349 140.837 329.733C137.366 326.643 134.166 323.271 131.266 319.647C130.639 318.886 130.165 318.008 129.868 317.055V317.055Z" fill="#F39A83"/>
<path d="M132.787 316.723C128.433 316.722 125.087 317.542 120.658 321.699C76.5673 281.463 69.1845 263.481 68.9495 262.595C68.855 261.947 68.9162 261.288 69.1278 260.671C70.9789 253.913 96.8249 248.614 99.7217 260.586C102.618 272.558 132.787 316.723 132.787 316.723Z" fill="#F39A83"/>
<path d="M146.691 279.924C140.71 279.528 134.682 280.428 128.984 282.568C123.275 284.715 113.105 291.519 113.595 292.458C113.856 292.959 123.408 285.047 129.09 282.947C134.746 280.767 140.722 279.74 146.691 279.924Z" fill="white" fill-opacity="0.86"/>
<path d="M147.76 280.266C141.801 280.919 136.024 282.857 130.788 285.958C125.544 289.068 116.723 297.54 117.37 298.379C117.715 298.827 125.733 289.371 130.959 286.312C136.146 283.18 141.851 281.127 147.76 280.266Z" fill="white" fill-opacity="0.86"/>
<path d="M150.626 280.443C144.782 281.777 139.267 284.367 134.426 288.05C129.576 291.742 121.794 301.174 122.534 301.932C122.929 302.338 129.799 292.022 134.636 288.382C139.426 284.674 144.855 281.978 150.626 280.443Z" fill="white" fill-opacity="0.86"/>
</svg>
