<svg width="295" height="328" viewBox="0 0 295 328" fill="none" xmlns="http://www.w3.org/2000/svg">
<path d="M27.716 40.4337C67.2198 -23.0172 104.352 3.53687 152.898 18.1829C198.341 31.8928 218.949 20.4541 233.335 40.4337C243.039 53.911 242.458 70.2395 233.335 106.596C224.372 142.313 257.897 163.915 272.283 181.602C286.67 199.289 319.653 247.764 263.16 266.761C218.598 284.12 201.772 248.023 145.084 290.671C88.396 333.319 1.98355 338.064 43.327 232.089C84.6703 126.113 -11.7878 103.885 27.716 40.4337Z" fill="#5E6574"/>
<path d="M186.337 230.874C192.027 235.695 201.079 237.765 206.568 232.716C210.618 228.991 211.369 222.968 209.431 217.369C208.868 215.742 202.142 207.157 200.832 205.686L143.749 140.235C137.873 133.636 109.501 122.25 102.811 128.103C96.7928 133.368 123.136 163.254 129.286 174.521C130.083 175.982 135.8 181.171 139.739 184.57C142.008 186.527 144.255 188.514 146.362 190.644L184.778 229.47C185.006 229.648 185.498 230.163 186.337 230.874Z" fill="#BB7CBD"/>
<path d="M142.005 292.94C92.6134 326.958 51.0719 322.379 40.9318 306.351C41.6277 285.23 66.9068 225.726 67.1313 221.632C67.8945 211.421 55.1692 189.612 56.8752 179.581C57.8393 172.408 57.8393 165.138 56.8752 157.965C56.5588 152.261 55.6408 146.606 54.1365 141.096C53.6468 139.879 53.3294 138.6 53.1937 137.295C53.1317 136.637 53.2469 135.976 53.5273 135.378C53.8076 134.781 54.2429 134.27 54.7875 133.898C55.2317 133.663 55.7084 133.497 56.2018 133.403C66.0791 130.952 76.3283 124.491 86.4301 122.849C99.5183 135.218 106.658 125.513 107.037 124.811C111.729 125.801 120.651 127.848 125.141 129.197C128.688 130.232 132.891 132.229 135.136 135.378C139.453 148.279 152.145 157.965 127.286 224.903C127.398 228.614 142.701 289.633 142.005 292.94Z" fill="#98569A"/>
<path d="M64.209 150.806C66.4934 165.966 55.4192 212.022 52.3804 226.866C51.8597 229.745 63.5592 236.082 61.2121 237.987C56.5031 241.888 59.0281 263.744 53.8418 262.192C51.4063 261.614 26.7741 244.554 25.6438 235.698C24.5135 226.842 25.3179 211.967 25.6439 208.688C26.1907 202.89 27.1409 197.118 28.2648 191.396C30.5009 179.921 33.4789 168.592 35.9182 157.155C37.6717 148.527 45.4551 130.041 57.2202 135.765C62.2603 138.231 63.4643 145.752 64.209 150.806Z" fill="#BB7CBD"/>
<path d="M162.952 245.711C162.191 240.69 160.595 235.836 158.232 231.355C157.504 230.062 156.506 228.719 155.049 228.527C152.384 228.173 151.057 231.659 150.728 234.366C148.497 252.934 150.592 271.772 156.845 289.373C157.906 292.694 159.874 295.643 162.523 297.879C162.593 289.676 163.96 281.331 164.359 273.088C164.925 263.938 164.452 254.752 162.952 245.711V245.711Z" fill="#ADC174"/>
<path d="M131.799 271.148C128.45 268.977 124.765 267.385 120.898 266.437C119.758 266.191 118.448 266.077 117.575 266.834C115.978 268.216 117.335 270.813 118.755 272.419C128.508 283.412 140.675 292.003 154.283 297.505C156.789 298.613 159.549 298.994 162.244 298.602C157.458 294.284 153.265 289.129 148.627 284.596C143.543 279.492 137.896 274.98 131.799 271.148V271.148Z" fill="#ADC174"/>
<path d="M161.877 297.491C160.926 292.997 160.085 288.487 159.354 283.96C158.616 279.422 157.967 274.905 157.479 270.318C156.99 265.73 156.561 261.193 156.272 256.615C155.982 252.038 155.813 247.44 155.733 242.842C155.626 247.443 155.67 252.058 155.863 256.686C156.062 261.273 156.441 265.861 156.94 270.438C157.439 275.016 158.117 279.553 158.935 284.08C159.753 288.608 160.74 293.044 161.877 297.491Z" fill="#4D7757"/>
<path d="M168.834 302.285C164.854 299.992 160.935 297.606 157.077 295.128C153.207 292.647 149.411 290.113 145.67 287.413C141.929 284.713 138.265 282.003 134.665 279.161C131.064 276.32 127.529 273.376 124.053 270.365C127.407 273.516 130.871 276.566 134.444 279.513C137.992 282.428 141.66 285.209 145.4 287.895C149.141 290.58 152.971 293.106 156.887 295.52C160.803 297.934 164.765 300.162 168.834 302.285Z" fill="#4D7757"/>
<path d="M159.164 283.538C159.689 282.372 160.154 281.185 160.569 279.977C160.984 278.77 161.38 277.552 161.736 276.324C162.092 275.096 162.419 273.847 162.725 272.598C163.032 271.349 163.25 270.09 163.428 268.81C163.032 270.028 162.686 271.256 162.33 272.484L161.261 276.159L160.183 279.823C159.837 281.071 159.481 282.3 159.164 283.538Z" fill="#4D7757"/>
<path d="M157.614 271.136C158.059 270.226 158.451 269.294 158.788 268.343C159.149 267.352 159.437 266.431 159.705 265.451C159.973 264.47 160.179 263.47 160.344 262.48C160.528 261.497 160.652 260.505 160.714 259.508C160.426 260.499 160.189 261.489 159.931 262.42L159.159 265.322L158.386 268.224C158.118 269.185 157.851 270.155 157.614 271.136Z" fill="#4D7757"/>
<path d="M156.839 256.408C157.172 255.727 157.444 255.037 157.716 254.336C157.988 253.635 158.22 252.935 158.452 252.224C158.684 251.514 158.896 250.803 159.078 250.073C159.272 249.35 159.431 248.619 159.552 247.881C159.219 248.561 158.947 249.252 158.674 249.953C158.402 250.653 158.17 251.354 157.938 252.064C157.706 252.775 157.494 253.485 157.313 254.206C157.131 254.926 156.95 255.657 156.839 256.408Z" fill="#4D7757"/>
<path d="M156.063 262.997C155.74 262.109 155.377 261.241 154.993 260.384C154.609 259.527 154.206 258.679 153.792 257.832C153.378 256.985 152.933 256.157 152.469 255.34C152.004 254.523 151.54 253.706 151.025 252.919C151.338 253.807 151.712 254.675 152.095 255.532C152.479 256.389 152.883 257.237 153.297 258.084C153.711 258.931 154.155 259.748 154.62 260.566C155.084 261.383 155.538 262.21 156.063 262.997Z" fill="#4D7757"/>
<path d="M159.78 290.902C159.886 290.902 159.949 290.779 159.938 290.687C159.936 290.585 159.907 290.486 159.854 290.399L159.516 289.936L158.82 289.073C158.356 288.487 157.86 287.942 157.354 287.387C156.847 286.832 156.299 286.359 155.793 285.804C155.286 285.249 154.738 284.776 154.126 284.313C154.537 284.93 155.001 285.516 155.465 286.092C155.93 286.667 156.436 287.212 156.932 287.767C157.428 288.322 157.987 288.847 158.493 289.36L159.305 290.121L159.727 290.481C159.843 290.584 160.002 290.82 159.78 290.902Z" fill="#4D7757"/>
<path d="M194.189 260.371C196.246 255.714 197.502 250.741 197.903 245.663C197.984 244.177 197.853 242.489 196.725 241.538C194.641 239.79 191.642 241.993 189.92 244.096C178.051 258.531 169.715 275.557 165.58 293.81C164.699 297.189 164.787 300.749 165.831 304.08C170.311 297.206 175.898 290.939 180.709 284.186C186.094 276.791 190.617 268.801 194.189 260.371V260.371Z" fill="#ADC174"/>
<path d="M165.753 302.917C167.376 298.591 169.104 294.312 170.937 290.08C172.763 285.845 174.68 281.64 176.739 277.516C178.799 273.392 180.919 269.288 183.161 265.255C185.403 261.222 187.736 257.239 190.17 253.307C187.573 257.128 185.112 261.04 182.785 265.043C180.462 269.086 178.301 273.129 176.242 277.273C174.183 281.418 172.296 285.633 170.541 289.919C168.786 294.204 167.183 298.531 165.753 302.917Z" fill="#4D7757"/>
<path d="M176.217 278.5C177.082 277.97 177.915 277.392 178.713 276.769C179.528 276.16 180.292 275.501 181.037 274.803C181.781 274.106 182.506 273.417 183.19 272.67C183.878 271.934 184.526 271.163 185.132 270.36C184.367 271.019 183.633 271.707 182.888 272.385L180.665 274.41L178.441 276.435C177.696 277.133 176.952 277.802 176.217 278.5Z" fill="#4D7757"/>
<path d="M183.582 265.322C184.243 264.943 184.853 264.535 185.463 264.117C186.073 263.7 186.663 263.254 187.253 262.808C187.843 262.362 188.402 261.86 188.951 261.404C189.5 260.949 190.05 260.456 190.558 259.896C189.907 260.266 189.287 260.674 188.677 261.101C188.067 261.528 187.477 261.964 186.897 262.41C186.317 262.856 185.738 263.358 185.188 263.814C184.639 264.269 184.09 264.791 183.582 265.322Z" fill="#4D7757"/>
<path d="M183.139 250.854C184.015 245.86 184.032 240.755 183.189 235.755C182.906 234.295 182.379 232.735 181.043 232.051C178.592 230.863 176.182 233.722 175.018 236.178C166.927 252.989 162.911 271.45 163.292 290.082C163.237 293.57 164.17 297.002 165.985 299.987C168.679 292.256 172.658 284.817 175.686 277.157C179.175 268.702 181.676 259.877 183.139 250.854V250.854Z" fill="#DCA365"/>
<path d="M165.365 300.204C165.891 295.638 166.538 291.131 167.276 286.534C168.014 281.937 168.853 277.461 169.844 272.985C170.835 268.509 171.866 264.023 173.09 259.577C174.313 255.131 175.618 250.716 176.993 246.331C175.395 250.659 173.959 255.027 172.685 259.436C171.412 263.862 170.299 268.338 169.308 272.844C168.318 277.35 167.519 281.917 166.862 286.444C166.204 290.97 165.699 295.617 165.365 300.204Z" fill="#997347"/>
<path d="M170.017 274.236C170.726 273.481 171.394 272.685 172.016 271.852C172.646 271.027 173.226 270.17 173.786 269.293C174.346 268.416 174.856 267.518 175.306 266.61C175.793 265.691 176.227 264.743 176.605 263.771C176.036 264.638 175.496 265.516 174.946 266.393L173.306 269.014L171.656 271.625C171.106 272.471 170.547 273.338 170.017 274.236Z" fill="#997347"/>
<path d="M173.505 259.509C174.049 258.966 174.532 258.384 175.036 257.801C175.539 257.218 175.981 256.604 176.444 255.99C176.906 255.377 177.338 254.753 177.749 254.108C178.16 253.464 178.571 252.83 178.931 252.145C178.386 252.687 177.903 253.27 177.399 253.863C176.896 254.456 176.454 255.049 175.992 255.663C175.529 256.277 175.097 256.9 174.686 257.545C174.275 258.189 173.864 258.864 173.505 259.509Z" fill="#997347"/>
<path d="M170.792 265.71C170.792 264.754 170.691 263.809 170.611 262.864C170.531 261.919 170.411 260.984 170.281 260.049C170.151 259.114 170.011 258.179 169.841 257.244C169.671 256.309 169.481 255.384 169.241 254.47C169.241 255.415 169.341 256.36 169.421 257.305C169.501 258.25 169.621 259.185 169.751 260.12C169.881 261.055 170.021 262 170.201 262.925C170.381 263.85 170.551 264.754 170.792 265.71Z" fill="#997347"/>
<path d="M168.466 280.438C168.178 279.77 167.859 279.113 167.551 278.466L166.595 276.526L165.618 274.606C165.289 273.959 164.96 273.312 164.59 272.686C164.753 273.385 164.966 274.071 165.227 274.739C165.478 275.44 165.77 276.126 166.101 276.793C166.412 277.439 166.755 278.07 167.129 278.682C167.533 279.298 167.979 279.885 168.466 280.438V280.438Z" fill="#997347"/>
<path d="M165.499 293.215C165.607 293.267 165.715 293.152 165.737 293.058C165.758 292.958 165.758 292.855 165.737 292.756L165.564 292.203L165.176 291.16C164.928 290.461 164.626 289.772 164.324 289.073C164.022 288.374 163.699 287.717 163.343 287.05C162.987 286.382 162.642 285.725 162.265 285.088C162.459 285.819 162.718 286.528 162.976 287.175C163.235 287.821 163.537 288.562 163.828 289.261C164.119 289.96 164.453 290.617 164.809 291.285L165.348 292.328L165.629 292.808C165.693 292.922 165.693 293.194 165.499 293.215Z" fill="#997347"/>
<path d="M144.178 263.538C141.522 259.226 138.153 255.393 134.214 252.201C133.033 251.305 131.579 250.45 130.176 250.843C127.551 251.567 127.652 255.289 128.399 257.885C133.509 275.802 142.753 292.28 155.394 306.001C157.673 308.634 160.651 310.572 163.985 311.595C160.876 304.03 158.938 295.841 156.101 288.115C153.081 279.496 149.08 271.25 144.178 263.538V263.538Z" fill="#DCA365"/>
<path d="M159.939 301.754C157.295 297.979 154.741 294.142 152.279 290.246C149.824 286.346 147.439 282.405 145.177 278.384C142.914 274.363 140.753 270.322 138.694 266.191C136.634 262.059 134.635 257.907 132.809 253.694C134.493 257.987 136.329 262.213 138.318 266.372C140.317 270.534 142.488 274.625 144.72 278.657C146.952 282.688 149.388 286.618 151.924 290.467C154.461 294.317 157.129 298.096 159.939 301.754Z" fill="#997347"/>
<path d="M140.948 272.298C140.305 271.602 139.632 270.946 138.939 270.281C138.246 269.615 137.563 269.01 136.86 268.394C136.157 267.779 135.424 267.184 134.691 266.609C133.958 266.034 133.204 265.459 132.421 264.934C133.054 265.63 133.737 266.286 134.43 266.952C135.123 267.617 135.816 268.213 136.519 268.828C137.222 269.443 137.945 270.049 138.688 270.624C139.431 271.199 140.164 271.774 140.948 272.298Z" fill="#997347"/>
<path d="M148.7 285.089C148.07 284.786 147.431 284.531 146.791 284.258L144.883 283.475L142.916 282.712C142.276 282.468 141.627 282.213 140.948 281.988C141.518 282.396 142.116 282.762 142.738 283.084C143.352 283.411 143.982 283.705 144.627 283.964C145.269 284.227 145.926 284.452 146.595 284.639C147.283 284.846 147.987 284.997 148.7 285.089Z" fill="#997347"/>
<path d="M150.556 258.674C148.795 254.547 146.272 250.794 143.12 247.613C142.666 247.079 142.101 246.653 141.464 246.364C140.827 246.075 140.135 245.932 139.437 245.944C136.75 246.257 136.116 249.516 136.337 251.874C137.793 268.159 143.576 283.751 153.082 297.018C154.865 299.66 157.386 301.712 160.327 302.917C158.797 295.955 158.505 288.588 157.308 281.514C156.069 273.635 153.799 265.955 150.556 258.674Z" fill="#DB7064"/>
<path d="M159.552 302.917C157.756 299.338 156.053 295.716 154.444 292.049C152.841 288.379 151.319 284.669 149.947 280.928C148.575 277.187 147.273 273.386 146.091 269.554C144.909 265.723 143.847 261.85 142.886 257.958C143.667 261.901 144.612 265.803 145.72 269.665C146.822 273.527 148.094 277.339 149.466 281.11C150.838 284.881 152.411 288.581 154.093 292.231C155.776 295.881 157.589 299.429 159.552 302.917Z" fill="#995147"/>
<path d="M154.125 291.677C154.729 289.531 155.154 287.345 155.395 285.139C155.66 282.935 155.738 280.715 155.627 278.5C155.329 280.696 155.097 282.892 154.843 285.088C154.589 287.285 154.324 289.461 154.125 291.677Z" fill="#995147"/>
<path d="M150.25 281.6C150.644 279.899 150.887 278.158 150.975 276.403C151.079 274.645 151.02 272.88 150.8 271.136L150.25 281.6Z" fill="#995147"/>
<path d="M146.374 269.198C147.149 266.667 147.54 264.062 147.537 261.446C147.14 262.708 146.856 263.994 146.688 265.292C146.473 266.586 146.368 267.891 146.374 269.198V269.198Z" fill="#995147"/>
<path d="M146.762 275.011C145.794 273.667 144.753 272.38 143.646 271.158C142.556 269.918 141.396 268.745 140.173 267.647C141.141 268.992 142.181 270.279 143.289 271.501C144.386 272.734 145.546 273.906 146.762 275.011V275.011Z" fill="#995147"/>
<path d="M152.188 287.026C150.988 286.299 149.757 285.678 148.537 285.025C147.317 284.372 146.096 283.73 144.823 283.15C145.883 284.066 147.048 284.851 148.295 285.489C149.529 286.149 150.836 286.664 152.188 287.026V287.026Z" fill="#995147"/>
<path d="M198.578 277.487C201.206 274.688 203.298 271.397 204.747 267.787C205.014 267.244 205.162 266.645 205.179 266.035C205.196 265.424 205.082 264.816 204.846 264.255C203.742 262.138 200.985 262.738 199.183 263.67C187.021 270.245 176.802 280.099 169.594 292.204C168.112 294.512 167.319 297.225 167.315 300.006C172.235 296.434 177.849 293.794 182.935 290.463C188.685 286.88 193.945 282.517 198.578 277.487V277.487Z" fill="#DB7064"/>
<path d="M170.69 296.676C172.952 294.021 175.279 291.429 177.672 288.899C180.07 286.374 182.527 283.902 185.056 281.544C187.586 279.186 190.187 276.867 192.852 274.636C195.516 272.406 198.252 270.262 201.038 268.194C198.153 270.129 195.355 272.187 192.642 274.367C189.927 276.541 187.308 278.839 184.754 281.206C182.2 283.574 179.768 286.084 177.412 288.669C175.057 291.254 172.825 293.913 170.69 296.676Z" fill="#995147"/>
<path d="M181.999 284.306C183.495 284.482 185.009 284.521 186.519 284.423C188.032 284.337 189.533 284.107 190.999 283.737L181.999 284.306Z" fill="#995147"/>
<path d="M183.789 282.061C184.573 280.748 185.245 279.357 185.794 277.909C186.356 276.463 186.788 274.964 187.083 273.436L183.789 282.061Z" fill="#995147"/>
<path d="M135.192 288.688H188.725C190.201 288.688 191.397 289.543 191.397 290.599V296.59C191.397 297.646 190.201 298.501 188.725 298.501H135.192C133.716 298.501 132.52 297.646 132.52 296.59V290.599C132.52 289.543 133.716 288.688 135.192 288.688Z" fill="#DB815C"/>
<path d="M186.818 298.501L176.994 325.697C176.994 326.576 170.394 327.286 162.267 327.286C154.14 327.286 147.524 326.576 147.524 325.697L137.099 298.501H186.818Z" fill="#C67554"/>
<path d="M169.412 305.718C165.985 303.097 161.238 301.364 156.031 300.833C150.666 300.318 143.512 300.076 138.363 301.842L137.099 298.501H186.818L176.997 325.977H176.458C178.94 319.103 176.535 311.058 169.412 305.718Z" fill="#B66D4D"/>
<path d="M80.9736 121.56C79.0488 120.937 77.19 120.141 75.4223 119.181C66.396 114.25 59.8484 106.675 57.6144 97.0079C54.8839 85.2431 55.5192 68.2726 59.739 56.8971C61.7642 50.5366 65.4361 44.7708 70.4127 40.1367C74.0659 37.2687 78.3671 35.2572 82.974 34.2623C87.581 33.2674 92.3666 33.3165 96.9502 34.4057C103.449 35.8546 113.13 39.25 117.666 44.2457C124.3 51.5554 127.64 64.9205 129.129 74.2415C131.07 86.1361 131.815 96.0842 126.173 106.854C123.777 111.28 120.618 115.287 116.831 118.705C110.941 123.204 102.908 124.047 95.3932 123.788C90.5006 123.706 85.6453 122.955 80.9736 121.56Z" fill="#201544"/>
<path d="M101.896 95.0421C96.7308 91.3052 86.817 96.7802 86.817 96.7802L85.7757 126.11C85.7757 126.11 104.098 131.492 106.056 127.755C108.014 124.018 105.458 97.6058 101.896 95.0421Z" fill="#F39A83"/>
<path d="M93.8871 117.451C90.5539 119.194 87.7476 121.854 85.7756 125.138L86.8026 96.7786C86.8026 96.7786 96.7796 91.3064 101.978 95.0414C103.738 96.3226 105.074 105.185 106.383 114.998C102.948 114.292 97.0768 115.954 93.8871 117.451Z" fill="#E28D78"/>
<path d="M116.388 100.749V100.9C115.201 103.842 113.326 106.456 110.919 108.521C108.513 110.586 105.646 112.042 102.56 112.767C99.2491 113.558 95.7991 113.562 92.4861 112.779C89.173 111.997 86.0888 110.449 83.4798 108.261C80.1743 105.267 77.3919 101.742 75.2473 97.8308C73.3393 94.5474 73.1035 90.427 71.9886 86.8002C70.3646 80.9399 69.2386 74.9526 68.6228 68.9023C68.3226 65.8764 68.1726 62.829 68.1297 59.7817C67.9831 57.3403 68.747 54.9313 70.2736 53.0217C73.1277 48.9443 76.8229 45.5277 81.1096 43.0028C85.3962 40.4778 90.1743 38.9033 95.121 38.3857C100.301 37.7171 105.566 38.3666 110.428 40.2742C113.912 41.4486 116.807 43.9242 118.511 47.1844C125.8 63.902 123.785 84.3537 116.388 100.749Z" fill="#F39A83"/>
<path d="M63.3226 80.5947C64.578 84.6649 71.1896 89.5954 72.3404 85.8818C73.0308 83.5949 72.6961 81.0563 71.4198 76.986C70.1435 72.9158 71.4198 69.9365 67.7373 71.0905C65.8973 71.7667 64.3995 73.1467 63.572 74.9281C62.7446 76.7095 62.6549 78.7471 63.3226 80.5947V80.5947Z" fill="#F39A83"/>
<path d="M127.855 82.5576C126.6 86.6278 119.988 91.5583 118.837 87.8447C118.147 85.5578 118.482 83.0192 119.758 78.9489C121.034 74.8787 119.758 71.8994 123.44 73.0533C125.28 73.7296 126.778 75.1095 127.606 76.891C128.433 78.6724 128.523 80.71 127.855 82.5576V82.5576Z" fill="#F39A83"/>
<path d="M66.8191 86.6086C66.7679 87.0583 66.8511 87.513 67.0581 87.9154C67.2651 88.3178 67.5868 88.6498 67.9824 88.8695C68.378 89.0892 68.8299 89.1868 69.2809 89.1499C69.732 89.1129 70.1619 88.9432 70.5166 88.662C70.8712 88.3809 71.1345 88.001 71.2734 87.5703C71.4122 87.1396 71.4203 86.6774 71.2966 86.2421C71.1729 85.8067 70.9231 85.4178 70.5785 85.1245C70.2339 84.8311 69.8101 84.6464 69.3607 84.5937C69.0614 84.5586 68.7582 84.5829 68.4683 84.6653C68.1785 84.7476 67.9078 84.8864 67.6716 85.0736C67.4355 85.2608 67.2387 85.4927 67.0924 85.7561C66.9461 86.0196 66.8532 86.3092 66.8191 86.6086Z" fill="white"/>
<path d="M120.463 88.571C120.411 89.0207 120.495 89.4754 120.702 89.8778C120.909 90.2802 121.23 90.6122 121.626 90.8319C122.022 91.0516 122.473 91.1492 122.924 91.1123C123.376 91.0753 123.806 90.9056 124.16 90.6244C124.515 90.3433 124.778 89.9634 124.917 89.5327C125.056 89.102 125.064 88.6398 124.94 88.2045C124.816 87.7691 124.567 87.3802 124.222 87.0869C123.877 86.7935 123.454 86.6088 123.004 86.5561C122.705 86.521 122.402 86.5453 122.112 86.6277C121.822 86.71 121.551 86.8488 121.315 87.036C121.079 87.2232 120.882 87.4551 120.736 87.7185C120.59 87.982 120.497 88.2716 120.463 88.571Z" fill="white"/>
<path d="M122.815 75.4194H122.615C121.377 76.8652 122.016 79.9694 121.956 81.7979C121.956 82.5633 121.956 83.2862 121.756 83.924C122.681 83.8989 123.568 83.5334 124.268 82.8898C124.967 82.2462 125.435 81.3644 125.592 80.3946C125.804 79.3454 125.636 78.2495 125.121 77.3268C124.606 76.404 123.783 75.7227 122.815 75.4194V75.4194Z" fill="#EE7379"/>
<path d="M69.5966 76.9017L69.7936 76.8689C71.2528 78.0916 71.1321 81.2586 71.4916 83.0524C71.6173 83.8074 71.736 84.5205 72.0379 85.1169C71.122 85.2439 70.1866 85.0292 69.391 84.5092C68.5953 83.9892 67.9888 83.1962 67.6748 82.2654C67.2928 81.2654 67.2786 80.1568 67.6351 79.162C67.9915 78.1671 68.6922 77.3597 69.5966 76.9017V76.9017Z" fill="#EE7379"/>
<path d="M96.0376 58.8434L95.7825 58.301C102.084 63.7429 109.415 67.8046 117.319 70.2341L111.621 63.7252C113.365 65.7646 115.873 67.24 117.744 69.2795C119.615 71.3189 120.912 74.53 122.804 75.4196C124.17 73.0507 124.903 70.3574 124.93 67.6088C125.541 60.0169 123.256 52.4773 118.552 46.5632C115.953 43.4427 112.855 40.7944 109.389 38.7308C106.447 36.9499 103.201 35.7571 99.8219 35.2159C96.8829 34.5375 93.8086 34.8322 91.0448 36.0572C88.281 37.2822 85.9714 39.3737 84.4509 42.0286C81.0706 47.5395 82.3249 50.2299 86.4281 54.5909C90.1953 58.5906 94.5401 61.9783 99.3117 64.6364C98.071 62.7974 96.9762 60.8603 96.0376 58.8434V58.8434Z" fill="#201544"/>
<path d="M92.0851 49.0619C91.3087 53.6576 87.8883 57.3427 84.4049 60.3712C80.9216 63.3997 76.9766 66.1105 74.4585 70.0285C72.6958 72.7605 71.7096 75.9373 69.9679 78.6905C68.9218 76.7286 68.078 74.6634 67.4498 72.5276C66.0201 65.441 66.9803 58.0754 70.1778 51.6033C71.5645 48.1176 73.7753 45.0272 76.6173 42.6019C79.4593 40.1765 82.8461 38.4899 86.4824 37.6891C89.9238 36.8208 90.6792 38.7057 91.5815 41.5436C92.3453 43.9725 92.518 46.5514 92.0851 49.0619V49.0619Z" fill="#201544"/>
<path d="M105.401 96.2485C104.8 98.223 103.593 99.9403 101.962 101.139C100.332 102.338 98.3681 102.954 96.3692 102.892C94.3702 102.829 92.4455 102.093 90.8876 100.795C89.3297 99.4972 88.2238 97.708 87.738 95.6997L105.401 96.2485Z" fill="white"/>
<path d="M86.4308 79.2981C86.4218 79.6851 86.5273 80.0662 86.7342 80.3934C86.9411 80.7206 87.2402 80.9793 87.5937 81.1369C87.9473 81.2945 88.3395 81.3441 88.7211 81.2794C89.1028 81.2146 89.4567 81.0384 89.7385 80.773C90.0203 80.5076 90.2173 80.1647 90.3047 79.7876C90.3922 79.4104 90.3662 79.0158 90.23 78.6534C90.0938 78.2911 89.8535 77.977 89.5394 77.7509C89.2252 77.5247 88.8512 77.3965 88.4644 77.3824C87.9415 77.3696 87.4347 77.5636 87.054 77.9223C86.6733 78.2809 86.4493 78.7753 86.4308 79.2981V79.2981Z" fill="#201544"/>
<path d="M105.404 79.9027C105.391 80.1644 105.43 80.4259 105.519 80.672C105.608 80.9181 105.744 81.1437 105.92 81.3355C106.097 81.5273 106.309 81.6814 106.545 81.7888C106.781 81.8962 107.036 81.9546 107.294 81.9607C107.817 81.9736 108.323 81.7774 108.704 81.4145C109.084 81.0515 109.308 80.5513 109.327 80.0224C109.327 79.4956 109.12 78.9904 108.752 78.6179C108.384 78.2454 107.885 78.0361 107.365 78.0361C106.845 78.0361 106.346 78.2454 105.978 78.6179C105.61 78.9904 105.404 79.4956 105.404 80.0224V79.9027Z" fill="#201544"/>
<path d="M112.598 74.1109C110.201 72.37 107.187 71.4434 104.093 71.4963" stroke="#201544" stroke-width="0.7" stroke-linecap="round" stroke-linejoin="round"/>
<path d="M81.1966 72.8024C83.6618 71.3555 86.6762 70.6723 89.7012 70.8747" stroke="#201544" stroke-width="0.7" stroke-linecap="round" stroke-linejoin="round"/>
<path d="M97.3605 79.3447C97.0279 80.4331 96.951 81.6077 97.138 82.7436C97.2855 83.84 97.5151 84.9187 97.824 85.9671C97.9724 86.4934 98.1022 86.9977 98.232 87.5021C98.3711 87.8903 98.4405 88.3085 98.436 88.7301C98.3154 89.1722 98.1126 89.5768 97.8426 89.9142C97.5571 90.3475 97.2407 90.751 96.8969 91.1203C97.4066 91.0215 97.8923 90.7942 98.3211 90.4536C98.7499 90.1131 99.1116 89.6673 99.3817 89.1467C99.5577 88.4978 99.5577 87.8001 99.3817 87.1512C99.2704 86.5811 99.1406 86.0329 99.0108 85.5066C98.3417 83.4999 97.7902 81.4411 97.3605 79.3447V79.3447Z" fill="#DE7778"/>
<path d="M73.5641 130.62C74.2427 137.724 71.9524 144.721 70.8072 151.76C69.1856 162.269 70.12 173.018 73.5299 183.081C76.9398 193.145 84 207 103 198C82 198.5 84.1466 185.459 88.6213 174.418C90.9329 168.706 95.1319 163.827 96.7649 157.901C97.8143 153.174 97.8143 148.271 96.7649 143.544C96.0651 139.5 95.6409 135.306 94.6442 131.348C92.9553 125.384 90.2185 119.775 86.5642 114.787C85.0373 112.648 83.5527 110.508 82.0682 108.368C80.5837 106.229 78.2085 104.645 76.618 102.399C73.6901 98.6675 64.306 95.6453 60.5583 92.7554C51.0574 97.4197 72.8643 123.217 73.5641 130.62Z" fill="#201544"/>
<rect x="154.108" y="57.1016" width="119.718" height="76.5411" rx="20" fill="white"/>
<rect x="228.687" y="71.4941" width="24.2053" height="6.54197" rx="3.27099" fill="#EFECEC"/>
<rect x="228.687" y="114.671" width="24.2053" height="6.54197" rx="3.27099" fill="#EFECEC"/>
<rect x="164.576" y="66.9146" width="56.9151" height="56.9151" rx="10" fill="#EFECEC"/>
<path d="M284.948 61.0268C284.948 68.2529 279.09 74.1108 271.864 74.1108C264.638 74.1108 258.78 68.2529 258.78 61.0268C258.78 53.8008 264.638 47.9429 271.864 47.9429C279.09 47.9429 284.948 53.8008 284.948 61.0268Z" fill="#EE7379"/>
<rect x="228.687" y="100.279" width="34.0182" height="6.54197" rx="3.27099" fill="#EFECEC"/>
<rect x="228.687" y="85.8862" width="16.3549" height="6.54197" rx="3.27099" fill="#EFECEC"/>
<path d="M204.213 91.046C207.537 92.9723 207.537 97.7717 204.213 99.698L190.4 107.703C187.067 109.635 182.893 107.23 182.893 103.377L182.893 87.3667C182.893 83.514 187.067 81.1089 190.4 83.0407L197.285 87.031L204.213 91.046Z" fill="#4992CF"/>
<path d="M240.407 169.115C245.529 165.395 252.738 160.965 255.7 155.318C256.614 150.463 252.419 148.689 250.423 146.08C249.051 144.272 242.773 139.923 240.487 143.029C238.202 146.135 234.632 150.022 232.672 153.245C230.712 156.469 230.878 163.449 231.61 164.225C232.341 165.001 240.407 169.115 240.407 169.115Z" fill="#F39A83"/>
<path d="M232.834 163.318C232.834 163.318 224.206 152.563 235.366 136.825C235.366 136.825 238.022 137.901 237.657 145.647C236.279 150.696 237.94 154.204 237.123 158.526C236.963 159.446 233.336 162.516 232.834 163.318Z" fill="#F39A83"/>
<path d="M240.813 142.778C240.813 142.778 245.398 136.43 252.607 125.654C252.607 125.654 255.287 129.026 251.831 135.953C249.962 139.926 246.51 143.755 244.118 147.443C243.619 148.233 241.754 143.921 240.813 142.778Z" fill="#F39A83"/>
<path d="M257.965 153.745C255.003 159.392 249.042 164.661 242.5 162.371C235.958 160.081 244.407 147.708 246.261 144.448C248.116 141.188 252.003 142.173 253.375 143.98C255.371 146.589 258.878 148.89 257.965 153.745Z" fill="#FCB29F"/>
<path d="M257.054 147.979C256.225 148.669 250.705 155.011 248.655 155.922C251.795 154.835 257.173 149.549 257.266 149.114C257.435 148.854 257.054 147.979 257.054 147.979Z" fill="#BA5E44"/>
<path d="M253.658 144.053C252.962 144.877 248.631 152.085 246.772 153.339C249.674 151.722 254.048 145.579 254.064 145.135C254.185 144.849 253.658 144.053 253.658 144.053Z" fill="#BA5E44"/>
<path d="M233.329 158.589C234.649 162.497 236.4 165.252 241.475 167.967C218.729 219.744 209.45 228.133 208.725 228.613C208.173 228.894 205.05 231.745 202.322 232.727C188.485 233.725 184.22 213.112 192.968 205.292C201.716 197.471 233.329 158.589 233.329 158.589Z" fill="#F39A83"/>
<path d="M112.413 290.992C113.816 286.585 124.855 287.299 125.038 282.845C112.537 277.311 102.752 268.95 91.4556 261.504C80.1597 254.058 61.635 235.009 58.3077 234.543C52.8161 233.773 47.3796 237.826 45.3973 240.455C40.222 251.111 49.8831 258.897 53.2089 261.137C58.8367 264.783 97.9145 287.549 112.413 290.992Z" fill="#F39A83"/>
<path d="M117.717 278.697C117.717 278.697 130.625 273.021 139.247 289.918C139.247 289.918 136.909 292.367 130.3 288.293C126.501 286.08 122.89 283.574 119.499 280.799C118.789 280.204 118.187 279.495 117.717 278.697V278.697Z" fill="#F39A83"/>
<path d="M109.489 285.318C110.96 291.572 113.877 297.408 117.999 302.343C124.289 308.981 130.06 308.388 133.292 307.505C135.499 306.888 142.196 304.81 139.535 302.534C136.874 300.257 129.876 286.78 127.608 283.658C125.339 280.535 118.87 278.163 117.828 278.49C116.786 278.816 109.489 285.318 109.489 285.318Z" fill="#F39A83"/>
<path d="M130.393 308.156C129.608 307.063 121.785 300.184 121.065 297.582C121.693 301.528 127.758 306.972 128.527 307.961L130.393 308.156Z" fill="#BA5E44"/>
<path d="M136.286 306.748C135.5 305.655 127.579 298.159 126.859 295.557C127.487 299.504 133.831 306.695 134.469 306.862C134.813 307.1 136.286 306.748 136.286 306.748Z" fill="#BA5E44"/>
</svg>
