<svg width="342" height="267" viewBox="0 0 342 267" fill="none" xmlns="http://www.w3.org/2000/svg">
<path d="M324.049 108.69C354.28 174.401 279.348 280.341 174.448 237.52C142.091 224.312 119.7 247.19 80.0254 254.396C40.3507 261.601 -3.34017 226.765 7.75061 170.975C18.8414 115.185 59.5858 155.515 59.5858 89.3812C59.5858 23.2469 90.0671 -12.7849 160.993 28.6826C231.918 70.1501 293.818 42.9796 324.049 108.69Z" fill="#5E6574"/>
<rect x="114.822" y="100.397" width="180.279" height="115.261" rx="20" fill="#D1D1D1"/>
<rect x="98.1567" y="208.616" width="196.945" height="10.0825" rx="5.04125" fill="#EFECEC"/>
<mask id="mask0" mask-type="alpha" maskUnits="userSpaceOnUse" x="126" y="113" width="158" height="88">
<rect x="126.388" y="113.169" width="156.636" height="87.6769" rx="10" fill="#ECF7FE"/>
</mask>
<g mask="url(#mask0)">
<rect x="120" y="110" width="173.419" height="93.4312" rx="10" fill="#D2ECFC"/>
<path d="M249.969 183.046C236.617 185.377 222.886 184.17 210.148 179.546C196.848 175 185.24 169.328 170.73 170.454C159.708 171.571 135.429 172.508 125.043 176.359L126.388 200.893L283.339 201.229V175.351C279.644 176.569 253.79 182.309 249.969 183.046Z" fill="#95AC7B"/>
<path d="M198.646 170.982C199.695 173.197 204.276 175.238 204.359 177.704C187.793 195.472 130.422 187.896 125.152 187.786V167.833C130.334 162.052 131.093 160.958 139.931 163.328C143.086 164.667 146.551 165.014 149.895 164.326C154.997 162.58 157.407 160.667 163.032 162.58C166.804 163.777 172.184 162.675 176.128 162.58C181.873 162.746 182.878 167.695 187.859 169.4C192.118 170.855 196.115 166.033 198.646 170.982Z" fill="#9ECB89"/>
<path d="M244.716 183.771C236.539 184.564 227.973 183.98 219.963 182.179C216.867 192.27 199.839 195.754 189.41 197.916C184.481 198.958 179.511 200.039 174.5 201H233.04C238.849 196.79 243.202 190.707 244.716 183.771Z" fill="#FCD4A6"/>
</g>
<path d="M275.681 141.884C275.873 142.068 273.54 166.667 273.592 166.943C274.465 174.691 285.343 149.544 292.749 150.766C292.749 150.766 323.108 149.787 330.999 141.884C331 132 330.543 127.492 328.5 120C327 114.5 326 113 324.5 109.5C316.162 108.839 290.423 123.892 290.423 123.892C286.621 124.923 280.601 127.089 277.961 130.31C275.322 133.531 276.193 137.649 275.681 141.884Z" fill="#D2ECFC"/>
<path d="M273.529 185.971C273.477 185.695 270.568 184.419 275.681 179.777C283.339 173.328 325.361 165.721 328 162.5C326.5 171 322 185.5 309 203C283.458 196.615 277 201.5 272.5 200.5C268 199.5 274.401 193.719 273.529 185.971Z" fill="#95AC7B"/>
<path d="M280.158 177.169C271.658 178.714 276.158 178.169 265.158 179.714C278 170.5 269.5 150 290.424 147.463C290.424 147.463 303.504 146.802 311.842 147.463C317.652 147.924 327.352 137.864 330.999 142.409C330.999 148.5 329.5 160.5 327 166.5C319.109 174.404 280.158 177.169 280.158 177.169Z" fill="#9ECB89"/>
<path d="M162.15 139.907C178.833 137.358 195.232 143.69 211.672 145.499C223.975 146.701 239.197 147.724 253.5 145.499C266.459 143.482 328.5 122 329 122C327 112.5 321.316 103.086 321.316 103.086C245.5 146.419 221.835 135.961 208.959 134.563C182.68 131.685 150.642 118.023 126.388 130.316V152.497C134.917 147.033 152.144 141.186 162.15 139.907Z" fill="#94BDDF"/>
<path d="M126.658 60.1689C126.658 80.8796 109.645 97.6689 88.6582 97.6689C67.6714 97.6689 50.6582 80.8796 50.6582 60.1689C50.6582 39.4583 67.6714 22.6689 88.6582 22.6689C109.645 22.6689 126.658 39.4583 126.658 60.1689Z" fill="#F28649"/>
<path d="M224.12 155.334C227.463 157.257 227.463 162.081 224.12 164.004L199.151 178.361C195.817 180.278 191.658 177.871 191.658 174.026L191.658 145.312C191.658 141.467 195.817 139.06 199.151 140.977L211.658 148.169L224.12 155.334Z" fill="#4992CF"/>
<path d="M78.8399 86.6824C84.5676 87.7548 86.6702 84.2948 87.6341 81.6028L75.7694 80.0612C74.8056 82.7531 76.1632 85.724 78.8399 86.6824ZM100.865 69.5679L105.246 57.3317C107.936 49.8187 106.233 42.1133 99.9321 37.98L100.528 36.3158C101.255 34.2846 100.227 32.0665 98.2251 31.3499C96.2236 30.6333 94.0209 31.6945 93.2936 33.7257L92.6978 35.3898C85.1812 34.576 79.0075 39.4336 76.3088 46.9711L71.9278 59.2073L65.3525 62.375L64.4763 64.8222C64.4763 64.8222 66.1658 77.2819 102.025 81.6027C103.032 81.7242 103.936 76.1891 103.936 76.1891L100.865 69.5679Z" fill="white"/>
<path d="M47.3542 187.669V153.397H56.6182V180.181H69.8182V187.669H47.3542Z" fill="#EE7379"/>
<path d="M91.0837 187.669H73.2277V182.389L77.4997 180.757V160.261L73.2277 158.677V153.397H91.0837V158.677L86.8117 160.261V180.757L91.0837 182.389V187.669Z" fill="#EE7379"/>
<path d="M126.048 153.397L114.816 187.669H103.92L92.7364 153.397H103.152L107.808 170.773C107.968 171.413 108.16 172.245 108.384 173.269C108.608 174.293 108.816 175.317 109.008 176.341C109.232 177.365 109.36 178.197 109.392 178.837C109.456 178.197 109.568 177.381 109.728 176.389C109.92 175.365 110.112 174.357 110.304 173.365C110.528 172.341 110.736 171.509 110.928 170.869L115.68 153.397H126.048Z" fill="#EE7379"/>
<path d="M150.113 187.669H129.76V153.397H150.113V160.837H139.024V166.213H149.297V173.653H139.024V180.133H150.113V187.669Z" fill="#EE7379"/>
</svg>
